G04 #@! TF.GenerationSoftware,KiCad,Pcbnew,(6.0.0-0)*
G04 #@! TF.CreationDate,2022-07-07T12:10:55+02:00*
G04 #@! TF.ProjectId,core-v-mini-mcu-spiboot-fpga,636f7265-2d76-42d6-9d69-6e692d6d6375,rev?*
G04 #@! TF.SameCoordinates,Original*
G04 #@! TF.FileFunction,Soldermask,Bot*
G04 #@! TF.FilePolarity,Negative*
%FSLAX46Y46*%
G04 Gerber Fmt 4.6, Leading zero omitted, Abs format (unit mm)*
G04 Created by KiCad (PCBNEW (6.0.0-0)) date 2022-07-07 12:10:55*
%MOMM*%
%LPD*%
G01*
G04 APERTURE LIST*
G04 Aperture macros list*
%AMHorizOval*
0 Thick line with rounded ends*
0 $1 width*
0 $2 $3 position (X,Y) of the first rounded end (center of the circle)*
0 $4 $5 position (X,Y) of the second rounded end (center of the circle)*
0 Add line between two ends*
20,1,$1,$2,$3,$4,$5,0*
0 Add two circle primitives to create the rounded ends*
1,1,$1,$2,$3*
1,1,$1,$4,$5*%
%AMRotRect*
0 Rectangle, with rotation*
0 The origin of the aperture is its center*
0 $1 length*
0 $2 width*
0 $3 Rotation angle, in degrees counterclockwise*
0 Add horizontal line*
21,1,$1,$2,0,0,$3*%
G04 Aperture macros list end*
%ADD10R,1.700000X1.700000*%
%ADD11O,1.700000X1.700000*%
%ADD12HorizOval,1.200000X-0.247487X-0.247487X0.247487X0.247487X0*%
%ADD13HorizOval,1.200000X0.247487X0.247487X-0.247487X-0.247487X0*%
%ADD14C,1.450000*%
%ADD15C,1.000000*%
%ADD16RotRect,2.000000X5.000000X45.000000*%
G04 APERTURE END LIST*
D10*
X108712000Y-106648000D03*
D11*
X108712000Y-109188000D03*
X106172000Y-106648000D03*
X106172000Y-109188000D03*
X103632000Y-106648000D03*
X103632000Y-109188000D03*
X101092000Y-106648000D03*
X101092000Y-109188000D03*
X98552000Y-106648000D03*
X98552000Y-109188000D03*
X96012000Y-106648000D03*
X96012000Y-109188000D03*
X93472000Y-106648000D03*
X93472000Y-109188000D03*
X90932000Y-106648000D03*
X90932000Y-109188000D03*
X88392000Y-106648000D03*
X88392000Y-109188000D03*
X85852000Y-106648000D03*
X85852000Y-109188000D03*
D10*
X88975000Y-73500000D03*
D11*
X91515000Y-73500000D03*
D10*
X81280000Y-109220000D03*
D11*
X78740000Y-109220000D03*
X81280000Y-106680000D03*
X78740000Y-106680000D03*
X81280000Y-104140000D03*
X78740000Y-104140000D03*
X81280000Y-101600000D03*
X78740000Y-101600000D03*
X81280000Y-99060000D03*
X78740000Y-99060000D03*
X81280000Y-96520000D03*
X78740000Y-96520000D03*
D12*
X111078217Y-79425514D03*
D13*
X106128470Y-74475767D03*
D14*
X108461922Y-80627596D03*
X104926388Y-77092062D03*
D10*
X81280000Y-86360000D03*
D11*
X78740000Y-86360000D03*
X81280000Y-83820000D03*
X78740000Y-83820000D03*
X81280000Y-81280000D03*
X78740000Y-81280000D03*
X81280000Y-78740000D03*
X78740000Y-78740000D03*
X81280000Y-76200000D03*
X78740000Y-76200000D03*
X81280000Y-73660000D03*
X78740000Y-73660000D03*
D15*
X101500000Y-89000000D03*
X102702082Y-87797918D03*
D16*
X98919060Y-85216979D03*
M02*
