M48
; DRILL file {KiCad (6.0.0-0)} date 2022 July 07, Thursday 12:11:13
; FORMAT={-:-/ absolute / metric / decimal}
; #@! TF.CreationDate,2022-07-07T12:11:13+02:00
; #@! TF.GenerationSoftware,Kicad,Pcbnew,(6.0.0-0)
; #@! TF.FileFunction,Plated,1,4,PTH
FMAT,2
METRIC
; #@! TA.AperFunction,Plated,PTH,ViaDrill
T1C0.350
; #@! TA.AperFunction,Plated,PTH,ViaDrill
T2C0.400
; #@! TA.AperFunction,Plated,PTH,ComponentDrill
T3C0.500
; #@! TA.AperFunction,Plated,PTH,ComponentDrill
T4C0.600
; #@! TA.AperFunction,Plated,PTH,ComponentDrill
T5C0.850
; #@! TA.AperFunction,Plated,PTH,ComponentDrill
T6C1.000
%
G90
G05
T1
X94.35Y-97.375
X98.075Y-94.475
X98.677Y-93.89
X99.05Y-93.2
T2
X82.834Y-98.287
X83.5Y-81.0
X85.524Y-91.609
X85.61Y-90.664
X86.488Y-92.284
X86.507Y-90.268
X86.576Y-79.298
X86.775Y-95.05
X87.387Y-89.795
X87.606Y-88.82
X87.974Y-80.512
X88.012Y-78.488
X88.263Y-98.0
X88.356Y-87.22
X88.725Y-84.85
X88.817Y-89.124
X88.891Y-88.061
X89.025Y-80.5
X89.158Y-86.712
X89.3Y-102.225
X90.276Y-86.787
X91.487Y-86.186
X91.676Y-98.538
X91.925Y-100.225
X92.25Y-92.75
X92.425Y-96.1
X92.475Y-104.85
X92.62Y-86.96
X92.65Y-82.475
X93.025Y-98.8
X93.566Y-87.045
X94.401Y-87.543
X94.401Y-86.594
X94.647Y-101.397
X96.225Y-101.725
X96.25Y-75.5
X97.041Y-100.109
X97.425Y-97.3
X98.503Y-95.209
X98.75Y-82.85
X98.85Y-92.1
X100.0Y-99.8
X100.75Y-86.25
X101.05Y-91.75
X103.5Y-97.75
X104.5Y-79.0
X105.225Y-91.925
X106.225Y-101.775
X106.25Y-97.75
X107.75Y-83.5
X108.644Y-95.727
X109.125Y-99.625
X109.25Y-89.25
X109.913Y-94.829
X110.0Y-88.25
X113.25Y-92.5
X113.5Y-94.5
T3
X101.5Y-89.0
X102.702Y-87.798
T5
X104.926Y-77.092
X108.462Y-80.628
T6
X78.74Y-73.66
X78.74Y-76.2
X78.74Y-78.74
X78.74Y-81.28
X78.74Y-83.82
X78.74Y-86.36
X78.74Y-96.52
X78.74Y-99.06
X78.74Y-101.6
X78.74Y-104.14
X78.74Y-106.68
X78.74Y-109.22
X81.28Y-73.66
X81.28Y-76.2
X81.28Y-78.74
X81.28Y-81.28
X81.28Y-83.82
X81.28Y-86.36
X81.28Y-96.52
X81.28Y-99.06
X81.28Y-101.6
X81.28Y-104.14
X81.28Y-106.68
X81.28Y-109.22
X85.852Y-106.648
X85.852Y-109.188
X88.392Y-106.648
X88.392Y-109.188
X88.975Y-73.5
X90.932Y-106.648
X90.932Y-109.188
X91.515Y-73.5
X93.472Y-106.648
X93.472Y-109.188
X96.012Y-106.648
X96.012Y-109.188
X98.552Y-106.648
X98.552Y-109.188
X101.092Y-106.648
X101.092Y-109.188
X103.632Y-106.648
X103.632Y-109.188
X106.172Y-106.648
X106.172Y-109.188
X108.712Y-106.648
X108.712Y-109.188
T4
X105.881Y-74.723G85X106.376Y-74.228
G05
X111.326Y-79.178G85X110.831Y-79.673
G05
T0
M30
