%FSLAX45Y45*%
G04 Gerber Fmt 4.5, Leading zero omitted, Abs format (unit mm)*
G04 Created by KiCad (PCBNEW (6.0.0-0)) date 2022-07-07 12:11:14*
%MOMM*%
%LPD*%
G01*
G04 APERTURE LIST*
%TA.AperFunction,Profile*%
%ADD10C,0.100000*%
%TD*%
%ADD11C,0.200000*%
%ADD12C,0.035000*%
%ADD13C,0.040000*%
%ADD14C,0.050000*%
%ADD15C,0.060000*%
%ADD16C,0.085000*%
%ADD17C,0.100000*%
G04 APERTURE END LIST*
D10*
X11450000Y-8050000D02*
X11450000Y-11150000D01*
X11450000Y-11150000D02*
X7600000Y-11150000D01*
X7600000Y-11150000D02*
X7600000Y-7150000D01*
X7600000Y-7150000D02*
X10550000Y-7150000D01*
X10550000Y-7150000D02*
X11450000Y-8050000D01*
D11*
D12*
X9417500Y-9720000D02*
X9452500Y-9755000D01*
X9452500Y-9720000D02*
X9417500Y-9755000D01*
X9789995Y-9429995D02*
X9824995Y-9464995D01*
X9824995Y-9429995D02*
X9789995Y-9464995D01*
X9850244Y-9371490D02*
X9885244Y-9406490D01*
X9885244Y-9371490D02*
X9850244Y-9406490D01*
X9887500Y-9302500D02*
X9922500Y-9337500D01*
X9922500Y-9302500D02*
X9887500Y-9337500D01*
D13*
X8303410Y-9828722D02*
G75*
G03*
X8303410Y-9828722I-20000J0D01*
G01*
X8370000Y-8100000D02*
G75*
G03*
X8370000Y-8100000I-20000J0D01*
G01*
X8572450Y-9160936D02*
G75*
G03*
X8572450Y-9160936I-20000J0D01*
G01*
X8581026Y-9066373D02*
G75*
G03*
X8581026Y-9066373I-20000J0D01*
G01*
X8668795Y-9228386D02*
G75*
G03*
X8668795Y-9228386I-20000J0D01*
G01*
X8670653Y-9026816D02*
G75*
G03*
X8670653Y-9026816I-20000J0D01*
G01*
X8677630Y-7929829D02*
G75*
G03*
X8677630Y-7929829I-20000J0D01*
G01*
X8697500Y-9505000D02*
G75*
G03*
X8697500Y-9505000I-20000J0D01*
G01*
X8758700Y-8979510D02*
G75*
G03*
X8758700Y-8979510I-20000J0D01*
G01*
X8780623Y-8881993D02*
G75*
G03*
X8780623Y-8881993I-20000J0D01*
G01*
X8817450Y-8051230D02*
G75*
G03*
X8817450Y-8051230I-20000J0D01*
G01*
X8821230Y-7848770D02*
G75*
G03*
X8821230Y-7848770I-20000J0D01*
G01*
X8846313Y-9800000D02*
G75*
G03*
X8846313Y-9800000I-20000J0D01*
G01*
X8855557Y-8721968D02*
G75*
G03*
X8855557Y-8721968I-20000J0D01*
G01*
X8892500Y-8485000D02*
G75*
G03*
X8892500Y-8485000I-20000J0D01*
G01*
X8901686Y-8912367D02*
G75*
G03*
X8901686Y-8912367I-20000J0D01*
G01*
X8909083Y-8806055D02*
G75*
G03*
X8909083Y-8806055I-20000J0D01*
G01*
X8922550Y-8050000D02*
G75*
G03*
X8922550Y-8050000I-20000J0D01*
G01*
X8935767Y-8671155D02*
G75*
G03*
X8935767Y-8671155I-20000J0D01*
G01*
X8950000Y-10222500D02*
G75*
G03*
X8950000Y-10222500I-20000J0D01*
G01*
X9047599Y-8678732D02*
G75*
G03*
X9047599Y-8678732I-20000J0D01*
G01*
X9168672Y-8618583D02*
G75*
G03*
X9168672Y-8618583I-20000J0D01*
G01*
X9187600Y-9853828D02*
G75*
G03*
X9187600Y-9853828I-20000J0D01*
G01*
X9212500Y-10022500D02*
G75*
G03*
X9212500Y-10022500I-20000J0D01*
G01*
X9245000Y-9275000D02*
G75*
G03*
X9245000Y-9275000I-20000J0D01*
G01*
X9262500Y-9610000D02*
G75*
G03*
X9262500Y-9610000I-20000J0D01*
G01*
X9267500Y-10485000D02*
G75*
G03*
X9267500Y-10485000I-20000J0D01*
G01*
X9281995Y-8696038D02*
G75*
G03*
X9281995Y-8696038I-20000J0D01*
G01*
X9285000Y-8247500D02*
G75*
G03*
X9285000Y-8247500I-20000J0D01*
G01*
X9322500Y-9880000D02*
G75*
G03*
X9322500Y-9880000I-20000J0D01*
G01*
X9376565Y-8704521D02*
G75*
G03*
X9376565Y-8704521I-20000J0D01*
G01*
X9460099Y-8754331D02*
G75*
G03*
X9460099Y-8754331I-20000J0D01*
G01*
X9460099Y-8659380D02*
G75*
G03*
X9460099Y-8659380I-20000J0D01*
G01*
X9484675Y-10139675D02*
G75*
G03*
X9484675Y-10139675I-20000J0D01*
G01*
X9642500Y-10172500D02*
G75*
G03*
X9642500Y-10172500I-20000J0D01*
G01*
X9645000Y-7550000D02*
G75*
G03*
X9645000Y-7550000I-20000J0D01*
G01*
X9724056Y-10010944D02*
G75*
G03*
X9724056Y-10010944I-20000J0D01*
G01*
X9762500Y-9730000D02*
G75*
G03*
X9762500Y-9730000I-20000J0D01*
G01*
X9870275Y-9520887D02*
G75*
G03*
X9870275Y-9520887I-20000J0D01*
G01*
X9895000Y-8285000D02*
G75*
G03*
X9895000Y-8285000I-20000J0D01*
G01*
X9905000Y-9210000D02*
G75*
G03*
X9905000Y-9210000I-20000J0D01*
G01*
X10020000Y-9980000D02*
G75*
G03*
X10020000Y-9980000I-20000J0D01*
G01*
X10095000Y-8625000D02*
G75*
G03*
X10095000Y-8625000I-20000J0D01*
G01*
X10125000Y-9175000D02*
G75*
G03*
X10125000Y-9175000I-20000J0D01*
G01*
X10370000Y-9775000D02*
G75*
G03*
X10370000Y-9775000I-20000J0D01*
G01*
X10470000Y-7900000D02*
G75*
G03*
X10470000Y-7900000I-20000J0D01*
G01*
X10542500Y-9192500D02*
G75*
G03*
X10542500Y-9192500I-20000J0D01*
G01*
X10642500Y-10177500D02*
G75*
G03*
X10642500Y-10177500I-20000J0D01*
G01*
X10645000Y-9775000D02*
G75*
G03*
X10645000Y-9775000I-20000J0D01*
G01*
X10795000Y-8350000D02*
G75*
G03*
X10795000Y-8350000I-20000J0D01*
G01*
X10884420Y-9572747D02*
G75*
G03*
X10884420Y-9572747I-20000J0D01*
G01*
X10932500Y-9962500D02*
G75*
G03*
X10932500Y-9962500I-20000J0D01*
G01*
X10945000Y-8925000D02*
G75*
G03*
X10945000Y-8925000I-20000J0D01*
G01*
X11011272Y-9482945D02*
G75*
G03*
X11011272Y-9482945I-20000J0D01*
G01*
X11020000Y-8825000D02*
G75*
G03*
X11020000Y-8825000I-20000J0D01*
G01*
X11345000Y-9250000D02*
G75*
G03*
X11345000Y-9250000I-20000J0D01*
G01*
X11370000Y-9450000D02*
G75*
G03*
X11370000Y-9450000I-20000J0D01*
G01*
D14*
X10150000Y-8875000D02*
X10150000Y-8925000D01*
X10125000Y-8900000D02*
X10175000Y-8900000D01*
X10270208Y-8754792D02*
X10270208Y-8804792D01*
X10245208Y-8779792D02*
X10295208Y-8779792D01*
D15*
X10634060Y-7468790D02*
X10634060Y-7426363D01*
X10591634Y-7426363D01*
X10591634Y-7468790D01*
X10634060Y-7468790D01*
D11*
X10602240Y-7486468D02*
X10651738Y-7436970D01*
X10573956Y-7458183D02*
X10623454Y-7408686D01*
X10651738Y-7436970D02*
G75*
G03*
X10623454Y-7408686I-14142J14142D01*
G01*
X10573956Y-7458183D02*
G75*
G03*
X10602240Y-7486467I14142J-14142D01*
G01*
D15*
X11129035Y-7963765D02*
X11129035Y-7921338D01*
X11086608Y-7921338D01*
X11086608Y-7963765D01*
X11129035Y-7963765D01*
D11*
X11118428Y-7903660D02*
X11068931Y-7953158D01*
X11146713Y-7931945D02*
X11097215Y-7981442D01*
X11068931Y-7953158D02*
G75*
G03*
X11097215Y-7981442I14142J-14142D01*
G01*
X11146713Y-7931945D02*
G75*
G03*
X11118428Y-7903661I-14142J14142D01*
G01*
D16*
X10492639Y-7751706D02*
X10535139Y-7709206D01*
X10492639Y-7666706D01*
X10450139Y-7709206D01*
X10492639Y-7751706D01*
X10846192Y-8105260D02*
X10888692Y-8062760D01*
X10846192Y-8020260D01*
X10803692Y-8062760D01*
X10846192Y-8105260D01*
D17*
X7824000Y-7316000D02*
X7924000Y-7416000D01*
X7924000Y-7316000D02*
X7824000Y-7416000D01*
X7924000Y-7366000D02*
G75*
G03*
X7924000Y-7366000I-50000J0D01*
G01*
X7824000Y-7570000D02*
X7924000Y-7670000D01*
X7924000Y-7570000D02*
X7824000Y-7670000D01*
X7924000Y-7620000D02*
G75*
G03*
X7924000Y-7620000I-50000J0D01*
G01*
X7824000Y-7824000D02*
X7924000Y-7924000D01*
X7924000Y-7824000D02*
X7824000Y-7924000D01*
X7924000Y-7874000D02*
G75*
G03*
X7924000Y-7874000I-50000J0D01*
G01*
X7824000Y-8078000D02*
X7924000Y-8178000D01*
X7924000Y-8078000D02*
X7824000Y-8178000D01*
X7924000Y-8128000D02*
G75*
G03*
X7924000Y-8128000I-50000J0D01*
G01*
X7824000Y-8332000D02*
X7924000Y-8432000D01*
X7924000Y-8332000D02*
X7824000Y-8432000D01*
X7924000Y-8382000D02*
G75*
G03*
X7924000Y-8382000I-50000J0D01*
G01*
X7824000Y-8586000D02*
X7924000Y-8686000D01*
X7924000Y-8586000D02*
X7824000Y-8686000D01*
X7924000Y-8636000D02*
G75*
G03*
X7924000Y-8636000I-50000J0D01*
G01*
X7824000Y-9602000D02*
X7924000Y-9702000D01*
X7924000Y-9602000D02*
X7824000Y-9702000D01*
X7924000Y-9652000D02*
G75*
G03*
X7924000Y-9652000I-50000J0D01*
G01*
X7824000Y-9856000D02*
X7924000Y-9956000D01*
X7924000Y-9856000D02*
X7824000Y-9956000D01*
X7924000Y-9906000D02*
G75*
G03*
X7924000Y-9906000I-50000J0D01*
G01*
X7824000Y-10110000D02*
X7924000Y-10210000D01*
X7924000Y-10110000D02*
X7824000Y-10210000D01*
X7924000Y-10160000D02*
G75*
G03*
X7924000Y-10160000I-50000J0D01*
G01*
X7824000Y-10364000D02*
X7924000Y-10464000D01*
X7924000Y-10364000D02*
X7824000Y-10464000D01*
X7924000Y-10414000D02*
G75*
G03*
X7924000Y-10414000I-50000J0D01*
G01*
X7824000Y-10618000D02*
X7924000Y-10718000D01*
X7924000Y-10618000D02*
X7824000Y-10718000D01*
X7924000Y-10668000D02*
G75*
G03*
X7924000Y-10668000I-50000J0D01*
G01*
X7824000Y-10872000D02*
X7924000Y-10972000D01*
X7924000Y-10872000D02*
X7824000Y-10972000D01*
X7924000Y-10922000D02*
G75*
G03*
X7924000Y-10922000I-50000J0D01*
G01*
X8078000Y-7316000D02*
X8178000Y-7416000D01*
X8178000Y-7316000D02*
X8078000Y-7416000D01*
X8178000Y-7366000D02*
G75*
G03*
X8178000Y-7366000I-50000J0D01*
G01*
X8078000Y-7570000D02*
X8178000Y-7670000D01*
X8178000Y-7570000D02*
X8078000Y-7670000D01*
X8178000Y-7620000D02*
G75*
G03*
X8178000Y-7620000I-50000J0D01*
G01*
X8078000Y-7824000D02*
X8178000Y-7924000D01*
X8178000Y-7824000D02*
X8078000Y-7924000D01*
X8178000Y-7874000D02*
G75*
G03*
X8178000Y-7874000I-50000J0D01*
G01*
X8078000Y-8078000D02*
X8178000Y-8178000D01*
X8178000Y-8078000D02*
X8078000Y-8178000D01*
X8178000Y-8128000D02*
G75*
G03*
X8178000Y-8128000I-50000J0D01*
G01*
X8078000Y-8332000D02*
X8178000Y-8432000D01*
X8178000Y-8332000D02*
X8078000Y-8432000D01*
X8178000Y-8382000D02*
G75*
G03*
X8178000Y-8382000I-50000J0D01*
G01*
X8078000Y-8586000D02*
X8178000Y-8686000D01*
X8178000Y-8586000D02*
X8078000Y-8686000D01*
X8178000Y-8636000D02*
G75*
G03*
X8178000Y-8636000I-50000J0D01*
G01*
X8078000Y-9602000D02*
X8178000Y-9702000D01*
X8178000Y-9602000D02*
X8078000Y-9702000D01*
X8178000Y-9652000D02*
G75*
G03*
X8178000Y-9652000I-50000J0D01*
G01*
X8078000Y-9856000D02*
X8178000Y-9956000D01*
X8178000Y-9856000D02*
X8078000Y-9956000D01*
X8178000Y-9906000D02*
G75*
G03*
X8178000Y-9906000I-50000J0D01*
G01*
X8078000Y-10110000D02*
X8178000Y-10210000D01*
X8178000Y-10110000D02*
X8078000Y-10210000D01*
X8178000Y-10160000D02*
G75*
G03*
X8178000Y-10160000I-50000J0D01*
G01*
X8078000Y-10364000D02*
X8178000Y-10464000D01*
X8178000Y-10364000D02*
X8078000Y-10464000D01*
X8178000Y-10414000D02*
G75*
G03*
X8178000Y-10414000I-50000J0D01*
G01*
X8078000Y-10618000D02*
X8178000Y-10718000D01*
X8178000Y-10618000D02*
X8078000Y-10718000D01*
X8178000Y-10668000D02*
G75*
G03*
X8178000Y-10668000I-50000J0D01*
G01*
X8078000Y-10872000D02*
X8178000Y-10972000D01*
X8178000Y-10872000D02*
X8078000Y-10972000D01*
X8178000Y-10922000D02*
G75*
G03*
X8178000Y-10922000I-50000J0D01*
G01*
X8535200Y-10614800D02*
X8635200Y-10714800D01*
X8635200Y-10614800D02*
X8535200Y-10714800D01*
X8635200Y-10664800D02*
G75*
G03*
X8635200Y-10664800I-50000J0D01*
G01*
X8535200Y-10868800D02*
X8635200Y-10968800D01*
X8635200Y-10868800D02*
X8535200Y-10968800D01*
X8635200Y-10918800D02*
G75*
G03*
X8635200Y-10918800I-50000J0D01*
G01*
X8789200Y-10614800D02*
X8889200Y-10714800D01*
X8889200Y-10614800D02*
X8789200Y-10714800D01*
X8889200Y-10664800D02*
G75*
G03*
X8889200Y-10664800I-50000J0D01*
G01*
X8789200Y-10868800D02*
X8889200Y-10968800D01*
X8889200Y-10868800D02*
X8789200Y-10968800D01*
X8889200Y-10918800D02*
G75*
G03*
X8889200Y-10918800I-50000J0D01*
G01*
X8847500Y-7300000D02*
X8947500Y-7400000D01*
X8947500Y-7300000D02*
X8847500Y-7400000D01*
X8947500Y-7350000D02*
G75*
G03*
X8947500Y-7350000I-50000J0D01*
G01*
X9043200Y-10614800D02*
X9143200Y-10714800D01*
X9143200Y-10614800D02*
X9043200Y-10714800D01*
X9143200Y-10664800D02*
G75*
G03*
X9143200Y-10664800I-50000J0D01*
G01*
X9043200Y-10868800D02*
X9143200Y-10968800D01*
X9143200Y-10868800D02*
X9043200Y-10968800D01*
X9143200Y-10918800D02*
G75*
G03*
X9143200Y-10918800I-50000J0D01*
G01*
X9101500Y-7300000D02*
X9201500Y-7400000D01*
X9201500Y-7300000D02*
X9101500Y-7400000D01*
X9201500Y-7350000D02*
G75*
G03*
X9201500Y-7350000I-50000J0D01*
G01*
X9297200Y-10614800D02*
X9397200Y-10714800D01*
X9397200Y-10614800D02*
X9297200Y-10714800D01*
X9397200Y-10664800D02*
G75*
G03*
X9397200Y-10664800I-50000J0D01*
G01*
X9297200Y-10868800D02*
X9397200Y-10968800D01*
X9397200Y-10868800D02*
X9297200Y-10968800D01*
X9397200Y-10918800D02*
G75*
G03*
X9397200Y-10918800I-50000J0D01*
G01*
X9551200Y-10614800D02*
X9651200Y-10714800D01*
X9651200Y-10614800D02*
X9551200Y-10714800D01*
X9651200Y-10664800D02*
G75*
G03*
X9651200Y-10664800I-50000J0D01*
G01*
X9551200Y-10868800D02*
X9651200Y-10968800D01*
X9651200Y-10868800D02*
X9551200Y-10968800D01*
X9651200Y-10918800D02*
G75*
G03*
X9651200Y-10918800I-50000J0D01*
G01*
X9805200Y-10614800D02*
X9905200Y-10714800D01*
X9905200Y-10614800D02*
X9805200Y-10714800D01*
X9905200Y-10664800D02*
G75*
G03*
X9905200Y-10664800I-50000J0D01*
G01*
X9805200Y-10868800D02*
X9905200Y-10968800D01*
X9905200Y-10868800D02*
X9805200Y-10968800D01*
X9905200Y-10918800D02*
G75*
G03*
X9905200Y-10918800I-50000J0D01*
G01*
X10059200Y-10614800D02*
X10159200Y-10714800D01*
X10159200Y-10614800D02*
X10059200Y-10714800D01*
X10159200Y-10664800D02*
G75*
G03*
X10159200Y-10664800I-50000J0D01*
G01*
X10059200Y-10868800D02*
X10159200Y-10968800D01*
X10159200Y-10868800D02*
X10059200Y-10968800D01*
X10159200Y-10918800D02*
G75*
G03*
X10159200Y-10918800I-50000J0D01*
G01*
X10313200Y-10614800D02*
X10413200Y-10714800D01*
X10413200Y-10614800D02*
X10313200Y-10714800D01*
X10413200Y-10664800D02*
G75*
G03*
X10413200Y-10664800I-50000J0D01*
G01*
X10313200Y-10868800D02*
X10413200Y-10968800D01*
X10413200Y-10868800D02*
X10313200Y-10968800D01*
X10413200Y-10918800D02*
G75*
G03*
X10413200Y-10918800I-50000J0D01*
G01*
X10567200Y-10614800D02*
X10667200Y-10714800D01*
X10667200Y-10614800D02*
X10567200Y-10714800D01*
X10667200Y-10664800D02*
G75*
G03*
X10667200Y-10664800I-50000J0D01*
G01*
X10567200Y-10868800D02*
X10667200Y-10968800D01*
X10667200Y-10868800D02*
X10567200Y-10968800D01*
X10667200Y-10918800D02*
G75*
G03*
X10667200Y-10918800I-50000J0D01*
G01*
X10821200Y-10614800D02*
X10921200Y-10714800D01*
X10921200Y-10614800D02*
X10821200Y-10714800D01*
X10921200Y-10664800D02*
G75*
G03*
X10921200Y-10664800I-50000J0D01*
G01*
X10821200Y-10868800D02*
X10921200Y-10968800D01*
X10921200Y-10868800D02*
X10821200Y-10968800D01*
X10921200Y-10918800D02*
G75*
G03*
X10921200Y-10918800I-50000J0D01*
G01*
D11*
X7852619Y-11465476D02*
X7852619Y-11265476D01*
X7900238Y-11265476D01*
X7928809Y-11275000D01*
X7947857Y-11294048D01*
X7957381Y-11313095D01*
X7966905Y-11351190D01*
X7966905Y-11379762D01*
X7957381Y-11417857D01*
X7947857Y-11436905D01*
X7928809Y-11455952D01*
X7900238Y-11465476D01*
X7852619Y-11465476D01*
X8052619Y-11465476D02*
X8052619Y-11332143D01*
X8052619Y-11370238D02*
X8062143Y-11351190D01*
X8071667Y-11341667D01*
X8090714Y-11332143D01*
X8109762Y-11332143D01*
X8176428Y-11465476D02*
X8176428Y-11332143D01*
X8176428Y-11265476D02*
X8166905Y-11275000D01*
X8176428Y-11284524D01*
X8185952Y-11275000D01*
X8176428Y-11265476D01*
X8176428Y-11284524D01*
X8300238Y-11465476D02*
X8281190Y-11455952D01*
X8271667Y-11436905D01*
X8271667Y-11265476D01*
X8405000Y-11465476D02*
X8385952Y-11455952D01*
X8376428Y-11436905D01*
X8376428Y-11265476D01*
X8633571Y-11465476D02*
X8633571Y-11265476D01*
X8700238Y-11408333D01*
X8766905Y-11265476D01*
X8766905Y-11465476D01*
X8947857Y-11465476D02*
X8947857Y-11360714D01*
X8938333Y-11341667D01*
X8919286Y-11332143D01*
X8881190Y-11332143D01*
X8862143Y-11341667D01*
X8947857Y-11455952D02*
X8928810Y-11465476D01*
X8881190Y-11465476D01*
X8862143Y-11455952D01*
X8852619Y-11436905D01*
X8852619Y-11417857D01*
X8862143Y-11398809D01*
X8881190Y-11389286D01*
X8928810Y-11389286D01*
X8947857Y-11379762D01*
X9043095Y-11332143D02*
X9043095Y-11532143D01*
X9043095Y-11341667D02*
X9062143Y-11332143D01*
X9100238Y-11332143D01*
X9119286Y-11341667D01*
X9128810Y-11351190D01*
X9138333Y-11370238D01*
X9138333Y-11427381D01*
X9128810Y-11446428D01*
X9119286Y-11455952D01*
X9100238Y-11465476D01*
X9062143Y-11465476D01*
X9043095Y-11455952D01*
X9224048Y-11446428D02*
X9233571Y-11455952D01*
X9224048Y-11465476D01*
X9214524Y-11455952D01*
X9224048Y-11446428D01*
X9224048Y-11465476D01*
X9224048Y-11341667D02*
X9233571Y-11351190D01*
X9224048Y-11360714D01*
X9214524Y-11351190D01*
X9224048Y-11341667D01*
X9224048Y-11360714D01*
D12*
X7560000Y-11777500D02*
X7595000Y-11812500D01*
X7595000Y-11777500D02*
X7560000Y-11812500D01*
D11*
X7890714Y-11685476D02*
X7909762Y-11685476D01*
X7928809Y-11695000D01*
X7938333Y-11704524D01*
X7947857Y-11723571D01*
X7957381Y-11761667D01*
X7957381Y-11809286D01*
X7947857Y-11847381D01*
X7938333Y-11866428D01*
X7928809Y-11875952D01*
X7909762Y-11885476D01*
X7890714Y-11885476D01*
X7871667Y-11875952D01*
X7862143Y-11866428D01*
X7852619Y-11847381D01*
X7843095Y-11809286D01*
X7843095Y-11761667D01*
X7852619Y-11723571D01*
X7862143Y-11704524D01*
X7871667Y-11695000D01*
X7890714Y-11685476D01*
X8043095Y-11866428D02*
X8052619Y-11875952D01*
X8043095Y-11885476D01*
X8033571Y-11875952D01*
X8043095Y-11866428D01*
X8043095Y-11885476D01*
X8119286Y-11685476D02*
X8243095Y-11685476D01*
X8176428Y-11761667D01*
X8205000Y-11761667D01*
X8224048Y-11771190D01*
X8233571Y-11780714D01*
X8243095Y-11799762D01*
X8243095Y-11847381D01*
X8233571Y-11866428D01*
X8224048Y-11875952D01*
X8205000Y-11885476D01*
X8147857Y-11885476D01*
X8128809Y-11875952D01*
X8119286Y-11866428D01*
X8424048Y-11685476D02*
X8328809Y-11685476D01*
X8319286Y-11780714D01*
X8328809Y-11771190D01*
X8347857Y-11761667D01*
X8395476Y-11761667D01*
X8414524Y-11771190D01*
X8424048Y-11780714D01*
X8433571Y-11799762D01*
X8433571Y-11847381D01*
X8424048Y-11866428D01*
X8414524Y-11875952D01*
X8395476Y-11885476D01*
X8347857Y-11885476D01*
X8328809Y-11875952D01*
X8319286Y-11866428D01*
X8557381Y-11685476D02*
X8576429Y-11685476D01*
X8595476Y-11695000D01*
X8605000Y-11704524D01*
X8614524Y-11723571D01*
X8624048Y-11761667D01*
X8624048Y-11809286D01*
X8614524Y-11847381D01*
X8605000Y-11866428D01*
X8595476Y-11875952D01*
X8576429Y-11885476D01*
X8557381Y-11885476D01*
X8538333Y-11875952D01*
X8528810Y-11866428D01*
X8519286Y-11847381D01*
X8509762Y-11809286D01*
X8509762Y-11761667D01*
X8519286Y-11723571D01*
X8528810Y-11704524D01*
X8538333Y-11695000D01*
X8557381Y-11685476D01*
X8709762Y-11885476D02*
X8709762Y-11752143D01*
X8709762Y-11771190D02*
X8719286Y-11761667D01*
X8738333Y-11752143D01*
X8766905Y-11752143D01*
X8785952Y-11761667D01*
X8795476Y-11780714D01*
X8795476Y-11885476D01*
X8795476Y-11780714D02*
X8805000Y-11761667D01*
X8824048Y-11752143D01*
X8852619Y-11752143D01*
X8871667Y-11761667D01*
X8881190Y-11780714D01*
X8881190Y-11885476D01*
X8976429Y-11885476D02*
X8976429Y-11752143D01*
X8976429Y-11771190D02*
X8985952Y-11761667D01*
X9005000Y-11752143D01*
X9033571Y-11752143D01*
X9052619Y-11761667D01*
X9062143Y-11780714D01*
X9062143Y-11885476D01*
X9062143Y-11780714D02*
X9071667Y-11761667D01*
X9090714Y-11752143D01*
X9119286Y-11752143D01*
X9138333Y-11761667D01*
X9147857Y-11780714D01*
X9147857Y-11885476D01*
X9538333Y-11675952D02*
X9366905Y-11933095D01*
X9795476Y-11685476D02*
X9814524Y-11685476D01*
X9833571Y-11695000D01*
X9843095Y-11704524D01*
X9852619Y-11723571D01*
X9862143Y-11761667D01*
X9862143Y-11809286D01*
X9852619Y-11847381D01*
X9843095Y-11866428D01*
X9833571Y-11875952D01*
X9814524Y-11885476D01*
X9795476Y-11885476D01*
X9776429Y-11875952D01*
X9766905Y-11866428D01*
X9757381Y-11847381D01*
X9747857Y-11809286D01*
X9747857Y-11761667D01*
X9757381Y-11723571D01*
X9766905Y-11704524D01*
X9776429Y-11695000D01*
X9795476Y-11685476D01*
X9947857Y-11866428D02*
X9957381Y-11875952D01*
X9947857Y-11885476D01*
X9938333Y-11875952D01*
X9947857Y-11866428D01*
X9947857Y-11885476D01*
X10081190Y-11685476D02*
X10100238Y-11685476D01*
X10119286Y-11695000D01*
X10128810Y-11704524D01*
X10138333Y-11723571D01*
X10147857Y-11761667D01*
X10147857Y-11809286D01*
X10138333Y-11847381D01*
X10128810Y-11866428D01*
X10119286Y-11875952D01*
X10100238Y-11885476D01*
X10081190Y-11885476D01*
X10062143Y-11875952D01*
X10052619Y-11866428D01*
X10043095Y-11847381D01*
X10033571Y-11809286D01*
X10033571Y-11761667D01*
X10043095Y-11723571D01*
X10052619Y-11704524D01*
X10062143Y-11695000D01*
X10081190Y-11685476D01*
X10338333Y-11885476D02*
X10224048Y-11885476D01*
X10281190Y-11885476D02*
X10281190Y-11685476D01*
X10262143Y-11714048D01*
X10243095Y-11733095D01*
X10224048Y-11742619D01*
X10405000Y-11685476D02*
X10528810Y-11685476D01*
X10462143Y-11761667D01*
X10490714Y-11761667D01*
X10509762Y-11771190D01*
X10519286Y-11780714D01*
X10528810Y-11799762D01*
X10528810Y-11847381D01*
X10519286Y-11866428D01*
X10509762Y-11875952D01*
X10490714Y-11885476D01*
X10433571Y-11885476D01*
X10414524Y-11875952D01*
X10405000Y-11866428D01*
X10643095Y-11771190D02*
X10624048Y-11761667D01*
X10614524Y-11752143D01*
X10605000Y-11733095D01*
X10605000Y-11723571D01*
X10614524Y-11704524D01*
X10624048Y-11695000D01*
X10643095Y-11685476D01*
X10681190Y-11685476D01*
X10700238Y-11695000D01*
X10709762Y-11704524D01*
X10719286Y-11723571D01*
X10719286Y-11733095D01*
X10709762Y-11752143D01*
X10700238Y-11761667D01*
X10681190Y-11771190D01*
X10643095Y-11771190D01*
X10624048Y-11780714D01*
X10614524Y-11790238D01*
X10605000Y-11809286D01*
X10605000Y-11847381D01*
X10614524Y-11866428D01*
X10624048Y-11875952D01*
X10643095Y-11885476D01*
X10681190Y-11885476D01*
X10700238Y-11875952D01*
X10709762Y-11866428D01*
X10719286Y-11847381D01*
X10719286Y-11809286D01*
X10709762Y-11790238D01*
X10700238Y-11780714D01*
X10681190Y-11771190D01*
X10795476Y-11685476D02*
X10795476Y-11723571D01*
X10871667Y-11685476D02*
X10871667Y-11723571D01*
X11166905Y-11961667D02*
X11157381Y-11952143D01*
X11138333Y-11923571D01*
X11128810Y-11904524D01*
X11119286Y-11875952D01*
X11109762Y-11828333D01*
X11109762Y-11790238D01*
X11119286Y-11742619D01*
X11128810Y-11714048D01*
X11138333Y-11695000D01*
X11157381Y-11666428D01*
X11166905Y-11656905D01*
X11328809Y-11752143D02*
X11328809Y-11885476D01*
X11281190Y-11675952D02*
X11233571Y-11818809D01*
X11357381Y-11818809D01*
X11585952Y-11885476D02*
X11585952Y-11685476D01*
X11671667Y-11885476D02*
X11671667Y-11780714D01*
X11662143Y-11761667D01*
X11643095Y-11752143D01*
X11614524Y-11752143D01*
X11595476Y-11761667D01*
X11585952Y-11771190D01*
X11795476Y-11885476D02*
X11776428Y-11875952D01*
X11766905Y-11866428D01*
X11757381Y-11847381D01*
X11757381Y-11790238D01*
X11766905Y-11771190D01*
X11776428Y-11761667D01*
X11795476Y-11752143D01*
X11824048Y-11752143D01*
X11843095Y-11761667D01*
X11852619Y-11771190D01*
X11862143Y-11790238D01*
X11862143Y-11847381D01*
X11852619Y-11866428D01*
X11843095Y-11875952D01*
X11824048Y-11885476D01*
X11795476Y-11885476D01*
X11976428Y-11885476D02*
X11957381Y-11875952D01*
X11947857Y-11856905D01*
X11947857Y-11685476D01*
X12128809Y-11875952D02*
X12109762Y-11885476D01*
X12071667Y-11885476D01*
X12052619Y-11875952D01*
X12043095Y-11856905D01*
X12043095Y-11780714D01*
X12052619Y-11761667D01*
X12071667Y-11752143D01*
X12109762Y-11752143D01*
X12128809Y-11761667D01*
X12138333Y-11780714D01*
X12138333Y-11799762D01*
X12043095Y-11818809D01*
X12214524Y-11875952D02*
X12233571Y-11885476D01*
X12271667Y-11885476D01*
X12290714Y-11875952D01*
X12300238Y-11856905D01*
X12300238Y-11847381D01*
X12290714Y-11828333D01*
X12271667Y-11818809D01*
X12243095Y-11818809D01*
X12224048Y-11809286D01*
X12214524Y-11790238D01*
X12214524Y-11780714D01*
X12224048Y-11761667D01*
X12243095Y-11752143D01*
X12271667Y-11752143D01*
X12290714Y-11761667D01*
X12366905Y-11961667D02*
X12376428Y-11952143D01*
X12395476Y-11923571D01*
X12405000Y-11904524D01*
X12414524Y-11875952D01*
X12424048Y-11828333D01*
X12424048Y-11790238D01*
X12414524Y-11742619D01*
X12405000Y-11714048D01*
X12395476Y-11695000D01*
X12376428Y-11666428D01*
X12366905Y-11656905D01*
D13*
X7595000Y-12059000D02*
G75*
G03*
X7595000Y-12059000I-20000J0D01*
G01*
D11*
X7890714Y-11949476D02*
X7909762Y-11949476D01*
X7928809Y-11959000D01*
X7938333Y-11968524D01*
X7947857Y-11987571D01*
X7957381Y-12025667D01*
X7957381Y-12073286D01*
X7947857Y-12111381D01*
X7938333Y-12130428D01*
X7928809Y-12139952D01*
X7909762Y-12149476D01*
X7890714Y-12149476D01*
X7871667Y-12139952D01*
X7862143Y-12130428D01*
X7852619Y-12111381D01*
X7843095Y-12073286D01*
X7843095Y-12025667D01*
X7852619Y-11987571D01*
X7862143Y-11968524D01*
X7871667Y-11959000D01*
X7890714Y-11949476D01*
X8043095Y-12130428D02*
X8052619Y-12139952D01*
X8043095Y-12149476D01*
X8033571Y-12139952D01*
X8043095Y-12130428D01*
X8043095Y-12149476D01*
X8224048Y-12016143D02*
X8224048Y-12149476D01*
X8176428Y-11939952D02*
X8128809Y-12082809D01*
X8252619Y-12082809D01*
X8366905Y-11949476D02*
X8385952Y-11949476D01*
X8405000Y-11959000D01*
X8414524Y-11968524D01*
X8424048Y-11987571D01*
X8433571Y-12025667D01*
X8433571Y-12073286D01*
X8424048Y-12111381D01*
X8414524Y-12130428D01*
X8405000Y-12139952D01*
X8385952Y-12149476D01*
X8366905Y-12149476D01*
X8347857Y-12139952D01*
X8338333Y-12130428D01*
X8328809Y-12111381D01*
X8319286Y-12073286D01*
X8319286Y-12025667D01*
X8328809Y-11987571D01*
X8338333Y-11968524D01*
X8347857Y-11959000D01*
X8366905Y-11949476D01*
X8557381Y-11949476D02*
X8576429Y-11949476D01*
X8595476Y-11959000D01*
X8605000Y-11968524D01*
X8614524Y-11987571D01*
X8624048Y-12025667D01*
X8624048Y-12073286D01*
X8614524Y-12111381D01*
X8605000Y-12130428D01*
X8595476Y-12139952D01*
X8576429Y-12149476D01*
X8557381Y-12149476D01*
X8538333Y-12139952D01*
X8528810Y-12130428D01*
X8519286Y-12111381D01*
X8509762Y-12073286D01*
X8509762Y-12025667D01*
X8519286Y-11987571D01*
X8528810Y-11968524D01*
X8538333Y-11959000D01*
X8557381Y-11949476D01*
X8709762Y-12149476D02*
X8709762Y-12016143D01*
X8709762Y-12035190D02*
X8719286Y-12025667D01*
X8738333Y-12016143D01*
X8766905Y-12016143D01*
X8785952Y-12025667D01*
X8795476Y-12044714D01*
X8795476Y-12149476D01*
X8795476Y-12044714D02*
X8805000Y-12025667D01*
X8824048Y-12016143D01*
X8852619Y-12016143D01*
X8871667Y-12025667D01*
X8881190Y-12044714D01*
X8881190Y-12149476D01*
X8976429Y-12149476D02*
X8976429Y-12016143D01*
X8976429Y-12035190D02*
X8985952Y-12025667D01*
X9005000Y-12016143D01*
X9033571Y-12016143D01*
X9052619Y-12025667D01*
X9062143Y-12044714D01*
X9062143Y-12149476D01*
X9062143Y-12044714D02*
X9071667Y-12025667D01*
X9090714Y-12016143D01*
X9119286Y-12016143D01*
X9138333Y-12025667D01*
X9147857Y-12044714D01*
X9147857Y-12149476D01*
X9538333Y-11939952D02*
X9366905Y-12197095D01*
X9795476Y-11949476D02*
X9814524Y-11949476D01*
X9833571Y-11959000D01*
X9843095Y-11968524D01*
X9852619Y-11987571D01*
X9862143Y-12025667D01*
X9862143Y-12073286D01*
X9852619Y-12111381D01*
X9843095Y-12130428D01*
X9833571Y-12139952D01*
X9814524Y-12149476D01*
X9795476Y-12149476D01*
X9776429Y-12139952D01*
X9766905Y-12130428D01*
X9757381Y-12111381D01*
X9747857Y-12073286D01*
X9747857Y-12025667D01*
X9757381Y-11987571D01*
X9766905Y-11968524D01*
X9776429Y-11959000D01*
X9795476Y-11949476D01*
X9947857Y-12130428D02*
X9957381Y-12139952D01*
X9947857Y-12149476D01*
X9938333Y-12139952D01*
X9947857Y-12130428D01*
X9947857Y-12149476D01*
X10081190Y-11949476D02*
X10100238Y-11949476D01*
X10119286Y-11959000D01*
X10128810Y-11968524D01*
X10138333Y-11987571D01*
X10147857Y-12025667D01*
X10147857Y-12073286D01*
X10138333Y-12111381D01*
X10128810Y-12130428D01*
X10119286Y-12139952D01*
X10100238Y-12149476D01*
X10081190Y-12149476D01*
X10062143Y-12139952D01*
X10052619Y-12130428D01*
X10043095Y-12111381D01*
X10033571Y-12073286D01*
X10033571Y-12025667D01*
X10043095Y-11987571D01*
X10052619Y-11968524D01*
X10062143Y-11959000D01*
X10081190Y-11949476D01*
X10338333Y-12149476D02*
X10224048Y-12149476D01*
X10281190Y-12149476D02*
X10281190Y-11949476D01*
X10262143Y-11978048D01*
X10243095Y-11997095D01*
X10224048Y-12006619D01*
X10519286Y-11949476D02*
X10424048Y-11949476D01*
X10414524Y-12044714D01*
X10424048Y-12035190D01*
X10443095Y-12025667D01*
X10490714Y-12025667D01*
X10509762Y-12035190D01*
X10519286Y-12044714D01*
X10528810Y-12063762D01*
X10528810Y-12111381D01*
X10519286Y-12130428D01*
X10509762Y-12139952D01*
X10490714Y-12149476D01*
X10443095Y-12149476D01*
X10424048Y-12139952D01*
X10414524Y-12130428D01*
X10595476Y-11949476D02*
X10728810Y-11949476D01*
X10643095Y-12149476D01*
X10795476Y-11949476D02*
X10795476Y-11987571D01*
X10871667Y-11949476D02*
X10871667Y-11987571D01*
X11166905Y-12225667D02*
X11157381Y-12216143D01*
X11138333Y-12187571D01*
X11128810Y-12168524D01*
X11119286Y-12139952D01*
X11109762Y-12092333D01*
X11109762Y-12054238D01*
X11119286Y-12006619D01*
X11128810Y-11978048D01*
X11138333Y-11959000D01*
X11157381Y-11930428D01*
X11166905Y-11920905D01*
X11338333Y-11949476D02*
X11243095Y-11949476D01*
X11233571Y-12044714D01*
X11243095Y-12035190D01*
X11262143Y-12025667D01*
X11309762Y-12025667D01*
X11328809Y-12035190D01*
X11338333Y-12044714D01*
X11347857Y-12063762D01*
X11347857Y-12111381D01*
X11338333Y-12130428D01*
X11328809Y-12139952D01*
X11309762Y-12149476D01*
X11262143Y-12149476D01*
X11243095Y-12139952D01*
X11233571Y-12130428D01*
X11414524Y-11949476D02*
X11547857Y-11949476D01*
X11462143Y-12149476D01*
X11776428Y-12149476D02*
X11776428Y-11949476D01*
X11862143Y-12149476D02*
X11862143Y-12044714D01*
X11852619Y-12025667D01*
X11833571Y-12016143D01*
X11805000Y-12016143D01*
X11785952Y-12025667D01*
X11776428Y-12035190D01*
X11985952Y-12149476D02*
X11966905Y-12139952D01*
X11957381Y-12130428D01*
X11947857Y-12111381D01*
X11947857Y-12054238D01*
X11957381Y-12035190D01*
X11966905Y-12025667D01*
X11985952Y-12016143D01*
X12014524Y-12016143D01*
X12033571Y-12025667D01*
X12043095Y-12035190D01*
X12052619Y-12054238D01*
X12052619Y-12111381D01*
X12043095Y-12130428D01*
X12033571Y-12139952D01*
X12014524Y-12149476D01*
X11985952Y-12149476D01*
X12166905Y-12149476D02*
X12147857Y-12139952D01*
X12138333Y-12120905D01*
X12138333Y-11949476D01*
X12319286Y-12139952D02*
X12300238Y-12149476D01*
X12262143Y-12149476D01*
X12243095Y-12139952D01*
X12233571Y-12120905D01*
X12233571Y-12044714D01*
X12243095Y-12025667D01*
X12262143Y-12016143D01*
X12300238Y-12016143D01*
X12319286Y-12025667D01*
X12328809Y-12044714D01*
X12328809Y-12063762D01*
X12233571Y-12082809D01*
X12405000Y-12139952D02*
X12424048Y-12149476D01*
X12462143Y-12149476D01*
X12481190Y-12139952D01*
X12490714Y-12120905D01*
X12490714Y-12111381D01*
X12481190Y-12092333D01*
X12462143Y-12082809D01*
X12433571Y-12082809D01*
X12414524Y-12073286D01*
X12405000Y-12054238D01*
X12405000Y-12044714D01*
X12414524Y-12025667D01*
X12433571Y-12016143D01*
X12462143Y-12016143D01*
X12481190Y-12025667D01*
X12557381Y-12225667D02*
X12566905Y-12216143D01*
X12585952Y-12187571D01*
X12595476Y-12168524D01*
X12605000Y-12139952D01*
X12614524Y-12092333D01*
X12614524Y-12054238D01*
X12605000Y-12006619D01*
X12595476Y-11978048D01*
X12585952Y-11959000D01*
X12566905Y-11930428D01*
X12557381Y-11920905D01*
D14*
X7570000Y-12298000D02*
X7570000Y-12348000D01*
X7545000Y-12323000D02*
X7595000Y-12323000D01*
D11*
X7890714Y-12213476D02*
X7909762Y-12213476D01*
X7928809Y-12223000D01*
X7938333Y-12232524D01*
X7947857Y-12251571D01*
X7957381Y-12289667D01*
X7957381Y-12337286D01*
X7947857Y-12375381D01*
X7938333Y-12394428D01*
X7928809Y-12403952D01*
X7909762Y-12413476D01*
X7890714Y-12413476D01*
X7871667Y-12403952D01*
X7862143Y-12394428D01*
X7852619Y-12375381D01*
X7843095Y-12337286D01*
X7843095Y-12289667D01*
X7852619Y-12251571D01*
X7862143Y-12232524D01*
X7871667Y-12223000D01*
X7890714Y-12213476D01*
X8043095Y-12394428D02*
X8052619Y-12403952D01*
X8043095Y-12413476D01*
X8033571Y-12403952D01*
X8043095Y-12394428D01*
X8043095Y-12413476D01*
X8233571Y-12213476D02*
X8138333Y-12213476D01*
X8128809Y-12308714D01*
X8138333Y-12299190D01*
X8157381Y-12289667D01*
X8205000Y-12289667D01*
X8224048Y-12299190D01*
X8233571Y-12308714D01*
X8243095Y-12327762D01*
X8243095Y-12375381D01*
X8233571Y-12394428D01*
X8224048Y-12403952D01*
X8205000Y-12413476D01*
X8157381Y-12413476D01*
X8138333Y-12403952D01*
X8128809Y-12394428D01*
X8366905Y-12213476D02*
X8385952Y-12213476D01*
X8405000Y-12223000D01*
X8414524Y-12232524D01*
X8424048Y-12251571D01*
X8433571Y-12289667D01*
X8433571Y-12337286D01*
X8424048Y-12375381D01*
X8414524Y-12394428D01*
X8405000Y-12403952D01*
X8385952Y-12413476D01*
X8366905Y-12413476D01*
X8347857Y-12403952D01*
X8338333Y-12394428D01*
X8328809Y-12375381D01*
X8319286Y-12337286D01*
X8319286Y-12289667D01*
X8328809Y-12251571D01*
X8338333Y-12232524D01*
X8347857Y-12223000D01*
X8366905Y-12213476D01*
X8557381Y-12213476D02*
X8576429Y-12213476D01*
X8595476Y-12223000D01*
X8605000Y-12232524D01*
X8614524Y-12251571D01*
X8624048Y-12289667D01*
X8624048Y-12337286D01*
X8614524Y-12375381D01*
X8605000Y-12394428D01*
X8595476Y-12403952D01*
X8576429Y-12413476D01*
X8557381Y-12413476D01*
X8538333Y-12403952D01*
X8528810Y-12394428D01*
X8519286Y-12375381D01*
X8509762Y-12337286D01*
X8509762Y-12289667D01*
X8519286Y-12251571D01*
X8528810Y-12232524D01*
X8538333Y-12223000D01*
X8557381Y-12213476D01*
X8709762Y-12413476D02*
X8709762Y-12280143D01*
X8709762Y-12299190D02*
X8719286Y-12289667D01*
X8738333Y-12280143D01*
X8766905Y-12280143D01*
X8785952Y-12289667D01*
X8795476Y-12308714D01*
X8795476Y-12413476D01*
X8795476Y-12308714D02*
X8805000Y-12289667D01*
X8824048Y-12280143D01*
X8852619Y-12280143D01*
X8871667Y-12289667D01*
X8881190Y-12308714D01*
X8881190Y-12413476D01*
X8976429Y-12413476D02*
X8976429Y-12280143D01*
X8976429Y-12299190D02*
X8985952Y-12289667D01*
X9005000Y-12280143D01*
X9033571Y-12280143D01*
X9052619Y-12289667D01*
X9062143Y-12308714D01*
X9062143Y-12413476D01*
X9062143Y-12308714D02*
X9071667Y-12289667D01*
X9090714Y-12280143D01*
X9119286Y-12280143D01*
X9138333Y-12289667D01*
X9147857Y-12308714D01*
X9147857Y-12413476D01*
X9538333Y-12203952D02*
X9366905Y-12461095D01*
X9795476Y-12213476D02*
X9814524Y-12213476D01*
X9833571Y-12223000D01*
X9843095Y-12232524D01*
X9852619Y-12251571D01*
X9862143Y-12289667D01*
X9862143Y-12337286D01*
X9852619Y-12375381D01*
X9843095Y-12394428D01*
X9833571Y-12403952D01*
X9814524Y-12413476D01*
X9795476Y-12413476D01*
X9776429Y-12403952D01*
X9766905Y-12394428D01*
X9757381Y-12375381D01*
X9747857Y-12337286D01*
X9747857Y-12289667D01*
X9757381Y-12251571D01*
X9766905Y-12232524D01*
X9776429Y-12223000D01*
X9795476Y-12213476D01*
X9947857Y-12394428D02*
X9957381Y-12403952D01*
X9947857Y-12413476D01*
X9938333Y-12403952D01*
X9947857Y-12394428D01*
X9947857Y-12413476D01*
X10081190Y-12213476D02*
X10100238Y-12213476D01*
X10119286Y-12223000D01*
X10128810Y-12232524D01*
X10138333Y-12251571D01*
X10147857Y-12289667D01*
X10147857Y-12337286D01*
X10138333Y-12375381D01*
X10128810Y-12394428D01*
X10119286Y-12403952D01*
X10100238Y-12413476D01*
X10081190Y-12413476D01*
X10062143Y-12403952D01*
X10052619Y-12394428D01*
X10043095Y-12375381D01*
X10033571Y-12337286D01*
X10033571Y-12289667D01*
X10043095Y-12251571D01*
X10052619Y-12232524D01*
X10062143Y-12223000D01*
X10081190Y-12213476D01*
X10338333Y-12413476D02*
X10224048Y-12413476D01*
X10281190Y-12413476D02*
X10281190Y-12213476D01*
X10262143Y-12242048D01*
X10243095Y-12261095D01*
X10224048Y-12270619D01*
X10433571Y-12413476D02*
X10471667Y-12413476D01*
X10490714Y-12403952D01*
X10500238Y-12394428D01*
X10519286Y-12365857D01*
X10528810Y-12327762D01*
X10528810Y-12251571D01*
X10519286Y-12232524D01*
X10509762Y-12223000D01*
X10490714Y-12213476D01*
X10452619Y-12213476D01*
X10433571Y-12223000D01*
X10424048Y-12232524D01*
X10414524Y-12251571D01*
X10414524Y-12299190D01*
X10424048Y-12318238D01*
X10433571Y-12327762D01*
X10452619Y-12337286D01*
X10490714Y-12337286D01*
X10509762Y-12327762D01*
X10519286Y-12318238D01*
X10528810Y-12299190D01*
X10595476Y-12213476D02*
X10728810Y-12213476D01*
X10643095Y-12413476D01*
X10795476Y-12213476D02*
X10795476Y-12251571D01*
X10871667Y-12213476D02*
X10871667Y-12251571D01*
X11166905Y-12489667D02*
X11157381Y-12480143D01*
X11138333Y-12451571D01*
X11128810Y-12432524D01*
X11119286Y-12403952D01*
X11109762Y-12356333D01*
X11109762Y-12318238D01*
X11119286Y-12270619D01*
X11128810Y-12242048D01*
X11138333Y-12223000D01*
X11157381Y-12194428D01*
X11166905Y-12184905D01*
X11233571Y-12232524D02*
X11243095Y-12223000D01*
X11262143Y-12213476D01*
X11309762Y-12213476D01*
X11328809Y-12223000D01*
X11338333Y-12232524D01*
X11347857Y-12251571D01*
X11347857Y-12270619D01*
X11338333Y-12299190D01*
X11224048Y-12413476D01*
X11347857Y-12413476D01*
X11585952Y-12413476D02*
X11585952Y-12213476D01*
X11671667Y-12413476D02*
X11671667Y-12308714D01*
X11662143Y-12289667D01*
X11643095Y-12280143D01*
X11614524Y-12280143D01*
X11595476Y-12289667D01*
X11585952Y-12299190D01*
X11795476Y-12413476D02*
X11776428Y-12403952D01*
X11766905Y-12394428D01*
X11757381Y-12375381D01*
X11757381Y-12318238D01*
X11766905Y-12299190D01*
X11776428Y-12289667D01*
X11795476Y-12280143D01*
X11824048Y-12280143D01*
X11843095Y-12289667D01*
X11852619Y-12299190D01*
X11862143Y-12318238D01*
X11862143Y-12375381D01*
X11852619Y-12394428D01*
X11843095Y-12403952D01*
X11824048Y-12413476D01*
X11795476Y-12413476D01*
X11976428Y-12413476D02*
X11957381Y-12403952D01*
X11947857Y-12384905D01*
X11947857Y-12213476D01*
X12128809Y-12403952D02*
X12109762Y-12413476D01*
X12071667Y-12413476D01*
X12052619Y-12403952D01*
X12043095Y-12384905D01*
X12043095Y-12308714D01*
X12052619Y-12289667D01*
X12071667Y-12280143D01*
X12109762Y-12280143D01*
X12128809Y-12289667D01*
X12138333Y-12308714D01*
X12138333Y-12327762D01*
X12043095Y-12346809D01*
X12214524Y-12403952D02*
X12233571Y-12413476D01*
X12271667Y-12413476D01*
X12290714Y-12403952D01*
X12300238Y-12384905D01*
X12300238Y-12375381D01*
X12290714Y-12356333D01*
X12271667Y-12346809D01*
X12243095Y-12346809D01*
X12224048Y-12337286D01*
X12214524Y-12318238D01*
X12214524Y-12308714D01*
X12224048Y-12289667D01*
X12243095Y-12280143D01*
X12271667Y-12280143D01*
X12290714Y-12289667D01*
X12366905Y-12489667D02*
X12376428Y-12480143D01*
X12395476Y-12451571D01*
X12405000Y-12432524D01*
X12414524Y-12403952D01*
X12424048Y-12356333D01*
X12424048Y-12318238D01*
X12414524Y-12270619D01*
X12405000Y-12242048D01*
X12395476Y-12223000D01*
X12376428Y-12194428D01*
X12366905Y-12184905D01*
D15*
X7586213Y-12608213D02*
X7586213Y-12565787D01*
X7543787Y-12565787D01*
X7543787Y-12608213D01*
X7586213Y-12608213D01*
D11*
X7890714Y-12477476D02*
X7909762Y-12477476D01*
X7928809Y-12487000D01*
X7938333Y-12496524D01*
X7947857Y-12515571D01*
X7957381Y-12553667D01*
X7957381Y-12601286D01*
X7947857Y-12639381D01*
X7938333Y-12658428D01*
X7928809Y-12667952D01*
X7909762Y-12677476D01*
X7890714Y-12677476D01*
X7871667Y-12667952D01*
X7862143Y-12658428D01*
X7852619Y-12639381D01*
X7843095Y-12601286D01*
X7843095Y-12553667D01*
X7852619Y-12515571D01*
X7862143Y-12496524D01*
X7871667Y-12487000D01*
X7890714Y-12477476D01*
X8043095Y-12658428D02*
X8052619Y-12667952D01*
X8043095Y-12677476D01*
X8033571Y-12667952D01*
X8043095Y-12658428D01*
X8043095Y-12677476D01*
X8224048Y-12477476D02*
X8185952Y-12477476D01*
X8166905Y-12487000D01*
X8157381Y-12496524D01*
X8138333Y-12525095D01*
X8128809Y-12563190D01*
X8128809Y-12639381D01*
X8138333Y-12658428D01*
X8147857Y-12667952D01*
X8166905Y-12677476D01*
X8205000Y-12677476D01*
X8224048Y-12667952D01*
X8233571Y-12658428D01*
X8243095Y-12639381D01*
X8243095Y-12591762D01*
X8233571Y-12572714D01*
X8224048Y-12563190D01*
X8205000Y-12553667D01*
X8166905Y-12553667D01*
X8147857Y-12563190D01*
X8138333Y-12572714D01*
X8128809Y-12591762D01*
X8366905Y-12477476D02*
X8385952Y-12477476D01*
X8405000Y-12487000D01*
X8414524Y-12496524D01*
X8424048Y-12515571D01*
X8433571Y-12553667D01*
X8433571Y-12601286D01*
X8424048Y-12639381D01*
X8414524Y-12658428D01*
X8405000Y-12667952D01*
X8385952Y-12677476D01*
X8366905Y-12677476D01*
X8347857Y-12667952D01*
X8338333Y-12658428D01*
X8328809Y-12639381D01*
X8319286Y-12601286D01*
X8319286Y-12553667D01*
X8328809Y-12515571D01*
X8338333Y-12496524D01*
X8347857Y-12487000D01*
X8366905Y-12477476D01*
X8557381Y-12477476D02*
X8576429Y-12477476D01*
X8595476Y-12487000D01*
X8605000Y-12496524D01*
X8614524Y-12515571D01*
X8624048Y-12553667D01*
X8624048Y-12601286D01*
X8614524Y-12639381D01*
X8605000Y-12658428D01*
X8595476Y-12667952D01*
X8576429Y-12677476D01*
X8557381Y-12677476D01*
X8538333Y-12667952D01*
X8528810Y-12658428D01*
X8519286Y-12639381D01*
X8509762Y-12601286D01*
X8509762Y-12553667D01*
X8519286Y-12515571D01*
X8528810Y-12496524D01*
X8538333Y-12487000D01*
X8557381Y-12477476D01*
X8709762Y-12677476D02*
X8709762Y-12544143D01*
X8709762Y-12563190D02*
X8719286Y-12553667D01*
X8738333Y-12544143D01*
X8766905Y-12544143D01*
X8785952Y-12553667D01*
X8795476Y-12572714D01*
X8795476Y-12677476D01*
X8795476Y-12572714D02*
X8805000Y-12553667D01*
X8824048Y-12544143D01*
X8852619Y-12544143D01*
X8871667Y-12553667D01*
X8881190Y-12572714D01*
X8881190Y-12677476D01*
X8976429Y-12677476D02*
X8976429Y-12544143D01*
X8976429Y-12563190D02*
X8985952Y-12553667D01*
X9005000Y-12544143D01*
X9033571Y-12544143D01*
X9052619Y-12553667D01*
X9062143Y-12572714D01*
X9062143Y-12677476D01*
X9062143Y-12572714D02*
X9071667Y-12553667D01*
X9090714Y-12544143D01*
X9119286Y-12544143D01*
X9138333Y-12553667D01*
X9147857Y-12572714D01*
X9147857Y-12677476D01*
X9538333Y-12467952D02*
X9366905Y-12725095D01*
X9795476Y-12477476D02*
X9814524Y-12477476D01*
X9833571Y-12487000D01*
X9843095Y-12496524D01*
X9852619Y-12515571D01*
X9862143Y-12553667D01*
X9862143Y-12601286D01*
X9852619Y-12639381D01*
X9843095Y-12658428D01*
X9833571Y-12667952D01*
X9814524Y-12677476D01*
X9795476Y-12677476D01*
X9776429Y-12667952D01*
X9766905Y-12658428D01*
X9757381Y-12639381D01*
X9747857Y-12601286D01*
X9747857Y-12553667D01*
X9757381Y-12515571D01*
X9766905Y-12496524D01*
X9776429Y-12487000D01*
X9795476Y-12477476D01*
X9947857Y-12658428D02*
X9957381Y-12667952D01*
X9947857Y-12677476D01*
X9938333Y-12667952D01*
X9947857Y-12658428D01*
X9947857Y-12677476D01*
X10081190Y-12477476D02*
X10100238Y-12477476D01*
X10119286Y-12487000D01*
X10128810Y-12496524D01*
X10138333Y-12515571D01*
X10147857Y-12553667D01*
X10147857Y-12601286D01*
X10138333Y-12639381D01*
X10128810Y-12658428D01*
X10119286Y-12667952D01*
X10100238Y-12677476D01*
X10081190Y-12677476D01*
X10062143Y-12667952D01*
X10052619Y-12658428D01*
X10043095Y-12639381D01*
X10033571Y-12601286D01*
X10033571Y-12553667D01*
X10043095Y-12515571D01*
X10052619Y-12496524D01*
X10062143Y-12487000D01*
X10081190Y-12477476D01*
X10224048Y-12496524D02*
X10233571Y-12487000D01*
X10252619Y-12477476D01*
X10300238Y-12477476D01*
X10319286Y-12487000D01*
X10328810Y-12496524D01*
X10338333Y-12515571D01*
X10338333Y-12534619D01*
X10328810Y-12563190D01*
X10214524Y-12677476D01*
X10338333Y-12677476D01*
X10405000Y-12477476D02*
X10528810Y-12477476D01*
X10462143Y-12553667D01*
X10490714Y-12553667D01*
X10509762Y-12563190D01*
X10519286Y-12572714D01*
X10528810Y-12591762D01*
X10528810Y-12639381D01*
X10519286Y-12658428D01*
X10509762Y-12667952D01*
X10490714Y-12677476D01*
X10433571Y-12677476D01*
X10414524Y-12667952D01*
X10405000Y-12658428D01*
X10700238Y-12477476D02*
X10662143Y-12477476D01*
X10643095Y-12487000D01*
X10633571Y-12496524D01*
X10614524Y-12525095D01*
X10605000Y-12563190D01*
X10605000Y-12639381D01*
X10614524Y-12658428D01*
X10624048Y-12667952D01*
X10643095Y-12677476D01*
X10681190Y-12677476D01*
X10700238Y-12667952D01*
X10709762Y-12658428D01*
X10719286Y-12639381D01*
X10719286Y-12591762D01*
X10709762Y-12572714D01*
X10700238Y-12563190D01*
X10681190Y-12553667D01*
X10643095Y-12553667D01*
X10624048Y-12563190D01*
X10614524Y-12572714D01*
X10605000Y-12591762D01*
X10795476Y-12477476D02*
X10795476Y-12515571D01*
X10871667Y-12477476D02*
X10871667Y-12515571D01*
X11166905Y-12753667D02*
X11157381Y-12744143D01*
X11138333Y-12715571D01*
X11128810Y-12696524D01*
X11119286Y-12667952D01*
X11109762Y-12620333D01*
X11109762Y-12582238D01*
X11119286Y-12534619D01*
X11128810Y-12506048D01*
X11138333Y-12487000D01*
X11157381Y-12458428D01*
X11166905Y-12448905D01*
X11281190Y-12477476D02*
X11300238Y-12477476D01*
X11319286Y-12487000D01*
X11328809Y-12496524D01*
X11338333Y-12515571D01*
X11347857Y-12553667D01*
X11347857Y-12601286D01*
X11338333Y-12639381D01*
X11328809Y-12658428D01*
X11319286Y-12667952D01*
X11300238Y-12677476D01*
X11281190Y-12677476D01*
X11262143Y-12667952D01*
X11252619Y-12658428D01*
X11243095Y-12639381D01*
X11233571Y-12601286D01*
X11233571Y-12553667D01*
X11243095Y-12515571D01*
X11252619Y-12496524D01*
X11262143Y-12487000D01*
X11281190Y-12477476D01*
X11585952Y-12677476D02*
X11585952Y-12477476D01*
X11671667Y-12677476D02*
X11671667Y-12572714D01*
X11662143Y-12553667D01*
X11643095Y-12544143D01*
X11614524Y-12544143D01*
X11595476Y-12553667D01*
X11585952Y-12563190D01*
X11795476Y-12677476D02*
X11776428Y-12667952D01*
X11766905Y-12658428D01*
X11757381Y-12639381D01*
X11757381Y-12582238D01*
X11766905Y-12563190D01*
X11776428Y-12553667D01*
X11795476Y-12544143D01*
X11824048Y-12544143D01*
X11843095Y-12553667D01*
X11852619Y-12563190D01*
X11862143Y-12582238D01*
X11862143Y-12639381D01*
X11852619Y-12658428D01*
X11843095Y-12667952D01*
X11824048Y-12677476D01*
X11795476Y-12677476D01*
X11976428Y-12677476D02*
X11957381Y-12667952D01*
X11947857Y-12648905D01*
X11947857Y-12477476D01*
X12128809Y-12667952D02*
X12109762Y-12677476D01*
X12071667Y-12677476D01*
X12052619Y-12667952D01*
X12043095Y-12648905D01*
X12043095Y-12572714D01*
X12052619Y-12553667D01*
X12071667Y-12544143D01*
X12109762Y-12544143D01*
X12128809Y-12553667D01*
X12138333Y-12572714D01*
X12138333Y-12591762D01*
X12043095Y-12610809D01*
X12214524Y-12667952D02*
X12233571Y-12677476D01*
X12271667Y-12677476D01*
X12290714Y-12667952D01*
X12300238Y-12648905D01*
X12300238Y-12639381D01*
X12290714Y-12620333D01*
X12271667Y-12610809D01*
X12243095Y-12610809D01*
X12224048Y-12601286D01*
X12214524Y-12582238D01*
X12214524Y-12572714D01*
X12224048Y-12553667D01*
X12243095Y-12544143D01*
X12271667Y-12544143D01*
X12290714Y-12553667D01*
X12538333Y-12601286D02*
X12690714Y-12601286D01*
X12614524Y-12677476D02*
X12614524Y-12525095D01*
X12928809Y-12496524D02*
X12938333Y-12487000D01*
X12957381Y-12477476D01*
X13005000Y-12477476D01*
X13024048Y-12487000D01*
X13033571Y-12496524D01*
X13043095Y-12515571D01*
X13043095Y-12534619D01*
X13033571Y-12563190D01*
X12919286Y-12677476D01*
X13043095Y-12677476D01*
X13271667Y-12667952D02*
X13290714Y-12677476D01*
X13328809Y-12677476D01*
X13347857Y-12667952D01*
X13357381Y-12648905D01*
X13357381Y-12639381D01*
X13347857Y-12620333D01*
X13328809Y-12610809D01*
X13300238Y-12610809D01*
X13281190Y-12601286D01*
X13271667Y-12582238D01*
X13271667Y-12572714D01*
X13281190Y-12553667D01*
X13300238Y-12544143D01*
X13328809Y-12544143D01*
X13347857Y-12553667D01*
X13471667Y-12677476D02*
X13452619Y-12667952D01*
X13443095Y-12648905D01*
X13443095Y-12477476D01*
X13576428Y-12677476D02*
X13557381Y-12667952D01*
X13547857Y-12658428D01*
X13538333Y-12639381D01*
X13538333Y-12582238D01*
X13547857Y-12563190D01*
X13557381Y-12553667D01*
X13576428Y-12544143D01*
X13605000Y-12544143D01*
X13624048Y-12553667D01*
X13633571Y-12563190D01*
X13643095Y-12582238D01*
X13643095Y-12639381D01*
X13633571Y-12658428D01*
X13624048Y-12667952D01*
X13605000Y-12677476D01*
X13576428Y-12677476D01*
X13700238Y-12544143D02*
X13776428Y-12544143D01*
X13728809Y-12477476D02*
X13728809Y-12648905D01*
X13738333Y-12667952D01*
X13757381Y-12677476D01*
X13776428Y-12677476D01*
X13833571Y-12667952D02*
X13852619Y-12677476D01*
X13890714Y-12677476D01*
X13909762Y-12667952D01*
X13919286Y-12648905D01*
X13919286Y-12639381D01*
X13909762Y-12620333D01*
X13890714Y-12610809D01*
X13862143Y-12610809D01*
X13843095Y-12601286D01*
X13833571Y-12582238D01*
X13833571Y-12572714D01*
X13843095Y-12553667D01*
X13862143Y-12544143D01*
X13890714Y-12544143D01*
X13909762Y-12553667D01*
X13985952Y-12753667D02*
X13995476Y-12744143D01*
X14014524Y-12715571D01*
X14024048Y-12696524D01*
X14033571Y-12667952D01*
X14043095Y-12620333D01*
X14043095Y-12582238D01*
X14033571Y-12534619D01*
X14024048Y-12506048D01*
X14014524Y-12487000D01*
X13995476Y-12458428D01*
X13985952Y-12448905D01*
D16*
X7552500Y-12893500D02*
X7595000Y-12851000D01*
X7552500Y-12808500D01*
X7510000Y-12851000D01*
X7552500Y-12893500D01*
D11*
X7890714Y-12741476D02*
X7909762Y-12741476D01*
X7928809Y-12751000D01*
X7938333Y-12760524D01*
X7947857Y-12779571D01*
X7957381Y-12817667D01*
X7957381Y-12865286D01*
X7947857Y-12903381D01*
X7938333Y-12922428D01*
X7928809Y-12931952D01*
X7909762Y-12941476D01*
X7890714Y-12941476D01*
X7871667Y-12931952D01*
X7862143Y-12922428D01*
X7852619Y-12903381D01*
X7843095Y-12865286D01*
X7843095Y-12817667D01*
X7852619Y-12779571D01*
X7862143Y-12760524D01*
X7871667Y-12751000D01*
X7890714Y-12741476D01*
X8043095Y-12922428D02*
X8052619Y-12931952D01*
X8043095Y-12941476D01*
X8033571Y-12931952D01*
X8043095Y-12922428D01*
X8043095Y-12941476D01*
X8166905Y-12827190D02*
X8147857Y-12817667D01*
X8138333Y-12808143D01*
X8128809Y-12789095D01*
X8128809Y-12779571D01*
X8138333Y-12760524D01*
X8147857Y-12751000D01*
X8166905Y-12741476D01*
X8205000Y-12741476D01*
X8224048Y-12751000D01*
X8233571Y-12760524D01*
X8243095Y-12779571D01*
X8243095Y-12789095D01*
X8233571Y-12808143D01*
X8224048Y-12817667D01*
X8205000Y-12827190D01*
X8166905Y-12827190D01*
X8147857Y-12836714D01*
X8138333Y-12846238D01*
X8128809Y-12865286D01*
X8128809Y-12903381D01*
X8138333Y-12922428D01*
X8147857Y-12931952D01*
X8166905Y-12941476D01*
X8205000Y-12941476D01*
X8224048Y-12931952D01*
X8233571Y-12922428D01*
X8243095Y-12903381D01*
X8243095Y-12865286D01*
X8233571Y-12846238D01*
X8224048Y-12836714D01*
X8205000Y-12827190D01*
X8424048Y-12741476D02*
X8328809Y-12741476D01*
X8319286Y-12836714D01*
X8328809Y-12827190D01*
X8347857Y-12817667D01*
X8395476Y-12817667D01*
X8414524Y-12827190D01*
X8424048Y-12836714D01*
X8433571Y-12855762D01*
X8433571Y-12903381D01*
X8424048Y-12922428D01*
X8414524Y-12931952D01*
X8395476Y-12941476D01*
X8347857Y-12941476D01*
X8328809Y-12931952D01*
X8319286Y-12922428D01*
X8557381Y-12741476D02*
X8576429Y-12741476D01*
X8595476Y-12751000D01*
X8605000Y-12760524D01*
X8614524Y-12779571D01*
X8624048Y-12817667D01*
X8624048Y-12865286D01*
X8614524Y-12903381D01*
X8605000Y-12922428D01*
X8595476Y-12931952D01*
X8576429Y-12941476D01*
X8557381Y-12941476D01*
X8538333Y-12931952D01*
X8528810Y-12922428D01*
X8519286Y-12903381D01*
X8509762Y-12865286D01*
X8509762Y-12817667D01*
X8519286Y-12779571D01*
X8528810Y-12760524D01*
X8538333Y-12751000D01*
X8557381Y-12741476D01*
X8709762Y-12941476D02*
X8709762Y-12808143D01*
X8709762Y-12827190D02*
X8719286Y-12817667D01*
X8738333Y-12808143D01*
X8766905Y-12808143D01*
X8785952Y-12817667D01*
X8795476Y-12836714D01*
X8795476Y-12941476D01*
X8795476Y-12836714D02*
X8805000Y-12817667D01*
X8824048Y-12808143D01*
X8852619Y-12808143D01*
X8871667Y-12817667D01*
X8881190Y-12836714D01*
X8881190Y-12941476D01*
X8976429Y-12941476D02*
X8976429Y-12808143D01*
X8976429Y-12827190D02*
X8985952Y-12817667D01*
X9005000Y-12808143D01*
X9033571Y-12808143D01*
X9052619Y-12817667D01*
X9062143Y-12836714D01*
X9062143Y-12941476D01*
X9062143Y-12836714D02*
X9071667Y-12817667D01*
X9090714Y-12808143D01*
X9119286Y-12808143D01*
X9138333Y-12817667D01*
X9147857Y-12836714D01*
X9147857Y-12941476D01*
X9538333Y-12731952D02*
X9366905Y-12989095D01*
X9795476Y-12741476D02*
X9814524Y-12741476D01*
X9833571Y-12751000D01*
X9843095Y-12760524D01*
X9852619Y-12779571D01*
X9862143Y-12817667D01*
X9862143Y-12865286D01*
X9852619Y-12903381D01*
X9843095Y-12922428D01*
X9833571Y-12931952D01*
X9814524Y-12941476D01*
X9795476Y-12941476D01*
X9776429Y-12931952D01*
X9766905Y-12922428D01*
X9757381Y-12903381D01*
X9747857Y-12865286D01*
X9747857Y-12817667D01*
X9757381Y-12779571D01*
X9766905Y-12760524D01*
X9776429Y-12751000D01*
X9795476Y-12741476D01*
X9947857Y-12922428D02*
X9957381Y-12931952D01*
X9947857Y-12941476D01*
X9938333Y-12931952D01*
X9947857Y-12922428D01*
X9947857Y-12941476D01*
X10081190Y-12741476D02*
X10100238Y-12741476D01*
X10119286Y-12751000D01*
X10128810Y-12760524D01*
X10138333Y-12779571D01*
X10147857Y-12817667D01*
X10147857Y-12865286D01*
X10138333Y-12903381D01*
X10128810Y-12922428D01*
X10119286Y-12931952D01*
X10100238Y-12941476D01*
X10081190Y-12941476D01*
X10062143Y-12931952D01*
X10052619Y-12922428D01*
X10043095Y-12903381D01*
X10033571Y-12865286D01*
X10033571Y-12817667D01*
X10043095Y-12779571D01*
X10052619Y-12760524D01*
X10062143Y-12751000D01*
X10081190Y-12741476D01*
X10214524Y-12741476D02*
X10338333Y-12741476D01*
X10271667Y-12817667D01*
X10300238Y-12817667D01*
X10319286Y-12827190D01*
X10328810Y-12836714D01*
X10338333Y-12855762D01*
X10338333Y-12903381D01*
X10328810Y-12922428D01*
X10319286Y-12931952D01*
X10300238Y-12941476D01*
X10243095Y-12941476D01*
X10224048Y-12931952D01*
X10214524Y-12922428D01*
X10405000Y-12741476D02*
X10528810Y-12741476D01*
X10462143Y-12817667D01*
X10490714Y-12817667D01*
X10509762Y-12827190D01*
X10519286Y-12836714D01*
X10528810Y-12855762D01*
X10528810Y-12903381D01*
X10519286Y-12922428D01*
X10509762Y-12931952D01*
X10490714Y-12941476D01*
X10433571Y-12941476D01*
X10414524Y-12931952D01*
X10405000Y-12922428D01*
X10709762Y-12741476D02*
X10614524Y-12741476D01*
X10605000Y-12836714D01*
X10614524Y-12827190D01*
X10633571Y-12817667D01*
X10681190Y-12817667D01*
X10700238Y-12827190D01*
X10709762Y-12836714D01*
X10719286Y-12855762D01*
X10719286Y-12903381D01*
X10709762Y-12922428D01*
X10700238Y-12931952D01*
X10681190Y-12941476D01*
X10633571Y-12941476D01*
X10614524Y-12931952D01*
X10605000Y-12922428D01*
X10795476Y-12741476D02*
X10795476Y-12779571D01*
X10871667Y-12741476D02*
X10871667Y-12779571D01*
X11166905Y-13017667D02*
X11157381Y-13008143D01*
X11138333Y-12979571D01*
X11128810Y-12960524D01*
X11119286Y-12931952D01*
X11109762Y-12884333D01*
X11109762Y-12846238D01*
X11119286Y-12798619D01*
X11128810Y-12770048D01*
X11138333Y-12751000D01*
X11157381Y-12722428D01*
X11166905Y-12712905D01*
X11233571Y-12760524D02*
X11243095Y-12751000D01*
X11262143Y-12741476D01*
X11309762Y-12741476D01*
X11328809Y-12751000D01*
X11338333Y-12760524D01*
X11347857Y-12779571D01*
X11347857Y-12798619D01*
X11338333Y-12827190D01*
X11224048Y-12941476D01*
X11347857Y-12941476D01*
X11585952Y-12941476D02*
X11585952Y-12741476D01*
X11671667Y-12941476D02*
X11671667Y-12836714D01*
X11662143Y-12817667D01*
X11643095Y-12808143D01*
X11614524Y-12808143D01*
X11595476Y-12817667D01*
X11585952Y-12827190D01*
X11795476Y-12941476D02*
X11776428Y-12931952D01*
X11766905Y-12922428D01*
X11757381Y-12903381D01*
X11757381Y-12846238D01*
X11766905Y-12827190D01*
X11776428Y-12817667D01*
X11795476Y-12808143D01*
X11824048Y-12808143D01*
X11843095Y-12817667D01*
X11852619Y-12827190D01*
X11862143Y-12846238D01*
X11862143Y-12903381D01*
X11852619Y-12922428D01*
X11843095Y-12931952D01*
X11824048Y-12941476D01*
X11795476Y-12941476D01*
X11976428Y-12941476D02*
X11957381Y-12931952D01*
X11947857Y-12912905D01*
X11947857Y-12741476D01*
X12128809Y-12931952D02*
X12109762Y-12941476D01*
X12071667Y-12941476D01*
X12052619Y-12931952D01*
X12043095Y-12912905D01*
X12043095Y-12836714D01*
X12052619Y-12817667D01*
X12071667Y-12808143D01*
X12109762Y-12808143D01*
X12128809Y-12817667D01*
X12138333Y-12836714D01*
X12138333Y-12855762D01*
X12043095Y-12874809D01*
X12214524Y-12931952D02*
X12233571Y-12941476D01*
X12271667Y-12941476D01*
X12290714Y-12931952D01*
X12300238Y-12912905D01*
X12300238Y-12903381D01*
X12290714Y-12884333D01*
X12271667Y-12874809D01*
X12243095Y-12874809D01*
X12224048Y-12865286D01*
X12214524Y-12846238D01*
X12214524Y-12836714D01*
X12224048Y-12817667D01*
X12243095Y-12808143D01*
X12271667Y-12808143D01*
X12290714Y-12817667D01*
X12366905Y-13017667D02*
X12376428Y-13008143D01*
X12395476Y-12979571D01*
X12405000Y-12960524D01*
X12414524Y-12931952D01*
X12424048Y-12884333D01*
X12424048Y-12846238D01*
X12414524Y-12798619D01*
X12405000Y-12770048D01*
X12395476Y-12751000D01*
X12376428Y-12722428D01*
X12366905Y-12712905D01*
D17*
X7495000Y-13065000D02*
X7595000Y-13165000D01*
X7595000Y-13065000D02*
X7495000Y-13165000D01*
X7595000Y-13115000D02*
G75*
G03*
X7595000Y-13115000I-50000J0D01*
G01*
D11*
X7957381Y-13205476D02*
X7843095Y-13205476D01*
X7900238Y-13205476D02*
X7900238Y-13005476D01*
X7881190Y-13034048D01*
X7862143Y-13053095D01*
X7843095Y-13062619D01*
X8043095Y-13186428D02*
X8052619Y-13195952D01*
X8043095Y-13205476D01*
X8033571Y-13195952D01*
X8043095Y-13186428D01*
X8043095Y-13205476D01*
X8176428Y-13005476D02*
X8195476Y-13005476D01*
X8214524Y-13015000D01*
X8224048Y-13024524D01*
X8233571Y-13043571D01*
X8243095Y-13081667D01*
X8243095Y-13129286D01*
X8233571Y-13167381D01*
X8224048Y-13186428D01*
X8214524Y-13195952D01*
X8195476Y-13205476D01*
X8176428Y-13205476D01*
X8157381Y-13195952D01*
X8147857Y-13186428D01*
X8138333Y-13167381D01*
X8128809Y-13129286D01*
X8128809Y-13081667D01*
X8138333Y-13043571D01*
X8147857Y-13024524D01*
X8157381Y-13015000D01*
X8176428Y-13005476D01*
X8366905Y-13005476D02*
X8385952Y-13005476D01*
X8405000Y-13015000D01*
X8414524Y-13024524D01*
X8424048Y-13043571D01*
X8433571Y-13081667D01*
X8433571Y-13129286D01*
X8424048Y-13167381D01*
X8414524Y-13186428D01*
X8405000Y-13195952D01*
X8385952Y-13205476D01*
X8366905Y-13205476D01*
X8347857Y-13195952D01*
X8338333Y-13186428D01*
X8328809Y-13167381D01*
X8319286Y-13129286D01*
X8319286Y-13081667D01*
X8328809Y-13043571D01*
X8338333Y-13024524D01*
X8347857Y-13015000D01*
X8366905Y-13005476D01*
X8557381Y-13005476D02*
X8576429Y-13005476D01*
X8595476Y-13015000D01*
X8605000Y-13024524D01*
X8614524Y-13043571D01*
X8624048Y-13081667D01*
X8624048Y-13129286D01*
X8614524Y-13167381D01*
X8605000Y-13186428D01*
X8595476Y-13195952D01*
X8576429Y-13205476D01*
X8557381Y-13205476D01*
X8538333Y-13195952D01*
X8528810Y-13186428D01*
X8519286Y-13167381D01*
X8509762Y-13129286D01*
X8509762Y-13081667D01*
X8519286Y-13043571D01*
X8528810Y-13024524D01*
X8538333Y-13015000D01*
X8557381Y-13005476D01*
X8709762Y-13205476D02*
X8709762Y-13072143D01*
X8709762Y-13091190D02*
X8719286Y-13081667D01*
X8738333Y-13072143D01*
X8766905Y-13072143D01*
X8785952Y-13081667D01*
X8795476Y-13100714D01*
X8795476Y-13205476D01*
X8795476Y-13100714D02*
X8805000Y-13081667D01*
X8824048Y-13072143D01*
X8852619Y-13072143D01*
X8871667Y-13081667D01*
X8881190Y-13100714D01*
X8881190Y-13205476D01*
X8976429Y-13205476D02*
X8976429Y-13072143D01*
X8976429Y-13091190D02*
X8985952Y-13081667D01*
X9005000Y-13072143D01*
X9033571Y-13072143D01*
X9052619Y-13081667D01*
X9062143Y-13100714D01*
X9062143Y-13205476D01*
X9062143Y-13100714D02*
X9071667Y-13081667D01*
X9090714Y-13072143D01*
X9119286Y-13072143D01*
X9138333Y-13081667D01*
X9147857Y-13100714D01*
X9147857Y-13205476D01*
X9538333Y-12995952D02*
X9366905Y-13253095D01*
X9795476Y-13005476D02*
X9814524Y-13005476D01*
X9833571Y-13015000D01*
X9843095Y-13024524D01*
X9852619Y-13043571D01*
X9862143Y-13081667D01*
X9862143Y-13129286D01*
X9852619Y-13167381D01*
X9843095Y-13186428D01*
X9833571Y-13195952D01*
X9814524Y-13205476D01*
X9795476Y-13205476D01*
X9776429Y-13195952D01*
X9766905Y-13186428D01*
X9757381Y-13167381D01*
X9747857Y-13129286D01*
X9747857Y-13081667D01*
X9757381Y-13043571D01*
X9766905Y-13024524D01*
X9776429Y-13015000D01*
X9795476Y-13005476D01*
X9947857Y-13186428D02*
X9957381Y-13195952D01*
X9947857Y-13205476D01*
X9938333Y-13195952D01*
X9947857Y-13186428D01*
X9947857Y-13205476D01*
X10081190Y-13005476D02*
X10100238Y-13005476D01*
X10119286Y-13015000D01*
X10128810Y-13024524D01*
X10138333Y-13043571D01*
X10147857Y-13081667D01*
X10147857Y-13129286D01*
X10138333Y-13167381D01*
X10128810Y-13186428D01*
X10119286Y-13195952D01*
X10100238Y-13205476D01*
X10081190Y-13205476D01*
X10062143Y-13195952D01*
X10052619Y-13186428D01*
X10043095Y-13167381D01*
X10033571Y-13129286D01*
X10033571Y-13081667D01*
X10043095Y-13043571D01*
X10052619Y-13024524D01*
X10062143Y-13015000D01*
X10081190Y-13005476D01*
X10214524Y-13005476D02*
X10338333Y-13005476D01*
X10271667Y-13081667D01*
X10300238Y-13081667D01*
X10319286Y-13091190D01*
X10328810Y-13100714D01*
X10338333Y-13119762D01*
X10338333Y-13167381D01*
X10328810Y-13186428D01*
X10319286Y-13195952D01*
X10300238Y-13205476D01*
X10243095Y-13205476D01*
X10224048Y-13195952D01*
X10214524Y-13186428D01*
X10433571Y-13205476D02*
X10471667Y-13205476D01*
X10490714Y-13195952D01*
X10500238Y-13186428D01*
X10519286Y-13157857D01*
X10528810Y-13119762D01*
X10528810Y-13043571D01*
X10519286Y-13024524D01*
X10509762Y-13015000D01*
X10490714Y-13005476D01*
X10452619Y-13005476D01*
X10433571Y-13015000D01*
X10424048Y-13024524D01*
X10414524Y-13043571D01*
X10414524Y-13091190D01*
X10424048Y-13110238D01*
X10433571Y-13119762D01*
X10452619Y-13129286D01*
X10490714Y-13129286D01*
X10509762Y-13119762D01*
X10519286Y-13110238D01*
X10528810Y-13091190D01*
X10700238Y-13072143D02*
X10700238Y-13205476D01*
X10652619Y-12995952D02*
X10605000Y-13138809D01*
X10728810Y-13138809D01*
X10795476Y-13005476D02*
X10795476Y-13043571D01*
X10871667Y-13005476D02*
X10871667Y-13043571D01*
X11166905Y-13281667D02*
X11157381Y-13272143D01*
X11138333Y-13243571D01*
X11128810Y-13224524D01*
X11119286Y-13195952D01*
X11109762Y-13148333D01*
X11109762Y-13110238D01*
X11119286Y-13062619D01*
X11128810Y-13034048D01*
X11138333Y-13015000D01*
X11157381Y-12986428D01*
X11166905Y-12976905D01*
X11328809Y-13072143D02*
X11328809Y-13205476D01*
X11281190Y-12995952D02*
X11233571Y-13138809D01*
X11357381Y-13138809D01*
X11519286Y-13005476D02*
X11481190Y-13005476D01*
X11462143Y-13015000D01*
X11452619Y-13024524D01*
X11433571Y-13053095D01*
X11424048Y-13091190D01*
X11424048Y-13167381D01*
X11433571Y-13186428D01*
X11443095Y-13195952D01*
X11462143Y-13205476D01*
X11500238Y-13205476D01*
X11519286Y-13195952D01*
X11528809Y-13186428D01*
X11538333Y-13167381D01*
X11538333Y-13119762D01*
X11528809Y-13100714D01*
X11519286Y-13091190D01*
X11500238Y-13081667D01*
X11462143Y-13081667D01*
X11443095Y-13091190D01*
X11433571Y-13100714D01*
X11424048Y-13119762D01*
X11776428Y-13205476D02*
X11776428Y-13005476D01*
X11862143Y-13205476D02*
X11862143Y-13100714D01*
X11852619Y-13081667D01*
X11833571Y-13072143D01*
X11805000Y-13072143D01*
X11785952Y-13081667D01*
X11776428Y-13091190D01*
X11985952Y-13205476D02*
X11966905Y-13195952D01*
X11957381Y-13186428D01*
X11947857Y-13167381D01*
X11947857Y-13110238D01*
X11957381Y-13091190D01*
X11966905Y-13081667D01*
X11985952Y-13072143D01*
X12014524Y-13072143D01*
X12033571Y-13081667D01*
X12043095Y-13091190D01*
X12052619Y-13110238D01*
X12052619Y-13167381D01*
X12043095Y-13186428D01*
X12033571Y-13195952D01*
X12014524Y-13205476D01*
X11985952Y-13205476D01*
X12166905Y-13205476D02*
X12147857Y-13195952D01*
X12138333Y-13176905D01*
X12138333Y-13005476D01*
X12319286Y-13195952D02*
X12300238Y-13205476D01*
X12262143Y-13205476D01*
X12243095Y-13195952D01*
X12233571Y-13176905D01*
X12233571Y-13100714D01*
X12243095Y-13081667D01*
X12262143Y-13072143D01*
X12300238Y-13072143D01*
X12319286Y-13081667D01*
X12328809Y-13100714D01*
X12328809Y-13119762D01*
X12233571Y-13138809D01*
X12405000Y-13195952D02*
X12424048Y-13205476D01*
X12462143Y-13205476D01*
X12481190Y-13195952D01*
X12490714Y-13176905D01*
X12490714Y-13167381D01*
X12481190Y-13148333D01*
X12462143Y-13138809D01*
X12433571Y-13138809D01*
X12414524Y-13129286D01*
X12405000Y-13110238D01*
X12405000Y-13100714D01*
X12414524Y-13081667D01*
X12433571Y-13072143D01*
X12462143Y-13072143D01*
X12481190Y-13081667D01*
X12557381Y-13281667D02*
X12566905Y-13272143D01*
X12585952Y-13243571D01*
X12595476Y-13224524D01*
X12605000Y-13195952D01*
X12614524Y-13148333D01*
X12614524Y-13110238D01*
X12605000Y-13062619D01*
X12595476Y-13034048D01*
X12585952Y-13015000D01*
X12566905Y-12986428D01*
X12557381Y-12976905D01*
M02*
