G04 #@! TF.GenerationSoftware,KiCad,Pcbnew,9.0.6*
G04 #@! TF.CreationDate,2026-01-09T20:09:44+00:00*
G04 #@! TF.ProjectId,ExtendedRangeSupply,45787465-6e64-4656-9452-616e67655375,rev?*
G04 #@! TF.SameCoordinates,Original*
G04 #@! TF.FileFunction,Copper,L4,Bot*
G04 #@! TF.FilePolarity,Positive*
%FSLAX46Y46*%
G04 Gerber Fmt 4.6, Leading zero omitted, Abs format (unit mm)*
G04 Created by KiCad (PCBNEW 9.0.6) date 2026-01-09 20:09:44*
%MOMM*%
%LPD*%
G01*
G04 APERTURE LIST*
G04 Aperture macros list*
%AMRoundRect*
0 Rectangle with rounded corners*
0 $1 Rounding radius*
0 $2 $3 $4 $5 $6 $7 $8 $9 X,Y pos of 4 corners*
0 Add a 4 corners polygon primitive as box body*
4,1,4,$2,$3,$4,$5,$6,$7,$8,$9,$2,$3,0*
0 Add four circle primitives for the rounded corners*
1,1,$1+$1,$2,$3*
1,1,$1+$1,$4,$5*
1,1,$1+$1,$6,$7*
1,1,$1+$1,$8,$9*
0 Add four rect primitives between the rounded corners*
20,1,$1+$1,$2,$3,$4,$5,0*
20,1,$1+$1,$4,$5,$6,$7,0*
20,1,$1+$1,$6,$7,$8,$9,0*
20,1,$1+$1,$8,$9,$2,$3,0*%
G04 Aperture macros list end*
G04 #@! TA.AperFunction,ComponentPad*
%ADD10C,1.700000*%
G04 #@! TD*
G04 #@! TA.AperFunction,ComponentPad*
%ADD11R,1.700000X1.700000*%
G04 #@! TD*
G04 #@! TA.AperFunction,HeatsinkPad*
%ADD12R,0.500000X0.500000*%
G04 #@! TD*
G04 #@! TA.AperFunction,HeatsinkPad*
%ADD13C,0.500000*%
G04 #@! TD*
G04 #@! TA.AperFunction,SMDPad,CuDef*
%ADD14R,1.500000X5.080000*%
G04 #@! TD*
G04 #@! TA.AperFunction,ComponentPad*
%ADD15C,1.500000*%
G04 #@! TD*
G04 #@! TA.AperFunction,ComponentPad*
%ADD16C,1.440000*%
G04 #@! TD*
G04 #@! TA.AperFunction,SMDPad,CuDef*
%ADD17RoundRect,0.249999X1.425001X-0.450001X1.425001X0.450001X-1.425001X0.450001X-1.425001X-0.450001X0*%
G04 #@! TD*
G04 #@! TA.AperFunction,SMDPad,CuDef*
%ADD18RoundRect,0.250000X0.450000X-0.350000X0.450000X0.350000X-0.450000X0.350000X-0.450000X-0.350000X0*%
G04 #@! TD*
G04 #@! TA.AperFunction,SMDPad,CuDef*
%ADD19RoundRect,0.249999X1.075001X-0.450001X1.075001X0.450001X-1.075001X0.450001X-1.075001X-0.450001X0*%
G04 #@! TD*
G04 #@! TA.AperFunction,SMDPad,CuDef*
%ADD20RoundRect,0.250000X0.625000X-0.400000X0.625000X0.400000X-0.625000X0.400000X-0.625000X-0.400000X0*%
G04 #@! TD*
G04 #@! TA.AperFunction,ViaPad*
%ADD21C,0.600000*%
G04 #@! TD*
G04 #@! TA.AperFunction,Conductor*
%ADD22C,0.200000*%
G04 #@! TD*
G04 #@! TA.AperFunction,Conductor*
%ADD23C,0.500000*%
G04 #@! TD*
G04 #@! TA.AperFunction,Conductor*
%ADD24C,0.750000*%
G04 #@! TD*
G04 #@! TA.AperFunction,Conductor*
%ADD25C,0.400000*%
G04 #@! TD*
G04 #@! TA.AperFunction,Conductor*
%ADD26C,0.250000*%
G04 #@! TD*
G04 #@! TA.AperFunction,Conductor*
%ADD27C,0.150000*%
G04 #@! TD*
G04 #@! TA.AperFunction,Conductor*
%ADD28C,1.000000*%
G04 #@! TD*
G04 APERTURE END LIST*
D10*
X129040000Y-108400000D03*
X126500000Y-108400000D03*
D11*
X123960000Y-108400000D03*
D12*
X134350000Y-103272500D03*
D13*
X134350000Y-103272500D03*
D14*
X127475000Y-69325000D03*
X135975000Y-69325000D03*
D11*
X123320000Y-86485000D03*
D10*
X123320000Y-89025000D03*
X123320000Y-91565000D03*
X123320000Y-94105000D03*
X123320000Y-96645000D03*
D11*
X136020000Y-86485000D03*
D10*
X136020000Y-89025000D03*
X136020000Y-91565000D03*
X136020000Y-94105000D03*
X136020000Y-96645000D03*
D11*
X123320000Y-111250000D03*
D10*
X125860000Y-111250000D03*
X128400000Y-111250000D03*
X130940000Y-111250000D03*
X133480000Y-111250000D03*
X136020000Y-111250000D03*
D15*
X123881597Y-68118654D03*
D11*
X133560000Y-95410000D03*
D10*
X133560000Y-92870000D03*
X133560000Y-90330000D03*
D11*
X135300000Y-108400000D03*
D10*
X132760000Y-108400000D03*
D16*
X124613399Y-77991232D03*
X127153399Y-77991232D03*
X129693399Y-77991232D03*
D11*
X128992150Y-82612483D03*
D10*
X126452150Y-82612483D03*
X123912150Y-82612483D03*
D15*
X123896879Y-70311183D03*
D17*
X124025000Y-105225000D03*
X124025000Y-99125000D03*
D18*
X127100000Y-103825000D03*
X127100000Y-101825000D03*
D19*
X127625000Y-105225000D03*
X127625000Y-100425000D03*
D20*
X124800000Y-103725000D03*
X124800000Y-100625000D03*
D21*
X128430000Y-84300000D03*
X129000000Y-87500000D03*
X124275000Y-106625000D03*
X127570000Y-96050000D03*
X125325000Y-106650000D03*
X123589000Y-79435000D03*
X128511250Y-93583750D03*
X133000000Y-87000000D03*
X136910000Y-103530000D03*
X136856526Y-108286783D03*
X136846340Y-106830116D03*
X133953847Y-77196153D03*
X134400000Y-106000000D03*
X123500000Y-76500000D03*
X135000000Y-84000000D03*
X127160000Y-79490000D03*
X129000000Y-88500000D03*
X136825967Y-109661958D03*
X125000000Y-93490000D03*
X131910000Y-98990000D03*
X125831000Y-76410000D03*
X124700000Y-97975000D03*
X130000000Y-85000000D03*
X128325000Y-98950000D03*
X135000000Y-81500000D03*
X132259998Y-95050000D03*
X134000000Y-83321139D03*
X128475000Y-95500000D03*
X134425707Y-99674293D03*
X132000000Y-80500000D03*
X131675000Y-92559394D03*
X129370656Y-92559394D03*
X135100000Y-100350000D03*
X131113389Y-86859576D03*
X129398746Y-85700000D03*
X136520000Y-105010000D03*
X133000000Y-71500000D03*
X126018642Y-89990532D03*
X126000000Y-86500000D03*
X130250000Y-95900000D03*
X130913980Y-89924651D03*
X128684975Y-102834975D03*
X129125000Y-96350000D03*
X135275000Y-105475000D03*
X128275070Y-103780470D03*
X127750475Y-91062465D03*
X127827692Y-86503449D03*
X135960978Y-80256441D03*
X135531202Y-77047976D03*
X133000000Y-83500000D03*
D22*
X128900000Y-108400000D02*
X129000000Y-108400000D01*
D23*
X127774000Y-96254000D02*
X127774000Y-94321000D01*
D24*
X122544000Y-110474000D02*
X122544000Y-107024000D01*
X122544000Y-107024000D02*
X122943000Y-106625000D01*
D23*
X135170000Y-97495000D02*
X133143000Y-97495000D01*
X133138000Y-97500000D02*
X129020000Y-97500000D01*
X128010000Y-96490000D02*
X127774000Y-96254000D01*
X127774000Y-94321000D02*
X128511250Y-93583750D01*
X129020000Y-97500000D02*
X128010000Y-96490000D01*
D24*
X124275000Y-106625000D02*
X125300000Y-106625000D01*
X125300000Y-106625000D02*
X125325000Y-106650000D01*
D23*
X136020000Y-96645000D02*
X135170000Y-97495000D01*
D25*
X126975000Y-96645000D02*
X123320000Y-96645000D01*
X127570000Y-96050000D02*
X126975000Y-96645000D01*
D23*
X128010000Y-96490000D02*
X127570000Y-96050000D01*
D24*
X122943000Y-106625000D02*
X124275000Y-106625000D01*
D23*
X133143000Y-97495000D02*
X133138000Y-97500000D01*
D24*
X123320000Y-111250000D02*
X122544000Y-110474000D01*
D23*
X124805000Y-85000000D02*
X123320000Y-86485000D01*
X134535000Y-85000000D02*
X124805000Y-85000000D01*
X136020000Y-86485000D02*
X134535000Y-85000000D01*
D22*
X134919000Y-91689000D02*
X133560000Y-90330000D01*
X134919000Y-93004000D02*
X134919000Y-91689000D01*
X136020000Y-94105000D02*
X134919000Y-93004000D01*
D26*
X130558322Y-86859576D02*
X131113389Y-86859576D01*
X129398746Y-85700000D02*
X130558322Y-86859576D01*
D23*
X128992150Y-82612483D02*
X128992150Y-79829983D01*
X128992150Y-79829983D02*
X127153399Y-77991232D01*
D27*
X124900000Y-100650000D02*
X124825000Y-100650000D01*
X125850000Y-102100000D02*
X126050000Y-101900000D01*
D22*
X128684975Y-102834975D02*
X128600000Y-102750000D01*
D27*
X124825000Y-100650000D02*
X124800000Y-100625000D01*
X125850000Y-102350000D02*
X125850000Y-101600000D01*
D28*
X124025000Y-99775000D02*
X124800000Y-100550000D01*
D25*
X124925000Y-100425000D02*
X124800000Y-100550000D01*
D27*
X126050000Y-101900000D02*
X127050000Y-101900000D01*
X125850000Y-101600000D02*
X124900000Y-100650000D01*
D25*
X124800000Y-100550000D02*
X124800000Y-100625000D01*
D28*
X124025000Y-99125000D02*
X126325000Y-99125000D01*
D25*
X127625000Y-100425000D02*
X124925000Y-100425000D01*
D28*
X124025000Y-99125000D02*
X124025000Y-99775000D01*
D27*
X125850000Y-102350000D02*
X125850000Y-102100000D01*
X127050000Y-101900000D02*
X127100000Y-101850000D01*
D28*
X127100000Y-100950000D02*
X127100000Y-101825000D01*
D27*
X128074678Y-102699000D02*
X126199000Y-102699000D01*
X126199000Y-102699000D02*
X125850000Y-102350000D01*
D28*
X126325000Y-99125000D02*
X127625000Y-100425000D01*
D27*
X128210653Y-102834975D02*
X128074678Y-102699000D01*
X127100000Y-101850000D02*
X127100000Y-101825000D01*
X128684975Y-102834975D02*
X128210653Y-102834975D01*
D28*
X127625000Y-100425000D02*
X127100000Y-100950000D01*
X127100000Y-104700000D02*
X127100000Y-103825000D01*
D27*
X127100000Y-103850000D02*
X127100000Y-103825000D01*
D28*
X126460000Y-108400000D02*
X127625000Y-107235000D01*
X131223240Y-108231701D02*
X132531421Y-108231701D01*
X127625000Y-105225000D02*
X127100000Y-104700000D01*
D27*
X124850000Y-103650000D02*
X124800000Y-103700000D01*
X126000000Y-103350000D02*
X125700000Y-103650000D01*
D28*
X124800000Y-104025000D02*
X126000000Y-105225000D01*
D27*
X127950000Y-103000000D02*
X126350000Y-103000000D01*
D28*
X124800000Y-103725000D02*
X124800000Y-104025000D01*
D27*
X126350000Y-103900000D02*
X127050000Y-103900000D01*
X126350000Y-103000000D02*
X126000000Y-103350000D01*
X127050000Y-103900000D02*
X127100000Y-103850000D01*
D28*
X132531421Y-108231701D02*
X132733041Y-108433321D01*
D27*
X126000000Y-103350000D02*
X126000000Y-103550000D01*
X126000000Y-103550000D02*
X126350000Y-103900000D01*
X125700000Y-103650000D02*
X124850000Y-103650000D01*
D28*
X127625000Y-107235000D02*
X127625000Y-105225000D01*
X127625000Y-105225000D02*
X128216539Y-105225000D01*
D27*
X128275070Y-103780470D02*
X128275070Y-103325070D01*
D28*
X124025000Y-105225000D02*
X126000000Y-105225000D01*
D27*
X128275070Y-103325070D02*
X127950000Y-103000000D01*
D28*
X128216539Y-105225000D02*
X131223240Y-108231701D01*
D27*
X124800000Y-103700000D02*
X124800000Y-103725000D01*
D28*
X126000000Y-105225000D02*
X127625000Y-105225000D01*
D22*
X124800000Y-103650000D02*
X124800000Y-103725000D01*
D23*
X127712245Y-86618896D02*
X127712245Y-91134903D01*
D26*
X127827692Y-86503449D02*
X127712245Y-86618896D01*
X129693399Y-80193399D02*
X133000000Y-83500000D01*
X129693399Y-77991232D02*
X129693399Y-80193399D01*
D28*
X123920000Y-108400000D02*
X123920000Y-108420000D01*
X123920000Y-108420000D02*
X125860000Y-110360000D01*
X128400000Y-111250000D02*
X125860000Y-111250000D01*
X125860000Y-110360000D02*
X125860000Y-111250000D01*
G04 #@! TA.AperFunction,Conductor*
G36*
X127577974Y-97135191D02*
G01*
X127622325Y-97163693D01*
X128396451Y-97937819D01*
X128429936Y-97999142D01*
X128424952Y-98068834D01*
X128383080Y-98124767D01*
X128317616Y-98149184D01*
X128308770Y-98149500D01*
X128246155Y-98149500D01*
X128091510Y-98180261D01*
X128091498Y-98180264D01*
X127945827Y-98240602D01*
X127945814Y-98240609D01*
X127814711Y-98328210D01*
X127814707Y-98328213D01*
X127703213Y-98439707D01*
X127703210Y-98439711D01*
X127615609Y-98570814D01*
X127615602Y-98570827D01*
X127555264Y-98716498D01*
X127555261Y-98716510D01*
X127524500Y-98871153D01*
X127524500Y-99028846D01*
X127555261Y-99183489D01*
X127555264Y-99183501D01*
X127615602Y-99329172D01*
X127615609Y-99329185D01*
X127703210Y-99460288D01*
X127703213Y-99460292D01*
X127814707Y-99571786D01*
X127814711Y-99571789D01*
X127945814Y-99659390D01*
X127945827Y-99659397D01*
X128042390Y-99699394D01*
X128091503Y-99719737D01*
X128246153Y-99750499D01*
X128246156Y-99750500D01*
X128246158Y-99750500D01*
X128403844Y-99750500D01*
X128403845Y-99750499D01*
X128558497Y-99719737D01*
X128704179Y-99659394D01*
X128835289Y-99571789D01*
X128946789Y-99460289D01*
X129034394Y-99329179D01*
X129094737Y-99183497D01*
X129125500Y-99028842D01*
X129125500Y-98871158D01*
X129125500Y-98871155D01*
X129125499Y-98871153D01*
X129106472Y-98775499D01*
X129094737Y-98716503D01*
X129094735Y-98716498D01*
X129034397Y-98570827D01*
X129034390Y-98570814D01*
X128949248Y-98443391D01*
X128928370Y-98376714D01*
X128946854Y-98309334D01*
X128998833Y-98262643D01*
X129052350Y-98250500D01*
X129093918Y-98250500D01*
X131025138Y-98250500D01*
X131092177Y-98270185D01*
X131137932Y-98322989D01*
X131147876Y-98392147D01*
X131118851Y-98455703D01*
X131112819Y-98462181D01*
X128986319Y-100588681D01*
X128924996Y-100622166D01*
X128898638Y-100625000D01*
X124945112Y-100625000D01*
X124878073Y-100605315D01*
X124857431Y-100588681D01*
X124111319Y-99842569D01*
X124077834Y-99781246D01*
X124075000Y-99754888D01*
X124075000Y-98752129D01*
X124094685Y-98685090D01*
X124147489Y-98639335D01*
X124216647Y-98629391D01*
X124267892Y-98649028D01*
X124320812Y-98684389D01*
X124320827Y-98684397D01*
X124398356Y-98716510D01*
X124466503Y-98744737D01*
X124621153Y-98775499D01*
X124621156Y-98775500D01*
X124621158Y-98775500D01*
X124778844Y-98775500D01*
X124778845Y-98775499D01*
X124933497Y-98744737D01*
X125079179Y-98684394D01*
X125210289Y-98596789D01*
X125321789Y-98485289D01*
X125409394Y-98354179D01*
X125469737Y-98208497D01*
X125481411Y-98149809D01*
X125513795Y-98087898D01*
X125574511Y-98053324D01*
X125603028Y-98050000D01*
X125699999Y-98050000D01*
X125700000Y-98050000D01*
X126374115Y-97381455D01*
X126435577Y-97348225D01*
X126461432Y-97345500D01*
X127043996Y-97345500D01*
X127135040Y-97327389D01*
X127179328Y-97318580D01*
X127243069Y-97292177D01*
X127306807Y-97265777D01*
X127306808Y-97265776D01*
X127306811Y-97265775D01*
X127421543Y-97189114D01*
X127446961Y-97163695D01*
X127508282Y-97130209D01*
X127577974Y-97135191D01*
G37*
G04 #@! TD.AperFunction*
G04 #@! TA.AperFunction,Conductor*
G36*
X129940677Y-95069685D02*
G01*
X129961319Y-95086319D01*
X131412819Y-96537819D01*
X131446304Y-96599142D01*
X131441320Y-96668834D01*
X131399448Y-96724767D01*
X131333984Y-96749184D01*
X131325138Y-96749500D01*
X129382230Y-96749500D01*
X129315191Y-96729815D01*
X129294549Y-96713181D01*
X128923003Y-96341635D01*
X128889518Y-96280312D01*
X128894502Y-96210620D01*
X128936374Y-96154687D01*
X128941782Y-96150859D01*
X128985289Y-96121789D01*
X129096789Y-96010289D01*
X129184394Y-95879179D01*
X129244737Y-95733497D01*
X129275500Y-95578842D01*
X129275500Y-95421158D01*
X129275500Y-95421155D01*
X129275499Y-95421153D01*
X129269987Y-95393443D01*
X129244737Y-95266503D01*
X129242065Y-95260051D01*
X129226077Y-95221452D01*
X129218608Y-95151982D01*
X129249884Y-95089503D01*
X129309973Y-95053852D01*
X129340638Y-95050000D01*
X129873638Y-95050000D01*
X129940677Y-95069685D01*
G37*
G04 #@! TD.AperFunction*
G04 #@! TA.AperFunction,Conductor*
G36*
X135554075Y-111442993D02*
G01*
X135619901Y-111557007D01*
X135712993Y-111650099D01*
X135827007Y-111715925D01*
X135834822Y-111718019D01*
X135396307Y-112156534D01*
X135443478Y-112190805D01*
X135597749Y-112269411D01*
X135601431Y-112270936D01*
X135655837Y-112314773D01*
X135677907Y-112381066D01*
X135660632Y-112448766D01*
X135609498Y-112496380D01*
X135553986Y-112509500D01*
X134425689Y-112509500D01*
X134358650Y-112489815D01*
X134312895Y-112437011D01*
X134302951Y-112367853D01*
X134331976Y-112304297D01*
X134352804Y-112285181D01*
X134359792Y-112280104D01*
X134510104Y-112129792D01*
X134510106Y-112129788D01*
X134510109Y-112129786D01*
X134635048Y-111957820D01*
X134635047Y-111957820D01*
X134635051Y-111957816D01*
X134731557Y-111768412D01*
X134763765Y-111669284D01*
X134803201Y-111611611D01*
X134867559Y-111584412D01*
X134936406Y-111596326D01*
X134987882Y-111643570D01*
X134999625Y-111669282D01*
X135000591Y-111672256D01*
X135079195Y-111826523D01*
X135079196Y-111826525D01*
X135113463Y-111873691D01*
X135113464Y-111873691D01*
X135551980Y-111435176D01*
X135554075Y-111442993D01*
G37*
G04 #@! TD.AperFunction*
G04 #@! TA.AperFunction,Conductor*
G36*
X136926533Y-111873692D02*
G01*
X136926534Y-111873691D01*
X136960803Y-111826525D01*
X137039410Y-111672252D01*
X137040934Y-111668573D01*
X137084769Y-111614165D01*
X137151060Y-111592093D01*
X137218762Y-111609364D01*
X137266378Y-111660496D01*
X137279500Y-111716013D01*
X137279500Y-112385500D01*
X137259815Y-112452539D01*
X137207011Y-112498294D01*
X137155500Y-112509500D01*
X136486014Y-112509500D01*
X136418975Y-112489815D01*
X136373220Y-112437011D01*
X136363276Y-112367853D01*
X136392301Y-112304297D01*
X136438569Y-112270936D01*
X136442250Y-112269411D01*
X136596525Y-112190803D01*
X136643691Y-112156534D01*
X136643692Y-112156533D01*
X136205178Y-111718019D01*
X136212993Y-111715925D01*
X136327007Y-111650099D01*
X136420099Y-111557007D01*
X136485925Y-111442993D01*
X136488019Y-111435177D01*
X136926533Y-111873692D01*
G37*
G04 #@! TD.AperFunction*
G04 #@! TA.AperFunction,Conductor*
G36*
X125385098Y-85770185D02*
G01*
X125430853Y-85822989D01*
X125440797Y-85892147D01*
X125411772Y-85955703D01*
X125405740Y-85962181D01*
X125378213Y-85989707D01*
X125378210Y-85989711D01*
X125290609Y-86120814D01*
X125290602Y-86120827D01*
X125230264Y-86266498D01*
X125230261Y-86266510D01*
X125199500Y-86421153D01*
X125199500Y-86578846D01*
X125230261Y-86733489D01*
X125230264Y-86733501D01*
X125290602Y-86879172D01*
X125290609Y-86879185D01*
X125378210Y-87010288D01*
X125378213Y-87010292D01*
X125489707Y-87121786D01*
X125489711Y-87121789D01*
X125620814Y-87209390D01*
X125620827Y-87209397D01*
X125738913Y-87258309D01*
X125766503Y-87269737D01*
X125921153Y-87300499D01*
X125921156Y-87300500D01*
X125921158Y-87300500D01*
X126078844Y-87300500D01*
X126078845Y-87300499D01*
X126233497Y-87269737D01*
X126379179Y-87209394D01*
X126510289Y-87121789D01*
X126621789Y-87010289D01*
X126709394Y-86879179D01*
X126723183Y-86845886D01*
X126767024Y-86791484D01*
X126833318Y-86769418D01*
X126901017Y-86786696D01*
X126948628Y-86837833D01*
X126961745Y-86893339D01*
X126961745Y-89553555D01*
X126942060Y-89620594D01*
X126889256Y-89666349D01*
X126820098Y-89676293D01*
X126756542Y-89647268D01*
X126731738Y-89616205D01*
X126731421Y-89616418D01*
X126728922Y-89612678D01*
X126728387Y-89612008D01*
X126728037Y-89611354D01*
X126640431Y-89480243D01*
X126640428Y-89480239D01*
X126528934Y-89368745D01*
X126528930Y-89368742D01*
X126397827Y-89281141D01*
X126397814Y-89281134D01*
X126252143Y-89220796D01*
X126252131Y-89220793D01*
X126097487Y-89190032D01*
X126097484Y-89190032D01*
X125939800Y-89190032D01*
X125939797Y-89190032D01*
X125785152Y-89220793D01*
X125785140Y-89220796D01*
X125639469Y-89281134D01*
X125639456Y-89281141D01*
X125508353Y-89368742D01*
X125508349Y-89368745D01*
X125396855Y-89480239D01*
X125396852Y-89480243D01*
X125309251Y-89611346D01*
X125309244Y-89611359D01*
X125248906Y-89757030D01*
X125248903Y-89757042D01*
X125218142Y-89911685D01*
X125218142Y-90069378D01*
X125248903Y-90224021D01*
X125248906Y-90224033D01*
X125309244Y-90369704D01*
X125309251Y-90369717D01*
X125396852Y-90500820D01*
X125396855Y-90500824D01*
X125508349Y-90612318D01*
X125508353Y-90612321D01*
X125639456Y-90699922D01*
X125639469Y-90699929D01*
X125738236Y-90740839D01*
X125785145Y-90760269D01*
X125939795Y-90791031D01*
X125939798Y-90791032D01*
X125939800Y-90791032D01*
X126097486Y-90791032D01*
X126097487Y-90791031D01*
X126252139Y-90760269D01*
X126397821Y-90699926D01*
X126528931Y-90612321D01*
X126640431Y-90500821D01*
X126728036Y-90369711D01*
X126728040Y-90369700D01*
X126728382Y-90369063D01*
X126728656Y-90368783D01*
X126731421Y-90364646D01*
X126732205Y-90365170D01*
X126777341Y-90319215D01*
X126845478Y-90303749D01*
X126911159Y-90327576D01*
X126953532Y-90383131D01*
X126961745Y-90427508D01*
X126961745Y-90912239D01*
X126959362Y-90936431D01*
X126949975Y-90983621D01*
X126949975Y-91141308D01*
X126959362Y-91188497D01*
X126960770Y-91202798D01*
X126961148Y-91202761D01*
X126961744Y-91208823D01*
X126990585Y-91353810D01*
X126990588Y-91353820D01*
X127047157Y-91490391D01*
X127047164Y-91490404D01*
X127129293Y-91613318D01*
X127129296Y-91613322D01*
X127233825Y-91717851D01*
X127233829Y-91717854D01*
X127356743Y-91799983D01*
X127356756Y-91799990D01*
X127493327Y-91856559D01*
X127493332Y-91856561D01*
X127493336Y-91856561D01*
X127493337Y-91856562D01*
X127638324Y-91885403D01*
X127638327Y-91885403D01*
X127786165Y-91885403D01*
X127883707Y-91865999D01*
X127931158Y-91856561D01*
X128067740Y-91799987D01*
X128067746Y-91799982D01*
X128073119Y-91797112D01*
X128073140Y-91797151D01*
X128088794Y-91788783D01*
X128129654Y-91771859D01*
X128260764Y-91684254D01*
X128372264Y-91572754D01*
X128459869Y-91441644D01*
X128520212Y-91295962D01*
X128550975Y-91141307D01*
X128550975Y-90983623D01*
X128550975Y-90983621D01*
X128550975Y-90983620D01*
X128550974Y-90983618D01*
X128520214Y-90828976D01*
X128520211Y-90828966D01*
X128504498Y-90791032D01*
X128472183Y-90713016D01*
X128462745Y-90665565D01*
X128462745Y-89845804D01*
X130113480Y-89845804D01*
X130113480Y-90003497D01*
X130144241Y-90158140D01*
X130144244Y-90158152D01*
X130204582Y-90303823D01*
X130204589Y-90303836D01*
X130292190Y-90434939D01*
X130292193Y-90434943D01*
X130403687Y-90546437D01*
X130403691Y-90546440D01*
X130534794Y-90634041D01*
X130534807Y-90634048D01*
X130661075Y-90686349D01*
X130680483Y-90694388D01*
X130835133Y-90725150D01*
X130835136Y-90725151D01*
X130835138Y-90725151D01*
X130992824Y-90725151D01*
X130992825Y-90725150D01*
X131147477Y-90694388D01*
X131293159Y-90634045D01*
X131424269Y-90546440D01*
X131535769Y-90434940D01*
X131623374Y-90303830D01*
X131627032Y-90295000D01*
X131672796Y-90184514D01*
X131683717Y-90158148D01*
X131714480Y-90003493D01*
X131714480Y-89845809D01*
X131714480Y-89845806D01*
X131714479Y-89845804D01*
X131696823Y-89757042D01*
X131683717Y-89691154D01*
X131683715Y-89691149D01*
X131623377Y-89545478D01*
X131623370Y-89545465D01*
X131535769Y-89414362D01*
X131535766Y-89414358D01*
X131424272Y-89302864D01*
X131424268Y-89302861D01*
X131293165Y-89215260D01*
X131293152Y-89215253D01*
X131147481Y-89154915D01*
X131147469Y-89154912D01*
X130992825Y-89124151D01*
X130992822Y-89124151D01*
X130835138Y-89124151D01*
X130835135Y-89124151D01*
X130680490Y-89154912D01*
X130680478Y-89154915D01*
X130534807Y-89215253D01*
X130534794Y-89215260D01*
X130403691Y-89302861D01*
X130403687Y-89302864D01*
X130292193Y-89414358D01*
X130292190Y-89414362D01*
X130204589Y-89545465D01*
X130204582Y-89545478D01*
X130144244Y-89691149D01*
X130144241Y-89691161D01*
X130113480Y-89845804D01*
X128462745Y-89845804D01*
X128462745Y-87031502D01*
X128482430Y-86964463D01*
X128483643Y-86962611D01*
X128484690Y-86961043D01*
X128537086Y-86882628D01*
X128597429Y-86736946D01*
X128628192Y-86582291D01*
X128628192Y-86424607D01*
X128626169Y-86414439D01*
X128617785Y-86372290D01*
X128624012Y-86302698D01*
X128666874Y-86247520D01*
X128732763Y-86224275D01*
X128800761Y-86240342D01*
X128827083Y-86260416D01*
X128888453Y-86321786D01*
X128888457Y-86321789D01*
X129019560Y-86409390D01*
X129019573Y-86409397D01*
X129106976Y-86445599D01*
X129165249Y-86469737D01*
X129276462Y-86491858D01*
X129338369Y-86524241D01*
X129339949Y-86525793D01*
X130072461Y-87258305D01*
X130072464Y-87258309D01*
X130159589Y-87345434D01*
X130196153Y-87369865D01*
X130262036Y-87413888D01*
X130331072Y-87442483D01*
X130375870Y-87461039D01*
X130436293Y-87473057D01*
X130496715Y-87485076D01*
X130496716Y-87485076D01*
X130571039Y-87485076D01*
X130638078Y-87504761D01*
X130639930Y-87505974D01*
X130734210Y-87568970D01*
X130734212Y-87568971D01*
X130734216Y-87568973D01*
X130879887Y-87629311D01*
X130879892Y-87629313D01*
X131034542Y-87660075D01*
X131034545Y-87660076D01*
X131034547Y-87660076D01*
X131192233Y-87660076D01*
X131192234Y-87660075D01*
X131346886Y-87629313D01*
X131492568Y-87568970D01*
X131623678Y-87481365D01*
X131735178Y-87369865D01*
X131822783Y-87238755D01*
X131883126Y-87093073D01*
X131913889Y-86938418D01*
X131913889Y-86780734D01*
X131913889Y-86780731D01*
X131913888Y-86780729D01*
X131883127Y-86626086D01*
X131883126Y-86626079D01*
X131864990Y-86582295D01*
X131822786Y-86480403D01*
X131822779Y-86480390D01*
X131735178Y-86349287D01*
X131735175Y-86349283D01*
X131623681Y-86237789D01*
X131623677Y-86237786D01*
X131492574Y-86150185D01*
X131492561Y-86150178D01*
X131346890Y-86089840D01*
X131346878Y-86089837D01*
X131192234Y-86059076D01*
X131192231Y-86059076D01*
X131034547Y-86059076D01*
X131034544Y-86059076D01*
X130879899Y-86089837D01*
X130879887Y-86089840D01*
X130810267Y-86118678D01*
X130740798Y-86126147D01*
X130678319Y-86094872D01*
X130675134Y-86091798D01*
X130545517Y-85962181D01*
X130512032Y-85900858D01*
X130517016Y-85831166D01*
X130558888Y-85775233D01*
X130624352Y-85750816D01*
X130633198Y-85750500D01*
X134172770Y-85750500D01*
X134239809Y-85770185D01*
X134260451Y-85786819D01*
X134633181Y-86159548D01*
X134666666Y-86220871D01*
X134669500Y-86247229D01*
X134669500Y-87382870D01*
X134669501Y-87382876D01*
X134675908Y-87442483D01*
X134726202Y-87577328D01*
X134726206Y-87577335D01*
X134812452Y-87692544D01*
X134812455Y-87692547D01*
X134927664Y-87778793D01*
X134927671Y-87778797D01*
X135059082Y-87827810D01*
X135115016Y-87869681D01*
X135139433Y-87935145D01*
X135124582Y-88003418D01*
X135103431Y-88031673D01*
X134989889Y-88145215D01*
X134864951Y-88317179D01*
X134768444Y-88506585D01*
X134702753Y-88708760D01*
X134669500Y-88918713D01*
X134669500Y-89131287D01*
X134669499Y-89131287D01*
X134684759Y-89227631D01*
X134675804Y-89296924D01*
X134630808Y-89350376D01*
X134564056Y-89371015D01*
X134496743Y-89352290D01*
X134474605Y-89334709D01*
X134439786Y-89299890D01*
X134267820Y-89174951D01*
X134078414Y-89078444D01*
X134078413Y-89078443D01*
X134078412Y-89078443D01*
X133876243Y-89012754D01*
X133876241Y-89012753D01*
X133876240Y-89012753D01*
X133714957Y-88987208D01*
X133666287Y-88979500D01*
X133453713Y-88979500D01*
X133405042Y-88987208D01*
X133243760Y-89012753D01*
X133041585Y-89078444D01*
X132852179Y-89174951D01*
X132680213Y-89299890D01*
X132529890Y-89450213D01*
X132404951Y-89622179D01*
X132308444Y-89811585D01*
X132308443Y-89811587D01*
X132308443Y-89811588D01*
X132297325Y-89845806D01*
X132242753Y-90013760D01*
X132209500Y-90223713D01*
X132209500Y-90436286D01*
X132237380Y-90612318D01*
X132242754Y-90646243D01*
X132302125Y-90828968D01*
X132308444Y-90848414D01*
X132404951Y-91037820D01*
X132529890Y-91209786D01*
X132680213Y-91360109D01*
X132852182Y-91485050D01*
X132860946Y-91489516D01*
X132911742Y-91537491D01*
X132928536Y-91605312D01*
X132905998Y-91671447D01*
X132860946Y-91710484D01*
X132852182Y-91714949D01*
X132680213Y-91839890D01*
X132529894Y-91990209D01*
X132492081Y-92042255D01*
X132436751Y-92084920D01*
X132367137Y-92090899D01*
X132305342Y-92058293D01*
X132298099Y-92050414D01*
X132185292Y-91937607D01*
X132185288Y-91937604D01*
X132054185Y-91850003D01*
X132054172Y-91849996D01*
X131908501Y-91789658D01*
X131908489Y-91789655D01*
X131753845Y-91758894D01*
X131753842Y-91758894D01*
X131596158Y-91758894D01*
X131596155Y-91758894D01*
X131441510Y-91789655D01*
X131441498Y-91789658D01*
X131295827Y-91849996D01*
X131295814Y-91850003D01*
X131164711Y-91937604D01*
X131164707Y-91937607D01*
X131053213Y-92049101D01*
X131053210Y-92049105D01*
X130965609Y-92180208D01*
X130965602Y-92180221D01*
X130905264Y-92325892D01*
X130905261Y-92325904D01*
X130874500Y-92480547D01*
X130874500Y-92638240D01*
X130905261Y-92792883D01*
X130905264Y-92792895D01*
X130965602Y-92938566D01*
X130965609Y-92938579D01*
X131053210Y-93069682D01*
X131053213Y-93069686D01*
X131164707Y-93181180D01*
X131164711Y-93181183D01*
X131295814Y-93268784D01*
X131295827Y-93268791D01*
X131441498Y-93329129D01*
X131441503Y-93329131D01*
X131596153Y-93359893D01*
X131596156Y-93359894D01*
X131596158Y-93359894D01*
X131753844Y-93359894D01*
X131753845Y-93359893D01*
X131908497Y-93329131D01*
X132039513Y-93274863D01*
X132054172Y-93268791D01*
X132054172Y-93268790D01*
X132054179Y-93268788D01*
X132094951Y-93241544D01*
X132161627Y-93220667D01*
X132229008Y-93239151D01*
X132275698Y-93291129D01*
X132281770Y-93306322D01*
X132289182Y-93329132D01*
X132308444Y-93388414D01*
X132404951Y-93577820D01*
X132529890Y-93749786D01*
X132643430Y-93863326D01*
X132676915Y-93924649D01*
X132671931Y-93994341D01*
X132630059Y-94050274D01*
X132599083Y-94067189D01*
X132467669Y-94116203D01*
X132467664Y-94116206D01*
X132352457Y-94202451D01*
X132346180Y-94208728D01*
X132344614Y-94207161D01*
X132298490Y-94241685D01*
X132255165Y-94249500D01*
X132181153Y-94249500D01*
X132026508Y-94280261D01*
X132026496Y-94280264D01*
X131880825Y-94340602D01*
X131880812Y-94340609D01*
X131749709Y-94428210D01*
X131749705Y-94428213D01*
X131638211Y-94539707D01*
X131638208Y-94539711D01*
X131550607Y-94670814D01*
X131550600Y-94670827D01*
X131490262Y-94816498D01*
X131490259Y-94816510D01*
X131459498Y-94971153D01*
X131459498Y-95128846D01*
X131490259Y-95283489D01*
X131490262Y-95283501D01*
X131550600Y-95429172D01*
X131550607Y-95429185D01*
X131638208Y-95560288D01*
X131638211Y-95560292D01*
X131749705Y-95671786D01*
X131749709Y-95671789D01*
X131880812Y-95759390D01*
X131880825Y-95759397D01*
X132026496Y-95819735D01*
X132026501Y-95819737D01*
X132084603Y-95831294D01*
X132109692Y-95836285D01*
X132171603Y-95868669D01*
X132206177Y-95929385D01*
X132209501Y-95957902D01*
X132209501Y-96307876D01*
X132215908Y-96367483D01*
X132266202Y-96502328D01*
X132266206Y-96502335D01*
X132352452Y-96617544D01*
X132352455Y-96617547D01*
X132467664Y-96703793D01*
X132467671Y-96703797D01*
X132602517Y-96754091D01*
X132602516Y-96754091D01*
X132609444Y-96754835D01*
X132662127Y-96760500D01*
X134457872Y-96760499D01*
X134517483Y-96754091D01*
X134652331Y-96703796D01*
X134723081Y-96650832D01*
X134788540Y-96626416D01*
X134856814Y-96641267D01*
X134906220Y-96690671D01*
X134919862Y-96730702D01*
X134947085Y-96902584D01*
X135000591Y-97067257D01*
X135079195Y-97221523D01*
X135079196Y-97221525D01*
X135113463Y-97268691D01*
X135113464Y-97268691D01*
X135551980Y-96830176D01*
X135554075Y-96837993D01*
X135619901Y-96952007D01*
X135712993Y-97045099D01*
X135827007Y-97110925D01*
X135834822Y-97113019D01*
X135396307Y-97551534D01*
X135443478Y-97585805D01*
X135597742Y-97664408D01*
X135762415Y-97717914D01*
X135933429Y-97745000D01*
X136106571Y-97745000D01*
X136277584Y-97717914D01*
X136442257Y-97664408D01*
X136596525Y-97585803D01*
X136643691Y-97551534D01*
X136643692Y-97551533D01*
X136205178Y-97113019D01*
X136212993Y-97110925D01*
X136327007Y-97045099D01*
X136420099Y-96952007D01*
X136485925Y-96837993D01*
X136488019Y-96830177D01*
X136926533Y-97268692D01*
X136926534Y-97268691D01*
X136960803Y-97221525D01*
X137039410Y-97067252D01*
X137040934Y-97063573D01*
X137084769Y-97009165D01*
X137151060Y-96987093D01*
X137218762Y-97004364D01*
X137266378Y-97055496D01*
X137279500Y-97111013D01*
X137279500Y-104338059D01*
X137259815Y-104405098D01*
X137207011Y-104450853D01*
X137137853Y-104460797D01*
X137074297Y-104431772D01*
X137067819Y-104425740D01*
X137030292Y-104388213D01*
X137030288Y-104388210D01*
X136899185Y-104300609D01*
X136899172Y-104300602D01*
X136753501Y-104240264D01*
X136753489Y-104240261D01*
X136598845Y-104209500D01*
X136598842Y-104209500D01*
X136441158Y-104209500D01*
X136441155Y-104209500D01*
X136286510Y-104240261D01*
X136286498Y-104240264D01*
X136140827Y-104300602D01*
X136140814Y-104300609D01*
X136009711Y-104388210D01*
X136009707Y-104388213D01*
X135898213Y-104499707D01*
X135898210Y-104499711D01*
X135810609Y-104630814D01*
X135810606Y-104630821D01*
X135787496Y-104686612D01*
X135743654Y-104741015D01*
X135677359Y-104763079D01*
X135625483Y-104753719D01*
X135508501Y-104705264D01*
X135508489Y-104705261D01*
X135353845Y-104674500D01*
X135353842Y-104674500D01*
X135196158Y-104674500D01*
X135196155Y-104674500D01*
X135041510Y-104705261D01*
X135041498Y-104705264D01*
X134895827Y-104765602D01*
X134895814Y-104765609D01*
X134764711Y-104853210D01*
X134764707Y-104853213D01*
X134653213Y-104964707D01*
X134653210Y-104964711D01*
X134565609Y-105095814D01*
X134565602Y-105095827D01*
X134505264Y-105241498D01*
X134505261Y-105241510D01*
X134474500Y-105396153D01*
X134474500Y-105553846D01*
X134505261Y-105708489D01*
X134505264Y-105708501D01*
X134565602Y-105854172D01*
X134565609Y-105854185D01*
X134653210Y-105985288D01*
X134653213Y-105985292D01*
X134764707Y-106096786D01*
X134764711Y-106096789D01*
X134895814Y-106184390D01*
X134895827Y-106184397D01*
X135041498Y-106244735D01*
X135041503Y-106244737D01*
X135196153Y-106275499D01*
X135196156Y-106275500D01*
X135196158Y-106275500D01*
X135353844Y-106275500D01*
X135353845Y-106275499D01*
X135508497Y-106244737D01*
X135654179Y-106184394D01*
X135785289Y-106096789D01*
X135896789Y-105985289D01*
X135984394Y-105854179D01*
X136007502Y-105798388D01*
X136051341Y-105743986D01*
X136117634Y-105721920D01*
X136169515Y-105731280D01*
X136286498Y-105779735D01*
X136286503Y-105779737D01*
X136441153Y-105810499D01*
X136441156Y-105810500D01*
X136441158Y-105810500D01*
X136598844Y-105810500D01*
X136598845Y-105810499D01*
X136753497Y-105779737D01*
X136899179Y-105719394D01*
X137030289Y-105631789D01*
X137030292Y-105631786D01*
X137067819Y-105594260D01*
X137129142Y-105560775D01*
X137198834Y-105565759D01*
X137254767Y-105607631D01*
X137279184Y-105673095D01*
X137279500Y-105681941D01*
X137279500Y-110783986D01*
X137259815Y-110851025D01*
X137207011Y-110896780D01*
X137137853Y-110906724D01*
X137074297Y-110877699D01*
X137040936Y-110831431D01*
X137039411Y-110827749D01*
X136960805Y-110673478D01*
X136926534Y-110626307D01*
X136488019Y-111064822D01*
X136485925Y-111057007D01*
X136420099Y-110942993D01*
X136327007Y-110849901D01*
X136212993Y-110784075D01*
X136205176Y-110781980D01*
X136643691Y-110343464D01*
X136643691Y-110343463D01*
X136596525Y-110309196D01*
X136596523Y-110309195D01*
X136442257Y-110230591D01*
X136277584Y-110177085D01*
X136106571Y-110150000D01*
X135933429Y-110150000D01*
X135762415Y-110177085D01*
X135597740Y-110230592D01*
X135443475Y-110309196D01*
X135396307Y-110343463D01*
X135396307Y-110343464D01*
X135834823Y-110781980D01*
X135827007Y-110784075D01*
X135712993Y-110849901D01*
X135619901Y-110942993D01*
X135554075Y-111057007D01*
X135551980Y-111064823D01*
X135113464Y-110626307D01*
X135113463Y-110626307D01*
X135079196Y-110673475D01*
X135000590Y-110827743D01*
X135000590Y-110827744D01*
X134999623Y-110830722D01*
X134998950Y-110831705D01*
X134998729Y-110832240D01*
X134998616Y-110832193D01*
X134960182Y-110888394D01*
X134895821Y-110915588D01*
X134826976Y-110903668D01*
X134775503Y-110856421D01*
X134763766Y-110830719D01*
X134731557Y-110731588D01*
X134635051Y-110542184D01*
X134510104Y-110370208D01*
X134359792Y-110219896D01*
X134359786Y-110219890D01*
X134187820Y-110094951D01*
X133998414Y-109998444D01*
X133998413Y-109998443D01*
X133998412Y-109998443D01*
X133796243Y-109932754D01*
X133796241Y-109932753D01*
X133796240Y-109932753D01*
X133634957Y-109907208D01*
X133586287Y-109899500D01*
X133373713Y-109899500D01*
X133318100Y-109908308D01*
X133260622Y-109917411D01*
X133260611Y-109917413D01*
X133163757Y-109932754D01*
X133038652Y-109973403D01*
X133038645Y-109973405D01*
X132961585Y-109998444D01*
X132772179Y-110094951D01*
X132600213Y-110219890D01*
X132449890Y-110370213D01*
X132324949Y-110542182D01*
X132320484Y-110550946D01*
X132272509Y-110601742D01*
X132204688Y-110618536D01*
X132138553Y-110595998D01*
X132099516Y-110550946D01*
X132095050Y-110542182D01*
X131970109Y-110370213D01*
X131819786Y-110219890D01*
X131647820Y-110094951D01*
X131458414Y-109998444D01*
X131458413Y-109998443D01*
X131458412Y-109998443D01*
X131256243Y-109932754D01*
X131256241Y-109932753D01*
X131256240Y-109932753D01*
X131094957Y-109907208D01*
X131046287Y-109899500D01*
X130833713Y-109899500D01*
X130785042Y-109907208D01*
X130623760Y-109932753D01*
X130421585Y-109998444D01*
X130232179Y-110094951D01*
X130060213Y-110219890D01*
X129909890Y-110370213D01*
X129784949Y-110542182D01*
X129780484Y-110550946D01*
X129732509Y-110601742D01*
X129664688Y-110618536D01*
X129598553Y-110595998D01*
X129559516Y-110550946D01*
X129555050Y-110542182D01*
X129430109Y-110370213D01*
X129279786Y-110219890D01*
X129107820Y-110094951D01*
X128918414Y-109998444D01*
X128918413Y-109998443D01*
X128918412Y-109998443D01*
X128899907Y-109992430D01*
X128842232Y-109952994D01*
X128815034Y-109888635D01*
X128826949Y-109819789D01*
X128874193Y-109768313D01*
X128938226Y-109750500D01*
X129146286Y-109750500D01*
X129146287Y-109750500D01*
X129356243Y-109717246D01*
X129558412Y-109651557D01*
X129747816Y-109555051D01*
X129834138Y-109492335D01*
X129919786Y-109430109D01*
X129919788Y-109430106D01*
X129919792Y-109430104D01*
X130070104Y-109279792D01*
X130070106Y-109279788D01*
X130070109Y-109279786D01*
X130195048Y-109107820D01*
X130195047Y-109107820D01*
X130195051Y-109107816D01*
X130282754Y-108935686D01*
X130302072Y-108915233D01*
X130318929Y-108892716D01*
X130325736Y-108890176D01*
X130330728Y-108884892D01*
X130358039Y-108878128D01*
X130384394Y-108868299D01*
X130391495Y-108869843D01*
X130398549Y-108868097D01*
X130425176Y-108877170D01*
X130452666Y-108883151D01*
X130460972Y-108889369D01*
X130464684Y-108890634D01*
X130480914Y-108904296D01*
X130585458Y-109008840D01*
X130585459Y-109008841D01*
X130653043Y-109053999D01*
X130749326Y-109118333D01*
X130855985Y-109162512D01*
X130931404Y-109193752D01*
X131124694Y-109232200D01*
X131124697Y-109232201D01*
X131124699Y-109232201D01*
X131321780Y-109232201D01*
X131632138Y-109232201D01*
X131699177Y-109251886D01*
X131725725Y-109276947D01*
X131726732Y-109276087D01*
X131729898Y-109279794D01*
X131880213Y-109430109D01*
X132052179Y-109555048D01*
X132052181Y-109555049D01*
X132052184Y-109555051D01*
X132241588Y-109651557D01*
X132443757Y-109717246D01*
X132653713Y-109750500D01*
X132653714Y-109750500D01*
X132866286Y-109750500D01*
X132866287Y-109750500D01*
X133076243Y-109717246D01*
X133278412Y-109651557D01*
X133467816Y-109555051D01*
X133639792Y-109430104D01*
X133753329Y-109316566D01*
X133814648Y-109283084D01*
X133884340Y-109288068D01*
X133940274Y-109329939D01*
X133957189Y-109360917D01*
X134006202Y-109492328D01*
X134006206Y-109492335D01*
X134092452Y-109607544D01*
X134092455Y-109607547D01*
X134207664Y-109693793D01*
X134207671Y-109693797D01*
X134342517Y-109744091D01*
X134342516Y-109744091D01*
X134349444Y-109744835D01*
X134402127Y-109750500D01*
X136197872Y-109750499D01*
X136257483Y-109744091D01*
X136392331Y-109693796D01*
X136507546Y-109607546D01*
X136593796Y-109492331D01*
X136644091Y-109357483D01*
X136650500Y-109297873D01*
X136650499Y-107502128D01*
X136644091Y-107442517D01*
X136642810Y-107439083D01*
X136593797Y-107307671D01*
X136593793Y-107307664D01*
X136507547Y-107192455D01*
X136507544Y-107192452D01*
X136392335Y-107106206D01*
X136392328Y-107106202D01*
X136257482Y-107055908D01*
X136257483Y-107055908D01*
X136197883Y-107049501D01*
X136197881Y-107049500D01*
X136197873Y-107049500D01*
X136197864Y-107049500D01*
X134402129Y-107049500D01*
X134402123Y-107049501D01*
X134342516Y-107055908D01*
X134207671Y-107106202D01*
X134207664Y-107106206D01*
X134092455Y-107192452D01*
X134092452Y-107192455D01*
X134006206Y-107307664D01*
X134006203Y-107307669D01*
X133957189Y-107439083D01*
X133915317Y-107495016D01*
X133849853Y-107519433D01*
X133781580Y-107504581D01*
X133753326Y-107483430D01*
X133639786Y-107369890D01*
X133467820Y-107244951D01*
X133278414Y-107148444D01*
X133278413Y-107148443D01*
X133278412Y-107148443D01*
X133076243Y-107082754D01*
X133076241Y-107082753D01*
X133076240Y-107082753D01*
X132914957Y-107057208D01*
X132866287Y-107049500D01*
X132653713Y-107049500D01*
X132605042Y-107057208D01*
X132443760Y-107082753D01*
X132241585Y-107148444D01*
X132105691Y-107217686D01*
X132049396Y-107231201D01*
X131689023Y-107231201D01*
X131621984Y-107211516D01*
X131601342Y-107194882D01*
X129486819Y-105080359D01*
X129453334Y-105019036D01*
X129450500Y-104992678D01*
X129450500Y-104724995D01*
X129450499Y-104724982D01*
X129448484Y-104705263D01*
X129439999Y-104622202D01*
X129384814Y-104455665D01*
X129292712Y-104306344D01*
X129168656Y-104182288D01*
X129168652Y-104182285D01*
X129101847Y-104141079D01*
X129055122Y-104089131D01*
X129043901Y-104020169D01*
X129045323Y-104011369D01*
X129075570Y-103859312D01*
X129075570Y-103740518D01*
X134164822Y-103740518D01*
X134284176Y-103772500D01*
X134415824Y-103772500D01*
X134535175Y-103740518D01*
X134350000Y-103555342D01*
X134164822Y-103740518D01*
X129075570Y-103740518D01*
X129075570Y-103701628D01*
X129062413Y-103635488D01*
X129062113Y-103633697D01*
X129066054Y-103600779D01*
X129069009Y-103567757D01*
X129070191Y-103566235D01*
X129070420Y-103564323D01*
X129091541Y-103538750D01*
X129111872Y-103512579D01*
X129114887Y-103510484D01*
X129114914Y-103510453D01*
X129114950Y-103510441D01*
X129115459Y-103510088D01*
X129195264Y-103456764D01*
X129306764Y-103345264D01*
X129394369Y-103214154D01*
X129397467Y-103206674D01*
X133850000Y-103206674D01*
X133850000Y-103338323D01*
X133881980Y-103457674D01*
X134067156Y-103272499D01*
X134047266Y-103252609D01*
X134250000Y-103252609D01*
X134250000Y-103292391D01*
X134265224Y-103329145D01*
X134293355Y-103357276D01*
X134330109Y-103372500D01*
X134369891Y-103372500D01*
X134406645Y-103357276D01*
X134434776Y-103329145D01*
X134450000Y-103292391D01*
X134450000Y-103272499D01*
X134632842Y-103272499D01*
X134818018Y-103457675D01*
X134850000Y-103338324D01*
X134850000Y-103206675D01*
X134818018Y-103087322D01*
X134632842Y-103272499D01*
X134450000Y-103272499D01*
X134450000Y-103252609D01*
X134434776Y-103215855D01*
X134406645Y-103187724D01*
X134369891Y-103172500D01*
X134330109Y-103172500D01*
X134293355Y-103187724D01*
X134265224Y-103215855D01*
X134250000Y-103252609D01*
X134047266Y-103252609D01*
X133881979Y-103087322D01*
X133850000Y-103206674D01*
X129397467Y-103206674D01*
X129454712Y-103068472D01*
X129485475Y-102913817D01*
X129485475Y-102804479D01*
X134164822Y-102804479D01*
X134349999Y-102989656D01*
X134535174Y-102804480D01*
X134415823Y-102772500D01*
X134284174Y-102772500D01*
X134164822Y-102804479D01*
X129485475Y-102804479D01*
X129485475Y-102756133D01*
X129485475Y-102756130D01*
X129485474Y-102756128D01*
X129480732Y-102732288D01*
X129454712Y-102601478D01*
X129443538Y-102574501D01*
X129394372Y-102455802D01*
X129394365Y-102455789D01*
X129306764Y-102324686D01*
X129306761Y-102324682D01*
X129195267Y-102213188D01*
X129195263Y-102213185D01*
X129064160Y-102125584D01*
X129064147Y-102125577D01*
X128918476Y-102065239D01*
X128918464Y-102065236D01*
X128763820Y-102034475D01*
X128763817Y-102034475D01*
X128606133Y-102034475D01*
X128606130Y-102034475D01*
X128448690Y-102065792D01*
X128427706Y-102063914D01*
X128406852Y-102066913D01*
X128393604Y-102060862D01*
X128379099Y-102059565D01*
X128362460Y-102046640D01*
X128343296Y-102037888D01*
X128335422Y-102025636D01*
X128323921Y-102016702D01*
X128316911Y-101996833D01*
X128305522Y-101979110D01*
X128301987Y-101954526D01*
X128300677Y-101950812D01*
X128300499Y-101944175D01*
X128300499Y-101749500D01*
X128320184Y-101682461D01*
X128372988Y-101636706D01*
X128424499Y-101625500D01*
X128750005Y-101625500D01*
X128750010Y-101625500D01*
X128852798Y-101614999D01*
X129019335Y-101559814D01*
X129168656Y-101467712D01*
X129292712Y-101343656D01*
X129384814Y-101194335D01*
X129439999Y-101027798D01*
X129450500Y-100925010D01*
X129450500Y-100890745D01*
X129470185Y-100823706D01*
X129486814Y-100803069D01*
X130987402Y-99302480D01*
X131048723Y-99268997D01*
X131118415Y-99273981D01*
X131174348Y-99315853D01*
X131189642Y-99342710D01*
X131200604Y-99369176D01*
X131200609Y-99369185D01*
X131288210Y-99500288D01*
X131288213Y-99500292D01*
X131399707Y-99611786D01*
X131399711Y-99611789D01*
X131530814Y-99699390D01*
X131530827Y-99699397D01*
X131660564Y-99753135D01*
X131676503Y-99759737D01*
X131831153Y-99790499D01*
X131831156Y-99790500D01*
X131831158Y-99790500D01*
X131988844Y-99790500D01*
X131988845Y-99790499D01*
X132143497Y-99759737D01*
X132289179Y-99699394D01*
X132420289Y-99611789D01*
X132436632Y-99595446D01*
X133625207Y-99595446D01*
X133625207Y-99753139D01*
X133655968Y-99907782D01*
X133655971Y-99907794D01*
X133716309Y-100053465D01*
X133716316Y-100053478D01*
X133803917Y-100184581D01*
X133803920Y-100184585D01*
X133915414Y-100296079D01*
X133915418Y-100296082D01*
X134046521Y-100383683D01*
X134046534Y-100383690D01*
X134116765Y-100412780D01*
X134192210Y-100444030D01*
X134225804Y-100450712D01*
X134287713Y-100483096D01*
X134322288Y-100543811D01*
X134323229Y-100548137D01*
X134330261Y-100583491D01*
X134330264Y-100583501D01*
X134390602Y-100729172D01*
X134390609Y-100729185D01*
X134478210Y-100860288D01*
X134478213Y-100860292D01*
X134589707Y-100971786D01*
X134589711Y-100971789D01*
X134720814Y-101059390D01*
X134720827Y-101059397D01*
X134866498Y-101119735D01*
X134866503Y-101119737D01*
X135021153Y-101150499D01*
X135021156Y-101150500D01*
X135021158Y-101150500D01*
X135178844Y-101150500D01*
X135178845Y-101150499D01*
X135333497Y-101119737D01*
X135479179Y-101059394D01*
X135610289Y-100971789D01*
X135721789Y-100860289D01*
X135809394Y-100729179D01*
X135869737Y-100583497D01*
X135900500Y-100428842D01*
X135900500Y-100271158D01*
X135900500Y-100271155D01*
X135900499Y-100271153D01*
X135899620Y-100266734D01*
X135869737Y-100116503D01*
X135852906Y-100075868D01*
X135809397Y-99970827D01*
X135809390Y-99970814D01*
X135721789Y-99839711D01*
X135721786Y-99839707D01*
X135610292Y-99728213D01*
X135610288Y-99728210D01*
X135479185Y-99640609D01*
X135479172Y-99640602D01*
X135333501Y-99580264D01*
X135333491Y-99580261D01*
X135299902Y-99573580D01*
X135237991Y-99541195D01*
X135203417Y-99480479D01*
X135202484Y-99476189D01*
X135195444Y-99440796D01*
X135165782Y-99369185D01*
X135135104Y-99295120D01*
X135135097Y-99295107D01*
X135047496Y-99164004D01*
X135047493Y-99164000D01*
X134935999Y-99052506D01*
X134935995Y-99052503D01*
X134804892Y-98964902D01*
X134804879Y-98964895D01*
X134659208Y-98904557D01*
X134659196Y-98904554D01*
X134504552Y-98873793D01*
X134504549Y-98873793D01*
X134346865Y-98873793D01*
X134346862Y-98873793D01*
X134192217Y-98904554D01*
X134192205Y-98904557D01*
X134046534Y-98964895D01*
X134046521Y-98964902D01*
X133915418Y-99052503D01*
X133915414Y-99052506D01*
X133803920Y-99164000D01*
X133803917Y-99164004D01*
X133716316Y-99295107D01*
X133716309Y-99295120D01*
X133655971Y-99440791D01*
X133655968Y-99440803D01*
X133625207Y-99595446D01*
X132436632Y-99595446D01*
X132474662Y-99557416D01*
X132530401Y-99501678D01*
X132531786Y-99500292D01*
X132531789Y-99500289D01*
X132619394Y-99369179D01*
X132679737Y-99223497D01*
X132710500Y-99068842D01*
X132710500Y-98911158D01*
X132710500Y-98911155D01*
X132710499Y-98911153D01*
X132709186Y-98904554D01*
X132679737Y-98756503D01*
X132625263Y-98624990D01*
X132619397Y-98610827D01*
X132619390Y-98610814D01*
X132531789Y-98479711D01*
X132531786Y-98479707D01*
X132420292Y-98368213D01*
X132420288Y-98368210D01*
X132289185Y-98280609D01*
X132289172Y-98280602D01*
X132143501Y-98220264D01*
X132143489Y-98220261D01*
X131988845Y-98189500D01*
X131988842Y-98189500D01*
X131831158Y-98189500D01*
X131831153Y-98189500D01*
X131743075Y-98207020D01*
X131673483Y-98200793D01*
X131618306Y-98157930D01*
X131599906Y-98120336D01*
X131597751Y-98112996D01*
X131519963Y-97991957D01*
X131518431Y-97990189D01*
X131474214Y-97939159D01*
X131474210Y-97939156D01*
X131474208Y-97939153D01*
X131365474Y-97844933D01*
X131365471Y-97844931D01*
X131365469Y-97844930D01*
X131234603Y-97785164D01*
X131234598Y-97785162D01*
X131234597Y-97785162D01*
X131167558Y-97765477D01*
X131167560Y-97765477D01*
X131167555Y-97765476D01*
X131099615Y-97755708D01*
X131025138Y-97745000D01*
X129052350Y-97745000D01*
X129052347Y-97745000D01*
X128960513Y-97755288D01*
X128948908Y-97753247D01*
X128937384Y-97755708D01*
X128915126Y-97747308D01*
X128891698Y-97743189D01*
X128881383Y-97734573D01*
X128872014Y-97731038D01*
X128854360Y-97712003D01*
X128847154Y-97705985D01*
X128842078Y-97699149D01*
X128840117Y-97695558D01*
X128753893Y-97580377D01*
X128753845Y-97580329D01*
X128753843Y-97580326D01*
X127979769Y-96806253D01*
X127979765Y-96806249D01*
X127922991Y-96760498D01*
X127895614Y-96738436D01*
X127895612Y-96738435D01*
X127895605Y-96738429D01*
X127851265Y-96709935D01*
X127754618Y-96661560D01*
X127754613Y-96661558D01*
X127754611Y-96661557D01*
X127661324Y-96641267D01*
X127614015Y-96630977D01*
X127614004Y-96630976D01*
X127544331Y-96625996D01*
X127544326Y-96625996D01*
X127400819Y-96636263D01*
X127266006Y-96686550D01*
X127266003Y-96686551D01*
X127204688Y-96720034D01*
X127132559Y-96774031D01*
X127127138Y-96777867D01*
X127077519Y-96811021D01*
X127056102Y-96822471D01*
X127051679Y-96824304D01*
X127051678Y-96824303D01*
X127051645Y-96824318D01*
X127043148Y-96827837D01*
X127019901Y-96834889D01*
X127014667Y-96835930D01*
X127006191Y-96837616D01*
X126981997Y-96840000D01*
X126461407Y-96840000D01*
X126408455Y-96842783D01*
X126382590Y-96845509D01*
X126330176Y-96853835D01*
X126195166Y-96903553D01*
X126195162Y-96903554D01*
X126133696Y-96936787D01*
X126133694Y-96936788D01*
X126018157Y-97022534D01*
X126018146Y-97022543D01*
X125528457Y-97508184D01*
X125466996Y-97541415D01*
X125397326Y-97536141D01*
X125341566Y-97494038D01*
X125338047Y-97489043D01*
X125321789Y-97464711D01*
X125321787Y-97464708D01*
X125210292Y-97353213D01*
X125210288Y-97353210D01*
X125079185Y-97265609D01*
X125079172Y-97265602D01*
X124933501Y-97205264D01*
X124933489Y-97205261D01*
X124778845Y-97174500D01*
X124778842Y-97174500D01*
X124621158Y-97174500D01*
X124621153Y-97174500D01*
X124490186Y-97200551D01*
X124420594Y-97194324D01*
X124365417Y-97151461D01*
X124342173Y-97085571D01*
X124348064Y-97040615D01*
X124392914Y-96902584D01*
X124420000Y-96731571D01*
X124420000Y-96558428D01*
X124392914Y-96387415D01*
X124339408Y-96222742D01*
X124260805Y-96068478D01*
X124226534Y-96021307D01*
X123788019Y-96459821D01*
X123785925Y-96452007D01*
X123720099Y-96337993D01*
X123627007Y-96244901D01*
X123512993Y-96179075D01*
X123505176Y-96176980D01*
X123943691Y-95738464D01*
X123943691Y-95738463D01*
X123896525Y-95704196D01*
X123896523Y-95704195D01*
X123742256Y-95625591D01*
X123739282Y-95624625D01*
X123738296Y-95623951D01*
X123737760Y-95623729D01*
X123737806Y-95623616D01*
X123717285Y-95609582D01*
X123693416Y-95597735D01*
X123688889Y-95590164D01*
X123681608Y-95585185D01*
X123671235Y-95560639D01*
X123657560Y-95537767D01*
X123657845Y-95528950D01*
X123654412Y-95520826D01*
X123658956Y-95494567D01*
X123659818Y-95467934D01*
X123664823Y-95460672D01*
X123666328Y-95451980D01*
X123684348Y-95432346D01*
X123692064Y-95421153D01*
X127674500Y-95421153D01*
X127674500Y-95578846D01*
X127705261Y-95733489D01*
X127705264Y-95733501D01*
X127765602Y-95879172D01*
X127765609Y-95879185D01*
X127853210Y-96010288D01*
X127853213Y-96010292D01*
X127964707Y-96121786D01*
X127964711Y-96121789D01*
X128095814Y-96209390D01*
X128095827Y-96209397D01*
X128247131Y-96272068D01*
X128246114Y-96274522D01*
X128294930Y-96306510D01*
X128323390Y-96370321D01*
X128324500Y-96386878D01*
X128324500Y-96428846D01*
X128355261Y-96583489D01*
X128355264Y-96583501D01*
X128415602Y-96729172D01*
X128415609Y-96729185D01*
X128503210Y-96860288D01*
X128503213Y-96860292D01*
X128614707Y-96971786D01*
X128614711Y-96971789D01*
X128745814Y-97059390D01*
X128745827Y-97059397D01*
X128870441Y-97111013D01*
X128891503Y-97119737D01*
X128986664Y-97138665D01*
X129007467Y-97142804D01*
X129035893Y-97153547D01*
X129036355Y-97152537D01*
X129041892Y-97155066D01*
X129041894Y-97155067D01*
X129172771Y-97214838D01*
X129239810Y-97234523D01*
X129239814Y-97234524D01*
X129382230Y-97255000D01*
X129382233Y-97255000D01*
X131325157Y-97255000D01*
X131343139Y-97254679D01*
X131343149Y-97254678D01*
X131343184Y-97254678D01*
X131352030Y-97254362D01*
X131370047Y-97253396D01*
X131510639Y-97222812D01*
X131576103Y-97198395D01*
X131702378Y-97129444D01*
X131804118Y-97027707D01*
X131845990Y-96971774D01*
X131845996Y-96971766D01*
X131914949Y-96845485D01*
X131945532Y-96704893D01*
X131950516Y-96635201D01*
X131940252Y-96491690D01*
X131889970Y-96356881D01*
X131856485Y-96295558D01*
X131770261Y-96180377D01*
X131770256Y-96180372D01*
X131770251Y-96180366D01*
X130318776Y-94728892D01*
X130318761Y-94728877D01*
X130318737Y-94728855D01*
X130278519Y-94692728D01*
X130278507Y-94692718D01*
X130257856Y-94676076D01*
X130213974Y-94644433D01*
X130083100Y-94584663D01*
X130016055Y-94564976D01*
X129968582Y-94558150D01*
X129873638Y-94544500D01*
X129340638Y-94544500D01*
X129340621Y-94544500D01*
X129277626Y-94548442D01*
X129246982Y-94552292D01*
X129246976Y-94552293D01*
X129246969Y-94552294D01*
X129202922Y-94560647D01*
X129184967Y-94564052D01*
X129052035Y-94619111D01*
X128991948Y-94654761D01*
X128988012Y-94657819D01*
X128986773Y-94658933D01*
X128891115Y-94736015D01*
X128826563Y-94762751D01*
X128765860Y-94754023D01*
X128759807Y-94751515D01*
X128708497Y-94730263D01*
X128708493Y-94730262D01*
X128708488Y-94730260D01*
X128553845Y-94699500D01*
X128553842Y-94699500D01*
X128396158Y-94699500D01*
X128396155Y-94699500D01*
X128241510Y-94730261D01*
X128241498Y-94730264D01*
X128095827Y-94790602D01*
X128095814Y-94790609D01*
X127964711Y-94878210D01*
X127964707Y-94878213D01*
X127853213Y-94989707D01*
X127853210Y-94989711D01*
X127765609Y-95120814D01*
X127765602Y-95120827D01*
X127705264Y-95266498D01*
X127705261Y-95266510D01*
X127674500Y-95421153D01*
X123692064Y-95421153D01*
X123699472Y-95410407D01*
X123709479Y-95404967D01*
X123713574Y-95400506D01*
X123729764Y-95392295D01*
X123734438Y-95390340D01*
X123838412Y-95356557D01*
X124027816Y-95260051D01*
X124124371Y-95189899D01*
X124199786Y-95135109D01*
X124199788Y-95135106D01*
X124199792Y-95135104D01*
X124350104Y-94984792D01*
X124350106Y-94984788D01*
X124350109Y-94984786D01*
X124475048Y-94812820D01*
X124475047Y-94812820D01*
X124475051Y-94812816D01*
X124571557Y-94623412D01*
X124637246Y-94421243D01*
X124645817Y-94367121D01*
X124675745Y-94303991D01*
X124735056Y-94267059D01*
X124792481Y-94264905D01*
X124921153Y-94290499D01*
X124921156Y-94290500D01*
X124921158Y-94290500D01*
X125078844Y-94290500D01*
X125078845Y-94290499D01*
X125233497Y-94259737D01*
X125360428Y-94207161D01*
X125379172Y-94199397D01*
X125379172Y-94199396D01*
X125379179Y-94199394D01*
X125510289Y-94111789D01*
X125621789Y-94000289D01*
X125709394Y-93869179D01*
X125769737Y-93723497D01*
X125800500Y-93568842D01*
X125800500Y-93411158D01*
X125800500Y-93411155D01*
X125800499Y-93411153D01*
X125795976Y-93388414D01*
X125769737Y-93256503D01*
X125756774Y-93225208D01*
X125709397Y-93110827D01*
X125709390Y-93110814D01*
X125621789Y-92979711D01*
X125621786Y-92979707D01*
X125510292Y-92868213D01*
X125510288Y-92868210D01*
X125379185Y-92780609D01*
X125379172Y-92780602D01*
X125233501Y-92720264D01*
X125233489Y-92720261D01*
X125078845Y-92689500D01*
X125078842Y-92689500D01*
X124921158Y-92689500D01*
X124921155Y-92689500D01*
X124766510Y-92720261D01*
X124766498Y-92720264D01*
X124620827Y-92780602D01*
X124620814Y-92780609D01*
X124489711Y-92868210D01*
X124489707Y-92868213D01*
X124378213Y-92979707D01*
X124378210Y-92979711D01*
X124348737Y-93023821D01*
X124340620Y-93030604D01*
X124335822Y-93040032D01*
X124314271Y-93052623D01*
X124295124Y-93068626D01*
X124284629Y-93069944D01*
X124275496Y-93075281D01*
X124250560Y-93074222D01*
X124225799Y-93077333D01*
X124214408Y-93072688D01*
X124205689Y-93072319D01*
X124176883Y-93057390D01*
X124174234Y-93056310D01*
X124173462Y-93055766D01*
X124027816Y-92949949D01*
X124011175Y-92941470D01*
X124003948Y-92936380D01*
X123987490Y-92915674D01*
X123968259Y-92897512D01*
X123966088Y-92888749D01*
X123960473Y-92881684D01*
X123957821Y-92855366D01*
X123951463Y-92829692D01*
X123954373Y-92821149D01*
X123953469Y-92812167D01*
X123965467Y-92788592D01*
X123973999Y-92763556D01*
X123981533Y-92757027D01*
X123985162Y-92749898D01*
X123999284Y-92741646D01*
X124019054Y-92724515D01*
X124027816Y-92720051D01*
X124069866Y-92689500D01*
X124199786Y-92595109D01*
X124199788Y-92595106D01*
X124199792Y-92595104D01*
X124314349Y-92480547D01*
X128570156Y-92480547D01*
X128570156Y-92638240D01*
X128600917Y-92792883D01*
X128600920Y-92792895D01*
X128661258Y-92938566D01*
X128661265Y-92938579D01*
X128748866Y-93069682D01*
X128748869Y-93069686D01*
X128860363Y-93181180D01*
X128860367Y-93181183D01*
X128991470Y-93268784D01*
X128991483Y-93268791D01*
X129137154Y-93329129D01*
X129137159Y-93329131D01*
X129291809Y-93359893D01*
X129291812Y-93359894D01*
X129291814Y-93359894D01*
X129449500Y-93359894D01*
X129449501Y-93359893D01*
X129604153Y-93329131D01*
X129735169Y-93274863D01*
X129749828Y-93268791D01*
X129749828Y-93268790D01*
X129749835Y-93268788D01*
X129880945Y-93181183D01*
X129992445Y-93069683D01*
X130080050Y-92938573D01*
X130140393Y-92792891D01*
X130171156Y-92638236D01*
X130171156Y-92480552D01*
X130171156Y-92480549D01*
X130171155Y-92480547D01*
X130154166Y-92395138D01*
X130140393Y-92325897D01*
X130140391Y-92325892D01*
X130080053Y-92180221D01*
X130080046Y-92180208D01*
X129992445Y-92049105D01*
X129992442Y-92049101D01*
X129880948Y-91937607D01*
X129880944Y-91937604D01*
X129749841Y-91850003D01*
X129749828Y-91849996D01*
X129604157Y-91789658D01*
X129604145Y-91789655D01*
X129449501Y-91758894D01*
X129449498Y-91758894D01*
X129291814Y-91758894D01*
X129291811Y-91758894D01*
X129137166Y-91789655D01*
X129137154Y-91789658D01*
X128991483Y-91849996D01*
X128991470Y-91850003D01*
X128860367Y-91937604D01*
X128860363Y-91937607D01*
X128748869Y-92049101D01*
X128748866Y-92049105D01*
X128661265Y-92180208D01*
X128661258Y-92180221D01*
X128600920Y-92325892D01*
X128600917Y-92325904D01*
X128570156Y-92480547D01*
X124314349Y-92480547D01*
X124350104Y-92444792D01*
X124366835Y-92421764D01*
X124381501Y-92401578D01*
X124381503Y-92401575D01*
X124404156Y-92370394D01*
X124475051Y-92272816D01*
X124571557Y-92083412D01*
X124637246Y-91881243D01*
X124670500Y-91671287D01*
X124670500Y-91458713D01*
X124637246Y-91248757D01*
X124571557Y-91046588D01*
X124475051Y-90857184D01*
X124475049Y-90857181D01*
X124475048Y-90857179D01*
X124350109Y-90685213D01*
X124199786Y-90534890D01*
X124027820Y-90409951D01*
X124027115Y-90409591D01*
X124019054Y-90405485D01*
X123968259Y-90357512D01*
X123951463Y-90289692D01*
X123973999Y-90223556D01*
X124019054Y-90184515D01*
X124027816Y-90180051D01*
X124100327Y-90127369D01*
X124199786Y-90055109D01*
X124199788Y-90055106D01*
X124199792Y-90055104D01*
X124350104Y-89904792D01*
X124350106Y-89904788D01*
X124350109Y-89904786D01*
X124475048Y-89732820D01*
X124475047Y-89732820D01*
X124475051Y-89732816D01*
X124571557Y-89543412D01*
X124637246Y-89341243D01*
X124670500Y-89131287D01*
X124670500Y-88918713D01*
X124637246Y-88708757D01*
X124571557Y-88506588D01*
X124475051Y-88317184D01*
X124475049Y-88317181D01*
X124475048Y-88317179D01*
X124350109Y-88145213D01*
X124236569Y-88031673D01*
X124203084Y-87970350D01*
X124208068Y-87900658D01*
X124249940Y-87844725D01*
X124280915Y-87827810D01*
X124412331Y-87778796D01*
X124527546Y-87692546D01*
X124613796Y-87577331D01*
X124664091Y-87442483D01*
X124670500Y-87382873D01*
X124670499Y-86247228D01*
X124690184Y-86180190D01*
X124706813Y-86159553D01*
X125079548Y-85786819D01*
X125106475Y-85772115D01*
X125132294Y-85755523D01*
X125138494Y-85754631D01*
X125140871Y-85753334D01*
X125167229Y-85750500D01*
X125318059Y-85750500D01*
X125385098Y-85770185D01*
G37*
G04 #@! TD.AperFunction*
G04 #@! TA.AperFunction,Conductor*
G36*
X126056522Y-106251103D02*
G01*
X126076915Y-106264209D01*
X126081339Y-106267707D01*
X126081344Y-106267712D01*
X126230665Y-106359814D01*
X126397202Y-106414999D01*
X126499990Y-106425500D01*
X126500500Y-106425500D01*
X126500605Y-106425531D01*
X126503138Y-106425660D01*
X126503129Y-106425820D01*
X126503131Y-106425821D01*
X126503128Y-106425844D01*
X126503107Y-106426265D01*
X126509185Y-106428050D01*
X126518147Y-106426762D01*
X126542187Y-106437740D01*
X126567539Y-106445185D01*
X126573466Y-106452025D01*
X126581703Y-106455787D01*
X126595992Y-106478021D01*
X126613294Y-106497989D01*
X126615581Y-106508503D01*
X126619477Y-106514565D01*
X126624500Y-106549500D01*
X126624500Y-106769218D01*
X126604815Y-106836257D01*
X126588185Y-106856894D01*
X126424420Y-107020660D01*
X126363097Y-107054144D01*
X126356137Y-107055451D01*
X126183760Y-107082753D01*
X125981585Y-107148444D01*
X125792179Y-107244951D01*
X125620215Y-107369889D01*
X125506673Y-107483431D01*
X125445350Y-107516915D01*
X125375658Y-107511931D01*
X125319725Y-107470059D01*
X125302810Y-107439082D01*
X125253797Y-107307671D01*
X125253793Y-107307664D01*
X125167547Y-107192455D01*
X125167544Y-107192452D01*
X125052335Y-107106206D01*
X125052328Y-107106202D01*
X124917482Y-107055908D01*
X124917483Y-107055908D01*
X124857883Y-107049501D01*
X124857881Y-107049500D01*
X124857873Y-107049500D01*
X124857864Y-107049500D01*
X123062129Y-107049500D01*
X123062123Y-107049501D01*
X123002516Y-107055908D01*
X122867671Y-107106202D01*
X122867664Y-107106206D01*
X122752455Y-107192452D01*
X122752452Y-107192455D01*
X122666206Y-107307664D01*
X122666202Y-107307671D01*
X122615908Y-107442517D01*
X122609501Y-107502116D01*
X122609501Y-107502123D01*
X122609500Y-107502135D01*
X122609500Y-109297870D01*
X122609501Y-109297876D01*
X122615908Y-109357483D01*
X122666202Y-109492328D01*
X122666206Y-109492335D01*
X122752452Y-109607544D01*
X122752455Y-109607547D01*
X122867664Y-109693793D01*
X122867671Y-109693797D01*
X122876275Y-109697006D01*
X123002517Y-109744091D01*
X123062127Y-109750500D01*
X123784216Y-109750499D01*
X123813662Y-109759145D01*
X123843643Y-109765667D01*
X123848656Y-109769420D01*
X123851255Y-109770183D01*
X123871896Y-109786816D01*
X124023400Y-109938320D01*
X124056884Y-109999642D01*
X124051900Y-110069333D01*
X124010029Y-110125267D01*
X123944564Y-110149684D01*
X123935718Y-110150000D01*
X123520000Y-110150000D01*
X123520000Y-110788120D01*
X123512993Y-110784075D01*
X123385826Y-110750000D01*
X123254174Y-110750000D01*
X123127007Y-110784075D01*
X123120000Y-110788120D01*
X123120000Y-110150000D01*
X122445373Y-110150000D01*
X122372459Y-110164503D01*
X122372455Y-110164505D01*
X122289760Y-110219760D01*
X122287602Y-110222990D01*
X122233989Y-110267795D01*
X122164664Y-110276502D01*
X122101637Y-110246347D01*
X122064918Y-110186904D01*
X122060500Y-110154099D01*
X122060500Y-106446189D01*
X122080185Y-106379150D01*
X122132989Y-106333395D01*
X122202147Y-106323451D01*
X122249595Y-106340649D01*
X122280665Y-106359814D01*
X122447202Y-106414999D01*
X122549990Y-106425500D01*
X122549995Y-106425500D01*
X125500005Y-106425500D01*
X125500010Y-106425500D01*
X125602798Y-106414999D01*
X125769335Y-106359814D01*
X125918656Y-106267712D01*
X125918664Y-106267703D01*
X125923085Y-106264209D01*
X125987879Y-106238066D01*
X126056522Y-106251103D01*
G37*
G04 #@! TD.AperFunction*
G04 #@! TA.AperFunction,Conductor*
G36*
X122854075Y-96837993D02*
G01*
X122919901Y-96952007D01*
X123012993Y-97045099D01*
X123127007Y-97110925D01*
X123134821Y-97113019D01*
X122696307Y-97551534D01*
X122743478Y-97585805D01*
X122897744Y-97664408D01*
X122953635Y-97682569D01*
X123011311Y-97722007D01*
X123038509Y-97786365D01*
X123026594Y-97855212D01*
X122979350Y-97906687D01*
X122915317Y-97924500D01*
X122549982Y-97924500D01*
X122447203Y-97935000D01*
X122447202Y-97935001D01*
X122392209Y-97953224D01*
X122280667Y-97990185D01*
X122280658Y-97990189D01*
X122249596Y-98009349D01*
X122182203Y-98027789D01*
X122115540Y-98006866D01*
X122070771Y-97953224D01*
X122060500Y-97903810D01*
X122060500Y-97111013D01*
X122080185Y-97043974D01*
X122132989Y-96998219D01*
X122202147Y-96988275D01*
X122265703Y-97017300D01*
X122299066Y-97063573D01*
X122300589Y-97067252D01*
X122379195Y-97221523D01*
X122379196Y-97221525D01*
X122413463Y-97268691D01*
X122413464Y-97268691D01*
X122851980Y-96830176D01*
X122854075Y-96837993D01*
G37*
G04 #@! TD.AperFunction*
G04 #@! TA.AperFunction,Conductor*
G36*
X122265703Y-94956976D02*
G01*
X122284819Y-94977804D01*
X122289896Y-94984792D01*
X122440213Y-95135109D01*
X122612179Y-95260048D01*
X122612181Y-95260049D01*
X122612184Y-95260051D01*
X122801588Y-95356557D01*
X122900715Y-95388765D01*
X122958388Y-95428201D01*
X122985587Y-95492560D01*
X122973673Y-95561406D01*
X122926429Y-95612882D01*
X122900722Y-95624623D01*
X122897744Y-95625590D01*
X122897743Y-95625590D01*
X122743475Y-95704196D01*
X122696307Y-95738463D01*
X122696307Y-95738464D01*
X123134823Y-96176980D01*
X123127007Y-96179075D01*
X123012993Y-96244901D01*
X122919901Y-96337993D01*
X122854075Y-96452007D01*
X122851980Y-96459823D01*
X122413464Y-96021307D01*
X122413463Y-96021307D01*
X122379196Y-96068475D01*
X122300590Y-96222744D01*
X122299064Y-96226431D01*
X122255227Y-96280837D01*
X122188934Y-96302907D01*
X122121234Y-96285632D01*
X122073620Y-96234498D01*
X122060500Y-96178986D01*
X122060500Y-95050689D01*
X122080185Y-94983650D01*
X122132989Y-94937895D01*
X122202147Y-94927951D01*
X122265703Y-94956976D01*
G37*
G04 #@! TD.AperFunction*
G04 #@! TA.AperFunction,Conductor*
G36*
X135115702Y-95111044D02*
G01*
X135122180Y-95117076D01*
X135140213Y-95135109D01*
X135312179Y-95260048D01*
X135312181Y-95260049D01*
X135312184Y-95260051D01*
X135501588Y-95356557D01*
X135600715Y-95388765D01*
X135658388Y-95428201D01*
X135685587Y-95492560D01*
X135673673Y-95561406D01*
X135626429Y-95612882D01*
X135600722Y-95624623D01*
X135597744Y-95625590D01*
X135597743Y-95625590D01*
X135443475Y-95704196D01*
X135396307Y-95738463D01*
X135396307Y-95738464D01*
X135834823Y-96176980D01*
X135827007Y-96179075D01*
X135712993Y-96244901D01*
X135619901Y-96337993D01*
X135554075Y-96452007D01*
X135551980Y-96459823D01*
X135113464Y-96021307D01*
X135094791Y-96022777D01*
X135079485Y-96034580D01*
X135009871Y-96040558D01*
X134948077Y-96007950D01*
X134913721Y-95947111D01*
X134910499Y-95919034D01*
X134910499Y-95204756D01*
X134930184Y-95137718D01*
X134982988Y-95091963D01*
X135052146Y-95082019D01*
X135115702Y-95111044D01*
G37*
G04 #@! TD.AperFunction*
G04 #@! TA.AperFunction,Conductor*
G36*
X137241920Y-94961764D02*
G01*
X137276277Y-95022603D01*
X137279500Y-95050689D01*
X137279500Y-96178986D01*
X137259815Y-96246025D01*
X137207011Y-96291780D01*
X137137853Y-96301724D01*
X137074297Y-96272699D01*
X137040936Y-96226431D01*
X137039411Y-96222749D01*
X136960805Y-96068478D01*
X136926534Y-96021307D01*
X136488019Y-96459822D01*
X136485925Y-96452007D01*
X136420099Y-96337993D01*
X136327007Y-96244901D01*
X136212993Y-96179075D01*
X136205176Y-96176980D01*
X136643691Y-95738464D01*
X136643691Y-95738463D01*
X136596525Y-95704196D01*
X136596523Y-95704195D01*
X136442256Y-95625591D01*
X136439282Y-95624625D01*
X136438296Y-95623951D01*
X136437760Y-95623729D01*
X136437806Y-95623616D01*
X136381608Y-95585185D01*
X136354412Y-95520826D01*
X136366328Y-95451980D01*
X136413574Y-95400506D01*
X136439280Y-95388766D01*
X136538412Y-95356557D01*
X136727816Y-95260051D01*
X136749789Y-95244086D01*
X136899786Y-95135109D01*
X136899788Y-95135106D01*
X136899792Y-95135104D01*
X137050104Y-94984792D01*
X137055181Y-94977803D01*
X137110511Y-94935138D01*
X137180124Y-94929159D01*
X137241920Y-94961764D01*
G37*
G04 #@! TD.AperFunction*
G04 #@! TA.AperFunction,Conductor*
G36*
X123392268Y-66755185D02*
G01*
X123438023Y-66807989D01*
X123447967Y-66877147D01*
X123418942Y-66940703D01*
X123381524Y-66969985D01*
X123226191Y-67049130D01*
X123135338Y-67115139D01*
X123066951Y-67164826D01*
X123066949Y-67164828D01*
X123066948Y-67164828D01*
X122927771Y-67304005D01*
X122927771Y-67304006D01*
X122927769Y-67304008D01*
X122878082Y-67372395D01*
X122812073Y-67463248D01*
X122722714Y-67638624D01*
X122661887Y-67825827D01*
X122631097Y-68020231D01*
X122631097Y-68217076D01*
X122661887Y-68411480D01*
X122722714Y-68598683D01*
X122812073Y-68774059D01*
X122927769Y-68933300D01*
X123066951Y-69072482D01*
X123117278Y-69109047D01*
X123132563Y-69120152D01*
X123175228Y-69175483D01*
X123181207Y-69245096D01*
X123148601Y-69306891D01*
X123132563Y-69320787D01*
X123082239Y-69357350D01*
X123082230Y-69357357D01*
X122943053Y-69496534D01*
X122943053Y-69496535D01*
X122943051Y-69496537D01*
X122906735Y-69546522D01*
X122827355Y-69655777D01*
X122737996Y-69831153D01*
X122677169Y-70018356D01*
X122646379Y-70212760D01*
X122646379Y-70409605D01*
X122677169Y-70604009D01*
X122737996Y-70791212D01*
X122827355Y-70966588D01*
X122943051Y-71125829D01*
X123082233Y-71265011D01*
X123241474Y-71380707D01*
X123320854Y-71421153D01*
X123416849Y-71470065D01*
X123416851Y-71470065D01*
X123416854Y-71470067D01*
X123517196Y-71502670D01*
X123604052Y-71530892D01*
X123798457Y-71561683D01*
X123798462Y-71561683D01*
X123995301Y-71561683D01*
X124189705Y-71530892D01*
X124376904Y-71470067D01*
X124552284Y-71380707D01*
X124711525Y-71265011D01*
X124850707Y-71125829D01*
X124966403Y-70966588D01*
X125055763Y-70791208D01*
X125116588Y-70604009D01*
X125147379Y-70409605D01*
X125147379Y-70212760D01*
X125116588Y-70018356D01*
X125055761Y-69831153D01*
X124966402Y-69655777D01*
X124850707Y-69496537D01*
X124711525Y-69357355D01*
X124706773Y-69353902D01*
X124645912Y-69309683D01*
X124603246Y-69254353D01*
X124597268Y-69184740D01*
X124629875Y-69122945D01*
X124645904Y-69109055D01*
X124696243Y-69072482D01*
X124835425Y-68933300D01*
X124951121Y-68774059D01*
X125040481Y-68598679D01*
X125101306Y-68411480D01*
X125132097Y-68217076D01*
X125132097Y-68020231D01*
X125101306Y-67825827D01*
X125040479Y-67638624D01*
X124951120Y-67463248D01*
X124835425Y-67304008D01*
X124696243Y-67164826D01*
X124537002Y-67049130D01*
X124381669Y-66969984D01*
X124330874Y-66922011D01*
X124314079Y-66854190D01*
X124336616Y-66788055D01*
X124391331Y-66744603D01*
X124437965Y-66735500D01*
X126351000Y-66735500D01*
X126418039Y-66755185D01*
X126463794Y-66807989D01*
X126475000Y-66859500D01*
X126475000Y-69125000D01*
X128475000Y-69125000D01*
X128475000Y-66859500D01*
X128494685Y-66792461D01*
X128547489Y-66746706D01*
X128599000Y-66735500D01*
X134851000Y-66735500D01*
X134918039Y-66755185D01*
X134963794Y-66807989D01*
X134975000Y-66859500D01*
X134975000Y-69125000D01*
X136975000Y-69125000D01*
X136975000Y-66859500D01*
X136977550Y-66850814D01*
X136976262Y-66841853D01*
X136987240Y-66817812D01*
X136994685Y-66792461D01*
X137001525Y-66786533D01*
X137005287Y-66778297D01*
X137027521Y-66764007D01*
X137047489Y-66746706D01*
X137058003Y-66744418D01*
X137064065Y-66740523D01*
X137099000Y-66735500D01*
X137165425Y-66735500D01*
X137232464Y-66755185D01*
X137278219Y-66807989D01*
X137289424Y-66859566D01*
X137283762Y-76969129D01*
X137279512Y-84557318D01*
X137279500Y-84557401D01*
X137279500Y-84580841D01*
X137279484Y-84608916D01*
X137279500Y-84608995D01*
X137279500Y-85074960D01*
X137259815Y-85141999D01*
X137207011Y-85187754D01*
X137137853Y-85197698D01*
X137112167Y-85191142D01*
X136977482Y-85140908D01*
X136977483Y-85140908D01*
X136917883Y-85134501D01*
X136917881Y-85134500D01*
X136917873Y-85134500D01*
X136917865Y-85134500D01*
X135782230Y-85134500D01*
X135715191Y-85114815D01*
X135694549Y-85098181D01*
X135013421Y-84417052D01*
X135013420Y-84417051D01*
X134913758Y-84350460D01*
X134913758Y-84350459D01*
X134890495Y-84334916D01*
X134890490Y-84334913D01*
X134753917Y-84278343D01*
X134753907Y-84278340D01*
X134608920Y-84249500D01*
X134608918Y-84249500D01*
X134460246Y-84249500D01*
X134393207Y-84229815D01*
X134347452Y-84177011D01*
X134337508Y-84107853D01*
X134366533Y-84044297D01*
X134391355Y-84022398D01*
X134454341Y-83980310D01*
X134510289Y-83942928D01*
X134621789Y-83831428D01*
X134709394Y-83700318D01*
X134769737Y-83554636D01*
X134800500Y-83399981D01*
X134800500Y-83242297D01*
X134800500Y-83242294D01*
X134800499Y-83242292D01*
X134778341Y-83130897D01*
X134769737Y-83087642D01*
X134769735Y-83087637D01*
X134709397Y-82941966D01*
X134709390Y-82941953D01*
X134621789Y-82810850D01*
X134621786Y-82810846D01*
X134510292Y-82699352D01*
X134510288Y-82699349D01*
X134379185Y-82611748D01*
X134379172Y-82611741D01*
X134233501Y-82551403D01*
X134233489Y-82551400D01*
X134078845Y-82520639D01*
X134078842Y-82520639D01*
X133921158Y-82520639D01*
X133921155Y-82520639D01*
X133766510Y-82551400D01*
X133766498Y-82551403D01*
X133620827Y-82611741D01*
X133620814Y-82611748D01*
X133489714Y-82699347D01*
X133489708Y-82699352D01*
X133451393Y-82737666D01*
X133439647Y-82744079D01*
X133430898Y-82754205D01*
X133409579Y-82760497D01*
X133390069Y-82771150D01*
X133375244Y-82770630D01*
X133363886Y-82773983D01*
X133340900Y-82769427D01*
X133328945Y-82769009D01*
X133322478Y-82767119D01*
X133233497Y-82730263D01*
X133116934Y-82707077D01*
X133111707Y-82705550D01*
X133086690Y-82689521D01*
X133060374Y-82675756D01*
X133058795Y-82674205D01*
X131896771Y-81512181D01*
X131863286Y-81450858D01*
X131865410Y-81421153D01*
X134199500Y-81421153D01*
X134199500Y-81578846D01*
X134230261Y-81733489D01*
X134230264Y-81733501D01*
X134290602Y-81879172D01*
X134290609Y-81879185D01*
X134378210Y-82010288D01*
X134378213Y-82010292D01*
X134489707Y-82121786D01*
X134489711Y-82121789D01*
X134620814Y-82209390D01*
X134620827Y-82209397D01*
X134766498Y-82269735D01*
X134766503Y-82269737D01*
X134899742Y-82296240D01*
X134921153Y-82300499D01*
X134921156Y-82300500D01*
X134921158Y-82300500D01*
X135078844Y-82300500D01*
X135078845Y-82300499D01*
X135233497Y-82269737D01*
X135379179Y-82209394D01*
X135510289Y-82121789D01*
X135621789Y-82010289D01*
X135709394Y-81879179D01*
X135769737Y-81733497D01*
X135800500Y-81578842D01*
X135800500Y-81421158D01*
X135800500Y-81421155D01*
X135800499Y-81421153D01*
X135781419Y-81325233D01*
X135769737Y-81266503D01*
X135753630Y-81227619D01*
X135746162Y-81158150D01*
X135777437Y-81095671D01*
X135837526Y-81060019D01*
X135876044Y-81057092D01*
X135876044Y-81056941D01*
X135878039Y-81056941D01*
X135880356Y-81056765D01*
X135882131Y-81056940D01*
X135882136Y-81056941D01*
X135882141Y-81056941D01*
X136039822Y-81056941D01*
X136039823Y-81056940D01*
X136194475Y-81026178D01*
X136340157Y-80965835D01*
X136471267Y-80878230D01*
X136582767Y-80766730D01*
X136670372Y-80635620D01*
X136730715Y-80489938D01*
X136761478Y-80335283D01*
X136761478Y-80177599D01*
X136761478Y-80177596D01*
X136761477Y-80177594D01*
X136730716Y-80022951D01*
X136730715Y-80022944D01*
X136709045Y-79970628D01*
X136670375Y-79877268D01*
X136670368Y-79877255D01*
X136582767Y-79746152D01*
X136582764Y-79746148D01*
X136471270Y-79634654D01*
X136471266Y-79634651D01*
X136340163Y-79547050D01*
X136340150Y-79547043D01*
X136194479Y-79486705D01*
X136194467Y-79486702D01*
X136039823Y-79455941D01*
X136039820Y-79455941D01*
X135882136Y-79455941D01*
X135882133Y-79455941D01*
X135727488Y-79486702D01*
X135727476Y-79486705D01*
X135581805Y-79547043D01*
X135581792Y-79547050D01*
X135450689Y-79634651D01*
X135450685Y-79634654D01*
X135339191Y-79746148D01*
X135339188Y-79746152D01*
X135251587Y-79877255D01*
X135251580Y-79877268D01*
X135191242Y-80022939D01*
X135191239Y-80022951D01*
X135160478Y-80177594D01*
X135160478Y-80335287D01*
X135191239Y-80489930D01*
X135191241Y-80489937D01*
X135207347Y-80528822D01*
X135214815Y-80598291D01*
X135183539Y-80660770D01*
X135123450Y-80696422D01*
X135084934Y-80699349D01*
X135084934Y-80699500D01*
X135082951Y-80699500D01*
X135080635Y-80699676D01*
X135078847Y-80699500D01*
X135078842Y-80699500D01*
X134921158Y-80699500D01*
X134921155Y-80699500D01*
X134766510Y-80730261D01*
X134766498Y-80730264D01*
X134620827Y-80790602D01*
X134620814Y-80790609D01*
X134489711Y-80878210D01*
X134489707Y-80878213D01*
X134378213Y-80989707D01*
X134378210Y-80989711D01*
X134290609Y-81120814D01*
X134290602Y-81120827D01*
X134230264Y-81266498D01*
X134230261Y-81266510D01*
X134199500Y-81421153D01*
X131865410Y-81421153D01*
X131868270Y-81381166D01*
X131910142Y-81325233D01*
X131975606Y-81300816D01*
X131984452Y-81300500D01*
X132078844Y-81300500D01*
X132078845Y-81300499D01*
X132089179Y-81298443D01*
X132114287Y-81293450D01*
X132114292Y-81293449D01*
X132199800Y-81276439D01*
X132233497Y-81269737D01*
X132379179Y-81209394D01*
X132510289Y-81121789D01*
X132621789Y-81010289D01*
X132709394Y-80879179D01*
X132769737Y-80733497D01*
X132800500Y-80578842D01*
X132800500Y-80421158D01*
X132800500Y-80421155D01*
X132800499Y-80421153D01*
X132783419Y-80335287D01*
X132769737Y-80266503D01*
X132732910Y-80177594D01*
X132709397Y-80120827D01*
X132709390Y-80120814D01*
X132621789Y-79989711D01*
X132621786Y-79989707D01*
X132510292Y-79878213D01*
X132510288Y-79878210D01*
X132379185Y-79790609D01*
X132379172Y-79790602D01*
X132233501Y-79730264D01*
X132233489Y-79730261D01*
X132078845Y-79699500D01*
X132078842Y-79699500D01*
X131921158Y-79699500D01*
X131921155Y-79699500D01*
X131766510Y-79730261D01*
X131766498Y-79730264D01*
X131620827Y-79790602D01*
X131620814Y-79790609D01*
X131489711Y-79878210D01*
X131489707Y-79878213D01*
X131378213Y-79989707D01*
X131378210Y-79989711D01*
X131290609Y-80120814D01*
X131290602Y-80120827D01*
X131230264Y-80266498D01*
X131230261Y-80266510D01*
X131199500Y-80421153D01*
X131199500Y-80515548D01*
X131179815Y-80582587D01*
X131127011Y-80628342D01*
X131057853Y-80638286D01*
X130994297Y-80609261D01*
X130987819Y-80603229D01*
X130355218Y-79970628D01*
X130321733Y-79909305D01*
X130318899Y-79882947D01*
X130318899Y-79108580D01*
X130338584Y-79041541D01*
X130370011Y-79008264D01*
X130488501Y-78922177D01*
X130624344Y-78786334D01*
X130737264Y-78630913D01*
X130824481Y-78459741D01*
X130883846Y-78277033D01*
X130913899Y-78087287D01*
X130913899Y-77895177D01*
X130883846Y-77705431D01*
X130853823Y-77613029D01*
X130824482Y-77522725D01*
X130737263Y-77351550D01*
X130624344Y-77196130D01*
X130488501Y-77060287D01*
X130363033Y-76969129D01*
X134730702Y-76969129D01*
X134730702Y-77126822D01*
X134761463Y-77281465D01*
X134761466Y-77281477D01*
X134821804Y-77427148D01*
X134821811Y-77427161D01*
X134909412Y-77558264D01*
X134909415Y-77558268D01*
X135020909Y-77669762D01*
X135020913Y-77669765D01*
X135152016Y-77757366D01*
X135152029Y-77757373D01*
X135297700Y-77817711D01*
X135297705Y-77817713D01*
X135452355Y-77848475D01*
X135452358Y-77848476D01*
X135452360Y-77848476D01*
X135610046Y-77848476D01*
X135610047Y-77848475D01*
X135764699Y-77817713D01*
X135910381Y-77757370D01*
X136041491Y-77669765D01*
X136152991Y-77558265D01*
X136240596Y-77427155D01*
X136300939Y-77281473D01*
X136331702Y-77126818D01*
X136331702Y-76969134D01*
X136331702Y-76969131D01*
X136331701Y-76969129D01*
X136321986Y-76920289D01*
X136300939Y-76814479D01*
X136298102Y-76807629D01*
X136240599Y-76668803D01*
X136240592Y-76668790D01*
X136152991Y-76537687D01*
X136152988Y-76537683D01*
X136041494Y-76426189D01*
X136041490Y-76426186D01*
X135910387Y-76338585D01*
X135910374Y-76338578D01*
X135764703Y-76278240D01*
X135764691Y-76278237D01*
X135610047Y-76247476D01*
X135610044Y-76247476D01*
X135452360Y-76247476D01*
X135452357Y-76247476D01*
X135297712Y-76278237D01*
X135297700Y-76278240D01*
X135152029Y-76338578D01*
X135152016Y-76338585D01*
X135020913Y-76426186D01*
X135020909Y-76426189D01*
X134909415Y-76537683D01*
X134909412Y-76537687D01*
X134821811Y-76668790D01*
X134821804Y-76668803D01*
X134761466Y-76814474D01*
X134761463Y-76814486D01*
X134730702Y-76969129D01*
X130363033Y-76969129D01*
X130333080Y-76947367D01*
X130161905Y-76860148D01*
X129979201Y-76800785D01*
X129884327Y-76785758D01*
X129789454Y-76770732D01*
X129597344Y-76770732D01*
X129551216Y-76778038D01*
X129407596Y-76800785D01*
X129224892Y-76860148D01*
X129053717Y-76947367D01*
X129023765Y-76969129D01*
X128898297Y-77060287D01*
X128898295Y-77060289D01*
X128898294Y-77060289D01*
X128762456Y-77196127D01*
X128762456Y-77196128D01*
X128762454Y-77196130D01*
X128752014Y-77210500D01*
X128649534Y-77351550D01*
X128562315Y-77522725D01*
X128541330Y-77587313D01*
X128501893Y-77644988D01*
X128437534Y-77672187D01*
X128368688Y-77660273D01*
X128317212Y-77613029D01*
X128305468Y-77587313D01*
X128284482Y-77522725D01*
X128197263Y-77351550D01*
X128084344Y-77196130D01*
X127948501Y-77060287D01*
X127793080Y-76947367D01*
X127621905Y-76860148D01*
X127439201Y-76800785D01*
X127344327Y-76785758D01*
X127249454Y-76770732D01*
X127057344Y-76770732D01*
X127019394Y-76776742D01*
X126867594Y-76800785D01*
X126739764Y-76842319D01*
X126669923Y-76844314D01*
X126610090Y-76808233D01*
X126579263Y-76745532D01*
X126586885Y-76676937D01*
X126600737Y-76643497D01*
X126631500Y-76488842D01*
X126631500Y-76331158D01*
X126631500Y-76331155D01*
X126631499Y-76331153D01*
X126620973Y-76278237D01*
X126600737Y-76176503D01*
X126600735Y-76176498D01*
X126540397Y-76030827D01*
X126540390Y-76030814D01*
X126452789Y-75899711D01*
X126452786Y-75899707D01*
X126341292Y-75788213D01*
X126341288Y-75788210D01*
X126210185Y-75700609D01*
X126210172Y-75700602D01*
X126064501Y-75640264D01*
X126064489Y-75640261D01*
X125909845Y-75609500D01*
X125909842Y-75609500D01*
X125752158Y-75609500D01*
X125752155Y-75609500D01*
X125597510Y-75640261D01*
X125597498Y-75640264D01*
X125451827Y-75700602D01*
X125451814Y-75700609D01*
X125320711Y-75788210D01*
X125320707Y-75788213D01*
X125209213Y-75899707D01*
X125209210Y-75899711D01*
X125121609Y-76030814D01*
X125121602Y-76030827D01*
X125061264Y-76176498D01*
X125061261Y-76176510D01*
X125030500Y-76331153D01*
X125030500Y-76488846D01*
X125061261Y-76643493D01*
X125062950Y-76649059D01*
X125063573Y-76718926D01*
X125026324Y-76778038D01*
X124963030Y-76807629D01*
X124905978Y-76802986D01*
X124899204Y-76800785D01*
X124747403Y-76776742D01*
X124709454Y-76770732D01*
X124517344Y-76770732D01*
X124471216Y-76778038D01*
X124327596Y-76800785D01*
X124144892Y-76860148D01*
X123973717Y-76947367D01*
X123943765Y-76969129D01*
X123818297Y-77060287D01*
X123818295Y-77060289D01*
X123818294Y-77060289D01*
X123682456Y-77196127D01*
X123682456Y-77196128D01*
X123682454Y-77196130D01*
X123672014Y-77210500D01*
X123569534Y-77351550D01*
X123482315Y-77522725D01*
X123422952Y-77705429D01*
X123392899Y-77895177D01*
X123392899Y-78087286D01*
X123422952Y-78277034D01*
X123482315Y-78459738D01*
X123482317Y-78459741D01*
X123569534Y-78630913D01*
X123682454Y-78786334D01*
X123818297Y-78922177D01*
X123973718Y-79035097D01*
X124117936Y-79108580D01*
X124144892Y-79122315D01*
X124236244Y-79151996D01*
X124327598Y-79181679D01*
X124517344Y-79211732D01*
X124517345Y-79211732D01*
X124709453Y-79211732D01*
X124709454Y-79211732D01*
X124899200Y-79181679D01*
X125081908Y-79122314D01*
X125253080Y-79035097D01*
X125408501Y-78922177D01*
X125544344Y-78786334D01*
X125657264Y-78630913D01*
X125744481Y-78459741D01*
X125744483Y-78459736D01*
X125765468Y-78395151D01*
X125804905Y-78337475D01*
X125869263Y-78310276D01*
X125938110Y-78322190D01*
X125989586Y-78369434D01*
X126001330Y-78395151D01*
X126022314Y-78459736D01*
X126022317Y-78459741D01*
X126109534Y-78630913D01*
X126222454Y-78786334D01*
X126358297Y-78922177D01*
X126513718Y-79035097D01*
X126657936Y-79108580D01*
X126684892Y-79122315D01*
X126776244Y-79151996D01*
X126867598Y-79181679D01*
X127057344Y-79211732D01*
X127057345Y-79211732D01*
X127249441Y-79211732D01*
X127249454Y-79211732D01*
X127249466Y-79211729D01*
X127250925Y-79211615D01*
X127251482Y-79211732D01*
X127254326Y-79211732D01*
X127254326Y-79212329D01*
X127319304Y-79225971D01*
X127348350Y-79247551D01*
X128205331Y-80104531D01*
X128238816Y-80165854D01*
X128241650Y-80192212D01*
X128241650Y-81137983D01*
X128221965Y-81205022D01*
X128169161Y-81250777D01*
X128117655Y-81261983D01*
X128094282Y-81261983D01*
X128094273Y-81261984D01*
X128034666Y-81268391D01*
X127899821Y-81318685D01*
X127899814Y-81318689D01*
X127784605Y-81404935D01*
X127784602Y-81404938D01*
X127698356Y-81520147D01*
X127698353Y-81520152D01*
X127649339Y-81651566D01*
X127607467Y-81707499D01*
X127542003Y-81731916D01*
X127473730Y-81717064D01*
X127445476Y-81695913D01*
X127331936Y-81582373D01*
X127159970Y-81457434D01*
X126970564Y-81360927D01*
X126970563Y-81360926D01*
X126970562Y-81360926D01*
X126768393Y-81295237D01*
X126768391Y-81295236D01*
X126768390Y-81295236D01*
X126607107Y-81269691D01*
X126558437Y-81261983D01*
X126345863Y-81261983D01*
X126297192Y-81269691D01*
X126135910Y-81295236D01*
X125933735Y-81360927D01*
X125744329Y-81457434D01*
X125572363Y-81582373D01*
X125422040Y-81732696D01*
X125297099Y-81904665D01*
X125292634Y-81913429D01*
X125244659Y-81964225D01*
X125176838Y-81981019D01*
X125110703Y-81958481D01*
X125071666Y-81913429D01*
X125067200Y-81904665D01*
X124942259Y-81732696D01*
X124791936Y-81582373D01*
X124619970Y-81457434D01*
X124430564Y-81360927D01*
X124430563Y-81360926D01*
X124430562Y-81360926D01*
X124228393Y-81295237D01*
X124228391Y-81295236D01*
X124228390Y-81295236D01*
X124067107Y-81269691D01*
X124018437Y-81261983D01*
X123805863Y-81261983D01*
X123757192Y-81269691D01*
X123595910Y-81295236D01*
X123393735Y-81360927D01*
X123204329Y-81457434D01*
X123032363Y-81582373D01*
X122882040Y-81732696D01*
X122757101Y-81904662D01*
X122660594Y-82094068D01*
X122594903Y-82296243D01*
X122561650Y-82506196D01*
X122561650Y-82718769D01*
X122576233Y-82810846D01*
X122594904Y-82928726D01*
X122646541Y-83087649D01*
X122660594Y-83130897D01*
X122757101Y-83320303D01*
X122882040Y-83492269D01*
X123032363Y-83642592D01*
X123204329Y-83767531D01*
X123204331Y-83767532D01*
X123204334Y-83767534D01*
X123393738Y-83864040D01*
X123595907Y-83929729D01*
X123805863Y-83962983D01*
X123805864Y-83962983D01*
X124018436Y-83962983D01*
X124018437Y-83962983D01*
X124228393Y-83929729D01*
X124430562Y-83864040D01*
X124619966Y-83767534D01*
X124706288Y-83704818D01*
X124791936Y-83642592D01*
X124791938Y-83642589D01*
X124791942Y-83642587D01*
X124942254Y-83492275D01*
X124942256Y-83492271D01*
X124942259Y-83492269D01*
X125067198Y-83320303D01*
X125067197Y-83320303D01*
X125067201Y-83320299D01*
X125071664Y-83311537D01*
X125119638Y-83260742D01*
X125187458Y-83243946D01*
X125253594Y-83266482D01*
X125292636Y-83311539D01*
X125297101Y-83320303D01*
X125422040Y-83492269D01*
X125572363Y-83642592D01*
X125744329Y-83767531D01*
X125744331Y-83767532D01*
X125744334Y-83767534D01*
X125933738Y-83864040D01*
X126135907Y-83929729D01*
X126345863Y-83962983D01*
X126345864Y-83962983D01*
X126558436Y-83962983D01*
X126558437Y-83962983D01*
X126768393Y-83929729D01*
X126970562Y-83864040D01*
X127159966Y-83767534D01*
X127331942Y-83642587D01*
X127445479Y-83529049D01*
X127506798Y-83495567D01*
X127576490Y-83500551D01*
X127632424Y-83542422D01*
X127649339Y-83573400D01*
X127698352Y-83704811D01*
X127698356Y-83704818D01*
X127784602Y-83820027D01*
X127784605Y-83820030D01*
X127899814Y-83906276D01*
X127899821Y-83906280D01*
X128034667Y-83956574D01*
X128034666Y-83956574D01*
X128041594Y-83957318D01*
X128094277Y-83962983D01*
X129890022Y-83962982D01*
X129949633Y-83956574D01*
X130084481Y-83906279D01*
X130199696Y-83820029D01*
X130285946Y-83704814D01*
X130336241Y-83569966D01*
X130342650Y-83510356D01*
X130342649Y-82026600D01*
X130362334Y-81959562D01*
X130415137Y-81913807D01*
X130484296Y-81903863D01*
X130547852Y-81932888D01*
X130554330Y-81938920D01*
X132174205Y-83558795D01*
X132207690Y-83620118D01*
X132208141Y-83622285D01*
X132230261Y-83733489D01*
X132230264Y-83733501D01*
X132290602Y-83879172D01*
X132290609Y-83879185D01*
X132378210Y-84010288D01*
X132378213Y-84010292D01*
X132405740Y-84037819D01*
X132439225Y-84099142D01*
X132434241Y-84168834D01*
X132392369Y-84224767D01*
X132326905Y-84249184D01*
X132318059Y-84249500D01*
X130304604Y-84249500D01*
X130257155Y-84240062D01*
X130233497Y-84230263D01*
X130233493Y-84230262D01*
X130233488Y-84230260D01*
X130078845Y-84199500D01*
X130078842Y-84199500D01*
X129921158Y-84199500D01*
X129868651Y-84209944D01*
X129868643Y-84209945D01*
X129766509Y-84230261D01*
X129766506Y-84230262D01*
X129766504Y-84230262D01*
X129766503Y-84230263D01*
X129742844Y-84240062D01*
X129695396Y-84249500D01*
X124731080Y-84249500D01*
X124586092Y-84278340D01*
X124586082Y-84278343D01*
X124449508Y-84334913D01*
X124326584Y-84417048D01*
X124326584Y-84417049D01*
X123645451Y-85098181D01*
X123584128Y-85131666D01*
X123557770Y-85134500D01*
X122422129Y-85134500D01*
X122422123Y-85134501D01*
X122362516Y-85140908D01*
X122227833Y-85191142D01*
X122158141Y-85196126D01*
X122096818Y-85162641D01*
X122063334Y-85101317D01*
X122060500Y-85074960D01*
X122060500Y-71889628D01*
X126475000Y-71889628D01*
X126489503Y-71962540D01*
X126489505Y-71962544D01*
X126544760Y-72045239D01*
X126627455Y-72100494D01*
X126627459Y-72100496D01*
X126700371Y-72114999D01*
X126700374Y-72115000D01*
X127275000Y-72115000D01*
X127675000Y-72115000D01*
X128249626Y-72115000D01*
X128249628Y-72114999D01*
X128322540Y-72100496D01*
X128322544Y-72100494D01*
X128405239Y-72045239D01*
X128460494Y-71962544D01*
X128460496Y-71962540D01*
X128474999Y-71889628D01*
X128475000Y-71889626D01*
X128475000Y-71421153D01*
X132199500Y-71421153D01*
X132199500Y-71578846D01*
X132230261Y-71733489D01*
X132230264Y-71733501D01*
X132290602Y-71879172D01*
X132290609Y-71879185D01*
X132378210Y-72010288D01*
X132378213Y-72010292D01*
X132489707Y-72121786D01*
X132489711Y-72121789D01*
X132620814Y-72209390D01*
X132620827Y-72209397D01*
X132766498Y-72269735D01*
X132766503Y-72269737D01*
X132921153Y-72300499D01*
X132921156Y-72300500D01*
X132921158Y-72300500D01*
X133078844Y-72300500D01*
X133078845Y-72300499D01*
X133233497Y-72269737D01*
X133379179Y-72209394D01*
X133510289Y-72121789D01*
X133621789Y-72010289D01*
X133702412Y-71889628D01*
X134975000Y-71889628D01*
X134989503Y-71962540D01*
X134989505Y-71962544D01*
X135044760Y-72045239D01*
X135127455Y-72100494D01*
X135127459Y-72100496D01*
X135200371Y-72114999D01*
X135200374Y-72115000D01*
X135775000Y-72115000D01*
X136175000Y-72115000D01*
X136749626Y-72115000D01*
X136749628Y-72114999D01*
X136822540Y-72100496D01*
X136822544Y-72100494D01*
X136905239Y-72045239D01*
X136960494Y-71962544D01*
X136960496Y-71962540D01*
X136974999Y-71889628D01*
X136975000Y-71889626D01*
X136975000Y-69525000D01*
X136175000Y-69525000D01*
X136175000Y-72115000D01*
X135775000Y-72115000D01*
X135775000Y-69525000D01*
X134975000Y-69525000D01*
X134975000Y-71889628D01*
X133702412Y-71889628D01*
X133709394Y-71879179D01*
X133769737Y-71733497D01*
X133800500Y-71578842D01*
X133800500Y-71421158D01*
X133800500Y-71421155D01*
X133800499Y-71421153D01*
X133792454Y-71380707D01*
X133769737Y-71266503D01*
X133769118Y-71265008D01*
X133709397Y-71120827D01*
X133709390Y-71120814D01*
X133621789Y-70989711D01*
X133621786Y-70989707D01*
X133510292Y-70878213D01*
X133510288Y-70878210D01*
X133379185Y-70790609D01*
X133379172Y-70790602D01*
X133233501Y-70730264D01*
X133233489Y-70730261D01*
X133078845Y-70699500D01*
X133078842Y-70699500D01*
X132921158Y-70699500D01*
X132921155Y-70699500D01*
X132766510Y-70730261D01*
X132766498Y-70730264D01*
X132620827Y-70790602D01*
X132620814Y-70790609D01*
X132489711Y-70878210D01*
X132489707Y-70878213D01*
X132378213Y-70989707D01*
X132378210Y-70989711D01*
X132290609Y-71120814D01*
X132290602Y-71120827D01*
X132230264Y-71266498D01*
X132230261Y-71266510D01*
X132199500Y-71421153D01*
X128475000Y-71421153D01*
X128475000Y-69525000D01*
X127675000Y-69525000D01*
X127675000Y-72115000D01*
X127275000Y-72115000D01*
X127275000Y-69525000D01*
X126475000Y-69525000D01*
X126475000Y-71889628D01*
X122060500Y-71889628D01*
X122060500Y-66859500D01*
X122080185Y-66792461D01*
X122132989Y-66746706D01*
X122184500Y-66735500D01*
X123325229Y-66735500D01*
X123392268Y-66755185D01*
G37*
G04 #@! TD.AperFunction*
M02*
