M48
; DRILL file {KiCad 9.0.6} date 2026-01-09T20:10:29+0000
; FORMAT={-:-/ absolute / metric / decimal}
; #@! TF.CreationDate,2026-01-09T20:10:29+00:00
; #@! TF.GenerationSoftware,Kicad,Pcbnew,9.0.6
; #@! TF.FileFunction,Plated,1,4,PTH
FMAT,2
METRIC
; #@! TA.AperFunction,Plated,PTH,ComponentDrill
T1C0.200
; #@! TA.AperFunction,Plated,PTH,ViaDrill
T2C0.350
; #@! TA.AperFunction,Plated,PTH,ComponentDrill
T3C0.800
; #@! TA.AperFunction,Plated,PTH,ComponentDrill
T4C1.000
%
G90
G05
T1
X134.35Y-103.272
T2
X123.5Y-76.5
X123.589Y-79.435
X124.275Y-106.625
X124.7Y-97.975
X125.0Y-93.49
X125.325Y-106.65
X125.831Y-76.41
X126.0Y-86.5
X126.019Y-89.991
X127.16Y-79.49
X127.57Y-96.05
X127.75Y-91.062
X127.828Y-86.503
X128.275Y-103.78
X128.325Y-98.95
X128.43Y-84.3
X128.475Y-95.5
X128.511Y-93.584
X128.685Y-102.835
X129.0Y-87.5
X129.0Y-88.5
X129.125Y-96.35
X129.371Y-92.559
X129.399Y-85.7
X130.0Y-85.0
X130.25Y-95.9
X130.914Y-89.925
X131.113Y-86.86
X131.675Y-92.559
X131.91Y-98.99
X132.0Y-80.5
X132.26Y-95.05
X133.0Y-71.5
X133.0Y-83.5
X133.0Y-87.0
X133.954Y-77.196
X134.0Y-83.321
X134.4Y-106.0
X134.426Y-99.674
X135.0Y-81.5
X135.0Y-84.0
X135.1Y-100.35
X135.275Y-105.475
X135.531Y-77.048
X135.961Y-80.256
X136.52Y-105.01
X136.826Y-109.662
X136.846Y-106.83
X136.857Y-108.287
X136.91Y-103.53
T3
X124.613Y-77.991
X127.153Y-77.991
X129.693Y-77.991
T4
X123.32Y-86.485
X123.32Y-89.025
X123.32Y-91.565
X123.32Y-94.105
X123.32Y-96.645
X123.32Y-111.25
X123.882Y-68.119
X123.897Y-70.311
X123.912Y-82.612
X123.96Y-108.4
X125.86Y-111.25
X126.452Y-82.612
X126.5Y-108.4
X128.4Y-111.25
X128.992Y-82.612
X129.04Y-108.4
X130.94Y-111.25
X132.76Y-108.4
X133.48Y-111.25
X133.56Y-90.33
X133.56Y-92.87
X133.56Y-95.41
X135.3Y-108.4
X136.02Y-86.485
X136.02Y-89.025
X136.02Y-91.565
X136.02Y-94.105
X136.02Y-96.645
X136.02Y-111.25
M30
