G04 #@! TF.GenerationSoftware,KiCad,Pcbnew,9.0.6*
G04 #@! TF.CreationDate,2026-01-09T20:09:44+00:00*
G04 #@! TF.ProjectId,ExtendedRangeSupply,45787465-6e64-4656-9452-616e67655375,rev?*
G04 #@! TF.SameCoordinates,Original*
G04 #@! TF.FileFunction,Legend,Top*
G04 #@! TF.FilePolarity,Positive*
%FSLAX46Y46*%
G04 Gerber Fmt 4.6, Leading zero omitted, Abs format (unit mm)*
G04 Created by KiCad (PCBNEW 9.0.6) date 2026-01-09 20:09:44*
%MOMM*%
%LPD*%
G01*
G04 APERTURE LIST*
G04 Aperture macros list*
%AMRoundRect*
0 Rectangle with rounded corners*
0 $1 Rounding radius*
0 $2 $3 $4 $5 $6 $7 $8 $9 X,Y pos of 4 corners*
0 Add a 4 corners polygon primitive as box body*
4,1,4,$2,$3,$4,$5,$6,$7,$8,$9,$2,$3,0*
0 Add four circle primitives for the rounded corners*
1,1,$1+$1,$2,$3*
1,1,$1+$1,$4,$5*
1,1,$1+$1,$6,$7*
1,1,$1+$1,$8,$9*
0 Add four rect primitives between the rounded corners*
20,1,$1+$1,$2,$3,$4,$5,0*
20,1,$1+$1,$4,$5,$6,$7,0*
20,1,$1+$1,$6,$7,$8,$9,0*
20,1,$1+$1,$8,$9,$2,$3,0*%
G04 Aperture macros list end*
%ADD10C,0.150000*%
%ADD11C,0.100000*%
%ADD12C,0.120000*%
%ADD13C,0.250000*%
%ADD14RoundRect,0.150000X0.512500X0.150000X-0.512500X0.150000X-0.512500X-0.150000X0.512500X-0.150000X0*%
%ADD15C,1.700000*%
%ADD16R,1.700000X1.700000*%
%ADD17RoundRect,0.135000X0.135000X0.185000X-0.135000X0.185000X-0.135000X-0.185000X0.135000X-0.185000X0*%
%ADD18R,0.800000X0.800000*%
%ADD19RoundRect,0.062500X-0.062500X-0.375000X0.062500X-0.375000X0.062500X0.375000X-0.062500X0.375000X0*%
%ADD20RoundRect,0.062500X-0.375000X-0.062500X0.375000X-0.062500X0.375000X0.062500X-0.375000X0.062500X0*%
%ADD21R,1.500000X5.080000*%
%ADD22RoundRect,0.200000X0.200000X0.275000X-0.200000X0.275000X-0.200000X-0.275000X0.200000X-0.275000X0*%
%ADD23RoundRect,0.200000X0.275000X-0.200000X0.275000X0.200000X-0.275000X0.200000X-0.275000X-0.200000X0*%
%ADD24RoundRect,0.200000X-0.200000X-0.275000X0.200000X-0.275000X0.200000X0.275000X-0.200000X0.275000X0*%
%ADD25R,0.300000X0.850000*%
%ADD26R,2.500000X1.750000*%
%ADD27RoundRect,0.225000X-0.225000X-0.250000X0.225000X-0.250000X0.225000X0.250000X-0.225000X0.250000X0*%
%ADD28C,1.500000*%
%ADD29RoundRect,0.225000X0.250000X-0.225000X0.250000X0.225000X-0.250000X0.225000X-0.250000X-0.225000X0*%
%ADD30RoundRect,0.225000X0.225000X0.250000X-0.225000X0.250000X-0.225000X-0.250000X0.225000X-0.250000X0*%
%ADD31RoundRect,0.150000X-0.150000X0.512500X-0.150000X-0.512500X0.150000X-0.512500X0.150000X0.512500X0*%
%ADD32RoundRect,0.225000X-0.250000X0.225000X-0.250000X-0.225000X0.250000X-0.225000X0.250000X0.225000X0*%
%ADD33RoundRect,0.200000X-0.275000X0.200000X-0.275000X-0.200000X0.275000X-0.200000X0.275000X0.200000X0*%
%ADD34RoundRect,0.100000X0.225000X0.100000X-0.225000X0.100000X-0.225000X-0.100000X0.225000X-0.100000X0*%
%ADD35C,1.440000*%
%ADD36RoundRect,0.218750X0.218750X0.256250X-0.218750X0.256250X-0.218750X-0.256250X0.218750X-0.256250X0*%
G04 APERTURE END LIST*
D10*
X126835630Y-107000000D02*
X126835630Y-106500000D01*
X122500000Y-106500000D02*
X126500000Y-106500000D01*
X126500000Y-106500000D02*
X126500000Y-107000000D01*
X130000000Y-106500000D02*
X126835630Y-106500000D01*
X130000000Y-107000000D02*
X130000000Y-106500000D01*
X122183644Y-71965209D02*
X137165394Y-71965209D01*
X137165394Y-75722522D01*
X122183644Y-75722522D01*
X122183644Y-71965209D01*
G36*
X122183644Y-71965209D02*
G01*
X137165394Y-71965209D01*
X137165394Y-75722522D01*
X122183644Y-75722522D01*
X122183644Y-71965209D01*
G37*
X122500000Y-107020000D02*
X122500000Y-106500000D01*
G36*
X123693207Y-105670027D02*
G01*
X123738103Y-105678819D01*
X123780255Y-105693258D01*
X123820073Y-105713404D01*
X123856788Y-105738900D01*
X123888619Y-105768731D01*
X123915931Y-105803166D01*
X123938897Y-105842658D01*
X123961268Y-105899220D01*
X123975043Y-105961547D01*
X123979802Y-106030682D01*
X123974808Y-106100670D01*
X123960331Y-106163869D01*
X123936760Y-106221356D01*
X123912640Y-106261376D01*
X123884418Y-106295609D01*
X123851942Y-106324602D01*
X123814858Y-106348686D01*
X123760885Y-106372713D01*
X123704401Y-106387090D01*
X123644615Y-106391942D01*
X123595527Y-106388838D01*
X123550010Y-106379759D01*
X123507537Y-106364881D01*
X123467661Y-106344155D01*
X123430926Y-106317972D01*
X123399217Y-106287694D01*
X123372159Y-106253077D01*
X123349563Y-106213705D01*
X123327244Y-106157462D01*
X123313909Y-106099376D01*
X123309520Y-106040043D01*
X123405043Y-106040043D01*
X123409787Y-106103331D01*
X123423155Y-106156708D01*
X123444331Y-106201889D01*
X123473175Y-106240206D01*
X123509624Y-106272324D01*
X123549692Y-106294889D01*
X123594156Y-106308580D01*
X123644145Y-106313295D01*
X123695119Y-106308500D01*
X123740102Y-106294625D01*
X123780295Y-106271834D01*
X123816525Y-106239479D01*
X123844840Y-106200923D01*
X123865900Y-106154307D01*
X123879362Y-106098003D01*
X123884187Y-106029955D01*
X123880740Y-105973341D01*
X123870912Y-105923752D01*
X123855250Y-105880186D01*
X123832639Y-105840204D01*
X123804540Y-105807393D01*
X123770620Y-105780938D01*
X123732194Y-105761434D01*
X123690772Y-105749682D01*
X123645555Y-105745675D01*
X123597592Y-105749996D01*
X123553908Y-105762644D01*
X123513607Y-105783613D01*
X123476038Y-105813507D01*
X123452509Y-105841265D01*
X123433185Y-105876225D01*
X123418316Y-105919791D01*
X123408581Y-105973717D01*
X123405043Y-106040043D01*
X123309520Y-106040043D01*
X123309428Y-106038803D01*
X123313665Y-105968045D01*
X123325699Y-105906580D01*
X123344790Y-105853079D01*
X123370582Y-105806418D01*
X123403120Y-105765721D01*
X123442614Y-105730327D01*
X123485908Y-105703031D01*
X123533541Y-105683349D01*
X123586282Y-105671224D01*
X123645085Y-105667029D01*
X123693207Y-105670027D01*
G37*
G36*
X124559475Y-105677971D02*
G01*
X124652227Y-105677971D01*
X124652227Y-106083554D01*
X124649113Y-106154288D01*
X124640738Y-106209382D01*
X124628333Y-106251661D01*
X124608438Y-106290106D01*
X124580034Y-106323684D01*
X124542036Y-106352918D01*
X124498713Y-106373681D01*
X124444926Y-106387085D01*
X124378247Y-106391942D01*
X124313198Y-106387713D01*
X124260177Y-106376021D01*
X124217065Y-106357961D01*
X124179037Y-106331673D01*
X124149511Y-106299114D01*
X124127648Y-106259525D01*
X124113772Y-106215663D01*
X124104389Y-106158059D01*
X124100891Y-106083554D01*
X124100891Y-105677971D01*
X124193685Y-105677971D01*
X124193685Y-106084623D01*
X124196048Y-106146423D01*
X124202135Y-106190147D01*
X124210654Y-106219946D01*
X124224693Y-106246764D01*
X124243944Y-106268942D01*
X124268955Y-106287009D01*
X124297447Y-106299713D01*
X124330842Y-106307724D01*
X124370126Y-106310560D01*
X124422213Y-106306995D01*
X124462334Y-106297369D01*
X124492939Y-106282847D01*
X124515963Y-106263928D01*
X124532687Y-106239851D01*
X124546330Y-106204477D01*
X124555834Y-106154187D01*
X124559475Y-106084623D01*
X124559475Y-105677971D01*
G37*
G36*
X124984977Y-106381000D02*
G01*
X124984977Y-105759353D01*
X124753996Y-105759353D01*
X124753996Y-105677971D01*
X125309649Y-105677971D01*
X125309649Y-105759353D01*
X125077728Y-105759353D01*
X125077728Y-106381000D01*
X124984977Y-106381000D01*
G37*
D11*
G36*
X122707500Y-70955228D02*
G01*
X122205336Y-71149218D01*
X122205336Y-71077502D01*
X122570266Y-70947351D01*
X122652514Y-70921065D01*
X122570266Y-70894076D01*
X122205336Y-70758826D01*
X122205336Y-70691202D01*
X122707500Y-70887237D01*
X122707500Y-70955228D01*
G37*
G36*
X122707500Y-70634568D02*
G01*
X122205336Y-70634568D01*
X122205336Y-70568286D01*
X122649370Y-70568286D01*
X122649370Y-70321693D01*
X122707500Y-70321693D01*
X122707500Y-70634568D01*
G37*
G36*
X122491691Y-69830620D02*
G01*
X122525334Y-69835169D01*
X122555092Y-69842366D01*
X122596674Y-69858134D01*
X122628212Y-69876530D01*
X122654582Y-69898849D01*
X122673763Y-69922111D01*
X122688061Y-69948720D01*
X122698951Y-69981890D01*
X122705231Y-70018269D01*
X122707500Y-70062307D01*
X122707500Y-70242985D01*
X122205336Y-70242985D01*
X122205336Y-70071527D01*
X122263466Y-70071527D01*
X122263466Y-70176735D01*
X122649370Y-70176735D01*
X122649370Y-70069817D01*
X122646724Y-70023025D01*
X122640088Y-69992117D01*
X122628514Y-69966170D01*
X122613893Y-69947207D01*
X122596943Y-69933155D01*
X122575864Y-69920882D01*
X122549963Y-69910510D01*
X122522885Y-69903507D01*
X122490708Y-69898975D01*
X122452632Y-69897351D01*
X122411913Y-69899292D01*
X122378835Y-69904621D01*
X122352171Y-69912718D01*
X122330846Y-69923149D01*
X122304651Y-69942408D01*
X122286035Y-69963217D01*
X122273816Y-69985798D01*
X122268659Y-70004101D01*
X122264928Y-70031699D01*
X122263466Y-70071527D01*
X122205336Y-70071527D01*
X122205336Y-70070519D01*
X122207432Y-70015567D01*
X122212541Y-69981371D01*
X122221135Y-69953603D01*
X122233130Y-69929267D01*
X122248506Y-69907915D01*
X122272697Y-69883945D01*
X122301111Y-69864242D01*
X122334296Y-69848686D01*
X122369644Y-69838025D01*
X122409233Y-69831352D01*
X122453670Y-69829024D01*
X122491691Y-69830620D01*
G37*
G36*
X122507264Y-69282770D02*
G01*
X122552406Y-69293111D01*
X122593469Y-69309947D01*
X122622054Y-69327175D01*
X122646506Y-69347334D01*
X122667215Y-69370531D01*
X122684419Y-69397020D01*
X122701581Y-69435572D01*
X122711850Y-69475918D01*
X122715315Y-69518622D01*
X122713099Y-69553685D01*
X122706613Y-69586197D01*
X122695986Y-69616535D01*
X122681182Y-69645018D01*
X122662480Y-69671257D01*
X122640853Y-69693906D01*
X122616127Y-69713234D01*
X122588004Y-69729373D01*
X122547830Y-69745315D01*
X122506340Y-69754840D01*
X122463073Y-69758041D01*
X122412532Y-69755015D01*
X122368629Y-69746419D01*
X122330414Y-69732783D01*
X122297084Y-69714360D01*
X122268015Y-69691119D01*
X122242734Y-69662908D01*
X122223236Y-69631984D01*
X122209178Y-69597961D01*
X122200517Y-69560289D01*
X122197520Y-69518286D01*
X122197541Y-69517950D01*
X122253696Y-69517950D01*
X122256783Y-69552210D01*
X122265817Y-69583413D01*
X122280795Y-69612199D01*
X122302148Y-69639034D01*
X122321975Y-69655841D01*
X122346946Y-69669643D01*
X122378065Y-69680264D01*
X122416583Y-69687218D01*
X122463959Y-69689745D01*
X122509165Y-69686356D01*
X122547291Y-69676807D01*
X122579563Y-69661682D01*
X122606933Y-69641079D01*
X122629874Y-69615044D01*
X122645992Y-69586424D01*
X122655771Y-69554664D01*
X122659139Y-69518958D01*
X122655714Y-69482548D01*
X122645804Y-69450417D01*
X122629524Y-69421708D01*
X122606413Y-69395829D01*
X122578873Y-69375604D01*
X122545577Y-69360561D01*
X122505359Y-69350946D01*
X122456754Y-69347500D01*
X122416315Y-69349961D01*
X122380894Y-69356981D01*
X122349775Y-69368169D01*
X122321217Y-69384319D01*
X122297781Y-69404390D01*
X122278884Y-69428619D01*
X122264953Y-69456066D01*
X122256559Y-69485653D01*
X122253696Y-69517950D01*
X122197541Y-69517950D01*
X122199662Y-69483913D01*
X122205942Y-69451845D01*
X122216255Y-69421736D01*
X122230646Y-69393295D01*
X122248857Y-69367070D01*
X122270165Y-69344334D01*
X122294761Y-69324825D01*
X122322970Y-69308421D01*
X122363371Y-69292441D01*
X122407890Y-69282602D01*
X122457273Y-69279203D01*
X122507264Y-69282770D01*
G37*
D10*
G36*
X126637496Y-106381000D02*
G01*
X126551413Y-106381000D01*
X126551413Y-105831075D01*
X126517159Y-105859574D01*
X126469903Y-105890529D01*
X126420172Y-105917438D01*
X126379289Y-105935110D01*
X126379289Y-105853044D01*
X126426107Y-105828138D01*
X126468053Y-105800435D01*
X126505508Y-105769953D01*
X126539870Y-105735708D01*
X126564862Y-105704270D01*
X126582017Y-105675235D01*
X126637496Y-105675235D01*
X126637496Y-106381000D01*
G37*
G36*
X127161904Y-106381000D02*
G01*
X127161904Y-105677971D01*
X127301501Y-105677971D01*
X127467428Y-106175964D01*
X127500895Y-106280084D01*
X127538209Y-106167330D01*
X127706059Y-105677971D01*
X127830867Y-105677971D01*
X127830867Y-106381000D01*
X127741450Y-106381000D01*
X127741450Y-105792264D01*
X127537739Y-106381000D01*
X127454049Y-106381000D01*
X127251321Y-105782220D01*
X127251321Y-106381000D01*
X127161904Y-106381000D01*
G37*
G36*
X127951444Y-106299618D02*
G01*
X128104462Y-106299618D01*
X128058655Y-106255983D01*
X128022374Y-106210447D01*
X127994704Y-106162765D01*
X127975045Y-106112528D01*
X127963143Y-106059179D01*
X127959095Y-106002045D01*
X127963529Y-105939280D01*
X127976393Y-105882476D01*
X127997349Y-105830690D01*
X128026602Y-105783361D01*
X128062462Y-105743700D01*
X128105402Y-105710968D01*
X128141030Y-105692199D01*
X128180470Y-105678495D01*
X128224312Y-105669984D01*
X128273252Y-105667029D01*
X128336892Y-105671908D01*
X128390237Y-105685628D01*
X128435118Y-105707335D01*
X128475088Y-105737485D01*
X128510569Y-105775700D01*
X128541760Y-105822996D01*
X128564473Y-105874771D01*
X128578640Y-105933971D01*
X128583605Y-106002045D01*
X128579557Y-106059179D01*
X128567654Y-106112528D01*
X128547996Y-106162765D01*
X128520325Y-106210447D01*
X128484045Y-106255983D01*
X128438238Y-106299618D01*
X128591256Y-106299618D01*
X128591256Y-106381000D01*
X128318687Y-106381000D01*
X128318687Y-106304405D01*
X128364263Y-106278705D01*
X128401824Y-106248519D01*
X128432308Y-106213734D01*
X128456288Y-106173912D01*
X128473940Y-106128320D01*
X128485031Y-106075973D01*
X128488931Y-106015679D01*
X128484842Y-105957060D01*
X128473173Y-105905963D01*
X128454496Y-105861208D01*
X128428920Y-105821842D01*
X128396148Y-105788099D01*
X128359790Y-105764673D01*
X128319081Y-105750544D01*
X128272782Y-105745675D01*
X128224987Y-105750634D01*
X128183492Y-105764944D01*
X128146944Y-105788523D01*
X128114506Y-105822312D01*
X128089027Y-105861960D01*
X128070590Y-105906045D01*
X128059184Y-105955350D01*
X128055222Y-106010849D01*
X128059118Y-106072137D01*
X128070194Y-106125362D01*
X128087811Y-106171719D01*
X128111713Y-106212202D01*
X128142044Y-106247557D01*
X128179336Y-106278244D01*
X128224483Y-106304405D01*
X128224483Y-106381000D01*
X127951444Y-106381000D01*
X127951444Y-106299618D01*
G37*
D11*
G36*
X134817163Y-69811732D02*
G01*
X134759033Y-69811732D01*
X134758697Y-69599607D01*
X134944658Y-69599607D01*
X134968885Y-69633188D01*
X134988276Y-69666734D01*
X135003184Y-69700388D01*
X135014122Y-69735422D01*
X135020640Y-69770857D01*
X135022815Y-69806939D01*
X135019196Y-69855342D01*
X135008615Y-69899810D01*
X134991216Y-69941028D01*
X134973501Y-69969531D01*
X134952508Y-69993986D01*
X134928074Y-70014757D01*
X134899870Y-70032039D01*
X134859029Y-70048937D01*
X134814736Y-70059247D01*
X134766299Y-70062783D01*
X134718280Y-70059332D01*
X134672978Y-70049140D01*
X134629859Y-70032222D01*
X134599652Y-70014866D01*
X134574202Y-69994507D01*
X134553010Y-69971059D01*
X134535765Y-69944264D01*
X134518969Y-69904939D01*
X134508611Y-69861159D01*
X134505020Y-69812068D01*
X134507060Y-69776192D01*
X134512965Y-69743605D01*
X134522514Y-69713882D01*
X134536157Y-69685963D01*
X134552412Y-69663257D01*
X134571271Y-69645067D01*
X134593135Y-69630366D01*
X134620014Y-69617643D01*
X134652757Y-69607117D01*
X134669152Y-69666896D01*
X134633655Y-69680220D01*
X134609221Y-69694923D01*
X134596058Y-69707214D01*
X134584419Y-69722961D01*
X134574324Y-69742733D01*
X134564573Y-69775027D01*
X134561196Y-69811732D01*
X134562867Y-69841793D01*
X134567596Y-69867788D01*
X134575057Y-69890286D01*
X134591481Y-69920769D01*
X134611510Y-69943745D01*
X134635294Y-69961864D01*
X134661092Y-69975344D01*
X134692632Y-69985866D01*
X134726163Y-69992273D01*
X134762025Y-69994456D01*
X134806297Y-69991632D01*
X134843321Y-69983739D01*
X134874285Y-69971406D01*
X134902021Y-69953530D01*
X134924177Y-69931304D01*
X134941330Y-69904300D01*
X134953500Y-69874277D01*
X134960774Y-69843195D01*
X134963220Y-69810694D01*
X134961396Y-69782327D01*
X134955920Y-69754402D01*
X134946703Y-69726705D01*
X134928583Y-69688832D01*
X134911441Y-69664515D01*
X134817163Y-69664515D01*
X134817163Y-69811732D01*
G37*
G36*
X135015000Y-69502551D02*
G01*
X134512836Y-69502551D01*
X134512836Y-69434560D01*
X134907105Y-69171571D01*
X134512836Y-69171571D01*
X134512836Y-69108038D01*
X135015000Y-69108038D01*
X135015000Y-69175998D01*
X134620395Y-69439017D01*
X135015000Y-69439017D01*
X135015000Y-69502551D01*
G37*
G36*
X134799191Y-68584389D02*
G01*
X134832834Y-68588938D01*
X134862592Y-68596135D01*
X134904174Y-68611903D01*
X134935712Y-68630299D01*
X134962082Y-68652618D01*
X134981263Y-68675881D01*
X134995561Y-68702489D01*
X135006451Y-68735659D01*
X135012731Y-68772038D01*
X135015000Y-68816076D01*
X135015000Y-68996755D01*
X134512836Y-68996755D01*
X134512836Y-68825296D01*
X134570966Y-68825296D01*
X134570966Y-68930504D01*
X134956870Y-68930504D01*
X134956870Y-68823586D01*
X134954224Y-68776794D01*
X134947588Y-68745887D01*
X134936014Y-68719940D01*
X134921393Y-68700976D01*
X134904443Y-68686924D01*
X134883364Y-68674652D01*
X134857463Y-68664279D01*
X134830385Y-68657276D01*
X134798208Y-68652744D01*
X134760132Y-68651120D01*
X134719413Y-68653062D01*
X134686335Y-68658390D01*
X134659671Y-68666487D01*
X134638346Y-68676919D01*
X134612151Y-68696177D01*
X134593535Y-68716986D01*
X134581316Y-68739567D01*
X134576159Y-68757871D01*
X134572428Y-68785468D01*
X134570966Y-68825296D01*
X134512836Y-68825296D01*
X134512836Y-68824289D01*
X134514932Y-68769336D01*
X134520041Y-68735140D01*
X134528635Y-68707373D01*
X134540630Y-68683036D01*
X134556006Y-68661684D01*
X134580197Y-68637714D01*
X134608611Y-68618011D01*
X134641796Y-68602455D01*
X134677144Y-68591794D01*
X134716733Y-68585121D01*
X134761170Y-68582793D01*
X134799191Y-68584389D01*
G37*
G36*
X122707500Y-68540661D02*
G01*
X122555092Y-68599066D01*
X122555092Y-68808443D01*
X122707500Y-68863428D01*
X122707500Y-68933801D01*
X122205336Y-68741490D01*
X122205336Y-68707326D01*
X122257940Y-68707326D01*
X122305747Y-68718803D01*
X122353561Y-68734315D01*
X122500382Y-68789300D01*
X122500382Y-68619552D01*
X122361743Y-68671820D01*
X122301245Y-68693659D01*
X122257940Y-68707326D01*
X122205336Y-68707326D01*
X122205336Y-68670110D01*
X122707500Y-68465160D01*
X122707500Y-68540661D01*
G37*
G36*
X122491691Y-67999916D02*
G01*
X122525334Y-68004464D01*
X122555092Y-68011662D01*
X122596674Y-68027429D01*
X122628212Y-68045825D01*
X122654582Y-68068145D01*
X122673763Y-68091407D01*
X122688061Y-68118016D01*
X122698951Y-68151185D01*
X122705231Y-68187564D01*
X122707500Y-68231602D01*
X122707500Y-68412281D01*
X122205336Y-68412281D01*
X122205336Y-68240823D01*
X122263466Y-68240823D01*
X122263466Y-68346030D01*
X122649370Y-68346030D01*
X122649370Y-68239113D01*
X122646724Y-68192321D01*
X122640088Y-68161413D01*
X122628514Y-68135466D01*
X122613893Y-68116503D01*
X122596943Y-68102450D01*
X122575864Y-68090178D01*
X122549963Y-68079805D01*
X122522885Y-68072802D01*
X122490708Y-68068271D01*
X122452632Y-68066647D01*
X122411913Y-68068588D01*
X122378835Y-68073917D01*
X122352171Y-68082013D01*
X122330846Y-68092445D01*
X122304651Y-68111703D01*
X122286035Y-68132513D01*
X122273816Y-68155093D01*
X122268659Y-68173397D01*
X122264928Y-68200994D01*
X122263466Y-68240823D01*
X122205336Y-68240823D01*
X122205336Y-68239815D01*
X122207432Y-68184862D01*
X122212541Y-68150666D01*
X122221135Y-68122899D01*
X122233130Y-68098563D01*
X122248506Y-68077210D01*
X122272697Y-68053241D01*
X122301111Y-68033538D01*
X122334296Y-68017981D01*
X122369644Y-68007320D01*
X122409233Y-68000648D01*
X122453670Y-67998320D01*
X122491691Y-67999916D01*
G37*
G36*
X122531645Y-67549921D02*
G01*
X122548375Y-67483670D01*
X122588256Y-67496814D01*
X122621693Y-67513775D01*
X122649576Y-67534364D01*
X122672573Y-67558652D01*
X122691002Y-67586717D01*
X122704286Y-67617750D01*
X122712477Y-67652287D01*
X122715315Y-67691001D01*
X122712995Y-67731831D01*
X122706450Y-67766848D01*
X122696154Y-67796892D01*
X122682373Y-67822679D01*
X122664366Y-67846159D01*
X122642707Y-67866771D01*
X122617051Y-67884669D01*
X122586905Y-67899859D01*
X122544524Y-67914477D01*
X122499924Y-67923327D01*
X122452663Y-67926329D01*
X122401220Y-67922793D01*
X122356064Y-67912675D01*
X122316222Y-67896440D01*
X122288518Y-67879682D01*
X122264757Y-67860019D01*
X122244572Y-67837338D01*
X122227745Y-67811383D01*
X122211037Y-67773616D01*
X122200951Y-67733348D01*
X122197520Y-67689963D01*
X122200077Y-67652598D01*
X122207422Y-67619495D01*
X122219253Y-67590004D01*
X122235531Y-67563598D01*
X122256093Y-67540266D01*
X122280435Y-67520670D01*
X122308986Y-67504638D01*
X122342356Y-67492218D01*
X122357744Y-67557431D01*
X122323009Y-67571700D01*
X122297159Y-67588620D01*
X122278517Y-67607989D01*
X122265049Y-67631226D01*
X122256660Y-67658669D01*
X122253696Y-67691337D01*
X122257006Y-67728949D01*
X122266387Y-67760750D01*
X122281448Y-67787844D01*
X122301993Y-67811069D01*
X122326613Y-67829124D01*
X122355912Y-67842310D01*
X122387390Y-67851027D01*
X122419458Y-67856252D01*
X122452296Y-67858002D01*
X122494717Y-67855772D01*
X122531758Y-67849435D01*
X122564129Y-67839409D01*
X122593885Y-67824311D01*
X122617388Y-67805084D01*
X122635509Y-67781524D01*
X122648668Y-67754528D01*
X122656502Y-67726325D01*
X122659139Y-67696466D01*
X122657021Y-67668994D01*
X122650897Y-67644433D01*
X122640927Y-67622292D01*
X122627021Y-67602189D01*
X122609832Y-67585126D01*
X122588650Y-67570685D01*
X122562856Y-67558876D01*
X122531645Y-67549921D01*
G37*
G36*
X122518518Y-67102850D02*
G01*
X122565314Y-67109180D01*
X122601956Y-67118618D01*
X122636488Y-67133280D01*
X122664061Y-67151352D01*
X122685731Y-67172749D01*
X122701854Y-67198206D01*
X122711811Y-67228158D01*
X122715315Y-67263760D01*
X122711868Y-67298992D01*
X122702018Y-67329058D01*
X122685989Y-67355005D01*
X122663322Y-67377516D01*
X122638614Y-67393547D01*
X122607311Y-67407021D01*
X122568091Y-67417549D01*
X122519409Y-67424501D01*
X122459532Y-67427036D01*
X122400046Y-67424674D01*
X122353041Y-67418285D01*
X122316406Y-67408779D01*
X122281876Y-67394002D01*
X122254369Y-67375868D01*
X122232814Y-67354465D01*
X122216764Y-67329005D01*
X122206863Y-67299146D01*
X122203451Y-67264462D01*
X122254673Y-67264462D01*
X122256947Y-67284717D01*
X122263543Y-67302384D01*
X122274528Y-67318060D01*
X122290485Y-67332086D01*
X122313326Y-67344114D01*
X122346799Y-67354123D01*
X122394198Y-67361146D01*
X122459349Y-67363838D01*
X122525104Y-67361305D01*
X122571459Y-67354788D01*
X122602902Y-67345679D01*
X122623266Y-67334987D01*
X122641820Y-67318947D01*
X122654281Y-67301965D01*
X122661568Y-67283750D01*
X122664024Y-67263760D01*
X122661561Y-67243796D01*
X122654247Y-67225595D01*
X122641733Y-67208614D01*
X122623083Y-67192563D01*
X122602632Y-67181846D01*
X122571158Y-67172728D01*
X122524875Y-67166212D01*
X122459349Y-67163681D01*
X122393386Y-67166222D01*
X122346971Y-67172752D01*
X122315560Y-67181871D01*
X122295279Y-67192563D01*
X122276851Y-67208588D01*
X122264430Y-67225671D01*
X122257138Y-67244111D01*
X122254673Y-67264462D01*
X122203451Y-67264462D01*
X122203382Y-67263760D01*
X122205291Y-67237297D01*
X122210774Y-67213901D01*
X122219624Y-67193082D01*
X122231953Y-67174111D01*
X122247473Y-67157426D01*
X122266489Y-67142859D01*
X122299378Y-67125621D01*
X122341044Y-67111779D01*
X122388810Y-67103709D01*
X122459532Y-67100514D01*
X122518518Y-67102850D01*
G37*
D10*
G36*
X130890189Y-106202375D02*
G01*
X130977725Y-106194682D01*
X130984072Y-106229821D01*
X130993831Y-106258833D01*
X131006619Y-106282689D01*
X131023791Y-106303391D01*
X131046930Y-106321930D01*
X131077144Y-106338297D01*
X131109655Y-106349881D01*
X131145356Y-106357029D01*
X131184770Y-106359497D01*
X131235903Y-106355343D01*
X131278461Y-106343682D01*
X131304271Y-106331228D01*
X131324107Y-106316748D01*
X131338942Y-106300299D01*
X131353901Y-106271277D01*
X131358817Y-106240074D01*
X131353960Y-106208886D01*
X131339669Y-106182329D01*
X131316028Y-106160727D01*
X131276581Y-106140826D01*
X131239769Y-106129109D01*
X131151773Y-106106547D01*
X131062854Y-106081702D01*
X131016450Y-106062650D01*
X130984782Y-106042897D01*
X130960161Y-106021100D01*
X130941608Y-105997211D01*
X130927985Y-105970267D01*
X130919783Y-105941286D01*
X130916988Y-105909718D01*
X130920313Y-105875088D01*
X130930243Y-105842111D01*
X130947079Y-105810213D01*
X130969786Y-105782292D01*
X130998797Y-105758921D01*
X131035086Y-105739944D01*
X131074330Y-105726823D01*
X131117035Y-105718746D01*
X131163741Y-105715966D01*
X131215215Y-105718945D01*
X131260768Y-105727471D01*
X131301200Y-105741098D01*
X131338513Y-105760901D01*
X131368732Y-105785452D01*
X131392755Y-105814957D01*
X131410732Y-105848646D01*
X131422215Y-105885223D01*
X131427205Y-105925361D01*
X131338258Y-105932072D01*
X131329112Y-105889622D01*
X131312820Y-105856731D01*
X131289703Y-105831413D01*
X131260197Y-105813529D01*
X131220488Y-105801738D01*
X131167545Y-105797348D01*
X131111987Y-105801493D01*
X131072423Y-105812331D01*
X131044874Y-105828208D01*
X131023002Y-105850883D01*
X131010559Y-105875371D01*
X131006405Y-105902622D01*
X131009510Y-105926596D01*
X131018512Y-105947034D01*
X131033675Y-105964813D01*
X131054203Y-105977973D01*
X131096834Y-105994520D01*
X131173529Y-106014821D01*
X131277387Y-106041300D01*
X131328684Y-106059530D01*
X131367482Y-106081070D01*
X131397121Y-106104928D01*
X131419041Y-106131081D01*
X131435133Y-106161099D01*
X131444885Y-106194101D01*
X131448235Y-106230842D01*
X131444713Y-106267250D01*
X131434153Y-106302228D01*
X131416178Y-106336373D01*
X131392162Y-106366482D01*
X131361784Y-106392096D01*
X131324153Y-106413395D01*
X131283318Y-106428424D01*
X131238506Y-106437683D01*
X131189044Y-106440879D01*
X131125964Y-106437435D01*
X131073347Y-106427851D01*
X131029572Y-106413010D01*
X130989396Y-106391014D01*
X130956027Y-106363171D01*
X130928700Y-106329107D01*
X130908266Y-106290379D01*
X130895430Y-106248397D01*
X130890189Y-106202375D01*
G37*
G36*
X131577744Y-106429937D02*
G01*
X131577744Y-105726908D01*
X131670496Y-105726908D01*
X131670496Y-106016873D01*
X132034875Y-106016873D01*
X132034875Y-105726908D01*
X132127627Y-105726908D01*
X132127627Y-106429937D01*
X132034875Y-106429937D01*
X132034875Y-106098255D01*
X131670496Y-106098255D01*
X131670496Y-106429937D01*
X131577744Y-106429937D01*
G37*
G36*
X132742007Y-105726908D02*
G01*
X132834758Y-105726908D01*
X132834758Y-106132491D01*
X132831645Y-106203225D01*
X132823270Y-106258319D01*
X132810865Y-106300598D01*
X132790970Y-106339043D01*
X132762566Y-106372621D01*
X132724568Y-106401855D01*
X132681245Y-106422618D01*
X132627458Y-106436022D01*
X132560779Y-106440879D01*
X132495730Y-106436650D01*
X132442709Y-106424958D01*
X132399597Y-106406898D01*
X132361569Y-106380610D01*
X132332043Y-106348051D01*
X132310180Y-106308462D01*
X132296304Y-106264600D01*
X132286921Y-106206996D01*
X132283423Y-106132491D01*
X132283423Y-105726908D01*
X132376217Y-105726908D01*
X132376217Y-106133560D01*
X132378580Y-106195360D01*
X132384667Y-106239084D01*
X132393186Y-106268883D01*
X132407225Y-106295701D01*
X132426476Y-106317879D01*
X132451487Y-106335946D01*
X132479979Y-106348650D01*
X132513374Y-106356661D01*
X132552658Y-106359497D01*
X132604745Y-106355932D01*
X132644866Y-106346306D01*
X132675471Y-106331784D01*
X132698495Y-106312865D01*
X132715219Y-106288788D01*
X132728861Y-106253414D01*
X132738366Y-106203124D01*
X132742007Y-106133560D01*
X132742007Y-105726908D01*
G37*
G36*
X132988161Y-106429937D02*
G01*
X132988161Y-105726908D01*
X133083349Y-105726908D01*
X133451533Y-106278885D01*
X133451533Y-105726908D01*
X133540480Y-105726908D01*
X133540480Y-106429937D01*
X133445335Y-106429937D01*
X133077108Y-105877490D01*
X133077108Y-106429937D01*
X132988161Y-106429937D01*
G37*
G36*
X133874641Y-106429937D02*
G01*
X133874641Y-105808290D01*
X133643660Y-105808290D01*
X133643660Y-105726908D01*
X134199313Y-105726908D01*
X134199313Y-105808290D01*
X133967392Y-105808290D01*
X133967392Y-106429937D01*
X133874641Y-106429937D01*
G37*
G36*
X134551938Y-106429937D02*
G01*
X134551938Y-105726908D01*
X134644690Y-105726908D01*
X134644690Y-106016873D01*
X135009069Y-106016873D01*
X135009069Y-105726908D01*
X135101821Y-105726908D01*
X135101821Y-106429937D01*
X135009069Y-106429937D01*
X135009069Y-106098255D01*
X134644690Y-106098255D01*
X134644690Y-106429937D01*
X134551938Y-106429937D01*
G37*
G36*
X135258087Y-106429937D02*
G01*
X135258087Y-105726908D01*
X135764970Y-105726908D01*
X135764970Y-105808290D01*
X135350881Y-105808290D01*
X135350881Y-106025080D01*
X135738684Y-106025080D01*
X135738684Y-106106461D01*
X135350881Y-106106461D01*
X135350881Y-106348555D01*
X135781255Y-106348555D01*
X135781255Y-106429937D01*
X135258087Y-106429937D01*
G37*
G36*
X136284458Y-105729456D02*
G01*
X136330808Y-105736137D01*
X136364049Y-105745715D01*
X136394182Y-105761319D01*
X136419999Y-105783216D01*
X136441969Y-105812136D01*
X136458157Y-105844882D01*
X136467867Y-105879728D01*
X136471162Y-105917283D01*
X136468023Y-105953623D01*
X136458913Y-105986152D01*
X136443963Y-106015594D01*
X136422863Y-106042476D01*
X136397422Y-106064239D01*
X136365035Y-106082503D01*
X136324350Y-106097023D01*
X136273692Y-106107188D01*
X136307753Y-106126042D01*
X136329599Y-106142493D01*
X136368218Y-106183785D01*
X136406621Y-106236869D01*
X136528522Y-106429937D01*
X136411878Y-106429937D01*
X136319084Y-106282218D01*
X136252149Y-106184424D01*
X136225535Y-106153893D01*
X136205047Y-106136937D01*
X136183763Y-106125306D01*
X136162732Y-106118044D01*
X136111099Y-106114668D01*
X136003516Y-106114668D01*
X136003516Y-106429937D01*
X135910722Y-106429937D01*
X135910722Y-106036022D01*
X136003516Y-106036022D01*
X136202910Y-106036022D01*
X136262913Y-106032306D01*
X136302372Y-106022985D01*
X136324805Y-106012254D01*
X136342762Y-105998351D01*
X136356869Y-105981140D01*
X136370864Y-105951072D01*
X136375504Y-105918651D01*
X136371400Y-105887336D01*
X136359489Y-105860635D01*
X136339387Y-105837397D01*
X136313339Y-105820867D01*
X136276522Y-105809764D01*
X136225393Y-105805554D01*
X136003516Y-105805554D01*
X136003516Y-106036022D01*
X135910722Y-106036022D01*
X135910722Y-105726908D01*
X136221546Y-105726908D01*
X136284458Y-105729456D01*
G37*
G36*
X136618324Y-106429937D02*
G01*
X136618324Y-105726908D01*
X137125208Y-105726908D01*
X137125208Y-105808290D01*
X136711118Y-105808290D01*
X136711118Y-106025080D01*
X137098921Y-106025080D01*
X137098921Y-106106461D01*
X136711118Y-106106461D01*
X136711118Y-106348555D01*
X137141493Y-106348555D01*
X137141493Y-106429937D01*
X136618324Y-106429937D01*
G37*
D11*
G36*
X124726839Y-91459998D02*
G01*
X124793090Y-91459998D01*
X124793090Y-91749701D01*
X124790866Y-91800225D01*
X124784884Y-91839578D01*
X124776023Y-91869777D01*
X124761812Y-91897238D01*
X124741524Y-91921222D01*
X124714382Y-91942103D01*
X124683437Y-91956934D01*
X124645018Y-91966509D01*
X124597390Y-91969977D01*
X124550926Y-91966957D01*
X124513054Y-91958606D01*
X124482260Y-91945706D01*
X124455097Y-91926928D01*
X124434007Y-91903672D01*
X124418391Y-91875394D01*
X124408479Y-91844064D01*
X124401777Y-91802918D01*
X124399279Y-91749701D01*
X124399279Y-91459998D01*
X124465560Y-91459998D01*
X124465560Y-91750464D01*
X124467248Y-91794607D01*
X124471596Y-91825838D01*
X124477681Y-91847123D01*
X124487708Y-91866279D01*
X124501460Y-91882120D01*
X124519324Y-91895025D01*
X124539676Y-91904099D01*
X124563529Y-91909822D01*
X124591589Y-91911847D01*
X124628794Y-91909301D01*
X124657452Y-91902426D01*
X124679313Y-91892053D01*
X124695759Y-91878539D01*
X124707705Y-91861341D01*
X124717449Y-91836074D01*
X124724238Y-91800152D01*
X124726839Y-91750464D01*
X124726839Y-91459998D01*
G37*
G36*
X125109995Y-91962162D02*
G01*
X125048507Y-91962162D01*
X125048507Y-91569358D01*
X125024039Y-91589715D01*
X124990285Y-91611826D01*
X124954763Y-91631046D01*
X124925561Y-91643669D01*
X124925561Y-91585051D01*
X124959002Y-91567260D01*
X124988964Y-91547472D01*
X125015717Y-91525700D01*
X125040262Y-91501239D01*
X125058113Y-91478783D01*
X125070366Y-91458044D01*
X125109995Y-91458044D01*
X125109995Y-91962162D01*
G37*
G36*
X122101742Y-110233183D02*
G01*
X122161520Y-110224970D01*
X122165690Y-110263227D01*
X122173250Y-110288272D01*
X122183013Y-110303860D01*
X122197045Y-110315450D01*
X122214372Y-110322576D01*
X122235984Y-110325109D01*
X122259599Y-110322130D01*
X122279001Y-110313630D01*
X122294331Y-110300037D01*
X122303944Y-110282428D01*
X122308735Y-110259751D01*
X122310783Y-110219505D01*
X122310783Y-109873260D01*
X122377034Y-109873260D01*
X122377034Y-110214956D01*
X122375019Y-110257012D01*
X122369664Y-110288825D01*
X122361830Y-110312439D01*
X122349676Y-110333721D01*
X122333751Y-110351137D01*
X122313683Y-110365104D01*
X122291049Y-110374975D01*
X122265453Y-110381102D01*
X122236319Y-110383239D01*
X122203574Y-110380591D01*
X122176495Y-110373174D01*
X122154028Y-110361462D01*
X122135386Y-110345473D01*
X122120981Y-110325770D01*
X122110311Y-110301245D01*
X122103664Y-110270829D01*
X122101742Y-110233183D01*
G37*
G36*
X122460382Y-110242555D02*
G01*
X122524923Y-110237090D01*
X122532329Y-110267474D01*
X122543550Y-110290684D01*
X122558231Y-110308165D01*
X122576804Y-110321354D01*
X122597580Y-110329240D01*
X122621246Y-110331948D01*
X122642727Y-110329823D01*
X122662122Y-110323605D01*
X122679902Y-110313253D01*
X122696381Y-110298365D01*
X122709491Y-110280777D01*
X122719040Y-110260439D01*
X122725019Y-110236830D01*
X122727125Y-110209277D01*
X122725083Y-110183078D01*
X122719314Y-110160914D01*
X122710138Y-110142075D01*
X122697572Y-110126021D01*
X122676202Y-110109274D01*
X122650818Y-110099093D01*
X122620239Y-110095521D01*
X122591709Y-110099020D01*
X122566597Y-110109260D01*
X122545104Y-110125158D01*
X122529044Y-110144858D01*
X122471311Y-110137348D01*
X122519824Y-109879122D01*
X122768799Y-109879122D01*
X122768799Y-109937252D01*
X122569009Y-109937252D01*
X122542020Y-110073478D01*
X122573267Y-110055284D01*
X122604600Y-110044767D01*
X122636633Y-110041299D01*
X122668569Y-110044231D01*
X122697244Y-110052769D01*
X122723324Y-110066862D01*
X122747275Y-110086912D01*
X122766803Y-110111039D01*
X122780769Y-110138200D01*
X122789373Y-110168988D01*
X122792369Y-110204209D01*
X122789789Y-110237833D01*
X122782282Y-110268366D01*
X122769982Y-110296341D01*
X122752740Y-110322179D01*
X122732027Y-110344202D01*
X122708931Y-110361057D01*
X122683134Y-110373170D01*
X122654127Y-110380642D01*
X122621246Y-110383239D01*
X122587426Y-110380635D01*
X122558036Y-110373194D01*
X122532326Y-110361229D01*
X122509719Y-110344710D01*
X122490609Y-110324106D01*
X122476100Y-110300556D01*
X122465982Y-110273593D01*
X122460382Y-110242555D01*
G37*
G36*
X129261241Y-105120598D02*
G01*
X129294348Y-105125371D01*
X129318092Y-105132212D01*
X129339615Y-105143357D01*
X129358056Y-105158998D01*
X129373748Y-105179656D01*
X129385311Y-105203046D01*
X129392247Y-105227935D01*
X129394601Y-105254760D01*
X129392359Y-105280717D01*
X129385852Y-105303953D01*
X129375173Y-105324982D01*
X129360101Y-105344184D01*
X129341929Y-105359729D01*
X129318796Y-105372775D01*
X129289735Y-105383146D01*
X129253550Y-105390407D01*
X129277880Y-105403874D01*
X129293484Y-105415625D01*
X129321069Y-105445119D01*
X129348500Y-105483036D01*
X129435572Y-105620942D01*
X129352255Y-105620942D01*
X129285974Y-105515429D01*
X129238163Y-105445575D01*
X129219153Y-105423768D01*
X129204519Y-105411656D01*
X129189316Y-105403349D01*
X129174294Y-105398161D01*
X129137413Y-105395750D01*
X129060568Y-105395750D01*
X129060568Y-105620942D01*
X128994287Y-105620942D01*
X128994287Y-105339574D01*
X129060568Y-105339574D01*
X129202992Y-105339574D01*
X129245851Y-105336920D01*
X129274036Y-105330262D01*
X129290060Y-105322597D01*
X129302886Y-105312666D01*
X129312963Y-105300373D01*
X129322959Y-105278896D01*
X129326274Y-105255737D01*
X129323342Y-105233370D01*
X129314834Y-105214298D01*
X129300476Y-105197699D01*
X129281870Y-105185892D01*
X129255572Y-105177961D01*
X129219051Y-105174954D01*
X129060568Y-105174954D01*
X129060568Y-105339574D01*
X128994287Y-105339574D01*
X128994287Y-105118778D01*
X129216303Y-105118778D01*
X129261241Y-105120598D01*
G37*
G36*
X129705003Y-105620942D02*
G01*
X129643515Y-105620942D01*
X129643515Y-105228138D01*
X129619047Y-105248495D01*
X129585293Y-105270606D01*
X129549771Y-105289826D01*
X129520569Y-105302449D01*
X129520569Y-105243831D01*
X129554010Y-105226040D01*
X129583972Y-105206252D01*
X129610725Y-105184480D01*
X129635270Y-105160019D01*
X129653121Y-105137563D01*
X129665374Y-105116824D01*
X129705003Y-105116824D01*
X129705003Y-105620942D01*
G37*
G36*
X129862601Y-105488440D02*
G01*
X129924089Y-105480258D01*
X129933642Y-105513701D01*
X129945803Y-105537828D01*
X129960114Y-105554691D01*
X129978194Y-105567278D01*
X129998631Y-105574852D01*
X130022122Y-105577466D01*
X130049804Y-105574071D01*
X130073923Y-105564174D01*
X130095364Y-105547516D01*
X130111943Y-105525986D01*
X130121843Y-105501544D01*
X130125253Y-105473266D01*
X130122057Y-105446273D01*
X130112860Y-105423375D01*
X130097593Y-105403626D01*
X130077702Y-105388518D01*
X130054573Y-105379388D01*
X130027251Y-105376210D01*
X130008917Y-105377731D01*
X129983867Y-105383049D01*
X129990675Y-105329102D01*
X130000598Y-105329804D01*
X130026161Y-105327482D01*
X130049565Y-105320671D01*
X130071276Y-105309349D01*
X130084920Y-105297847D01*
X130094586Y-105283873D01*
X130100589Y-105266940D01*
X130102722Y-105246242D01*
X130100095Y-105224682D01*
X130092503Y-105206278D01*
X130079824Y-105190280D01*
X130063397Y-105178130D01*
X130043988Y-105170716D01*
X130020748Y-105168115D01*
X129997717Y-105170703D01*
X129978042Y-105178152D01*
X129960969Y-105190463D01*
X129947562Y-105206824D01*
X129937192Y-105228704D01*
X129930225Y-105257508D01*
X129868768Y-105246578D01*
X129876583Y-105216276D01*
X129887802Y-105190638D01*
X129902253Y-105168982D01*
X129919998Y-105150805D01*
X129940839Y-105136142D01*
X129964036Y-105125591D01*
X129990026Y-105119084D01*
X130019374Y-105116824D01*
X130046277Y-105118829D01*
X130071330Y-105124724D01*
X130094875Y-105134471D01*
X130116403Y-105147894D01*
X130133837Y-105163872D01*
X130147632Y-105182556D01*
X130157863Y-105203473D01*
X130163902Y-105224929D01*
X130165920Y-105247250D01*
X130163959Y-105268408D01*
X130158171Y-105288027D01*
X130148487Y-105306479D01*
X130135404Y-105322670D01*
X130118419Y-105336800D01*
X130096921Y-105348916D01*
X130124919Y-105358468D01*
X130147618Y-105372603D01*
X130165889Y-105391414D01*
X130179272Y-105414054D01*
X130187573Y-105440630D01*
X130190497Y-105472106D01*
X130187456Y-105503883D01*
X130178569Y-105532581D01*
X130163816Y-105558868D01*
X130142686Y-105583206D01*
X130117481Y-105602957D01*
X130089344Y-105617070D01*
X130057703Y-105625745D01*
X130021786Y-105628757D01*
X129989271Y-105626160D01*
X129960604Y-105618685D01*
X129935117Y-105606563D01*
X129912304Y-105589678D01*
X129892939Y-105568785D01*
X129878319Y-105545253D01*
X129868184Y-105518670D01*
X129862601Y-105488440D01*
G37*
G36*
X136505336Y-102364418D02*
G01*
X136505336Y-102298167D01*
X136795039Y-102298167D01*
X136845563Y-102300391D01*
X136884916Y-102306373D01*
X136915115Y-102315234D01*
X136942576Y-102329445D01*
X136966560Y-102349733D01*
X136987441Y-102376875D01*
X137002272Y-102407820D01*
X137011847Y-102446239D01*
X137015315Y-102493867D01*
X137012295Y-102540331D01*
X137003944Y-102578203D01*
X136991044Y-102608997D01*
X136972266Y-102636160D01*
X136949010Y-102657250D01*
X136920732Y-102672866D01*
X136889402Y-102682778D01*
X136848256Y-102689480D01*
X136795039Y-102691978D01*
X136505336Y-102691978D01*
X136505336Y-102625697D01*
X136795802Y-102625697D01*
X136839945Y-102624009D01*
X136871176Y-102619661D01*
X136892461Y-102613576D01*
X136911617Y-102603549D01*
X136927458Y-102589797D01*
X136940363Y-102571933D01*
X136949437Y-102551581D01*
X136955160Y-102527728D01*
X136957185Y-102499668D01*
X136954639Y-102462463D01*
X136947764Y-102433805D01*
X136937391Y-102411944D01*
X136923877Y-102395498D01*
X136906679Y-102383552D01*
X136881412Y-102373808D01*
X136845490Y-102367019D01*
X136795802Y-102364418D01*
X136505336Y-102364418D01*
G37*
G36*
X136949370Y-101889732D02*
G01*
X137007500Y-101889732D01*
X137007500Y-102220681D01*
X136985732Y-102219234D01*
X136964879Y-102213507D01*
X136932130Y-102197519D01*
X136898415Y-102173054D01*
X136865350Y-102141369D01*
X136822730Y-102092606D01*
X136775991Y-102038579D01*
X136741319Y-102003381D01*
X136716179Y-101982300D01*
X136688905Y-101965592D01*
X136664371Y-101956460D01*
X136641837Y-101953602D01*
X136618477Y-101956551D01*
X136598091Y-101965168D01*
X136579922Y-101979736D01*
X136566115Y-101998498D01*
X136557653Y-102020863D01*
X136554673Y-102047849D01*
X136557859Y-102076350D01*
X136566863Y-102099656D01*
X136581509Y-102118924D01*
X136600917Y-102133344D01*
X136625215Y-102142456D01*
X136655790Y-102145882D01*
X136649256Y-102209080D01*
X136614038Y-102203155D01*
X136584842Y-102192854D01*
X136560656Y-102178547D01*
X136540721Y-102160231D01*
X136524906Y-102138157D01*
X136513293Y-102112348D01*
X136505973Y-102082096D01*
X136503382Y-102046506D01*
X136506156Y-102010703D01*
X136513997Y-101980351D01*
X136526473Y-101954498D01*
X136543560Y-101932414D01*
X136564973Y-101913939D01*
X136588376Y-101900965D01*
X136614206Y-101893106D01*
X136643089Y-101890404D01*
X136672859Y-101893444D01*
X136702471Y-101902708D01*
X136731192Y-101918249D01*
X136763928Y-101943527D01*
X136798411Y-101977461D01*
X136852466Y-102038293D01*
X136895903Y-102088431D01*
X136915878Y-102109368D01*
X136932888Y-102123939D01*
X136949370Y-102135288D01*
X136949370Y-101889732D01*
G37*
G36*
X128634464Y-67383667D02*
G01*
X128694242Y-67375454D01*
X128698412Y-67413711D01*
X128705972Y-67438756D01*
X128715735Y-67454344D01*
X128729767Y-67465934D01*
X128747094Y-67473060D01*
X128768706Y-67475593D01*
X128792321Y-67472614D01*
X128811723Y-67464114D01*
X128827053Y-67450521D01*
X128836666Y-67432912D01*
X128841457Y-67410235D01*
X128843505Y-67369989D01*
X128843505Y-67023744D01*
X128909756Y-67023744D01*
X128909756Y-67365440D01*
X128907741Y-67407496D01*
X128902386Y-67439309D01*
X128894552Y-67462923D01*
X128882398Y-67484205D01*
X128866473Y-67501621D01*
X128846405Y-67515588D01*
X128823771Y-67525459D01*
X128798175Y-67531586D01*
X128769041Y-67533723D01*
X128736296Y-67531075D01*
X128709217Y-67523658D01*
X128686750Y-67511946D01*
X128668108Y-67495957D01*
X128653703Y-67476254D01*
X128643033Y-67451729D01*
X128636386Y-67421313D01*
X128634464Y-67383667D01*
G37*
G36*
X129224676Y-67525908D02*
G01*
X129163188Y-67525908D01*
X129163188Y-67133104D01*
X129138721Y-67153461D01*
X129104967Y-67175572D01*
X129069444Y-67194792D01*
X129040242Y-67207415D01*
X129040242Y-67148797D01*
X129073684Y-67131006D01*
X129103645Y-67111218D01*
X129130399Y-67089446D01*
X129154943Y-67064985D01*
X129172794Y-67042529D01*
X129185048Y-67021790D01*
X129224676Y-67021790D01*
X129224676Y-67525908D01*
G37*
G36*
X128717163Y-69831732D02*
G01*
X128659033Y-69831732D01*
X128658697Y-69619607D01*
X128844658Y-69619607D01*
X128868885Y-69653188D01*
X128888276Y-69686734D01*
X128903184Y-69720388D01*
X128914122Y-69755422D01*
X128920640Y-69790857D01*
X128922815Y-69826939D01*
X128919196Y-69875342D01*
X128908615Y-69919810D01*
X128891216Y-69961028D01*
X128873501Y-69989531D01*
X128852508Y-70013986D01*
X128828074Y-70034757D01*
X128799870Y-70052039D01*
X128759029Y-70068937D01*
X128714736Y-70079247D01*
X128666299Y-70082783D01*
X128618280Y-70079332D01*
X128572978Y-70069140D01*
X128529859Y-70052222D01*
X128499652Y-70034866D01*
X128474202Y-70014507D01*
X128453010Y-69991059D01*
X128435765Y-69964264D01*
X128418969Y-69924939D01*
X128408611Y-69881159D01*
X128405020Y-69832068D01*
X128407060Y-69796192D01*
X128412965Y-69763605D01*
X128422514Y-69733882D01*
X128436157Y-69705963D01*
X128452412Y-69683257D01*
X128471271Y-69665067D01*
X128493135Y-69650366D01*
X128520014Y-69637643D01*
X128552757Y-69627117D01*
X128569152Y-69686896D01*
X128533655Y-69700220D01*
X128509221Y-69714923D01*
X128496058Y-69727214D01*
X128484419Y-69742961D01*
X128474324Y-69762733D01*
X128464573Y-69795027D01*
X128461196Y-69831732D01*
X128462867Y-69861793D01*
X128467596Y-69887788D01*
X128475057Y-69910286D01*
X128491481Y-69940769D01*
X128511510Y-69963745D01*
X128535294Y-69981864D01*
X128561092Y-69995344D01*
X128592632Y-70005866D01*
X128626163Y-70012273D01*
X128662025Y-70014456D01*
X128706297Y-70011632D01*
X128743321Y-70003739D01*
X128774285Y-69991406D01*
X128802021Y-69973530D01*
X128824177Y-69951304D01*
X128841330Y-69924300D01*
X128853500Y-69894277D01*
X128860774Y-69863195D01*
X128863220Y-69830694D01*
X128861396Y-69802327D01*
X128855920Y-69774402D01*
X128846703Y-69746705D01*
X128828583Y-69708832D01*
X128811441Y-69684515D01*
X128717163Y-69684515D01*
X128717163Y-69831732D01*
G37*
G36*
X128915000Y-69522551D02*
G01*
X128412836Y-69522551D01*
X128412836Y-69454560D01*
X128807105Y-69191571D01*
X128412836Y-69191571D01*
X128412836Y-69128038D01*
X128915000Y-69128038D01*
X128915000Y-69195998D01*
X128520395Y-69459017D01*
X128915000Y-69459017D01*
X128915000Y-69522551D01*
G37*
G36*
X128699191Y-68604389D02*
G01*
X128732834Y-68608938D01*
X128762592Y-68616135D01*
X128804174Y-68631903D01*
X128835712Y-68650299D01*
X128862082Y-68672618D01*
X128881263Y-68695881D01*
X128895561Y-68722489D01*
X128906451Y-68755659D01*
X128912731Y-68792038D01*
X128915000Y-68836076D01*
X128915000Y-69016755D01*
X128412836Y-69016755D01*
X128412836Y-68845296D01*
X128470966Y-68845296D01*
X128470966Y-68950504D01*
X128856870Y-68950504D01*
X128856870Y-68843586D01*
X128854224Y-68796794D01*
X128847588Y-68765887D01*
X128836014Y-68739940D01*
X128821393Y-68720976D01*
X128804443Y-68706924D01*
X128783364Y-68694652D01*
X128757463Y-68684279D01*
X128730385Y-68677276D01*
X128698208Y-68672744D01*
X128660132Y-68671120D01*
X128619413Y-68673062D01*
X128586335Y-68678390D01*
X128559671Y-68686487D01*
X128538346Y-68696919D01*
X128512151Y-68716177D01*
X128493535Y-68736986D01*
X128481316Y-68759567D01*
X128476159Y-68777871D01*
X128472428Y-68805468D01*
X128470966Y-68845296D01*
X128412836Y-68845296D01*
X128412836Y-68844289D01*
X128414932Y-68789336D01*
X128420041Y-68755140D01*
X128428635Y-68727373D01*
X128440630Y-68703036D01*
X128456006Y-68681684D01*
X128480197Y-68657714D01*
X128508611Y-68638011D01*
X128541796Y-68622455D01*
X128577144Y-68611794D01*
X128616733Y-68605121D01*
X128661170Y-68602793D01*
X128699191Y-68604389D01*
G37*
G36*
X131589411Y-91065431D02*
G01*
X131483898Y-91131712D01*
X131414044Y-91179523D01*
X131392237Y-91198533D01*
X131380125Y-91213167D01*
X131371818Y-91228370D01*
X131366630Y-91243392D01*
X131364219Y-91280273D01*
X131364219Y-91357118D01*
X131589411Y-91357118D01*
X131589411Y-91423399D01*
X131087247Y-91423399D01*
X131087247Y-91201383D01*
X131087358Y-91198635D01*
X131143423Y-91198635D01*
X131143423Y-91357118D01*
X131308043Y-91357118D01*
X131308043Y-91214694D01*
X131305389Y-91171835D01*
X131298731Y-91143650D01*
X131291066Y-91127626D01*
X131281135Y-91114800D01*
X131268842Y-91104723D01*
X131247365Y-91094727D01*
X131224206Y-91091412D01*
X131201839Y-91094344D01*
X131182767Y-91102852D01*
X131166168Y-91117210D01*
X131154361Y-91135816D01*
X131146430Y-91162114D01*
X131143423Y-91198635D01*
X131087358Y-91198635D01*
X131089067Y-91156445D01*
X131093840Y-91123338D01*
X131100681Y-91099594D01*
X131111826Y-91078071D01*
X131127467Y-91059630D01*
X131148125Y-91043938D01*
X131171515Y-91032375D01*
X131196404Y-91025439D01*
X131223229Y-91023085D01*
X131249186Y-91025327D01*
X131272422Y-91031834D01*
X131293451Y-91042513D01*
X131312653Y-91057585D01*
X131328198Y-91075757D01*
X131341244Y-91098890D01*
X131351615Y-91127951D01*
X131358876Y-91164136D01*
X131372343Y-91139806D01*
X131384094Y-91124202D01*
X131413588Y-91096617D01*
X131451505Y-91069186D01*
X131589411Y-90982114D01*
X131589411Y-91065431D01*
G37*
G36*
X131469732Y-90685694D02*
G01*
X131589411Y-90685694D01*
X131589411Y-90747182D01*
X131469732Y-90747182D01*
X131469732Y-90964406D01*
X131413556Y-90964406D01*
X131105192Y-90747182D01*
X131187875Y-90747182D01*
X131413556Y-90903956D01*
X131413556Y-90747182D01*
X131187875Y-90747182D01*
X131105192Y-90747182D01*
X131089201Y-90735917D01*
X131089201Y-90685694D01*
X131413556Y-90685694D01*
X131413556Y-90618070D01*
X131469732Y-90618070D01*
X131469732Y-90685694D01*
G37*
G36*
X136167784Y-78318344D02*
G01*
X136200891Y-78323117D01*
X136224635Y-78329958D01*
X136246158Y-78341103D01*
X136264599Y-78356744D01*
X136280291Y-78377402D01*
X136291854Y-78400792D01*
X136298790Y-78425681D01*
X136301144Y-78452506D01*
X136298902Y-78478463D01*
X136292395Y-78501699D01*
X136281716Y-78522728D01*
X136266644Y-78541930D01*
X136248472Y-78557475D01*
X136225339Y-78570521D01*
X136196278Y-78580892D01*
X136160093Y-78588153D01*
X136184423Y-78601620D01*
X136200027Y-78613371D01*
X136227612Y-78642865D01*
X136255043Y-78680782D01*
X136342115Y-78818688D01*
X136258798Y-78818688D01*
X136192517Y-78713175D01*
X136144706Y-78643321D01*
X136125696Y-78621514D01*
X136111062Y-78609402D01*
X136095859Y-78601095D01*
X136080837Y-78595907D01*
X136043956Y-78593496D01*
X135967111Y-78593496D01*
X135967111Y-78818688D01*
X135900830Y-78818688D01*
X135900830Y-78537320D01*
X135967111Y-78537320D01*
X136109535Y-78537320D01*
X136152394Y-78534666D01*
X136180579Y-78528008D01*
X136196603Y-78520343D01*
X136209429Y-78510412D01*
X136219506Y-78498119D01*
X136229502Y-78476642D01*
X136232817Y-78453483D01*
X136229885Y-78431116D01*
X136221377Y-78412044D01*
X136207019Y-78395445D01*
X136188413Y-78383638D01*
X136162115Y-78375707D01*
X136125594Y-78372700D01*
X135967111Y-78372700D01*
X135967111Y-78537320D01*
X135900830Y-78537320D01*
X135900830Y-78316524D01*
X136122846Y-78316524D01*
X136167784Y-78318344D01*
G37*
G36*
X136611546Y-78818688D02*
G01*
X136550058Y-78818688D01*
X136550058Y-78425884D01*
X136525590Y-78446241D01*
X136491836Y-78468352D01*
X136456314Y-78487572D01*
X136427112Y-78500195D01*
X136427112Y-78441577D01*
X136460553Y-78423786D01*
X136490515Y-78403998D01*
X136517268Y-78382226D01*
X136541813Y-78357765D01*
X136559664Y-78335309D01*
X136571917Y-78314570D01*
X136611546Y-78314570D01*
X136611546Y-78818688D01*
G37*
G36*
X136975014Y-78316800D02*
G01*
X137000517Y-78323174D01*
X137022873Y-78333425D01*
X137042573Y-78347574D01*
X137059221Y-78365221D01*
X137072292Y-78385955D01*
X137081883Y-78410253D01*
X137087819Y-78438768D01*
X137026698Y-78443530D01*
X137015995Y-78411054D01*
X137003464Y-78391751D01*
X136985484Y-78377331D01*
X136965243Y-78368789D01*
X136941976Y-78365861D01*
X136922934Y-78367725D01*
X136905888Y-78373158D01*
X136890410Y-78382164D01*
X136872928Y-78397819D01*
X136857659Y-78418075D01*
X136844615Y-78443714D01*
X136835969Y-78471284D01*
X136829848Y-78508847D01*
X136827212Y-78558905D01*
X136843474Y-78537928D01*
X136861521Y-78521373D01*
X136881495Y-78508774D01*
X136903381Y-78499623D01*
X136925734Y-78494194D01*
X136948815Y-78492379D01*
X136978607Y-78495253D01*
X137005604Y-78503666D01*
X137030427Y-78517662D01*
X137053503Y-78537747D01*
X137072120Y-78561624D01*
X137085515Y-78588682D01*
X137093807Y-78619531D01*
X137096704Y-78654984D01*
X137094406Y-78686004D01*
X137087625Y-78715160D01*
X137076370Y-78742820D01*
X137060851Y-78768135D01*
X137042296Y-78788666D01*
X137020530Y-78804949D01*
X136996074Y-78816819D01*
X136969382Y-78824030D01*
X136939930Y-78826503D01*
X136902661Y-78822839D01*
X136869919Y-78812240D01*
X136840763Y-78794788D01*
X136814573Y-78769900D01*
X136798798Y-78747354D01*
X136785602Y-78718758D01*
X136775318Y-78682890D01*
X136771063Y-78654923D01*
X136836768Y-78654923D01*
X136840135Y-78685995D01*
X136850263Y-78715770D01*
X136860701Y-78733942D01*
X136873247Y-78748542D01*
X136887998Y-78760008D01*
X136913088Y-78771480D01*
X136938892Y-78775212D01*
X136963488Y-78771768D01*
X136985539Y-78761529D01*
X137005845Y-78743797D01*
X137020922Y-78721308D01*
X137030425Y-78693324D01*
X137033842Y-78658342D01*
X137030470Y-78624768D01*
X137021092Y-78597987D01*
X137006181Y-78576521D01*
X136986123Y-78559884D01*
X136963212Y-78550003D01*
X136936511Y-78546601D01*
X136909985Y-78549965D01*
X136886697Y-78559818D01*
X136865803Y-78576521D01*
X136849939Y-78598022D01*
X136840202Y-78623757D01*
X136836768Y-78654923D01*
X136771063Y-78654923D01*
X136768534Y-78638303D01*
X136766060Y-78583360D01*
X136768770Y-78522042D01*
X136776228Y-78471852D01*
X136787579Y-78431089D01*
X136802193Y-78398243D01*
X136819702Y-78372028D01*
X136839765Y-78351305D01*
X136862020Y-78335436D01*
X136886765Y-78324034D01*
X136914467Y-78317008D01*
X136945731Y-78314570D01*
X136975014Y-78316800D01*
G37*
G36*
X134558320Y-83207855D02*
G01*
X134591427Y-83212628D01*
X134615171Y-83219469D01*
X134636694Y-83230614D01*
X134655135Y-83246255D01*
X134670827Y-83266913D01*
X134682390Y-83290303D01*
X134689326Y-83315192D01*
X134691680Y-83342017D01*
X134689438Y-83367974D01*
X134682931Y-83391210D01*
X134672252Y-83412239D01*
X134657180Y-83431441D01*
X134639008Y-83446986D01*
X134615875Y-83460032D01*
X134586814Y-83470403D01*
X134550629Y-83477664D01*
X134574959Y-83491131D01*
X134590563Y-83502882D01*
X134618148Y-83532376D01*
X134645579Y-83570293D01*
X134732651Y-83708199D01*
X134649334Y-83708199D01*
X134583053Y-83602686D01*
X134535242Y-83532832D01*
X134516232Y-83511025D01*
X134501598Y-83498913D01*
X134486395Y-83490606D01*
X134471373Y-83485418D01*
X134434492Y-83483007D01*
X134357647Y-83483007D01*
X134357647Y-83708199D01*
X134291366Y-83708199D01*
X134291366Y-83426831D01*
X134357647Y-83426831D01*
X134500071Y-83426831D01*
X134542930Y-83424177D01*
X134571115Y-83417519D01*
X134587139Y-83409854D01*
X134599965Y-83399923D01*
X134610042Y-83387630D01*
X134620038Y-83366153D01*
X134623353Y-83342994D01*
X134620421Y-83320627D01*
X134611913Y-83301555D01*
X134597555Y-83284956D01*
X134578949Y-83273149D01*
X134552651Y-83265218D01*
X134516130Y-83262211D01*
X134357647Y-83262211D01*
X134357647Y-83426831D01*
X134291366Y-83426831D01*
X134291366Y-83206035D01*
X134513382Y-83206035D01*
X134558320Y-83207855D01*
G37*
G36*
X135002082Y-83708199D02*
G01*
X134940594Y-83708199D01*
X134940594Y-83315395D01*
X134916126Y-83335752D01*
X134882372Y-83357863D01*
X134846850Y-83377083D01*
X134817648Y-83389706D01*
X134817648Y-83331088D01*
X134851089Y-83313297D01*
X134881051Y-83293509D01*
X134907804Y-83271737D01*
X134932349Y-83247276D01*
X134950200Y-83224820D01*
X134962453Y-83204081D01*
X135002082Y-83204081D01*
X135002082Y-83708199D01*
G37*
G36*
X135163435Y-83270027D02*
G01*
X135163435Y-83211897D01*
X135487576Y-83211897D01*
X135487576Y-83259708D01*
X135457593Y-83295187D01*
X135426023Y-83339999D01*
X135392779Y-83395598D01*
X135363666Y-83453023D01*
X135339528Y-83511076D01*
X135320208Y-83569896D01*
X135309603Y-83612340D01*
X135301686Y-83658337D01*
X135296639Y-83708199D01*
X135233471Y-83708199D01*
X135236149Y-83668776D01*
X135243558Y-83621279D01*
X135256674Y-83564431D01*
X135273592Y-83509039D01*
X135294800Y-83454916D01*
X135320391Y-83401918D01*
X135349756Y-83350688D01*
X135379200Y-83306980D01*
X135408685Y-83270027D01*
X135163435Y-83270027D01*
G37*
G36*
X134881765Y-84741110D02*
G01*
X134914872Y-84745883D01*
X134938616Y-84752724D01*
X134960139Y-84763869D01*
X134978580Y-84779510D01*
X134994272Y-84800168D01*
X135005835Y-84823558D01*
X135012771Y-84848447D01*
X135015125Y-84875272D01*
X135012883Y-84901229D01*
X135006376Y-84924465D01*
X134995697Y-84945494D01*
X134980625Y-84964696D01*
X134962453Y-84980241D01*
X134939320Y-84993287D01*
X134910259Y-85003658D01*
X134874074Y-85010919D01*
X134898404Y-85024386D01*
X134914008Y-85036137D01*
X134941593Y-85065631D01*
X134969024Y-85103548D01*
X135056096Y-85241454D01*
X134972779Y-85241454D01*
X134906498Y-85135941D01*
X134858687Y-85066087D01*
X134839677Y-85044280D01*
X134825043Y-85032168D01*
X134809840Y-85023861D01*
X134794818Y-85018673D01*
X134757937Y-85016262D01*
X134681092Y-85016262D01*
X134681092Y-85241454D01*
X134614811Y-85241454D01*
X134614811Y-84960086D01*
X134681092Y-84960086D01*
X134823516Y-84960086D01*
X134866375Y-84957432D01*
X134894560Y-84950774D01*
X134910584Y-84943109D01*
X134923410Y-84933178D01*
X134933487Y-84920885D01*
X134943483Y-84899408D01*
X134946798Y-84876249D01*
X134943866Y-84853882D01*
X134935358Y-84834810D01*
X134921000Y-84818211D01*
X134902394Y-84806404D01*
X134876096Y-84798473D01*
X134839575Y-84795466D01*
X134681092Y-84795466D01*
X134681092Y-84960086D01*
X134614811Y-84960086D01*
X134614811Y-84739290D01*
X134836827Y-84739290D01*
X134881765Y-84741110D01*
G37*
G36*
X135417057Y-85183324D02*
G01*
X135417057Y-85241454D01*
X135086108Y-85241454D01*
X135087555Y-85219686D01*
X135093282Y-85198833D01*
X135109270Y-85166084D01*
X135133735Y-85132369D01*
X135165420Y-85099304D01*
X135214183Y-85056684D01*
X135268210Y-85009945D01*
X135303408Y-84975273D01*
X135324489Y-84950133D01*
X135341197Y-84922859D01*
X135350329Y-84898325D01*
X135353187Y-84875791D01*
X135350238Y-84852431D01*
X135341621Y-84832045D01*
X135327053Y-84813876D01*
X135308291Y-84800069D01*
X135285926Y-84791607D01*
X135258940Y-84788627D01*
X135230439Y-84791813D01*
X135207133Y-84800817D01*
X135187865Y-84815463D01*
X135173445Y-84834871D01*
X135164333Y-84859169D01*
X135160907Y-84889744D01*
X135097709Y-84883210D01*
X135103634Y-84847992D01*
X135113935Y-84818796D01*
X135128242Y-84794610D01*
X135146558Y-84774675D01*
X135168632Y-84758860D01*
X135194441Y-84747247D01*
X135224693Y-84739927D01*
X135260283Y-84737336D01*
X135296086Y-84740110D01*
X135326438Y-84747951D01*
X135352291Y-84760427D01*
X135374375Y-84777514D01*
X135392850Y-84798927D01*
X135405824Y-84822330D01*
X135413683Y-84848160D01*
X135416385Y-84877043D01*
X135413345Y-84906813D01*
X135404081Y-84936425D01*
X135388540Y-84965146D01*
X135363262Y-84997882D01*
X135329328Y-85032365D01*
X135268496Y-85086420D01*
X135218358Y-85129857D01*
X135197421Y-85149832D01*
X135182850Y-85166842D01*
X135171501Y-85183324D01*
X135417057Y-85183324D01*
G37*
G36*
X131717378Y-101460339D02*
G01*
X131783629Y-101477069D01*
X131770485Y-101516950D01*
X131753524Y-101550387D01*
X131732935Y-101578270D01*
X131708647Y-101601267D01*
X131680582Y-101619696D01*
X131649549Y-101632980D01*
X131615012Y-101641171D01*
X131576298Y-101644009D01*
X131535468Y-101641689D01*
X131500451Y-101635144D01*
X131470407Y-101624848D01*
X131444620Y-101611067D01*
X131421140Y-101593060D01*
X131400528Y-101571401D01*
X131382630Y-101545745D01*
X131367439Y-101515599D01*
X131352822Y-101473218D01*
X131343972Y-101428618D01*
X131340970Y-101381357D01*
X131344506Y-101329914D01*
X131354624Y-101284758D01*
X131370859Y-101244916D01*
X131387617Y-101217212D01*
X131407280Y-101193451D01*
X131429961Y-101173266D01*
X131455916Y-101156439D01*
X131493683Y-101139731D01*
X131533951Y-101129645D01*
X131577336Y-101126214D01*
X131614701Y-101128771D01*
X131647804Y-101136116D01*
X131677295Y-101147947D01*
X131703701Y-101164225D01*
X131727033Y-101184787D01*
X131746629Y-101209129D01*
X131762661Y-101237680D01*
X131775081Y-101271050D01*
X131709868Y-101286438D01*
X131695599Y-101251703D01*
X131678679Y-101225853D01*
X131659310Y-101207211D01*
X131636073Y-101193743D01*
X131608630Y-101185354D01*
X131575962Y-101182390D01*
X131538350Y-101185700D01*
X131506549Y-101195081D01*
X131479455Y-101210142D01*
X131456230Y-101230687D01*
X131438175Y-101255307D01*
X131424989Y-101284606D01*
X131416272Y-101316084D01*
X131411047Y-101348152D01*
X131409297Y-101380990D01*
X131411527Y-101423411D01*
X131417864Y-101460452D01*
X131427890Y-101492823D01*
X131442988Y-101522579D01*
X131462215Y-101546082D01*
X131485775Y-101564203D01*
X131512771Y-101577362D01*
X131540974Y-101585196D01*
X131570833Y-101587833D01*
X131598305Y-101585715D01*
X131622866Y-101579591D01*
X131645007Y-101569621D01*
X131665110Y-101555715D01*
X131682173Y-101538526D01*
X131696613Y-101517344D01*
X131708423Y-101491550D01*
X131717378Y-101460339D01*
G37*
G36*
X131840263Y-101503325D02*
G01*
X131904804Y-101497860D01*
X131912210Y-101528244D01*
X131923432Y-101551454D01*
X131938113Y-101568935D01*
X131956685Y-101582124D01*
X131977461Y-101590010D01*
X132001128Y-101592718D01*
X132022608Y-101590593D01*
X132042004Y-101584375D01*
X132059783Y-101574023D01*
X132076263Y-101559135D01*
X132089372Y-101541547D01*
X132098922Y-101521209D01*
X132104901Y-101497600D01*
X132107007Y-101470047D01*
X132104964Y-101443848D01*
X132099195Y-101421684D01*
X132090020Y-101402845D01*
X132077453Y-101386791D01*
X132056084Y-101370044D01*
X132030699Y-101359863D01*
X132000120Y-101356291D01*
X131971591Y-101359790D01*
X131946478Y-101370030D01*
X131924985Y-101385928D01*
X131908926Y-101405628D01*
X131851193Y-101398118D01*
X131899706Y-101139892D01*
X132148681Y-101139892D01*
X132148681Y-101198022D01*
X131948890Y-101198022D01*
X131921901Y-101334248D01*
X131953148Y-101316054D01*
X131984481Y-101305537D01*
X132016515Y-101302069D01*
X132048450Y-101305001D01*
X132077126Y-101313539D01*
X132103205Y-101327632D01*
X132127157Y-101347682D01*
X132146685Y-101371809D01*
X132160650Y-101398970D01*
X132169254Y-101429758D01*
X132172250Y-101464979D01*
X132169671Y-101498603D01*
X132162164Y-101529136D01*
X132149864Y-101557111D01*
X132132622Y-101582949D01*
X132111908Y-101604972D01*
X132088812Y-101621827D01*
X132063016Y-101633940D01*
X132034009Y-101641412D01*
X132001128Y-101644009D01*
X131967308Y-101641405D01*
X131937917Y-101633964D01*
X131912207Y-101621999D01*
X131889600Y-101605480D01*
X131870490Y-101584876D01*
X131855981Y-101561326D01*
X131845863Y-101534363D01*
X131840263Y-101503325D01*
G37*
G36*
X136250362Y-98108987D02*
G01*
X136316613Y-98125717D01*
X136303469Y-98165598D01*
X136286508Y-98199035D01*
X136265919Y-98226918D01*
X136241631Y-98249915D01*
X136213566Y-98268344D01*
X136182533Y-98281628D01*
X136147996Y-98289819D01*
X136109282Y-98292657D01*
X136068452Y-98290337D01*
X136033435Y-98283792D01*
X136003391Y-98273496D01*
X135977604Y-98259715D01*
X135954124Y-98241708D01*
X135933512Y-98220049D01*
X135915614Y-98194393D01*
X135900423Y-98164247D01*
X135885806Y-98121866D01*
X135876956Y-98077266D01*
X135873954Y-98030005D01*
X135877490Y-97978562D01*
X135887608Y-97933406D01*
X135903843Y-97893564D01*
X135920601Y-97865860D01*
X135940264Y-97842099D01*
X135962945Y-97821914D01*
X135988900Y-97805087D01*
X136026667Y-97788379D01*
X136066935Y-97778293D01*
X136110320Y-97774862D01*
X136147685Y-97777419D01*
X136180788Y-97784764D01*
X136210279Y-97796595D01*
X136236685Y-97812873D01*
X136260017Y-97833435D01*
X136279613Y-97857777D01*
X136295645Y-97886328D01*
X136308065Y-97919698D01*
X136242852Y-97935086D01*
X136228583Y-97900351D01*
X136211663Y-97874501D01*
X136192294Y-97855859D01*
X136169057Y-97842391D01*
X136141614Y-97834002D01*
X136108946Y-97831038D01*
X136071334Y-97834348D01*
X136039533Y-97843729D01*
X136012439Y-97858790D01*
X135989214Y-97879335D01*
X135971159Y-97903955D01*
X135957973Y-97933254D01*
X135949256Y-97964732D01*
X135944031Y-97996800D01*
X135942281Y-98029638D01*
X135944511Y-98072059D01*
X135950848Y-98109100D01*
X135960874Y-98141471D01*
X135975972Y-98171227D01*
X135995199Y-98194730D01*
X136018759Y-98212851D01*
X136045755Y-98226010D01*
X136073958Y-98233844D01*
X136103817Y-98236481D01*
X136131289Y-98234363D01*
X136155850Y-98228239D01*
X136177991Y-98218269D01*
X136198094Y-98204363D01*
X136215157Y-98187174D01*
X136229597Y-98165992D01*
X136241407Y-98140198D01*
X136250362Y-98108987D01*
G37*
G36*
X136579453Y-97782954D02*
G01*
X136604956Y-97789328D01*
X136627312Y-97799579D01*
X136647013Y-97813728D01*
X136663661Y-97831375D01*
X136676732Y-97852109D01*
X136686322Y-97876407D01*
X136692259Y-97904922D01*
X136631137Y-97909684D01*
X136620434Y-97877208D01*
X136607903Y-97857905D01*
X136589924Y-97843485D01*
X136569682Y-97834943D01*
X136546415Y-97832015D01*
X136527373Y-97833879D01*
X136510328Y-97839312D01*
X136494849Y-97848318D01*
X136477368Y-97863973D01*
X136462099Y-97884229D01*
X136449054Y-97909868D01*
X136440408Y-97937438D01*
X136434287Y-97975001D01*
X136431652Y-98025059D01*
X136447913Y-98004082D01*
X136465960Y-97987527D01*
X136485935Y-97974928D01*
X136507820Y-97965777D01*
X136530173Y-97960348D01*
X136553254Y-97958533D01*
X136583046Y-97961407D01*
X136610044Y-97969820D01*
X136634867Y-97983816D01*
X136657943Y-98003901D01*
X136676560Y-98027778D01*
X136689955Y-98054836D01*
X136698247Y-98085685D01*
X136701143Y-98121138D01*
X136698845Y-98152158D01*
X136692064Y-98181314D01*
X136680810Y-98208974D01*
X136665290Y-98234289D01*
X136646735Y-98254820D01*
X136624970Y-98271103D01*
X136600513Y-98282973D01*
X136573821Y-98290184D01*
X136544370Y-98292657D01*
X136507101Y-98288993D01*
X136474358Y-98278394D01*
X136445202Y-98260942D01*
X136419012Y-98236054D01*
X136403238Y-98213508D01*
X136390042Y-98184912D01*
X136379757Y-98149044D01*
X136375502Y-98121077D01*
X136441208Y-98121077D01*
X136444574Y-98152149D01*
X136454702Y-98181924D01*
X136465140Y-98200096D01*
X136477687Y-98214696D01*
X136492438Y-98226162D01*
X136517528Y-98237634D01*
X136543332Y-98241366D01*
X136567927Y-98237922D01*
X136589978Y-98227683D01*
X136610285Y-98209951D01*
X136625362Y-98187462D01*
X136634864Y-98159478D01*
X136638281Y-98124496D01*
X136634910Y-98090922D01*
X136625532Y-98064141D01*
X136610621Y-98042675D01*
X136590562Y-98026038D01*
X136567651Y-98016157D01*
X136540950Y-98012755D01*
X136514425Y-98016119D01*
X136491137Y-98025972D01*
X136470242Y-98042675D01*
X136454379Y-98064176D01*
X136444642Y-98089911D01*
X136441208Y-98121077D01*
X136375502Y-98121077D01*
X136372973Y-98104457D01*
X136370499Y-98049514D01*
X136373209Y-97988196D01*
X136380668Y-97938006D01*
X136392019Y-97897243D01*
X136406633Y-97864397D01*
X136424141Y-97838182D01*
X136444204Y-97817459D01*
X136466459Y-97801590D01*
X136491204Y-97790188D01*
X136518906Y-97783162D01*
X136550170Y-97780724D01*
X136579453Y-97782954D01*
G37*
G36*
X129917989Y-95123323D02*
G01*
X129984240Y-95140053D01*
X129971096Y-95179934D01*
X129954135Y-95213371D01*
X129933546Y-95241254D01*
X129909258Y-95264251D01*
X129881193Y-95282680D01*
X129850160Y-95295964D01*
X129815623Y-95304155D01*
X129776909Y-95306993D01*
X129736079Y-95304673D01*
X129701062Y-95298128D01*
X129671018Y-95287832D01*
X129645231Y-95274051D01*
X129621751Y-95256044D01*
X129601139Y-95234385D01*
X129583241Y-95208729D01*
X129568050Y-95178583D01*
X129553433Y-95136202D01*
X129544583Y-95091602D01*
X129541581Y-95044341D01*
X129545117Y-94992898D01*
X129555235Y-94947742D01*
X129571470Y-94907900D01*
X129588228Y-94880196D01*
X129607891Y-94856435D01*
X129630572Y-94836250D01*
X129656527Y-94819423D01*
X129694294Y-94802715D01*
X129734562Y-94792629D01*
X129777947Y-94789198D01*
X129815312Y-94791755D01*
X129848415Y-94799100D01*
X129877906Y-94810931D01*
X129904312Y-94827209D01*
X129927644Y-94847771D01*
X129947240Y-94872113D01*
X129963272Y-94900664D01*
X129975692Y-94934034D01*
X129910479Y-94949422D01*
X129896210Y-94914687D01*
X129879290Y-94888837D01*
X129859921Y-94870195D01*
X129836684Y-94856727D01*
X129809241Y-94848338D01*
X129776573Y-94845374D01*
X129738961Y-94848684D01*
X129707160Y-94858065D01*
X129680066Y-94873126D01*
X129656841Y-94893671D01*
X129638786Y-94918291D01*
X129625600Y-94947590D01*
X129616883Y-94979068D01*
X129611658Y-95011136D01*
X129609908Y-95043974D01*
X129612138Y-95086395D01*
X129618475Y-95123436D01*
X129628501Y-95155807D01*
X129643599Y-95185563D01*
X129662826Y-95209066D01*
X129686386Y-95227187D01*
X129713382Y-95240346D01*
X129741585Y-95248180D01*
X129771444Y-95250817D01*
X129798916Y-95248699D01*
X129823477Y-95242575D01*
X129845618Y-95232605D01*
X129865721Y-95218699D01*
X129882784Y-95201510D01*
X129897224Y-95180328D01*
X129909034Y-95154534D01*
X129917989Y-95123323D01*
G37*
G36*
X130272447Y-95299178D02*
G01*
X130210959Y-95299178D01*
X130210959Y-94906374D01*
X130186491Y-94926731D01*
X130152737Y-94948842D01*
X130117215Y-94968062D01*
X130088013Y-94980685D01*
X130088013Y-94922067D01*
X130121454Y-94904276D01*
X130151416Y-94884488D01*
X130178169Y-94862716D01*
X130202714Y-94838255D01*
X130220565Y-94815799D01*
X130232818Y-94795060D01*
X130272447Y-94795060D01*
X130272447Y-95299178D01*
G37*
G36*
X130609502Y-95299178D02*
G01*
X130548014Y-95299178D01*
X130548014Y-94906374D01*
X130523546Y-94926731D01*
X130489792Y-94948842D01*
X130454270Y-94968062D01*
X130425068Y-94980685D01*
X130425068Y-94922067D01*
X130458509Y-94904276D01*
X130488471Y-94884488D01*
X130515224Y-94862716D01*
X130539769Y-94838255D01*
X130557620Y-94815799D01*
X130569874Y-94795060D01*
X130609502Y-94795060D01*
X130609502Y-95299178D01*
G37*
G36*
X123207500Y-99369010D02*
G01*
X123101987Y-99435291D01*
X123032133Y-99483102D01*
X123010326Y-99502112D01*
X122998214Y-99516746D01*
X122989907Y-99531949D01*
X122984719Y-99546971D01*
X122982308Y-99583852D01*
X122982308Y-99660697D01*
X123207500Y-99660697D01*
X123207500Y-99726978D01*
X122705336Y-99726978D01*
X122705336Y-99504962D01*
X122705447Y-99502214D01*
X122761512Y-99502214D01*
X122761512Y-99660697D01*
X122926132Y-99660697D01*
X122926132Y-99518273D01*
X122923478Y-99475414D01*
X122916820Y-99447229D01*
X122909155Y-99431205D01*
X122899224Y-99418379D01*
X122886931Y-99408302D01*
X122865454Y-99398306D01*
X122842295Y-99394991D01*
X122819928Y-99397923D01*
X122800856Y-99406431D01*
X122784257Y-99420789D01*
X122772450Y-99439395D01*
X122764519Y-99465693D01*
X122761512Y-99502214D01*
X122705447Y-99502214D01*
X122707156Y-99460024D01*
X122711929Y-99426917D01*
X122718770Y-99403173D01*
X122729915Y-99381650D01*
X122745556Y-99363209D01*
X122766214Y-99347517D01*
X122789604Y-99335954D01*
X122814493Y-99329018D01*
X122841318Y-99326664D01*
X122867275Y-99328906D01*
X122890511Y-99335413D01*
X122911540Y-99346092D01*
X122930742Y-99361164D01*
X122946287Y-99379336D01*
X122959333Y-99402469D01*
X122969704Y-99431530D01*
X122976965Y-99467715D01*
X122990432Y-99443385D01*
X123002183Y-99427781D01*
X123031677Y-99400196D01*
X123069594Y-99372765D01*
X123207500Y-99285693D01*
X123207500Y-99369010D01*
G37*
G36*
X123010103Y-98921281D02*
G01*
X123060275Y-98928590D01*
X123098872Y-98939417D01*
X123134866Y-98956169D01*
X123163398Y-98976825D01*
X123185579Y-99001394D01*
X123201955Y-99030077D01*
X123211891Y-99061969D01*
X123215315Y-99097900D01*
X123213091Y-99127002D01*
X123206737Y-99152298D01*
X123196525Y-99174428D01*
X123182434Y-99193888D01*
X123164867Y-99210218D01*
X123143978Y-99223127D01*
X123119237Y-99232665D01*
X123089927Y-99238615D01*
X123084401Y-99179539D01*
X123111459Y-99172383D01*
X123131175Y-99162687D01*
X123145157Y-99150840D01*
X123155457Y-99135749D01*
X123161794Y-99117893D01*
X123164024Y-99096526D01*
X123160669Y-99069527D01*
X123151018Y-99046823D01*
X123135862Y-99027461D01*
X123116244Y-99011835D01*
X123092193Y-98999873D01*
X123057473Y-98988938D01*
X123020129Y-98982025D01*
X122982063Y-98979717D01*
X122969729Y-98980053D01*
X122987927Y-98993730D01*
X123003748Y-99010420D01*
X123017326Y-99030428D01*
X123027454Y-99052315D01*
X123033509Y-99075262D01*
X123035553Y-99099610D01*
X123032686Y-99129781D01*
X123024314Y-99156982D01*
X123010434Y-99181847D01*
X122990581Y-99204818D01*
X122966908Y-99223264D01*
X122939740Y-99236609D01*
X122908409Y-99244918D01*
X122872032Y-99247835D01*
X122834489Y-99244793D01*
X122802167Y-99236126D01*
X122774144Y-99222198D01*
X122749727Y-99202925D01*
X122729433Y-99179023D01*
X122715109Y-99152676D01*
X122706391Y-99123374D01*
X122703382Y-99090390D01*
X122704083Y-99082849D01*
X122754673Y-99082849D01*
X122758300Y-99108756D01*
X122769138Y-99132289D01*
X122787982Y-99154259D01*
X122811776Y-99170829D01*
X122840131Y-99181036D01*
X122874291Y-99184637D01*
X122904832Y-99181241D01*
X122930220Y-99171580D01*
X122951594Y-99155786D01*
X122968142Y-99135002D01*
X122977961Y-99111555D01*
X122981331Y-99084559D01*
X122977923Y-99057405D01*
X122968078Y-99034348D01*
X122951594Y-99014400D01*
X122930219Y-98999614D01*
X122903274Y-98990267D01*
X122869193Y-98986892D01*
X122835144Y-98990310D01*
X122807758Y-98999852D01*
X122785601Y-99015071D01*
X122768199Y-99035469D01*
X122758089Y-99057792D01*
X122754673Y-99082849D01*
X122704083Y-99082849D01*
X122706338Y-99058604D01*
X122715079Y-99029010D01*
X122729730Y-99001058D01*
X122749483Y-98976518D01*
X122774262Y-98956084D01*
X122804774Y-98939570D01*
X122838083Y-98928822D01*
X122884006Y-98921388D01*
X122945854Y-98918565D01*
X123010103Y-98921281D01*
G37*
G36*
X124160782Y-90589251D02*
G01*
X124177512Y-90523000D01*
X124217393Y-90536144D01*
X124250830Y-90553105D01*
X124278713Y-90573694D01*
X124301710Y-90597982D01*
X124320139Y-90626047D01*
X124333423Y-90657080D01*
X124341614Y-90691617D01*
X124344452Y-90730331D01*
X124342132Y-90771161D01*
X124335587Y-90806178D01*
X124325291Y-90836222D01*
X124311510Y-90862009D01*
X124293503Y-90885489D01*
X124271844Y-90906101D01*
X124246188Y-90923999D01*
X124216042Y-90939190D01*
X124173661Y-90953807D01*
X124129061Y-90962657D01*
X124081800Y-90965659D01*
X124030357Y-90962123D01*
X123985201Y-90952005D01*
X123945359Y-90935770D01*
X123917655Y-90919012D01*
X123893894Y-90899349D01*
X123873709Y-90876668D01*
X123856882Y-90850713D01*
X123840174Y-90812946D01*
X123830088Y-90772678D01*
X123826657Y-90729293D01*
X123829214Y-90691928D01*
X123836559Y-90658825D01*
X123848390Y-90629334D01*
X123864668Y-90602928D01*
X123885230Y-90579596D01*
X123909572Y-90560000D01*
X123938123Y-90543968D01*
X123971493Y-90531548D01*
X123986881Y-90596761D01*
X123952146Y-90611030D01*
X123926296Y-90627950D01*
X123907654Y-90647319D01*
X123894186Y-90670556D01*
X123885797Y-90697999D01*
X123882833Y-90730667D01*
X123886143Y-90768279D01*
X123895524Y-90800080D01*
X123910585Y-90827174D01*
X123931130Y-90850399D01*
X123955750Y-90868454D01*
X123985049Y-90881640D01*
X124016527Y-90890357D01*
X124048595Y-90895582D01*
X124081433Y-90897332D01*
X124123854Y-90895102D01*
X124160895Y-90888765D01*
X124193266Y-90878739D01*
X124223022Y-90863641D01*
X124246525Y-90844414D01*
X124264646Y-90820854D01*
X124277805Y-90793858D01*
X124285639Y-90765655D01*
X124288276Y-90735796D01*
X124286158Y-90708324D01*
X124280034Y-90683763D01*
X124270064Y-90661622D01*
X124256158Y-90641519D01*
X124238969Y-90624456D01*
X124217787Y-90610016D01*
X124191993Y-90598206D01*
X124160782Y-90589251D01*
G37*
G36*
X124336637Y-90234793D02*
G01*
X124336637Y-90296281D01*
X123943833Y-90296281D01*
X123964190Y-90320749D01*
X123986301Y-90354503D01*
X124005521Y-90390025D01*
X124018144Y-90419227D01*
X123959526Y-90419227D01*
X123941735Y-90385786D01*
X123921947Y-90355824D01*
X123900175Y-90329071D01*
X123875714Y-90304526D01*
X123853258Y-90286675D01*
X123832519Y-90274422D01*
X123832519Y-90234793D01*
X124336637Y-90234793D01*
G37*
G36*
X124147655Y-89753346D02*
G01*
X124194451Y-89759675D01*
X124231093Y-89769114D01*
X124265625Y-89783776D01*
X124293198Y-89801848D01*
X124314868Y-89823244D01*
X124330991Y-89848701D01*
X124340948Y-89878653D01*
X124344452Y-89914255D01*
X124341005Y-89949488D01*
X124331155Y-89979553D01*
X124315126Y-90005500D01*
X124292459Y-90028011D01*
X124267751Y-90044042D01*
X124236448Y-90057516D01*
X124197228Y-90068045D01*
X124148546Y-90074997D01*
X124088669Y-90077531D01*
X124029183Y-90075169D01*
X123982178Y-90068780D01*
X123945543Y-90059274D01*
X123911013Y-90044497D01*
X123883506Y-90026364D01*
X123861951Y-90004961D01*
X123845901Y-89979501D01*
X123836000Y-89949642D01*
X123832588Y-89914957D01*
X123883810Y-89914957D01*
X123886084Y-89935212D01*
X123892680Y-89952879D01*
X123903665Y-89968556D01*
X123919622Y-89982582D01*
X123942463Y-89994610D01*
X123975936Y-90004619D01*
X124023335Y-90011642D01*
X124088486Y-90014333D01*
X124154241Y-90011800D01*
X124200596Y-90005283D01*
X124232039Y-89996174D01*
X124252403Y-89985482D01*
X124270957Y-89969442D01*
X124283418Y-89952460D01*
X124290705Y-89934245D01*
X124293161Y-89914255D01*
X124290698Y-89894291D01*
X124283384Y-89876091D01*
X124270870Y-89859110D01*
X124252220Y-89843058D01*
X124231769Y-89832341D01*
X124200295Y-89823223D01*
X124154012Y-89816707D01*
X124088486Y-89814176D01*
X124022523Y-89816717D01*
X123976108Y-89823248D01*
X123944697Y-89832366D01*
X123924416Y-89843058D01*
X123905988Y-89859083D01*
X123893567Y-89876166D01*
X123886275Y-89894606D01*
X123883810Y-89914957D01*
X123832588Y-89914957D01*
X123832519Y-89914255D01*
X123834428Y-89887793D01*
X123839911Y-89864396D01*
X123848761Y-89843577D01*
X123861090Y-89824606D01*
X123876610Y-89807921D01*
X123895626Y-89793355D01*
X123928515Y-89776116D01*
X123970181Y-89762275D01*
X124017947Y-89754204D01*
X124088669Y-89751009D01*
X124147655Y-89753346D01*
G37*
G36*
X125445581Y-95685336D02*
G01*
X125511832Y-95685336D01*
X125511832Y-95975039D01*
X125509608Y-96025563D01*
X125503626Y-96064916D01*
X125494765Y-96095115D01*
X125480554Y-96122576D01*
X125460266Y-96146560D01*
X125433124Y-96167441D01*
X125402179Y-96182272D01*
X125363760Y-96191847D01*
X125316132Y-96195315D01*
X125269668Y-96192295D01*
X125231796Y-96183944D01*
X125201002Y-96171044D01*
X125173839Y-96152266D01*
X125152749Y-96129010D01*
X125137133Y-96100732D01*
X125127221Y-96069402D01*
X125120519Y-96028256D01*
X125118021Y-95975039D01*
X125118021Y-95685336D01*
X125184302Y-95685336D01*
X125184302Y-95975802D01*
X125185990Y-96019945D01*
X125190338Y-96051176D01*
X125196423Y-96072461D01*
X125206450Y-96091617D01*
X125220202Y-96107458D01*
X125238066Y-96120363D01*
X125258418Y-96129437D01*
X125282271Y-96135160D01*
X125310331Y-96137185D01*
X125347536Y-96134639D01*
X125376194Y-96127764D01*
X125398055Y-96117391D01*
X125414501Y-96103877D01*
X125426447Y-96086679D01*
X125436191Y-96061412D01*
X125442980Y-96025490D01*
X125445581Y-95975802D01*
X125445581Y-95685336D01*
G37*
G36*
X125597500Y-96054998D02*
G01*
X125658988Y-96046816D01*
X125668542Y-96080259D01*
X125680703Y-96104386D01*
X125695014Y-96121249D01*
X125713093Y-96133836D01*
X125733531Y-96141410D01*
X125757021Y-96144024D01*
X125784703Y-96140629D01*
X125808823Y-96130732D01*
X125830263Y-96114074D01*
X125846843Y-96092544D01*
X125856742Y-96068102D01*
X125860153Y-96039824D01*
X125856957Y-96012831D01*
X125847760Y-95989933D01*
X125832492Y-95970184D01*
X125812601Y-95955076D01*
X125789473Y-95945946D01*
X125762150Y-95942768D01*
X125743817Y-95944289D01*
X125718766Y-95949607D01*
X125725575Y-95895660D01*
X125735497Y-95896362D01*
X125761061Y-95894040D01*
X125784464Y-95887229D01*
X125806175Y-95875907D01*
X125819820Y-95864405D01*
X125829486Y-95850431D01*
X125835489Y-95833498D01*
X125837621Y-95812800D01*
X125834994Y-95791240D01*
X125827403Y-95772836D01*
X125814723Y-95756838D01*
X125798296Y-95744688D01*
X125778887Y-95737274D01*
X125755647Y-95734673D01*
X125732617Y-95737261D01*
X125712942Y-95744710D01*
X125695869Y-95757021D01*
X125682462Y-95773382D01*
X125672091Y-95795262D01*
X125665125Y-95824066D01*
X125603667Y-95813136D01*
X125611482Y-95782834D01*
X125622702Y-95757196D01*
X125637152Y-95735540D01*
X125654897Y-95717363D01*
X125675738Y-95702700D01*
X125698935Y-95692149D01*
X125724926Y-95685642D01*
X125754273Y-95683382D01*
X125781176Y-95685387D01*
X125806229Y-95691282D01*
X125829775Y-95701029D01*
X125851303Y-95714452D01*
X125868736Y-95730430D01*
X125882531Y-95749114D01*
X125892763Y-95770031D01*
X125898801Y-95791487D01*
X125900819Y-95813808D01*
X125898858Y-95834966D01*
X125893070Y-95854585D01*
X125883386Y-95873037D01*
X125870303Y-95889228D01*
X125853318Y-95903358D01*
X125831820Y-95915474D01*
X125859819Y-95925026D01*
X125882517Y-95939161D01*
X125900788Y-95957972D01*
X125914171Y-95980612D01*
X125922472Y-96007188D01*
X125925396Y-96038664D01*
X125922355Y-96070441D01*
X125913469Y-96099139D01*
X125898715Y-96125426D01*
X125877585Y-96149764D01*
X125852381Y-96169515D01*
X125824244Y-96183628D01*
X125792603Y-96192303D01*
X125756685Y-96195315D01*
X125724171Y-96192718D01*
X125695503Y-96185243D01*
X125670016Y-96173121D01*
X125647203Y-96156236D01*
X125627838Y-96135343D01*
X125613218Y-96111811D01*
X125603083Y-96085228D01*
X125597500Y-96054998D01*
G37*
G36*
X136127038Y-81527086D02*
G01*
X136160145Y-81531859D01*
X136183889Y-81538700D01*
X136205412Y-81549845D01*
X136223853Y-81565486D01*
X136239545Y-81586144D01*
X136251108Y-81609534D01*
X136258044Y-81634423D01*
X136260398Y-81661248D01*
X136258156Y-81687205D01*
X136251649Y-81710441D01*
X136240970Y-81731470D01*
X136225898Y-81750672D01*
X136207726Y-81766217D01*
X136184593Y-81779263D01*
X136155532Y-81789634D01*
X136119347Y-81796895D01*
X136143677Y-81810362D01*
X136159281Y-81822113D01*
X136186866Y-81851607D01*
X136214297Y-81889524D01*
X136301369Y-82027430D01*
X136218052Y-82027430D01*
X136151771Y-81921917D01*
X136103960Y-81852063D01*
X136084950Y-81830256D01*
X136070316Y-81818144D01*
X136055113Y-81809837D01*
X136040091Y-81804649D01*
X136003210Y-81802238D01*
X135926365Y-81802238D01*
X135926365Y-82027430D01*
X135860084Y-82027430D01*
X135860084Y-81746062D01*
X135926365Y-81746062D01*
X136068789Y-81746062D01*
X136111648Y-81743408D01*
X136139833Y-81736750D01*
X136155857Y-81729085D01*
X136168683Y-81719154D01*
X136178760Y-81706861D01*
X136188756Y-81685384D01*
X136192071Y-81662225D01*
X136189139Y-81639858D01*
X136180631Y-81620786D01*
X136166273Y-81604187D01*
X136147667Y-81592380D01*
X136121369Y-81584449D01*
X136084848Y-81581442D01*
X135926365Y-81581442D01*
X135926365Y-81746062D01*
X135860084Y-81746062D01*
X135860084Y-81525266D01*
X136082100Y-81525266D01*
X136127038Y-81527086D01*
G37*
G36*
X136570800Y-82027430D02*
G01*
X136509312Y-82027430D01*
X136509312Y-81634626D01*
X136484844Y-81654983D01*
X136451090Y-81677094D01*
X136415568Y-81696314D01*
X136386366Y-81708937D01*
X136386366Y-81650319D01*
X136419807Y-81632528D01*
X136449769Y-81612740D01*
X136476522Y-81590968D01*
X136501067Y-81566507D01*
X136518918Y-81544051D01*
X136531171Y-81523312D01*
X136570800Y-81523312D01*
X136570800Y-82027430D01*
G37*
G36*
X136728062Y-81894561D02*
G01*
X136792603Y-81889096D01*
X136800009Y-81919480D01*
X136811230Y-81942690D01*
X136825911Y-81960171D01*
X136844484Y-81973360D01*
X136865260Y-81981246D01*
X136888926Y-81983954D01*
X136910407Y-81981829D01*
X136929802Y-81975611D01*
X136947582Y-81965259D01*
X136964061Y-81950371D01*
X136977171Y-81932783D01*
X136986721Y-81912445D01*
X136992699Y-81888836D01*
X136994805Y-81861283D01*
X136992763Y-81835084D01*
X136986994Y-81812920D01*
X136977818Y-81794081D01*
X136965252Y-81778027D01*
X136943882Y-81761280D01*
X136918498Y-81751099D01*
X136887919Y-81747527D01*
X136859389Y-81751026D01*
X136834277Y-81761266D01*
X136812784Y-81777164D01*
X136796724Y-81796864D01*
X136738992Y-81789354D01*
X136787504Y-81531128D01*
X137036479Y-81531128D01*
X137036479Y-81589258D01*
X136836689Y-81589258D01*
X136809700Y-81725484D01*
X136840947Y-81707290D01*
X136872280Y-81696773D01*
X136904313Y-81693305D01*
X136936249Y-81696237D01*
X136964924Y-81704775D01*
X136991004Y-81718868D01*
X137014955Y-81738918D01*
X137034483Y-81763045D01*
X137048449Y-81790206D01*
X137057053Y-81820994D01*
X137060049Y-81856215D01*
X137057470Y-81889839D01*
X137049962Y-81920372D01*
X137037662Y-81948347D01*
X137020420Y-81974185D01*
X136999707Y-81996208D01*
X136976611Y-82013063D01*
X136950814Y-82025176D01*
X136921808Y-82032648D01*
X136888926Y-82035245D01*
X136855106Y-82032641D01*
X136825716Y-82025200D01*
X136800006Y-82013235D01*
X136777399Y-81996716D01*
X136758289Y-81976112D01*
X136743780Y-81952562D01*
X136733662Y-81925599D01*
X136728062Y-81894561D01*
G37*
G36*
X133431082Y-97244614D02*
G01*
X133464189Y-97249387D01*
X133487933Y-97256228D01*
X133509456Y-97267373D01*
X133527897Y-97283014D01*
X133543589Y-97303672D01*
X133555152Y-97327062D01*
X133562088Y-97351951D01*
X133564442Y-97378776D01*
X133562200Y-97404733D01*
X133555693Y-97427969D01*
X133545014Y-97448998D01*
X133529942Y-97468200D01*
X133511770Y-97483745D01*
X133488637Y-97496791D01*
X133459576Y-97507162D01*
X133423391Y-97514423D01*
X133447721Y-97527890D01*
X133463325Y-97539641D01*
X133490910Y-97569135D01*
X133518341Y-97607052D01*
X133605413Y-97744958D01*
X133522096Y-97744958D01*
X133455815Y-97639445D01*
X133408004Y-97569591D01*
X133388994Y-97547784D01*
X133374360Y-97535672D01*
X133359157Y-97527365D01*
X133344135Y-97522177D01*
X133307254Y-97519766D01*
X133230409Y-97519766D01*
X133230409Y-97744958D01*
X133164128Y-97744958D01*
X133164128Y-97463590D01*
X133230409Y-97463590D01*
X133372833Y-97463590D01*
X133415692Y-97460936D01*
X133443877Y-97454278D01*
X133459901Y-97446613D01*
X133472727Y-97436682D01*
X133482804Y-97424389D01*
X133492800Y-97402912D01*
X133496115Y-97379753D01*
X133493183Y-97357386D01*
X133484675Y-97338314D01*
X133470317Y-97321715D01*
X133451711Y-97309908D01*
X133425413Y-97301977D01*
X133388892Y-97298970D01*
X133230409Y-97298970D01*
X133230409Y-97463590D01*
X133164128Y-97463590D01*
X133164128Y-97242794D01*
X133386144Y-97242794D01*
X133431082Y-97244614D01*
G37*
G36*
X133647362Y-97306786D02*
G01*
X133647362Y-97248656D01*
X133971503Y-97248656D01*
X133971503Y-97296467D01*
X133941520Y-97331946D01*
X133909950Y-97376758D01*
X133876706Y-97432357D01*
X133847593Y-97489782D01*
X133823455Y-97547835D01*
X133804136Y-97606655D01*
X133793530Y-97649099D01*
X133785613Y-97695096D01*
X133780566Y-97744958D01*
X133717399Y-97744958D01*
X133720077Y-97705535D01*
X133727486Y-97658038D01*
X133740602Y-97601190D01*
X133757519Y-97545798D01*
X133778727Y-97491675D01*
X133804319Y-97438677D01*
X133833683Y-97387447D01*
X133863127Y-97343739D01*
X133892612Y-97306786D01*
X133647362Y-97306786D01*
G37*
G36*
X134488859Y-88674938D02*
G01*
X134548637Y-88666725D01*
X134552807Y-88704982D01*
X134560367Y-88730027D01*
X134570130Y-88745615D01*
X134584162Y-88757205D01*
X134601489Y-88764331D01*
X134623101Y-88766864D01*
X134646716Y-88763885D01*
X134666118Y-88755385D01*
X134681448Y-88741792D01*
X134691061Y-88724183D01*
X134695852Y-88701506D01*
X134697900Y-88661260D01*
X134697900Y-88315015D01*
X134764151Y-88315015D01*
X134764151Y-88656711D01*
X134762136Y-88698767D01*
X134756781Y-88730580D01*
X134748947Y-88754194D01*
X134736793Y-88775476D01*
X134720868Y-88792892D01*
X134700800Y-88806859D01*
X134678166Y-88816730D01*
X134652570Y-88822857D01*
X134623436Y-88824994D01*
X134590691Y-88822346D01*
X134563612Y-88814929D01*
X134541145Y-88803217D01*
X134522503Y-88787228D01*
X134508098Y-88767525D01*
X134497428Y-88743000D01*
X134490781Y-88712584D01*
X134488859Y-88674938D01*
G37*
G36*
X135170601Y-88759049D02*
G01*
X135170601Y-88817179D01*
X134839652Y-88817179D01*
X134841100Y-88795411D01*
X134846827Y-88774558D01*
X134862815Y-88741809D01*
X134887280Y-88708094D01*
X134918964Y-88675029D01*
X134967727Y-88632409D01*
X135021754Y-88585670D01*
X135056952Y-88550998D01*
X135078033Y-88525858D01*
X135094742Y-88498584D01*
X135103873Y-88474050D01*
X135106732Y-88451516D01*
X135103783Y-88428156D01*
X135095166Y-88407770D01*
X135080598Y-88389601D01*
X135061836Y-88375794D01*
X135039471Y-88367332D01*
X135012485Y-88364352D01*
X134983983Y-88367538D01*
X134960678Y-88376542D01*
X134941410Y-88391188D01*
X134926990Y-88410596D01*
X134917877Y-88434894D01*
X134914452Y-88465469D01*
X134851254Y-88458935D01*
X134857179Y-88423717D01*
X134867480Y-88394521D01*
X134881787Y-88370335D01*
X134900102Y-88350400D01*
X134922176Y-88334585D01*
X134947986Y-88322972D01*
X134978238Y-88315652D01*
X135013828Y-88313061D01*
X135049631Y-88315835D01*
X135079982Y-88323676D01*
X135105835Y-88336152D01*
X135127920Y-88353239D01*
X135146395Y-88374652D01*
X135159368Y-88398055D01*
X135167228Y-88423885D01*
X135169930Y-88452768D01*
X135166889Y-88482538D01*
X135157626Y-88512150D01*
X135142085Y-88540871D01*
X135116807Y-88573607D01*
X135082873Y-88608090D01*
X135022041Y-88662145D01*
X134971902Y-88705582D01*
X134950966Y-88725557D01*
X134936394Y-88742567D01*
X134925046Y-88759049D01*
X135170601Y-88759049D01*
G37*
G36*
X126762274Y-84971551D02*
G01*
X126828525Y-84988281D01*
X126815381Y-85028162D01*
X126798420Y-85061599D01*
X126777831Y-85089482D01*
X126753543Y-85112479D01*
X126725478Y-85130908D01*
X126694445Y-85144192D01*
X126659908Y-85152383D01*
X126621194Y-85155221D01*
X126580364Y-85152901D01*
X126545347Y-85146356D01*
X126515303Y-85136060D01*
X126489516Y-85122279D01*
X126466036Y-85104272D01*
X126445424Y-85082613D01*
X126427526Y-85056957D01*
X126412335Y-85026811D01*
X126397718Y-84984430D01*
X126388868Y-84939830D01*
X126385866Y-84892569D01*
X126389402Y-84841126D01*
X126399520Y-84795970D01*
X126415755Y-84756128D01*
X126432513Y-84728424D01*
X126452176Y-84704663D01*
X126474857Y-84684478D01*
X126500812Y-84667651D01*
X126538579Y-84650943D01*
X126578847Y-84640857D01*
X126622232Y-84637426D01*
X126659597Y-84639983D01*
X126692700Y-84647328D01*
X126722191Y-84659159D01*
X126748597Y-84675437D01*
X126771929Y-84695999D01*
X126791525Y-84720341D01*
X126807557Y-84748892D01*
X126819977Y-84782262D01*
X126754764Y-84797650D01*
X126740495Y-84762915D01*
X126723575Y-84737065D01*
X126704206Y-84718423D01*
X126680969Y-84704955D01*
X126653526Y-84696566D01*
X126620858Y-84693602D01*
X126583246Y-84696912D01*
X126551445Y-84706293D01*
X126524351Y-84721354D01*
X126501126Y-84741899D01*
X126483071Y-84766519D01*
X126469885Y-84795818D01*
X126461168Y-84827296D01*
X126455943Y-84859364D01*
X126454193Y-84892202D01*
X126456423Y-84934623D01*
X126462760Y-84971664D01*
X126472786Y-85004035D01*
X126487884Y-85033791D01*
X126507111Y-85057294D01*
X126530671Y-85075415D01*
X126557667Y-85088574D01*
X126585870Y-85096408D01*
X126615729Y-85099045D01*
X126643201Y-85096927D01*
X126667762Y-85090803D01*
X126689903Y-85080833D01*
X126710006Y-85066927D01*
X126727069Y-85049738D01*
X126741509Y-85028556D01*
X126753319Y-85002762D01*
X126762274Y-84971551D01*
G37*
G36*
X126885495Y-85014904D02*
G01*
X126946983Y-85006722D01*
X126956537Y-85040165D01*
X126968698Y-85064292D01*
X126983009Y-85081155D01*
X127001088Y-85093742D01*
X127021526Y-85101316D01*
X127045016Y-85103930D01*
X127072698Y-85100535D01*
X127096818Y-85090638D01*
X127118258Y-85073980D01*
X127134838Y-85052450D01*
X127144737Y-85028008D01*
X127148148Y-84999730D01*
X127144952Y-84972737D01*
X127135755Y-84949839D01*
X127120487Y-84930090D01*
X127100596Y-84914982D01*
X127077468Y-84905852D01*
X127050145Y-84902674D01*
X127031812Y-84904195D01*
X127006761Y-84909513D01*
X127013570Y-84855566D01*
X127023492Y-84856268D01*
X127049056Y-84853946D01*
X127072459Y-84847135D01*
X127094170Y-84835813D01*
X127107815Y-84824311D01*
X127117481Y-84810337D01*
X127123484Y-84793404D01*
X127125616Y-84772706D01*
X127122989Y-84751146D01*
X127115398Y-84732742D01*
X127102718Y-84716744D01*
X127086291Y-84704594D01*
X127066882Y-84697180D01*
X127043642Y-84694579D01*
X127020612Y-84697167D01*
X127000937Y-84704616D01*
X126983864Y-84716927D01*
X126970457Y-84733288D01*
X126960086Y-84755168D01*
X126953120Y-84783972D01*
X126891662Y-84773042D01*
X126899477Y-84742740D01*
X126910697Y-84717102D01*
X126925147Y-84695446D01*
X126942892Y-84677269D01*
X126963733Y-84662606D01*
X126986930Y-84652055D01*
X127012921Y-84645548D01*
X127042268Y-84643288D01*
X127069171Y-84645293D01*
X127094224Y-84651188D01*
X127117770Y-84660935D01*
X127139298Y-84674358D01*
X127156731Y-84690336D01*
X127170526Y-84709020D01*
X127180758Y-84729937D01*
X127186796Y-84751393D01*
X127188814Y-84773714D01*
X127186853Y-84794872D01*
X127181065Y-84814491D01*
X127171381Y-84832943D01*
X127158298Y-84849134D01*
X127141313Y-84863264D01*
X127119815Y-84875380D01*
X127147814Y-84884932D01*
X127170512Y-84899067D01*
X127188783Y-84917878D01*
X127202166Y-84940518D01*
X127210467Y-84967094D01*
X127213391Y-84998570D01*
X127210350Y-85030347D01*
X127201464Y-85059045D01*
X127186710Y-85085332D01*
X127165580Y-85109670D01*
X127140376Y-85129421D01*
X127112239Y-85143534D01*
X127080598Y-85152209D01*
X127044680Y-85155221D01*
X127012166Y-85152624D01*
X126983498Y-85145149D01*
X126958011Y-85133027D01*
X126935198Y-85116142D01*
X126915833Y-85095249D01*
X126901213Y-85071717D01*
X126891078Y-85045134D01*
X126885495Y-85014904D01*
G37*
G36*
X132504407Y-76827790D02*
G01*
X132570658Y-76827790D01*
X132570658Y-77117493D01*
X132568434Y-77168017D01*
X132562452Y-77207370D01*
X132553591Y-77237569D01*
X132539380Y-77265030D01*
X132519092Y-77289014D01*
X132491950Y-77309895D01*
X132461005Y-77324726D01*
X132422586Y-77334301D01*
X132374958Y-77337769D01*
X132328494Y-77334749D01*
X132290622Y-77326398D01*
X132259828Y-77313498D01*
X132232665Y-77294720D01*
X132211575Y-77271464D01*
X132195959Y-77243186D01*
X132186047Y-77211856D01*
X132179345Y-77170710D01*
X132176847Y-77117493D01*
X132176847Y-76827790D01*
X132243128Y-76827790D01*
X132243128Y-77118256D01*
X132244816Y-77162399D01*
X132249164Y-77193630D01*
X132255249Y-77214915D01*
X132265276Y-77234071D01*
X132279028Y-77249912D01*
X132296892Y-77262817D01*
X132317244Y-77271891D01*
X132341097Y-77277614D01*
X132369157Y-77279639D01*
X132406362Y-77277093D01*
X132435020Y-77270218D01*
X132456881Y-77259845D01*
X132473327Y-77246331D01*
X132485273Y-77229133D01*
X132495017Y-77203866D01*
X132501806Y-77167944D01*
X132504407Y-77118256D01*
X132504407Y-76827790D01*
G37*
G36*
X132914552Y-77154099D02*
G01*
X132982176Y-77154099D01*
X132982176Y-77210275D01*
X132914552Y-77210275D01*
X132914552Y-77329954D01*
X132853064Y-77329954D01*
X132853064Y-77210275D01*
X132635840Y-77210275D01*
X132635840Y-77154099D01*
X132696290Y-77154099D01*
X132853064Y-77154099D01*
X132853064Y-76928418D01*
X132696290Y-77154099D01*
X132635840Y-77154099D01*
X132864329Y-76829744D01*
X132914552Y-76829744D01*
X132914552Y-77154099D01*
G37*
G36*
X136464279Y-85343801D02*
G01*
X136530530Y-85360531D01*
X136517386Y-85400412D01*
X136500425Y-85433849D01*
X136479836Y-85461732D01*
X136455548Y-85484729D01*
X136427483Y-85503158D01*
X136396450Y-85516442D01*
X136361913Y-85524633D01*
X136323199Y-85527471D01*
X136282369Y-85525151D01*
X136247352Y-85518606D01*
X136217308Y-85508310D01*
X136191521Y-85494529D01*
X136168041Y-85476522D01*
X136147429Y-85454863D01*
X136129531Y-85429207D01*
X136114340Y-85399061D01*
X136099723Y-85356680D01*
X136090873Y-85312080D01*
X136087871Y-85264819D01*
X136091407Y-85213376D01*
X136101525Y-85168220D01*
X136117760Y-85128378D01*
X136134518Y-85100674D01*
X136154181Y-85076913D01*
X136176862Y-85056728D01*
X136202817Y-85039901D01*
X136240584Y-85023193D01*
X136280852Y-85013107D01*
X136324237Y-85009676D01*
X136361602Y-85012233D01*
X136394705Y-85019578D01*
X136424196Y-85031409D01*
X136450602Y-85047687D01*
X136473934Y-85068249D01*
X136493530Y-85092591D01*
X136509562Y-85121142D01*
X136521982Y-85154512D01*
X136456769Y-85169900D01*
X136442500Y-85135165D01*
X136425580Y-85109315D01*
X136406211Y-85090673D01*
X136382974Y-85077205D01*
X136355531Y-85068816D01*
X136322863Y-85065852D01*
X136285251Y-85069162D01*
X136253450Y-85078543D01*
X136226356Y-85093604D01*
X136203131Y-85114149D01*
X136185076Y-85138769D01*
X136171890Y-85168068D01*
X136163173Y-85199546D01*
X136157948Y-85231614D01*
X136156198Y-85264452D01*
X136158428Y-85306873D01*
X136164765Y-85343914D01*
X136174791Y-85376285D01*
X136189889Y-85406041D01*
X136209116Y-85429544D01*
X136232676Y-85447665D01*
X136259672Y-85460824D01*
X136287875Y-85468658D01*
X136317734Y-85471295D01*
X136345206Y-85469177D01*
X136369767Y-85463053D01*
X136391908Y-85453083D01*
X136412011Y-85439177D01*
X136429074Y-85421988D01*
X136443514Y-85400806D01*
X136455324Y-85375012D01*
X136464279Y-85343801D01*
G37*
G36*
X136818737Y-85519656D02*
G01*
X136757249Y-85519656D01*
X136757249Y-85126852D01*
X136732781Y-85147209D01*
X136699027Y-85169320D01*
X136663505Y-85188540D01*
X136634303Y-85201163D01*
X136634303Y-85142545D01*
X136667744Y-85124754D01*
X136697706Y-85104966D01*
X136724459Y-85083194D01*
X136749004Y-85058733D01*
X136766855Y-85036277D01*
X136779108Y-85015538D01*
X136818737Y-85015538D01*
X136818737Y-85519656D01*
G37*
G36*
X132451069Y-76282137D02*
G01*
X132467799Y-76215886D01*
X132507680Y-76229030D01*
X132541117Y-76245991D01*
X132569000Y-76266580D01*
X132591997Y-76290868D01*
X132610426Y-76318933D01*
X132623710Y-76349966D01*
X132631901Y-76384503D01*
X132634739Y-76423217D01*
X132632419Y-76464047D01*
X132625874Y-76499064D01*
X132615578Y-76529108D01*
X132601797Y-76554895D01*
X132583790Y-76578375D01*
X132562131Y-76598987D01*
X132536475Y-76616885D01*
X132506329Y-76632076D01*
X132463948Y-76646693D01*
X132419348Y-76655543D01*
X132372087Y-76658545D01*
X132320644Y-76655009D01*
X132275488Y-76644891D01*
X132235646Y-76628656D01*
X132207942Y-76611898D01*
X132184181Y-76592235D01*
X132163996Y-76569554D01*
X132147169Y-76543599D01*
X132130461Y-76505832D01*
X132120375Y-76465564D01*
X132116944Y-76422179D01*
X132119501Y-76384814D01*
X132126846Y-76351711D01*
X132138677Y-76322220D01*
X132154955Y-76295814D01*
X132175517Y-76272482D01*
X132199859Y-76252886D01*
X132228410Y-76236854D01*
X132261780Y-76224434D01*
X132277168Y-76289647D01*
X132242433Y-76303916D01*
X132216583Y-76320836D01*
X132197941Y-76340205D01*
X132184473Y-76363442D01*
X132176084Y-76390885D01*
X132173120Y-76423553D01*
X132176430Y-76461165D01*
X132185811Y-76492966D01*
X132200872Y-76520060D01*
X132221417Y-76543285D01*
X132246037Y-76561340D01*
X132275336Y-76574526D01*
X132306814Y-76583243D01*
X132338882Y-76588468D01*
X132371720Y-76590218D01*
X132414141Y-76587988D01*
X132451182Y-76581651D01*
X132483553Y-76571625D01*
X132513309Y-76556527D01*
X132536812Y-76537300D01*
X132554933Y-76513740D01*
X132568092Y-76486744D01*
X132575926Y-76458541D01*
X132578563Y-76428682D01*
X132576445Y-76401210D01*
X132570321Y-76376649D01*
X132560351Y-76354508D01*
X132546445Y-76334405D01*
X132529256Y-76317342D01*
X132508074Y-76302902D01*
X132482280Y-76291092D01*
X132451069Y-76282137D01*
G37*
G36*
X132568794Y-75836149D02*
G01*
X132626924Y-75836149D01*
X132626924Y-76167098D01*
X132605156Y-76165651D01*
X132584303Y-76159924D01*
X132551554Y-76143936D01*
X132517839Y-76119471D01*
X132484774Y-76087786D01*
X132442154Y-76039023D01*
X132395415Y-75984996D01*
X132360743Y-75949798D01*
X132335603Y-75928717D01*
X132308329Y-75912009D01*
X132283795Y-75902877D01*
X132261261Y-75900019D01*
X132237901Y-75902968D01*
X132217515Y-75911585D01*
X132199346Y-75926153D01*
X132185539Y-75944915D01*
X132177077Y-75967280D01*
X132174097Y-75994266D01*
X132177283Y-76022767D01*
X132186287Y-76046073D01*
X132200933Y-76065341D01*
X132220341Y-76079761D01*
X132244639Y-76088873D01*
X132275214Y-76092299D01*
X132268680Y-76155497D01*
X132233462Y-76149572D01*
X132204266Y-76139271D01*
X132180080Y-76124964D01*
X132160145Y-76106648D01*
X132144330Y-76084574D01*
X132132717Y-76058765D01*
X132125397Y-76028513D01*
X132122806Y-75992923D01*
X132125580Y-75957120D01*
X132133421Y-75926768D01*
X132145897Y-75900915D01*
X132162984Y-75878831D01*
X132184397Y-75860356D01*
X132207800Y-75847382D01*
X132233630Y-75839523D01*
X132262513Y-75836821D01*
X132292283Y-75839861D01*
X132321895Y-75849125D01*
X132350616Y-75864666D01*
X132383352Y-75889944D01*
X132417835Y-75923878D01*
X132471890Y-75984710D01*
X132515327Y-76034848D01*
X132535302Y-76055785D01*
X132552312Y-76070356D01*
X132568794Y-76081705D01*
X132568794Y-75836149D01*
G37*
G36*
X133972359Y-110194840D02*
G01*
X134032137Y-110186627D01*
X134036307Y-110224884D01*
X134043867Y-110249929D01*
X134053630Y-110265517D01*
X134067662Y-110277107D01*
X134084989Y-110284233D01*
X134106601Y-110286766D01*
X134130216Y-110283787D01*
X134149618Y-110275287D01*
X134164948Y-110261694D01*
X134174561Y-110244085D01*
X134179352Y-110221408D01*
X134181400Y-110181162D01*
X134181400Y-109834917D01*
X134247651Y-109834917D01*
X134247651Y-110176613D01*
X134245636Y-110218669D01*
X134240281Y-110250482D01*
X134232447Y-110274096D01*
X134220293Y-110295378D01*
X134204368Y-110312794D01*
X134184300Y-110326761D01*
X134161666Y-110336632D01*
X134136070Y-110342759D01*
X134106936Y-110344896D01*
X134074191Y-110342248D01*
X134047112Y-110334831D01*
X134024645Y-110323119D01*
X134006003Y-110307130D01*
X133991598Y-110287427D01*
X133980928Y-110262902D01*
X133974281Y-110232486D01*
X133972359Y-110194840D01*
G37*
G36*
X134589560Y-110161226D02*
G01*
X134657185Y-110161226D01*
X134657185Y-110217402D01*
X134589560Y-110217402D01*
X134589560Y-110337081D01*
X134528072Y-110337081D01*
X134528072Y-110217402D01*
X134310849Y-110217402D01*
X134310849Y-110161226D01*
X134371299Y-110161226D01*
X134528072Y-110161226D01*
X134528072Y-109935545D01*
X134371299Y-110161226D01*
X134310849Y-110161226D01*
X134539338Y-109836871D01*
X134589560Y-109836871D01*
X134589560Y-110161226D01*
G37*
G36*
X132627158Y-81284498D02*
G01*
X132660265Y-81289271D01*
X132684009Y-81296112D01*
X132705532Y-81307257D01*
X132723973Y-81322898D01*
X132739665Y-81343556D01*
X132751228Y-81366946D01*
X132758164Y-81391835D01*
X132760518Y-81418660D01*
X132758276Y-81444617D01*
X132751769Y-81467853D01*
X132741090Y-81488882D01*
X132726018Y-81508084D01*
X132707846Y-81523629D01*
X132684713Y-81536675D01*
X132655652Y-81547046D01*
X132619467Y-81554307D01*
X132643797Y-81567774D01*
X132659401Y-81579525D01*
X132686986Y-81609019D01*
X132714417Y-81646936D01*
X132801489Y-81784842D01*
X132718172Y-81784842D01*
X132651891Y-81679329D01*
X132604080Y-81609475D01*
X132585070Y-81587668D01*
X132570436Y-81575556D01*
X132555233Y-81567249D01*
X132540211Y-81562061D01*
X132503330Y-81559650D01*
X132426485Y-81559650D01*
X132426485Y-81784842D01*
X132360204Y-81784842D01*
X132360204Y-81503474D01*
X132426485Y-81503474D01*
X132568909Y-81503474D01*
X132611768Y-81500820D01*
X132639953Y-81494162D01*
X132655977Y-81486497D01*
X132668803Y-81476566D01*
X132678880Y-81464273D01*
X132688876Y-81442796D01*
X132692191Y-81419637D01*
X132689259Y-81397270D01*
X132680751Y-81378198D01*
X132666393Y-81361599D01*
X132647787Y-81349792D01*
X132621489Y-81341861D01*
X132584968Y-81338854D01*
X132426485Y-81338854D01*
X132426485Y-81503474D01*
X132360204Y-81503474D01*
X132360204Y-81282678D01*
X132582220Y-81282678D01*
X132627158Y-81284498D01*
G37*
G36*
X133045553Y-81282954D02*
G01*
X133071056Y-81289328D01*
X133093412Y-81299579D01*
X133113113Y-81313728D01*
X133129761Y-81331375D01*
X133142832Y-81352109D01*
X133152422Y-81376407D01*
X133158359Y-81404922D01*
X133097237Y-81409684D01*
X133086534Y-81377208D01*
X133074003Y-81357905D01*
X133056024Y-81343485D01*
X133035782Y-81334943D01*
X133012515Y-81332015D01*
X132993473Y-81333879D01*
X132976428Y-81339312D01*
X132960949Y-81348318D01*
X132943468Y-81363973D01*
X132928199Y-81384229D01*
X132915154Y-81409868D01*
X132906508Y-81437438D01*
X132900387Y-81475001D01*
X132897752Y-81525059D01*
X132914013Y-81504082D01*
X132932060Y-81487527D01*
X132952035Y-81474928D01*
X132973920Y-81465777D01*
X132996273Y-81460348D01*
X133019354Y-81458533D01*
X133049146Y-81461407D01*
X133076144Y-81469820D01*
X133100967Y-81483816D01*
X133124043Y-81503901D01*
X133142660Y-81527778D01*
X133156055Y-81554836D01*
X133164347Y-81585685D01*
X133167243Y-81621138D01*
X133164945Y-81652158D01*
X133158164Y-81681314D01*
X133146910Y-81708974D01*
X133131390Y-81734289D01*
X133112835Y-81754820D01*
X133091070Y-81771103D01*
X133066613Y-81782973D01*
X133039921Y-81790184D01*
X133010470Y-81792657D01*
X132973201Y-81788993D01*
X132940458Y-81778394D01*
X132911302Y-81760942D01*
X132885112Y-81736054D01*
X132869338Y-81713508D01*
X132856142Y-81684912D01*
X132845857Y-81649044D01*
X132841602Y-81621077D01*
X132907308Y-81621077D01*
X132910674Y-81652149D01*
X132920802Y-81681924D01*
X132931240Y-81700096D01*
X132943787Y-81714696D01*
X132958538Y-81726162D01*
X132983628Y-81737634D01*
X133009432Y-81741366D01*
X133034027Y-81737922D01*
X133056078Y-81727683D01*
X133076385Y-81709951D01*
X133091462Y-81687462D01*
X133100964Y-81659478D01*
X133104381Y-81624496D01*
X133101010Y-81590922D01*
X133091632Y-81564141D01*
X133076721Y-81542675D01*
X133056662Y-81526038D01*
X133033751Y-81516157D01*
X133007050Y-81512755D01*
X132980525Y-81516119D01*
X132957237Y-81525972D01*
X132936342Y-81542675D01*
X132920479Y-81564176D01*
X132910742Y-81589911D01*
X132907308Y-81621077D01*
X132841602Y-81621077D01*
X132839073Y-81604457D01*
X132836599Y-81549514D01*
X132839309Y-81488196D01*
X132846768Y-81438006D01*
X132858119Y-81397243D01*
X132872733Y-81364397D01*
X132890241Y-81338182D01*
X132910304Y-81317459D01*
X132932559Y-81301590D01*
X132957304Y-81290188D01*
X132985006Y-81283162D01*
X133016270Y-81280724D01*
X133045553Y-81282954D01*
G37*
G36*
X128742371Y-105063870D02*
G01*
X128240207Y-105063870D01*
X128240207Y-104997619D01*
X128742371Y-104997619D01*
X128742371Y-105063870D01*
G37*
G36*
X128566516Y-104523452D02*
G01*
X128583246Y-104457201D01*
X128623127Y-104470346D01*
X128656564Y-104487306D01*
X128684447Y-104507895D01*
X128707444Y-104532184D01*
X128725873Y-104560248D01*
X128739157Y-104591282D01*
X128747348Y-104625819D01*
X128750186Y-104664533D01*
X128747866Y-104705363D01*
X128741321Y-104740380D01*
X128731025Y-104770424D01*
X128717244Y-104796210D01*
X128699237Y-104819691D01*
X128677578Y-104840303D01*
X128651922Y-104858201D01*
X128621776Y-104873391D01*
X128579395Y-104888009D01*
X128534795Y-104896859D01*
X128487534Y-104899861D01*
X128436091Y-104896325D01*
X128390935Y-104886207D01*
X128351093Y-104869972D01*
X128323389Y-104853214D01*
X128299628Y-104833551D01*
X128279443Y-104810869D01*
X128262616Y-104784914D01*
X128245908Y-104747148D01*
X128235822Y-104706879D01*
X128232391Y-104663495D01*
X128234948Y-104626130D01*
X128242293Y-104593027D01*
X128254124Y-104563536D01*
X128270402Y-104537130D01*
X128290964Y-104513798D01*
X128315306Y-104494202D01*
X128343857Y-104478170D01*
X128377227Y-104465750D01*
X128392615Y-104530963D01*
X128357880Y-104545232D01*
X128332030Y-104562152D01*
X128313388Y-104581521D01*
X128299920Y-104604758D01*
X128291531Y-104632201D01*
X128288567Y-104664869D01*
X128291877Y-104702481D01*
X128301258Y-104734282D01*
X128316319Y-104761375D01*
X128336864Y-104784601D01*
X128361484Y-104802656D01*
X128390783Y-104815842D01*
X128422261Y-104824559D01*
X128454329Y-104829783D01*
X128487167Y-104831534D01*
X128529588Y-104829303D01*
X128566629Y-104822967D01*
X128599000Y-104812941D01*
X128628756Y-104797843D01*
X128652259Y-104778616D01*
X128670380Y-104755056D01*
X128683539Y-104728060D01*
X128691373Y-104699857D01*
X128694010Y-104669998D01*
X128691892Y-104642525D01*
X128685768Y-104617965D01*
X128675798Y-104595824D01*
X128661892Y-104575720D01*
X128644703Y-104558658D01*
X128623521Y-104544217D01*
X128597727Y-104532408D01*
X128566516Y-104523452D01*
G37*
G36*
X128684241Y-104077465D02*
G01*
X128742371Y-104077465D01*
X128742371Y-104408414D01*
X128720603Y-104406966D01*
X128699750Y-104401239D01*
X128667001Y-104385252D01*
X128633286Y-104360787D01*
X128600221Y-104329102D01*
X128557601Y-104280339D01*
X128510862Y-104226312D01*
X128476190Y-104191114D01*
X128451050Y-104170033D01*
X128423776Y-104153324D01*
X128399242Y-104144193D01*
X128376708Y-104141334D01*
X128353348Y-104144284D01*
X128332962Y-104152900D01*
X128314793Y-104167468D01*
X128300986Y-104186231D01*
X128292524Y-104208596D01*
X128289544Y-104235582D01*
X128292730Y-104264083D01*
X128301734Y-104287388D01*
X128316380Y-104306656D01*
X128335788Y-104321077D01*
X128360086Y-104330189D01*
X128390661Y-104333615D01*
X128384127Y-104396812D01*
X128348909Y-104390887D01*
X128319713Y-104380587D01*
X128295527Y-104366279D01*
X128275592Y-104347964D01*
X128259777Y-104325890D01*
X128248164Y-104300080D01*
X128240844Y-104269829D01*
X128238253Y-104234238D01*
X128241027Y-104198436D01*
X128248868Y-104168084D01*
X128261344Y-104142231D01*
X128278431Y-104120146D01*
X128299844Y-104101671D01*
X128323247Y-104088698D01*
X128349077Y-104080839D01*
X128377960Y-104078137D01*
X128407730Y-104081177D01*
X128437342Y-104090440D01*
X128466063Y-104105981D01*
X128498799Y-104131259D01*
X128533282Y-104165193D01*
X128587337Y-104226026D01*
X128630774Y-104276164D01*
X128650749Y-104297100D01*
X128667759Y-104311672D01*
X128684241Y-104323021D01*
X128684241Y-104077465D01*
G37*
G36*
X131017694Y-85325135D02*
G01*
X131050801Y-85329908D01*
X131074545Y-85336749D01*
X131096068Y-85347894D01*
X131114509Y-85363535D01*
X131130201Y-85384193D01*
X131141764Y-85407583D01*
X131148700Y-85432472D01*
X131151054Y-85459297D01*
X131148812Y-85485254D01*
X131142305Y-85508490D01*
X131131626Y-85529519D01*
X131116554Y-85548721D01*
X131098382Y-85564266D01*
X131075249Y-85577312D01*
X131046188Y-85587683D01*
X131010003Y-85594944D01*
X131034333Y-85608411D01*
X131049937Y-85620162D01*
X131077522Y-85649656D01*
X131104953Y-85687573D01*
X131192025Y-85825479D01*
X131108708Y-85825479D01*
X131042427Y-85719966D01*
X130994616Y-85650112D01*
X130975606Y-85628305D01*
X130960972Y-85616193D01*
X130945769Y-85607886D01*
X130930747Y-85602698D01*
X130893866Y-85600287D01*
X130817021Y-85600287D01*
X130817021Y-85825479D01*
X130750740Y-85825479D01*
X130750740Y-85544111D01*
X130817021Y-85544111D01*
X130959445Y-85544111D01*
X131002304Y-85541457D01*
X131030489Y-85534799D01*
X131046513Y-85527134D01*
X131059339Y-85517203D01*
X131069416Y-85504910D01*
X131079412Y-85483433D01*
X131082727Y-85460274D01*
X131079795Y-85437907D01*
X131071287Y-85418835D01*
X131056929Y-85402236D01*
X131038323Y-85390429D01*
X131012025Y-85382498D01*
X130975504Y-85379491D01*
X130817021Y-85379491D01*
X130817021Y-85544111D01*
X130750740Y-85544111D01*
X130750740Y-85323315D01*
X130972756Y-85323315D01*
X131017694Y-85325135D01*
G37*
G36*
X131230219Y-85692977D02*
G01*
X131291707Y-85684795D01*
X131301261Y-85718238D01*
X131313422Y-85742365D01*
X131327733Y-85759228D01*
X131345812Y-85771815D01*
X131366250Y-85779389D01*
X131389740Y-85782003D01*
X131417422Y-85778608D01*
X131441542Y-85768711D01*
X131462982Y-85752053D01*
X131479562Y-85730523D01*
X131489461Y-85706081D01*
X131492872Y-85677803D01*
X131489676Y-85650810D01*
X131480479Y-85627912D01*
X131465211Y-85608163D01*
X131445320Y-85593055D01*
X131422192Y-85583925D01*
X131394869Y-85580747D01*
X131376536Y-85582268D01*
X131351485Y-85587586D01*
X131358294Y-85533639D01*
X131368216Y-85534341D01*
X131393780Y-85532019D01*
X131417183Y-85525208D01*
X131438894Y-85513886D01*
X131452539Y-85502384D01*
X131462205Y-85488410D01*
X131468208Y-85471477D01*
X131470340Y-85450779D01*
X131467713Y-85429219D01*
X131460122Y-85410815D01*
X131447442Y-85394817D01*
X131431015Y-85382667D01*
X131411606Y-85375253D01*
X131388366Y-85372652D01*
X131365336Y-85375240D01*
X131345661Y-85382689D01*
X131328588Y-85395000D01*
X131315181Y-85411361D01*
X131304810Y-85433241D01*
X131297844Y-85462045D01*
X131236386Y-85451115D01*
X131244201Y-85420813D01*
X131255421Y-85395175D01*
X131269871Y-85373519D01*
X131287616Y-85355342D01*
X131308457Y-85340679D01*
X131331654Y-85330128D01*
X131357645Y-85323621D01*
X131386992Y-85321361D01*
X131413895Y-85323366D01*
X131438948Y-85329261D01*
X131462494Y-85339008D01*
X131484022Y-85352431D01*
X131501455Y-85368409D01*
X131515250Y-85387093D01*
X131525482Y-85408010D01*
X131531520Y-85429466D01*
X131533538Y-85451787D01*
X131531577Y-85472945D01*
X131525789Y-85492564D01*
X131516105Y-85511016D01*
X131503022Y-85527207D01*
X131486037Y-85541337D01*
X131464539Y-85553453D01*
X131492538Y-85563005D01*
X131515236Y-85577140D01*
X131533507Y-85595951D01*
X131546890Y-85618591D01*
X131555191Y-85645167D01*
X131558115Y-85676643D01*
X131555074Y-85708420D01*
X131546188Y-85737118D01*
X131531434Y-85763405D01*
X131510304Y-85787743D01*
X131485100Y-85807494D01*
X131456963Y-85821607D01*
X131425322Y-85830282D01*
X131389404Y-85833294D01*
X131356890Y-85830697D01*
X131328222Y-85823222D01*
X131302735Y-85811100D01*
X131279922Y-85794215D01*
X131260557Y-85773322D01*
X131245937Y-85749790D01*
X131235802Y-85723207D01*
X131230219Y-85692977D01*
G37*
G36*
X122452723Y-80605291D02*
G01*
X122485830Y-80610064D01*
X122509574Y-80616905D01*
X122531097Y-80628050D01*
X122549538Y-80643691D01*
X122565230Y-80664349D01*
X122576793Y-80687739D01*
X122583729Y-80712628D01*
X122586083Y-80739453D01*
X122583841Y-80765410D01*
X122577334Y-80788646D01*
X122566655Y-80809675D01*
X122551583Y-80828877D01*
X122533411Y-80844422D01*
X122510278Y-80857468D01*
X122481217Y-80867839D01*
X122445032Y-80875100D01*
X122469362Y-80888567D01*
X122484966Y-80900318D01*
X122512551Y-80929812D01*
X122539982Y-80967729D01*
X122627054Y-81105635D01*
X122543737Y-81105635D01*
X122477456Y-81000122D01*
X122429645Y-80930268D01*
X122410635Y-80908461D01*
X122396001Y-80896349D01*
X122380798Y-80888042D01*
X122365776Y-80882854D01*
X122328895Y-80880443D01*
X122252050Y-80880443D01*
X122252050Y-81105635D01*
X122185769Y-81105635D01*
X122185769Y-80824267D01*
X122252050Y-80824267D01*
X122394474Y-80824267D01*
X122437333Y-80821613D01*
X122465518Y-80814955D01*
X122481542Y-80807290D01*
X122494368Y-80797359D01*
X122504445Y-80785066D01*
X122514441Y-80763589D01*
X122517756Y-80740430D01*
X122514824Y-80718063D01*
X122506316Y-80698991D01*
X122491958Y-80682392D01*
X122473352Y-80670585D01*
X122447054Y-80662654D01*
X122410533Y-80659647D01*
X122252050Y-80659647D01*
X122252050Y-80824267D01*
X122185769Y-80824267D01*
X122185769Y-80603471D01*
X122407785Y-80603471D01*
X122452723Y-80605291D01*
G37*
G36*
X122820739Y-81105635D02*
G01*
X122626749Y-80603471D01*
X122698465Y-80603471D01*
X122828616Y-80968401D01*
X122854902Y-81050649D01*
X122881891Y-80968401D01*
X123017141Y-80603471D01*
X123084766Y-80603471D01*
X122888730Y-81105635D01*
X122820739Y-81105635D01*
G37*
G36*
X123350777Y-81105635D02*
G01*
X123289288Y-81105635D01*
X123289288Y-80712831D01*
X123264821Y-80733188D01*
X123231067Y-80755299D01*
X123195545Y-80774519D01*
X123166343Y-80787142D01*
X123166343Y-80728524D01*
X123199784Y-80710733D01*
X123229745Y-80690945D01*
X123256499Y-80669173D01*
X123281043Y-80644712D01*
X123298895Y-80622256D01*
X123311148Y-80601517D01*
X123350777Y-80601517D01*
X123350777Y-81105635D01*
G37*
G36*
X124489208Y-104801505D02*
G01*
X124555459Y-104818235D01*
X124542315Y-104858116D01*
X124525354Y-104891553D01*
X124504765Y-104919436D01*
X124480477Y-104942433D01*
X124452412Y-104960862D01*
X124421379Y-104974146D01*
X124386842Y-104982337D01*
X124348128Y-104985175D01*
X124307298Y-104982855D01*
X124272281Y-104976310D01*
X124242237Y-104966014D01*
X124216450Y-104952233D01*
X124192970Y-104934226D01*
X124172358Y-104912567D01*
X124154460Y-104886911D01*
X124139269Y-104856765D01*
X124124652Y-104814384D01*
X124115802Y-104769784D01*
X124112800Y-104722523D01*
X124116336Y-104671080D01*
X124126454Y-104625924D01*
X124142689Y-104586082D01*
X124159447Y-104558378D01*
X124179110Y-104534617D01*
X124201791Y-104514432D01*
X124227746Y-104497605D01*
X124265513Y-104480897D01*
X124305781Y-104470811D01*
X124349166Y-104467380D01*
X124386531Y-104469937D01*
X124419634Y-104477282D01*
X124449125Y-104489113D01*
X124475531Y-104505391D01*
X124498863Y-104525953D01*
X124518459Y-104550295D01*
X124534491Y-104578846D01*
X124546911Y-104612216D01*
X124481698Y-104627604D01*
X124467429Y-104592869D01*
X124450509Y-104567019D01*
X124431140Y-104548377D01*
X124407903Y-104534909D01*
X124380460Y-104526520D01*
X124347792Y-104523556D01*
X124310180Y-104526866D01*
X124278379Y-104536247D01*
X124251285Y-104551308D01*
X124228060Y-104571853D01*
X124210005Y-104596473D01*
X124196819Y-104625772D01*
X124188102Y-104657250D01*
X124182877Y-104689318D01*
X124181127Y-104722156D01*
X124183357Y-104764577D01*
X124189694Y-104801618D01*
X124199720Y-104833989D01*
X124214818Y-104863745D01*
X124234045Y-104887248D01*
X124257605Y-104905369D01*
X124284601Y-104918528D01*
X124312804Y-104926362D01*
X124342663Y-104928999D01*
X124370135Y-104926881D01*
X124394696Y-104920757D01*
X124416837Y-104910787D01*
X124436940Y-104896881D01*
X124454003Y-104879692D01*
X124468443Y-104858510D01*
X124480253Y-104832716D01*
X124489208Y-104801505D01*
G37*
G36*
X124807809Y-104475830D02*
G01*
X124835711Y-104483198D01*
X124859869Y-104495020D01*
X124880882Y-104511344D01*
X124898551Y-104531675D01*
X124910883Y-104553616D01*
X124918307Y-104577550D01*
X124920847Y-104604034D01*
X124918734Y-104626670D01*
X124912615Y-104646708D01*
X124902559Y-104664668D01*
X124888865Y-104680017D01*
X124870661Y-104693290D01*
X124847085Y-104704449D01*
X124876167Y-104716976D01*
X124899257Y-104733167D01*
X124917275Y-104753053D01*
X124930480Y-104776451D01*
X124938558Y-104802906D01*
X124941363Y-104833165D01*
X124938444Y-104864471D01*
X124929949Y-104892528D01*
X124915919Y-104918004D01*
X124895934Y-104941364D01*
X124871996Y-104960174D01*
X124844572Y-104973762D01*
X124812995Y-104982212D01*
X124776377Y-104985175D01*
X124739770Y-104982201D01*
X124708197Y-104973720D01*
X124680770Y-104960076D01*
X124656820Y-104941181D01*
X124636914Y-104917762D01*
X124622886Y-104892029D01*
X124614360Y-104863493D01*
X124611449Y-104831760D01*
X124674589Y-104831760D01*
X124677666Y-104857385D01*
X124687045Y-104882471D01*
X124696715Y-104897590D01*
X124708981Y-104910175D01*
X124724109Y-104920451D01*
X124749618Y-104930516D01*
X124777079Y-104933884D01*
X124805289Y-104930612D01*
X124829203Y-104921209D01*
X124849802Y-104905644D01*
X124865647Y-104885265D01*
X124875187Y-104861636D01*
X124878501Y-104833775D01*
X124875102Y-104805527D01*
X124865292Y-104781461D01*
X124848948Y-104760594D01*
X124827764Y-104744601D01*
X124803433Y-104734983D01*
X124775003Y-104731651D01*
X124747290Y-104734944D01*
X124723640Y-104744445D01*
X124703104Y-104760258D01*
X124687323Y-104780797D01*
X124677861Y-104804324D01*
X124674589Y-104831760D01*
X124611449Y-104831760D01*
X124611421Y-104831455D01*
X124614355Y-104799648D01*
X124622702Y-104772636D01*
X124636182Y-104749481D01*
X124654627Y-104730108D01*
X124677832Y-104715116D01*
X124706707Y-104704449D01*
X124682450Y-104693232D01*
X124663866Y-104679892D01*
X124650012Y-104664484D01*
X124639916Y-104646397D01*
X124633725Y-104625872D01*
X124631571Y-104602325D01*
X124631753Y-104600401D01*
X124694403Y-104600401D01*
X124697060Y-104622925D01*
X124704675Y-104641854D01*
X124717270Y-104658012D01*
X124733737Y-104670256D01*
X124753260Y-104677734D01*
X124776713Y-104680360D01*
X124799498Y-104677770D01*
X124818643Y-104670360D01*
X124834965Y-104658165D01*
X124847621Y-104642196D01*
X124855114Y-104624291D01*
X124857679Y-104603790D01*
X124855025Y-104582425D01*
X124847291Y-104563861D01*
X124834262Y-104547400D01*
X124817494Y-104534749D01*
X124798331Y-104527158D01*
X124776041Y-104524533D01*
X124753499Y-104527122D01*
X124734283Y-104534572D01*
X124717637Y-104546912D01*
X124704605Y-104562990D01*
X124696985Y-104580616D01*
X124694403Y-104600401D01*
X124631753Y-104600401D01*
X124634086Y-104575796D01*
X124641411Y-104551999D01*
X124653531Y-104530362D01*
X124670833Y-104510489D01*
X124691488Y-104494571D01*
X124715354Y-104483010D01*
X124743046Y-104475785D01*
X124775369Y-104473242D01*
X124807809Y-104475830D01*
G37*
G36*
X134848013Y-87408628D02*
G01*
X134882209Y-87413737D01*
X134909976Y-87422331D01*
X134934313Y-87434326D01*
X134955665Y-87449702D01*
X134979635Y-87473893D01*
X134999338Y-87502307D01*
X135014894Y-87535492D01*
X135025555Y-87570840D01*
X135032227Y-87610429D01*
X135034555Y-87654866D01*
X135032959Y-87692887D01*
X135028411Y-87726530D01*
X135021213Y-87756288D01*
X135005446Y-87797870D01*
X134987050Y-87829408D01*
X134964730Y-87855778D01*
X134941468Y-87874959D01*
X134914860Y-87889257D01*
X134881690Y-87900147D01*
X134845311Y-87906427D01*
X134801273Y-87908696D01*
X134620594Y-87908696D01*
X134620594Y-87850566D01*
X134686845Y-87850566D01*
X134793762Y-87850566D01*
X134840554Y-87847920D01*
X134871462Y-87841284D01*
X134897409Y-87829710D01*
X134916372Y-87815089D01*
X134930425Y-87798139D01*
X134942697Y-87777060D01*
X134953070Y-87751159D01*
X134960073Y-87724081D01*
X134964604Y-87691904D01*
X134966228Y-87653828D01*
X134964287Y-87613109D01*
X134958958Y-87580031D01*
X134950862Y-87553367D01*
X134940430Y-87532042D01*
X134921172Y-87505847D01*
X134900362Y-87487231D01*
X134877782Y-87475012D01*
X134859478Y-87469855D01*
X134831881Y-87466124D01*
X134792053Y-87464662D01*
X134686845Y-87464662D01*
X134686845Y-87850566D01*
X134620594Y-87850566D01*
X134620594Y-87406532D01*
X134793060Y-87406532D01*
X134848013Y-87408628D01*
G37*
G36*
X135332318Y-87908696D02*
G01*
X135270830Y-87908696D01*
X135270830Y-87515892D01*
X135246362Y-87536249D01*
X135212608Y-87558360D01*
X135177086Y-87577580D01*
X135147884Y-87590203D01*
X135147884Y-87531585D01*
X135181325Y-87513794D01*
X135211287Y-87494006D01*
X135238040Y-87472234D01*
X135262585Y-87447773D01*
X135280436Y-87425317D01*
X135292689Y-87404578D01*
X135332318Y-87404578D01*
X135332318Y-87908696D01*
G37*
G36*
X131758124Y-99687891D02*
G01*
X131824375Y-99704621D01*
X131811231Y-99744502D01*
X131794270Y-99777939D01*
X131773681Y-99805822D01*
X131749393Y-99828819D01*
X131721328Y-99847248D01*
X131690295Y-99860532D01*
X131655758Y-99868723D01*
X131617044Y-99871561D01*
X131576214Y-99869241D01*
X131541197Y-99862696D01*
X131511153Y-99852400D01*
X131485366Y-99838619D01*
X131461886Y-99820612D01*
X131441274Y-99798953D01*
X131423376Y-99773297D01*
X131408185Y-99743151D01*
X131393568Y-99700770D01*
X131384718Y-99656170D01*
X131381716Y-99608909D01*
X131385252Y-99557466D01*
X131395370Y-99512310D01*
X131411605Y-99472468D01*
X131428363Y-99444764D01*
X131448026Y-99421003D01*
X131470707Y-99400818D01*
X131496662Y-99383991D01*
X131534429Y-99367283D01*
X131574697Y-99357197D01*
X131618082Y-99353766D01*
X131655447Y-99356323D01*
X131688550Y-99363668D01*
X131718041Y-99375499D01*
X131744447Y-99391777D01*
X131767779Y-99412339D01*
X131787375Y-99436681D01*
X131803407Y-99465232D01*
X131815827Y-99498602D01*
X131750614Y-99513990D01*
X131736345Y-99479255D01*
X131719425Y-99453405D01*
X131700056Y-99434763D01*
X131676819Y-99421295D01*
X131649376Y-99412906D01*
X131616708Y-99409942D01*
X131579096Y-99413252D01*
X131547295Y-99422633D01*
X131520201Y-99437694D01*
X131496976Y-99458239D01*
X131478921Y-99482859D01*
X131465735Y-99512158D01*
X131457018Y-99543636D01*
X131451793Y-99575704D01*
X131450043Y-99608542D01*
X131452273Y-99650963D01*
X131458610Y-99688004D01*
X131468636Y-99720375D01*
X131483734Y-99750131D01*
X131502961Y-99773634D01*
X131526521Y-99791755D01*
X131553517Y-99804914D01*
X131581720Y-99812748D01*
X131611579Y-99815385D01*
X131639051Y-99813267D01*
X131663612Y-99807143D01*
X131685753Y-99797173D01*
X131705856Y-99783267D01*
X131722919Y-99766078D01*
X131737359Y-99744896D01*
X131749169Y-99719102D01*
X131758124Y-99687891D01*
G37*
G36*
X131885100Y-99425574D02*
G01*
X131885100Y-99367444D01*
X132209241Y-99367444D01*
X132209241Y-99415255D01*
X132179258Y-99450734D01*
X132147688Y-99495546D01*
X132114444Y-99551145D01*
X132085331Y-99608570D01*
X132061193Y-99666623D01*
X132041874Y-99725443D01*
X132031268Y-99767887D01*
X132023351Y-99813884D01*
X132018304Y-99863746D01*
X131955137Y-99863746D01*
X131957815Y-99824323D01*
X131965224Y-99776826D01*
X131978340Y-99719978D01*
X131995257Y-99664586D01*
X132016465Y-99610463D01*
X132042057Y-99557465D01*
X132071421Y-99506235D01*
X132100865Y-99462527D01*
X132130350Y-99425574D01*
X131885100Y-99425574D01*
G37*
G36*
X124442912Y-101355722D02*
G01*
X124476019Y-101360495D01*
X124499763Y-101367336D01*
X124521286Y-101378481D01*
X124539727Y-101394122D01*
X124555419Y-101414780D01*
X124566982Y-101438170D01*
X124573918Y-101463059D01*
X124576272Y-101489884D01*
X124574030Y-101515841D01*
X124567523Y-101539077D01*
X124556844Y-101560106D01*
X124541772Y-101579308D01*
X124523600Y-101594853D01*
X124500467Y-101607899D01*
X124471406Y-101618270D01*
X124435221Y-101625531D01*
X124459551Y-101638998D01*
X124475155Y-101650749D01*
X124502740Y-101680243D01*
X124530171Y-101718160D01*
X124617243Y-101856066D01*
X124533926Y-101856066D01*
X124467645Y-101750553D01*
X124419834Y-101680699D01*
X124400824Y-101658892D01*
X124386190Y-101646780D01*
X124370987Y-101638473D01*
X124355965Y-101633285D01*
X124319084Y-101630874D01*
X124242239Y-101630874D01*
X124242239Y-101856066D01*
X124175958Y-101856066D01*
X124175958Y-101574698D01*
X124242239Y-101574698D01*
X124384663Y-101574698D01*
X124427522Y-101572044D01*
X124455707Y-101565386D01*
X124471731Y-101557721D01*
X124484557Y-101547790D01*
X124494634Y-101535497D01*
X124504630Y-101514020D01*
X124507945Y-101490861D01*
X124505013Y-101468494D01*
X124496505Y-101449422D01*
X124482147Y-101432823D01*
X124463541Y-101421016D01*
X124437243Y-101413085D01*
X124400722Y-101410078D01*
X124242239Y-101410078D01*
X124242239Y-101574698D01*
X124175958Y-101574698D01*
X124175958Y-101353902D01*
X124397974Y-101353902D01*
X124442912Y-101355722D01*
G37*
G36*
X124850817Y-101354536D02*
G01*
X124878719Y-101361904D01*
X124902877Y-101373726D01*
X124923890Y-101390050D01*
X124941559Y-101410381D01*
X124953891Y-101432322D01*
X124961315Y-101456256D01*
X124963855Y-101482740D01*
X124961742Y-101505376D01*
X124955623Y-101525414D01*
X124945567Y-101543374D01*
X124931873Y-101558723D01*
X124913669Y-101571996D01*
X124890093Y-101583155D01*
X124919175Y-101595682D01*
X124942265Y-101611873D01*
X124960283Y-101631759D01*
X124973488Y-101655157D01*
X124981566Y-101681612D01*
X124984371Y-101711871D01*
X124981452Y-101743177D01*
X124972957Y-101771234D01*
X124958927Y-101796710D01*
X124938942Y-101820070D01*
X124915004Y-101838880D01*
X124887580Y-101852468D01*
X124856003Y-101860918D01*
X124819385Y-101863881D01*
X124782778Y-101860907D01*
X124751205Y-101852426D01*
X124723778Y-101838782D01*
X124699828Y-101819887D01*
X124679922Y-101796468D01*
X124665894Y-101770735D01*
X124657368Y-101742199D01*
X124654457Y-101710466D01*
X124717597Y-101710466D01*
X124720674Y-101736091D01*
X124730053Y-101761177D01*
X124739723Y-101776296D01*
X124751989Y-101788881D01*
X124767117Y-101799157D01*
X124792626Y-101809222D01*
X124820087Y-101812590D01*
X124848297Y-101809318D01*
X124872211Y-101799915D01*
X124892810Y-101784350D01*
X124908655Y-101763971D01*
X124918195Y-101740342D01*
X124921509Y-101712481D01*
X124918110Y-101684233D01*
X124908300Y-101660167D01*
X124891956Y-101639300D01*
X124870772Y-101623307D01*
X124846441Y-101613689D01*
X124818011Y-101610357D01*
X124790298Y-101613650D01*
X124766648Y-101623151D01*
X124746112Y-101638964D01*
X124730331Y-101659503D01*
X124720869Y-101683030D01*
X124717597Y-101710466D01*
X124654457Y-101710466D01*
X124654429Y-101710161D01*
X124657363Y-101678354D01*
X124665710Y-101651342D01*
X124679190Y-101628187D01*
X124697635Y-101608814D01*
X124720840Y-101593822D01*
X124749715Y-101583155D01*
X124725458Y-101571938D01*
X124706874Y-101558598D01*
X124693020Y-101543190D01*
X124682924Y-101525103D01*
X124676733Y-101504578D01*
X124674579Y-101481031D01*
X124674761Y-101479107D01*
X124737411Y-101479107D01*
X124740068Y-101501631D01*
X124747683Y-101520560D01*
X124760278Y-101536718D01*
X124776745Y-101548962D01*
X124796268Y-101556440D01*
X124819721Y-101559066D01*
X124842506Y-101556476D01*
X124861651Y-101549066D01*
X124877973Y-101536871D01*
X124890629Y-101520902D01*
X124898122Y-101502997D01*
X124900687Y-101482496D01*
X124898033Y-101461131D01*
X124890299Y-101442567D01*
X124877270Y-101426106D01*
X124860502Y-101413455D01*
X124841339Y-101405864D01*
X124819049Y-101403239D01*
X124796507Y-101405828D01*
X124777291Y-101413278D01*
X124760645Y-101425618D01*
X124747613Y-101441696D01*
X124739993Y-101459322D01*
X124737411Y-101479107D01*
X124674761Y-101479107D01*
X124677094Y-101454502D01*
X124684419Y-101430705D01*
X124696539Y-101409068D01*
X124713841Y-101389195D01*
X124734496Y-101373277D01*
X124758362Y-101361716D01*
X124786054Y-101354491D01*
X124818377Y-101351948D01*
X124850817Y-101354536D01*
G37*
G36*
X122150155Y-84538848D02*
G01*
X122209933Y-84530635D01*
X122214103Y-84568892D01*
X122221663Y-84593937D01*
X122231426Y-84609525D01*
X122245458Y-84621115D01*
X122262785Y-84628241D01*
X122284397Y-84630774D01*
X122308012Y-84627795D01*
X122327414Y-84619295D01*
X122342744Y-84605702D01*
X122352357Y-84588093D01*
X122357148Y-84565416D01*
X122359196Y-84525170D01*
X122359196Y-84178925D01*
X122425447Y-84178925D01*
X122425447Y-84520621D01*
X122423432Y-84562677D01*
X122418077Y-84594490D01*
X122410243Y-84618104D01*
X122398089Y-84639386D01*
X122382164Y-84656802D01*
X122362096Y-84670769D01*
X122339462Y-84680640D01*
X122313866Y-84686767D01*
X122284732Y-84688904D01*
X122251987Y-84686256D01*
X122224908Y-84678839D01*
X122202441Y-84667127D01*
X122183799Y-84651138D01*
X122169394Y-84631435D01*
X122158724Y-84606910D01*
X122152077Y-84576494D01*
X122150155Y-84538848D01*
G37*
G36*
X122509130Y-84548587D02*
G01*
X122570619Y-84540405D01*
X122580172Y-84573848D01*
X122592333Y-84597975D01*
X122606644Y-84614838D01*
X122624724Y-84627425D01*
X122645161Y-84634999D01*
X122668652Y-84637613D01*
X122696334Y-84634218D01*
X122720453Y-84624321D01*
X122741894Y-84607663D01*
X122758473Y-84586133D01*
X122768373Y-84561691D01*
X122771783Y-84533413D01*
X122768587Y-84506420D01*
X122759390Y-84483522D01*
X122744123Y-84463773D01*
X122724232Y-84448665D01*
X122701103Y-84439535D01*
X122673781Y-84436357D01*
X122655447Y-84437878D01*
X122630397Y-84443196D01*
X122637205Y-84389249D01*
X122647128Y-84389951D01*
X122672691Y-84387629D01*
X122696095Y-84380818D01*
X122717805Y-84369496D01*
X122731450Y-84357994D01*
X122741116Y-84344020D01*
X122747119Y-84327087D01*
X122749252Y-84306389D01*
X122746625Y-84284829D01*
X122739033Y-84266425D01*
X122726354Y-84250427D01*
X122709927Y-84238277D01*
X122690518Y-84230863D01*
X122667278Y-84228262D01*
X122644247Y-84230850D01*
X122624572Y-84238299D01*
X122607499Y-84250610D01*
X122594092Y-84266971D01*
X122583722Y-84288851D01*
X122576755Y-84317655D01*
X122515298Y-84306725D01*
X122523113Y-84276423D01*
X122534332Y-84250785D01*
X122548782Y-84229129D01*
X122566528Y-84210952D01*
X122587369Y-84196289D01*
X122610566Y-84185738D01*
X122636556Y-84179231D01*
X122665904Y-84176971D01*
X122692807Y-84178976D01*
X122717859Y-84184871D01*
X122741405Y-84194618D01*
X122762933Y-84208041D01*
X122780367Y-84224019D01*
X122794162Y-84242703D01*
X122804393Y-84263620D01*
X122810432Y-84285076D01*
X122812450Y-84307397D01*
X122810489Y-84328555D01*
X122804701Y-84348174D01*
X122795017Y-84366626D01*
X122781934Y-84382817D01*
X122764949Y-84396947D01*
X122743451Y-84409063D01*
X122771449Y-84418615D01*
X122794148Y-84432750D01*
X122812419Y-84451561D01*
X122825802Y-84474201D01*
X122834103Y-84500777D01*
X122837026Y-84532253D01*
X122833986Y-84564030D01*
X122825099Y-84592728D01*
X122810346Y-84619015D01*
X122789216Y-84643353D01*
X122764011Y-84663104D01*
X122735874Y-84677217D01*
X122704233Y-84685892D01*
X122668316Y-84688904D01*
X122635801Y-84686307D01*
X122607134Y-84678832D01*
X122581647Y-84666710D01*
X122558834Y-84649825D01*
X122539469Y-84628932D01*
X122524849Y-84605400D01*
X122514714Y-84578817D01*
X122509130Y-84548587D01*
G37*
G36*
X126732480Y-88207156D02*
G01*
X126765587Y-88211929D01*
X126789331Y-88218770D01*
X126810854Y-88229915D01*
X126829295Y-88245556D01*
X126844987Y-88266214D01*
X126856550Y-88289604D01*
X126863486Y-88314493D01*
X126865840Y-88341318D01*
X126863598Y-88367275D01*
X126857091Y-88390511D01*
X126846412Y-88411540D01*
X126831340Y-88430742D01*
X126813168Y-88446287D01*
X126790035Y-88459333D01*
X126760974Y-88469704D01*
X126724789Y-88476965D01*
X126749119Y-88490432D01*
X126764723Y-88502183D01*
X126792308Y-88531677D01*
X126819739Y-88569594D01*
X126906811Y-88707500D01*
X126823494Y-88707500D01*
X126757213Y-88601987D01*
X126709402Y-88532133D01*
X126690392Y-88510326D01*
X126675758Y-88498214D01*
X126660555Y-88489907D01*
X126645533Y-88484719D01*
X126608652Y-88482308D01*
X126531807Y-88482308D01*
X126531807Y-88707500D01*
X126465526Y-88707500D01*
X126465526Y-88426132D01*
X126531807Y-88426132D01*
X126674231Y-88426132D01*
X126717090Y-88423478D01*
X126745275Y-88416820D01*
X126761299Y-88409155D01*
X126774125Y-88399224D01*
X126784202Y-88386931D01*
X126794198Y-88365454D01*
X126797513Y-88342295D01*
X126794581Y-88319928D01*
X126786073Y-88300856D01*
X126771715Y-88284257D01*
X126753109Y-88272450D01*
X126726811Y-88264519D01*
X126690290Y-88261512D01*
X126531807Y-88261512D01*
X126531807Y-88426132D01*
X126465526Y-88426132D01*
X126465526Y-88205336D01*
X126687542Y-88205336D01*
X126732480Y-88207156D01*
G37*
G36*
X126944669Y-88574631D02*
G01*
X127009210Y-88569166D01*
X127016616Y-88599550D01*
X127027838Y-88622760D01*
X127042519Y-88640241D01*
X127061091Y-88653430D01*
X127081867Y-88661316D01*
X127105534Y-88664024D01*
X127127014Y-88661899D01*
X127146410Y-88655681D01*
X127164189Y-88645329D01*
X127180669Y-88630441D01*
X127193778Y-88612853D01*
X127203328Y-88592515D01*
X127209307Y-88568906D01*
X127211413Y-88541353D01*
X127209370Y-88515154D01*
X127203601Y-88492990D01*
X127194426Y-88474151D01*
X127181859Y-88458097D01*
X127160490Y-88441350D01*
X127135105Y-88431169D01*
X127104526Y-88427597D01*
X127075997Y-88431096D01*
X127050884Y-88441336D01*
X127029391Y-88457234D01*
X127013332Y-88476934D01*
X126955599Y-88469424D01*
X127004112Y-88211198D01*
X127253087Y-88211198D01*
X127253087Y-88269328D01*
X127053296Y-88269328D01*
X127026307Y-88405554D01*
X127057554Y-88387360D01*
X127088887Y-88376843D01*
X127120921Y-88373375D01*
X127152856Y-88376307D01*
X127181532Y-88384845D01*
X127207611Y-88398938D01*
X127231563Y-88418988D01*
X127251091Y-88443115D01*
X127265056Y-88470276D01*
X127273660Y-88501064D01*
X127276656Y-88536285D01*
X127274077Y-88569909D01*
X127266570Y-88600442D01*
X127254270Y-88628417D01*
X127237028Y-88654255D01*
X127216314Y-88676278D01*
X127193218Y-88693133D01*
X127167422Y-88705246D01*
X127138415Y-88712718D01*
X127105534Y-88715315D01*
X127071714Y-88712711D01*
X127042323Y-88705270D01*
X127016613Y-88693305D01*
X126994006Y-88676786D01*
X126974896Y-88656182D01*
X126960387Y-88632632D01*
X126950269Y-88605669D01*
X126944669Y-88574631D01*
G37*
G36*
X124004019Y-102944813D02*
G01*
X124037126Y-102949586D01*
X124060870Y-102956427D01*
X124082393Y-102967572D01*
X124100834Y-102983213D01*
X124116526Y-103003871D01*
X124128089Y-103027261D01*
X124135025Y-103052150D01*
X124137379Y-103078975D01*
X124135137Y-103104932D01*
X124128630Y-103128168D01*
X124117951Y-103149197D01*
X124102879Y-103168399D01*
X124084707Y-103183944D01*
X124061574Y-103196990D01*
X124032513Y-103207361D01*
X123996328Y-103214622D01*
X124020658Y-103228089D01*
X124036262Y-103239840D01*
X124063847Y-103269334D01*
X124091278Y-103307251D01*
X124178350Y-103445157D01*
X124095033Y-103445157D01*
X124028752Y-103339644D01*
X123980941Y-103269790D01*
X123961931Y-103247983D01*
X123947297Y-103235871D01*
X123932094Y-103227564D01*
X123917072Y-103222376D01*
X123880191Y-103219965D01*
X123803346Y-103219965D01*
X123803346Y-103445157D01*
X123737065Y-103445157D01*
X123737065Y-103163789D01*
X123803346Y-103163789D01*
X123945770Y-103163789D01*
X123988629Y-103161135D01*
X124016814Y-103154477D01*
X124032838Y-103146812D01*
X124045664Y-103136881D01*
X124055741Y-103124588D01*
X124065737Y-103103111D01*
X124069052Y-103079952D01*
X124066120Y-103057585D01*
X124057612Y-103038513D01*
X124043254Y-103021914D01*
X124024648Y-103010107D01*
X123998350Y-103002176D01*
X123961829Y-102999169D01*
X123803346Y-102999169D01*
X123803346Y-103163789D01*
X123737065Y-103163789D01*
X123737065Y-102942993D01*
X123959081Y-102942993D01*
X124004019Y-102944813D01*
G37*
G36*
X124447781Y-103445157D02*
G01*
X124386293Y-103445157D01*
X124386293Y-103052353D01*
X124361825Y-103072710D01*
X124328071Y-103094821D01*
X124292549Y-103114041D01*
X124263347Y-103126664D01*
X124263347Y-103068046D01*
X124296788Y-103050255D01*
X124326750Y-103030467D01*
X124353503Y-103008695D01*
X124378048Y-102984234D01*
X124395899Y-102961778D01*
X124408152Y-102941039D01*
X124447781Y-102941039D01*
X124447781Y-103445157D01*
G37*
G36*
X124794781Y-102942948D02*
G01*
X124818178Y-102948431D01*
X124838997Y-102957281D01*
X124857968Y-102969610D01*
X124874653Y-102985130D01*
X124889219Y-103004146D01*
X124906458Y-103037035D01*
X124920299Y-103078701D01*
X124928370Y-103126467D01*
X124931565Y-103197189D01*
X124929228Y-103256175D01*
X124922899Y-103302971D01*
X124913460Y-103339613D01*
X124898798Y-103374145D01*
X124880726Y-103401718D01*
X124859330Y-103423388D01*
X124833873Y-103439511D01*
X124803921Y-103449468D01*
X124768319Y-103452972D01*
X124733086Y-103449525D01*
X124703021Y-103439675D01*
X124677074Y-103423646D01*
X124654563Y-103400979D01*
X124638532Y-103376271D01*
X124625058Y-103344968D01*
X124614529Y-103305748D01*
X124607577Y-103257066D01*
X124605043Y-103197189D01*
X124605050Y-103197006D01*
X124668241Y-103197006D01*
X124670774Y-103262761D01*
X124677291Y-103309116D01*
X124686400Y-103340559D01*
X124697092Y-103360923D01*
X124713132Y-103379477D01*
X124730114Y-103391938D01*
X124748329Y-103399225D01*
X124768319Y-103401681D01*
X124788283Y-103399218D01*
X124806483Y-103391904D01*
X124823464Y-103379390D01*
X124839516Y-103360740D01*
X124850233Y-103340289D01*
X124859351Y-103308815D01*
X124865867Y-103262532D01*
X124868398Y-103197006D01*
X124865857Y-103131043D01*
X124859326Y-103084628D01*
X124850208Y-103053217D01*
X124839516Y-103032936D01*
X124823491Y-103014508D01*
X124806408Y-103002087D01*
X124787968Y-102994795D01*
X124767617Y-102992330D01*
X124747362Y-102994604D01*
X124729695Y-103001200D01*
X124714018Y-103012185D01*
X124699992Y-103028142D01*
X124687964Y-103050983D01*
X124677955Y-103084456D01*
X124670932Y-103131855D01*
X124668241Y-103197006D01*
X124605050Y-103197006D01*
X124607405Y-103137703D01*
X124613794Y-103090698D01*
X124623300Y-103054063D01*
X124638077Y-103019533D01*
X124656210Y-102992026D01*
X124677613Y-102970471D01*
X124703073Y-102954421D01*
X124732932Y-102944520D01*
X124768319Y-102941039D01*
X124794781Y-102942948D01*
G37*
G36*
X131900735Y-97915444D02*
G01*
X131966986Y-97932174D01*
X131953842Y-97972055D01*
X131936881Y-98005492D01*
X131916292Y-98033375D01*
X131892004Y-98056372D01*
X131863939Y-98074801D01*
X131832906Y-98088085D01*
X131798369Y-98096276D01*
X131759655Y-98099114D01*
X131718825Y-98096794D01*
X131683808Y-98090249D01*
X131653764Y-98079953D01*
X131627977Y-98066172D01*
X131604497Y-98048165D01*
X131583885Y-98026506D01*
X131565987Y-98000850D01*
X131550796Y-97970704D01*
X131536179Y-97928323D01*
X131527329Y-97883723D01*
X131524327Y-97836462D01*
X131527863Y-97785019D01*
X131537981Y-97739863D01*
X131554216Y-97700021D01*
X131570974Y-97672317D01*
X131590637Y-97648556D01*
X131613318Y-97628371D01*
X131639273Y-97611544D01*
X131677040Y-97594836D01*
X131717308Y-97584750D01*
X131760693Y-97581319D01*
X131798058Y-97583876D01*
X131831161Y-97591221D01*
X131860652Y-97603052D01*
X131887058Y-97619330D01*
X131910390Y-97639892D01*
X131929986Y-97664234D01*
X131946018Y-97692785D01*
X131958438Y-97726155D01*
X131893225Y-97741543D01*
X131878956Y-97706808D01*
X131862036Y-97680958D01*
X131842667Y-97662316D01*
X131819430Y-97648848D01*
X131791987Y-97640459D01*
X131759319Y-97637495D01*
X131721707Y-97640805D01*
X131689906Y-97650186D01*
X131662812Y-97665247D01*
X131639587Y-97685792D01*
X131621532Y-97710412D01*
X131608346Y-97739711D01*
X131599629Y-97771189D01*
X131594404Y-97803257D01*
X131592654Y-97836095D01*
X131594884Y-97878516D01*
X131601221Y-97915557D01*
X131611247Y-97947928D01*
X131626345Y-97977684D01*
X131645572Y-98001187D01*
X131669132Y-98019308D01*
X131696128Y-98032467D01*
X131724331Y-98040301D01*
X131754190Y-98042938D01*
X131781662Y-98040820D01*
X131806223Y-98034696D01*
X131828364Y-98024726D01*
X131848467Y-98010820D01*
X131865530Y-97993631D01*
X131879970Y-97972449D01*
X131891780Y-97946655D01*
X131900735Y-97915444D01*
G37*
G36*
X132212851Y-97590137D02*
G01*
X132242445Y-97598878D01*
X132270397Y-97613529D01*
X132294937Y-97633282D01*
X132315371Y-97658061D01*
X132331885Y-97688573D01*
X132342633Y-97721882D01*
X132350067Y-97767805D01*
X132352890Y-97829653D01*
X132350174Y-97893902D01*
X132342865Y-97944074D01*
X132332038Y-97982671D01*
X132315286Y-98018665D01*
X132294630Y-98047197D01*
X132270061Y-98069378D01*
X132241378Y-98085754D01*
X132209486Y-98095690D01*
X132173555Y-98099114D01*
X132144453Y-98096890D01*
X132119157Y-98090536D01*
X132097027Y-98080324D01*
X132077567Y-98066233D01*
X132061237Y-98048666D01*
X132048328Y-98027777D01*
X132038790Y-98003036D01*
X132032840Y-97973726D01*
X132091916Y-97968200D01*
X132099072Y-97995258D01*
X132108768Y-98014974D01*
X132120615Y-98028956D01*
X132135706Y-98039256D01*
X132153562Y-98045593D01*
X132174929Y-98047823D01*
X132201928Y-98044468D01*
X132224632Y-98034817D01*
X132243994Y-98019661D01*
X132259620Y-98000043D01*
X132271582Y-97975992D01*
X132282517Y-97941272D01*
X132289430Y-97903928D01*
X132291738Y-97865862D01*
X132291402Y-97853528D01*
X132277725Y-97871726D01*
X132261035Y-97887547D01*
X132241027Y-97901125D01*
X132219140Y-97911253D01*
X132196193Y-97917308D01*
X132171845Y-97919352D01*
X132141674Y-97916485D01*
X132114473Y-97908113D01*
X132089608Y-97894233D01*
X132066637Y-97874380D01*
X132048191Y-97850707D01*
X132034846Y-97823539D01*
X132026537Y-97792208D01*
X132023801Y-97758090D01*
X132086818Y-97758090D01*
X132090214Y-97788631D01*
X132099875Y-97814019D01*
X132115669Y-97835393D01*
X132136453Y-97851941D01*
X132159900Y-97861760D01*
X132186896Y-97865130D01*
X132214050Y-97861722D01*
X132237107Y-97851877D01*
X132257055Y-97835393D01*
X132271841Y-97814018D01*
X132281188Y-97787073D01*
X132284563Y-97752992D01*
X132281145Y-97718943D01*
X132271603Y-97691557D01*
X132256384Y-97669400D01*
X132235986Y-97651998D01*
X132213663Y-97641888D01*
X132188606Y-97638472D01*
X132162699Y-97642099D01*
X132139166Y-97652937D01*
X132117196Y-97671781D01*
X132100626Y-97695575D01*
X132090419Y-97723930D01*
X132086818Y-97758090D01*
X132023801Y-97758090D01*
X132023620Y-97755831D01*
X132026662Y-97718288D01*
X132035329Y-97685966D01*
X132049257Y-97657943D01*
X132068530Y-97633526D01*
X132092432Y-97613232D01*
X132118779Y-97598908D01*
X132148081Y-97590190D01*
X132181065Y-97587181D01*
X132212851Y-97590137D01*
G37*
G36*
X125101877Y-84971551D02*
G01*
X125168128Y-84988281D01*
X125154984Y-85028162D01*
X125138023Y-85061599D01*
X125117434Y-85089482D01*
X125093146Y-85112479D01*
X125065081Y-85130908D01*
X125034048Y-85144192D01*
X124999511Y-85152383D01*
X124960797Y-85155221D01*
X124919967Y-85152901D01*
X124884950Y-85146356D01*
X124854906Y-85136060D01*
X124829119Y-85122279D01*
X124805639Y-85104272D01*
X124785027Y-85082613D01*
X124767129Y-85056957D01*
X124751938Y-85026811D01*
X124737321Y-84984430D01*
X124728471Y-84939830D01*
X124725469Y-84892569D01*
X124729005Y-84841126D01*
X124739123Y-84795970D01*
X124755358Y-84756128D01*
X124772116Y-84728424D01*
X124791779Y-84704663D01*
X124814460Y-84684478D01*
X124840415Y-84667651D01*
X124878182Y-84650943D01*
X124918450Y-84640857D01*
X124961835Y-84637426D01*
X124999200Y-84639983D01*
X125032303Y-84647328D01*
X125061794Y-84659159D01*
X125088200Y-84675437D01*
X125111532Y-84695999D01*
X125131128Y-84720341D01*
X125147160Y-84748892D01*
X125159580Y-84782262D01*
X125094367Y-84797650D01*
X125080098Y-84762915D01*
X125063178Y-84737065D01*
X125043809Y-84718423D01*
X125020572Y-84704955D01*
X124993129Y-84696566D01*
X124960461Y-84693602D01*
X124922849Y-84696912D01*
X124891048Y-84706293D01*
X124863954Y-84721354D01*
X124840729Y-84741899D01*
X124822674Y-84766519D01*
X124809488Y-84795818D01*
X124800771Y-84827296D01*
X124795546Y-84859364D01*
X124793796Y-84892202D01*
X124796026Y-84934623D01*
X124802363Y-84971664D01*
X124812389Y-85004035D01*
X124827487Y-85033791D01*
X124846714Y-85057294D01*
X124870274Y-85075415D01*
X124897270Y-85088574D01*
X124925473Y-85096408D01*
X124955332Y-85099045D01*
X124982804Y-85096927D01*
X125007365Y-85090803D01*
X125029506Y-85080833D01*
X125049609Y-85066927D01*
X125066672Y-85049738D01*
X125081112Y-85028556D01*
X125092922Y-85002762D01*
X125101877Y-84971551D01*
G37*
G36*
X125483324Y-84971551D02*
G01*
X125550948Y-84971551D01*
X125550948Y-85027727D01*
X125483324Y-85027727D01*
X125483324Y-85147406D01*
X125421836Y-85147406D01*
X125421836Y-85027727D01*
X125204612Y-85027727D01*
X125204612Y-84971551D01*
X125265062Y-84971551D01*
X125421836Y-84971551D01*
X125421836Y-84745870D01*
X125265062Y-84971551D01*
X125204612Y-84971551D01*
X125433101Y-84647196D01*
X125483324Y-84647196D01*
X125483324Y-84971551D01*
G37*
D12*
X126350000Y-92012500D02*
X125550000Y-92012500D01*
X126350000Y-92012500D02*
X127150000Y-92012500D01*
X126350000Y-95132500D02*
X125550000Y-95132500D01*
X126350000Y-95132500D02*
X127150000Y-95132500D01*
X127890000Y-95412500D02*
X127410000Y-95412500D01*
X127650000Y-95082500D01*
X127890000Y-95412500D01*
G36*
X127890000Y-95412500D02*
G01*
X127410000Y-95412500D01*
X127650000Y-95082500D01*
X127890000Y-95412500D01*
G37*
X130420000Y-109780000D02*
X130420000Y-107020000D01*
X125230000Y-109780000D02*
X130420000Y-109780000D01*
X125230000Y-109780000D02*
X125230000Y-107020000D01*
X125230000Y-107020000D02*
X130420000Y-107020000D01*
X123960000Y-109780000D02*
X122580000Y-109780000D01*
X122580000Y-109780000D02*
X122580000Y-108400000D01*
X129753641Y-106455000D02*
X129446359Y-106455000D01*
X129753641Y-105695000D02*
X129446359Y-105695000D01*
X132740000Y-101662500D02*
X132500000Y-101332500D01*
X132980000Y-101332500D01*
X132740000Y-101662500D01*
G36*
X132740000Y-101662500D02*
G01*
X132500000Y-101332500D01*
X132980000Y-101332500D01*
X132740000Y-101662500D01*
G37*
X135960000Y-104882500D02*
X135960000Y-104407500D01*
X135960000Y-101662500D02*
X135960000Y-102137500D01*
X135485000Y-104882500D02*
X135960000Y-104882500D01*
X135485000Y-101662500D02*
X135960000Y-101662500D01*
X133215000Y-104882500D02*
X132740000Y-104882500D01*
X133215000Y-101662500D02*
X133040000Y-101662500D01*
X132740000Y-104882500D02*
X132740000Y-104407500D01*
X132740000Y-102137500D02*
X132740000Y-101902500D01*
X131475000Y-73035000D02*
X131975000Y-73035000D01*
X131725000Y-72535000D02*
X131475000Y-73035000D01*
X131975000Y-73035000D02*
X131725000Y-72535000D01*
X129737258Y-90592946D02*
X129262742Y-90592946D01*
X129737258Y-91637946D02*
X129262742Y-91637946D01*
X135940739Y-77237258D02*
X135940739Y-76762742D01*
X136985739Y-77237258D02*
X136985739Y-76762742D01*
X133762742Y-81977500D02*
X134237258Y-81977500D01*
X133762742Y-83022500D02*
X134237258Y-83022500D01*
D13*
X131275000Y-86075000D02*
G75*
G02*
X131025000Y-86075000I-125000J0D01*
G01*
X131025000Y-86075000D02*
G75*
G02*
X131275000Y-86075000I125000J0D01*
G01*
D12*
X133291338Y-83999369D02*
X132816822Y-83999369D01*
X133291338Y-85044369D02*
X132816822Y-85044369D01*
X129644420Y-100870000D02*
X129925580Y-100870000D01*
X129644420Y-101890000D02*
X129925580Y-101890000D01*
X124681597Y-68118654D02*
G75*
G02*
X123081597Y-68118654I-800000J0D01*
G01*
X123081597Y-68118654D02*
G75*
G02*
X124681597Y-68118654I800000J0D01*
G01*
X135780000Y-100025580D02*
X135780000Y-99744420D01*
X136800000Y-100025580D02*
X136800000Y-99744420D01*
X130320756Y-93490000D02*
X130039596Y-93490000D01*
X130320756Y-94510000D02*
X130039596Y-94510000D01*
X123567500Y-99572258D02*
X123567500Y-99097742D01*
X124612500Y-99572258D02*
X124612500Y-99097742D01*
X124665007Y-89907258D02*
X124665007Y-89626098D01*
X125685007Y-89907258D02*
X125685007Y-89626098D01*
X125030000Y-98632500D02*
X125030000Y-97832500D01*
X125030000Y-98632500D02*
X125030000Y-99432500D01*
X128150000Y-98632500D02*
X128150000Y-97832500D01*
X128150000Y-98632500D02*
X128150000Y-99432500D01*
X128430000Y-97572500D02*
X128100000Y-97332500D01*
X128430000Y-97092500D01*
X128430000Y-97572500D01*
G36*
X128430000Y-97572500D02*
G01*
X128100000Y-97332500D01*
X128430000Y-97092500D01*
X128430000Y-97572500D01*
G37*
X135941012Y-80480117D02*
X135941012Y-80005601D01*
X136986012Y-80480117D02*
X136986012Y-80005601D01*
X133007500Y-99612258D02*
X133007500Y-99137742D01*
X134052500Y-99612258D02*
X134052500Y-99137742D01*
X132180000Y-94140000D02*
X132180000Y-88950000D01*
X134940000Y-88950000D02*
X132180000Y-88950000D01*
X134940000Y-94140000D02*
X132180000Y-94140000D01*
X134940000Y-94140000D02*
X134940000Y-88950000D01*
X134940000Y-95410000D02*
X134940000Y-96790000D01*
X134940000Y-96790000D02*
X133560000Y-96790000D01*
X126272688Y-86359420D02*
X126272688Y-86640580D01*
X127292688Y-86359420D02*
X127292688Y-86640580D01*
X132393847Y-79350000D02*
X132393847Y-78550000D01*
X132393847Y-79350000D02*
X132393847Y-80150000D01*
X135513847Y-79350000D02*
X135513847Y-78550000D01*
X135513847Y-79350000D02*
X135513847Y-80150000D01*
X134908906Y-77400935D02*
X134668906Y-77070935D01*
X135148906Y-77070935D01*
X134908906Y-77400935D01*
G36*
X134908906Y-77400935D02*
G01*
X134668906Y-77070935D01*
X135148906Y-77070935D01*
X134908906Y-77400935D01*
G37*
X135932953Y-83359420D02*
X135932953Y-83640580D01*
X136952953Y-83359420D02*
X136952953Y-83640580D01*
X133959420Y-75765000D02*
X134240580Y-75765000D01*
X133959420Y-76785000D02*
X134240580Y-76785000D01*
X131430000Y-107070000D02*
X131430000Y-109730000D01*
X134030000Y-107070000D02*
X131430000Y-107070000D01*
X134030000Y-107070000D02*
X134030000Y-109730000D01*
X134030000Y-109730000D02*
X131430000Y-109730000D01*
X136630000Y-108400000D02*
X136630000Y-109730000D01*
X136630000Y-109730000D02*
X135300000Y-109730000D01*
X131085751Y-81996063D02*
X131085751Y-82470579D01*
X132130751Y-81996063D02*
X132130751Y-82470579D01*
X131090000Y-102680000D02*
X129690000Y-102680000D01*
X131100000Y-105000000D02*
X129690000Y-105000000D01*
X131710000Y-105280000D02*
X131230000Y-105280000D01*
X131470000Y-104950000D01*
X131710000Y-105280000D01*
G36*
X131710000Y-105280000D02*
G01*
X131230000Y-105280000D01*
X131470000Y-104950000D01*
X131710000Y-105280000D01*
G37*
X132816822Y-85589369D02*
X133291338Y-85589369D01*
X132816822Y-86634369D02*
X133291338Y-86634369D01*
X122278399Y-75461232D02*
X132028399Y-75461232D01*
X122278399Y-80511232D02*
X122278399Y-75461232D01*
X132028399Y-75461232D02*
X132028399Y-80511232D01*
X132028399Y-80511232D02*
X122278399Y-80511232D01*
X126740580Y-104240000D02*
X126459420Y-104240000D01*
X126740580Y-105260000D02*
X126459420Y-105260000D01*
X132216580Y-88426869D02*
X134501580Y-88426869D01*
X134501580Y-86956869D02*
X132216580Y-86956869D01*
X134501580Y-88426869D02*
X134501580Y-86956869D01*
X129709420Y-99070000D02*
X129990580Y-99070000D01*
X129709420Y-100090000D02*
X129990580Y-100090000D01*
X126807258Y-101017500D02*
X126332742Y-101017500D01*
X126807258Y-102062500D02*
X126332742Y-102062500D01*
X122532150Y-81232483D02*
X122532150Y-83992483D01*
X127722150Y-81232483D02*
X122532150Y-81232483D01*
X127722150Y-81232483D02*
X127722150Y-83992483D01*
X127722150Y-83992483D02*
X122532150Y-83992483D01*
X128992150Y-81232483D02*
X130372150Y-81232483D01*
X130372150Y-81232483D02*
X130372150Y-82612483D01*
X124696879Y-70311183D02*
G75*
G02*
X123096879Y-70311183I-800000J0D01*
G01*
X123096879Y-70311183D02*
G75*
G02*
X124696879Y-70311183I800000J0D01*
G01*
X126295005Y-90452036D02*
X126295005Y-89977520D01*
X127340005Y-90452036D02*
X127340005Y-89977520D01*
X126812258Y-102607500D02*
X126337742Y-102607500D01*
X126812258Y-103652500D02*
X126337742Y-103652500D01*
X129869420Y-97360000D02*
X130150580Y-97360000D01*
X129869420Y-98380000D02*
X130150580Y-98380000D01*
X124664942Y-86359420D02*
X124664942Y-86640580D01*
X125684942Y-86359420D02*
X125684942Y-86640580D01*
%LPC*%
D14*
X127487500Y-94522500D03*
X127487500Y-93572500D03*
X127487500Y-92622500D03*
X125212500Y-92622500D03*
X125212500Y-94522500D03*
D15*
X129040000Y-108400000D03*
X126500000Y-108400000D03*
D16*
X123960000Y-108400000D03*
D17*
X129090000Y-106075000D03*
X130110000Y-106075000D03*
D18*
X134350000Y-103272500D03*
D19*
X133600000Y-101835000D03*
X134100000Y-101835000D03*
X134600000Y-101835000D03*
X135100000Y-101835000D03*
D20*
X135787500Y-102522500D03*
X135787500Y-103022500D03*
X135787500Y-103522500D03*
X135787500Y-104022500D03*
D19*
X135100000Y-104710000D03*
X134600000Y-104710000D03*
X134100000Y-104710000D03*
X133600000Y-104710000D03*
D20*
X132912500Y-104022500D03*
X132912500Y-103522500D03*
X132912500Y-103022500D03*
X132912500Y-102522500D03*
D21*
X131725000Y-69325000D03*
X127475000Y-69325000D03*
X135975000Y-69325000D03*
D16*
X123320000Y-86485000D03*
D15*
X123320000Y-89025000D03*
X123320000Y-91565000D03*
X123320000Y-94105000D03*
X123320000Y-96645000D03*
D16*
X136020000Y-86485000D03*
D15*
X136020000Y-89025000D03*
X136020000Y-91565000D03*
X136020000Y-94105000D03*
X136020000Y-96645000D03*
D16*
X123320000Y-111250000D03*
D15*
X125860000Y-111250000D03*
X128400000Y-111250000D03*
X130940000Y-111250000D03*
X133480000Y-111250000D03*
X136020000Y-111250000D03*
D22*
X130325000Y-91115446D03*
X128675000Y-91115446D03*
D23*
X136463239Y-77825000D03*
X136463239Y-76175000D03*
D24*
X133175000Y-82500000D03*
X134825000Y-82500000D03*
D25*
X130500000Y-86500000D03*
X130000000Y-86500000D03*
X129500000Y-86500000D03*
X129000000Y-86500000D03*
X128500000Y-86500000D03*
X128500000Y-89500000D03*
X129000000Y-89500000D03*
X129500000Y-89500000D03*
X130000000Y-89500000D03*
X130500000Y-89500000D03*
D26*
X129500000Y-88000000D03*
D22*
X133879080Y-84521869D03*
X132229080Y-84521869D03*
D27*
X129010000Y-101380000D03*
X130560000Y-101380000D03*
D28*
X123881597Y-68118654D03*
D29*
X136290000Y-100660000D03*
X136290000Y-99110000D03*
D30*
X130955176Y-94000000D03*
X129405176Y-94000000D03*
D23*
X124090000Y-100160000D03*
X124090000Y-98510000D03*
D29*
X125175007Y-90541678D03*
X125175007Y-88991678D03*
D31*
X127540000Y-97495000D03*
X126590000Y-97495000D03*
X125640000Y-97495000D03*
X125640000Y-99770000D03*
X127540000Y-99770000D03*
D23*
X136463512Y-81067859D03*
X136463512Y-79417859D03*
X133530000Y-100200000D03*
X133530000Y-98550000D03*
D16*
X133560000Y-95410000D03*
D15*
X133560000Y-92870000D03*
X133560000Y-90330000D03*
D32*
X126782688Y-85725000D03*
X126782688Y-87275000D03*
D31*
X134903847Y-78212500D03*
X133953847Y-78212500D03*
X133003847Y-78212500D03*
X133003847Y-80487500D03*
X133953847Y-80487500D03*
X134903847Y-80487500D03*
D32*
X136442953Y-82725000D03*
X136442953Y-84275000D03*
D27*
X133325000Y-76275000D03*
X134875000Y-76275000D03*
D16*
X135300000Y-108400000D03*
D15*
X132760000Y-108400000D03*
D33*
X131608251Y-81408321D03*
X131608251Y-83058321D03*
D34*
X131340000Y-104490000D03*
X131340000Y-103840000D03*
X131340000Y-103190000D03*
X129440000Y-103190000D03*
X129440000Y-103840000D03*
X129440000Y-104490000D03*
D24*
X132229080Y-86111869D03*
X133879080Y-86111869D03*
D35*
X124613399Y-77991232D03*
X127153399Y-77991232D03*
X129693399Y-77991232D03*
D30*
X127375000Y-104750000D03*
X125825000Y-104750000D03*
D36*
X133804080Y-87691869D03*
X132229080Y-87691869D03*
D27*
X129075000Y-99580000D03*
X130625000Y-99580000D03*
D22*
X127395000Y-101540000D03*
X125745000Y-101540000D03*
D16*
X128992150Y-82612483D03*
D15*
X126452150Y-82612483D03*
X123912150Y-82612483D03*
D28*
X123896879Y-70311183D03*
D23*
X126817505Y-91039778D03*
X126817505Y-89389778D03*
D22*
X127400000Y-103130000D03*
X125750000Y-103130000D03*
D27*
X129235000Y-97870000D03*
X130785000Y-97870000D03*
D32*
X125174942Y-85725000D03*
X125174942Y-87275000D03*
%LPD*%
M02*
