G04 #@! TF.GenerationSoftware,KiCad,Pcbnew,9.0.6*
G04 #@! TF.CreationDate,2026-01-09T20:09:44+00:00*
G04 #@! TF.ProjectId,ExtendedRangeSupply,45787465-6e64-4656-9452-616e67655375,rev?*
G04 #@! TF.SameCoordinates,Original*
G04 #@! TF.FileFunction,Soldermask,Top*
G04 #@! TF.FilePolarity,Negative*
%FSLAX46Y46*%
G04 Gerber Fmt 4.6, Leading zero omitted, Abs format (unit mm)*
G04 Created by KiCad (PCBNEW 9.0.6) date 2026-01-09 20:09:44*
%MOMM*%
%LPD*%
G01*
G04 APERTURE LIST*
G04 Aperture macros list*
%AMRoundRect*
0 Rectangle with rounded corners*
0 $1 Rounding radius*
0 $2 $3 $4 $5 $6 $7 $8 $9 X,Y pos of 4 corners*
0 Add a 4 corners polygon primitive as box body*
4,1,4,$2,$3,$4,$5,$6,$7,$8,$9,$2,$3,0*
0 Add four circle primitives for the rounded corners*
1,1,$1+$1,$2,$3*
1,1,$1+$1,$4,$5*
1,1,$1+$1,$6,$7*
1,1,$1+$1,$8,$9*
0 Add four rect primitives between the rounded corners*
20,1,$1+$1,$2,$3,$4,$5,0*
20,1,$1+$1,$4,$5,$6,$7,0*
20,1,$1+$1,$6,$7,$8,$9,0*
20,1,$1+$1,$8,$9,$2,$3,0*%
G04 Aperture macros list end*
%ADD10RoundRect,0.150000X0.512500X0.150000X-0.512500X0.150000X-0.512500X-0.150000X0.512500X-0.150000X0*%
%ADD11C,1.700000*%
%ADD12R,1.700000X1.700000*%
%ADD13RoundRect,0.135000X0.135000X0.185000X-0.135000X0.185000X-0.135000X-0.185000X0.135000X-0.185000X0*%
%ADD14R,0.800000X0.800000*%
%ADD15RoundRect,0.062500X-0.062500X-0.375000X0.062500X-0.375000X0.062500X0.375000X-0.062500X0.375000X0*%
%ADD16RoundRect,0.062500X-0.375000X-0.062500X0.375000X-0.062500X0.375000X0.062500X-0.375000X0.062500X0*%
%ADD17R,1.500000X5.080000*%
%ADD18RoundRect,0.200000X0.200000X0.275000X-0.200000X0.275000X-0.200000X-0.275000X0.200000X-0.275000X0*%
%ADD19RoundRect,0.200000X0.275000X-0.200000X0.275000X0.200000X-0.275000X0.200000X-0.275000X-0.200000X0*%
%ADD20RoundRect,0.200000X-0.200000X-0.275000X0.200000X-0.275000X0.200000X0.275000X-0.200000X0.275000X0*%
%ADD21R,0.300000X0.850000*%
%ADD22R,2.500000X1.750000*%
%ADD23RoundRect,0.225000X-0.225000X-0.250000X0.225000X-0.250000X0.225000X0.250000X-0.225000X0.250000X0*%
%ADD24C,1.500000*%
%ADD25RoundRect,0.225000X0.250000X-0.225000X0.250000X0.225000X-0.250000X0.225000X-0.250000X-0.225000X0*%
%ADD26RoundRect,0.225000X0.225000X0.250000X-0.225000X0.250000X-0.225000X-0.250000X0.225000X-0.250000X0*%
%ADD27RoundRect,0.150000X-0.150000X0.512500X-0.150000X-0.512500X0.150000X-0.512500X0.150000X0.512500X0*%
%ADD28RoundRect,0.225000X-0.250000X0.225000X-0.250000X-0.225000X0.250000X-0.225000X0.250000X0.225000X0*%
%ADD29RoundRect,0.200000X-0.275000X0.200000X-0.275000X-0.200000X0.275000X-0.200000X0.275000X0.200000X0*%
%ADD30RoundRect,0.100000X0.225000X0.100000X-0.225000X0.100000X-0.225000X-0.100000X0.225000X-0.100000X0*%
%ADD31C,1.440000*%
%ADD32RoundRect,0.218750X0.218750X0.256250X-0.218750X0.256250X-0.218750X-0.256250X0.218750X-0.256250X0*%
G04 APERTURE END LIST*
D10*
X127487500Y-94522500D03*
X127487500Y-93572500D03*
X127487500Y-92622500D03*
X125212500Y-92622500D03*
X125212500Y-94522500D03*
D11*
X129040000Y-108400000D03*
X126500000Y-108400000D03*
D12*
X123960000Y-108400000D03*
D13*
X129090000Y-106075000D03*
X130110000Y-106075000D03*
D14*
X134350000Y-103272500D03*
D15*
X133600000Y-101835000D03*
X134100000Y-101835000D03*
X134600000Y-101835000D03*
X135100000Y-101835000D03*
D16*
X135787500Y-102522500D03*
X135787500Y-103022500D03*
X135787500Y-103522500D03*
X135787500Y-104022500D03*
D15*
X135100000Y-104710000D03*
X134600000Y-104710000D03*
X134100000Y-104710000D03*
X133600000Y-104710000D03*
D16*
X132912500Y-104022500D03*
X132912500Y-103522500D03*
X132912500Y-103022500D03*
X132912500Y-102522500D03*
D17*
X131725000Y-69325000D03*
X127475000Y-69325000D03*
X135975000Y-69325000D03*
D12*
X123320000Y-86485000D03*
D11*
X123320000Y-89025000D03*
X123320000Y-91565000D03*
X123320000Y-94105000D03*
X123320000Y-96645000D03*
D12*
X136020000Y-86485000D03*
D11*
X136020000Y-89025000D03*
X136020000Y-91565000D03*
X136020000Y-94105000D03*
X136020000Y-96645000D03*
D12*
X123320000Y-111250000D03*
D11*
X125860000Y-111250000D03*
X128400000Y-111250000D03*
X130940000Y-111250000D03*
X133480000Y-111250000D03*
X136020000Y-111250000D03*
D18*
X130325000Y-91115446D03*
X128675000Y-91115446D03*
D19*
X136463239Y-77825000D03*
X136463239Y-76175000D03*
D20*
X133175000Y-82500000D03*
X134825000Y-82500000D03*
D21*
X130500000Y-86500000D03*
X130000000Y-86500000D03*
X129500000Y-86500000D03*
X129000000Y-86500000D03*
X128500000Y-86500000D03*
X128500000Y-89500000D03*
X129000000Y-89500000D03*
X129500000Y-89500000D03*
X130000000Y-89500000D03*
X130500000Y-89500000D03*
D22*
X129500000Y-88000000D03*
D18*
X133879080Y-84521869D03*
X132229080Y-84521869D03*
D23*
X129010000Y-101380000D03*
X130560000Y-101380000D03*
D24*
X123881597Y-68118654D03*
D25*
X136290000Y-100660000D03*
X136290000Y-99110000D03*
D26*
X130955176Y-94000000D03*
X129405176Y-94000000D03*
D19*
X124090000Y-100160000D03*
X124090000Y-98510000D03*
D25*
X125175007Y-90541678D03*
X125175007Y-88991678D03*
D27*
X127540000Y-97495000D03*
X126590000Y-97495000D03*
X125640000Y-97495000D03*
X125640000Y-99770000D03*
X127540000Y-99770000D03*
D19*
X136463512Y-81067859D03*
X136463512Y-79417859D03*
X133530000Y-100200000D03*
X133530000Y-98550000D03*
D12*
X133560000Y-95410000D03*
D11*
X133560000Y-92870000D03*
X133560000Y-90330000D03*
D28*
X126782688Y-85725000D03*
X126782688Y-87275000D03*
D27*
X134903847Y-78212500D03*
X133953847Y-78212500D03*
X133003847Y-78212500D03*
X133003847Y-80487500D03*
X133953847Y-80487500D03*
X134903847Y-80487500D03*
D28*
X136442953Y-82725000D03*
X136442953Y-84275000D03*
D23*
X133325000Y-76275000D03*
X134875000Y-76275000D03*
D12*
X135300000Y-108400000D03*
D11*
X132760000Y-108400000D03*
D29*
X131608251Y-81408321D03*
X131608251Y-83058321D03*
D30*
X131340000Y-104490000D03*
X131340000Y-103840000D03*
X131340000Y-103190000D03*
X129440000Y-103190000D03*
X129440000Y-103840000D03*
X129440000Y-104490000D03*
D20*
X132229080Y-86111869D03*
X133879080Y-86111869D03*
D31*
X124613399Y-77991232D03*
X127153399Y-77991232D03*
X129693399Y-77991232D03*
D26*
X127375000Y-104750000D03*
X125825000Y-104750000D03*
D32*
X133804080Y-87691869D03*
X132229080Y-87691869D03*
D23*
X129075000Y-99580000D03*
X130625000Y-99580000D03*
D18*
X127395000Y-101540000D03*
X125745000Y-101540000D03*
D12*
X128992150Y-82612483D03*
D11*
X126452150Y-82612483D03*
X123912150Y-82612483D03*
D24*
X123896879Y-70311183D03*
D19*
X126817505Y-91039778D03*
X126817505Y-89389778D03*
D18*
X127400000Y-103130000D03*
X125750000Y-103130000D03*
D23*
X129235000Y-97870000D03*
X130785000Y-97870000D03*
D28*
X125174942Y-85725000D03*
X125174942Y-87275000D03*
M02*
