G04 #@! TF.GenerationSoftware,KiCad,Pcbnew,(6.0.0-0)*
G04 #@! TF.CreationDate,2022-07-07T12:10:55+02:00*
G04 #@! TF.ProjectId,core-v-mini-mcu-spiboot-fpga,636f7265-2d76-42d6-9d69-6e692d6d6375,rev?*
G04 #@! TF.SameCoordinates,Original*
G04 #@! TF.FileFunction,Legend,Bot*
G04 #@! TF.FilePolarity,Positive*
%FSLAX46Y46*%
G04 Gerber Fmt 4.6, Leading zero omitted, Abs format (unit mm)*
G04 Created by KiCad (PCBNEW (6.0.0-0)) date 2022-07-07 12:10:55*
%MOMM*%
%LPD*%
G01*
G04 APERTURE LIST*
G04 Aperture macros list*
%AMHorizOval*
0 Thick line with rounded ends*
0 $1 width*
0 $2 $3 position (X,Y) of the first rounded end (center of the circle)*
0 $4 $5 position (X,Y) of the second rounded end (center of the circle)*
0 Add line between two ends*
20,1,$1,$2,$3,$4,$5,0*
0 Add two circle primitives to create the rounded ends*
1,1,$1,$2,$3*
1,1,$1,$4,$5*%
%AMRotRect*
0 Rectangle, with rotation*
0 The origin of the aperture is its center*
0 $1 length*
0 $2 width*
0 $3 Rotation angle, in degrees counterclockwise*
0 Add horizontal line*
21,1,$1,$2,0,0,$3*%
G04 Aperture macros list end*
%ADD10C,0.150000*%
%ADD11C,0.120000*%
%ADD12R,1.700000X1.700000*%
%ADD13O,1.700000X1.700000*%
%ADD14HorizOval,1.200000X-0.247487X-0.247487X0.247487X0.247487X0*%
%ADD15HorizOval,1.200000X0.247487X0.247487X-0.247487X-0.247487X0*%
%ADD16C,1.450000*%
%ADD17C,1.000000*%
%ADD18RotRect,2.000000X5.000000X45.000000*%
G04 APERTURE END LIST*
D10*
X99081694Y-88977103D02*
X99418412Y-88640385D01*
X98475603Y-89111790D02*
X99081694Y-88977103D01*
X98947007Y-89583194D01*
X100260205Y-89482179D02*
X99856144Y-89078118D01*
X100058175Y-89280149D02*
X99351068Y-89987255D01*
X99384740Y-89818897D01*
X99384740Y-89684210D01*
X99351068Y-89583194D01*
D11*
X101358579Y-87302944D02*
X102207107Y-87302944D01*
X99979720Y-87974695D02*
X100333274Y-88328249D01*
X102207107Y-87302944D02*
X102207107Y-87302944D01*
X101005025Y-87656497D02*
X101005025Y-88505025D01*
X101005025Y-88505025D02*
X101005025Y-88505025D01*
X100333274Y-88328249D02*
X102030330Y-86631192D01*
X102030330Y-86631192D02*
X101676777Y-86277639D01*
%LPC*%
D12*
X108712000Y-106648000D03*
D13*
X108712000Y-109188000D03*
X106172000Y-106648000D03*
X106172000Y-109188000D03*
X103632000Y-106648000D03*
X103632000Y-109188000D03*
X101092000Y-106648000D03*
X101092000Y-109188000D03*
X98552000Y-106648000D03*
X98552000Y-109188000D03*
X96012000Y-106648000D03*
X96012000Y-109188000D03*
X93472000Y-106648000D03*
X93472000Y-109188000D03*
X90932000Y-106648000D03*
X90932000Y-109188000D03*
X88392000Y-106648000D03*
X88392000Y-109188000D03*
X85852000Y-106648000D03*
X85852000Y-109188000D03*
D12*
X88975000Y-73500000D03*
D13*
X91515000Y-73500000D03*
D12*
X81280000Y-109220000D03*
D13*
X78740000Y-109220000D03*
X81280000Y-106680000D03*
X78740000Y-106680000D03*
X81280000Y-104140000D03*
X78740000Y-104140000D03*
X81280000Y-101600000D03*
X78740000Y-101600000D03*
X81280000Y-99060000D03*
X78740000Y-99060000D03*
X81280000Y-96520000D03*
X78740000Y-96520000D03*
D14*
X111078217Y-79425514D03*
D15*
X106128470Y-74475767D03*
D16*
X108461922Y-80627596D03*
X104926388Y-77092062D03*
D12*
X81280000Y-86360000D03*
D13*
X78740000Y-86360000D03*
X81280000Y-83820000D03*
X78740000Y-83820000D03*
X81280000Y-81280000D03*
X78740000Y-81280000D03*
X81280000Y-78740000D03*
X78740000Y-78740000D03*
X81280000Y-76200000D03*
X78740000Y-76200000D03*
X81280000Y-73660000D03*
X78740000Y-73660000D03*
D17*
X101500000Y-89000000D03*
X102702082Y-87797918D03*
D18*
X98919060Y-85216979D03*
M02*
