G04 #@! TF.GenerationSoftware,KiCad,Pcbnew,(6.0.0-0)*
G04 #@! TF.CreationDate,2022-07-07T12:10:55+02:00*
G04 #@! TF.ProjectId,core-v-mini-mcu-spiboot-fpga,636f7265-2d76-42d6-9d69-6e692d6d6375,rev?*
G04 #@! TF.SameCoordinates,Original*
G04 #@! TF.FileFunction,Copper,L2,Inr*
G04 #@! TF.FilePolarity,Positive*
%FSLAX46Y46*%
G04 Gerber Fmt 4.6, Leading zero omitted, Abs format (unit mm)*
G04 Created by KiCad (PCBNEW (6.0.0-0)) date 2022-07-07 12:10:55*
%MOMM*%
%LPD*%
G01*
G04 APERTURE LIST*
G04 Aperture macros list*
%AMHorizOval*
0 Thick line with rounded ends*
0 $1 width*
0 $2 $3 position (X,Y) of the first rounded end (center of the circle)*
0 $4 $5 position (X,Y) of the second rounded end (center of the circle)*
0 Add line between two ends*
20,1,$1,$2,$3,$4,$5,0*
0 Add two circle primitives to create the rounded ends*
1,1,$1,$2,$3*
1,1,$1,$4,$5*%
G04 Aperture macros list end*
G04 #@! TA.AperFunction,ComponentPad*
%ADD10R,1.700000X1.700000*%
G04 #@! TD*
G04 #@! TA.AperFunction,ComponentPad*
%ADD11O,1.700000X1.700000*%
G04 #@! TD*
G04 #@! TA.AperFunction,ComponentPad*
%ADD12HorizOval,1.200000X-0.247487X-0.247487X0.247487X0.247487X0*%
G04 #@! TD*
G04 #@! TA.AperFunction,ComponentPad*
%ADD13HorizOval,1.200000X0.247487X0.247487X-0.247487X-0.247487X0*%
G04 #@! TD*
G04 #@! TA.AperFunction,ComponentPad*
%ADD14C,1.450000*%
G04 #@! TD*
G04 #@! TA.AperFunction,ComponentPad*
%ADD15C,1.000000*%
G04 #@! TD*
G04 #@! TA.AperFunction,ViaPad*
%ADD16C,0.800000*%
G04 #@! TD*
G04 #@! TA.AperFunction,ViaPad*
%ADD17C,0.600000*%
G04 #@! TD*
G04 #@! TA.AperFunction,Conductor*
%ADD18C,0.250000*%
G04 #@! TD*
G04 APERTURE END LIST*
D10*
X108712000Y-106648000D03*
D11*
X108712000Y-109188000D03*
X106172000Y-106648000D03*
X106172000Y-109188000D03*
X103632000Y-106648000D03*
X103632000Y-109188000D03*
X101092000Y-106648000D03*
X101092000Y-109188000D03*
X98552000Y-106648000D03*
X98552000Y-109188000D03*
X96012000Y-106648000D03*
X96012000Y-109188000D03*
X93472000Y-106648000D03*
X93472000Y-109188000D03*
X90932000Y-106648000D03*
X90932000Y-109188000D03*
X88392000Y-106648000D03*
X88392000Y-109188000D03*
X85852000Y-106648000D03*
X85852000Y-109188000D03*
D10*
X88975000Y-73500000D03*
D11*
X91515000Y-73500000D03*
D10*
X81280000Y-109220000D03*
D11*
X78740000Y-109220000D03*
X81280000Y-106680000D03*
X78740000Y-106680000D03*
X81280000Y-104140000D03*
X78740000Y-104140000D03*
X81280000Y-101600000D03*
X78740000Y-101600000D03*
X81280000Y-99060000D03*
X78740000Y-99060000D03*
X81280000Y-96520000D03*
X78740000Y-96520000D03*
D12*
X111078217Y-79425514D03*
D13*
X106128470Y-74475767D03*
D14*
X108461922Y-80627596D03*
X104926388Y-77092062D03*
D10*
X81280000Y-86360000D03*
D11*
X78740000Y-86360000D03*
X81280000Y-83820000D03*
X78740000Y-83820000D03*
X81280000Y-81280000D03*
X78740000Y-81280000D03*
X81280000Y-78740000D03*
X78740000Y-78740000D03*
X81280000Y-76200000D03*
X78740000Y-76200000D03*
X81280000Y-73660000D03*
X78740000Y-73660000D03*
D15*
X101500000Y-89000000D03*
X102702082Y-87797918D03*
D16*
X86775000Y-95050000D03*
X91925000Y-100225000D03*
X98850000Y-92100000D03*
X93025000Y-98800000D03*
X92425000Y-96100000D03*
X113250000Y-92500000D03*
X92250000Y-92750000D03*
X92650000Y-82475000D03*
X97040559Y-100109441D03*
X98502752Y-95208873D03*
X92475000Y-104850000D03*
X88725000Y-84850000D03*
X94646751Y-101396751D03*
X103500000Y-97750000D03*
X110000000Y-88250000D03*
X104500000Y-79000000D03*
X83500000Y-81000000D03*
X101050000Y-91750000D03*
X100750000Y-86250000D03*
X100000000Y-99800000D03*
X96250000Y-75500000D03*
X113500000Y-94500000D03*
X88263129Y-98000000D03*
X97425000Y-97300000D03*
X109250000Y-89250000D03*
X89300000Y-102225000D03*
X91486715Y-86185834D03*
X107750000Y-83500000D03*
X106225000Y-101775000D03*
X109125000Y-99625000D03*
X98750000Y-82850000D03*
X105225000Y-91925000D03*
X96225000Y-101725000D03*
X90275990Y-86787318D03*
X89157665Y-86711553D03*
X88355565Y-87219677D03*
X88890833Y-88060554D03*
X85524500Y-91609356D03*
X85610261Y-90663734D03*
X91675999Y-98538277D03*
D17*
X94350000Y-97375000D03*
D16*
X94400989Y-87543306D03*
X82834098Y-98287215D03*
X93565654Y-87045211D03*
X92619949Y-86960378D03*
X94400990Y-86593804D03*
X87974500Y-80512299D03*
X88816860Y-89123668D03*
X87606233Y-88819933D03*
X89025500Y-80500000D03*
X87386997Y-89795095D03*
X86576304Y-79298294D03*
X88012299Y-78487701D03*
X86487947Y-92283856D03*
X109912722Y-94829448D03*
D17*
X99050000Y-93200000D03*
D16*
X86506531Y-90268156D03*
D17*
X98677436Y-93889903D03*
D16*
X108644199Y-95727473D03*
D17*
X98074951Y-94474951D03*
D16*
X106250000Y-97750000D03*
D18*
X88392000Y-106648000D02*
X88392000Y-104192000D01*
X84934199Y-89079701D02*
X84934202Y-89079699D01*
X85500000Y-98657112D02*
X83451467Y-96608579D01*
X83451469Y-90569197D02*
X83982550Y-90038116D01*
X85500000Y-101300000D02*
X85500000Y-98657112D01*
X86794224Y-87219677D02*
X88355565Y-87219677D01*
X83982550Y-90038116D02*
X83982550Y-90031350D01*
X88392000Y-104192000D02*
X85500000Y-101300000D01*
X83982550Y-90031350D02*
X83983191Y-90030709D01*
X83451467Y-96608579D02*
X83451469Y-90569197D01*
X83983191Y-90030671D02*
X84934161Y-89079701D01*
X84934161Y-89079701D02*
X84934199Y-89079701D01*
X83983191Y-90030709D02*
X83983191Y-90030671D01*
X84934202Y-89079699D02*
X86794224Y-87219677D01*
X84000000Y-101420000D02*
X84000000Y-97792813D01*
X83533039Y-89851923D02*
X83533040Y-89845156D01*
X83533680Y-89844516D02*
X83533681Y-89844477D01*
X84000000Y-97792813D02*
X83001956Y-96794769D01*
X83533040Y-89845156D02*
X83533680Y-89844516D01*
X88946112Y-86500000D02*
X89157665Y-86711553D01*
X83001956Y-96794769D02*
X83001959Y-90383003D01*
X83001959Y-90383003D02*
X83533039Y-89851923D01*
X81280000Y-104140000D02*
X84000000Y-101420000D01*
X83533681Y-89844477D02*
X86878158Y-86500000D01*
X86878158Y-86500000D02*
X88946112Y-86500000D01*
X84432674Y-90216930D02*
X86574604Y-88075000D01*
X82552445Y-96980962D02*
X82552445Y-90403832D01*
X82552445Y-90403832D02*
X82552448Y-90403829D01*
X89600000Y-107980000D02*
X89600000Y-104835006D01*
X81900000Y-102900000D02*
X83600489Y-101199511D01*
X86574604Y-88075000D02*
X88876387Y-88075000D01*
X82552449Y-90196809D02*
X82951956Y-89797302D01*
X84432673Y-90223697D02*
X84432674Y-90216930D01*
X83900979Y-90755391D02*
X84432673Y-90223697D01*
X88876387Y-88075000D02*
X88890833Y-88060554D01*
X82951956Y-89797302D02*
X82951956Y-89790422D01*
X82951956Y-89790422D02*
X86742378Y-86000000D01*
X79980000Y-102900000D02*
X81900000Y-102900000D01*
X85899510Y-98420918D02*
X83900978Y-96422386D01*
X89600000Y-104835006D02*
X85899510Y-101134516D01*
X88392000Y-109188000D02*
X89600000Y-107980000D01*
X85899510Y-101134516D02*
X85899510Y-98420918D01*
X83900978Y-96422386D02*
X83900979Y-90755391D01*
X86742378Y-86000000D02*
X89400000Y-86000000D01*
X78740000Y-104140000D02*
X79980000Y-102900000D01*
X83600489Y-101199511D02*
X83600489Y-98029009D01*
X83600489Y-98029009D02*
X82552445Y-96980962D01*
X82552448Y-90403829D02*
X82552449Y-90196809D01*
X89400000Y-86000000D02*
X90187318Y-86787318D01*
X90187318Y-86787318D02*
X90275990Y-86787318D01*
X98944963Y-94474951D02*
X98074951Y-94474951D01*
X106250000Y-97750000D02*
X104099021Y-95599021D01*
X100069033Y-95599021D02*
X98944963Y-94474951D01*
X100234517Y-95199511D02*
X98924909Y-93889903D01*
X98924909Y-93889903D02*
X98677436Y-93889903D01*
X99050000Y-93450000D02*
X99050000Y-93200000D01*
X108644199Y-95727473D02*
X108116237Y-95199511D01*
X108116237Y-95199511D02*
X100234517Y-95199511D01*
X104099021Y-95599021D02*
X100069033Y-95599021D01*
X109883274Y-94800000D02*
X100400000Y-94800000D01*
X109912722Y-94829448D02*
X109883274Y-94800000D01*
X100400000Y-94800000D02*
X99050000Y-93450000D01*
X86067250Y-90139188D02*
X86377563Y-90139188D01*
X85906784Y-89978722D02*
X86067250Y-90139188D01*
X86299022Y-98184726D02*
X84350489Y-96236193D01*
X86299022Y-100969034D02*
X86299022Y-98184726D01*
X84882184Y-90403124D02*
X85306586Y-89978722D01*
X84882184Y-90409890D02*
X84882184Y-90403124D01*
X90932000Y-105602012D02*
X86299022Y-100969034D01*
X86377563Y-90139188D02*
X86506531Y-90268156D01*
X90932000Y-106648000D02*
X90932000Y-105602012D01*
X85306586Y-89978722D02*
X85906784Y-89978722D01*
X84350489Y-96236193D02*
X84350489Y-90941585D01*
X84350489Y-90941585D02*
X84882184Y-90409890D01*
X90932000Y-109188000D02*
X92200000Y-107920000D01*
X92200000Y-107920000D02*
X92200000Y-106254990D01*
X92200000Y-106254990D02*
X86700000Y-100754990D01*
X86700000Y-100750000D02*
X86700000Y-97950000D01*
X84800000Y-96050000D02*
X84800000Y-92333856D01*
X86700000Y-97950000D02*
X84800000Y-96050000D01*
X84800000Y-92333856D02*
X85524500Y-91609356D01*
G04 #@! TA.AperFunction,Conductor*
G36*
X87823562Y-72028002D02*
G01*
X87870055Y-72081658D01*
X87880159Y-72151932D01*
X87850665Y-72216512D01*
X87831006Y-72234826D01*
X87798568Y-72259137D01*
X87761739Y-72286739D01*
X87674385Y-72403295D01*
X87623255Y-72539684D01*
X87616500Y-72601866D01*
X87616500Y-74398134D01*
X87623255Y-74460316D01*
X87674385Y-74596705D01*
X87761739Y-74713261D01*
X87878295Y-74800615D01*
X88014684Y-74851745D01*
X88076866Y-74858500D01*
X89873134Y-74858500D01*
X89935316Y-74851745D01*
X90071705Y-74800615D01*
X90188261Y-74713261D01*
X90275615Y-74596705D01*
X90297799Y-74537529D01*
X90319598Y-74479382D01*
X90362240Y-74422618D01*
X90428802Y-74397918D01*
X90498150Y-74413126D01*
X90532817Y-74441114D01*
X90561250Y-74473938D01*
X90733126Y-74616632D01*
X90926000Y-74729338D01*
X91134692Y-74809030D01*
X91139760Y-74810061D01*
X91139763Y-74810062D01*
X91218323Y-74826045D01*
X91353597Y-74853567D01*
X91358772Y-74853757D01*
X91358774Y-74853757D01*
X91571673Y-74861564D01*
X91571677Y-74861564D01*
X91576837Y-74861753D01*
X91581957Y-74861097D01*
X91581959Y-74861097D01*
X91793288Y-74834025D01*
X91793289Y-74834025D01*
X91798416Y-74833368D01*
X91806656Y-74830896D01*
X92007429Y-74770661D01*
X92007434Y-74770659D01*
X92012384Y-74769174D01*
X92212994Y-74670896D01*
X92394860Y-74541173D01*
X92553096Y-74383489D01*
X92568826Y-74361599D01*
X92680435Y-74206277D01*
X92683453Y-74202077D01*
X92701060Y-74166453D01*
X92780136Y-74006453D01*
X92780137Y-74006451D01*
X92782430Y-74001811D01*
X92827106Y-73854767D01*
X92845865Y-73793023D01*
X92845865Y-73793021D01*
X92847370Y-73788069D01*
X92876529Y-73566590D01*
X92878156Y-73500000D01*
X92859852Y-73277361D01*
X92805431Y-73060702D01*
X92716354Y-72855840D01*
X92595014Y-72668277D01*
X92444670Y-72503051D01*
X92440619Y-72499852D01*
X92440615Y-72499848D01*
X92273414Y-72367800D01*
X92273410Y-72367798D01*
X92269359Y-72364598D01*
X92073789Y-72256638D01*
X92068919Y-72254913D01*
X92068909Y-72254909D01*
X92062874Y-72252772D01*
X92005338Y-72211178D01*
X91979423Y-72145080D01*
X91993358Y-72075464D01*
X92042717Y-72024433D01*
X92104935Y-72008000D01*
X105237390Y-72008000D01*
X105305511Y-72028002D01*
X105326485Y-72044905D01*
X106212371Y-72930791D01*
X106246397Y-72993103D01*
X106241332Y-73063918D01*
X106198785Y-73120754D01*
X106149796Y-73143063D01*
X106039255Y-73166862D01*
X106033743Y-73169207D01*
X106033741Y-73169208D01*
X105986511Y-73189305D01*
X105844621Y-73249680D01*
X105669158Y-73367808D01*
X105665033Y-73371549D01*
X105059787Y-73976794D01*
X104958903Y-74098959D01*
X104857487Y-74284583D01*
X104821208Y-74397918D01*
X104795132Y-74479382D01*
X104793002Y-74486035D01*
X104792288Y-74491981D01*
X104770636Y-74672218D01*
X104767773Y-74696047D01*
X104768196Y-74702022D01*
X104768196Y-74702025D01*
X104779460Y-74861097D01*
X104782713Y-74907042D01*
X104784260Y-74912835D01*
X104784260Y-74912836D01*
X104818222Y-75040027D01*
X104837280Y-75111404D01*
X104839894Y-75116799D01*
X104839895Y-75116802D01*
X104883533Y-75206870D01*
X104929507Y-75301761D01*
X105056066Y-75471244D01*
X105212389Y-75613736D01*
X105217503Y-75616864D01*
X105217506Y-75616866D01*
X105277559Y-75653594D01*
X105325236Y-75706200D01*
X105336904Y-75776231D01*
X105308858Y-75841453D01*
X105250002Y-75881159D01*
X105179207Y-75882791D01*
X105146716Y-75874085D01*
X105146714Y-75874085D01*
X105141401Y-75872661D01*
X104926388Y-75853850D01*
X104711375Y-75872661D01*
X104706062Y-75874085D01*
X104706060Y-75874085D01*
X104508205Y-75927100D01*
X104508203Y-75927101D01*
X104502895Y-75928523D01*
X104497914Y-75930845D01*
X104497913Y-75930846D01*
X104312269Y-76017413D01*
X104312264Y-76017416D01*
X104307282Y-76019739D01*
X104130481Y-76143537D01*
X103977863Y-76296155D01*
X103854065Y-76472956D01*
X103851742Y-76477938D01*
X103851739Y-76477943D01*
X103791261Y-76607639D01*
X103762849Y-76668569D01*
X103761427Y-76673877D01*
X103761426Y-76673879D01*
X103708411Y-76871734D01*
X103706987Y-76877049D01*
X103688176Y-77092062D01*
X103706987Y-77307075D01*
X103708411Y-77312388D01*
X103708411Y-77312390D01*
X103754222Y-77483357D01*
X103762849Y-77515555D01*
X103765171Y-77520536D01*
X103765172Y-77520537D01*
X103851739Y-77706181D01*
X103851742Y-77706186D01*
X103854065Y-77711168D01*
X103874147Y-77739848D01*
X103972660Y-77880538D01*
X103977863Y-77887969D01*
X104130481Y-78040587D01*
X104134989Y-78043744D01*
X104134992Y-78043746D01*
X104205037Y-78092792D01*
X104307282Y-78164385D01*
X104312264Y-78166708D01*
X104312269Y-78166711D01*
X104497913Y-78253278D01*
X104502895Y-78255601D01*
X104508203Y-78257023D01*
X104508205Y-78257024D01*
X104706060Y-78310039D01*
X104706062Y-78310039D01*
X104711375Y-78311463D01*
X104926388Y-78330274D01*
X105141401Y-78311463D01*
X105146714Y-78310039D01*
X105146716Y-78310039D01*
X105344571Y-78257024D01*
X105344573Y-78257023D01*
X105349881Y-78255601D01*
X105354863Y-78253278D01*
X105540507Y-78166711D01*
X105540512Y-78166708D01*
X105545494Y-78164385D01*
X105647739Y-78092792D01*
X105717784Y-78043746D01*
X105717787Y-78043744D01*
X105722295Y-78040587D01*
X105874913Y-77887969D01*
X105880117Y-77880538D01*
X105978629Y-77739848D01*
X105998711Y-77711168D01*
X106001034Y-77706186D01*
X106001037Y-77706181D01*
X106087604Y-77520537D01*
X106087605Y-77520536D01*
X106089927Y-77515555D01*
X106098555Y-77483357D01*
X106144365Y-77312390D01*
X106144365Y-77312388D01*
X106145789Y-77307075D01*
X106164600Y-77092062D01*
X106145789Y-76877049D01*
X106144365Y-76871734D01*
X106091350Y-76673879D01*
X106091349Y-76673877D01*
X106089927Y-76668569D01*
X106061515Y-76607639D01*
X106001037Y-76477943D01*
X106001034Y-76477938D01*
X105998711Y-76472956D01*
X105874913Y-76296155D01*
X105722295Y-76143537D01*
X105717784Y-76140378D01*
X105572275Y-76038491D01*
X105527947Y-75983034D01*
X105520638Y-75912414D01*
X105552669Y-75849054D01*
X105613870Y-75813069D01*
X105665666Y-75811061D01*
X105799429Y-75833806D01*
X105878584Y-75832079D01*
X106004902Y-75829322D01*
X106004903Y-75829322D01*
X106010900Y-75829191D01*
X106016760Y-75827929D01*
X106016763Y-75827929D01*
X106154162Y-75798348D01*
X106217685Y-75784672D01*
X106223197Y-75782327D01*
X106223199Y-75782326D01*
X106389870Y-75711406D01*
X106412319Y-75701854D01*
X106587782Y-75583726D01*
X106591907Y-75579985D01*
X107197153Y-74974740D01*
X107298037Y-74852575D01*
X107399453Y-74666951D01*
X107463938Y-74465499D01*
X107464653Y-74459543D01*
X107465014Y-74457890D01*
X107499069Y-74395594D01*
X107561398Y-74361599D01*
X107632211Y-74366697D01*
X107677217Y-74395637D01*
X111162118Y-77880538D01*
X111196144Y-77942850D01*
X111191079Y-78013665D01*
X111148532Y-78070501D01*
X111099543Y-78092810D01*
X110989002Y-78116609D01*
X110983490Y-78118954D01*
X110983488Y-78118955D01*
X110910836Y-78149869D01*
X110794368Y-78199427D01*
X110618905Y-78317555D01*
X110614780Y-78321296D01*
X110009534Y-78926541D01*
X109908650Y-79048706D01*
X109807234Y-79234330D01*
X109770263Y-79349829D01*
X109749323Y-79415246D01*
X109742749Y-79435782D01*
X109739073Y-79466380D01*
X109720200Y-79623489D01*
X109717520Y-79645794D01*
X109717943Y-79651769D01*
X109717943Y-79651772D01*
X109731282Y-79840146D01*
X109732460Y-79856789D01*
X109734007Y-79862582D01*
X109734007Y-79862583D01*
X109736235Y-79870927D01*
X109734483Y-79941902D01*
X109694638Y-80000663D01*
X109629349Y-80028554D01*
X109559346Y-80016719D01*
X109511287Y-79975703D01*
X109511044Y-79975355D01*
X109437922Y-79870927D01*
X109413606Y-79836200D01*
X109413604Y-79836197D01*
X109410447Y-79831689D01*
X109257829Y-79679071D01*
X109252834Y-79675573D01*
X109172368Y-79619230D01*
X109081028Y-79555273D01*
X109076046Y-79552950D01*
X109076041Y-79552947D01*
X108890397Y-79466380D01*
X108890396Y-79466379D01*
X108885415Y-79464057D01*
X108880107Y-79462635D01*
X108880105Y-79462634D01*
X108682250Y-79409619D01*
X108682248Y-79409619D01*
X108676935Y-79408195D01*
X108461922Y-79389384D01*
X108246909Y-79408195D01*
X108241596Y-79409619D01*
X108241594Y-79409619D01*
X108043739Y-79462634D01*
X108043737Y-79462635D01*
X108038429Y-79464057D01*
X108033448Y-79466379D01*
X108033447Y-79466380D01*
X107847803Y-79552947D01*
X107847798Y-79552950D01*
X107842816Y-79555273D01*
X107751476Y-79619230D01*
X107671011Y-79675573D01*
X107666015Y-79679071D01*
X107513397Y-79831689D01*
X107510240Y-79836197D01*
X107510238Y-79836200D01*
X107485922Y-79870927D01*
X107389599Y-80008490D01*
X107387276Y-80013472D01*
X107387273Y-80013477D01*
X107314857Y-80168775D01*
X107298383Y-80204103D01*
X107296961Y-80209411D01*
X107296960Y-80209413D01*
X107257694Y-80355955D01*
X107242521Y-80412583D01*
X107223710Y-80627596D01*
X107242521Y-80842609D01*
X107298383Y-81051089D01*
X107300705Y-81056070D01*
X107300706Y-81056071D01*
X107387273Y-81241715D01*
X107387276Y-81241720D01*
X107389599Y-81246702D01*
X107431192Y-81306102D01*
X107502892Y-81408500D01*
X107513397Y-81423503D01*
X107666015Y-81576121D01*
X107842816Y-81699919D01*
X107847798Y-81702242D01*
X107847803Y-81702245D01*
X108028388Y-81786453D01*
X108038429Y-81791135D01*
X108043737Y-81792557D01*
X108043739Y-81792558D01*
X108241594Y-81845573D01*
X108241596Y-81845573D01*
X108246909Y-81846997D01*
X108461922Y-81865808D01*
X108676935Y-81846997D01*
X108682248Y-81845573D01*
X108682250Y-81845573D01*
X108880105Y-81792558D01*
X108880107Y-81792557D01*
X108885415Y-81791135D01*
X108895456Y-81786453D01*
X109076041Y-81702245D01*
X109076046Y-81702242D01*
X109081028Y-81699919D01*
X109257829Y-81576121D01*
X109410447Y-81423503D01*
X109420953Y-81408500D01*
X109492652Y-81306102D01*
X109534245Y-81246702D01*
X109536568Y-81241720D01*
X109536571Y-81241715D01*
X109623138Y-81056071D01*
X109623139Y-81056070D01*
X109625461Y-81051089D01*
X109681323Y-80842609D01*
X109700134Y-80627596D01*
X109681323Y-80412583D01*
X109672985Y-80381465D01*
X109674675Y-80310489D01*
X109714469Y-80251693D01*
X109779734Y-80223745D01*
X109849747Y-80235519D01*
X109895650Y-80273465D01*
X110005813Y-80420991D01*
X110162136Y-80563483D01*
X110167254Y-80566613D01*
X110337471Y-80670719D01*
X110337477Y-80670722D01*
X110342585Y-80673846D01*
X110540647Y-80748095D01*
X110626010Y-80762610D01*
X110743259Y-80782547D01*
X110743260Y-80782547D01*
X110749176Y-80783553D01*
X110828331Y-80781826D01*
X110954649Y-80779069D01*
X110954650Y-80779069D01*
X110960647Y-80778938D01*
X110966507Y-80777676D01*
X110966510Y-80777676D01*
X111081437Y-80752933D01*
X111167432Y-80734419D01*
X111172944Y-80732074D01*
X111172946Y-80732073D01*
X111309787Y-80673846D01*
X111362066Y-80651601D01*
X111537529Y-80533473D01*
X111541654Y-80529732D01*
X112146900Y-79924487D01*
X112158124Y-79910896D01*
X112205664Y-79853327D01*
X112247784Y-79802322D01*
X112349200Y-79616698D01*
X112413685Y-79415246D01*
X112414400Y-79409290D01*
X112414761Y-79407637D01*
X112448816Y-79345341D01*
X112511145Y-79311346D01*
X112581958Y-79316444D01*
X112626964Y-79345384D01*
X113955095Y-80673515D01*
X113989121Y-80735827D01*
X113992000Y-80762610D01*
X113992000Y-93530552D01*
X113971998Y-93598673D01*
X113918342Y-93645166D01*
X113848068Y-93655270D01*
X113814753Y-93645659D01*
X113788327Y-93633894D01*
X113788321Y-93633892D01*
X113782288Y-93631206D01*
X113688887Y-93611353D01*
X113601944Y-93592872D01*
X113601939Y-93592872D01*
X113595487Y-93591500D01*
X113404513Y-93591500D01*
X113398061Y-93592872D01*
X113398056Y-93592872D01*
X113311113Y-93611353D01*
X113217712Y-93631206D01*
X113211682Y-93633891D01*
X113211681Y-93633891D01*
X113049278Y-93706197D01*
X113049276Y-93706198D01*
X113043248Y-93708882D01*
X112888747Y-93821134D01*
X112760960Y-93963056D01*
X112665473Y-94128444D01*
X112606458Y-94310072D01*
X112586496Y-94500000D01*
X112606458Y-94689928D01*
X112665473Y-94871556D01*
X112760960Y-95036944D01*
X112765378Y-95041851D01*
X112765379Y-95041852D01*
X112884325Y-95173955D01*
X112888747Y-95178866D01*
X112963758Y-95233365D01*
X113026758Y-95279137D01*
X113043248Y-95291118D01*
X113049276Y-95293802D01*
X113049278Y-95293803D01*
X113211681Y-95366109D01*
X113217712Y-95368794D01*
X113292064Y-95384598D01*
X113398056Y-95407128D01*
X113398061Y-95407128D01*
X113404513Y-95408500D01*
X113595487Y-95408500D01*
X113601939Y-95407128D01*
X113601944Y-95407128D01*
X113707936Y-95384598D01*
X113782288Y-95368794D01*
X113788321Y-95366108D01*
X113788327Y-95366106D01*
X113814753Y-95354341D01*
X113885120Y-95344907D01*
X113949416Y-95375014D01*
X113987229Y-95435104D01*
X113992000Y-95469448D01*
X113992000Y-110866000D01*
X113971998Y-110934121D01*
X113918342Y-110980614D01*
X113866000Y-110992000D01*
X76634000Y-110992000D01*
X76565879Y-110971998D01*
X76519386Y-110918342D01*
X76508000Y-110866000D01*
X76508000Y-109186695D01*
X77377251Y-109186695D01*
X77390110Y-109409715D01*
X77391247Y-109414761D01*
X77391248Y-109414767D01*
X77405064Y-109476069D01*
X77439222Y-109627639D01*
X77466277Y-109694267D01*
X77512061Y-109807020D01*
X77523266Y-109834616D01*
X77557775Y-109890930D01*
X77622769Y-109996990D01*
X77639987Y-110025088D01*
X77786250Y-110193938D01*
X77958126Y-110336632D01*
X78151000Y-110449338D01*
X78155825Y-110451180D01*
X78155826Y-110451181D01*
X78175414Y-110458661D01*
X78359692Y-110529030D01*
X78364760Y-110530061D01*
X78364763Y-110530062D01*
X78458324Y-110549097D01*
X78578597Y-110573567D01*
X78583772Y-110573757D01*
X78583774Y-110573757D01*
X78796673Y-110581564D01*
X78796677Y-110581564D01*
X78801837Y-110581753D01*
X78806957Y-110581097D01*
X78806959Y-110581097D01*
X79018288Y-110554025D01*
X79018289Y-110554025D01*
X79023416Y-110553368D01*
X79028366Y-110551883D01*
X79232429Y-110490661D01*
X79232434Y-110490659D01*
X79237384Y-110489174D01*
X79437994Y-110390896D01*
X79619860Y-110261173D01*
X79728091Y-110153319D01*
X79790462Y-110119404D01*
X79861268Y-110124592D01*
X79918030Y-110167238D01*
X79935012Y-110198341D01*
X79957201Y-110257529D01*
X79979385Y-110316705D01*
X80066739Y-110433261D01*
X80183295Y-110520615D01*
X80319684Y-110571745D01*
X80381866Y-110578500D01*
X82178134Y-110578500D01*
X82240316Y-110571745D01*
X82376705Y-110520615D01*
X82493261Y-110433261D01*
X82580615Y-110316705D01*
X82631745Y-110180316D01*
X82638500Y-110118134D01*
X82638500Y-108321866D01*
X82631745Y-108259684D01*
X82580615Y-108123295D01*
X82493261Y-108006739D01*
X82376705Y-107919385D01*
X82257687Y-107874767D01*
X82200923Y-107832125D01*
X82176223Y-107765564D01*
X82191430Y-107696215D01*
X82212977Y-107667535D01*
X82314052Y-107566812D01*
X82320730Y-107558965D01*
X82445003Y-107386020D01*
X82450313Y-107377183D01*
X82544670Y-107186267D01*
X82548469Y-107176672D01*
X82610377Y-106972910D01*
X82612555Y-106962837D01*
X82613986Y-106951962D01*
X82611775Y-106937778D01*
X82598617Y-106934000D01*
X77423225Y-106934000D01*
X77409694Y-106937973D01*
X77408257Y-106947966D01*
X77438565Y-107082446D01*
X77441645Y-107092275D01*
X77521770Y-107289603D01*
X77526413Y-107298794D01*
X77637694Y-107480388D01*
X77643777Y-107488699D01*
X77783213Y-107649667D01*
X77790580Y-107656883D01*
X77954434Y-107792916D01*
X77962881Y-107798831D01*
X78031969Y-107839203D01*
X78080693Y-107890842D01*
X78093764Y-107960625D01*
X78067033Y-108026396D01*
X78026584Y-108059752D01*
X78013607Y-108066507D01*
X78009474Y-108069610D01*
X78009471Y-108069612D01*
X77842900Y-108194677D01*
X77834965Y-108200635D01*
X77795525Y-108241907D01*
X77707126Y-108334411D01*
X77680629Y-108362138D01*
X77554743Y-108546680D01*
X77552564Y-108551375D01*
X77473225Y-108722297D01*
X77460688Y-108749305D01*
X77400989Y-108964570D01*
X77377251Y-109186695D01*
X76508000Y-109186695D01*
X76508000Y-104106695D01*
X77377251Y-104106695D01*
X77377548Y-104111848D01*
X77377548Y-104111851D01*
X77383011Y-104206590D01*
X77390110Y-104329715D01*
X77391247Y-104334761D01*
X77391248Y-104334767D01*
X77409893Y-104417499D01*
X77439222Y-104547639D01*
X77523266Y-104754616D01*
X77574019Y-104837438D01*
X77637291Y-104940688D01*
X77639987Y-104945088D01*
X77786250Y-105113938D01*
X77958126Y-105256632D01*
X78014373Y-105289500D01*
X78031955Y-105299774D01*
X78080679Y-105351412D01*
X78093750Y-105421195D01*
X78067019Y-105486967D01*
X78026562Y-105520327D01*
X78018457Y-105524546D01*
X78009738Y-105530036D01*
X77839433Y-105657905D01*
X77831726Y-105664748D01*
X77684590Y-105818717D01*
X77678104Y-105826727D01*
X77558098Y-106002649D01*
X77553000Y-106011623D01*
X77463338Y-106204783D01*
X77459775Y-106214470D01*
X77404389Y-106414183D01*
X77405912Y-106422607D01*
X77418292Y-106426000D01*
X82598344Y-106426000D01*
X82611875Y-106422027D01*
X82613180Y-106412947D01*
X82571214Y-106245875D01*
X82567894Y-106236124D01*
X82482972Y-106040814D01*
X82478105Y-106031739D01*
X82362426Y-105852926D01*
X82356136Y-105844757D01*
X82212806Y-105687240D01*
X82205273Y-105680215D01*
X82038139Y-105548222D01*
X82029556Y-105542520D01*
X81992602Y-105522120D01*
X81942631Y-105471687D01*
X81927859Y-105402245D01*
X81952975Y-105335839D01*
X81980327Y-105309232D01*
X82009862Y-105288165D01*
X82159860Y-105181173D01*
X82318096Y-105023489D01*
X82377594Y-104940689D01*
X82445435Y-104846277D01*
X82448453Y-104842077D01*
X82469320Y-104799857D01*
X82545136Y-104646453D01*
X82545137Y-104646451D01*
X82547430Y-104641811D01*
X82612370Y-104428069D01*
X82641529Y-104206590D01*
X82643156Y-104140000D01*
X82624852Y-103917361D01*
X82596821Y-103805765D01*
X82599625Y-103734823D01*
X82629930Y-103685974D01*
X83504791Y-102811114D01*
X84392253Y-101923652D01*
X84400539Y-101916112D01*
X84407018Y-101912000D01*
X84453644Y-101862348D01*
X84456398Y-101859507D01*
X84476135Y-101839770D01*
X84478615Y-101836573D01*
X84486320Y-101827551D01*
X84511159Y-101801100D01*
X84516586Y-101795321D01*
X84520405Y-101788375D01*
X84520407Y-101788372D01*
X84526348Y-101777566D01*
X84537199Y-101761047D01*
X84544758Y-101751301D01*
X84549614Y-101745041D01*
X84552759Y-101737772D01*
X84552762Y-101737768D01*
X84567174Y-101704463D01*
X84572391Y-101693813D01*
X84593695Y-101655060D01*
X84598733Y-101635437D01*
X84605137Y-101616734D01*
X84610033Y-101605420D01*
X84610033Y-101605419D01*
X84613181Y-101598145D01*
X84614420Y-101590322D01*
X84614423Y-101590312D01*
X84620099Y-101554476D01*
X84622505Y-101542856D01*
X84631528Y-101507711D01*
X84631528Y-101507710D01*
X84633500Y-101500030D01*
X84633500Y-101486197D01*
X84653502Y-101418076D01*
X84707158Y-101371583D01*
X84777432Y-101361479D01*
X84842012Y-101390973D01*
X84880898Y-101453822D01*
X84881526Y-101458797D01*
X84884445Y-101466168D01*
X84884445Y-101466170D01*
X84897804Y-101499912D01*
X84901649Y-101511142D01*
X84913982Y-101553593D01*
X84918015Y-101560412D01*
X84918017Y-101560417D01*
X84924293Y-101571028D01*
X84932988Y-101588776D01*
X84940448Y-101607617D01*
X84945110Y-101614033D01*
X84945110Y-101614034D01*
X84966436Y-101643387D01*
X84972952Y-101653307D01*
X84995458Y-101691362D01*
X85009779Y-101705683D01*
X85022619Y-101720716D01*
X85034528Y-101737107D01*
X85068605Y-101765298D01*
X85077384Y-101773288D01*
X87721595Y-104417499D01*
X87755621Y-104479811D01*
X87758500Y-104506594D01*
X87758500Y-105369692D01*
X87738498Y-105437813D01*
X87690683Y-105481453D01*
X87665607Y-105494507D01*
X87661474Y-105497610D01*
X87661471Y-105497612D01*
X87505555Y-105614677D01*
X87486965Y-105628635D01*
X87458994Y-105657905D01*
X87393280Y-105726671D01*
X87332629Y-105790138D01*
X87225201Y-105947621D01*
X87170293Y-105992621D01*
X87099768Y-106000792D01*
X87036021Y-105969538D01*
X87015324Y-105945054D01*
X86934822Y-105820617D01*
X86934820Y-105820614D01*
X86932014Y-105816277D01*
X86781670Y-105651051D01*
X86777619Y-105647852D01*
X86777615Y-105647848D01*
X86610414Y-105515800D01*
X86610410Y-105515798D01*
X86606359Y-105512598D01*
X86410789Y-105404638D01*
X86405920Y-105402914D01*
X86405916Y-105402912D01*
X86205087Y-105331795D01*
X86205083Y-105331794D01*
X86200212Y-105330069D01*
X86195119Y-105329162D01*
X86195116Y-105329161D01*
X85985373Y-105291800D01*
X85985367Y-105291799D01*
X85980284Y-105290894D01*
X85906452Y-105289992D01*
X85762081Y-105288228D01*
X85762079Y-105288228D01*
X85756911Y-105288165D01*
X85536091Y-105321955D01*
X85323756Y-105391357D01*
X85293443Y-105407137D01*
X85166215Y-105473368D01*
X85125607Y-105494507D01*
X85121474Y-105497610D01*
X85121471Y-105497612D01*
X84965555Y-105614677D01*
X84946965Y-105628635D01*
X84918994Y-105657905D01*
X84853280Y-105726671D01*
X84792629Y-105790138D01*
X84666743Y-105974680D01*
X84572688Y-106177305D01*
X84512989Y-106392570D01*
X84489251Y-106614695D01*
X84502110Y-106837715D01*
X84503247Y-106842761D01*
X84503248Y-106842767D01*
X84523809Y-106934000D01*
X84551222Y-107055639D01*
X84635266Y-107262616D01*
X84672685Y-107323678D01*
X84749291Y-107448688D01*
X84751987Y-107453088D01*
X84898250Y-107621938D01*
X85070126Y-107764632D01*
X85128651Y-107798831D01*
X85143445Y-107807476D01*
X85192169Y-107859114D01*
X85205240Y-107928897D01*
X85178509Y-107994669D01*
X85138055Y-108028027D01*
X85125607Y-108034507D01*
X85121474Y-108037610D01*
X85121471Y-108037612D01*
X84951100Y-108165530D01*
X84946965Y-108168635D01*
X84916385Y-108200635D01*
X84797269Y-108325283D01*
X84792629Y-108330138D01*
X84666743Y-108514680D01*
X84572688Y-108717305D01*
X84512989Y-108932570D01*
X84489251Y-109154695D01*
X84502110Y-109377715D01*
X84503247Y-109382761D01*
X84503248Y-109382767D01*
X84510460Y-109414767D01*
X84551222Y-109595639D01*
X84635266Y-109802616D01*
X84685863Y-109885183D01*
X84749291Y-109988688D01*
X84751987Y-109993088D01*
X84898250Y-110161938D01*
X85070126Y-110304632D01*
X85263000Y-110417338D01*
X85267825Y-110419180D01*
X85267826Y-110419181D01*
X85304698Y-110433261D01*
X85471692Y-110497030D01*
X85476760Y-110498061D01*
X85476763Y-110498062D01*
X85561142Y-110515229D01*
X85690597Y-110541567D01*
X85695772Y-110541757D01*
X85695774Y-110541757D01*
X85908673Y-110549564D01*
X85908677Y-110549564D01*
X85913837Y-110549753D01*
X85918957Y-110549097D01*
X85918959Y-110549097D01*
X86130288Y-110522025D01*
X86130289Y-110522025D01*
X86135416Y-110521368D01*
X86140366Y-110519883D01*
X86344429Y-110458661D01*
X86344434Y-110458659D01*
X86349384Y-110457174D01*
X86549994Y-110358896D01*
X86731860Y-110229173D01*
X86890096Y-110071489D01*
X86920635Y-110028990D01*
X87020453Y-109890077D01*
X87021776Y-109891028D01*
X87068645Y-109847857D01*
X87138580Y-109835625D01*
X87204026Y-109863144D01*
X87231875Y-109894994D01*
X87291987Y-109993088D01*
X87438250Y-110161938D01*
X87610126Y-110304632D01*
X87803000Y-110417338D01*
X87807825Y-110419180D01*
X87807826Y-110419181D01*
X87844698Y-110433261D01*
X88011692Y-110497030D01*
X88016760Y-110498061D01*
X88016763Y-110498062D01*
X88101142Y-110515229D01*
X88230597Y-110541567D01*
X88235772Y-110541757D01*
X88235774Y-110541757D01*
X88448673Y-110549564D01*
X88448677Y-110549564D01*
X88453837Y-110549753D01*
X88458957Y-110549097D01*
X88458959Y-110549097D01*
X88670288Y-110522025D01*
X88670289Y-110522025D01*
X88675416Y-110521368D01*
X88680366Y-110519883D01*
X88884429Y-110458661D01*
X88884434Y-110458659D01*
X88889384Y-110457174D01*
X89089994Y-110358896D01*
X89271860Y-110229173D01*
X89430096Y-110071489D01*
X89460635Y-110028990D01*
X89560453Y-109890077D01*
X89561776Y-109891028D01*
X89608645Y-109847857D01*
X89678580Y-109835625D01*
X89744026Y-109863144D01*
X89771875Y-109894994D01*
X89831987Y-109993088D01*
X89978250Y-110161938D01*
X90150126Y-110304632D01*
X90343000Y-110417338D01*
X90347825Y-110419180D01*
X90347826Y-110419181D01*
X90384698Y-110433261D01*
X90551692Y-110497030D01*
X90556760Y-110498061D01*
X90556763Y-110498062D01*
X90641142Y-110515229D01*
X90770597Y-110541567D01*
X90775772Y-110541757D01*
X90775774Y-110541757D01*
X90988673Y-110549564D01*
X90988677Y-110549564D01*
X90993837Y-110549753D01*
X90998957Y-110549097D01*
X90998959Y-110549097D01*
X91210288Y-110522025D01*
X91210289Y-110522025D01*
X91215416Y-110521368D01*
X91220366Y-110519883D01*
X91424429Y-110458661D01*
X91424434Y-110458659D01*
X91429384Y-110457174D01*
X91629994Y-110358896D01*
X91811860Y-110229173D01*
X91970096Y-110071489D01*
X92000635Y-110028990D01*
X92100453Y-109890077D01*
X92101776Y-109891028D01*
X92148645Y-109847857D01*
X92218580Y-109835625D01*
X92284026Y-109863144D01*
X92311875Y-109894994D01*
X92371987Y-109993088D01*
X92518250Y-110161938D01*
X92690126Y-110304632D01*
X92883000Y-110417338D01*
X92887825Y-110419180D01*
X92887826Y-110419181D01*
X92924698Y-110433261D01*
X93091692Y-110497030D01*
X93096760Y-110498061D01*
X93096763Y-110498062D01*
X93181142Y-110515229D01*
X93310597Y-110541567D01*
X93315772Y-110541757D01*
X93315774Y-110541757D01*
X93528673Y-110549564D01*
X93528677Y-110549564D01*
X93533837Y-110549753D01*
X93538957Y-110549097D01*
X93538959Y-110549097D01*
X93750288Y-110522025D01*
X93750289Y-110522025D01*
X93755416Y-110521368D01*
X93760366Y-110519883D01*
X93964429Y-110458661D01*
X93964434Y-110458659D01*
X93969384Y-110457174D01*
X94169994Y-110358896D01*
X94351860Y-110229173D01*
X94510096Y-110071489D01*
X94540635Y-110028990D01*
X94640453Y-109890077D01*
X94641776Y-109891028D01*
X94688645Y-109847857D01*
X94758580Y-109835625D01*
X94824026Y-109863144D01*
X94851875Y-109894994D01*
X94911987Y-109993088D01*
X95058250Y-110161938D01*
X95230126Y-110304632D01*
X95423000Y-110417338D01*
X95427825Y-110419180D01*
X95427826Y-110419181D01*
X95464698Y-110433261D01*
X95631692Y-110497030D01*
X95636760Y-110498061D01*
X95636763Y-110498062D01*
X95721142Y-110515229D01*
X95850597Y-110541567D01*
X95855772Y-110541757D01*
X95855774Y-110541757D01*
X96068673Y-110549564D01*
X96068677Y-110549564D01*
X96073837Y-110549753D01*
X96078957Y-110549097D01*
X96078959Y-110549097D01*
X96290288Y-110522025D01*
X96290289Y-110522025D01*
X96295416Y-110521368D01*
X96300366Y-110519883D01*
X96504429Y-110458661D01*
X96504434Y-110458659D01*
X96509384Y-110457174D01*
X96709994Y-110358896D01*
X96891860Y-110229173D01*
X97050096Y-110071489D01*
X97080635Y-110028990D01*
X97180453Y-109890077D01*
X97181776Y-109891028D01*
X97228645Y-109847857D01*
X97298580Y-109835625D01*
X97364026Y-109863144D01*
X97391875Y-109894994D01*
X97451987Y-109993088D01*
X97598250Y-110161938D01*
X97770126Y-110304632D01*
X97963000Y-110417338D01*
X97967825Y-110419180D01*
X97967826Y-110419181D01*
X98004698Y-110433261D01*
X98171692Y-110497030D01*
X98176760Y-110498061D01*
X98176763Y-110498062D01*
X98261142Y-110515229D01*
X98390597Y-110541567D01*
X98395772Y-110541757D01*
X98395774Y-110541757D01*
X98608673Y-110549564D01*
X98608677Y-110549564D01*
X98613837Y-110549753D01*
X98618957Y-110549097D01*
X98618959Y-110549097D01*
X98830288Y-110522025D01*
X98830289Y-110522025D01*
X98835416Y-110521368D01*
X98840366Y-110519883D01*
X99044429Y-110458661D01*
X99044434Y-110458659D01*
X99049384Y-110457174D01*
X99249994Y-110358896D01*
X99431860Y-110229173D01*
X99590096Y-110071489D01*
X99620635Y-110028990D01*
X99720453Y-109890077D01*
X99721776Y-109891028D01*
X99768645Y-109847857D01*
X99838580Y-109835625D01*
X99904026Y-109863144D01*
X99931875Y-109894994D01*
X99991987Y-109993088D01*
X100138250Y-110161938D01*
X100310126Y-110304632D01*
X100503000Y-110417338D01*
X100507825Y-110419180D01*
X100507826Y-110419181D01*
X100544698Y-110433261D01*
X100711692Y-110497030D01*
X100716760Y-110498061D01*
X100716763Y-110498062D01*
X100801142Y-110515229D01*
X100930597Y-110541567D01*
X100935772Y-110541757D01*
X100935774Y-110541757D01*
X101148673Y-110549564D01*
X101148677Y-110549564D01*
X101153837Y-110549753D01*
X101158957Y-110549097D01*
X101158959Y-110549097D01*
X101370288Y-110522025D01*
X101370289Y-110522025D01*
X101375416Y-110521368D01*
X101380366Y-110519883D01*
X101584429Y-110458661D01*
X101584434Y-110458659D01*
X101589384Y-110457174D01*
X101789994Y-110358896D01*
X101971860Y-110229173D01*
X102130096Y-110071489D01*
X102160635Y-110028990D01*
X102260453Y-109890077D01*
X102261776Y-109891028D01*
X102308645Y-109847857D01*
X102378580Y-109835625D01*
X102444026Y-109863144D01*
X102471875Y-109894994D01*
X102531987Y-109993088D01*
X102678250Y-110161938D01*
X102850126Y-110304632D01*
X103043000Y-110417338D01*
X103047825Y-110419180D01*
X103047826Y-110419181D01*
X103084698Y-110433261D01*
X103251692Y-110497030D01*
X103256760Y-110498061D01*
X103256763Y-110498062D01*
X103341142Y-110515229D01*
X103470597Y-110541567D01*
X103475772Y-110541757D01*
X103475774Y-110541757D01*
X103688673Y-110549564D01*
X103688677Y-110549564D01*
X103693837Y-110549753D01*
X103698957Y-110549097D01*
X103698959Y-110549097D01*
X103910288Y-110522025D01*
X103910289Y-110522025D01*
X103915416Y-110521368D01*
X103920366Y-110519883D01*
X104124429Y-110458661D01*
X104124434Y-110458659D01*
X104129384Y-110457174D01*
X104329994Y-110358896D01*
X104511860Y-110229173D01*
X104670096Y-110071489D01*
X104700635Y-110028990D01*
X104800453Y-109890077D01*
X104801776Y-109891028D01*
X104848645Y-109847857D01*
X104918580Y-109835625D01*
X104984026Y-109863144D01*
X105011875Y-109894994D01*
X105071987Y-109993088D01*
X105218250Y-110161938D01*
X105390126Y-110304632D01*
X105583000Y-110417338D01*
X105587825Y-110419180D01*
X105587826Y-110419181D01*
X105624698Y-110433261D01*
X105791692Y-110497030D01*
X105796760Y-110498061D01*
X105796763Y-110498062D01*
X105881142Y-110515229D01*
X106010597Y-110541567D01*
X106015772Y-110541757D01*
X106015774Y-110541757D01*
X106228673Y-110549564D01*
X106228677Y-110549564D01*
X106233837Y-110549753D01*
X106238957Y-110549097D01*
X106238959Y-110549097D01*
X106450288Y-110522025D01*
X106450289Y-110522025D01*
X106455416Y-110521368D01*
X106460366Y-110519883D01*
X106664429Y-110458661D01*
X106664434Y-110458659D01*
X106669384Y-110457174D01*
X106869994Y-110358896D01*
X107051860Y-110229173D01*
X107210096Y-110071489D01*
X107240635Y-110028990D01*
X107340453Y-109890077D01*
X107341640Y-109890930D01*
X107388960Y-109847362D01*
X107458897Y-109835145D01*
X107524338Y-109862678D01*
X107552166Y-109894511D01*
X107609694Y-109988388D01*
X107615777Y-109996699D01*
X107755213Y-110157667D01*
X107762580Y-110164883D01*
X107926434Y-110300916D01*
X107934881Y-110306831D01*
X108118756Y-110414279D01*
X108128042Y-110418729D01*
X108327001Y-110494703D01*
X108336899Y-110497579D01*
X108440250Y-110518606D01*
X108454299Y-110517410D01*
X108458000Y-110507065D01*
X108458000Y-110506517D01*
X108966000Y-110506517D01*
X108970064Y-110520359D01*
X108983478Y-110522393D01*
X108990184Y-110521534D01*
X109000262Y-110519392D01*
X109204255Y-110458191D01*
X109213842Y-110454433D01*
X109405095Y-110360739D01*
X109413945Y-110355464D01*
X109587328Y-110231792D01*
X109595200Y-110225139D01*
X109746052Y-110074812D01*
X109752730Y-110066965D01*
X109877003Y-109894020D01*
X109882313Y-109885183D01*
X109976670Y-109694267D01*
X109980469Y-109684672D01*
X110042377Y-109480910D01*
X110044555Y-109470837D01*
X110045986Y-109459962D01*
X110043775Y-109445778D01*
X110030617Y-109442000D01*
X108984115Y-109442000D01*
X108968876Y-109446475D01*
X108967671Y-109447865D01*
X108966000Y-109455548D01*
X108966000Y-110506517D01*
X108458000Y-110506517D01*
X108458000Y-109060000D01*
X108478002Y-108991879D01*
X108531658Y-108945386D01*
X108584000Y-108934000D01*
X110030344Y-108934000D01*
X110043875Y-108930027D01*
X110045180Y-108920947D01*
X110003214Y-108753875D01*
X109999894Y-108744124D01*
X109914972Y-108548814D01*
X109910105Y-108539739D01*
X109794426Y-108360926D01*
X109788136Y-108352757D01*
X109644293Y-108194677D01*
X109613241Y-108130831D01*
X109621635Y-108060333D01*
X109666812Y-108005564D01*
X109693256Y-107991895D01*
X109800297Y-107951767D01*
X109808705Y-107948615D01*
X109925261Y-107861261D01*
X110012615Y-107744705D01*
X110063745Y-107608316D01*
X110070500Y-107546134D01*
X110070500Y-105749866D01*
X110063745Y-105687684D01*
X110012615Y-105551295D01*
X109925261Y-105434739D01*
X109808705Y-105347385D01*
X109672316Y-105296255D01*
X109610134Y-105289500D01*
X107813866Y-105289500D01*
X107751684Y-105296255D01*
X107615295Y-105347385D01*
X107498739Y-105434739D01*
X107411385Y-105551295D01*
X107408233Y-105559703D01*
X107366919Y-105669907D01*
X107324277Y-105726671D01*
X107257716Y-105751371D01*
X107188367Y-105736163D01*
X107155743Y-105710476D01*
X107105151Y-105654875D01*
X107105142Y-105654866D01*
X107101670Y-105651051D01*
X107097619Y-105647852D01*
X107097615Y-105647848D01*
X106930414Y-105515800D01*
X106930410Y-105515798D01*
X106926359Y-105512598D01*
X106730789Y-105404638D01*
X106725920Y-105402914D01*
X106725916Y-105402912D01*
X106525087Y-105331795D01*
X106525083Y-105331794D01*
X106520212Y-105330069D01*
X106515119Y-105329162D01*
X106515116Y-105329161D01*
X106305373Y-105291800D01*
X106305367Y-105291799D01*
X106300284Y-105290894D01*
X106226452Y-105289992D01*
X106082081Y-105288228D01*
X106082079Y-105288228D01*
X106076911Y-105288165D01*
X105856091Y-105321955D01*
X105643756Y-105391357D01*
X105613443Y-105407137D01*
X105486215Y-105473368D01*
X105445607Y-105494507D01*
X105441474Y-105497610D01*
X105441471Y-105497612D01*
X105285555Y-105614677D01*
X105266965Y-105628635D01*
X105238994Y-105657905D01*
X105173280Y-105726671D01*
X105112629Y-105790138D01*
X105005201Y-105947621D01*
X104950293Y-105992621D01*
X104879768Y-106000792D01*
X104816021Y-105969538D01*
X104795324Y-105945054D01*
X104714822Y-105820617D01*
X104714820Y-105820614D01*
X104712014Y-105816277D01*
X104561670Y-105651051D01*
X104557619Y-105647852D01*
X104557615Y-105647848D01*
X104390414Y-105515800D01*
X104390410Y-105515798D01*
X104386359Y-105512598D01*
X104190789Y-105404638D01*
X104185920Y-105402914D01*
X104185916Y-105402912D01*
X103985087Y-105331795D01*
X103985083Y-105331794D01*
X103980212Y-105330069D01*
X103975119Y-105329162D01*
X103975116Y-105329161D01*
X103765373Y-105291800D01*
X103765367Y-105291799D01*
X103760284Y-105290894D01*
X103686452Y-105289992D01*
X103542081Y-105288228D01*
X103542079Y-105288228D01*
X103536911Y-105288165D01*
X103316091Y-105321955D01*
X103103756Y-105391357D01*
X103073443Y-105407137D01*
X102946215Y-105473368D01*
X102905607Y-105494507D01*
X102901474Y-105497610D01*
X102901471Y-105497612D01*
X102745555Y-105614677D01*
X102726965Y-105628635D01*
X102698994Y-105657905D01*
X102633280Y-105726671D01*
X102572629Y-105790138D01*
X102465201Y-105947621D01*
X102410293Y-105992621D01*
X102339768Y-106000792D01*
X102276021Y-105969538D01*
X102255324Y-105945054D01*
X102174822Y-105820617D01*
X102174820Y-105820614D01*
X102172014Y-105816277D01*
X102021670Y-105651051D01*
X102017619Y-105647852D01*
X102017615Y-105647848D01*
X101850414Y-105515800D01*
X101850410Y-105515798D01*
X101846359Y-105512598D01*
X101650789Y-105404638D01*
X101645920Y-105402914D01*
X101645916Y-105402912D01*
X101445087Y-105331795D01*
X101445083Y-105331794D01*
X101440212Y-105330069D01*
X101435119Y-105329162D01*
X101435116Y-105329161D01*
X101225373Y-105291800D01*
X101225367Y-105291799D01*
X101220284Y-105290894D01*
X101146452Y-105289992D01*
X101002081Y-105288228D01*
X101002079Y-105288228D01*
X100996911Y-105288165D01*
X100776091Y-105321955D01*
X100563756Y-105391357D01*
X100533443Y-105407137D01*
X100406215Y-105473368D01*
X100365607Y-105494507D01*
X100361474Y-105497610D01*
X100361471Y-105497612D01*
X100205555Y-105614677D01*
X100186965Y-105628635D01*
X100158994Y-105657905D01*
X100093280Y-105726671D01*
X100032629Y-105790138D01*
X99925201Y-105947621D01*
X99870293Y-105992621D01*
X99799768Y-106000792D01*
X99736021Y-105969538D01*
X99715324Y-105945054D01*
X99634822Y-105820617D01*
X99634820Y-105820614D01*
X99632014Y-105816277D01*
X99481670Y-105651051D01*
X99477619Y-105647852D01*
X99477615Y-105647848D01*
X99310414Y-105515800D01*
X99310410Y-105515798D01*
X99306359Y-105512598D01*
X99110789Y-105404638D01*
X99105920Y-105402914D01*
X99105916Y-105402912D01*
X98905087Y-105331795D01*
X98905083Y-105331794D01*
X98900212Y-105330069D01*
X98895119Y-105329162D01*
X98895116Y-105329161D01*
X98685373Y-105291800D01*
X98685367Y-105291799D01*
X98680284Y-105290894D01*
X98606452Y-105289992D01*
X98462081Y-105288228D01*
X98462079Y-105288228D01*
X98456911Y-105288165D01*
X98236091Y-105321955D01*
X98023756Y-105391357D01*
X97993443Y-105407137D01*
X97866215Y-105473368D01*
X97825607Y-105494507D01*
X97821474Y-105497610D01*
X97821471Y-105497612D01*
X97665555Y-105614677D01*
X97646965Y-105628635D01*
X97618994Y-105657905D01*
X97553280Y-105726671D01*
X97492629Y-105790138D01*
X97385201Y-105947621D01*
X97330293Y-105992621D01*
X97259768Y-106000792D01*
X97196021Y-105969538D01*
X97175324Y-105945054D01*
X97094822Y-105820617D01*
X97094820Y-105820614D01*
X97092014Y-105816277D01*
X96941670Y-105651051D01*
X96937619Y-105647852D01*
X96937615Y-105647848D01*
X96770414Y-105515800D01*
X96770410Y-105515798D01*
X96766359Y-105512598D01*
X96570789Y-105404638D01*
X96565920Y-105402914D01*
X96565916Y-105402912D01*
X96365087Y-105331795D01*
X96365083Y-105331794D01*
X96360212Y-105330069D01*
X96355119Y-105329162D01*
X96355116Y-105329161D01*
X96145373Y-105291800D01*
X96145367Y-105291799D01*
X96140284Y-105290894D01*
X96066452Y-105289992D01*
X95922081Y-105288228D01*
X95922079Y-105288228D01*
X95916911Y-105288165D01*
X95696091Y-105321955D01*
X95483756Y-105391357D01*
X95453443Y-105407137D01*
X95326215Y-105473368D01*
X95285607Y-105494507D01*
X95281474Y-105497610D01*
X95281471Y-105497612D01*
X95125555Y-105614677D01*
X95106965Y-105628635D01*
X95078994Y-105657905D01*
X95013280Y-105726671D01*
X94952629Y-105790138D01*
X94845201Y-105947621D01*
X94790293Y-105992621D01*
X94719768Y-106000792D01*
X94656021Y-105969538D01*
X94635324Y-105945054D01*
X94554822Y-105820617D01*
X94554820Y-105820614D01*
X94552014Y-105816277D01*
X94401670Y-105651051D01*
X94397619Y-105647852D01*
X94397615Y-105647848D01*
X94230414Y-105515800D01*
X94230410Y-105515798D01*
X94226359Y-105512598D01*
X94030789Y-105404638D01*
X94025920Y-105402914D01*
X94025916Y-105402912D01*
X93825087Y-105331795D01*
X93825083Y-105331794D01*
X93820212Y-105330069D01*
X93815119Y-105329162D01*
X93815116Y-105329161D01*
X93605373Y-105291800D01*
X93605367Y-105291799D01*
X93600284Y-105290894D01*
X93526452Y-105289992D01*
X93382081Y-105288228D01*
X93382079Y-105288228D01*
X93376911Y-105288165D01*
X93156091Y-105321955D01*
X92943756Y-105391357D01*
X92913443Y-105407137D01*
X92786215Y-105473368D01*
X92745607Y-105494507D01*
X92741474Y-105497610D01*
X92741471Y-105497612D01*
X92598760Y-105604763D01*
X92532275Y-105629669D01*
X92462880Y-105614677D01*
X92434012Y-105593098D01*
X89916927Y-103076012D01*
X89882901Y-103013700D01*
X89887966Y-102942884D01*
X89912383Y-102902611D01*
X90039040Y-102761944D01*
X90113197Y-102633500D01*
X90131223Y-102602279D01*
X90131224Y-102602278D01*
X90134527Y-102596556D01*
X90193542Y-102414928D01*
X90213504Y-102225000D01*
X90200606Y-102102279D01*
X90194232Y-102041635D01*
X90194232Y-102041633D01*
X90193542Y-102035072D01*
X90134527Y-101853444D01*
X90124828Y-101836644D01*
X90081181Y-101761047D01*
X90060369Y-101725000D01*
X95311496Y-101725000D01*
X95331458Y-101914928D01*
X95390473Y-102096556D01*
X95485960Y-102261944D01*
X95490378Y-102266851D01*
X95490379Y-102266852D01*
X95530980Y-102311944D01*
X95613747Y-102403866D01*
X95768248Y-102516118D01*
X95774276Y-102518802D01*
X95774278Y-102518803D01*
X95871833Y-102562237D01*
X95942712Y-102593794D01*
X96036112Y-102613647D01*
X96123056Y-102632128D01*
X96123061Y-102632128D01*
X96129513Y-102633500D01*
X96320487Y-102633500D01*
X96326939Y-102632128D01*
X96326944Y-102632128D01*
X96413888Y-102613647D01*
X96507288Y-102593794D01*
X96578167Y-102562237D01*
X96675722Y-102518803D01*
X96675724Y-102518802D01*
X96681752Y-102516118D01*
X96836253Y-102403866D01*
X96919020Y-102311944D01*
X96959621Y-102266852D01*
X96959622Y-102266851D01*
X96964040Y-102261944D01*
X97059527Y-102096556D01*
X97118542Y-101914928D01*
X97133249Y-101775000D01*
X105311496Y-101775000D01*
X105312186Y-101781565D01*
X105320527Y-101860921D01*
X105331458Y-101964928D01*
X105390473Y-102146556D01*
X105485960Y-102311944D01*
X105490378Y-102316851D01*
X105490379Y-102316852D01*
X105578687Y-102414928D01*
X105613747Y-102453866D01*
X105768248Y-102566118D01*
X105774276Y-102568802D01*
X105774278Y-102568803D01*
X105919591Y-102633500D01*
X105942712Y-102643794D01*
X106036112Y-102663647D01*
X106123056Y-102682128D01*
X106123061Y-102682128D01*
X106129513Y-102683500D01*
X106320487Y-102683500D01*
X106326939Y-102682128D01*
X106326944Y-102682128D01*
X106413888Y-102663647D01*
X106507288Y-102643794D01*
X106530409Y-102633500D01*
X106675722Y-102568803D01*
X106675724Y-102568802D01*
X106681752Y-102566118D01*
X106836253Y-102453866D01*
X106871313Y-102414928D01*
X106959621Y-102316852D01*
X106959622Y-102316851D01*
X106964040Y-102311944D01*
X107059527Y-102146556D01*
X107118542Y-101964928D01*
X107129474Y-101860921D01*
X107137814Y-101781565D01*
X107138504Y-101775000D01*
X107137484Y-101765298D01*
X107119232Y-101591635D01*
X107119232Y-101591633D01*
X107118542Y-101585072D01*
X107059527Y-101403444D01*
X107035299Y-101361479D01*
X106967341Y-101243774D01*
X106964040Y-101238056D01*
X106924169Y-101193774D01*
X106840675Y-101101045D01*
X106840674Y-101101044D01*
X106836253Y-101096134D01*
X106681752Y-100983882D01*
X106675724Y-100981198D01*
X106675722Y-100981197D01*
X106513319Y-100908891D01*
X106513318Y-100908891D01*
X106507288Y-100906206D01*
X106407127Y-100884916D01*
X106326944Y-100867872D01*
X106326939Y-100867872D01*
X106320487Y-100866500D01*
X106129513Y-100866500D01*
X106123061Y-100867872D01*
X106123056Y-100867872D01*
X106042873Y-100884916D01*
X105942712Y-100906206D01*
X105936682Y-100908891D01*
X105936681Y-100908891D01*
X105774278Y-100981197D01*
X105774276Y-100981198D01*
X105768248Y-100983882D01*
X105613747Y-101096134D01*
X105609326Y-101101044D01*
X105609325Y-101101045D01*
X105525832Y-101193774D01*
X105485960Y-101238056D01*
X105482659Y-101243774D01*
X105414702Y-101361479D01*
X105390473Y-101403444D01*
X105331458Y-101585072D01*
X105330768Y-101591633D01*
X105330768Y-101591635D01*
X105312516Y-101765298D01*
X105311496Y-101775000D01*
X97133249Y-101775000D01*
X97138504Y-101725000D01*
X97136474Y-101705683D01*
X97119232Y-101541635D01*
X97119232Y-101541633D01*
X97118542Y-101535072D01*
X97059527Y-101353444D01*
X97038990Y-101317872D01*
X96993977Y-101239909D01*
X96964040Y-101188056D01*
X96956207Y-101179356D01*
X96840675Y-101051045D01*
X96840674Y-101051044D01*
X96836253Y-101046134D01*
X96718512Y-100960590D01*
X96687094Y-100937763D01*
X96687093Y-100937762D01*
X96681752Y-100933882D01*
X96675724Y-100931198D01*
X96675722Y-100931197D01*
X96513319Y-100858891D01*
X96513318Y-100858891D01*
X96507288Y-100856206D01*
X96413887Y-100836353D01*
X96326944Y-100817872D01*
X96326939Y-100817872D01*
X96320487Y-100816500D01*
X96129513Y-100816500D01*
X96123061Y-100817872D01*
X96123056Y-100817872D01*
X96036113Y-100836353D01*
X95942712Y-100856206D01*
X95936682Y-100858891D01*
X95936681Y-100858891D01*
X95774278Y-100931197D01*
X95774276Y-100931198D01*
X95768248Y-100933882D01*
X95762907Y-100937762D01*
X95762906Y-100937763D01*
X95731488Y-100960590D01*
X95613747Y-101046134D01*
X95609326Y-101051044D01*
X95609325Y-101051045D01*
X95493794Y-101179356D01*
X95485960Y-101188056D01*
X95456023Y-101239909D01*
X95411011Y-101317872D01*
X95390473Y-101353444D01*
X95331458Y-101535072D01*
X95330768Y-101541633D01*
X95330768Y-101541635D01*
X95313526Y-101705683D01*
X95311496Y-101725000D01*
X90060369Y-101725000D01*
X90039040Y-101688056D01*
X89974822Y-101616734D01*
X89915675Y-101551045D01*
X89915674Y-101551044D01*
X89911253Y-101546134D01*
X89806269Y-101469858D01*
X89762094Y-101437763D01*
X89762093Y-101437762D01*
X89756752Y-101433882D01*
X89750724Y-101431198D01*
X89750722Y-101431197D01*
X89588319Y-101358891D01*
X89588318Y-101358891D01*
X89582288Y-101356206D01*
X89488888Y-101336353D01*
X89401944Y-101317872D01*
X89401939Y-101317872D01*
X89395487Y-101316500D01*
X89204513Y-101316500D01*
X89198061Y-101317872D01*
X89198056Y-101317872D01*
X89111113Y-101336353D01*
X89017712Y-101356206D01*
X89011682Y-101358891D01*
X89011681Y-101358891D01*
X88849278Y-101431197D01*
X88849276Y-101431198D01*
X88843248Y-101433882D01*
X88837907Y-101437762D01*
X88837906Y-101437763D01*
X88793731Y-101469858D01*
X88688747Y-101546134D01*
X88684326Y-101551044D01*
X88684325Y-101551045D01*
X88634648Y-101606217D01*
X88574202Y-101643457D01*
X88503218Y-101642105D01*
X88451917Y-101611002D01*
X87370405Y-100529490D01*
X87336379Y-100467178D01*
X87333500Y-100440395D01*
X87333500Y-98653514D01*
X87353502Y-98585393D01*
X87407158Y-98538900D01*
X87477432Y-98528796D01*
X87542012Y-98558290D01*
X87553136Y-98569204D01*
X87651876Y-98678866D01*
X87703675Y-98716500D01*
X87762021Y-98758891D01*
X87806377Y-98791118D01*
X87812405Y-98793802D01*
X87812407Y-98793803D01*
X87974810Y-98866109D01*
X87980841Y-98868794D01*
X88074241Y-98888647D01*
X88161185Y-98907128D01*
X88161190Y-98907128D01*
X88167642Y-98908500D01*
X88358616Y-98908500D01*
X88365068Y-98907128D01*
X88365073Y-98907128D01*
X88452017Y-98888647D01*
X88545417Y-98868794D01*
X88551448Y-98866109D01*
X88713851Y-98793803D01*
X88713853Y-98793802D01*
X88719881Y-98791118D01*
X88764238Y-98758891D01*
X88822583Y-98716500D01*
X88874382Y-98678866D01*
X88955023Y-98589305D01*
X88997750Y-98541852D01*
X88997751Y-98541851D01*
X89000969Y-98538277D01*
X90762495Y-98538277D01*
X90763185Y-98544842D01*
X90774987Y-98657128D01*
X90782457Y-98728205D01*
X90841472Y-98909833D01*
X90844775Y-98915555D01*
X90844776Y-98915556D01*
X90862430Y-98946134D01*
X90936959Y-99075221D01*
X90941377Y-99080128D01*
X90941378Y-99080129D01*
X90953664Y-99093774D01*
X91064746Y-99217143D01*
X91219247Y-99329395D01*
X91225278Y-99332080D01*
X91225283Y-99332083D01*
X91267579Y-99350914D01*
X91321676Y-99396893D01*
X91342326Y-99464820D01*
X91322974Y-99533128D01*
X91309968Y-99550331D01*
X91202372Y-99669829D01*
X91185960Y-99688056D01*
X91090473Y-99853444D01*
X91031458Y-100035072D01*
X91030768Y-100041633D01*
X91030768Y-100041635D01*
X91016927Y-100173327D01*
X91011496Y-100225000D01*
X91012186Y-100231565D01*
X91025332Y-100356638D01*
X91031458Y-100414928D01*
X91090473Y-100596556D01*
X91185960Y-100761944D01*
X91190378Y-100766851D01*
X91190379Y-100766852D01*
X91281338Y-100867872D01*
X91313747Y-100903866D01*
X91468248Y-101016118D01*
X91474276Y-101018802D01*
X91474278Y-101018803D01*
X91636681Y-101091109D01*
X91642712Y-101093794D01*
X91726214Y-101111543D01*
X91823056Y-101132128D01*
X91823061Y-101132128D01*
X91829513Y-101133500D01*
X92020487Y-101133500D01*
X92026939Y-101132128D01*
X92026944Y-101132128D01*
X92123786Y-101111543D01*
X92207288Y-101093794D01*
X92213319Y-101091109D01*
X92375722Y-101018803D01*
X92375724Y-101018802D01*
X92381752Y-101016118D01*
X92536253Y-100903866D01*
X92568662Y-100867872D01*
X92659621Y-100766852D01*
X92659622Y-100766851D01*
X92664040Y-100761944D01*
X92759527Y-100596556D01*
X92818542Y-100414928D01*
X92824669Y-100356638D01*
X92837814Y-100231565D01*
X92838504Y-100225000D01*
X92833073Y-100173327D01*
X92819232Y-100041635D01*
X92819232Y-100041633D01*
X92818542Y-100035072D01*
X92787421Y-99939292D01*
X92763767Y-99866492D01*
X92761739Y-99795525D01*
X92798402Y-99734727D01*
X92862114Y-99703401D01*
X92909798Y-99704310D01*
X92923050Y-99707127D01*
X92923057Y-99707128D01*
X92929513Y-99708500D01*
X93120487Y-99708500D01*
X93126939Y-99707128D01*
X93126944Y-99707128D01*
X93216668Y-99688056D01*
X93307288Y-99668794D01*
X93313319Y-99666109D01*
X93405652Y-99625000D01*
X108211496Y-99625000D01*
X108212186Y-99631565D01*
X108229419Y-99795525D01*
X108231458Y-99814928D01*
X108290473Y-99996556D01*
X108293776Y-100002278D01*
X108293777Y-100002279D01*
X108312710Y-100035072D01*
X108385960Y-100161944D01*
X108390378Y-100166851D01*
X108390379Y-100166852D01*
X108484257Y-100271114D01*
X108513747Y-100303866D01*
X108586381Y-100356638D01*
X108655243Y-100406669D01*
X108668248Y-100416118D01*
X108674276Y-100418802D01*
X108674278Y-100418803D01*
X108777136Y-100464598D01*
X108842712Y-100493794D01*
X108936112Y-100513647D01*
X109023056Y-100532128D01*
X109023061Y-100532128D01*
X109029513Y-100533500D01*
X109220487Y-100533500D01*
X109226939Y-100532128D01*
X109226944Y-100532128D01*
X109313887Y-100513647D01*
X109407288Y-100493794D01*
X109472864Y-100464598D01*
X109575722Y-100418803D01*
X109575724Y-100418802D01*
X109581752Y-100416118D01*
X109594758Y-100406669D01*
X109663619Y-100356638D01*
X109736253Y-100303866D01*
X109765743Y-100271114D01*
X109859621Y-100166852D01*
X109859622Y-100166851D01*
X109864040Y-100161944D01*
X109937290Y-100035072D01*
X109956223Y-100002279D01*
X109956224Y-100002278D01*
X109959527Y-99996556D01*
X110018542Y-99814928D01*
X110020582Y-99795525D01*
X110037814Y-99631565D01*
X110038504Y-99625000D01*
X110030656Y-99550331D01*
X110019232Y-99441635D01*
X110019232Y-99441633D01*
X110018542Y-99435072D01*
X109959527Y-99253444D01*
X109940811Y-99221026D01*
X109867341Y-99093774D01*
X109864040Y-99088056D01*
X109852484Y-99075221D01*
X109740675Y-98951045D01*
X109740674Y-98951044D01*
X109736253Y-98946134D01*
X109629804Y-98868794D01*
X109587094Y-98837763D01*
X109587093Y-98837762D01*
X109581752Y-98833882D01*
X109575724Y-98831198D01*
X109575722Y-98831197D01*
X109413319Y-98758891D01*
X109413318Y-98758891D01*
X109407288Y-98756206D01*
X109305090Y-98734483D01*
X109226944Y-98717872D01*
X109226939Y-98717872D01*
X109220487Y-98716500D01*
X109029513Y-98716500D01*
X109023061Y-98717872D01*
X109023056Y-98717872D01*
X108944910Y-98734483D01*
X108842712Y-98756206D01*
X108836682Y-98758891D01*
X108836681Y-98758891D01*
X108674278Y-98831197D01*
X108674276Y-98831198D01*
X108668248Y-98833882D01*
X108662907Y-98837762D01*
X108662906Y-98837763D01*
X108620196Y-98868794D01*
X108513747Y-98946134D01*
X108509326Y-98951044D01*
X108509325Y-98951045D01*
X108397517Y-99075221D01*
X108385960Y-99088056D01*
X108382659Y-99093774D01*
X108309190Y-99221026D01*
X108290473Y-99253444D01*
X108231458Y-99435072D01*
X108230768Y-99441633D01*
X108230768Y-99441635D01*
X108219344Y-99550331D01*
X108211496Y-99625000D01*
X93405652Y-99625000D01*
X93475722Y-99593803D01*
X93475724Y-99593802D01*
X93481752Y-99591118D01*
X93522090Y-99561811D01*
X93561568Y-99533128D01*
X93636253Y-99478866D01*
X93640675Y-99473955D01*
X93759621Y-99341852D01*
X93759622Y-99341851D01*
X93764040Y-99336944D01*
X93859527Y-99171556D01*
X93918542Y-98989928D01*
X93938504Y-98800000D01*
X93929728Y-98716500D01*
X93919232Y-98616635D01*
X93919232Y-98616633D01*
X93918542Y-98610072D01*
X93859527Y-98428444D01*
X93835415Y-98386680D01*
X93767341Y-98268774D01*
X93764040Y-98263056D01*
X93744185Y-98241005D01*
X93713469Y-98176999D01*
X93722232Y-98106546D01*
X93767695Y-98052014D01*
X93835423Y-98030719D01*
X93906815Y-98051264D01*
X93971822Y-98093803D01*
X93983159Y-98101222D01*
X93989763Y-98103678D01*
X93989765Y-98103679D01*
X94146558Y-98161990D01*
X94146560Y-98161990D01*
X94153168Y-98164448D01*
X94236995Y-98175633D01*
X94325980Y-98187507D01*
X94325984Y-98187507D01*
X94332961Y-98188438D01*
X94339972Y-98187800D01*
X94339976Y-98187800D01*
X94502524Y-98173006D01*
X94513600Y-98171998D01*
X94520302Y-98169820D01*
X94520304Y-98169820D01*
X94679409Y-98118124D01*
X94679412Y-98118123D01*
X94686108Y-98115947D01*
X94813468Y-98040025D01*
X94835860Y-98026677D01*
X94835862Y-98026676D01*
X94841912Y-98023069D01*
X94973266Y-97897982D01*
X95073643Y-97746902D01*
X95118641Y-97628444D01*
X95135555Y-97583920D01*
X95135556Y-97583918D01*
X95138055Y-97577338D01*
X95139724Y-97565465D01*
X95162748Y-97401639D01*
X95162748Y-97401636D01*
X95163299Y-97397717D01*
X95163616Y-97375000D01*
X95155203Y-97300000D01*
X96511496Y-97300000D01*
X96512186Y-97306565D01*
X96530512Y-97480923D01*
X96531458Y-97489928D01*
X96590473Y-97671556D01*
X96593776Y-97677278D01*
X96593777Y-97677279D01*
X96600492Y-97688909D01*
X96685960Y-97836944D01*
X96690378Y-97841851D01*
X96690379Y-97841852D01*
X96762638Y-97922104D01*
X96813747Y-97978866D01*
X96894491Y-98037530D01*
X96959924Y-98085070D01*
X96968248Y-98091118D01*
X96974276Y-98093802D01*
X96974278Y-98093803D01*
X97135044Y-98165380D01*
X97142712Y-98168794D01*
X97211263Y-98183365D01*
X97323056Y-98207128D01*
X97323061Y-98207128D01*
X97329513Y-98208500D01*
X97520487Y-98208500D01*
X97526939Y-98207128D01*
X97526944Y-98207128D01*
X97638737Y-98183365D01*
X97707288Y-98168794D01*
X97714956Y-98165380D01*
X97875722Y-98093803D01*
X97875724Y-98093802D01*
X97881752Y-98091118D01*
X97890077Y-98085070D01*
X97955509Y-98037530D01*
X98036253Y-97978866D01*
X98087362Y-97922104D01*
X98159621Y-97841852D01*
X98159622Y-97841851D01*
X98164040Y-97836944D01*
X98249508Y-97688909D01*
X98256223Y-97677279D01*
X98256224Y-97677278D01*
X98259527Y-97671556D01*
X98318542Y-97489928D01*
X98319489Y-97480923D01*
X98337814Y-97306565D01*
X98338504Y-97300000D01*
X98327483Y-97195144D01*
X98319232Y-97116635D01*
X98319232Y-97116633D01*
X98318542Y-97110072D01*
X98259527Y-96928444D01*
X98164040Y-96763056D01*
X98120561Y-96714767D01*
X98040675Y-96626045D01*
X98040674Y-96626044D01*
X98036253Y-96621134D01*
X97881752Y-96508882D01*
X97875724Y-96506198D01*
X97875722Y-96506197D01*
X97713319Y-96433891D01*
X97713318Y-96433891D01*
X97707288Y-96431206D01*
X97590299Y-96406339D01*
X97526944Y-96392872D01*
X97526939Y-96392872D01*
X97520487Y-96391500D01*
X97329513Y-96391500D01*
X97323061Y-96392872D01*
X97323056Y-96392872D01*
X97259701Y-96406339D01*
X97142712Y-96431206D01*
X97136682Y-96433891D01*
X97136681Y-96433891D01*
X96974278Y-96506197D01*
X96974276Y-96506198D01*
X96968248Y-96508882D01*
X96813747Y-96621134D01*
X96809326Y-96626044D01*
X96809325Y-96626045D01*
X96729440Y-96714767D01*
X96685960Y-96763056D01*
X96590473Y-96928444D01*
X96531458Y-97110072D01*
X96530768Y-97116633D01*
X96530768Y-97116635D01*
X96522517Y-97195144D01*
X96511496Y-97300000D01*
X95155203Y-97300000D01*
X95143397Y-97194745D01*
X95141080Y-97188091D01*
X95086064Y-97030106D01*
X95086062Y-97030103D01*
X95083745Y-97023448D01*
X95026868Y-96932425D01*
X94991359Y-96875598D01*
X94987626Y-96869624D01*
X94939835Y-96821498D01*
X94864778Y-96745915D01*
X94864774Y-96745912D01*
X94859815Y-96740918D01*
X94848697Y-96733862D01*
X94800538Y-96703300D01*
X94706666Y-96643727D01*
X94657009Y-96626045D01*
X94542425Y-96585243D01*
X94542420Y-96585242D01*
X94535790Y-96582881D01*
X94528802Y-96582048D01*
X94528799Y-96582047D01*
X94405698Y-96567368D01*
X94355680Y-96561404D01*
X94348677Y-96562140D01*
X94348676Y-96562140D01*
X94182288Y-96579628D01*
X94182286Y-96579629D01*
X94175288Y-96580364D01*
X94003579Y-96638818D01*
X93997575Y-96642512D01*
X93855095Y-96730166D01*
X93855092Y-96730168D01*
X93849088Y-96733862D01*
X93844053Y-96738793D01*
X93844050Y-96738795D01*
X93724525Y-96855843D01*
X93719493Y-96860771D01*
X93621235Y-97013238D01*
X93618826Y-97019858D01*
X93618824Y-97019861D01*
X93577057Y-97134616D01*
X93559197Y-97183685D01*
X93536463Y-97363640D01*
X93554163Y-97544160D01*
X93611418Y-97716273D01*
X93615065Y-97722295D01*
X93615066Y-97722297D01*
X93705380Y-97871424D01*
X93703025Y-97872851D01*
X93724220Y-97927359D01*
X93710092Y-97996936D01*
X93660590Y-98047829D01*
X93591432Y-98063880D01*
X93524617Y-98040025D01*
X93487094Y-98012763D01*
X93487093Y-98012762D01*
X93481752Y-98008882D01*
X93475724Y-98006198D01*
X93475722Y-98006197D01*
X93313319Y-97933891D01*
X93313318Y-97933891D01*
X93307288Y-97931206D01*
X93197525Y-97907875D01*
X93126944Y-97892872D01*
X93126939Y-97892872D01*
X93120487Y-97891500D01*
X92929513Y-97891500D01*
X92923061Y-97892872D01*
X92923056Y-97892872D01*
X92852475Y-97907875D01*
X92742712Y-97931206D01*
X92736682Y-97933891D01*
X92736681Y-97933891D01*
X92574278Y-98006197D01*
X92574276Y-98006198D01*
X92568248Y-98008882D01*
X92562906Y-98012763D01*
X92560752Y-98014007D01*
X92491758Y-98030746D01*
X92424665Y-98007527D01*
X92404114Y-97989200D01*
X92287252Y-97859411D01*
X92180597Y-97781921D01*
X92138093Y-97751040D01*
X92138092Y-97751039D01*
X92132751Y-97747159D01*
X92126723Y-97744475D01*
X92126721Y-97744474D01*
X91964318Y-97672168D01*
X91964317Y-97672168D01*
X91958287Y-97669483D01*
X91851690Y-97646825D01*
X91777943Y-97631149D01*
X91777938Y-97631149D01*
X91771486Y-97629777D01*
X91580512Y-97629777D01*
X91574060Y-97631149D01*
X91574055Y-97631149D01*
X91500308Y-97646825D01*
X91393711Y-97669483D01*
X91387681Y-97672168D01*
X91387680Y-97672168D01*
X91225277Y-97744474D01*
X91225275Y-97744475D01*
X91219247Y-97747159D01*
X91213906Y-97751039D01*
X91213905Y-97751040D01*
X91171401Y-97781921D01*
X91064746Y-97859411D01*
X91060328Y-97864318D01*
X91060324Y-97864322D01*
X90947884Y-97989200D01*
X90936959Y-98001333D01*
X90899121Y-98066870D01*
X90869530Y-98118124D01*
X90841472Y-98166721D01*
X90782457Y-98348349D01*
X90781767Y-98354910D01*
X90781767Y-98354912D01*
X90774039Y-98428444D01*
X90762495Y-98538277D01*
X89000969Y-98538277D01*
X89002169Y-98536944D01*
X89078566Y-98404621D01*
X89094352Y-98377279D01*
X89094353Y-98377278D01*
X89097656Y-98371556D01*
X89156671Y-98189928D01*
X89158489Y-98172637D01*
X89175943Y-98006565D01*
X89176633Y-98000000D01*
X89169685Y-97933891D01*
X89157361Y-97816635D01*
X89157361Y-97816633D01*
X89156671Y-97810072D01*
X89097656Y-97628444D01*
X89002169Y-97463056D01*
X88951820Y-97407137D01*
X88878804Y-97326045D01*
X88878803Y-97326044D01*
X88874382Y-97321134D01*
X88719881Y-97208882D01*
X88713853Y-97206198D01*
X88713851Y-97206197D01*
X88551448Y-97133891D01*
X88551447Y-97133891D01*
X88545417Y-97131206D01*
X88445990Y-97110072D01*
X88365073Y-97092872D01*
X88365068Y-97092872D01*
X88358616Y-97091500D01*
X88167642Y-97091500D01*
X88161190Y-97092872D01*
X88161185Y-97092872D01*
X88080268Y-97110072D01*
X87980841Y-97131206D01*
X87974811Y-97133891D01*
X87974810Y-97133891D01*
X87812407Y-97206197D01*
X87812405Y-97206198D01*
X87806377Y-97208882D01*
X87651876Y-97321134D01*
X87647455Y-97326044D01*
X87647454Y-97326045D01*
X87574439Y-97407137D01*
X87524089Y-97463056D01*
X87446276Y-97597832D01*
X87394894Y-97646825D01*
X87325180Y-97660261D01*
X87259269Y-97633875D01*
X87235225Y-97608899D01*
X87233569Y-97606620D01*
X87227048Y-97596693D01*
X87208580Y-97565465D01*
X87208578Y-97565462D01*
X87204542Y-97558638D01*
X87190221Y-97544317D01*
X87177380Y-97529283D01*
X87165472Y-97512893D01*
X87131395Y-97484702D01*
X87122616Y-97476712D01*
X85470405Y-95824500D01*
X85436379Y-95762188D01*
X85433500Y-95735405D01*
X85433500Y-95050000D01*
X85861496Y-95050000D01*
X85881458Y-95239928D01*
X85940473Y-95421556D01*
X85943776Y-95427278D01*
X85943777Y-95427279D01*
X85977686Y-95486010D01*
X86035960Y-95586944D01*
X86040378Y-95591851D01*
X86040379Y-95591852D01*
X86131108Y-95692617D01*
X86163747Y-95728866D01*
X86202847Y-95757274D01*
X86307532Y-95833332D01*
X86318248Y-95841118D01*
X86324276Y-95843802D01*
X86324278Y-95843803D01*
X86474842Y-95910838D01*
X86492712Y-95918794D01*
X86586113Y-95938647D01*
X86673056Y-95957128D01*
X86673061Y-95957128D01*
X86679513Y-95958500D01*
X86870487Y-95958500D01*
X86876939Y-95957128D01*
X86876944Y-95957128D01*
X86963887Y-95938647D01*
X87057288Y-95918794D01*
X87075158Y-95910838D01*
X87225722Y-95843803D01*
X87225724Y-95843802D01*
X87231752Y-95841118D01*
X87242469Y-95833332D01*
X87347153Y-95757274D01*
X87386253Y-95728866D01*
X87418892Y-95692617D01*
X87509621Y-95591852D01*
X87509622Y-95591851D01*
X87514040Y-95586944D01*
X87572314Y-95486010D01*
X87606223Y-95427279D01*
X87606224Y-95427278D01*
X87609527Y-95421556D01*
X87668542Y-95239928D01*
X87688504Y-95050000D01*
X87668542Y-94860072D01*
X87609527Y-94678444D01*
X87514040Y-94513056D01*
X87508196Y-94506565D01*
X87469502Y-94463591D01*
X97261414Y-94463591D01*
X97279114Y-94644111D01*
X97336369Y-94816224D01*
X97340016Y-94822246D01*
X97340017Y-94822248D01*
X97366899Y-94866635D01*
X97430331Y-94971375D01*
X97556333Y-95101853D01*
X97562229Y-95105711D01*
X97698460Y-95194858D01*
X97708110Y-95201173D01*
X97714714Y-95203629D01*
X97714716Y-95203630D01*
X97871509Y-95261941D01*
X97871511Y-95261941D01*
X97878119Y-95264399D01*
X97956909Y-95274912D01*
X98050931Y-95287458D01*
X98050935Y-95287458D01*
X98057912Y-95288389D01*
X98064923Y-95287751D01*
X98064927Y-95287751D01*
X98207410Y-95274783D01*
X98238551Y-95271949D01*
X98245253Y-95269771D01*
X98245255Y-95269771D01*
X98404360Y-95218075D01*
X98404363Y-95218074D01*
X98411059Y-95215898D01*
X98561491Y-95126222D01*
X98626009Y-95108451D01*
X98630368Y-95108451D01*
X98698489Y-95128453D01*
X98719464Y-95145356D01*
X99565386Y-95991279D01*
X99572920Y-95999558D01*
X99577033Y-96006039D01*
X99618107Y-96044610D01*
X99626684Y-96052664D01*
X99629526Y-96055419D01*
X99649263Y-96075156D01*
X99652460Y-96077636D01*
X99661480Y-96085339D01*
X99693712Y-96115607D01*
X99700658Y-96119426D01*
X99700661Y-96119428D01*
X99711467Y-96125369D01*
X99727986Y-96136220D01*
X99743992Y-96148635D01*
X99751261Y-96151780D01*
X99751265Y-96151783D01*
X99784570Y-96166195D01*
X99795220Y-96171412D01*
X99833973Y-96192716D01*
X99841648Y-96194687D01*
X99841649Y-96194687D01*
X99853595Y-96197754D01*
X99872300Y-96204158D01*
X99890888Y-96212202D01*
X99898711Y-96213441D01*
X99898721Y-96213444D01*
X99934557Y-96219120D01*
X99946177Y-96221526D01*
X99981322Y-96230549D01*
X99989003Y-96232521D01*
X100009257Y-96232521D01*
X100028967Y-96234072D01*
X100048976Y-96237241D01*
X100056868Y-96236495D01*
X100092994Y-96233080D01*
X100104852Y-96232521D01*
X103784427Y-96232521D01*
X103852548Y-96252523D01*
X103873522Y-96269426D01*
X105302878Y-97698782D01*
X105336904Y-97761094D01*
X105339092Y-97774703D01*
X105342104Y-97803357D01*
X105354585Y-97922104D01*
X105356458Y-97939928D01*
X105415473Y-98121556D01*
X105510960Y-98286944D01*
X105515378Y-98291851D01*
X105515379Y-98291852D01*
X105604990Y-98391375D01*
X105638747Y-98428866D01*
X105793248Y-98541118D01*
X105799276Y-98543802D01*
X105799278Y-98543803D01*
X105934021Y-98603794D01*
X105967712Y-98618794D01*
X106061113Y-98638647D01*
X106148056Y-98657128D01*
X106148061Y-98657128D01*
X106154513Y-98658500D01*
X106345487Y-98658500D01*
X106351939Y-98657128D01*
X106351944Y-98657128D01*
X106438887Y-98638647D01*
X106532288Y-98618794D01*
X106565979Y-98603794D01*
X106700722Y-98543803D01*
X106700724Y-98543802D01*
X106706752Y-98541118D01*
X106861253Y-98428866D01*
X106895010Y-98391375D01*
X106984621Y-98291852D01*
X106984622Y-98291851D01*
X106989040Y-98286944D01*
X107084527Y-98121556D01*
X107143542Y-97939928D01*
X107145416Y-97922104D01*
X107162814Y-97756565D01*
X107163504Y-97750000D01*
X107155142Y-97670437D01*
X107144232Y-97566635D01*
X107144232Y-97566633D01*
X107143542Y-97560072D01*
X107084527Y-97378444D01*
X107051182Y-97320688D01*
X106992341Y-97218774D01*
X106989040Y-97213056D01*
X106966562Y-97188091D01*
X106865675Y-97076045D01*
X106865674Y-97076044D01*
X106861253Y-97071134D01*
X106706752Y-96958882D01*
X106700724Y-96956198D01*
X106700722Y-96956197D01*
X106538319Y-96883891D01*
X106538318Y-96883891D01*
X106532288Y-96881206D01*
X106436149Y-96860771D01*
X106351944Y-96842872D01*
X106351939Y-96842872D01*
X106345487Y-96841500D01*
X106289594Y-96841500D01*
X106221473Y-96821498D01*
X106200503Y-96804599D01*
X105444009Y-96048104D01*
X105409985Y-95985794D01*
X105415050Y-95914978D01*
X105457597Y-95858143D01*
X105524117Y-95833332D01*
X105533106Y-95833011D01*
X107631693Y-95833011D01*
X107699814Y-95853013D01*
X107746307Y-95906669D01*
X107751525Y-95920073D01*
X107809672Y-96099029D01*
X107905159Y-96264417D01*
X108032946Y-96406339D01*
X108187447Y-96518591D01*
X108193475Y-96521275D01*
X108193477Y-96521276D01*
X108355880Y-96593582D01*
X108361911Y-96596267D01*
X108455312Y-96616120D01*
X108542255Y-96634601D01*
X108542260Y-96634601D01*
X108548712Y-96635973D01*
X108739686Y-96635973D01*
X108746138Y-96634601D01*
X108746143Y-96634601D01*
X108833087Y-96616120D01*
X108926487Y-96596267D01*
X108932518Y-96593582D01*
X109094921Y-96521276D01*
X109094923Y-96521275D01*
X109100951Y-96518591D01*
X109255452Y-96406339D01*
X109383239Y-96264417D01*
X109478726Y-96099029D01*
X109537741Y-95917401D01*
X109547670Y-95822931D01*
X109574683Y-95757274D01*
X109632905Y-95716644D01*
X109699177Y-95712854D01*
X109810778Y-95736576D01*
X109810783Y-95736576D01*
X109817235Y-95737948D01*
X110008209Y-95737948D01*
X110014661Y-95736576D01*
X110014666Y-95736576D01*
X110126266Y-95712854D01*
X110195010Y-95698242D01*
X110274534Y-95662836D01*
X110363444Y-95623251D01*
X110363446Y-95623250D01*
X110369474Y-95620566D01*
X110523975Y-95508314D01*
X110651762Y-95366392D01*
X110738650Y-95215898D01*
X110743945Y-95206727D01*
X110743946Y-95206726D01*
X110747249Y-95201004D01*
X110806264Y-95019376D01*
X110826226Y-94829448D01*
X110806264Y-94639520D01*
X110747249Y-94457892D01*
X110651762Y-94292504D01*
X110637818Y-94277017D01*
X110528397Y-94155493D01*
X110528396Y-94155492D01*
X110523975Y-94150582D01*
X110369474Y-94038330D01*
X110363446Y-94035646D01*
X110363444Y-94035645D01*
X110201041Y-93963339D01*
X110201040Y-93963339D01*
X110195010Y-93960654D01*
X110101610Y-93940801D01*
X110014666Y-93922320D01*
X110014661Y-93922320D01*
X110008209Y-93920948D01*
X109817235Y-93920948D01*
X109810783Y-93922320D01*
X109810778Y-93922320D01*
X109723835Y-93940801D01*
X109630434Y-93960654D01*
X109624404Y-93963339D01*
X109624403Y-93963339D01*
X109462000Y-94035645D01*
X109461998Y-94035646D01*
X109455970Y-94038330D01*
X109450629Y-94042210D01*
X109450628Y-94042211D01*
X109312681Y-94142436D01*
X109245813Y-94166294D01*
X109238620Y-94166500D01*
X100714595Y-94166500D01*
X100646474Y-94146498D01*
X100625500Y-94129595D01*
X99889894Y-93393989D01*
X99855868Y-93331677D01*
X99854215Y-93287360D01*
X99862747Y-93226645D01*
X99863299Y-93222717D01*
X99863616Y-93200000D01*
X99843397Y-93019745D01*
X99841080Y-93013091D01*
X99786064Y-92855106D01*
X99786062Y-92855103D01*
X99783745Y-92848448D01*
X99687626Y-92694624D01*
X99672106Y-92678995D01*
X99638300Y-92616564D01*
X99643612Y-92545767D01*
X99652394Y-92527212D01*
X99681223Y-92477279D01*
X99681224Y-92477277D01*
X99684527Y-92471556D01*
X99743542Y-92289928D01*
X99763504Y-92100000D01*
X99745111Y-91925000D01*
X104311496Y-91925000D01*
X104312186Y-91931565D01*
X104329941Y-92100491D01*
X104331458Y-92114928D01*
X104390473Y-92296556D01*
X104485960Y-92461944D01*
X104490378Y-92466851D01*
X104490379Y-92466852D01*
X104609325Y-92598955D01*
X104613747Y-92603866D01*
X104684694Y-92655412D01*
X104746887Y-92700598D01*
X104768248Y-92716118D01*
X104774276Y-92718802D01*
X104774278Y-92718803D01*
X104936681Y-92791109D01*
X104942712Y-92793794D01*
X105036112Y-92813647D01*
X105123056Y-92832128D01*
X105123061Y-92832128D01*
X105129513Y-92833500D01*
X105320487Y-92833500D01*
X105326939Y-92832128D01*
X105326944Y-92832128D01*
X105413887Y-92813647D01*
X105507288Y-92793794D01*
X105513319Y-92791109D01*
X105675722Y-92718803D01*
X105675724Y-92718802D01*
X105681752Y-92716118D01*
X105703114Y-92700598D01*
X105765306Y-92655412D01*
X105836253Y-92603866D01*
X105840675Y-92598955D01*
X105959621Y-92466852D01*
X105959622Y-92466851D01*
X105964040Y-92461944D01*
X106059527Y-92296556D01*
X106118542Y-92114928D01*
X106120060Y-92100491D01*
X106137814Y-91931565D01*
X106138504Y-91925000D01*
X106136275Y-91903794D01*
X106119232Y-91741635D01*
X106119232Y-91741633D01*
X106118542Y-91735072D01*
X106059527Y-91553444D01*
X105964040Y-91388056D01*
X105945531Y-91367499D01*
X105840675Y-91251045D01*
X105840674Y-91251044D01*
X105836253Y-91246134D01*
X105681752Y-91133882D01*
X105675724Y-91131198D01*
X105675722Y-91131197D01*
X105513319Y-91058891D01*
X105513318Y-91058891D01*
X105507288Y-91056206D01*
X105413887Y-91036353D01*
X105326944Y-91017872D01*
X105326939Y-91017872D01*
X105320487Y-91016500D01*
X105129513Y-91016500D01*
X105123061Y-91017872D01*
X105123056Y-91017872D01*
X105036113Y-91036353D01*
X104942712Y-91056206D01*
X104936682Y-91058891D01*
X104936681Y-91058891D01*
X104774278Y-91131197D01*
X104774276Y-91131198D01*
X104768248Y-91133882D01*
X104613747Y-91246134D01*
X104609326Y-91251044D01*
X104609325Y-91251045D01*
X104504470Y-91367499D01*
X104485960Y-91388056D01*
X104390473Y-91553444D01*
X104331458Y-91735072D01*
X104330768Y-91741633D01*
X104330768Y-91741635D01*
X104313725Y-91903794D01*
X104311496Y-91925000D01*
X99745111Y-91925000D01*
X99743542Y-91910072D01*
X99684527Y-91728444D01*
X99589040Y-91563056D01*
X99580386Y-91553444D01*
X99465675Y-91426045D01*
X99465674Y-91426044D01*
X99461253Y-91421134D01*
X99306752Y-91308882D01*
X99300724Y-91306198D01*
X99300722Y-91306197D01*
X99138319Y-91233891D01*
X99138318Y-91233891D01*
X99132288Y-91231206D01*
X99025936Y-91208600D01*
X98951944Y-91192872D01*
X98951939Y-91192872D01*
X98945487Y-91191500D01*
X98754513Y-91191500D01*
X98748061Y-91192872D01*
X98748056Y-91192872D01*
X98674064Y-91208600D01*
X98567712Y-91231206D01*
X98561682Y-91233891D01*
X98561681Y-91233891D01*
X98399278Y-91306197D01*
X98399276Y-91306198D01*
X98393248Y-91308882D01*
X98238747Y-91421134D01*
X98234326Y-91426044D01*
X98234325Y-91426045D01*
X98119615Y-91553444D01*
X98110960Y-91563056D01*
X98015473Y-91728444D01*
X97956458Y-91910072D01*
X97936496Y-92100000D01*
X97956458Y-92289928D01*
X98015473Y-92471556D01*
X98110960Y-92636944D01*
X98115378Y-92641851D01*
X98115379Y-92641852D01*
X98184666Y-92718803D01*
X98238747Y-92778866D01*
X98244256Y-92782869D01*
X98244329Y-92782963D01*
X98248998Y-92787167D01*
X98248229Y-92788021D01*
X98287612Y-92839087D01*
X98293691Y-92909823D01*
X98288601Y-92927899D01*
X98259197Y-93008685D01*
X98250484Y-93077659D01*
X98240845Y-93153956D01*
X98212463Y-93219033D01*
X98187783Y-93240363D01*
X98188075Y-93240737D01*
X98182524Y-93245073D01*
X98176524Y-93248765D01*
X98171492Y-93253692D01*
X98171489Y-93253695D01*
X98051961Y-93370746D01*
X98046929Y-93375674D01*
X97948671Y-93528141D01*
X97946260Y-93534765D01*
X97946259Y-93534767D01*
X97912948Y-93626289D01*
X97870854Y-93683461D01*
X97835152Y-93702472D01*
X97824211Y-93706197D01*
X97735203Y-93736497D01*
X97735200Y-93736498D01*
X97728530Y-93738769D01*
X97722526Y-93742463D01*
X97580046Y-93830117D01*
X97580043Y-93830119D01*
X97574039Y-93833813D01*
X97569004Y-93838744D01*
X97569001Y-93838746D01*
X97449476Y-93955794D01*
X97444444Y-93960722D01*
X97346186Y-94113189D01*
X97343777Y-94119809D01*
X97343775Y-94119812D01*
X97320452Y-94183891D01*
X97284148Y-94283636D01*
X97261414Y-94463591D01*
X87469502Y-94463591D01*
X87390675Y-94376045D01*
X87390674Y-94376044D01*
X87386253Y-94371134D01*
X87231752Y-94258882D01*
X87225724Y-94256198D01*
X87225722Y-94256197D01*
X87063319Y-94183891D01*
X87063318Y-94183891D01*
X87057288Y-94181206D01*
X86936319Y-94155493D01*
X86876944Y-94142872D01*
X86876939Y-94142872D01*
X86870487Y-94141500D01*
X86679513Y-94141500D01*
X86673061Y-94142872D01*
X86673056Y-94142872D01*
X86613681Y-94155493D01*
X86492712Y-94181206D01*
X86486682Y-94183891D01*
X86486681Y-94183891D01*
X86324278Y-94256197D01*
X86324276Y-94256198D01*
X86318248Y-94258882D01*
X86163747Y-94371134D01*
X86159326Y-94376044D01*
X86159325Y-94376045D01*
X86041805Y-94506565D01*
X86035960Y-94513056D01*
X85940473Y-94678444D01*
X85881458Y-94860072D01*
X85861496Y-95050000D01*
X85433500Y-95050000D01*
X85433500Y-92744737D01*
X85453502Y-92676616D01*
X85507158Y-92630123D01*
X85577432Y-92620019D01*
X85642012Y-92649513D01*
X85668618Y-92681736D01*
X85748907Y-92820800D01*
X85753325Y-92825707D01*
X85753326Y-92825708D01*
X85845342Y-92927902D01*
X85876694Y-92962722D01*
X86031195Y-93074974D01*
X86037223Y-93077658D01*
X86037225Y-93077659D01*
X86199628Y-93149965D01*
X86205659Y-93152650D01*
X86299060Y-93172503D01*
X86386003Y-93190984D01*
X86386008Y-93190984D01*
X86392460Y-93192356D01*
X86583434Y-93192356D01*
X86589886Y-93190984D01*
X86589891Y-93190984D01*
X86676834Y-93172503D01*
X86770235Y-93152650D01*
X86776266Y-93149965D01*
X86938669Y-93077659D01*
X86938671Y-93077658D01*
X86944699Y-93074974D01*
X87099200Y-92962722D01*
X87130552Y-92927902D01*
X87222568Y-92825708D01*
X87222569Y-92825707D01*
X87226987Y-92820800D01*
X87322474Y-92655412D01*
X87381489Y-92473784D01*
X87382734Y-92461944D01*
X87400761Y-92290421D01*
X87401451Y-92283856D01*
X87383696Y-92114928D01*
X87382179Y-92100491D01*
X87382179Y-92100489D01*
X87381489Y-92093928D01*
X87322474Y-91912300D01*
X87226987Y-91746912D01*
X87216018Y-91734729D01*
X87103622Y-91609901D01*
X87103621Y-91609900D01*
X87099200Y-91604990D01*
X86944699Y-91492738D01*
X86938671Y-91490054D01*
X86938669Y-91490053D01*
X86776266Y-91417747D01*
X86776265Y-91417747D01*
X86770235Y-91415062D01*
X86705152Y-91401228D01*
X86642678Y-91367499D01*
X86608357Y-91305350D01*
X86613085Y-91234511D01*
X86655361Y-91177473D01*
X86705152Y-91154734D01*
X86788819Y-91136950D01*
X86801741Y-91131197D01*
X86957253Y-91061959D01*
X86957255Y-91061958D01*
X86963283Y-91059274D01*
X87117784Y-90947022D01*
X87245571Y-90805100D01*
X87267802Y-90766595D01*
X87319185Y-90717602D01*
X87376921Y-90703595D01*
X87482484Y-90703595D01*
X87488936Y-90702223D01*
X87488941Y-90702223D01*
X87575885Y-90683742D01*
X87669285Y-90663889D01*
X87675316Y-90661204D01*
X87837719Y-90588898D01*
X87837721Y-90588897D01*
X87843749Y-90586213D01*
X87998250Y-90473961D01*
X88126037Y-90332039D01*
X88221524Y-90166651D01*
X88267289Y-90025802D01*
X88307363Y-89967196D01*
X88372759Y-89939559D01*
X88438370Y-89949631D01*
X88528537Y-89989776D01*
X88528545Y-89989779D01*
X88534572Y-89992462D01*
X88623654Y-90011397D01*
X88714916Y-90030796D01*
X88714921Y-90030796D01*
X88721373Y-90032168D01*
X88912347Y-90032168D01*
X88918799Y-90030796D01*
X88918804Y-90030796D01*
X89010066Y-90011397D01*
X89099148Y-89992462D01*
X89105262Y-89989740D01*
X89267582Y-89917471D01*
X89267584Y-89917470D01*
X89273612Y-89914786D01*
X89428113Y-89802534D01*
X89486530Y-89737655D01*
X89551481Y-89665520D01*
X89551482Y-89665519D01*
X89555900Y-89660612D01*
X89651387Y-89495224D01*
X89710402Y-89313596D01*
X89712183Y-89296656D01*
X89729674Y-89130233D01*
X89730364Y-89123668D01*
X89719970Y-89024771D01*
X89715879Y-88985851D01*
X100486719Y-88985851D01*
X100487235Y-88991995D01*
X100500599Y-89151144D01*
X100503268Y-89182934D01*
X100513436Y-89218393D01*
X100551436Y-89350915D01*
X100557783Y-89373050D01*
X100560602Y-89378535D01*
X100623514Y-89500947D01*
X100648187Y-89548956D01*
X100771035Y-89703953D01*
X100775728Y-89707947D01*
X100775729Y-89707948D01*
X100886868Y-89802534D01*
X100921650Y-89832136D01*
X101094294Y-89928624D01*
X101282392Y-89989740D01*
X101478777Y-90013158D01*
X101484912Y-90012686D01*
X101484914Y-90012686D01*
X101669830Y-89998457D01*
X101669834Y-89998456D01*
X101675972Y-89997984D01*
X101866463Y-89944798D01*
X101871967Y-89942018D01*
X101871969Y-89942017D01*
X102037495Y-89858404D01*
X102037497Y-89858403D01*
X102042996Y-89855625D01*
X102198847Y-89733861D01*
X102328078Y-89584145D01*
X102425769Y-89412179D01*
X102479719Y-89250000D01*
X108336496Y-89250000D01*
X108337186Y-89256565D01*
X108353849Y-89415101D01*
X108356458Y-89439928D01*
X108415473Y-89621556D01*
X108510960Y-89786944D01*
X108515378Y-89791851D01*
X108515379Y-89791852D01*
X108634325Y-89923955D01*
X108638747Y-89928866D01*
X108723536Y-89990469D01*
X108754765Y-90013158D01*
X108793248Y-90041118D01*
X108799276Y-90043802D01*
X108799278Y-90043803D01*
X108961681Y-90116109D01*
X108967712Y-90118794D01*
X109053519Y-90137033D01*
X109148056Y-90157128D01*
X109148061Y-90157128D01*
X109154513Y-90158500D01*
X109345487Y-90158500D01*
X109351939Y-90157128D01*
X109351944Y-90157128D01*
X109446481Y-90137033D01*
X109532288Y-90118794D01*
X109538319Y-90116109D01*
X109700722Y-90043803D01*
X109700724Y-90043802D01*
X109706752Y-90041118D01*
X109745236Y-90013158D01*
X109776464Y-89990469D01*
X109861253Y-89928866D01*
X109865675Y-89923955D01*
X109984621Y-89791852D01*
X109984622Y-89791851D01*
X109989040Y-89786944D01*
X110084527Y-89621556D01*
X110143542Y-89439928D01*
X110146152Y-89415101D01*
X110162814Y-89256565D01*
X110163504Y-89250000D01*
X110160182Y-89218393D01*
X110144232Y-89066635D01*
X110144232Y-89066633D01*
X110143542Y-89060072D01*
X110084527Y-88878444D01*
X109989040Y-88713056D01*
X109932037Y-88649747D01*
X109865675Y-88576045D01*
X109865674Y-88576044D01*
X109861253Y-88571134D01*
X109706752Y-88458882D01*
X109700724Y-88456198D01*
X109700722Y-88456197D01*
X109538319Y-88383891D01*
X109538318Y-88383891D01*
X109532288Y-88381206D01*
X109438888Y-88361353D01*
X109351944Y-88342872D01*
X109351939Y-88342872D01*
X109345487Y-88341500D01*
X109154513Y-88341500D01*
X109148061Y-88342872D01*
X109148056Y-88342872D01*
X109061112Y-88361353D01*
X108967712Y-88381206D01*
X108961682Y-88383891D01*
X108961681Y-88383891D01*
X108799278Y-88456197D01*
X108799276Y-88456198D01*
X108793248Y-88458882D01*
X108638747Y-88571134D01*
X108634326Y-88576044D01*
X108634325Y-88576045D01*
X108567964Y-88649747D01*
X108510960Y-88713056D01*
X108415473Y-88878444D01*
X108356458Y-89060072D01*
X108355768Y-89066633D01*
X108355768Y-89066635D01*
X108339818Y-89218393D01*
X108336496Y-89250000D01*
X102479719Y-89250000D01*
X102488197Y-89224513D01*
X102512985Y-89028295D01*
X102513380Y-89000000D01*
X102507948Y-88944598D01*
X102521208Y-88874851D01*
X102570070Y-88823344D01*
X102639023Y-88806431D01*
X102648268Y-88807190D01*
X102674740Y-88810347D01*
X102674747Y-88810347D01*
X102680859Y-88811076D01*
X102686994Y-88810604D01*
X102686996Y-88810604D01*
X102871912Y-88796375D01*
X102871916Y-88796374D01*
X102878054Y-88795902D01*
X103068545Y-88742716D01*
X103074049Y-88739936D01*
X103074051Y-88739935D01*
X103239577Y-88656322D01*
X103239579Y-88656321D01*
X103245078Y-88653543D01*
X103400929Y-88531779D01*
X103504233Y-88412100D01*
X103526131Y-88386731D01*
X103526132Y-88386729D01*
X103530160Y-88382063D01*
X103627851Y-88210097D01*
X103690279Y-88022431D01*
X103715067Y-87826213D01*
X103715462Y-87797918D01*
X103696162Y-87601085D01*
X103692616Y-87589338D01*
X103658587Y-87476632D01*
X103638998Y-87411749D01*
X103546148Y-87237122D01*
X103460050Y-87131556D01*
X103425042Y-87088631D01*
X103425039Y-87088628D01*
X103421147Y-87083856D01*
X103414806Y-87078610D01*
X103273507Y-86961717D01*
X103273503Y-86961715D01*
X103268757Y-86957788D01*
X103094783Y-86863720D01*
X102905850Y-86805236D01*
X102899725Y-86804592D01*
X102899724Y-86804592D01*
X102715286Y-86785207D01*
X102715284Y-86785207D01*
X102709157Y-86784563D01*
X102626658Y-86792071D01*
X102518333Y-86801929D01*
X102518330Y-86801930D01*
X102512194Y-86802488D01*
X102506288Y-86804226D01*
X102506284Y-86804227D01*
X102401158Y-86835167D01*
X102322463Y-86858328D01*
X102317005Y-86861181D01*
X102317001Y-86861183D01*
X102226229Y-86908638D01*
X102147192Y-86949958D01*
X101993057Y-87073886D01*
X101865928Y-87225392D01*
X101862961Y-87230790D01*
X101862957Y-87230795D01*
X101784177Y-87374098D01*
X101770649Y-87398705D01*
X101768788Y-87404572D01*
X101768787Y-87404574D01*
X101739366Y-87497322D01*
X101710847Y-87587224D01*
X101688801Y-87783769D01*
X101693215Y-87836329D01*
X101694862Y-87855948D01*
X101680630Y-87925503D01*
X101631053Y-87976323D01*
X101556134Y-87991801D01*
X101513204Y-87987289D01*
X101513202Y-87987289D01*
X101507075Y-87986645D01*
X101424576Y-87994153D01*
X101316251Y-88004011D01*
X101316248Y-88004012D01*
X101310112Y-88004570D01*
X101304206Y-88006308D01*
X101304202Y-88006309D01*
X101229541Y-88028283D01*
X101120381Y-88060410D01*
X101114923Y-88063263D01*
X101114919Y-88063265D01*
X101024147Y-88110720D01*
X100945110Y-88152040D01*
X100790975Y-88275968D01*
X100663846Y-88427474D01*
X100660879Y-88432872D01*
X100660875Y-88432877D01*
X100609068Y-88527115D01*
X100568567Y-88600787D01*
X100566706Y-88606654D01*
X100566705Y-88606656D01*
X100551832Y-88653543D01*
X100508765Y-88789306D01*
X100486719Y-88985851D01*
X89715879Y-88985851D01*
X89711092Y-88940303D01*
X89711092Y-88940301D01*
X89710402Y-88933740D01*
X89651387Y-88752112D01*
X89632369Y-88719172D01*
X89615632Y-88650177D01*
X89632370Y-88593173D01*
X89722056Y-88437833D01*
X89722057Y-88437832D01*
X89725360Y-88432110D01*
X89784375Y-88250482D01*
X89786943Y-88226055D01*
X89803647Y-88067119D01*
X89804337Y-88060554D01*
X89795210Y-87973713D01*
X89785065Y-87877189D01*
X89785065Y-87877187D01*
X89784375Y-87870626D01*
X89754935Y-87780020D01*
X89752907Y-87709053D01*
X89789570Y-87648255D01*
X89853282Y-87616929D01*
X89926016Y-87625977D01*
X89987667Y-87653426D01*
X89987675Y-87653429D01*
X89993702Y-87656112D01*
X90087103Y-87675965D01*
X90174046Y-87694446D01*
X90174051Y-87694446D01*
X90180503Y-87695818D01*
X90371477Y-87695818D01*
X90377929Y-87694446D01*
X90377934Y-87694446D01*
X90464877Y-87675965D01*
X90558278Y-87656112D01*
X90564311Y-87653426D01*
X90726712Y-87581121D01*
X90726714Y-87581120D01*
X90732742Y-87578436D01*
X90887243Y-87466184D01*
X90930944Y-87417649D01*
X91010611Y-87329170D01*
X91010612Y-87329169D01*
X91015030Y-87324262D01*
X91110517Y-87158874D01*
X91113209Y-87150589D01*
X91113900Y-87149578D01*
X91115244Y-87146560D01*
X91115796Y-87146806D01*
X91153283Y-87091984D01*
X91218680Y-87064347D01*
X91259239Y-87066279D01*
X91384771Y-87092962D01*
X91384776Y-87092962D01*
X91391228Y-87094334D01*
X91582202Y-87094334D01*
X91588658Y-87092962D01*
X91588665Y-87092961D01*
X91589107Y-87092867D01*
X91589369Y-87092887D01*
X91595230Y-87092271D01*
X91595343Y-87093343D01*
X91659898Y-87098268D01*
X91716531Y-87141084D01*
X91735138Y-87177177D01*
X91785422Y-87331934D01*
X91880909Y-87497322D01*
X91885327Y-87502229D01*
X91885328Y-87502230D01*
X91996750Y-87625977D01*
X92008696Y-87639244D01*
X92049693Y-87669030D01*
X92146703Y-87739512D01*
X92163197Y-87751496D01*
X92169225Y-87754180D01*
X92169227Y-87754181D01*
X92331015Y-87826213D01*
X92337661Y-87829172D01*
X92431062Y-87849025D01*
X92518005Y-87867506D01*
X92518010Y-87867506D01*
X92524462Y-87868878D01*
X92715436Y-87868878D01*
X92721888Y-87867506D01*
X92721893Y-87867506D01*
X92886820Y-87832449D01*
X92902237Y-87829172D01*
X92957814Y-87804428D01*
X93028179Y-87794994D01*
X93083121Y-87817598D01*
X93108902Y-87836329D01*
X93114930Y-87839013D01*
X93114932Y-87839014D01*
X93271174Y-87908577D01*
X93283366Y-87914005D01*
X93376766Y-87933858D01*
X93463710Y-87952339D01*
X93463715Y-87952339D01*
X93470167Y-87953711D01*
X93516146Y-87953711D01*
X93584267Y-87973713D01*
X93625265Y-88016711D01*
X93661949Y-88080250D01*
X93666367Y-88085157D01*
X93666368Y-88085158D01*
X93778864Y-88210097D01*
X93789736Y-88222172D01*
X93944237Y-88334424D01*
X93950265Y-88337108D01*
X93950267Y-88337109D01*
X94051236Y-88382063D01*
X94118701Y-88412100D01*
X94183272Y-88425825D01*
X94299045Y-88450434D01*
X94299050Y-88450434D01*
X94305502Y-88451806D01*
X94496476Y-88451806D01*
X94502928Y-88450434D01*
X94502933Y-88450434D01*
X94618706Y-88425825D01*
X94683277Y-88412100D01*
X94750742Y-88382063D01*
X94851711Y-88337109D01*
X94851713Y-88337108D01*
X94857741Y-88334424D01*
X95012242Y-88222172D01*
X95023114Y-88210097D01*
X95135610Y-88085158D01*
X95135611Y-88085157D01*
X95140029Y-88080250D01*
X95201538Y-87973713D01*
X95232212Y-87920585D01*
X95232213Y-87920584D01*
X95235516Y-87914862D01*
X95294531Y-87733234D01*
X95296119Y-87718131D01*
X95313803Y-87549871D01*
X95314493Y-87543306D01*
X95299912Y-87404574D01*
X95295221Y-87359941D01*
X95295221Y-87359939D01*
X95294531Y-87353378D01*
X95235516Y-87171750D01*
X95212310Y-87131556D01*
X95195572Y-87062561D01*
X95212310Y-87005556D01*
X95232213Y-86971083D01*
X95232214Y-86971082D01*
X95235517Y-86965360D01*
X95294532Y-86783732D01*
X95295721Y-86772425D01*
X95313804Y-86600369D01*
X95314494Y-86593804D01*
X95294532Y-86403876D01*
X95235517Y-86222248D01*
X95223343Y-86201161D01*
X95159286Y-86090212D01*
X95140030Y-86056860D01*
X95093451Y-86005128D01*
X95016665Y-85919849D01*
X95016664Y-85919848D01*
X95012243Y-85914938D01*
X94885100Y-85822563D01*
X94863084Y-85806567D01*
X94863083Y-85806566D01*
X94857742Y-85802686D01*
X94851714Y-85800002D01*
X94851712Y-85800001D01*
X94689309Y-85727695D01*
X94689308Y-85727695D01*
X94683278Y-85725010D01*
X94589878Y-85705157D01*
X94502934Y-85686676D01*
X94502929Y-85686676D01*
X94496477Y-85685304D01*
X94305503Y-85685304D01*
X94299051Y-85686676D01*
X94299046Y-85686676D01*
X94212102Y-85705157D01*
X94118702Y-85725010D01*
X94112672Y-85727695D01*
X94112671Y-85727695D01*
X93950268Y-85800001D01*
X93950266Y-85800002D01*
X93944238Y-85802686D01*
X93938897Y-85806566D01*
X93938896Y-85806567D01*
X93916880Y-85822563D01*
X93789737Y-85914938D01*
X93785316Y-85919848D01*
X93785315Y-85919849D01*
X93708530Y-86005128D01*
X93661950Y-86056860D01*
X93658651Y-86062573D01*
X93658648Y-86062578D01*
X93652221Y-86073711D01*
X93600838Y-86122704D01*
X93543102Y-86136711D01*
X93470167Y-86136711D01*
X93463715Y-86138083D01*
X93463710Y-86138083D01*
X93329669Y-86166575D01*
X93283366Y-86176417D01*
X93227789Y-86201161D01*
X93157424Y-86210595D01*
X93102482Y-86187991D01*
X93090249Y-86179103D01*
X93076701Y-86169260D01*
X93070673Y-86166576D01*
X93070671Y-86166575D01*
X92908268Y-86094269D01*
X92908267Y-86094269D01*
X92902237Y-86091584D01*
X92808836Y-86071731D01*
X92721893Y-86053250D01*
X92721888Y-86053250D01*
X92715436Y-86051878D01*
X92524462Y-86051878D01*
X92518006Y-86053250D01*
X92517999Y-86053251D01*
X92517557Y-86053345D01*
X92517295Y-86053325D01*
X92511434Y-86053941D01*
X92511321Y-86052869D01*
X92446766Y-86047944D01*
X92390133Y-86005128D01*
X92371526Y-85969035D01*
X92323284Y-85820563D01*
X92321242Y-85814278D01*
X92314550Y-85802686D01*
X92247571Y-85686676D01*
X92225755Y-85648890D01*
X92110956Y-85521392D01*
X92102390Y-85511879D01*
X92102389Y-85511878D01*
X92097968Y-85506968D01*
X91988733Y-85427604D01*
X91948809Y-85398597D01*
X91948808Y-85398596D01*
X91943467Y-85394716D01*
X91937439Y-85392032D01*
X91937437Y-85392031D01*
X91775034Y-85319725D01*
X91775033Y-85319725D01*
X91769003Y-85317040D01*
X91675603Y-85297187D01*
X91588659Y-85278706D01*
X91588654Y-85278706D01*
X91582202Y-85277334D01*
X91391228Y-85277334D01*
X91384776Y-85278706D01*
X91384771Y-85278706D01*
X91297827Y-85297187D01*
X91204427Y-85317040D01*
X91198397Y-85319725D01*
X91198396Y-85319725D01*
X91035993Y-85392031D01*
X91035991Y-85392032D01*
X91029963Y-85394716D01*
X91024622Y-85398596D01*
X91024621Y-85398597D01*
X90984697Y-85427604D01*
X90875462Y-85506968D01*
X90871041Y-85511878D01*
X90871040Y-85511879D01*
X90862475Y-85521392D01*
X90747675Y-85648890D01*
X90652188Y-85814278D01*
X90650148Y-85820558D01*
X90650147Y-85820559D01*
X90649496Y-85822563D01*
X90648805Y-85823574D01*
X90647461Y-85826592D01*
X90646909Y-85826346D01*
X90609422Y-85881168D01*
X90544025Y-85908805D01*
X90503466Y-85906873D01*
X90377934Y-85880190D01*
X90377929Y-85880190D01*
X90371477Y-85878818D01*
X90226913Y-85878818D01*
X90158792Y-85858816D01*
X90137818Y-85841913D01*
X89903652Y-85607747D01*
X89896112Y-85599461D01*
X89892000Y-85592982D01*
X89842348Y-85546356D01*
X89839507Y-85543602D01*
X89819770Y-85523865D01*
X89816573Y-85521385D01*
X89807551Y-85513680D01*
X89803400Y-85509782D01*
X89775321Y-85483414D01*
X89768375Y-85479595D01*
X89768372Y-85479593D01*
X89757566Y-85473652D01*
X89741047Y-85462801D01*
X89740583Y-85462441D01*
X89725041Y-85450386D01*
X89717772Y-85447241D01*
X89717768Y-85447238D01*
X89684463Y-85432826D01*
X89673813Y-85427609D01*
X89635060Y-85406305D01*
X89615437Y-85401267D01*
X89596734Y-85394863D01*
X89585420Y-85389967D01*
X89585419Y-85389967D01*
X89578145Y-85386819D01*
X89570322Y-85385580D01*
X89570312Y-85385577D01*
X89534476Y-85379901D01*
X89522856Y-85377495D01*
X89487711Y-85368472D01*
X89487710Y-85368472D01*
X89480030Y-85366500D01*
X89459776Y-85366500D01*
X89440065Y-85364949D01*
X89427886Y-85363020D01*
X89420057Y-85361780D01*
X89390786Y-85364547D01*
X89376039Y-85365941D01*
X89364181Y-85366500D01*
X86821145Y-85366500D01*
X86809962Y-85365973D01*
X86802469Y-85364298D01*
X86794543Y-85364547D01*
X86794542Y-85364547D01*
X86734392Y-85366438D01*
X86730433Y-85366500D01*
X86702522Y-85366500D01*
X86698588Y-85366997D01*
X86698587Y-85366997D01*
X86698522Y-85367005D01*
X86686685Y-85367938D01*
X86654868Y-85368938D01*
X86650407Y-85369078D01*
X86642488Y-85369327D01*
X86624832Y-85374456D01*
X86623036Y-85374978D01*
X86603684Y-85378986D01*
X86596613Y-85379880D01*
X86583581Y-85381526D01*
X86576212Y-85384443D01*
X86576210Y-85384444D01*
X86542475Y-85397800D01*
X86531247Y-85401645D01*
X86488785Y-85413982D01*
X86481963Y-85418016D01*
X86481957Y-85418019D01*
X86471346Y-85424294D01*
X86453596Y-85432990D01*
X86442134Y-85437528D01*
X86442129Y-85437531D01*
X86434761Y-85440448D01*
X86417348Y-85453099D01*
X86399003Y-85466427D01*
X86389085Y-85472943D01*
X86377841Y-85479593D01*
X86351015Y-85495458D01*
X86336691Y-85509782D01*
X86321659Y-85522621D01*
X86305271Y-85534528D01*
X86277090Y-85568593D01*
X86269100Y-85577373D01*
X82559703Y-89286770D01*
X82551417Y-89294310D01*
X82544938Y-89298422D01*
X82539513Y-89304199D01*
X82498313Y-89348073D01*
X82495558Y-89350915D01*
X82475821Y-89370652D01*
X82473341Y-89373849D01*
X82465638Y-89382869D01*
X82435370Y-89415101D01*
X82433607Y-89418308D01*
X82425190Y-89428163D01*
X82160198Y-89693155D01*
X82151912Y-89700695D01*
X82145433Y-89704807D01*
X82140008Y-89710584D01*
X82098808Y-89754458D01*
X82096053Y-89757300D01*
X82076314Y-89777039D01*
X82073831Y-89780240D01*
X82066126Y-89789261D01*
X82035865Y-89821486D01*
X82026106Y-89839238D01*
X82015251Y-89855762D01*
X82007695Y-89865502D01*
X82007693Y-89865505D01*
X82002835Y-89871768D01*
X81999688Y-89879041D01*
X81999686Y-89879044D01*
X81985277Y-89912343D01*
X81980052Y-89923007D01*
X81962575Y-89954795D01*
X81962571Y-89954805D01*
X81958755Y-89961746D01*
X81953714Y-89981379D01*
X81947316Y-90000065D01*
X81939268Y-90018664D01*
X81932352Y-90062330D01*
X81929945Y-90073951D01*
X81918949Y-90116776D01*
X81918949Y-90137033D01*
X81917398Y-90156744D01*
X81914229Y-90176752D01*
X81914975Y-90184642D01*
X81918390Y-90220766D01*
X81918949Y-90232626D01*
X81918948Y-90323777D01*
X81918947Y-90323793D01*
X81918945Y-90323802D01*
X81918945Y-90344056D01*
X81917394Y-90363766D01*
X81914225Y-90383775D01*
X81914971Y-90391667D01*
X81918386Y-90427793D01*
X81918945Y-90439651D01*
X81918945Y-95126737D01*
X81898943Y-95194858D01*
X81845287Y-95241351D01*
X81775013Y-95251455D01*
X81750888Y-95245511D01*
X81667264Y-95215898D01*
X81633087Y-95203795D01*
X81633083Y-95203794D01*
X81628212Y-95202069D01*
X81623119Y-95201162D01*
X81623116Y-95201161D01*
X81413373Y-95163800D01*
X81413367Y-95163799D01*
X81408284Y-95162894D01*
X81334452Y-95161992D01*
X81190081Y-95160228D01*
X81190079Y-95160228D01*
X81184911Y-95160165D01*
X80964091Y-95193955D01*
X80751756Y-95263357D01*
X80704896Y-95287751D01*
X80576978Y-95354341D01*
X80553607Y-95366507D01*
X80549474Y-95369610D01*
X80549471Y-95369612D01*
X80472666Y-95427279D01*
X80374965Y-95500635D01*
X80220629Y-95662138D01*
X80113201Y-95819621D01*
X80058293Y-95864621D01*
X79987768Y-95872792D01*
X79924021Y-95841538D01*
X79903324Y-95817054D01*
X79822822Y-95692617D01*
X79822820Y-95692614D01*
X79820014Y-95688277D01*
X79669670Y-95523051D01*
X79665619Y-95519852D01*
X79665615Y-95519848D01*
X79498414Y-95387800D01*
X79498410Y-95387798D01*
X79494359Y-95384598D01*
X79468216Y-95370166D01*
X79439548Y-95354341D01*
X79298789Y-95276638D01*
X79293920Y-95274914D01*
X79293916Y-95274912D01*
X79093087Y-95203795D01*
X79093083Y-95203794D01*
X79088212Y-95202069D01*
X79083119Y-95201162D01*
X79083116Y-95201161D01*
X78873373Y-95163800D01*
X78873367Y-95163799D01*
X78868284Y-95162894D01*
X78794452Y-95161992D01*
X78650081Y-95160228D01*
X78650079Y-95160228D01*
X78644911Y-95160165D01*
X78424091Y-95193955D01*
X78211756Y-95263357D01*
X78164896Y-95287751D01*
X78036978Y-95354341D01*
X78013607Y-95366507D01*
X78009474Y-95369610D01*
X78009471Y-95369612D01*
X77932666Y-95427279D01*
X77834965Y-95500635D01*
X77680629Y-95662138D01*
X77677720Y-95666403D01*
X77677714Y-95666411D01*
X77595048Y-95787595D01*
X77554743Y-95846680D01*
X77460688Y-96049305D01*
X77400989Y-96264570D01*
X77377251Y-96486695D01*
X77377548Y-96491848D01*
X77377548Y-96491851D01*
X77385286Y-96626045D01*
X77390110Y-96709715D01*
X77391247Y-96714761D01*
X77391248Y-96714767D01*
X77411492Y-96804595D01*
X77439222Y-96927639D01*
X77471574Y-97007312D01*
X77510751Y-97103794D01*
X77523266Y-97134616D01*
X77564402Y-97201744D01*
X77637291Y-97320688D01*
X77639987Y-97325088D01*
X77786250Y-97493938D01*
X77958126Y-97636632D01*
X78007136Y-97665271D01*
X78031445Y-97679476D01*
X78080169Y-97731114D01*
X78093240Y-97800897D01*
X78066509Y-97866669D01*
X78026055Y-97900027D01*
X78013607Y-97906507D01*
X78009474Y-97909610D01*
X78009471Y-97909612D01*
X77839100Y-98037530D01*
X77834965Y-98040635D01*
X77680629Y-98202138D01*
X77677720Y-98206403D01*
X77677714Y-98206411D01*
X77635173Y-98268774D01*
X77554743Y-98386680D01*
X77507716Y-98487992D01*
X77470019Y-98569204D01*
X77460688Y-98589305D01*
X77400989Y-98804570D01*
X77377251Y-99026695D01*
X77377548Y-99031848D01*
X77377548Y-99031851D01*
X77389812Y-99244547D01*
X77390110Y-99249715D01*
X77391247Y-99254761D01*
X77391248Y-99254767D01*
X77413392Y-99353023D01*
X77439222Y-99467639D01*
X77491929Y-99597441D01*
X77519812Y-99666109D01*
X77523266Y-99674616D01*
X77574019Y-99757438D01*
X77637291Y-99860688D01*
X77639987Y-99865088D01*
X77786250Y-100033938D01*
X77958126Y-100176632D01*
X78028595Y-100217811D01*
X78031445Y-100219476D01*
X78080169Y-100271114D01*
X78093240Y-100340897D01*
X78066509Y-100406669D01*
X78026055Y-100440027D01*
X78013607Y-100446507D01*
X78009474Y-100449610D01*
X78009471Y-100449612D01*
X77899570Y-100532128D01*
X77834965Y-100580635D01*
X77680629Y-100742138D01*
X77677720Y-100746403D01*
X77677714Y-100746411D01*
X77595795Y-100866500D01*
X77554743Y-100926680D01*
X77539003Y-100960590D01*
X77476535Y-101095166D01*
X77460688Y-101129305D01*
X77400989Y-101344570D01*
X77377251Y-101566695D01*
X77377548Y-101571848D01*
X77377548Y-101571851D01*
X77389640Y-101781565D01*
X77390110Y-101789715D01*
X77391247Y-101794761D01*
X77391248Y-101794767D01*
X77406157Y-101860921D01*
X77439222Y-102007639D01*
X77523266Y-102214616D01*
X77555921Y-102267904D01*
X77636229Y-102398955D01*
X77639987Y-102405088D01*
X77786250Y-102573938D01*
X77958126Y-102716632D01*
X78025883Y-102756226D01*
X78031445Y-102759476D01*
X78080169Y-102811114D01*
X78093240Y-102880897D01*
X78066509Y-102946669D01*
X78026055Y-102980027D01*
X78013607Y-102986507D01*
X78009474Y-102989610D01*
X78009471Y-102989612D01*
X77977389Y-103013700D01*
X77834965Y-103120635D01*
X77680629Y-103282138D01*
X77554743Y-103466680D01*
X77460688Y-103669305D01*
X77400989Y-103884570D01*
X77377251Y-104106695D01*
X76508000Y-104106695D01*
X76508000Y-86326695D01*
X77377251Y-86326695D01*
X77377548Y-86331848D01*
X77377548Y-86331851D01*
X77389812Y-86544547D01*
X77390110Y-86549715D01*
X77391247Y-86554761D01*
X77391248Y-86554767D01*
X77415304Y-86661508D01*
X77439222Y-86767639D01*
X77478236Y-86863720D01*
X77519508Y-86965360D01*
X77523266Y-86974616D01*
X77525965Y-86979020D01*
X77630929Y-87150306D01*
X77639987Y-87165088D01*
X77786250Y-87333938D01*
X77958126Y-87476632D01*
X78151000Y-87589338D01*
X78155825Y-87591180D01*
X78155826Y-87591181D01*
X78223253Y-87616929D01*
X78359692Y-87669030D01*
X78364760Y-87670061D01*
X78364763Y-87670062D01*
X78457837Y-87688998D01*
X78578597Y-87713567D01*
X78583772Y-87713757D01*
X78583774Y-87713757D01*
X78796673Y-87721564D01*
X78796677Y-87721564D01*
X78801837Y-87721753D01*
X78806957Y-87721097D01*
X78806959Y-87721097D01*
X79018288Y-87694025D01*
X79018289Y-87694025D01*
X79023416Y-87693368D01*
X79037982Y-87688998D01*
X79232429Y-87630661D01*
X79232434Y-87630659D01*
X79237384Y-87629174D01*
X79437994Y-87530896D01*
X79619860Y-87401173D01*
X79728091Y-87293319D01*
X79790462Y-87259404D01*
X79861268Y-87264592D01*
X79918030Y-87307238D01*
X79935012Y-87338341D01*
X79973283Y-87440428D01*
X79979385Y-87456705D01*
X80066739Y-87573261D01*
X80183295Y-87660615D01*
X80319684Y-87711745D01*
X80381866Y-87718500D01*
X82178134Y-87718500D01*
X82240316Y-87711745D01*
X82376705Y-87660615D01*
X82493261Y-87573261D01*
X82580615Y-87456705D01*
X82631745Y-87320316D01*
X82638500Y-87258134D01*
X82638500Y-85461866D01*
X82631745Y-85399684D01*
X82580615Y-85263295D01*
X82493261Y-85146739D01*
X82376705Y-85059385D01*
X82257687Y-85014767D01*
X82200923Y-84972125D01*
X82176223Y-84905564D01*
X82191430Y-84836215D01*
X82212977Y-84807535D01*
X82314052Y-84706812D01*
X82320730Y-84698965D01*
X82445003Y-84526020D01*
X82450313Y-84517183D01*
X82544670Y-84326267D01*
X82548469Y-84316672D01*
X82610377Y-84112910D01*
X82612555Y-84102837D01*
X82613986Y-84091962D01*
X82611775Y-84077778D01*
X82598617Y-84074000D01*
X77423225Y-84074000D01*
X77409694Y-84077973D01*
X77408257Y-84087966D01*
X77438565Y-84222446D01*
X77441645Y-84232275D01*
X77521770Y-84429603D01*
X77526413Y-84438794D01*
X77637694Y-84620388D01*
X77643777Y-84628699D01*
X77783213Y-84789667D01*
X77790580Y-84796883D01*
X77954434Y-84932916D01*
X77962881Y-84938831D01*
X78031969Y-84979203D01*
X78080693Y-85030842D01*
X78093764Y-85100625D01*
X78067033Y-85166396D01*
X78026584Y-85199752D01*
X78013607Y-85206507D01*
X78009474Y-85209610D01*
X78009471Y-85209612D01*
X77839100Y-85337530D01*
X77834965Y-85340635D01*
X77809773Y-85366997D01*
X77687013Y-85495458D01*
X77680629Y-85502138D01*
X77677715Y-85506410D01*
X77677714Y-85506411D01*
X77658534Y-85534528D01*
X77554743Y-85686680D01*
X77552564Y-85691375D01*
X77465086Y-85879831D01*
X77460688Y-85889305D01*
X77400989Y-86104570D01*
X77377251Y-86326695D01*
X76508000Y-86326695D01*
X76508000Y-81246695D01*
X77377251Y-81246695D01*
X77377548Y-81251848D01*
X77377548Y-81251851D01*
X77383011Y-81346590D01*
X77390110Y-81469715D01*
X77391247Y-81474761D01*
X77391248Y-81474767D01*
X77411119Y-81562939D01*
X77439222Y-81687639D01*
X77523266Y-81894616D01*
X77574019Y-81977438D01*
X77637291Y-82080688D01*
X77639987Y-82085088D01*
X77786250Y-82253938D01*
X77958126Y-82396632D01*
X78031955Y-82439774D01*
X78080679Y-82491412D01*
X78093750Y-82561195D01*
X78067019Y-82626967D01*
X78026562Y-82660327D01*
X78018457Y-82664546D01*
X78009738Y-82670036D01*
X77839433Y-82797905D01*
X77831726Y-82804748D01*
X77684590Y-82958717D01*
X77678104Y-82966727D01*
X77558098Y-83142649D01*
X77553000Y-83151623D01*
X77463338Y-83344783D01*
X77459775Y-83354470D01*
X77404389Y-83554183D01*
X77405912Y-83562607D01*
X77418292Y-83566000D01*
X82598344Y-83566000D01*
X82611875Y-83562027D01*
X82613180Y-83552947D01*
X82571214Y-83385875D01*
X82567894Y-83376124D01*
X82482972Y-83180814D01*
X82478105Y-83171739D01*
X82362426Y-82992926D01*
X82356136Y-82984757D01*
X82233516Y-82850000D01*
X97836496Y-82850000D01*
X97837186Y-82856565D01*
X97848980Y-82968774D01*
X97856458Y-83039928D01*
X97915473Y-83221556D01*
X98010960Y-83386944D01*
X98138747Y-83528866D01*
X98293248Y-83641118D01*
X98299276Y-83643802D01*
X98299278Y-83643803D01*
X98416978Y-83696206D01*
X98467712Y-83718794D01*
X98561113Y-83738647D01*
X98648056Y-83757128D01*
X98648061Y-83757128D01*
X98654513Y-83758500D01*
X98845487Y-83758500D01*
X98851939Y-83757128D01*
X98851944Y-83757128D01*
X98938887Y-83738647D01*
X99032288Y-83718794D01*
X99083022Y-83696206D01*
X99200722Y-83643803D01*
X99200724Y-83643802D01*
X99206752Y-83641118D01*
X99361253Y-83528866D01*
X99387244Y-83500000D01*
X106836496Y-83500000D01*
X106856458Y-83689928D01*
X106915473Y-83871556D01*
X107010960Y-84036944D01*
X107015378Y-84041851D01*
X107015379Y-84041852D01*
X107056900Y-84087966D01*
X107138747Y-84178866D01*
X107293248Y-84291118D01*
X107299276Y-84293802D01*
X107299278Y-84293803D01*
X107372194Y-84326267D01*
X107467712Y-84368794D01*
X107561113Y-84388647D01*
X107648056Y-84407128D01*
X107648061Y-84407128D01*
X107654513Y-84408500D01*
X107845487Y-84408500D01*
X107851939Y-84407128D01*
X107851944Y-84407128D01*
X107938887Y-84388647D01*
X108032288Y-84368794D01*
X108127806Y-84326267D01*
X108200722Y-84293803D01*
X108200724Y-84293802D01*
X108206752Y-84291118D01*
X108361253Y-84178866D01*
X108443100Y-84087966D01*
X108484621Y-84041852D01*
X108484622Y-84041851D01*
X108489040Y-84036944D01*
X108584527Y-83871556D01*
X108643542Y-83689928D01*
X108663504Y-83500000D01*
X108652137Y-83391852D01*
X108644232Y-83316635D01*
X108644232Y-83316633D01*
X108643542Y-83310072D01*
X108584527Y-83128444D01*
X108489040Y-82963056D01*
X108361253Y-82821134D01*
X108206752Y-82708882D01*
X108200724Y-82706198D01*
X108200722Y-82706197D01*
X108038319Y-82633891D01*
X108038318Y-82633891D01*
X108032288Y-82631206D01*
X107938887Y-82611353D01*
X107851944Y-82592872D01*
X107851939Y-82592872D01*
X107845487Y-82591500D01*
X107654513Y-82591500D01*
X107648061Y-82592872D01*
X107648056Y-82592872D01*
X107561113Y-82611353D01*
X107467712Y-82631206D01*
X107461682Y-82633891D01*
X107461681Y-82633891D01*
X107299278Y-82706197D01*
X107299276Y-82706198D01*
X107293248Y-82708882D01*
X107138747Y-82821134D01*
X107010960Y-82963056D01*
X106915473Y-83128444D01*
X106856458Y-83310072D01*
X106855768Y-83316633D01*
X106855768Y-83316635D01*
X106847863Y-83391852D01*
X106836496Y-83500000D01*
X99387244Y-83500000D01*
X99489040Y-83386944D01*
X99584527Y-83221556D01*
X99643542Y-83039928D01*
X99651021Y-82968774D01*
X99662814Y-82856565D01*
X99663504Y-82850000D01*
X99646501Y-82688222D01*
X99644232Y-82666635D01*
X99644232Y-82666633D01*
X99643542Y-82660072D01*
X99584527Y-82478444D01*
X99567662Y-82449232D01*
X99492341Y-82318774D01*
X99489040Y-82313056D01*
X99361253Y-82171134D01*
X99206752Y-82058882D01*
X99200724Y-82056198D01*
X99200722Y-82056197D01*
X99038319Y-81983891D01*
X99038318Y-81983891D01*
X99032288Y-81981206D01*
X98909677Y-81955144D01*
X98851944Y-81942872D01*
X98851939Y-81942872D01*
X98845487Y-81941500D01*
X98654513Y-81941500D01*
X98648061Y-81942872D01*
X98648056Y-81942872D01*
X98590323Y-81955144D01*
X98467712Y-81981206D01*
X98461682Y-81983891D01*
X98461681Y-81983891D01*
X98299278Y-82056197D01*
X98299276Y-82056198D01*
X98293248Y-82058882D01*
X98138747Y-82171134D01*
X98010960Y-82313056D01*
X98007659Y-82318774D01*
X97932339Y-82449232D01*
X97915473Y-82478444D01*
X97856458Y-82660072D01*
X97855768Y-82666633D01*
X97855768Y-82666635D01*
X97853499Y-82688222D01*
X97836496Y-82850000D01*
X82233516Y-82850000D01*
X82212806Y-82827240D01*
X82205273Y-82820215D01*
X82038139Y-82688222D01*
X82029556Y-82682520D01*
X81992602Y-82662120D01*
X81942631Y-82611687D01*
X81927859Y-82542245D01*
X81952975Y-82475839D01*
X81980327Y-82449232D01*
X82003797Y-82432491D01*
X82159860Y-82321173D01*
X82168006Y-82313056D01*
X82314435Y-82167137D01*
X82318096Y-82163489D01*
X82377594Y-82080689D01*
X82445435Y-81986277D01*
X82448453Y-81982077D01*
X82468508Y-81941500D01*
X82545136Y-81786453D01*
X82545137Y-81786451D01*
X82547430Y-81781811D01*
X82612370Y-81568069D01*
X82641529Y-81346590D01*
X82642729Y-81297470D01*
X82643074Y-81283365D01*
X82643074Y-81283361D01*
X82643156Y-81280000D01*
X82624852Y-81057361D01*
X82570431Y-80840702D01*
X82481354Y-80635840D01*
X82420103Y-80541160D01*
X82362822Y-80452617D01*
X82362820Y-80452614D01*
X82360014Y-80448277D01*
X82209670Y-80283051D01*
X82205619Y-80279852D01*
X82205615Y-80279848D01*
X82038414Y-80147800D01*
X82038410Y-80147798D01*
X82034359Y-80144598D01*
X81993053Y-80121796D01*
X81943084Y-80071364D01*
X81928312Y-80001921D01*
X81953428Y-79935516D01*
X81980780Y-79908909D01*
X82045727Y-79862583D01*
X82159860Y-79781173D01*
X82228510Y-79712763D01*
X82291757Y-79649736D01*
X82318096Y-79623489D01*
X82321157Y-79619230D01*
X82445435Y-79446277D01*
X82448453Y-79442077D01*
X82465199Y-79408195D01*
X82519515Y-79298294D01*
X85662800Y-79298294D01*
X85663490Y-79304859D01*
X85680073Y-79462634D01*
X85682762Y-79488222D01*
X85741777Y-79669850D01*
X85745080Y-79675572D01*
X85745081Y-79675573D01*
X85766553Y-79712763D01*
X85837264Y-79835238D01*
X85841682Y-79840145D01*
X85841683Y-79840146D01*
X85952352Y-79963056D01*
X85965051Y-79977160D01*
X86119552Y-80089412D01*
X86125580Y-80092096D01*
X86125582Y-80092097D01*
X86243502Y-80144598D01*
X86294016Y-80167088D01*
X86372771Y-80183828D01*
X86474360Y-80205422D01*
X86474365Y-80205422D01*
X86480817Y-80206794D01*
X86671791Y-80206794D01*
X86678243Y-80205422D01*
X86678248Y-80205422D01*
X86779837Y-80183828D01*
X86858592Y-80167088D01*
X86864619Y-80164405D01*
X86864627Y-80164402D01*
X86919022Y-80140184D01*
X86989389Y-80130750D01*
X87053686Y-80160857D01*
X87091499Y-80220946D01*
X87090103Y-80294226D01*
X87080958Y-80322371D01*
X87080268Y-80328932D01*
X87080268Y-80328934D01*
X87064013Y-80483598D01*
X87060996Y-80512299D01*
X87061686Y-80518864D01*
X87078976Y-80683365D01*
X87080958Y-80702227D01*
X87139973Y-80883855D01*
X87235460Y-81049243D01*
X87363247Y-81191165D01*
X87432612Y-81241562D01*
X87509563Y-81297470D01*
X87517748Y-81303417D01*
X87523776Y-81306101D01*
X87523778Y-81306102D01*
X87667669Y-81370166D01*
X87692212Y-81381093D01*
X87785612Y-81400946D01*
X87872556Y-81419427D01*
X87872561Y-81419427D01*
X87879013Y-81420799D01*
X88069987Y-81420799D01*
X88076439Y-81419427D01*
X88076444Y-81419427D01*
X88163388Y-81400946D01*
X88256788Y-81381093D01*
X88281331Y-81370166D01*
X88425222Y-81306102D01*
X88425224Y-81306101D01*
X88431252Y-81303417D01*
X88436593Y-81299536D01*
X88442311Y-81296235D01*
X88443024Y-81297470D01*
X88502836Y-81276124D01*
X88568481Y-81291718D01*
X88568748Y-81291118D01*
X88574783Y-81293805D01*
X88693341Y-81346590D01*
X88743212Y-81368794D01*
X88807529Y-81382465D01*
X88923556Y-81407128D01*
X88923561Y-81407128D01*
X88930013Y-81408500D01*
X89120987Y-81408500D01*
X89127439Y-81407128D01*
X89127444Y-81407128D01*
X89243471Y-81382465D01*
X89307788Y-81368794D01*
X89350207Y-81349908D01*
X89476222Y-81293803D01*
X89476224Y-81293802D01*
X89482252Y-81291118D01*
X89502890Y-81276124D01*
X89614480Y-81195048D01*
X89636753Y-81178866D01*
X89641175Y-81173955D01*
X89760121Y-81041852D01*
X89760122Y-81041851D01*
X89764540Y-81036944D01*
X89860027Y-80871556D01*
X89919042Y-80689928D01*
X89923423Y-80648250D01*
X89938314Y-80506565D01*
X89939004Y-80500000D01*
X89931124Y-80425028D01*
X89919732Y-80316635D01*
X89919732Y-80316633D01*
X89919042Y-80310072D01*
X89860027Y-80128444D01*
X89856190Y-80121797D01*
X89799355Y-80023357D01*
X89764540Y-79963056D01*
X89753788Y-79951114D01*
X89641175Y-79826045D01*
X89641174Y-79826044D01*
X89636753Y-79821134D01*
X89537657Y-79749136D01*
X89487594Y-79712763D01*
X89487593Y-79712762D01*
X89482252Y-79708882D01*
X89476224Y-79706198D01*
X89476222Y-79706197D01*
X89313819Y-79633891D01*
X89313818Y-79633891D01*
X89307788Y-79631206D01*
X89212647Y-79610983D01*
X89127444Y-79592872D01*
X89127439Y-79592872D01*
X89120987Y-79591500D01*
X88930013Y-79591500D01*
X88923561Y-79592872D01*
X88923556Y-79592872D01*
X88838353Y-79610983D01*
X88743212Y-79631206D01*
X88737182Y-79633891D01*
X88737181Y-79633891D01*
X88574778Y-79706197D01*
X88574776Y-79706198D01*
X88568748Y-79708882D01*
X88563407Y-79712763D01*
X88557689Y-79716064D01*
X88556976Y-79714829D01*
X88497164Y-79736175D01*
X88431519Y-79720581D01*
X88431252Y-79721181D01*
X88329576Y-79675912D01*
X88262819Y-79646190D01*
X88262818Y-79646190D01*
X88256788Y-79643505D01*
X88250327Y-79642132D01*
X88250322Y-79642130D01*
X88180382Y-79627263D01*
X88117908Y-79593535D01*
X88083587Y-79531385D01*
X88088315Y-79460546D01*
X88130591Y-79403509D01*
X88180381Y-79380770D01*
X88294587Y-79356495D01*
X88300620Y-79353809D01*
X88463021Y-79281504D01*
X88463023Y-79281503D01*
X88469051Y-79278819D01*
X88623552Y-79166567D01*
X88635152Y-79153684D01*
X88746920Y-79029553D01*
X88746921Y-79029552D01*
X88751339Y-79024645D01*
X88846826Y-78859257D01*
X88905841Y-78677629D01*
X88925803Y-78487701D01*
X88915513Y-78389794D01*
X88906531Y-78304336D01*
X88906531Y-78304334D01*
X88905841Y-78297773D01*
X88846826Y-78116145D01*
X88751339Y-77950757D01*
X88698314Y-77891866D01*
X88627974Y-77813746D01*
X88627973Y-77813745D01*
X88623552Y-77808835D01*
X88524456Y-77736837D01*
X88474393Y-77700464D01*
X88474392Y-77700463D01*
X88469051Y-77696583D01*
X88463023Y-77693899D01*
X88463021Y-77693898D01*
X88300618Y-77621592D01*
X88300617Y-77621592D01*
X88294587Y-77618907D01*
X88201187Y-77599054D01*
X88114243Y-77580573D01*
X88114238Y-77580573D01*
X88107786Y-77579201D01*
X87916812Y-77579201D01*
X87910360Y-77580573D01*
X87910355Y-77580573D01*
X87823411Y-77599054D01*
X87730011Y-77618907D01*
X87723981Y-77621592D01*
X87723980Y-77621592D01*
X87561577Y-77693898D01*
X87561575Y-77693899D01*
X87555547Y-77696583D01*
X87550206Y-77700463D01*
X87550205Y-77700464D01*
X87500142Y-77736837D01*
X87401046Y-77808835D01*
X87396625Y-77813745D01*
X87396624Y-77813746D01*
X87326285Y-77891866D01*
X87273259Y-77950757D01*
X87177772Y-78116145D01*
X87118757Y-78297773D01*
X87115392Y-78329795D01*
X87112029Y-78361790D01*
X87085016Y-78427448D01*
X87026795Y-78468078D01*
X86955850Y-78470781D01*
X86935471Y-78463728D01*
X86864627Y-78432186D01*
X86864619Y-78432183D01*
X86858592Y-78429500D01*
X86765192Y-78409647D01*
X86678248Y-78391166D01*
X86678243Y-78391166D01*
X86671791Y-78389794D01*
X86480817Y-78389794D01*
X86474365Y-78391166D01*
X86474360Y-78391166D01*
X86387416Y-78409647D01*
X86294016Y-78429500D01*
X86287986Y-78432185D01*
X86287985Y-78432185D01*
X86125582Y-78504491D01*
X86125580Y-78504492D01*
X86119552Y-78507176D01*
X86114211Y-78511056D01*
X86114210Y-78511057D01*
X86098430Y-78522522D01*
X85965051Y-78619428D01*
X85960630Y-78624338D01*
X85960629Y-78624339D01*
X85856488Y-78740000D01*
X85837264Y-78761350D01*
X85741777Y-78926738D01*
X85682762Y-79108366D01*
X85682072Y-79114927D01*
X85682072Y-79114929D01*
X85668249Y-79246453D01*
X85662800Y-79298294D01*
X82519515Y-79298294D01*
X82545136Y-79246453D01*
X82545137Y-79246451D01*
X82547430Y-79241811D01*
X82612370Y-79028069D01*
X82641529Y-78806590D01*
X82642495Y-78767068D01*
X82643074Y-78743365D01*
X82643074Y-78743361D01*
X82643156Y-78740000D01*
X82624852Y-78517361D01*
X82570431Y-78300702D01*
X82481354Y-78095840D01*
X82387496Y-77950757D01*
X82362822Y-77912617D01*
X82362820Y-77912614D01*
X82360014Y-77908277D01*
X82209670Y-77743051D01*
X82205619Y-77739852D01*
X82205615Y-77739848D01*
X82038414Y-77607800D01*
X82038410Y-77607798D01*
X82034359Y-77604598D01*
X81993053Y-77581796D01*
X81943084Y-77531364D01*
X81928312Y-77461921D01*
X81953428Y-77395516D01*
X81980780Y-77368909D01*
X82024603Y-77337650D01*
X82159860Y-77241173D01*
X82318096Y-77083489D01*
X82377594Y-77000689D01*
X82445435Y-76906277D01*
X82448453Y-76902077D01*
X82463450Y-76871734D01*
X82545136Y-76706453D01*
X82545137Y-76706451D01*
X82547430Y-76701811D01*
X82612370Y-76488069D01*
X82641529Y-76266590D01*
X82643156Y-76200000D01*
X82624852Y-75977361D01*
X82570431Y-75760702D01*
X82481354Y-75555840D01*
X82445229Y-75500000D01*
X95336496Y-75500000D01*
X95356458Y-75689928D01*
X95415473Y-75871556D01*
X95418776Y-75877278D01*
X95418777Y-75877279D01*
X95439062Y-75912414D01*
X95510960Y-76036944D01*
X95515378Y-76041851D01*
X95515379Y-76041852D01*
X95623166Y-76161562D01*
X95638747Y-76178866D01*
X95793248Y-76291118D01*
X95799276Y-76293802D01*
X95799278Y-76293803D01*
X95804561Y-76296155D01*
X95967712Y-76368794D01*
X96041824Y-76384547D01*
X96148056Y-76407128D01*
X96148061Y-76407128D01*
X96154513Y-76408500D01*
X96345487Y-76408500D01*
X96351939Y-76407128D01*
X96351944Y-76407128D01*
X96458176Y-76384547D01*
X96532288Y-76368794D01*
X96695439Y-76296155D01*
X96700722Y-76293803D01*
X96700724Y-76293802D01*
X96706752Y-76291118D01*
X96861253Y-76178866D01*
X96876834Y-76161562D01*
X96984621Y-76041852D01*
X96984622Y-76041851D01*
X96989040Y-76036944D01*
X97060938Y-75912414D01*
X97081223Y-75877279D01*
X97081224Y-75877278D01*
X97084527Y-75871556D01*
X97143542Y-75689928D01*
X97163504Y-75500000D01*
X97149258Y-75364457D01*
X97144232Y-75316635D01*
X97144232Y-75316633D01*
X97143542Y-75310072D01*
X97084527Y-75128444D01*
X97077806Y-75116802D01*
X97047314Y-75063990D01*
X96989040Y-74963056D01*
X96897827Y-74861753D01*
X96865675Y-74826045D01*
X96865674Y-74826044D01*
X96861253Y-74821134D01*
X96731319Y-74726731D01*
X96712094Y-74712763D01*
X96712093Y-74712762D01*
X96706752Y-74708882D01*
X96700724Y-74706198D01*
X96700722Y-74706197D01*
X96538319Y-74633891D01*
X96538318Y-74633891D01*
X96532288Y-74631206D01*
X96438887Y-74611353D01*
X96351944Y-74592872D01*
X96351939Y-74592872D01*
X96345487Y-74591500D01*
X96154513Y-74591500D01*
X96148061Y-74592872D01*
X96148056Y-74592872D01*
X96061113Y-74611353D01*
X95967712Y-74631206D01*
X95961682Y-74633891D01*
X95961681Y-74633891D01*
X95799278Y-74706197D01*
X95799276Y-74706198D01*
X95793248Y-74708882D01*
X95787907Y-74712762D01*
X95787906Y-74712763D01*
X95768681Y-74726731D01*
X95638747Y-74821134D01*
X95634326Y-74826044D01*
X95634325Y-74826045D01*
X95602174Y-74861753D01*
X95510960Y-74963056D01*
X95452686Y-75063990D01*
X95422195Y-75116802D01*
X95415473Y-75128444D01*
X95356458Y-75310072D01*
X95355768Y-75316633D01*
X95355768Y-75316635D01*
X95350742Y-75364457D01*
X95336496Y-75500000D01*
X82445229Y-75500000D01*
X82360014Y-75368277D01*
X82209670Y-75203051D01*
X82205619Y-75199852D01*
X82205615Y-75199848D01*
X82038414Y-75067800D01*
X82038410Y-75067798D01*
X82034359Y-75064598D01*
X81993053Y-75041796D01*
X81943084Y-74991364D01*
X81928312Y-74921921D01*
X81953428Y-74855516D01*
X81980780Y-74828909D01*
X82027998Y-74795229D01*
X82159860Y-74701173D01*
X82188917Y-74672218D01*
X82244697Y-74616632D01*
X82318096Y-74543489D01*
X82365701Y-74477240D01*
X82445435Y-74366277D01*
X82448453Y-74362077D01*
X82469320Y-74319857D01*
X82545136Y-74166453D01*
X82545137Y-74166451D01*
X82547430Y-74161811D01*
X82612370Y-73948069D01*
X82641529Y-73726590D01*
X82643156Y-73660000D01*
X82624852Y-73437361D01*
X82570431Y-73220702D01*
X82481354Y-73015840D01*
X82380918Y-72860590D01*
X82362822Y-72832617D01*
X82362820Y-72832614D01*
X82360014Y-72828277D01*
X82209670Y-72663051D01*
X82205619Y-72659852D01*
X82205615Y-72659848D01*
X82038414Y-72527800D01*
X82038410Y-72527798D01*
X82034359Y-72524598D01*
X81838789Y-72416638D01*
X81833920Y-72414914D01*
X81833916Y-72414912D01*
X81633087Y-72343795D01*
X81633083Y-72343794D01*
X81628212Y-72342069D01*
X81623119Y-72341162D01*
X81623116Y-72341161D01*
X81413373Y-72303800D01*
X81413367Y-72303799D01*
X81408284Y-72302894D01*
X81334452Y-72301992D01*
X81190081Y-72300228D01*
X81190079Y-72300228D01*
X81184911Y-72300165D01*
X80964091Y-72333955D01*
X80751756Y-72403357D01*
X80721443Y-72419137D01*
X80603307Y-72480635D01*
X80553607Y-72506507D01*
X80549474Y-72509610D01*
X80549471Y-72509612D01*
X80379100Y-72637530D01*
X80374965Y-72640635D01*
X80220629Y-72802138D01*
X80113201Y-72959621D01*
X80058293Y-73004621D01*
X79987768Y-73012792D01*
X79924021Y-72981538D01*
X79903324Y-72957054D01*
X79822822Y-72832617D01*
X79822820Y-72832614D01*
X79820014Y-72828277D01*
X79669670Y-72663051D01*
X79665619Y-72659852D01*
X79665615Y-72659848D01*
X79498414Y-72527800D01*
X79498410Y-72527798D01*
X79494359Y-72524598D01*
X79298789Y-72416638D01*
X79293920Y-72414914D01*
X79293916Y-72414912D01*
X79093087Y-72343795D01*
X79093083Y-72343794D01*
X79088212Y-72342069D01*
X79083119Y-72341162D01*
X79083116Y-72341161D01*
X78873373Y-72303800D01*
X78873367Y-72303799D01*
X78868284Y-72302894D01*
X78794452Y-72301992D01*
X78650081Y-72300228D01*
X78650079Y-72300228D01*
X78644911Y-72300165D01*
X78424091Y-72333955D01*
X78211756Y-72403357D01*
X78181443Y-72419137D01*
X78063307Y-72480635D01*
X78013607Y-72506507D01*
X78009474Y-72509610D01*
X78009471Y-72509612D01*
X77839100Y-72637530D01*
X77834965Y-72640635D01*
X77680629Y-72802138D01*
X77554743Y-72986680D01*
X77518054Y-73065720D01*
X77470017Y-73169208D01*
X77460688Y-73189305D01*
X77400989Y-73404570D01*
X77377251Y-73626695D01*
X77377548Y-73631848D01*
X77377548Y-73631851D01*
X77386841Y-73793023D01*
X77390110Y-73849715D01*
X77391247Y-73854761D01*
X77391248Y-73854767D01*
X77411119Y-73942939D01*
X77439222Y-74067639D01*
X77495517Y-74206277D01*
X77515499Y-74255487D01*
X77523266Y-74274616D01*
X77574019Y-74357438D01*
X77637291Y-74460688D01*
X77639987Y-74465088D01*
X77786250Y-74633938D01*
X77958126Y-74776632D01*
X78013569Y-74809030D01*
X78031445Y-74819476D01*
X78080169Y-74871114D01*
X78093240Y-74940897D01*
X78066509Y-75006669D01*
X78026055Y-75040027D01*
X78013607Y-75046507D01*
X78009474Y-75049610D01*
X78009471Y-75049612D01*
X77896106Y-75134729D01*
X77834965Y-75180635D01*
X77831393Y-75184373D01*
X77714620Y-75306569D01*
X77680629Y-75342138D01*
X77554743Y-75526680D01*
X77516208Y-75609697D01*
X77463105Y-75724099D01*
X77460688Y-75729305D01*
X77400989Y-75944570D01*
X77377251Y-76166695D01*
X77377548Y-76171848D01*
X77377548Y-76171851D01*
X77388749Y-76366109D01*
X77390110Y-76389715D01*
X77391247Y-76394761D01*
X77391248Y-76394767D01*
X77408869Y-76472956D01*
X77439222Y-76607639D01*
X77523266Y-76814616D01*
X77561525Y-76877049D01*
X77637291Y-77000688D01*
X77639987Y-77005088D01*
X77786250Y-77173938D01*
X77862846Y-77237529D01*
X77946615Y-77307075D01*
X77958126Y-77316632D01*
X78028595Y-77357811D01*
X78031445Y-77359476D01*
X78080169Y-77411114D01*
X78093240Y-77480897D01*
X78066509Y-77546669D01*
X78026055Y-77580027D01*
X78013607Y-77586507D01*
X78009474Y-77589610D01*
X78009471Y-77589612D01*
X77839100Y-77717530D01*
X77834965Y-77720635D01*
X77680629Y-77882138D01*
X77554743Y-78066680D01*
X77539003Y-78100590D01*
X77466389Y-78257024D01*
X77460688Y-78269305D01*
X77400989Y-78484570D01*
X77377251Y-78706695D01*
X77377548Y-78711848D01*
X77377548Y-78711851D01*
X77383011Y-78806590D01*
X77390110Y-78929715D01*
X77391247Y-78934761D01*
X77391248Y-78934767D01*
X77410215Y-79018927D01*
X77439222Y-79147639D01*
X77476744Y-79240045D01*
X77510131Y-79322267D01*
X77523266Y-79354616D01*
X77560420Y-79415246D01*
X77637291Y-79540688D01*
X77639987Y-79545088D01*
X77786250Y-79713938D01*
X77958126Y-79856632D01*
X77968310Y-79862583D01*
X78031445Y-79899476D01*
X78080169Y-79951114D01*
X78093240Y-80020897D01*
X78066509Y-80086669D01*
X78026055Y-80120027D01*
X78013607Y-80126507D01*
X78009474Y-80129610D01*
X78009471Y-80129612D01*
X77839100Y-80257530D01*
X77834965Y-80260635D01*
X77680629Y-80422138D01*
X77554743Y-80606680D01*
X77532802Y-80653949D01*
X77472642Y-80783553D01*
X77460688Y-80809305D01*
X77400989Y-81024570D01*
X77377251Y-81246695D01*
X76508000Y-81246695D01*
X76508000Y-72134000D01*
X76528002Y-72065879D01*
X76581658Y-72019386D01*
X76634000Y-72008000D01*
X87755441Y-72008000D01*
X87823562Y-72028002D01*
G37*
G04 #@! TD.AperFunction*
M02*
