G04 #@! TF.GenerationSoftware,KiCad,Pcbnew,(6.0.0-0)*
G04 #@! TF.CreationDate,2022-07-07T12:10:55+02:00*
G04 #@! TF.ProjectId,core-v-mini-mcu-spiboot-fpga,636f7265-2d76-42d6-9d69-6e692d6d6375,rev?*
G04 #@! TF.SameCoordinates,Original*
G04 #@! TF.FileFunction,Copper,L3,Inr*
G04 #@! TF.FilePolarity,Positive*
%FSLAX46Y46*%
G04 Gerber Fmt 4.6, Leading zero omitted, Abs format (unit mm)*
G04 Created by KiCad (PCBNEW (6.0.0-0)) date 2022-07-07 12:10:55*
%MOMM*%
%LPD*%
G01*
G04 APERTURE LIST*
G04 Aperture macros list*
%AMHorizOval*
0 Thick line with rounded ends*
0 $1 width*
0 $2 $3 position (X,Y) of the first rounded end (center of the circle)*
0 $4 $5 position (X,Y) of the second rounded end (center of the circle)*
0 Add line between two ends*
20,1,$1,$2,$3,$4,$5,0*
0 Add two circle primitives to create the rounded ends*
1,1,$1,$2,$3*
1,1,$1,$4,$5*%
G04 Aperture macros list end*
G04 #@! TA.AperFunction,ComponentPad*
%ADD10R,1.700000X1.700000*%
G04 #@! TD*
G04 #@! TA.AperFunction,ComponentPad*
%ADD11O,1.700000X1.700000*%
G04 #@! TD*
G04 #@! TA.AperFunction,ComponentPad*
%ADD12HorizOval,1.200000X-0.247487X-0.247487X0.247487X0.247487X0*%
G04 #@! TD*
G04 #@! TA.AperFunction,ComponentPad*
%ADD13HorizOval,1.200000X0.247487X0.247487X-0.247487X-0.247487X0*%
G04 #@! TD*
G04 #@! TA.AperFunction,ComponentPad*
%ADD14C,1.450000*%
G04 #@! TD*
G04 #@! TA.AperFunction,ComponentPad*
%ADD15C,1.000000*%
G04 #@! TD*
G04 #@! TA.AperFunction,ViaPad*
%ADD16C,0.800000*%
G04 #@! TD*
G04 #@! TA.AperFunction,ViaPad*
%ADD17C,0.600000*%
G04 #@! TD*
G04 #@! TA.AperFunction,Conductor*
%ADD18C,0.250000*%
G04 #@! TD*
G04 APERTURE END LIST*
D10*
X108712000Y-106648000D03*
D11*
X108712000Y-109188000D03*
X106172000Y-106648000D03*
X106172000Y-109188000D03*
X103632000Y-106648000D03*
X103632000Y-109188000D03*
X101092000Y-106648000D03*
X101092000Y-109188000D03*
X98552000Y-106648000D03*
X98552000Y-109188000D03*
X96012000Y-106648000D03*
X96012000Y-109188000D03*
X93472000Y-106648000D03*
X93472000Y-109188000D03*
X90932000Y-106648000D03*
X90932000Y-109188000D03*
X88392000Y-106648000D03*
X88392000Y-109188000D03*
X85852000Y-106648000D03*
X85852000Y-109188000D03*
D10*
X88975000Y-73500000D03*
D11*
X91515000Y-73500000D03*
D10*
X81280000Y-109220000D03*
D11*
X78740000Y-109220000D03*
X81280000Y-106680000D03*
X78740000Y-106680000D03*
X81280000Y-104140000D03*
X78740000Y-104140000D03*
X81280000Y-101600000D03*
X78740000Y-101600000D03*
X81280000Y-99060000D03*
X78740000Y-99060000D03*
X81280000Y-96520000D03*
X78740000Y-96520000D03*
D12*
X111078217Y-79425514D03*
D13*
X106128470Y-74475767D03*
D14*
X108461922Y-80627596D03*
X104926388Y-77092062D03*
D10*
X81280000Y-86360000D03*
D11*
X78740000Y-86360000D03*
X81280000Y-83820000D03*
X78740000Y-83820000D03*
X81280000Y-81280000D03*
X78740000Y-81280000D03*
X81280000Y-78740000D03*
X78740000Y-78740000D03*
X81280000Y-76200000D03*
X78740000Y-76200000D03*
X81280000Y-73660000D03*
X78740000Y-73660000D03*
D15*
X101500000Y-89000000D03*
X102702082Y-87797918D03*
D16*
X86775000Y-95050000D03*
X91925000Y-100225000D03*
X98850000Y-92100000D03*
X93025000Y-98800000D03*
X92425000Y-96100000D03*
X113250000Y-92500000D03*
X92250000Y-92750000D03*
X92650000Y-82475000D03*
X97040559Y-100109441D03*
X98502752Y-95208873D03*
X92475000Y-104850000D03*
X88725000Y-84850000D03*
X94646751Y-101396751D03*
X103500000Y-97750000D03*
X110000000Y-88250000D03*
X104500000Y-79000000D03*
X83500000Y-81000000D03*
X101050000Y-91750000D03*
X100750000Y-86250000D03*
X100000000Y-99800000D03*
X96250000Y-75500000D03*
X113500000Y-94500000D03*
X88263129Y-98000000D03*
X97425000Y-97300000D03*
X109250000Y-89250000D03*
X89300000Y-102225000D03*
X91486715Y-86185834D03*
X107750000Y-83500000D03*
X106225000Y-101775000D03*
X109125000Y-99625000D03*
X98750000Y-82850000D03*
X105225000Y-91925000D03*
X96225000Y-101725000D03*
X90275990Y-86787318D03*
X89157665Y-86711553D03*
X88355565Y-87219677D03*
X88890833Y-88060554D03*
X85524500Y-91609356D03*
X85610261Y-90663734D03*
X91675999Y-98538277D03*
D17*
X94350000Y-97375000D03*
D16*
X94400989Y-87543306D03*
X82834098Y-98287215D03*
X93565654Y-87045211D03*
X92619949Y-86960378D03*
X94400990Y-86593804D03*
X87974500Y-80512299D03*
X88816860Y-89123668D03*
X87606233Y-88819933D03*
X89025500Y-80500000D03*
X87386997Y-89795095D03*
X86576304Y-79298294D03*
X88012299Y-78487701D03*
X86487947Y-92283856D03*
X109912722Y-94829448D03*
D17*
X99050000Y-93200000D03*
D16*
X86506531Y-90268156D03*
D17*
X98677436Y-93889903D03*
D16*
X108644199Y-95727473D03*
D17*
X98074951Y-94474951D03*
D16*
X106250000Y-97750000D03*
D18*
X87699511Y-88006319D02*
X87699511Y-87517513D01*
X87681064Y-86940288D02*
X87694431Y-86926921D01*
X88330734Y-88519834D02*
X87906332Y-88095432D01*
X87694431Y-86926921D02*
X87694431Y-86879093D01*
X87974500Y-86599024D02*
X87974500Y-80512299D01*
X87699511Y-87517513D02*
X87681064Y-87499066D01*
X87681064Y-87499066D02*
X87681064Y-86940288D01*
X87694431Y-86879093D02*
X87974500Y-86599024D01*
X88330734Y-88637542D02*
X88330734Y-88519834D01*
X87906332Y-88095432D02*
X87788624Y-88095432D01*
X88816860Y-89123668D02*
X88330734Y-88637542D01*
X87788624Y-88095432D02*
X87699511Y-88006319D01*
X85585742Y-90639215D02*
X85610261Y-90663734D01*
X85585742Y-79264258D02*
X85585742Y-90639215D01*
X90090489Y-74924511D02*
X89925489Y-74924511D01*
X89925489Y-74924511D02*
X85585742Y-79264258D01*
X91515000Y-73500000D02*
X90090489Y-74924511D01*
X87250000Y-86687820D02*
X87244920Y-86692900D01*
X87244921Y-87665485D02*
X87245101Y-87665665D01*
X88900000Y-80413199D02*
X88136801Y-79650000D01*
X87250000Y-80050000D02*
X87250000Y-86687820D01*
X87650000Y-79650000D02*
X87250000Y-80050000D01*
X87250000Y-87670720D02*
X87250000Y-88463700D01*
X87245101Y-87665821D02*
X87250000Y-87670720D01*
X87250000Y-88463700D02*
X87606233Y-88819933D01*
X88900000Y-80500000D02*
X88900000Y-80413199D01*
X87245101Y-87665665D02*
X87245101Y-87665821D01*
X87244920Y-86692900D02*
X87244921Y-87665485D01*
X88136801Y-79650000D02*
X87650000Y-79650000D01*
X89025500Y-80500000D02*
X88900000Y-80500000D01*
X86502928Y-79371670D02*
X86502928Y-88911026D01*
X86576304Y-79298294D02*
X86502928Y-79371670D01*
X86502928Y-88911026D02*
X87386997Y-89795095D01*
X78740000Y-81280000D02*
X80105489Y-82645489D01*
X81766499Y-82645489D02*
X82454511Y-83333501D01*
X80105489Y-82645489D02*
X81766499Y-82645489D01*
X82454511Y-83333501D02*
X82454511Y-89654511D01*
X82454511Y-89654511D02*
X85083856Y-92283856D01*
X85083856Y-92283856D02*
X86487947Y-92283856D01*
G04 #@! TA.AperFunction,Conductor*
G36*
X91722232Y-87276000D02*
G01*
X91778052Y-87319870D01*
X91785061Y-87332143D01*
X91785422Y-87331934D01*
X91880909Y-87497322D01*
X92008696Y-87639244D01*
X92031913Y-87656112D01*
X92138062Y-87733234D01*
X92163197Y-87751496D01*
X92169225Y-87754180D01*
X92169227Y-87754181D01*
X92331630Y-87826487D01*
X92337661Y-87829172D01*
X92455436Y-87854206D01*
X92518006Y-87867506D01*
X92518009Y-87867506D01*
X92524462Y-87868878D01*
X92531064Y-87868878D01*
X92534071Y-87869194D01*
X92599728Y-87896206D01*
X92609739Y-87905152D01*
X94155111Y-89441769D01*
X94157697Y-89444418D01*
X94716738Y-90034452D01*
X95747238Y-91122085D01*
X95752569Y-91128083D01*
X95966441Y-91384729D01*
X96000000Y-91425000D01*
X96011681Y-91413203D01*
X96011683Y-91413202D01*
X97963806Y-89441750D01*
X98436282Y-88964597D01*
X98498425Y-88930265D01*
X98569264Y-88934981D01*
X98614533Y-88963781D01*
X99311503Y-89654894D01*
X99576306Y-89917471D01*
X100507258Y-90840600D01*
X100541545Y-90902768D01*
X100536779Y-90973605D01*
X100492602Y-91032006D01*
X100438747Y-91071134D01*
X100434326Y-91076044D01*
X100434325Y-91076045D01*
X100392871Y-91122085D01*
X100310960Y-91213056D01*
X100215473Y-91378444D01*
X100156458Y-91560072D01*
X100136496Y-91750000D01*
X100156458Y-91939928D01*
X100215473Y-92121556D01*
X100310960Y-92286944D01*
X100438747Y-92428866D01*
X100493611Y-92468727D01*
X100591155Y-92539598D01*
X100634509Y-92595821D01*
X100640584Y-92666557D01*
X100606773Y-92730042D01*
X100077586Y-93266229D01*
X100015499Y-93300663D01*
X99944651Y-93296063D01*
X99887537Y-93253891D01*
X99862692Y-93191766D01*
X99862605Y-93190984D01*
X99843397Y-93019745D01*
X99841080Y-93013091D01*
X99786064Y-92855106D01*
X99786062Y-92855103D01*
X99783745Y-92848448D01*
X99762896Y-92815082D01*
X99691359Y-92700598D01*
X99687626Y-92694624D01*
X99678835Y-92685771D01*
X99564778Y-92570915D01*
X99564774Y-92570912D01*
X99559815Y-92565918D01*
X99550604Y-92560072D01*
X99500538Y-92528300D01*
X99406666Y-92468727D01*
X99377463Y-92458328D01*
X99242425Y-92410243D01*
X99242420Y-92410242D01*
X99235790Y-92407881D01*
X99228802Y-92407048D01*
X99228799Y-92407047D01*
X99105698Y-92392368D01*
X99055680Y-92386404D01*
X99048677Y-92387140D01*
X99048676Y-92387140D01*
X98882288Y-92404628D01*
X98882286Y-92404629D01*
X98875288Y-92405364D01*
X98703579Y-92463818D01*
X98697575Y-92467512D01*
X98555095Y-92555166D01*
X98555092Y-92555168D01*
X98549088Y-92558862D01*
X98544053Y-92563793D01*
X98544050Y-92563795D01*
X98424525Y-92680843D01*
X98419493Y-92685771D01*
X98321235Y-92838238D01*
X98318826Y-92844858D01*
X98318824Y-92844861D01*
X98279210Y-92953699D01*
X98259197Y-93008685D01*
X98250484Y-93077659D01*
X98240845Y-93153956D01*
X98212463Y-93219033D01*
X98187783Y-93240363D01*
X98188075Y-93240737D01*
X98182524Y-93245073D01*
X98176524Y-93248765D01*
X98171492Y-93253692D01*
X98171489Y-93253695D01*
X98051961Y-93370746D01*
X98046929Y-93375674D01*
X97948671Y-93528141D01*
X97946260Y-93534765D01*
X97946259Y-93534767D01*
X97942970Y-93543803D01*
X97915177Y-93620166D01*
X97912948Y-93626289D01*
X97870854Y-93683461D01*
X97835152Y-93702472D01*
X97800404Y-93714301D01*
X97735203Y-93736497D01*
X97735200Y-93736498D01*
X97728530Y-93738769D01*
X97722526Y-93742463D01*
X97580046Y-93830117D01*
X97580043Y-93830119D01*
X97574039Y-93833813D01*
X97569004Y-93838744D01*
X97569001Y-93838746D01*
X97493564Y-93912620D01*
X97444444Y-93960722D01*
X97346186Y-94113189D01*
X97284148Y-94283636D01*
X97261414Y-94463591D01*
X97279114Y-94644111D01*
X97336369Y-94816224D01*
X97430331Y-94971375D01*
X97435220Y-94976438D01*
X97435221Y-94976439D01*
X97555347Y-95100832D01*
X97588279Y-95163728D01*
X97589752Y-95195703D01*
X97589938Y-95195703D01*
X97589938Y-95199751D01*
X97590020Y-95201529D01*
X97589248Y-95208873D01*
X97609210Y-95398801D01*
X97668225Y-95580429D01*
X97671528Y-95586150D01*
X97672747Y-95588888D01*
X97682180Y-95659255D01*
X97647318Y-95728643D01*
X95539520Y-97864322D01*
X94339586Y-99080129D01*
X92140450Y-101308354D01*
X92078363Y-101342788D01*
X92007515Y-101338188D01*
X91960338Y-101307584D01*
X89273560Y-98538277D01*
X90762495Y-98538277D01*
X90782457Y-98728205D01*
X90841472Y-98909833D01*
X90936959Y-99075221D01*
X91064746Y-99217143D01*
X91219247Y-99329395D01*
X91225275Y-99332079D01*
X91225277Y-99332080D01*
X91387680Y-99404386D01*
X91393711Y-99407071D01*
X91487112Y-99426924D01*
X91574055Y-99445405D01*
X91574060Y-99445405D01*
X91580512Y-99446777D01*
X91771486Y-99446777D01*
X91777938Y-99445405D01*
X91777943Y-99445405D01*
X91864886Y-99426924D01*
X91958287Y-99407071D01*
X91964318Y-99404386D01*
X92126721Y-99332080D01*
X92126723Y-99332079D01*
X92132751Y-99329395D01*
X92287252Y-99217143D01*
X92415039Y-99075221D01*
X92510526Y-98909833D01*
X92569541Y-98728205D01*
X92589503Y-98538277D01*
X92569541Y-98348349D01*
X92510526Y-98166721D01*
X92482469Y-98118124D01*
X92427588Y-98023069D01*
X92415039Y-98001333D01*
X92321982Y-97897982D01*
X92291674Y-97864322D01*
X92291673Y-97864321D01*
X92287252Y-97859411D01*
X92132751Y-97747159D01*
X92126723Y-97744475D01*
X92126721Y-97744474D01*
X91964318Y-97672168D01*
X91964317Y-97672168D01*
X91958287Y-97669483D01*
X91864886Y-97649630D01*
X91777943Y-97631149D01*
X91777938Y-97631149D01*
X91771486Y-97629777D01*
X91580512Y-97629777D01*
X91574060Y-97631149D01*
X91574055Y-97631149D01*
X91487112Y-97649630D01*
X91393711Y-97669483D01*
X91387681Y-97672168D01*
X91387680Y-97672168D01*
X91225277Y-97744474D01*
X91225275Y-97744475D01*
X91219247Y-97747159D01*
X91064746Y-97859411D01*
X91060325Y-97864321D01*
X91060324Y-97864322D01*
X91030017Y-97897982D01*
X90936959Y-98001333D01*
X90924410Y-98023069D01*
X90869530Y-98118124D01*
X90841472Y-98166721D01*
X90782457Y-98348349D01*
X90762495Y-98538277D01*
X89273560Y-98538277D01*
X89154064Y-98415110D01*
X89120985Y-98352290D01*
X89124664Y-98288436D01*
X89154629Y-98196214D01*
X89154630Y-98196210D01*
X89156671Y-98189928D01*
X89158489Y-98172637D01*
X89175943Y-98006565D01*
X89176633Y-98000000D01*
X89161449Y-97855528D01*
X89157361Y-97816635D01*
X89157361Y-97816633D01*
X89156671Y-97810072D01*
X89097656Y-97628444D01*
X89002169Y-97463056D01*
X88912655Y-97363640D01*
X93536463Y-97363640D01*
X93554163Y-97544160D01*
X93611418Y-97716273D01*
X93615065Y-97722295D01*
X93615066Y-97722297D01*
X93698105Y-97859411D01*
X93705380Y-97871424D01*
X93831382Y-98001902D01*
X93983159Y-98101222D01*
X93989763Y-98103678D01*
X93989765Y-98103679D01*
X94146558Y-98161990D01*
X94146560Y-98161990D01*
X94153168Y-98164448D01*
X94236995Y-98175633D01*
X94325980Y-98187507D01*
X94325984Y-98187507D01*
X94332961Y-98188438D01*
X94339972Y-98187800D01*
X94339976Y-98187800D01*
X94502524Y-98173006D01*
X94513600Y-98171998D01*
X94520302Y-98169820D01*
X94520304Y-98169820D01*
X94679409Y-98118124D01*
X94679412Y-98118123D01*
X94686108Y-98115947D01*
X94841912Y-98023069D01*
X94973266Y-97897982D01*
X95073643Y-97746902D01*
X95118641Y-97628444D01*
X95135555Y-97583920D01*
X95135556Y-97583918D01*
X95138055Y-97577338D01*
X95139035Y-97570366D01*
X95162748Y-97401639D01*
X95162748Y-97401636D01*
X95163299Y-97397717D01*
X95163616Y-97375000D01*
X95143397Y-97194745D01*
X95141080Y-97188091D01*
X95086064Y-97030106D01*
X95086062Y-97030103D01*
X95083745Y-97023448D01*
X95047916Y-96966109D01*
X94991359Y-96875598D01*
X94987626Y-96869624D01*
X94973941Y-96855843D01*
X94864778Y-96745915D01*
X94864774Y-96745912D01*
X94859815Y-96740918D01*
X94848697Y-96733862D01*
X94800538Y-96703300D01*
X94706666Y-96643727D01*
X94671559Y-96631226D01*
X94542425Y-96585243D01*
X94542420Y-96585242D01*
X94535790Y-96582881D01*
X94528802Y-96582048D01*
X94528799Y-96582047D01*
X94405698Y-96567368D01*
X94355680Y-96561404D01*
X94348677Y-96562140D01*
X94348676Y-96562140D01*
X94182288Y-96579628D01*
X94182286Y-96579629D01*
X94175288Y-96580364D01*
X94003579Y-96638818D01*
X93997575Y-96642512D01*
X93855095Y-96730166D01*
X93855092Y-96730168D01*
X93849088Y-96733862D01*
X93844053Y-96738793D01*
X93844050Y-96738795D01*
X93799166Y-96782749D01*
X93719493Y-96860771D01*
X93621235Y-97013238D01*
X93618826Y-97019858D01*
X93618824Y-97019861D01*
X93561606Y-97177066D01*
X93559197Y-97183685D01*
X93536463Y-97363640D01*
X88912655Y-97363640D01*
X88874382Y-97321134D01*
X88719881Y-97208882D01*
X88713853Y-97206198D01*
X88713851Y-97206197D01*
X88551448Y-97133891D01*
X88551447Y-97133891D01*
X88545417Y-97131206D01*
X88445990Y-97110072D01*
X88365073Y-97092872D01*
X88365068Y-97092872D01*
X88358616Y-97091500D01*
X88167642Y-97091500D01*
X88161190Y-97092872D01*
X88161185Y-97092872D01*
X87988932Y-97129486D01*
X87918141Y-97124084D01*
X87872302Y-97093977D01*
X87869899Y-97091500D01*
X86907947Y-96100000D01*
X91511496Y-96100000D01*
X91531458Y-96289928D01*
X91590473Y-96471556D01*
X91685960Y-96636944D01*
X91690378Y-96641851D01*
X91690379Y-96641852D01*
X91784078Y-96745915D01*
X91813747Y-96778866D01*
X91912843Y-96850864D01*
X91946887Y-96875598D01*
X91968248Y-96891118D01*
X91974276Y-96893802D01*
X91974278Y-96893803D01*
X92136681Y-96966109D01*
X92142712Y-96968794D01*
X92236112Y-96988647D01*
X92323056Y-97007128D01*
X92323061Y-97007128D01*
X92329513Y-97008500D01*
X92520487Y-97008500D01*
X92526939Y-97007128D01*
X92526944Y-97007128D01*
X92613888Y-96988647D01*
X92707288Y-96968794D01*
X92713319Y-96966109D01*
X92875722Y-96893803D01*
X92875724Y-96893802D01*
X92881752Y-96891118D01*
X92903114Y-96875598D01*
X92937157Y-96850864D01*
X93036253Y-96778866D01*
X93065922Y-96745915D01*
X93159621Y-96641852D01*
X93159622Y-96641851D01*
X93164040Y-96636944D01*
X93259527Y-96471556D01*
X93318542Y-96289928D01*
X93338504Y-96100000D01*
X93318542Y-95910072D01*
X93259527Y-95728444D01*
X93164040Y-95563056D01*
X93036253Y-95421134D01*
X92881752Y-95308882D01*
X92875724Y-95306198D01*
X92875722Y-95306197D01*
X92713319Y-95233891D01*
X92713318Y-95233891D01*
X92707288Y-95231206D01*
X92602220Y-95208873D01*
X92526944Y-95192872D01*
X92526939Y-95192872D01*
X92520487Y-95191500D01*
X92329513Y-95191500D01*
X92323061Y-95192872D01*
X92323056Y-95192872D01*
X92247780Y-95208873D01*
X92142712Y-95231206D01*
X92136682Y-95233891D01*
X92136681Y-95233891D01*
X91974278Y-95306197D01*
X91974276Y-95306198D01*
X91968248Y-95308882D01*
X91813747Y-95421134D01*
X91685960Y-95563056D01*
X91590473Y-95728444D01*
X91531458Y-95910072D01*
X91511496Y-96100000D01*
X86907947Y-96100000D01*
X84813476Y-93941193D01*
X84780397Y-93878374D01*
X84786533Y-93807643D01*
X84816932Y-93762291D01*
X85666037Y-92952191D01*
X85729132Y-92919640D01*
X85753014Y-92917356D01*
X85779747Y-92917356D01*
X85847868Y-92937358D01*
X85867094Y-92953699D01*
X85867367Y-92953396D01*
X85872279Y-92957819D01*
X85876694Y-92962722D01*
X86031195Y-93074974D01*
X86037223Y-93077658D01*
X86037225Y-93077659D01*
X86199628Y-93149965D01*
X86205659Y-93152650D01*
X86299060Y-93172503D01*
X86386003Y-93190984D01*
X86386008Y-93190984D01*
X86392460Y-93192356D01*
X86583434Y-93192356D01*
X86589886Y-93190984D01*
X86589891Y-93190984D01*
X86676834Y-93172503D01*
X86770235Y-93152650D01*
X86776266Y-93149965D01*
X86938669Y-93077659D01*
X86938671Y-93077658D01*
X86944699Y-93074974D01*
X87099200Y-92962722D01*
X87196098Y-92855106D01*
X87222568Y-92825708D01*
X87222569Y-92825707D01*
X87226987Y-92820800D01*
X87267863Y-92750000D01*
X91336496Y-92750000D01*
X91337186Y-92756565D01*
X91354582Y-92922075D01*
X91356458Y-92939928D01*
X91415473Y-93121556D01*
X91510960Y-93286944D01*
X91515378Y-93291851D01*
X91515379Y-93291852D01*
X91590853Y-93375674D01*
X91638747Y-93428866D01*
X91737843Y-93500864D01*
X91784507Y-93534767D01*
X91793248Y-93541118D01*
X91799276Y-93543802D01*
X91799278Y-93543803D01*
X91862390Y-93571902D01*
X91967712Y-93618794D01*
X92061112Y-93638647D01*
X92148056Y-93657128D01*
X92148061Y-93657128D01*
X92154513Y-93658500D01*
X92345487Y-93658500D01*
X92351939Y-93657128D01*
X92351944Y-93657128D01*
X92438888Y-93638647D01*
X92532288Y-93618794D01*
X92637610Y-93571902D01*
X92700722Y-93543803D01*
X92700724Y-93543802D01*
X92706752Y-93541118D01*
X92715494Y-93534767D01*
X92762157Y-93500864D01*
X92861253Y-93428866D01*
X92909147Y-93375674D01*
X92984621Y-93291852D01*
X92984622Y-93291851D01*
X92989040Y-93286944D01*
X93084527Y-93121556D01*
X93143542Y-92939928D01*
X93145419Y-92922075D01*
X93162814Y-92756565D01*
X93163504Y-92750000D01*
X93149714Y-92618794D01*
X93144232Y-92566635D01*
X93144232Y-92566633D01*
X93143542Y-92560072D01*
X93084527Y-92378444D01*
X92989040Y-92213056D01*
X92861253Y-92071134D01*
X92706752Y-91958882D01*
X92700724Y-91956198D01*
X92700722Y-91956197D01*
X92538319Y-91883891D01*
X92538318Y-91883891D01*
X92532288Y-91881206D01*
X92438887Y-91861353D01*
X92351944Y-91842872D01*
X92351939Y-91842872D01*
X92345487Y-91841500D01*
X92154513Y-91841500D01*
X92148061Y-91842872D01*
X92148056Y-91842872D01*
X92061113Y-91861353D01*
X91967712Y-91881206D01*
X91961682Y-91883891D01*
X91961681Y-91883891D01*
X91799278Y-91956197D01*
X91799276Y-91956198D01*
X91793248Y-91958882D01*
X91638747Y-92071134D01*
X91510960Y-92213056D01*
X91415473Y-92378444D01*
X91356458Y-92560072D01*
X91355768Y-92566633D01*
X91355768Y-92566635D01*
X91350286Y-92618794D01*
X91336496Y-92750000D01*
X87267863Y-92750000D01*
X87307791Y-92680843D01*
X87319170Y-92661135D01*
X87319171Y-92661134D01*
X87322474Y-92655412D01*
X87381489Y-92473784D01*
X87382537Y-92463818D01*
X87400761Y-92290421D01*
X87401451Y-92283856D01*
X87381489Y-92093928D01*
X87322474Y-91912300D01*
X87226987Y-91746912D01*
X87171362Y-91685134D01*
X87140646Y-91621128D01*
X87149411Y-91550675D01*
X87178023Y-91509661D01*
X88690142Y-90067003D01*
X88753237Y-90034452D01*
X88777119Y-90032168D01*
X88912347Y-90032168D01*
X88918799Y-90030796D01*
X88918804Y-90030796D01*
X89005748Y-90012315D01*
X89099148Y-89992462D01*
X89105262Y-89989740D01*
X89267582Y-89917471D01*
X89267584Y-89917470D01*
X89273612Y-89914786D01*
X89428113Y-89802534D01*
X89471453Y-89754400D01*
X89551481Y-89665520D01*
X89551482Y-89665519D01*
X89555900Y-89660612D01*
X89651387Y-89495224D01*
X89710402Y-89313596D01*
X89712294Y-89295601D01*
X89729674Y-89130233D01*
X89730364Y-89123668D01*
X89731258Y-89123762D01*
X89749676Y-89061036D01*
X89768697Y-89037992D01*
X91588460Y-87301823D01*
X91651555Y-87269272D01*
X91722232Y-87276000D01*
G37*
G04 #@! TD.AperFunction*
G04 #@! TA.AperFunction,Conductor*
G36*
X87823562Y-72028002D02*
G01*
X87870055Y-72081658D01*
X87880159Y-72151932D01*
X87850665Y-72216512D01*
X87831006Y-72234826D01*
X87798568Y-72259137D01*
X87761739Y-72286739D01*
X87674385Y-72403295D01*
X87623255Y-72539684D01*
X87616500Y-72601866D01*
X87616500Y-74398134D01*
X87623255Y-74460316D01*
X87674385Y-74596705D01*
X87761739Y-74713261D01*
X87878295Y-74800615D01*
X88014684Y-74851745D01*
X88076866Y-74858500D01*
X88791406Y-74858500D01*
X88859527Y-74878502D01*
X88906020Y-74932158D01*
X88916124Y-75002432D01*
X88886630Y-75067012D01*
X88880502Y-75073594D01*
X86953407Y-77000688D01*
X85193489Y-78760606D01*
X85185203Y-78768146D01*
X85178724Y-78772258D01*
X85173299Y-78778035D01*
X85132099Y-78821909D01*
X85129344Y-78824751D01*
X85109607Y-78844488D01*
X85107127Y-78847685D01*
X85099424Y-78856705D01*
X85069156Y-78888937D01*
X85065337Y-78895883D01*
X85065335Y-78895886D01*
X85059394Y-78906692D01*
X85048543Y-78923211D01*
X85036128Y-78939217D01*
X85032983Y-78946486D01*
X85032980Y-78946490D01*
X85018568Y-78979795D01*
X85013351Y-78990445D01*
X84992047Y-79029198D01*
X84990076Y-79036873D01*
X84990076Y-79036874D01*
X84987009Y-79048820D01*
X84980605Y-79067524D01*
X84972561Y-79086113D01*
X84971322Y-79093936D01*
X84971319Y-79093946D01*
X84965643Y-79129782D01*
X84963237Y-79141402D01*
X84956776Y-79166567D01*
X84952242Y-79184228D01*
X84952242Y-79204482D01*
X84950691Y-79224192D01*
X84947522Y-79244201D01*
X84948268Y-79252093D01*
X84951683Y-79288219D01*
X84952242Y-79300077D01*
X84952242Y-89988441D01*
X84932240Y-90056562D01*
X84919884Y-90072745D01*
X84871221Y-90126790D01*
X84775734Y-90292178D01*
X84716719Y-90473806D01*
X84696757Y-90663734D01*
X84699159Y-90686583D01*
X84686388Y-90756420D01*
X84637887Y-90808267D01*
X84569054Y-90825663D01*
X84501744Y-90803083D01*
X84484754Y-90788849D01*
X83124916Y-89429011D01*
X83090890Y-89366699D01*
X83088011Y-89339916D01*
X83088011Y-83412268D01*
X83088538Y-83401085D01*
X83090213Y-83393592D01*
X83088073Y-83325501D01*
X83088011Y-83321544D01*
X83088011Y-83293645D01*
X83087507Y-83289654D01*
X83086574Y-83277812D01*
X83086255Y-83267644D01*
X83085185Y-83233612D01*
X83082973Y-83225998D01*
X83082972Y-83225993D01*
X83079534Y-83214160D01*
X83075523Y-83194796D01*
X83073978Y-83182565D01*
X83072985Y-83174704D01*
X83070068Y-83167337D01*
X83070067Y-83167332D01*
X83056709Y-83133593D01*
X83052865Y-83122366D01*
X83042741Y-83087523D01*
X83040529Y-83079908D01*
X83030218Y-83062473D01*
X83021523Y-83044725D01*
X83014063Y-83025884D01*
X82988075Y-82990114D01*
X82981559Y-82980194D01*
X82963091Y-82948966D01*
X82963089Y-82948963D01*
X82959053Y-82942139D01*
X82944732Y-82927818D01*
X82931891Y-82912784D01*
X82924643Y-82902808D01*
X82919983Y-82896394D01*
X82885918Y-82868213D01*
X82877137Y-82860223D01*
X82336216Y-82319301D01*
X82302191Y-82256989D01*
X82307256Y-82186173D01*
X82322989Y-82156680D01*
X82445435Y-81986277D01*
X82448453Y-81982077D01*
X82467384Y-81943774D01*
X82545136Y-81786453D01*
X82545137Y-81786451D01*
X82547430Y-81781811D01*
X82592058Y-81634924D01*
X82630998Y-81575562D01*
X82695852Y-81546675D01*
X82766028Y-81557436D01*
X82806249Y-81587242D01*
X82888747Y-81678866D01*
X82987843Y-81750864D01*
X83023631Y-81776865D01*
X83043248Y-81791118D01*
X83049276Y-81793802D01*
X83049278Y-81793803D01*
X83209929Y-81865329D01*
X83217712Y-81868794D01*
X83311113Y-81888647D01*
X83398056Y-81907128D01*
X83398061Y-81907128D01*
X83404513Y-81908500D01*
X83595487Y-81908500D01*
X83601939Y-81907128D01*
X83601944Y-81907128D01*
X83688887Y-81888647D01*
X83782288Y-81868794D01*
X83790071Y-81865329D01*
X83950722Y-81793803D01*
X83950724Y-81793802D01*
X83956752Y-81791118D01*
X83976370Y-81776865D01*
X84012157Y-81750864D01*
X84111253Y-81678866D01*
X84211015Y-81568069D01*
X84234621Y-81541852D01*
X84234622Y-81541851D01*
X84239040Y-81536944D01*
X84313197Y-81408500D01*
X84331223Y-81377279D01*
X84331224Y-81377278D01*
X84334527Y-81371556D01*
X84393542Y-81189928D01*
X84408693Y-81045779D01*
X84412814Y-81006565D01*
X84413504Y-81000000D01*
X84399344Y-80865271D01*
X84394232Y-80816635D01*
X84394232Y-80816633D01*
X84393542Y-80810072D01*
X84334527Y-80628444D01*
X84330877Y-80622121D01*
X84264160Y-80506565D01*
X84239040Y-80463056D01*
X84222294Y-80444457D01*
X84115675Y-80326045D01*
X84115674Y-80326044D01*
X84111253Y-80321134D01*
X83956752Y-80208882D01*
X83950724Y-80206198D01*
X83950722Y-80206197D01*
X83788319Y-80133891D01*
X83788318Y-80133891D01*
X83782288Y-80131206D01*
X83688888Y-80111353D01*
X83601944Y-80092872D01*
X83601939Y-80092872D01*
X83595487Y-80091500D01*
X83404513Y-80091500D01*
X83398061Y-80092872D01*
X83398056Y-80092872D01*
X83311112Y-80111353D01*
X83217712Y-80131206D01*
X83211682Y-80133891D01*
X83211681Y-80133891D01*
X83049278Y-80206197D01*
X83049276Y-80206198D01*
X83043248Y-80208882D01*
X82888747Y-80321134D01*
X82884326Y-80326044D01*
X82884325Y-80326045D01*
X82777707Y-80444457D01*
X82760960Y-80463056D01*
X82757661Y-80468769D01*
X82757658Y-80468774D01*
X82679397Y-80604326D01*
X82628014Y-80653319D01*
X82558300Y-80666755D01*
X82492390Y-80640368D01*
X82464486Y-80609766D01*
X82362822Y-80452617D01*
X82362820Y-80452614D01*
X82360014Y-80448277D01*
X82209670Y-80283051D01*
X82205619Y-80279852D01*
X82205615Y-80279848D01*
X82038414Y-80147800D01*
X82038410Y-80147798D01*
X82034359Y-80144598D01*
X81993053Y-80121796D01*
X81943084Y-80071364D01*
X81928312Y-80001921D01*
X81953428Y-79935516D01*
X81980780Y-79908909D01*
X82045727Y-79862583D01*
X82159860Y-79781173D01*
X82228510Y-79712763D01*
X82258409Y-79682968D01*
X82318096Y-79623489D01*
X82327083Y-79610983D01*
X82445435Y-79446277D01*
X82448453Y-79442077D01*
X82465199Y-79408195D01*
X82545136Y-79246453D01*
X82545137Y-79246451D01*
X82547430Y-79241811D01*
X82600383Y-79067524D01*
X82610865Y-79033023D01*
X82610865Y-79033021D01*
X82612370Y-79028069D01*
X82641529Y-78806590D01*
X82642368Y-78772258D01*
X82643074Y-78743365D01*
X82643074Y-78743361D01*
X82643156Y-78740000D01*
X82624852Y-78517361D01*
X82570431Y-78300702D01*
X82481354Y-78095840D01*
X82387496Y-77950757D01*
X82362822Y-77912617D01*
X82362820Y-77912614D01*
X82360014Y-77908277D01*
X82209670Y-77743051D01*
X82205619Y-77739852D01*
X82205615Y-77739848D01*
X82038414Y-77607800D01*
X82038410Y-77607798D01*
X82034359Y-77604598D01*
X81993053Y-77581796D01*
X81943084Y-77531364D01*
X81928312Y-77461921D01*
X81953428Y-77395516D01*
X81980780Y-77368909D01*
X82024603Y-77337650D01*
X82159860Y-77241173D01*
X82318096Y-77083489D01*
X82377594Y-77000689D01*
X82445435Y-76906277D01*
X82448453Y-76902077D01*
X82463450Y-76871734D01*
X82545136Y-76706453D01*
X82545137Y-76706451D01*
X82547430Y-76701811D01*
X82612370Y-76488069D01*
X82641529Y-76266590D01*
X82643156Y-76200000D01*
X82624852Y-75977361D01*
X82570431Y-75760702D01*
X82481354Y-75555840D01*
X82381760Y-75401891D01*
X82362822Y-75372617D01*
X82362820Y-75372614D01*
X82360014Y-75368277D01*
X82209670Y-75203051D01*
X82205619Y-75199852D01*
X82205615Y-75199848D01*
X82038414Y-75067800D01*
X82038410Y-75067798D01*
X82034359Y-75064598D01*
X81993053Y-75041796D01*
X81943084Y-74991364D01*
X81928312Y-74921921D01*
X81953428Y-74855516D01*
X81980780Y-74828909D01*
X82027998Y-74795229D01*
X82159860Y-74701173D01*
X82188917Y-74672218D01*
X82314435Y-74547137D01*
X82318096Y-74543489D01*
X82377594Y-74460689D01*
X82445435Y-74366277D01*
X82448453Y-74362077D01*
X82469320Y-74319857D01*
X82545136Y-74166453D01*
X82545137Y-74166451D01*
X82547430Y-74161811D01*
X82612370Y-73948069D01*
X82641529Y-73726590D01*
X82643156Y-73660000D01*
X82624852Y-73437361D01*
X82570431Y-73220702D01*
X82481354Y-73015840D01*
X82380918Y-72860590D01*
X82362822Y-72832617D01*
X82362820Y-72832614D01*
X82360014Y-72828277D01*
X82209670Y-72663051D01*
X82205619Y-72659852D01*
X82205615Y-72659848D01*
X82038414Y-72527800D01*
X82038410Y-72527798D01*
X82034359Y-72524598D01*
X81838789Y-72416638D01*
X81833920Y-72414914D01*
X81833916Y-72414912D01*
X81633087Y-72343795D01*
X81633083Y-72343794D01*
X81628212Y-72342069D01*
X81623119Y-72341162D01*
X81623116Y-72341161D01*
X81413373Y-72303800D01*
X81413367Y-72303799D01*
X81408284Y-72302894D01*
X81334452Y-72301992D01*
X81190081Y-72300228D01*
X81190079Y-72300228D01*
X81184911Y-72300165D01*
X80964091Y-72333955D01*
X80751756Y-72403357D01*
X80721443Y-72419137D01*
X80603307Y-72480635D01*
X80553607Y-72506507D01*
X80549474Y-72509610D01*
X80549471Y-72509612D01*
X80379100Y-72637530D01*
X80374965Y-72640635D01*
X80220629Y-72802138D01*
X80113201Y-72959621D01*
X80058293Y-73004621D01*
X79987768Y-73012792D01*
X79924021Y-72981538D01*
X79903324Y-72957054D01*
X79822822Y-72832617D01*
X79822820Y-72832614D01*
X79820014Y-72828277D01*
X79669670Y-72663051D01*
X79665619Y-72659852D01*
X79665615Y-72659848D01*
X79498414Y-72527800D01*
X79498410Y-72527798D01*
X79494359Y-72524598D01*
X79298789Y-72416638D01*
X79293920Y-72414914D01*
X79293916Y-72414912D01*
X79093087Y-72343795D01*
X79093083Y-72343794D01*
X79088212Y-72342069D01*
X79083119Y-72341162D01*
X79083116Y-72341161D01*
X78873373Y-72303800D01*
X78873367Y-72303799D01*
X78868284Y-72302894D01*
X78794452Y-72301992D01*
X78650081Y-72300228D01*
X78650079Y-72300228D01*
X78644911Y-72300165D01*
X78424091Y-72333955D01*
X78211756Y-72403357D01*
X78181443Y-72419137D01*
X78063307Y-72480635D01*
X78013607Y-72506507D01*
X78009474Y-72509610D01*
X78009471Y-72509612D01*
X77839100Y-72637530D01*
X77834965Y-72640635D01*
X77680629Y-72802138D01*
X77554743Y-72986680D01*
X77518054Y-73065720D01*
X77470017Y-73169208D01*
X77460688Y-73189305D01*
X77400989Y-73404570D01*
X77377251Y-73626695D01*
X77377548Y-73631848D01*
X77377548Y-73631851D01*
X77386841Y-73793023D01*
X77390110Y-73849715D01*
X77391247Y-73854761D01*
X77391248Y-73854767D01*
X77411119Y-73942939D01*
X77439222Y-74067639D01*
X77495517Y-74206277D01*
X77515499Y-74255487D01*
X77523266Y-74274616D01*
X77574019Y-74357438D01*
X77637291Y-74460688D01*
X77639987Y-74465088D01*
X77786250Y-74633938D01*
X77958126Y-74776632D01*
X77989951Y-74795229D01*
X78031445Y-74819476D01*
X78080169Y-74871114D01*
X78093240Y-74940897D01*
X78066509Y-75006669D01*
X78026055Y-75040027D01*
X78013607Y-75046507D01*
X78009474Y-75049610D01*
X78009471Y-75049612D01*
X77839100Y-75177530D01*
X77834965Y-75180635D01*
X77831393Y-75184373D01*
X77714620Y-75306569D01*
X77680629Y-75342138D01*
X77677720Y-75346403D01*
X77677714Y-75346411D01*
X77647991Y-75389983D01*
X77554743Y-75526680D01*
X77516208Y-75609697D01*
X77463105Y-75724099D01*
X77460688Y-75729305D01*
X77400989Y-75944570D01*
X77377251Y-76166695D01*
X77377548Y-76171848D01*
X77377548Y-76171851D01*
X77389812Y-76384547D01*
X77390110Y-76389715D01*
X77391247Y-76394761D01*
X77391248Y-76394767D01*
X77408869Y-76472956D01*
X77439222Y-76607639D01*
X77523266Y-76814616D01*
X77561525Y-76877049D01*
X77637291Y-77000688D01*
X77639987Y-77005088D01*
X77786250Y-77173938D01*
X77862846Y-77237529D01*
X77946615Y-77307075D01*
X77958126Y-77316632D01*
X78028595Y-77357811D01*
X78031445Y-77359476D01*
X78080169Y-77411114D01*
X78093240Y-77480897D01*
X78066509Y-77546669D01*
X78026055Y-77580027D01*
X78013607Y-77586507D01*
X78009474Y-77589610D01*
X78009471Y-77589612D01*
X77839100Y-77717530D01*
X77834965Y-77720635D01*
X77680629Y-77882138D01*
X77677720Y-77886403D01*
X77677714Y-77886411D01*
X77592556Y-78011249D01*
X77554743Y-78066680D01*
X77539003Y-78100590D01*
X77497273Y-78190490D01*
X77460688Y-78269305D01*
X77400989Y-78484570D01*
X77377251Y-78706695D01*
X77377548Y-78711848D01*
X77377548Y-78711851D01*
X77389283Y-78915375D01*
X77390110Y-78929715D01*
X77391247Y-78934761D01*
X77391248Y-78934767D01*
X77411119Y-79022939D01*
X77439222Y-79147639D01*
X77523266Y-79354616D01*
X77560420Y-79415246D01*
X77637291Y-79540688D01*
X77639987Y-79545088D01*
X77786250Y-79713938D01*
X77958126Y-79856632D01*
X77968310Y-79862583D01*
X78031445Y-79899476D01*
X78080169Y-79951114D01*
X78093240Y-80020897D01*
X78066509Y-80086669D01*
X78026055Y-80120027D01*
X78013607Y-80126507D01*
X78009474Y-80129610D01*
X78009471Y-80129612D01*
X77839100Y-80257530D01*
X77834965Y-80260635D01*
X77680629Y-80422138D01*
X77554743Y-80606680D01*
X77533094Y-80653319D01*
X77472642Y-80783553D01*
X77460688Y-80809305D01*
X77400989Y-81024570D01*
X77377251Y-81246695D01*
X77377548Y-81251848D01*
X77377548Y-81251851D01*
X77379812Y-81291118D01*
X77390110Y-81469715D01*
X77391247Y-81474761D01*
X77391248Y-81474767D01*
X77395955Y-81495651D01*
X77439222Y-81687639D01*
X77483277Y-81796134D01*
X77511691Y-81866109D01*
X77523266Y-81894616D01*
X77639987Y-82085088D01*
X77786250Y-82253938D01*
X77958126Y-82396632D01*
X78028595Y-82437811D01*
X78031445Y-82439476D01*
X78080169Y-82491114D01*
X78093240Y-82560897D01*
X78066509Y-82626669D01*
X78026055Y-82660027D01*
X78013607Y-82666507D01*
X78009474Y-82669610D01*
X78009471Y-82669612D01*
X77839100Y-82797530D01*
X77834965Y-82800635D01*
X77831393Y-82804373D01*
X77699741Y-82942139D01*
X77680629Y-82962138D01*
X77554743Y-83146680D01*
X77460688Y-83349305D01*
X77400989Y-83564570D01*
X77377251Y-83786695D01*
X77377548Y-83791848D01*
X77377548Y-83791851D01*
X77386177Y-83941500D01*
X77390110Y-84009715D01*
X77391247Y-84014761D01*
X77391248Y-84014767D01*
X77400585Y-84056197D01*
X77439222Y-84227639D01*
X77523266Y-84434616D01*
X77574942Y-84518944D01*
X77637291Y-84620688D01*
X77639987Y-84625088D01*
X77786250Y-84793938D01*
X77958126Y-84936632D01*
X78031955Y-84979774D01*
X78080679Y-85031412D01*
X78093750Y-85101195D01*
X78067019Y-85166967D01*
X78026562Y-85200327D01*
X78018457Y-85204546D01*
X78009738Y-85210036D01*
X77839433Y-85337905D01*
X77831726Y-85344748D01*
X77684590Y-85498717D01*
X77678104Y-85506727D01*
X77558098Y-85682649D01*
X77553000Y-85691623D01*
X77463338Y-85884783D01*
X77459775Y-85894470D01*
X77404389Y-86094183D01*
X77405912Y-86102607D01*
X77418292Y-86106000D01*
X81408000Y-86106000D01*
X81476121Y-86126002D01*
X81522614Y-86179658D01*
X81534000Y-86232000D01*
X81534000Y-87699884D01*
X81538475Y-87715123D01*
X81539865Y-87716328D01*
X81547548Y-87717999D01*
X81695011Y-87717999D01*
X81763132Y-87738001D01*
X81809625Y-87791657D01*
X81821011Y-87843999D01*
X81821011Y-89575744D01*
X81820484Y-89586927D01*
X81818809Y-89594420D01*
X81819058Y-89602346D01*
X81819058Y-89602347D01*
X81820949Y-89662497D01*
X81821011Y-89666456D01*
X81821011Y-89694367D01*
X81821508Y-89698301D01*
X81821508Y-89698302D01*
X81821516Y-89698367D01*
X81822449Y-89710204D01*
X81823838Y-89754400D01*
X81829489Y-89773850D01*
X81833498Y-89793211D01*
X81836037Y-89813308D01*
X81838956Y-89820679D01*
X81838956Y-89820681D01*
X81852315Y-89854423D01*
X81856160Y-89865653D01*
X81868493Y-89908104D01*
X81872526Y-89914923D01*
X81872528Y-89914928D01*
X81878804Y-89925539D01*
X81887499Y-89943287D01*
X81894959Y-89962128D01*
X81899621Y-89968544D01*
X81899621Y-89968545D01*
X81920947Y-89997898D01*
X81927463Y-90007818D01*
X81949969Y-90045873D01*
X81964290Y-90060194D01*
X81977130Y-90075227D01*
X81989039Y-90091618D01*
X81995145Y-90096669D01*
X82023116Y-90119809D01*
X82031895Y-90127799D01*
X84580199Y-92676103D01*
X84587743Y-92684393D01*
X84591856Y-92690874D01*
X84597633Y-92696299D01*
X84641523Y-92737514D01*
X84644365Y-92740269D01*
X84664086Y-92759990D01*
X84667281Y-92762468D01*
X84676303Y-92770174D01*
X84708535Y-92800442D01*
X84715484Y-92804262D01*
X84726288Y-92810202D01*
X84742812Y-92821055D01*
X84758815Y-92833469D01*
X84787743Y-92845988D01*
X84842315Y-92891397D01*
X84863675Y-92959105D01*
X84845038Y-93027612D01*
X84824677Y-93052788D01*
X84532900Y-93331162D01*
X84466263Y-93394738D01*
X84394957Y-93479446D01*
X84364558Y-93524798D01*
X84313304Y-93622932D01*
X84311499Y-93630665D01*
X84311498Y-93630667D01*
X84281455Y-93759363D01*
X84280434Y-93763738D01*
X84274298Y-93834469D01*
X84274551Y-93838953D01*
X84281558Y-93963339D01*
X84282431Y-93978841D01*
X84285451Y-93987327D01*
X84285451Y-93987328D01*
X84318608Y-94080504D01*
X84330907Y-94115065D01*
X84363986Y-94177884D01*
X84366631Y-94181531D01*
X84443556Y-94287596D01*
X84448874Y-94294929D01*
X84452003Y-94298155D01*
X84452008Y-94298160D01*
X86543345Y-96453736D01*
X87481886Y-97421106D01*
X87505284Y-97445223D01*
X87507687Y-97447700D01*
X87593422Y-97518582D01*
X87639261Y-97548689D01*
X87642333Y-97550255D01*
X87642338Y-97550258D01*
X87674463Y-97566635D01*
X87738349Y-97599204D01*
X87879488Y-97630611D01*
X87950279Y-97636013D01*
X87954775Y-97635713D01*
X87954778Y-97635713D01*
X88090064Y-97626685D01*
X88090070Y-97626684D01*
X88094553Y-97626385D01*
X88098946Y-97625451D01*
X88098962Y-97625449D01*
X88208083Y-97602254D01*
X88234280Y-97599500D01*
X88291984Y-97599500D01*
X88318179Y-97602253D01*
X88340368Y-97606970D01*
X88340370Y-97606971D01*
X88340376Y-97606972D01*
X88340386Y-97606975D01*
X88374620Y-97614251D01*
X88399670Y-97622391D01*
X88452385Y-97645860D01*
X88475194Y-97659029D01*
X88521879Y-97692948D01*
X88541452Y-97710572D01*
X88580065Y-97753457D01*
X88595545Y-97774763D01*
X88605380Y-97791797D01*
X88624399Y-97824739D01*
X88635112Y-97848802D01*
X88652943Y-97903680D01*
X88658420Y-97929446D01*
X88664451Y-97986830D01*
X88664451Y-98013170D01*
X88658420Y-98070555D01*
X88652943Y-98096321D01*
X88650497Y-98103850D01*
X88641528Y-98131454D01*
X88640781Y-98135428D01*
X88640780Y-98135431D01*
X88624041Y-98224457D01*
X88617505Y-98259216D01*
X88613826Y-98323070D01*
X88614111Y-98327090D01*
X88614111Y-98327096D01*
X88617970Y-98381538D01*
X88623018Y-98452754D01*
X88631697Y-98477143D01*
X88669939Y-98584610D01*
X88671493Y-98588978D01*
X88673590Y-98592960D01*
X88702474Y-98647815D01*
X88702478Y-98647822D01*
X88704572Y-98651798D01*
X88707211Y-98655437D01*
X88707213Y-98655440D01*
X88785284Y-98763086D01*
X88789461Y-98768846D01*
X88792589Y-98772070D01*
X88908949Y-98892005D01*
X88908966Y-98892022D01*
X90725601Y-100764457D01*
X91595736Y-101661320D01*
X91598466Y-101663564D01*
X91602147Y-101666590D01*
X91683872Y-101733765D01*
X91731049Y-101764369D01*
X91833115Y-101815313D01*
X91879799Y-101825148D01*
X91970194Y-101844193D01*
X91970200Y-101844194D01*
X91974601Y-101845121D01*
X91979088Y-101845412D01*
X91979093Y-101845413D01*
X92005122Y-101847103D01*
X92045449Y-101849721D01*
X92049928Y-101849371D01*
X92049935Y-101849371D01*
X92123340Y-101843635D01*
X92189608Y-101838458D01*
X92324748Y-101787038D01*
X92328681Y-101784857D01*
X92328689Y-101784853D01*
X92382893Y-101754790D01*
X92386835Y-101752604D01*
X92502013Y-101665196D01*
X92766954Y-101396751D01*
X93733247Y-101396751D01*
X93733937Y-101403316D01*
X93751651Y-101571851D01*
X93753209Y-101586679D01*
X93812224Y-101768307D01*
X93907711Y-101933695D01*
X94035498Y-102075617D01*
X94189999Y-102187869D01*
X94196027Y-102190553D01*
X94196029Y-102190554D01*
X94351687Y-102259857D01*
X94364463Y-102265545D01*
X94457863Y-102285398D01*
X94544807Y-102303879D01*
X94544812Y-102303879D01*
X94551264Y-102305251D01*
X94742238Y-102305251D01*
X94748690Y-102303879D01*
X94748695Y-102303879D01*
X94835639Y-102285398D01*
X94929039Y-102265545D01*
X94941815Y-102259857D01*
X95097473Y-102190554D01*
X95097475Y-102190553D01*
X95103503Y-102187869D01*
X95258004Y-102075617D01*
X95385791Y-101933695D01*
X95481278Y-101768307D01*
X95540293Y-101586679D01*
X95541852Y-101571851D01*
X95559565Y-101403316D01*
X95560255Y-101396751D01*
X95540293Y-101206823D01*
X95481278Y-101025195D01*
X95385791Y-100859807D01*
X95324909Y-100792190D01*
X95262426Y-100722796D01*
X95262425Y-100722795D01*
X95258004Y-100717885D01*
X95103503Y-100605633D01*
X95097475Y-100602949D01*
X95097473Y-100602948D01*
X94935070Y-100530642D01*
X94935069Y-100530642D01*
X94929039Y-100527957D01*
X94835639Y-100508104D01*
X94748695Y-100489623D01*
X94748690Y-100489623D01*
X94742238Y-100488251D01*
X94551264Y-100488251D01*
X94544812Y-100489623D01*
X94544807Y-100489623D01*
X94457863Y-100508104D01*
X94364463Y-100527957D01*
X94358433Y-100530642D01*
X94358432Y-100530642D01*
X94196029Y-100602948D01*
X94196027Y-100602949D01*
X94189999Y-100605633D01*
X94035498Y-100717885D01*
X94031077Y-100722795D01*
X94031076Y-100722796D01*
X93968594Y-100792190D01*
X93907711Y-100859807D01*
X93812224Y-101025195D01*
X93753209Y-101206823D01*
X93733247Y-101396751D01*
X92766954Y-101396751D01*
X94037458Y-100109441D01*
X96127055Y-100109441D01*
X96147017Y-100299369D01*
X96206032Y-100480997D01*
X96301519Y-100646385D01*
X96305937Y-100651292D01*
X96305938Y-100651293D01*
X96391583Y-100746411D01*
X96429306Y-100788307D01*
X96583807Y-100900559D01*
X96589835Y-100903243D01*
X96589837Y-100903244D01*
X96718639Y-100960590D01*
X96758271Y-100978235D01*
X96851672Y-100998088D01*
X96938615Y-101016569D01*
X96938620Y-101016569D01*
X96945072Y-101017941D01*
X97136046Y-101017941D01*
X97142498Y-101016569D01*
X97142503Y-101016569D01*
X97229447Y-100998088D01*
X97322847Y-100978235D01*
X97362479Y-100960590D01*
X97491281Y-100903244D01*
X97491283Y-100903243D01*
X97497311Y-100900559D01*
X97651812Y-100788307D01*
X97689535Y-100746411D01*
X97775180Y-100651293D01*
X97775181Y-100651292D01*
X97779599Y-100646385D01*
X97875086Y-100480997D01*
X97934101Y-100299369D01*
X97954063Y-100109441D01*
X97952811Y-100097529D01*
X97934791Y-99926076D01*
X97934791Y-99926074D01*
X97934101Y-99919513D01*
X97895269Y-99800000D01*
X99086496Y-99800000D01*
X99087186Y-99806565D01*
X99101961Y-99947137D01*
X99106458Y-99989928D01*
X99165473Y-100171556D01*
X99168776Y-100177278D01*
X99168777Y-100177279D01*
X99193140Y-100219476D01*
X99260960Y-100336944D01*
X99265378Y-100341851D01*
X99265379Y-100341852D01*
X99373654Y-100462104D01*
X99388747Y-100478866D01*
X99543248Y-100591118D01*
X99549276Y-100593802D01*
X99549278Y-100593803D01*
X99584566Y-100609514D01*
X99717712Y-100668794D01*
X99811112Y-100688647D01*
X99898056Y-100707128D01*
X99898061Y-100707128D01*
X99904513Y-100708500D01*
X100095487Y-100708500D01*
X100101939Y-100707128D01*
X100101944Y-100707128D01*
X100188887Y-100688647D01*
X100282288Y-100668794D01*
X100415434Y-100609514D01*
X100450722Y-100593803D01*
X100450724Y-100593802D01*
X100456752Y-100591118D01*
X100611253Y-100478866D01*
X100626346Y-100462104D01*
X100734621Y-100341852D01*
X100734622Y-100341851D01*
X100739040Y-100336944D01*
X100806860Y-100219476D01*
X100831223Y-100177279D01*
X100831224Y-100177278D01*
X100834527Y-100171556D01*
X100893542Y-99989928D01*
X100898040Y-99947137D01*
X100912814Y-99806565D01*
X100913504Y-99800000D01*
X100906976Y-99737885D01*
X100894232Y-99616635D01*
X100894232Y-99616633D01*
X100893542Y-99610072D01*
X100834527Y-99428444D01*
X100739040Y-99263056D01*
X100722375Y-99244547D01*
X100615675Y-99126045D01*
X100615674Y-99126044D01*
X100611253Y-99121134D01*
X100488366Y-99031851D01*
X100462094Y-99012763D01*
X100462093Y-99012762D01*
X100456752Y-99008882D01*
X100450724Y-99006198D01*
X100450722Y-99006197D01*
X100288319Y-98933891D01*
X100288318Y-98933891D01*
X100282288Y-98931206D01*
X100188887Y-98911353D01*
X100101944Y-98892872D01*
X100101939Y-98892872D01*
X100095487Y-98891500D01*
X99904513Y-98891500D01*
X99898061Y-98892872D01*
X99898056Y-98892872D01*
X99811112Y-98911353D01*
X99717712Y-98931206D01*
X99711682Y-98933891D01*
X99711681Y-98933891D01*
X99549278Y-99006197D01*
X99549276Y-99006198D01*
X99543248Y-99008882D01*
X99537907Y-99012762D01*
X99537906Y-99012763D01*
X99511634Y-99031851D01*
X99388747Y-99121134D01*
X99384326Y-99126044D01*
X99384325Y-99126045D01*
X99277626Y-99244547D01*
X99260960Y-99263056D01*
X99165473Y-99428444D01*
X99106458Y-99610072D01*
X99105768Y-99616633D01*
X99105768Y-99616635D01*
X99093024Y-99737885D01*
X99086496Y-99800000D01*
X97895269Y-99800000D01*
X97875086Y-99737885D01*
X97779599Y-99572497D01*
X97651812Y-99430575D01*
X97497311Y-99318323D01*
X97491283Y-99315639D01*
X97491281Y-99315638D01*
X97328878Y-99243332D01*
X97328877Y-99243332D01*
X97322847Y-99240647D01*
X97229447Y-99220794D01*
X97142503Y-99202313D01*
X97142498Y-99202313D01*
X97136046Y-99200941D01*
X96945072Y-99200941D01*
X96938620Y-99202313D01*
X96938615Y-99202313D01*
X96851671Y-99220794D01*
X96758271Y-99240647D01*
X96752241Y-99243332D01*
X96752240Y-99243332D01*
X96589837Y-99315638D01*
X96589835Y-99315639D01*
X96583807Y-99318323D01*
X96429306Y-99430575D01*
X96301519Y-99572497D01*
X96206032Y-99737885D01*
X96147017Y-99919513D01*
X96146327Y-99926074D01*
X96146327Y-99926076D01*
X96128307Y-100097529D01*
X96127055Y-100109441D01*
X94037458Y-100109441D01*
X94701149Y-99436971D01*
X95901083Y-98221164D01*
X96366096Y-97750000D01*
X102586496Y-97750000D01*
X102587186Y-97756565D01*
X102604585Y-97922104D01*
X102606458Y-97939928D01*
X102665473Y-98121556D01*
X102668776Y-98127278D01*
X102668777Y-98127279D01*
X102673484Y-98135431D01*
X102760960Y-98286944D01*
X102765378Y-98291851D01*
X102765379Y-98291852D01*
X102854990Y-98391375D01*
X102888747Y-98428866D01*
X103043248Y-98541118D01*
X103049276Y-98543802D01*
X103049278Y-98543803D01*
X103211681Y-98616109D01*
X103217712Y-98618794D01*
X103311113Y-98638647D01*
X103398056Y-98657128D01*
X103398061Y-98657128D01*
X103404513Y-98658500D01*
X103595487Y-98658500D01*
X103601939Y-98657128D01*
X103601944Y-98657128D01*
X103688887Y-98638647D01*
X103782288Y-98618794D01*
X103788319Y-98616109D01*
X103950722Y-98543803D01*
X103950724Y-98543802D01*
X103956752Y-98541118D01*
X104111253Y-98428866D01*
X104145010Y-98391375D01*
X104234621Y-98291852D01*
X104234622Y-98291851D01*
X104239040Y-98286944D01*
X104326516Y-98135431D01*
X104331223Y-98127279D01*
X104331224Y-98127278D01*
X104334527Y-98121556D01*
X104393542Y-97939928D01*
X104395416Y-97922104D01*
X104412814Y-97756565D01*
X104413504Y-97750000D01*
X105336496Y-97750000D01*
X105337186Y-97756565D01*
X105354585Y-97922104D01*
X105356458Y-97939928D01*
X105415473Y-98121556D01*
X105418776Y-98127278D01*
X105418777Y-98127279D01*
X105423484Y-98135431D01*
X105510960Y-98286944D01*
X105515378Y-98291851D01*
X105515379Y-98291852D01*
X105604990Y-98391375D01*
X105638747Y-98428866D01*
X105793248Y-98541118D01*
X105799276Y-98543802D01*
X105799278Y-98543803D01*
X105961681Y-98616109D01*
X105967712Y-98618794D01*
X106061113Y-98638647D01*
X106148056Y-98657128D01*
X106148061Y-98657128D01*
X106154513Y-98658500D01*
X106345487Y-98658500D01*
X106351939Y-98657128D01*
X106351944Y-98657128D01*
X106438887Y-98638647D01*
X106532288Y-98618794D01*
X106538319Y-98616109D01*
X106700722Y-98543803D01*
X106700724Y-98543802D01*
X106706752Y-98541118D01*
X106861253Y-98428866D01*
X106895010Y-98391375D01*
X106984621Y-98291852D01*
X106984622Y-98291851D01*
X106989040Y-98286944D01*
X107076516Y-98135431D01*
X107081223Y-98127279D01*
X107081224Y-98127278D01*
X107084527Y-98121556D01*
X107143542Y-97939928D01*
X107145416Y-97922104D01*
X107162814Y-97756565D01*
X107163504Y-97750000D01*
X107153125Y-97651246D01*
X107144232Y-97566635D01*
X107144232Y-97566633D01*
X107143542Y-97560072D01*
X107084527Y-97378444D01*
X107076193Y-97364008D01*
X106992341Y-97218774D01*
X106989040Y-97213056D01*
X106918413Y-97134616D01*
X106865675Y-97076045D01*
X106865674Y-97076044D01*
X106861253Y-97071134D01*
X106706752Y-96958882D01*
X106700724Y-96956198D01*
X106700722Y-96956197D01*
X106538319Y-96883891D01*
X106538318Y-96883891D01*
X106532288Y-96881206D01*
X106438887Y-96861353D01*
X106351944Y-96842872D01*
X106351939Y-96842872D01*
X106345487Y-96841500D01*
X106154513Y-96841500D01*
X106148061Y-96842872D01*
X106148056Y-96842872D01*
X106061113Y-96861353D01*
X105967712Y-96881206D01*
X105961682Y-96883891D01*
X105961681Y-96883891D01*
X105799278Y-96956197D01*
X105799276Y-96956198D01*
X105793248Y-96958882D01*
X105638747Y-97071134D01*
X105634326Y-97076044D01*
X105634325Y-97076045D01*
X105581588Y-97134616D01*
X105510960Y-97213056D01*
X105507659Y-97218774D01*
X105423808Y-97364008D01*
X105415473Y-97378444D01*
X105356458Y-97560072D01*
X105355768Y-97566633D01*
X105355768Y-97566635D01*
X105346875Y-97651246D01*
X105336496Y-97750000D01*
X104413504Y-97750000D01*
X104403125Y-97651246D01*
X104394232Y-97566635D01*
X104394232Y-97566633D01*
X104393542Y-97560072D01*
X104334527Y-97378444D01*
X104326193Y-97364008D01*
X104242341Y-97218774D01*
X104239040Y-97213056D01*
X104168413Y-97134616D01*
X104115675Y-97076045D01*
X104115674Y-97076044D01*
X104111253Y-97071134D01*
X103956752Y-96958882D01*
X103950724Y-96956198D01*
X103950722Y-96956197D01*
X103788319Y-96883891D01*
X103788318Y-96883891D01*
X103782288Y-96881206D01*
X103688887Y-96861353D01*
X103601944Y-96842872D01*
X103601939Y-96842872D01*
X103595487Y-96841500D01*
X103404513Y-96841500D01*
X103398061Y-96842872D01*
X103398056Y-96842872D01*
X103311113Y-96861353D01*
X103217712Y-96881206D01*
X103211682Y-96883891D01*
X103211681Y-96883891D01*
X103049278Y-96956197D01*
X103049276Y-96956198D01*
X103043248Y-96958882D01*
X102888747Y-97071134D01*
X102884326Y-97076044D01*
X102884325Y-97076045D01*
X102831588Y-97134616D01*
X102760960Y-97213056D01*
X102757659Y-97218774D01*
X102673808Y-97364008D01*
X102665473Y-97378444D01*
X102606458Y-97560072D01*
X102605768Y-97566633D01*
X102605768Y-97566635D01*
X102596875Y-97651246D01*
X102586496Y-97750000D01*
X96366096Y-97750000D01*
X96366749Y-97749338D01*
X98005411Y-96089001D01*
X98005412Y-96089000D01*
X98008881Y-96085485D01*
X98010501Y-96083226D01*
X98069202Y-96044371D01*
X98140192Y-96043411D01*
X98157575Y-96049667D01*
X98220464Y-96077667D01*
X98248179Y-96083558D01*
X98400808Y-96116001D01*
X98400813Y-96116001D01*
X98407265Y-96117373D01*
X98598239Y-96117373D01*
X98604691Y-96116001D01*
X98604696Y-96116001D01*
X98691639Y-96097520D01*
X98785040Y-96077667D01*
X98791073Y-96074981D01*
X98953474Y-96002676D01*
X98953476Y-96002675D01*
X98959504Y-95999991D01*
X99114005Y-95887739D01*
X99150975Y-95846680D01*
X99237373Y-95750725D01*
X99237374Y-95750724D01*
X99241792Y-95745817D01*
X99252383Y-95727473D01*
X107730695Y-95727473D01*
X107731385Y-95734038D01*
X107747948Y-95891622D01*
X107750657Y-95917401D01*
X107809672Y-96099029D01*
X107905159Y-96264417D01*
X108032946Y-96406339D01*
X108187447Y-96518591D01*
X108193475Y-96521275D01*
X108193477Y-96521276D01*
X108340176Y-96586590D01*
X108361911Y-96596267D01*
X108455312Y-96616120D01*
X108542255Y-96634601D01*
X108542260Y-96634601D01*
X108548712Y-96635973D01*
X108739686Y-96635973D01*
X108746138Y-96634601D01*
X108746143Y-96634601D01*
X108833087Y-96616120D01*
X108926487Y-96596267D01*
X108948222Y-96586590D01*
X109094921Y-96521276D01*
X109094923Y-96521275D01*
X109100951Y-96518591D01*
X109255452Y-96406339D01*
X109383239Y-96264417D01*
X109478726Y-96099029D01*
X109537741Y-95917401D01*
X109540451Y-95891622D01*
X109547670Y-95822931D01*
X109574683Y-95757274D01*
X109632905Y-95716644D01*
X109699177Y-95712854D01*
X109810778Y-95736576D01*
X109810783Y-95736576D01*
X109817235Y-95737948D01*
X110008209Y-95737948D01*
X110014661Y-95736576D01*
X110014666Y-95736576D01*
X110126266Y-95712854D01*
X110195010Y-95698242D01*
X110274534Y-95662836D01*
X110363444Y-95623251D01*
X110363446Y-95623250D01*
X110369474Y-95620566D01*
X110523975Y-95508314D01*
X110651762Y-95366392D01*
X110747249Y-95201004D01*
X110806264Y-95019376D01*
X110819433Y-94894085D01*
X110825536Y-94836013D01*
X110826226Y-94829448D01*
X110809670Y-94671929D01*
X110806954Y-94646083D01*
X110806954Y-94646081D01*
X110806264Y-94639520D01*
X110747249Y-94457892D01*
X110724070Y-94417744D01*
X110655063Y-94298222D01*
X110651762Y-94292504D01*
X110523975Y-94150582D01*
X110369474Y-94038330D01*
X110363446Y-94035646D01*
X110363444Y-94035645D01*
X110201041Y-93963339D01*
X110201040Y-93963339D01*
X110195010Y-93960654D01*
X110070409Y-93934169D01*
X110014666Y-93922320D01*
X110014661Y-93922320D01*
X110008209Y-93920948D01*
X109817235Y-93920948D01*
X109810783Y-93922320D01*
X109810778Y-93922320D01*
X109755035Y-93934169D01*
X109630434Y-93960654D01*
X109624404Y-93963339D01*
X109624403Y-93963339D01*
X109462000Y-94035645D01*
X109461998Y-94035646D01*
X109455970Y-94038330D01*
X109301469Y-94150582D01*
X109173682Y-94292504D01*
X109170381Y-94298222D01*
X109101375Y-94417744D01*
X109078195Y-94457892D01*
X109019180Y-94639520D01*
X109018490Y-94646081D01*
X109018490Y-94646083D01*
X109009251Y-94733990D01*
X108982238Y-94799647D01*
X108924016Y-94840277D01*
X108857744Y-94844067D01*
X108746143Y-94820345D01*
X108746138Y-94820345D01*
X108739686Y-94818973D01*
X108548712Y-94818973D01*
X108542260Y-94820345D01*
X108542255Y-94820345D01*
X108462411Y-94837317D01*
X108361911Y-94858679D01*
X108355881Y-94861364D01*
X108355880Y-94861364D01*
X108193477Y-94933670D01*
X108193475Y-94933671D01*
X108187447Y-94936355D01*
X108032946Y-95048607D01*
X108028525Y-95053517D01*
X108028524Y-95053518D01*
X107930042Y-95162894D01*
X107905159Y-95190529D01*
X107809672Y-95355917D01*
X107750657Y-95537545D01*
X107749967Y-95544106D01*
X107749967Y-95544108D01*
X107731833Y-95716644D01*
X107730695Y-95727473D01*
X99252383Y-95727473D01*
X99337279Y-95580429D01*
X99396294Y-95398801D01*
X99399185Y-95371300D01*
X99415566Y-95215438D01*
X99416256Y-95208873D01*
X99411519Y-95163800D01*
X99396984Y-95025508D01*
X99396984Y-95025506D01*
X99396294Y-95018945D01*
X99337279Y-94837317D01*
X99241792Y-94671929D01*
X99225402Y-94653726D01*
X99194684Y-94589719D01*
X99203449Y-94519265D01*
X99232146Y-94478170D01*
X99259450Y-94452169D01*
X99300702Y-94412885D01*
X99401079Y-94261805D01*
X99465491Y-94092241D01*
X99480236Y-93987328D01*
X99487707Y-93934169D01*
X99516995Y-93869495D01*
X99536095Y-93851536D01*
X99541912Y-93848069D01*
X99547006Y-93843218D01*
X99547010Y-93843215D01*
X99608437Y-93784718D01*
X99671562Y-93752226D01*
X99742233Y-93759019D01*
X99754982Y-93764980D01*
X99770251Y-93773188D01*
X99779070Y-93775046D01*
X99779073Y-93775047D01*
X99907330Y-93802068D01*
X99907336Y-93802069D01*
X99911737Y-93802996D01*
X99916224Y-93803287D01*
X99916229Y-93803288D01*
X99942258Y-93804978D01*
X99982585Y-93807596D01*
X99987064Y-93807246D01*
X99987071Y-93807246D01*
X100060476Y-93801510D01*
X100126744Y-93796333D01*
X100261884Y-93744913D01*
X100265817Y-93742732D01*
X100265825Y-93742728D01*
X100320029Y-93712665D01*
X100323971Y-93710479D01*
X100439149Y-93623071D01*
X100968336Y-93086884D01*
X100971036Y-93083213D01*
X100971040Y-93083208D01*
X101052448Y-92972510D01*
X101055148Y-92968839D01*
X101088959Y-92905354D01*
X101138465Y-92767445D01*
X101139193Y-92754718D01*
X101140443Y-92751214D01*
X101140793Y-92749497D01*
X101141038Y-92749547D01*
X101163053Y-92687851D01*
X101219277Y-92644499D01*
X101238790Y-92638669D01*
X101325822Y-92620169D01*
X101325827Y-92620167D01*
X101332288Y-92618794D01*
X101338319Y-92616109D01*
X101500722Y-92543803D01*
X101500724Y-92543802D01*
X101506752Y-92541118D01*
X101661253Y-92428866D01*
X101762306Y-92316635D01*
X101784621Y-92291852D01*
X101784622Y-92291851D01*
X101789040Y-92286944D01*
X101884527Y-92121556D01*
X101943542Y-91939928D01*
X101955512Y-91826045D01*
X101962814Y-91756565D01*
X101963504Y-91750000D01*
X101951301Y-91633891D01*
X101944232Y-91566635D01*
X101944232Y-91566633D01*
X101943542Y-91560072D01*
X101884527Y-91378444D01*
X101789040Y-91213056D01*
X101661253Y-91071134D01*
X101506752Y-90958882D01*
X101500724Y-90956198D01*
X101500722Y-90956197D01*
X101338319Y-90883891D01*
X101338318Y-90883891D01*
X101332288Y-90881206D01*
X101238887Y-90861353D01*
X101151944Y-90842872D01*
X101151939Y-90842872D01*
X101145487Y-90841500D01*
X101138885Y-90841500D01*
X101132318Y-90840810D01*
X101132568Y-90838436D01*
X101074883Y-90821498D01*
X101028390Y-90767842D01*
X101025145Y-90760055D01*
X100986377Y-90657434D01*
X100952090Y-90595266D01*
X100949385Y-90591684D01*
X100949381Y-90591678D01*
X100867659Y-90483465D01*
X100867656Y-90483462D01*
X100864949Y-90479877D01*
X99933997Y-89556748D01*
X99669194Y-89294171D01*
X99358261Y-88985851D01*
X100486719Y-88985851D01*
X100503268Y-89182934D01*
X100504967Y-89188858D01*
X100555962Y-89366699D01*
X100557783Y-89373050D01*
X100648187Y-89548956D01*
X100771035Y-89703953D01*
X100775728Y-89707947D01*
X100775729Y-89707948D01*
X100839250Y-89762008D01*
X100921650Y-89832136D01*
X101094294Y-89928624D01*
X101282392Y-89989740D01*
X101478777Y-90013158D01*
X101484912Y-90012686D01*
X101484914Y-90012686D01*
X101669830Y-89998457D01*
X101669834Y-89998456D01*
X101675972Y-89997984D01*
X101866463Y-89944798D01*
X101871967Y-89942018D01*
X101871969Y-89942017D01*
X102037495Y-89858404D01*
X102037497Y-89858403D01*
X102042996Y-89855625D01*
X102198847Y-89733861D01*
X102328078Y-89584145D01*
X102425769Y-89412179D01*
X102488197Y-89224513D01*
X102512985Y-89028295D01*
X102513380Y-89000000D01*
X102507948Y-88944598D01*
X102521208Y-88874851D01*
X102570070Y-88823344D01*
X102639023Y-88806431D01*
X102648268Y-88807190D01*
X102674740Y-88810347D01*
X102674747Y-88810347D01*
X102680859Y-88811076D01*
X102686994Y-88810604D01*
X102686996Y-88810604D01*
X102871912Y-88796375D01*
X102871916Y-88796374D01*
X102878054Y-88795902D01*
X103068545Y-88742716D01*
X103074049Y-88739936D01*
X103074051Y-88739935D01*
X103239577Y-88656322D01*
X103239579Y-88656321D01*
X103245078Y-88653543D01*
X103400929Y-88531779D01*
X103504233Y-88412100D01*
X103526131Y-88386731D01*
X103526132Y-88386729D01*
X103530160Y-88382063D01*
X103605183Y-88250000D01*
X109086496Y-88250000D01*
X109087186Y-88256565D01*
X109104756Y-88423730D01*
X109106458Y-88439928D01*
X109165473Y-88621556D01*
X109260960Y-88786944D01*
X109265378Y-88791851D01*
X109265379Y-88791852D01*
X109293735Y-88823344D01*
X109388747Y-88928866D01*
X109458750Y-88979726D01*
X109530422Y-89031799D01*
X109543248Y-89041118D01*
X109549276Y-89043802D01*
X109549278Y-89043803D01*
X109711681Y-89116109D01*
X109717712Y-89118794D01*
X109811112Y-89138647D01*
X109898056Y-89157128D01*
X109898061Y-89157128D01*
X109904513Y-89158500D01*
X110095487Y-89158500D01*
X110101939Y-89157128D01*
X110101944Y-89157128D01*
X110188888Y-89138647D01*
X110282288Y-89118794D01*
X110288319Y-89116109D01*
X110450722Y-89043803D01*
X110450724Y-89043802D01*
X110456752Y-89041118D01*
X110469579Y-89031799D01*
X110541250Y-88979726D01*
X110611253Y-88928866D01*
X110706265Y-88823344D01*
X110734621Y-88791852D01*
X110734622Y-88791851D01*
X110739040Y-88786944D01*
X110834527Y-88621556D01*
X110893542Y-88439928D01*
X110895245Y-88423730D01*
X110912814Y-88256565D01*
X110913504Y-88250000D01*
X110893542Y-88060072D01*
X110834527Y-87878444D01*
X110826391Y-87864351D01*
X110750690Y-87733234D01*
X110739040Y-87713056D01*
X110721463Y-87693534D01*
X110615675Y-87576045D01*
X110615674Y-87576044D01*
X110611253Y-87571134D01*
X110476068Y-87472916D01*
X110462094Y-87462763D01*
X110462093Y-87462762D01*
X110456752Y-87458882D01*
X110450724Y-87456198D01*
X110450722Y-87456197D01*
X110288319Y-87383891D01*
X110288318Y-87383891D01*
X110282288Y-87381206D01*
X110182245Y-87359941D01*
X110101944Y-87342872D01*
X110101939Y-87342872D01*
X110095487Y-87341500D01*
X109904513Y-87341500D01*
X109898061Y-87342872D01*
X109898056Y-87342872D01*
X109817755Y-87359941D01*
X109717712Y-87381206D01*
X109711682Y-87383891D01*
X109711681Y-87383891D01*
X109549278Y-87456197D01*
X109549276Y-87456198D01*
X109543248Y-87458882D01*
X109537907Y-87462762D01*
X109537906Y-87462763D01*
X109523932Y-87472916D01*
X109388747Y-87571134D01*
X109384326Y-87576044D01*
X109384325Y-87576045D01*
X109278538Y-87693534D01*
X109260960Y-87713056D01*
X109249310Y-87733234D01*
X109173610Y-87864351D01*
X109165473Y-87878444D01*
X109106458Y-88060072D01*
X109086496Y-88250000D01*
X103605183Y-88250000D01*
X103627851Y-88210097D01*
X103690279Y-88022431D01*
X103715067Y-87826213D01*
X103715462Y-87797918D01*
X103696162Y-87601085D01*
X103693036Y-87590729D01*
X103655433Y-87466184D01*
X103638998Y-87411749D01*
X103546148Y-87237122D01*
X103447452Y-87116109D01*
X103425042Y-87088631D01*
X103425039Y-87088628D01*
X103421147Y-87083856D01*
X103414806Y-87078610D01*
X103273507Y-86961717D01*
X103273503Y-86961715D01*
X103268757Y-86957788D01*
X103094783Y-86863720D01*
X102905850Y-86805236D01*
X102899725Y-86804592D01*
X102899724Y-86804592D01*
X102715286Y-86785207D01*
X102715284Y-86785207D01*
X102709157Y-86784563D01*
X102629064Y-86791852D01*
X102518333Y-86801929D01*
X102518330Y-86801930D01*
X102512194Y-86802488D01*
X102506288Y-86804226D01*
X102506284Y-86804227D01*
X102415456Y-86830959D01*
X102322463Y-86858328D01*
X102317005Y-86861181D01*
X102317001Y-86861183D01*
X102226229Y-86908638D01*
X102147192Y-86949958D01*
X101993057Y-87073886D01*
X101865928Y-87225392D01*
X101862961Y-87230790D01*
X101862957Y-87230795D01*
X101784177Y-87374098D01*
X101770649Y-87398705D01*
X101768788Y-87404572D01*
X101768787Y-87404574D01*
X101750047Y-87463649D01*
X101710847Y-87587224D01*
X101688801Y-87783769D01*
X101693859Y-87843999D01*
X101694862Y-87855948D01*
X101680630Y-87925503D01*
X101631053Y-87976323D01*
X101556134Y-87991801D01*
X101513204Y-87987289D01*
X101513202Y-87987289D01*
X101507075Y-87986645D01*
X101424576Y-87994153D01*
X101316251Y-88004011D01*
X101316248Y-88004012D01*
X101310112Y-88004570D01*
X101304206Y-88006308D01*
X101304202Y-88006309D01*
X101229541Y-88028283D01*
X101120381Y-88060410D01*
X101114923Y-88063263D01*
X101114919Y-88063265D01*
X101039079Y-88102914D01*
X100945110Y-88152040D01*
X100790975Y-88275968D01*
X100663846Y-88427474D01*
X100660879Y-88432872D01*
X100660875Y-88432877D01*
X100604418Y-88535573D01*
X100568567Y-88600787D01*
X100566706Y-88606654D01*
X100566705Y-88606656D01*
X100553036Y-88649747D01*
X100508765Y-88789306D01*
X100486719Y-88985851D01*
X99358261Y-88985851D01*
X98972224Y-88603058D01*
X98969591Y-88600955D01*
X98969584Y-88600949D01*
X98889863Y-88537283D01*
X98889854Y-88537277D01*
X98887215Y-88535169D01*
X98841946Y-88506369D01*
X98796753Y-88484015D01*
X98751517Y-88461639D01*
X98751513Y-88461638D01*
X98744446Y-88458142D01*
X98736734Y-88456504D01*
X98736731Y-88456503D01*
X98607408Y-88429037D01*
X98607404Y-88429036D01*
X98603009Y-88428103D01*
X98598530Y-88427805D01*
X98598524Y-88427804D01*
X98536651Y-88423685D01*
X98536647Y-88423685D01*
X98532170Y-88423387D01*
X98387992Y-88434414D01*
X98252768Y-88485611D01*
X98248823Y-88487790D01*
X98248824Y-88487790D01*
X98194561Y-88517768D01*
X98194556Y-88517771D01*
X98190625Y-88519943D01*
X98132966Y-88563552D01*
X98083735Y-88600787D01*
X98075307Y-88607161D01*
X98072145Y-88610354D01*
X98072143Y-88610356D01*
X97706394Y-88979726D01*
X97602831Y-89084314D01*
X96217398Y-90483465D01*
X96117074Y-90584782D01*
X96054930Y-90619113D01*
X95984090Y-90614397D01*
X95936076Y-90582787D01*
X95085503Y-89685057D01*
X94784269Y-89367123D01*
X94526462Y-89095023D01*
X94521204Y-89089556D01*
X94521056Y-89089404D01*
X94520985Y-89089331D01*
X94518797Y-89087090D01*
X94518752Y-89087044D01*
X94518618Y-89086907D01*
X94513299Y-89081540D01*
X94427768Y-88996493D01*
X94237386Y-88807190D01*
X94067496Y-88638263D01*
X94033295Y-88576049D01*
X94038159Y-88505219D01*
X94080544Y-88448263D01*
X94146993Y-88423263D01*
X94182536Y-88425669D01*
X94299045Y-88450434D01*
X94299050Y-88450434D01*
X94305502Y-88451806D01*
X94496476Y-88451806D01*
X94502928Y-88450434D01*
X94502933Y-88450434D01*
X94607989Y-88428103D01*
X94683277Y-88412100D01*
X94762783Y-88376702D01*
X94851711Y-88337109D01*
X94851713Y-88337108D01*
X94857741Y-88334424D01*
X95012242Y-88222172D01*
X95023114Y-88210097D01*
X95135610Y-88085158D01*
X95135611Y-88085157D01*
X95140029Y-88080250D01*
X95200031Y-87976323D01*
X95232212Y-87920585D01*
X95232213Y-87920584D01*
X95235516Y-87914862D01*
X95294531Y-87733234D01*
X95296603Y-87713525D01*
X95313803Y-87549871D01*
X95314493Y-87543306D01*
X95310222Y-87502671D01*
X95295221Y-87359941D01*
X95295221Y-87359939D01*
X95294531Y-87353378D01*
X95235516Y-87171750D01*
X95212310Y-87131556D01*
X95195572Y-87062561D01*
X95212310Y-87005556D01*
X95232213Y-86971083D01*
X95232214Y-86971082D01*
X95235517Y-86965360D01*
X95294532Y-86783732D01*
X95295646Y-86773139D01*
X95313804Y-86600369D01*
X95314494Y-86593804D01*
X95298321Y-86439928D01*
X95295222Y-86410439D01*
X95295222Y-86410437D01*
X95294532Y-86403876D01*
X95244534Y-86250000D01*
X99836496Y-86250000D01*
X99837186Y-86256565D01*
X99854579Y-86422047D01*
X99856458Y-86439928D01*
X99915473Y-86621556D01*
X100010960Y-86786944D01*
X100015378Y-86791851D01*
X100015379Y-86791852D01*
X100134325Y-86923955D01*
X100138747Y-86928866D01*
X100293248Y-87041118D01*
X100299276Y-87043802D01*
X100299278Y-87043803D01*
X100399964Y-87088631D01*
X100467712Y-87118794D01*
X100561112Y-87138647D01*
X100648056Y-87157128D01*
X100648061Y-87157128D01*
X100654513Y-87158500D01*
X100845487Y-87158500D01*
X100851939Y-87157128D01*
X100851944Y-87157128D01*
X100938888Y-87138647D01*
X101032288Y-87118794D01*
X101100036Y-87088631D01*
X101200722Y-87043803D01*
X101200724Y-87043802D01*
X101206752Y-87041118D01*
X101361253Y-86928866D01*
X101365675Y-86923955D01*
X101484621Y-86791852D01*
X101484622Y-86791851D01*
X101489040Y-86786944D01*
X101584527Y-86621556D01*
X101643542Y-86439928D01*
X101645422Y-86422047D01*
X101662814Y-86256565D01*
X101663504Y-86250000D01*
X101651597Y-86136711D01*
X101644232Y-86066635D01*
X101644232Y-86066633D01*
X101643542Y-86060072D01*
X101584527Y-85878444D01*
X101565475Y-85845444D01*
X101497492Y-85727695D01*
X101489040Y-85713056D01*
X101465288Y-85686676D01*
X101365675Y-85576045D01*
X101365674Y-85576044D01*
X101361253Y-85571134D01*
X101206752Y-85458882D01*
X101200724Y-85456198D01*
X101200722Y-85456197D01*
X101038319Y-85383891D01*
X101038318Y-85383891D01*
X101032288Y-85381206D01*
X100933534Y-85360215D01*
X100851944Y-85342872D01*
X100851939Y-85342872D01*
X100845487Y-85341500D01*
X100654513Y-85341500D01*
X100648061Y-85342872D01*
X100648056Y-85342872D01*
X100566466Y-85360215D01*
X100467712Y-85381206D01*
X100461682Y-85383891D01*
X100461681Y-85383891D01*
X100299278Y-85456197D01*
X100299276Y-85456198D01*
X100293248Y-85458882D01*
X100138747Y-85571134D01*
X100134326Y-85576044D01*
X100134325Y-85576045D01*
X100034713Y-85686676D01*
X100010960Y-85713056D01*
X100002508Y-85727695D01*
X99934526Y-85845444D01*
X99915473Y-85878444D01*
X99856458Y-86060072D01*
X99855768Y-86066633D01*
X99855768Y-86066635D01*
X99848403Y-86136711D01*
X99836496Y-86250000D01*
X95244534Y-86250000D01*
X95235517Y-86222248D01*
X95223343Y-86201161D01*
X95149759Y-86073711D01*
X95140030Y-86056860D01*
X95017890Y-85921209D01*
X95016665Y-85919849D01*
X95016664Y-85919848D01*
X95012243Y-85914938D01*
X94911009Y-85841387D01*
X94863084Y-85806567D01*
X94863083Y-85806566D01*
X94857742Y-85802686D01*
X94851714Y-85800002D01*
X94851712Y-85800001D01*
X94689309Y-85727695D01*
X94689308Y-85727695D01*
X94683278Y-85725010D01*
X94589878Y-85705157D01*
X94502934Y-85686676D01*
X94502929Y-85686676D01*
X94496477Y-85685304D01*
X94305503Y-85685304D01*
X94299051Y-85686676D01*
X94299046Y-85686676D01*
X94212102Y-85705157D01*
X94118702Y-85725010D01*
X94112672Y-85727695D01*
X94112671Y-85727695D01*
X93950268Y-85800001D01*
X93950266Y-85800002D01*
X93944238Y-85802686D01*
X93938897Y-85806566D01*
X93938896Y-85806567D01*
X93890971Y-85841387D01*
X93789737Y-85914938D01*
X93785316Y-85919848D01*
X93785315Y-85919849D01*
X93784091Y-85921209D01*
X93661950Y-86056860D01*
X93658651Y-86062573D01*
X93658648Y-86062578D01*
X93652221Y-86073711D01*
X93600838Y-86122704D01*
X93543102Y-86136711D01*
X93470167Y-86136711D01*
X93463715Y-86138083D01*
X93463710Y-86138083D01*
X93329669Y-86166575D01*
X93283366Y-86176417D01*
X93227789Y-86201161D01*
X93157424Y-86210595D01*
X93102482Y-86187991D01*
X93097972Y-86184714D01*
X93076701Y-86169260D01*
X93070673Y-86166576D01*
X93070671Y-86166575D01*
X92908268Y-86094269D01*
X92908267Y-86094269D01*
X92902237Y-86091584D01*
X92784862Y-86066635D01*
X92721893Y-86053250D01*
X92721888Y-86053250D01*
X92715436Y-86051878D01*
X92524462Y-86051878D01*
X92518010Y-86053250D01*
X92518005Y-86053250D01*
X92455036Y-86066635D01*
X92337661Y-86091584D01*
X92331631Y-86094269D01*
X92331630Y-86094269D01*
X92169227Y-86166575D01*
X92169225Y-86166576D01*
X92163197Y-86169260D01*
X92008696Y-86281512D01*
X91880909Y-86423434D01*
X91785422Y-86588822D01*
X91772839Y-86627548D01*
X91755993Y-86679395D01*
X91715919Y-86738000D01*
X91650522Y-86765637D01*
X91642192Y-86766314D01*
X91636951Y-86766565D01*
X91555270Y-86770480D01*
X91524251Y-86781226D01*
X91422907Y-86816334D01*
X91422905Y-86816335D01*
X91418644Y-86817811D01*
X91368130Y-86843871D01*
X91298422Y-86857327D01*
X91232503Y-86830959D01*
X91191305Y-86773139D01*
X91185053Y-86745064D01*
X91170222Y-86603953D01*
X91170222Y-86603951D01*
X91169532Y-86597390D01*
X91110517Y-86415762D01*
X91015030Y-86250374D01*
X90970719Y-86201161D01*
X90891665Y-86113363D01*
X90891664Y-86113362D01*
X90887243Y-86108452D01*
X90782962Y-86032687D01*
X90738084Y-86000081D01*
X90738083Y-86000080D01*
X90732742Y-85996200D01*
X90726714Y-85993516D01*
X90726712Y-85993515D01*
X90564309Y-85921209D01*
X90564308Y-85921209D01*
X90558278Y-85918524D01*
X90464877Y-85898671D01*
X90377934Y-85880190D01*
X90377929Y-85880190D01*
X90371477Y-85878818D01*
X90180503Y-85878818D01*
X90174051Y-85880190D01*
X90174046Y-85880190D01*
X90087103Y-85898671D01*
X89993702Y-85918524D01*
X89987675Y-85921207D01*
X89987667Y-85921210D01*
X89823355Y-85994366D01*
X89752988Y-86003800D01*
X89698046Y-85981195D01*
X89619759Y-85924316D01*
X89619758Y-85924315D01*
X89614417Y-85920435D01*
X89608389Y-85917751D01*
X89608387Y-85917750D01*
X89445984Y-85845444D01*
X89445983Y-85845444D01*
X89439953Y-85842759D01*
X89352443Y-85824158D01*
X89302293Y-85813498D01*
X89239819Y-85779769D01*
X89205498Y-85717620D01*
X89210226Y-85646781D01*
X89254429Y-85588315D01*
X89283421Y-85567251D01*
X89336253Y-85528866D01*
X89399267Y-85458882D01*
X89459621Y-85391852D01*
X89459622Y-85391851D01*
X89464040Y-85386944D01*
X89539438Y-85256351D01*
X89556223Y-85227279D01*
X89556224Y-85227278D01*
X89559527Y-85221556D01*
X89618542Y-85039928D01*
X89621007Y-85016480D01*
X89637814Y-84856565D01*
X89638504Y-84850000D01*
X89618542Y-84660072D01*
X89559527Y-84478444D01*
X89536766Y-84439020D01*
X89522314Y-84413990D01*
X89464040Y-84313056D01*
X89459200Y-84307680D01*
X89340675Y-84176045D01*
X89340674Y-84176044D01*
X89336253Y-84171134D01*
X89181752Y-84058882D01*
X89175724Y-84056198D01*
X89175722Y-84056197D01*
X89013319Y-83983891D01*
X89013318Y-83983891D01*
X89007288Y-83981206D01*
X88913887Y-83961353D01*
X88826944Y-83942872D01*
X88826939Y-83942872D01*
X88820487Y-83941500D01*
X88734000Y-83941500D01*
X88665879Y-83921498D01*
X88619386Y-83867842D01*
X88608000Y-83815500D01*
X88608000Y-82475000D01*
X91736496Y-82475000D01*
X91737186Y-82481565D01*
X91745783Y-82563357D01*
X91756458Y-82664928D01*
X91815473Y-82846556D01*
X91910960Y-83011944D01*
X91915378Y-83016851D01*
X91915379Y-83016852D01*
X92010384Y-83122366D01*
X92038747Y-83153866D01*
X92067428Y-83174704D01*
X92148508Y-83233612D01*
X92193248Y-83266118D01*
X92199276Y-83268802D01*
X92199278Y-83268803D01*
X92326627Y-83325502D01*
X92367712Y-83343794D01*
X92461112Y-83363647D01*
X92548056Y-83382128D01*
X92548061Y-83382128D01*
X92554513Y-83383500D01*
X92745487Y-83383500D01*
X92751939Y-83382128D01*
X92751944Y-83382128D01*
X92838888Y-83363647D01*
X92932288Y-83343794D01*
X92973373Y-83325502D01*
X93100722Y-83268803D01*
X93100724Y-83268802D01*
X93106752Y-83266118D01*
X93151493Y-83233612D01*
X93232572Y-83174704D01*
X93261253Y-83153866D01*
X93289616Y-83122366D01*
X93384621Y-83016852D01*
X93384622Y-83016851D01*
X93389040Y-83011944D01*
X93484527Y-82846556D01*
X93543542Y-82664928D01*
X93554218Y-82563357D01*
X93562814Y-82481565D01*
X93563504Y-82475000D01*
X93543542Y-82285072D01*
X93484527Y-82103444D01*
X93389040Y-81938056D01*
X93361193Y-81907128D01*
X93265675Y-81801045D01*
X93265674Y-81801044D01*
X93261253Y-81796134D01*
X93162157Y-81724136D01*
X93112094Y-81687763D01*
X93112093Y-81687762D01*
X93106752Y-81683882D01*
X93100724Y-81681198D01*
X93100722Y-81681197D01*
X92938319Y-81608891D01*
X92938318Y-81608891D01*
X92932288Y-81606206D01*
X92838887Y-81586353D01*
X92751944Y-81567872D01*
X92751939Y-81567872D01*
X92745487Y-81566500D01*
X92554513Y-81566500D01*
X92548061Y-81567872D01*
X92548056Y-81567872D01*
X92461113Y-81586353D01*
X92367712Y-81606206D01*
X92361682Y-81608891D01*
X92361681Y-81608891D01*
X92199278Y-81681197D01*
X92199276Y-81681198D01*
X92193248Y-81683882D01*
X92187907Y-81687762D01*
X92187906Y-81687763D01*
X92137843Y-81724136D01*
X92038747Y-81796134D01*
X92034326Y-81801044D01*
X92034325Y-81801045D01*
X91938808Y-81907128D01*
X91910960Y-81938056D01*
X91815473Y-82103444D01*
X91756458Y-82285072D01*
X91736496Y-82475000D01*
X88608000Y-82475000D01*
X88608000Y-81495651D01*
X88628002Y-81427530D01*
X88681658Y-81381037D01*
X88751932Y-81370933D01*
X88760189Y-81372402D01*
X88821736Y-81385485D01*
X88923556Y-81407128D01*
X88923561Y-81407128D01*
X88930013Y-81408500D01*
X89120987Y-81408500D01*
X89127439Y-81407128D01*
X89127444Y-81407128D01*
X89214387Y-81388647D01*
X89307788Y-81368794D01*
X89315701Y-81365271D01*
X89476222Y-81293803D01*
X89476224Y-81293802D01*
X89482252Y-81291118D01*
X89636753Y-81178866D01*
X89764540Y-81036944D01*
X89860027Y-80871556D01*
X89919042Y-80689928D01*
X89923423Y-80648250D01*
X89938314Y-80506565D01*
X89939004Y-80500000D01*
X89931124Y-80425028D01*
X89919732Y-80316635D01*
X89919732Y-80316633D01*
X89919042Y-80310072D01*
X89860027Y-80128444D01*
X89856190Y-80121797D01*
X89799355Y-80023357D01*
X89764540Y-79963056D01*
X89753788Y-79951114D01*
X89641175Y-79826045D01*
X89641174Y-79826044D01*
X89636753Y-79821134D01*
X89482252Y-79708882D01*
X89476224Y-79706198D01*
X89476222Y-79706197D01*
X89313819Y-79633891D01*
X89313818Y-79633891D01*
X89307788Y-79631206D01*
X89212647Y-79610983D01*
X89127444Y-79592872D01*
X89127439Y-79592872D01*
X89120987Y-79591500D01*
X89026396Y-79591500D01*
X88958275Y-79571498D01*
X88937301Y-79554595D01*
X88672907Y-79290201D01*
X88638881Y-79227889D01*
X88643946Y-79157074D01*
X88668366Y-79116796D01*
X88746920Y-79029553D01*
X88746921Y-79029552D01*
X88751339Y-79024645D01*
X88846826Y-78859257D01*
X88905841Y-78677629D01*
X88911011Y-78628444D01*
X88925113Y-78494266D01*
X88925803Y-78487701D01*
X88922697Y-78458148D01*
X88906531Y-78304336D01*
X88906531Y-78304334D01*
X88905841Y-78297773D01*
X88846826Y-78116145D01*
X88751339Y-77950757D01*
X88698314Y-77891866D01*
X88627974Y-77813746D01*
X88627973Y-77813745D01*
X88623552Y-77808835D01*
X88524456Y-77736837D01*
X88474393Y-77700464D01*
X88474392Y-77700463D01*
X88469051Y-77696583D01*
X88463023Y-77693899D01*
X88463021Y-77693898D01*
X88346107Y-77641845D01*
X88292011Y-77595865D01*
X88271362Y-77527938D01*
X88290714Y-77459630D01*
X88308261Y-77437643D01*
X90165711Y-75580194D01*
X90228023Y-75546168D01*
X90239009Y-75544283D01*
X90249286Y-75542985D01*
X90256657Y-75540066D01*
X90256659Y-75540066D01*
X90290401Y-75526707D01*
X90301631Y-75522862D01*
X90336472Y-75512740D01*
X90336473Y-75512740D01*
X90344082Y-75510529D01*
X90350901Y-75506496D01*
X90350906Y-75506494D01*
X90361517Y-75500218D01*
X90379265Y-75491523D01*
X90398106Y-75484063D01*
X90433876Y-75458075D01*
X90443796Y-75451559D01*
X90475024Y-75433091D01*
X90475027Y-75433089D01*
X90481851Y-75429053D01*
X90496172Y-75414732D01*
X90511206Y-75401891D01*
X90521183Y-75394642D01*
X90527596Y-75389983D01*
X90555787Y-75355906D01*
X90563777Y-75347127D01*
X91059549Y-74851355D01*
X91121861Y-74817329D01*
X91173762Y-74816979D01*
X91353597Y-74853567D01*
X91358772Y-74853757D01*
X91358774Y-74853757D01*
X91571673Y-74861564D01*
X91571677Y-74861564D01*
X91576837Y-74861753D01*
X91581957Y-74861097D01*
X91581959Y-74861097D01*
X91793288Y-74834025D01*
X91793289Y-74834025D01*
X91798416Y-74833368D01*
X91806656Y-74830896D01*
X92007429Y-74770661D01*
X92007434Y-74770659D01*
X92012384Y-74769174D01*
X92212994Y-74670896D01*
X92394860Y-74541173D01*
X92553096Y-74383489D01*
X92568826Y-74361599D01*
X92680435Y-74206277D01*
X92683453Y-74202077D01*
X92701060Y-74166453D01*
X92780136Y-74006453D01*
X92780137Y-74006451D01*
X92782430Y-74001811D01*
X92827106Y-73854767D01*
X92845865Y-73793023D01*
X92845865Y-73793021D01*
X92847370Y-73788069D01*
X92876529Y-73566590D01*
X92878156Y-73500000D01*
X92859852Y-73277361D01*
X92805431Y-73060702D01*
X92716354Y-72855840D01*
X92595014Y-72668277D01*
X92444670Y-72503051D01*
X92440619Y-72499852D01*
X92440615Y-72499848D01*
X92273414Y-72367800D01*
X92273410Y-72367798D01*
X92269359Y-72364598D01*
X92073789Y-72256638D01*
X92068919Y-72254913D01*
X92068909Y-72254909D01*
X92062874Y-72252772D01*
X92005338Y-72211178D01*
X91979423Y-72145080D01*
X91993358Y-72075464D01*
X92042717Y-72024433D01*
X92104935Y-72008000D01*
X105237390Y-72008000D01*
X105305511Y-72028002D01*
X105326485Y-72044905D01*
X106212371Y-72930791D01*
X106246397Y-72993103D01*
X106241332Y-73063918D01*
X106198785Y-73120754D01*
X106149796Y-73143063D01*
X106039255Y-73166862D01*
X106033743Y-73169207D01*
X106033741Y-73169208D01*
X105986511Y-73189305D01*
X105844621Y-73249680D01*
X105669158Y-73367808D01*
X105665033Y-73371549D01*
X105059787Y-73976794D01*
X104958903Y-74098959D01*
X104857487Y-74284583D01*
X104821139Y-74398134D01*
X104799576Y-74465499D01*
X104793002Y-74486035D01*
X104792288Y-74491981D01*
X104770636Y-74672218D01*
X104767773Y-74696047D01*
X104768196Y-74702022D01*
X104768196Y-74702025D01*
X104779460Y-74861097D01*
X104782713Y-74907042D01*
X104784260Y-74912835D01*
X104784260Y-74912836D01*
X104827185Y-75073595D01*
X104837280Y-75111404D01*
X104839894Y-75116799D01*
X104839895Y-75116802D01*
X104883533Y-75206870D01*
X104929507Y-75301761D01*
X105056066Y-75471244D01*
X105212389Y-75613736D01*
X105217503Y-75616864D01*
X105217506Y-75616866D01*
X105277559Y-75653594D01*
X105325236Y-75706200D01*
X105336904Y-75776231D01*
X105308858Y-75841453D01*
X105250002Y-75881159D01*
X105179207Y-75882791D01*
X105146716Y-75874085D01*
X105146714Y-75874085D01*
X105141401Y-75872661D01*
X104926388Y-75853850D01*
X104711375Y-75872661D01*
X104706062Y-75874085D01*
X104706060Y-75874085D01*
X104508205Y-75927100D01*
X104508203Y-75927101D01*
X104502895Y-75928523D01*
X104497914Y-75930845D01*
X104497913Y-75930846D01*
X104312269Y-76017413D01*
X104312264Y-76017416D01*
X104307282Y-76019739D01*
X104130481Y-76143537D01*
X103977863Y-76296155D01*
X103854065Y-76472956D01*
X103851742Y-76477938D01*
X103851739Y-76477943D01*
X103791261Y-76607639D01*
X103762849Y-76668569D01*
X103761427Y-76673877D01*
X103761426Y-76673879D01*
X103708411Y-76871734D01*
X103706987Y-76877049D01*
X103688176Y-77092062D01*
X103706987Y-77307075D01*
X103708411Y-77312388D01*
X103708411Y-77312390D01*
X103754222Y-77483357D01*
X103762849Y-77515555D01*
X103765171Y-77520536D01*
X103765172Y-77520537D01*
X103851739Y-77706181D01*
X103851742Y-77706186D01*
X103854065Y-77711168D01*
X103874147Y-77739848D01*
X103972660Y-77880538D01*
X103977863Y-77887969D01*
X104090421Y-78000527D01*
X104124447Y-78062839D01*
X104119382Y-78133654D01*
X104076835Y-78190490D01*
X104052578Y-78204727D01*
X104049285Y-78206193D01*
X104049276Y-78206198D01*
X104043248Y-78208882D01*
X103888747Y-78321134D01*
X103760960Y-78463056D01*
X103665473Y-78628444D01*
X103606458Y-78810072D01*
X103605768Y-78816633D01*
X103605768Y-78816635D01*
X103594426Y-78924547D01*
X103586496Y-79000000D01*
X103587186Y-79006565D01*
X103605052Y-79176547D01*
X103606458Y-79189928D01*
X103665473Y-79371556D01*
X103668776Y-79377278D01*
X103668777Y-79377279D01*
X103687449Y-79409619D01*
X103760960Y-79536944D01*
X103765378Y-79541851D01*
X103765379Y-79541852D01*
X103810082Y-79591500D01*
X103888747Y-79678866D01*
X104043248Y-79791118D01*
X104049276Y-79793802D01*
X104049278Y-79793803D01*
X104211681Y-79866109D01*
X104217712Y-79868794D01*
X104311113Y-79888647D01*
X104398056Y-79907128D01*
X104398061Y-79907128D01*
X104404513Y-79908500D01*
X104595487Y-79908500D01*
X104601939Y-79907128D01*
X104601944Y-79907128D01*
X104688887Y-79888647D01*
X104782288Y-79868794D01*
X104788319Y-79866109D01*
X104950722Y-79793803D01*
X104950724Y-79793802D01*
X104956752Y-79791118D01*
X105111253Y-79678866D01*
X105189918Y-79591500D01*
X105234621Y-79541852D01*
X105234622Y-79541851D01*
X105239040Y-79536944D01*
X105312551Y-79409619D01*
X105331223Y-79377279D01*
X105331224Y-79377278D01*
X105334527Y-79371556D01*
X105393542Y-79189928D01*
X105394949Y-79176547D01*
X105412814Y-79006565D01*
X105413504Y-79000000D01*
X105405574Y-78924547D01*
X105394232Y-78816635D01*
X105394232Y-78816633D01*
X105393542Y-78810072D01*
X105334527Y-78628444D01*
X105239040Y-78463056D01*
X105237455Y-78461296D01*
X105214125Y-78395910D01*
X105230204Y-78326758D01*
X105281117Y-78277277D01*
X105307309Y-78267008D01*
X105344569Y-78257025D01*
X105344576Y-78257023D01*
X105349881Y-78255601D01*
X105354863Y-78253278D01*
X105540507Y-78166711D01*
X105540512Y-78166708D01*
X105545494Y-78164385D01*
X105647739Y-78092792D01*
X105717784Y-78043746D01*
X105717787Y-78043744D01*
X105722295Y-78040587D01*
X105874913Y-77887969D01*
X105880117Y-77880538D01*
X105978629Y-77739848D01*
X105998711Y-77711168D01*
X106001034Y-77706186D01*
X106001037Y-77706181D01*
X106087604Y-77520537D01*
X106087605Y-77520536D01*
X106089927Y-77515555D01*
X106098555Y-77483357D01*
X106144365Y-77312390D01*
X106144365Y-77312388D01*
X106145789Y-77307075D01*
X106164600Y-77092062D01*
X106145789Y-76877049D01*
X106144365Y-76871734D01*
X106091350Y-76673879D01*
X106091349Y-76673877D01*
X106089927Y-76668569D01*
X106061515Y-76607639D01*
X106001037Y-76477943D01*
X106001034Y-76477938D01*
X105998711Y-76472956D01*
X105874913Y-76296155D01*
X105722295Y-76143537D01*
X105572275Y-76038491D01*
X105527947Y-75983034D01*
X105520638Y-75912414D01*
X105552669Y-75849054D01*
X105613870Y-75813069D01*
X105665666Y-75811061D01*
X105799429Y-75833806D01*
X105878584Y-75832079D01*
X106004902Y-75829322D01*
X106004903Y-75829322D01*
X106010900Y-75829191D01*
X106016760Y-75827929D01*
X106016763Y-75827929D01*
X106154162Y-75798348D01*
X106217685Y-75784672D01*
X106223197Y-75782327D01*
X106223199Y-75782326D01*
X106389870Y-75711406D01*
X106412319Y-75701854D01*
X106587782Y-75583726D01*
X106591907Y-75579985D01*
X107197153Y-74974740D01*
X107298037Y-74852575D01*
X107399453Y-74666951D01*
X107463938Y-74465499D01*
X107464653Y-74459543D01*
X107465014Y-74457890D01*
X107499069Y-74395594D01*
X107561398Y-74361599D01*
X107632211Y-74366697D01*
X107677217Y-74395637D01*
X111162118Y-77880538D01*
X111196144Y-77942850D01*
X111191079Y-78013665D01*
X111148532Y-78070501D01*
X111099543Y-78092810D01*
X110989002Y-78116609D01*
X110983490Y-78118954D01*
X110983488Y-78118955D01*
X110954697Y-78131206D01*
X110794368Y-78199427D01*
X110618905Y-78317555D01*
X110614780Y-78321296D01*
X110009534Y-78926541D01*
X110007629Y-78928847D01*
X110007627Y-78928850D01*
X110002741Y-78934767D01*
X109908650Y-79048706D01*
X109807234Y-79234330D01*
X109770263Y-79349829D01*
X109749323Y-79415246D01*
X109742749Y-79435782D01*
X109739073Y-79466380D01*
X109720200Y-79623489D01*
X109717520Y-79645794D01*
X109717943Y-79651769D01*
X109717943Y-79651772D01*
X109730683Y-79831689D01*
X109732460Y-79856789D01*
X109734007Y-79862582D01*
X109734007Y-79862583D01*
X109736235Y-79870927D01*
X109734483Y-79941902D01*
X109694638Y-80000663D01*
X109629349Y-80028554D01*
X109559346Y-80016719D01*
X109511287Y-79975703D01*
X109502432Y-79963056D01*
X109437389Y-79870166D01*
X109413606Y-79836200D01*
X109413604Y-79836197D01*
X109410447Y-79831689D01*
X109257829Y-79679071D01*
X109081028Y-79555273D01*
X109076046Y-79552950D01*
X109076041Y-79552947D01*
X108890397Y-79466380D01*
X108890396Y-79466379D01*
X108885415Y-79464057D01*
X108880107Y-79462635D01*
X108880105Y-79462634D01*
X108682250Y-79409619D01*
X108682248Y-79409619D01*
X108676935Y-79408195D01*
X108461922Y-79389384D01*
X108246909Y-79408195D01*
X108241596Y-79409619D01*
X108241594Y-79409619D01*
X108043739Y-79462634D01*
X108043737Y-79462635D01*
X108038429Y-79464057D01*
X108033448Y-79466379D01*
X108033447Y-79466380D01*
X107847803Y-79552947D01*
X107847798Y-79552950D01*
X107842816Y-79555273D01*
X107666015Y-79679071D01*
X107513397Y-79831689D01*
X107510240Y-79836197D01*
X107510238Y-79836200D01*
X107486455Y-79870166D01*
X107389599Y-80008490D01*
X107387276Y-80013472D01*
X107387273Y-80013477D01*
X107321508Y-80154511D01*
X107298383Y-80204103D01*
X107296961Y-80209411D01*
X107296960Y-80209413D01*
X107265709Y-80326045D01*
X107242521Y-80412583D01*
X107223710Y-80627596D01*
X107242521Y-80842609D01*
X107243945Y-80847922D01*
X107243945Y-80847924D01*
X107282935Y-80993435D01*
X107298383Y-81051089D01*
X107300705Y-81056070D01*
X107300706Y-81056071D01*
X107387273Y-81241715D01*
X107387276Y-81241720D01*
X107389599Y-81246702D01*
X107458912Y-81345690D01*
X107502892Y-81408500D01*
X107513397Y-81423503D01*
X107666015Y-81576121D01*
X107670523Y-81579278D01*
X107670526Y-81579280D01*
X107712815Y-81608891D01*
X107842816Y-81699919D01*
X107847798Y-81702242D01*
X107847803Y-81702245D01*
X108033447Y-81788812D01*
X108038429Y-81791135D01*
X108043737Y-81792557D01*
X108043739Y-81792558D01*
X108241594Y-81845573D01*
X108241596Y-81845573D01*
X108246909Y-81846997D01*
X108461922Y-81865808D01*
X108676935Y-81846997D01*
X108682248Y-81845573D01*
X108682250Y-81845573D01*
X108880105Y-81792558D01*
X108880107Y-81792557D01*
X108885415Y-81791135D01*
X108890397Y-81788812D01*
X109076041Y-81702245D01*
X109076046Y-81702242D01*
X109081028Y-81699919D01*
X109211029Y-81608891D01*
X109253318Y-81579280D01*
X109253321Y-81579278D01*
X109257829Y-81576121D01*
X109410447Y-81423503D01*
X109420953Y-81408500D01*
X109464932Y-81345690D01*
X109534245Y-81246702D01*
X109536568Y-81241720D01*
X109536571Y-81241715D01*
X109623138Y-81056071D01*
X109623139Y-81056070D01*
X109625461Y-81051089D01*
X109640910Y-80993435D01*
X109679899Y-80847924D01*
X109679899Y-80847922D01*
X109681323Y-80842609D01*
X109700134Y-80627596D01*
X109681323Y-80412583D01*
X109672985Y-80381465D01*
X109674675Y-80310489D01*
X109714469Y-80251693D01*
X109779734Y-80223745D01*
X109849747Y-80235519D01*
X109895650Y-80273465D01*
X110005813Y-80420991D01*
X110162136Y-80563483D01*
X110167254Y-80566613D01*
X110337471Y-80670719D01*
X110337477Y-80670722D01*
X110342585Y-80673846D01*
X110540647Y-80748095D01*
X110626010Y-80762610D01*
X110743259Y-80782547D01*
X110743260Y-80782547D01*
X110749176Y-80783553D01*
X110828331Y-80781826D01*
X110954649Y-80779069D01*
X110954650Y-80779069D01*
X110960647Y-80778938D01*
X110966507Y-80777676D01*
X110966510Y-80777676D01*
X111081437Y-80752933D01*
X111167432Y-80734419D01*
X111172944Y-80732074D01*
X111172946Y-80732073D01*
X111309787Y-80673846D01*
X111362066Y-80651601D01*
X111537529Y-80533473D01*
X111541654Y-80529732D01*
X112146900Y-79924487D01*
X112158124Y-79910896D01*
X112192891Y-79868794D01*
X112247784Y-79802322D01*
X112349200Y-79616698D01*
X112413685Y-79415246D01*
X112414400Y-79409290D01*
X112414761Y-79407637D01*
X112448816Y-79345341D01*
X112511145Y-79311346D01*
X112581958Y-79316444D01*
X112626964Y-79345384D01*
X113955095Y-80673515D01*
X113989121Y-80735827D01*
X113992000Y-80762610D01*
X113992000Y-91668838D01*
X113971998Y-91736959D01*
X113918342Y-91783452D01*
X113848068Y-91793556D01*
X113791939Y-91770774D01*
X113712094Y-91712763D01*
X113712093Y-91712762D01*
X113706752Y-91708882D01*
X113700724Y-91706198D01*
X113700722Y-91706197D01*
X113538319Y-91633891D01*
X113538318Y-91633891D01*
X113532288Y-91631206D01*
X113438887Y-91611353D01*
X113351944Y-91592872D01*
X113351939Y-91592872D01*
X113345487Y-91591500D01*
X113154513Y-91591500D01*
X113148061Y-91592872D01*
X113148056Y-91592872D01*
X113061113Y-91611353D01*
X112967712Y-91631206D01*
X112961682Y-91633891D01*
X112961681Y-91633891D01*
X112799278Y-91706197D01*
X112799276Y-91706198D01*
X112793248Y-91708882D01*
X112638747Y-91821134D01*
X112634326Y-91826044D01*
X112634325Y-91826045D01*
X112531785Y-91939928D01*
X112510960Y-91963056D01*
X112415473Y-92128444D01*
X112356458Y-92310072D01*
X112355768Y-92316633D01*
X112355768Y-92316635D01*
X112343972Y-92428866D01*
X112336496Y-92500000D01*
X112337186Y-92506565D01*
X112355662Y-92682351D01*
X112356458Y-92689928D01*
X112415473Y-92871556D01*
X112510960Y-93036944D01*
X112638747Y-93178866D01*
X112793248Y-93291118D01*
X112799276Y-93293802D01*
X112799278Y-93293803D01*
X112961681Y-93366109D01*
X112967712Y-93368794D01*
X113061113Y-93388647D01*
X113148056Y-93407128D01*
X113148061Y-93407128D01*
X113154513Y-93408500D01*
X113345487Y-93408500D01*
X113351939Y-93407128D01*
X113351944Y-93407128D01*
X113438888Y-93388647D01*
X113532288Y-93368794D01*
X113538319Y-93366109D01*
X113700722Y-93293803D01*
X113700724Y-93293802D01*
X113706752Y-93291118D01*
X113712094Y-93287237D01*
X113791939Y-93229226D01*
X113858807Y-93205367D01*
X113927958Y-93221448D01*
X113977439Y-93272362D01*
X113992000Y-93331162D01*
X113992000Y-110866000D01*
X113971998Y-110934121D01*
X113918342Y-110980614D01*
X113866000Y-110992000D01*
X76634000Y-110992000D01*
X76565879Y-110971998D01*
X76519386Y-110918342D01*
X76508000Y-110866000D01*
X76508000Y-109487966D01*
X77408257Y-109487966D01*
X77438565Y-109622446D01*
X77441645Y-109632275D01*
X77521770Y-109829603D01*
X77526413Y-109838794D01*
X77637694Y-110020388D01*
X77643777Y-110028699D01*
X77783213Y-110189667D01*
X77790580Y-110196883D01*
X77954434Y-110332916D01*
X77962881Y-110338831D01*
X78146756Y-110446279D01*
X78156042Y-110450729D01*
X78355001Y-110526703D01*
X78364899Y-110529579D01*
X78468250Y-110550606D01*
X78482299Y-110549410D01*
X78486000Y-110539065D01*
X78486000Y-110538517D01*
X78994000Y-110538517D01*
X78998064Y-110552359D01*
X79011478Y-110554393D01*
X79018184Y-110553534D01*
X79028262Y-110551392D01*
X79232255Y-110490191D01*
X79241842Y-110486433D01*
X79433095Y-110392739D01*
X79441945Y-110387464D01*
X79615328Y-110263792D01*
X79623200Y-110257139D01*
X79728286Y-110152418D01*
X79790657Y-110118501D01*
X79861464Y-110123689D01*
X79918226Y-110166335D01*
X79935208Y-110197439D01*
X79976675Y-110308052D01*
X79985214Y-110323649D01*
X80061715Y-110425724D01*
X80074276Y-110438285D01*
X80176351Y-110514786D01*
X80191946Y-110523324D01*
X80312394Y-110568478D01*
X80327649Y-110572105D01*
X80378514Y-110577631D01*
X80385328Y-110578000D01*
X81007885Y-110578000D01*
X81023124Y-110573525D01*
X81024329Y-110572135D01*
X81026000Y-110564452D01*
X81026000Y-110559884D01*
X81534000Y-110559884D01*
X81538475Y-110575123D01*
X81539865Y-110576328D01*
X81547548Y-110577999D01*
X82174669Y-110577999D01*
X82181490Y-110577629D01*
X82232352Y-110572105D01*
X82247604Y-110568479D01*
X82368054Y-110523324D01*
X82383649Y-110514786D01*
X82485724Y-110438285D01*
X82498285Y-110425724D01*
X82574786Y-110323649D01*
X82583324Y-110308054D01*
X82628478Y-110187606D01*
X82632105Y-110172351D01*
X82637631Y-110121486D01*
X82638000Y-110114672D01*
X82638000Y-109492115D01*
X82633525Y-109476876D01*
X82632135Y-109475671D01*
X82624452Y-109474000D01*
X81552115Y-109474000D01*
X81536876Y-109478475D01*
X81535671Y-109479865D01*
X81534000Y-109487548D01*
X81534000Y-110559884D01*
X81026000Y-110559884D01*
X81026000Y-109492115D01*
X81021525Y-109476876D01*
X81020135Y-109475671D01*
X81012452Y-109474000D01*
X79012115Y-109474000D01*
X78996876Y-109478475D01*
X78995671Y-109479865D01*
X78994000Y-109487548D01*
X78994000Y-110538517D01*
X78486000Y-110538517D01*
X78486000Y-109492115D01*
X78481525Y-109476876D01*
X78480135Y-109475671D01*
X78472452Y-109474000D01*
X77423225Y-109474000D01*
X77409694Y-109477973D01*
X77408257Y-109487966D01*
X76508000Y-109487966D01*
X76508000Y-109154695D01*
X84489251Y-109154695D01*
X84489548Y-109159848D01*
X84489548Y-109159851D01*
X84495011Y-109254590D01*
X84502110Y-109377715D01*
X84503247Y-109382761D01*
X84503248Y-109382767D01*
X84523119Y-109470939D01*
X84551222Y-109595639D01*
X84635266Y-109802616D01*
X84686019Y-109885438D01*
X84749291Y-109988688D01*
X84751987Y-109993088D01*
X84898250Y-110161938D01*
X85070126Y-110304632D01*
X85263000Y-110417338D01*
X85267825Y-110419180D01*
X85267826Y-110419181D01*
X85338789Y-110446279D01*
X85471692Y-110497030D01*
X85476760Y-110498061D01*
X85476763Y-110498062D01*
X85558965Y-110514786D01*
X85690597Y-110541567D01*
X85695772Y-110541757D01*
X85695774Y-110541757D01*
X85908673Y-110549564D01*
X85908677Y-110549564D01*
X85913837Y-110549753D01*
X85918957Y-110549097D01*
X85918959Y-110549097D01*
X86130288Y-110522025D01*
X86130289Y-110522025D01*
X86135416Y-110521368D01*
X86157355Y-110514786D01*
X86344429Y-110458661D01*
X86344434Y-110458659D01*
X86349384Y-110457174D01*
X86549994Y-110358896D01*
X86731860Y-110229173D01*
X86890096Y-110071489D01*
X86949594Y-109988689D01*
X87020453Y-109890077D01*
X87021776Y-109891028D01*
X87068645Y-109847857D01*
X87138580Y-109835625D01*
X87204026Y-109863144D01*
X87231875Y-109894994D01*
X87291987Y-109993088D01*
X87438250Y-110161938D01*
X87610126Y-110304632D01*
X87803000Y-110417338D01*
X87807825Y-110419180D01*
X87807826Y-110419181D01*
X87878789Y-110446279D01*
X88011692Y-110497030D01*
X88016760Y-110498061D01*
X88016763Y-110498062D01*
X88098965Y-110514786D01*
X88230597Y-110541567D01*
X88235772Y-110541757D01*
X88235774Y-110541757D01*
X88448673Y-110549564D01*
X88448677Y-110549564D01*
X88453837Y-110549753D01*
X88458957Y-110549097D01*
X88458959Y-110549097D01*
X88670288Y-110522025D01*
X88670289Y-110522025D01*
X88675416Y-110521368D01*
X88697355Y-110514786D01*
X88884429Y-110458661D01*
X88884434Y-110458659D01*
X88889384Y-110457174D01*
X89089994Y-110358896D01*
X89271860Y-110229173D01*
X89430096Y-110071489D01*
X89489594Y-109988689D01*
X89560453Y-109890077D01*
X89561776Y-109891028D01*
X89608645Y-109847857D01*
X89678580Y-109835625D01*
X89744026Y-109863144D01*
X89771875Y-109894994D01*
X89831987Y-109993088D01*
X89978250Y-110161938D01*
X90150126Y-110304632D01*
X90343000Y-110417338D01*
X90347825Y-110419180D01*
X90347826Y-110419181D01*
X90418789Y-110446279D01*
X90551692Y-110497030D01*
X90556760Y-110498061D01*
X90556763Y-110498062D01*
X90638965Y-110514786D01*
X90770597Y-110541567D01*
X90775772Y-110541757D01*
X90775774Y-110541757D01*
X90988673Y-110549564D01*
X90988677Y-110549564D01*
X90993837Y-110549753D01*
X90998957Y-110549097D01*
X90998959Y-110549097D01*
X91210288Y-110522025D01*
X91210289Y-110522025D01*
X91215416Y-110521368D01*
X91237355Y-110514786D01*
X91424429Y-110458661D01*
X91424434Y-110458659D01*
X91429384Y-110457174D01*
X91629994Y-110358896D01*
X91811860Y-110229173D01*
X91970096Y-110071489D01*
X92029594Y-109988689D01*
X92100453Y-109890077D01*
X92101776Y-109891028D01*
X92148645Y-109847857D01*
X92218580Y-109835625D01*
X92284026Y-109863144D01*
X92311875Y-109894994D01*
X92371987Y-109993088D01*
X92518250Y-110161938D01*
X92690126Y-110304632D01*
X92883000Y-110417338D01*
X92887825Y-110419180D01*
X92887826Y-110419181D01*
X92958789Y-110446279D01*
X93091692Y-110497030D01*
X93096760Y-110498061D01*
X93096763Y-110498062D01*
X93178965Y-110514786D01*
X93310597Y-110541567D01*
X93315772Y-110541757D01*
X93315774Y-110541757D01*
X93528673Y-110549564D01*
X93528677Y-110549564D01*
X93533837Y-110549753D01*
X93538957Y-110549097D01*
X93538959Y-110549097D01*
X93750288Y-110522025D01*
X93750289Y-110522025D01*
X93755416Y-110521368D01*
X93777355Y-110514786D01*
X93964429Y-110458661D01*
X93964434Y-110458659D01*
X93969384Y-110457174D01*
X94169994Y-110358896D01*
X94351860Y-110229173D01*
X94510096Y-110071489D01*
X94569594Y-109988689D01*
X94640453Y-109890077D01*
X94641776Y-109891028D01*
X94688645Y-109847857D01*
X94758580Y-109835625D01*
X94824026Y-109863144D01*
X94851875Y-109894994D01*
X94911987Y-109993088D01*
X95058250Y-110161938D01*
X95230126Y-110304632D01*
X95423000Y-110417338D01*
X95427825Y-110419180D01*
X95427826Y-110419181D01*
X95498789Y-110446279D01*
X95631692Y-110497030D01*
X95636760Y-110498061D01*
X95636763Y-110498062D01*
X95718965Y-110514786D01*
X95850597Y-110541567D01*
X95855772Y-110541757D01*
X95855774Y-110541757D01*
X96068673Y-110549564D01*
X96068677Y-110549564D01*
X96073837Y-110549753D01*
X96078957Y-110549097D01*
X96078959Y-110549097D01*
X96290288Y-110522025D01*
X96290289Y-110522025D01*
X96295416Y-110521368D01*
X96317355Y-110514786D01*
X96504429Y-110458661D01*
X96504434Y-110458659D01*
X96509384Y-110457174D01*
X96709994Y-110358896D01*
X96891860Y-110229173D01*
X97050096Y-110071489D01*
X97109594Y-109988689D01*
X97180453Y-109890077D01*
X97181776Y-109891028D01*
X97228645Y-109847857D01*
X97298580Y-109835625D01*
X97364026Y-109863144D01*
X97391875Y-109894994D01*
X97451987Y-109993088D01*
X97598250Y-110161938D01*
X97770126Y-110304632D01*
X97963000Y-110417338D01*
X97967825Y-110419180D01*
X97967826Y-110419181D01*
X98038789Y-110446279D01*
X98171692Y-110497030D01*
X98176760Y-110498061D01*
X98176763Y-110498062D01*
X98258965Y-110514786D01*
X98390597Y-110541567D01*
X98395772Y-110541757D01*
X98395774Y-110541757D01*
X98608673Y-110549564D01*
X98608677Y-110549564D01*
X98613837Y-110549753D01*
X98618957Y-110549097D01*
X98618959Y-110549097D01*
X98830288Y-110522025D01*
X98830289Y-110522025D01*
X98835416Y-110521368D01*
X98857355Y-110514786D01*
X99044429Y-110458661D01*
X99044434Y-110458659D01*
X99049384Y-110457174D01*
X99249994Y-110358896D01*
X99431860Y-110229173D01*
X99590096Y-110071489D01*
X99649594Y-109988689D01*
X99720453Y-109890077D01*
X99721776Y-109891028D01*
X99768645Y-109847857D01*
X99838580Y-109835625D01*
X99904026Y-109863144D01*
X99931875Y-109894994D01*
X99991987Y-109993088D01*
X100138250Y-110161938D01*
X100310126Y-110304632D01*
X100503000Y-110417338D01*
X100507825Y-110419180D01*
X100507826Y-110419181D01*
X100578789Y-110446279D01*
X100711692Y-110497030D01*
X100716760Y-110498061D01*
X100716763Y-110498062D01*
X100798965Y-110514786D01*
X100930597Y-110541567D01*
X100935772Y-110541757D01*
X100935774Y-110541757D01*
X101148673Y-110549564D01*
X101148677Y-110549564D01*
X101153837Y-110549753D01*
X101158957Y-110549097D01*
X101158959Y-110549097D01*
X101370288Y-110522025D01*
X101370289Y-110522025D01*
X101375416Y-110521368D01*
X101397355Y-110514786D01*
X101584429Y-110458661D01*
X101584434Y-110458659D01*
X101589384Y-110457174D01*
X101789994Y-110358896D01*
X101971860Y-110229173D01*
X102130096Y-110071489D01*
X102189594Y-109988689D01*
X102260453Y-109890077D01*
X102261776Y-109891028D01*
X102308645Y-109847857D01*
X102378580Y-109835625D01*
X102444026Y-109863144D01*
X102471875Y-109894994D01*
X102531987Y-109993088D01*
X102678250Y-110161938D01*
X102850126Y-110304632D01*
X103043000Y-110417338D01*
X103047825Y-110419180D01*
X103047826Y-110419181D01*
X103118789Y-110446279D01*
X103251692Y-110497030D01*
X103256760Y-110498061D01*
X103256763Y-110498062D01*
X103338965Y-110514786D01*
X103470597Y-110541567D01*
X103475772Y-110541757D01*
X103475774Y-110541757D01*
X103688673Y-110549564D01*
X103688677Y-110549564D01*
X103693837Y-110549753D01*
X103698957Y-110549097D01*
X103698959Y-110549097D01*
X103910288Y-110522025D01*
X103910289Y-110522025D01*
X103915416Y-110521368D01*
X103937355Y-110514786D01*
X104124429Y-110458661D01*
X104124434Y-110458659D01*
X104129384Y-110457174D01*
X104329994Y-110358896D01*
X104511860Y-110229173D01*
X104670096Y-110071489D01*
X104729594Y-109988689D01*
X104800453Y-109890077D01*
X104801776Y-109891028D01*
X104848645Y-109847857D01*
X104918580Y-109835625D01*
X104984026Y-109863144D01*
X105011875Y-109894994D01*
X105071987Y-109993088D01*
X105218250Y-110161938D01*
X105390126Y-110304632D01*
X105583000Y-110417338D01*
X105587825Y-110419180D01*
X105587826Y-110419181D01*
X105658789Y-110446279D01*
X105791692Y-110497030D01*
X105796760Y-110498061D01*
X105796763Y-110498062D01*
X105878965Y-110514786D01*
X106010597Y-110541567D01*
X106015772Y-110541757D01*
X106015774Y-110541757D01*
X106228673Y-110549564D01*
X106228677Y-110549564D01*
X106233837Y-110549753D01*
X106238957Y-110549097D01*
X106238959Y-110549097D01*
X106450288Y-110522025D01*
X106450289Y-110522025D01*
X106455416Y-110521368D01*
X106477355Y-110514786D01*
X106664429Y-110458661D01*
X106664434Y-110458659D01*
X106669384Y-110457174D01*
X106869994Y-110358896D01*
X107051860Y-110229173D01*
X107210096Y-110071489D01*
X107269594Y-109988689D01*
X107340453Y-109890077D01*
X107341776Y-109891028D01*
X107388645Y-109847857D01*
X107458580Y-109835625D01*
X107524026Y-109863144D01*
X107551875Y-109894994D01*
X107611987Y-109993088D01*
X107758250Y-110161938D01*
X107930126Y-110304632D01*
X108123000Y-110417338D01*
X108127825Y-110419180D01*
X108127826Y-110419181D01*
X108198789Y-110446279D01*
X108331692Y-110497030D01*
X108336760Y-110498061D01*
X108336763Y-110498062D01*
X108418965Y-110514786D01*
X108550597Y-110541567D01*
X108555772Y-110541757D01*
X108555774Y-110541757D01*
X108768673Y-110549564D01*
X108768677Y-110549564D01*
X108773837Y-110549753D01*
X108778957Y-110549097D01*
X108778959Y-110549097D01*
X108990288Y-110522025D01*
X108990289Y-110522025D01*
X108995416Y-110521368D01*
X109017355Y-110514786D01*
X109204429Y-110458661D01*
X109204434Y-110458659D01*
X109209384Y-110457174D01*
X109409994Y-110358896D01*
X109591860Y-110229173D01*
X109750096Y-110071489D01*
X109809594Y-109988689D01*
X109877435Y-109894277D01*
X109880453Y-109890077D01*
X109901320Y-109847857D01*
X109977136Y-109694453D01*
X109977137Y-109694451D01*
X109979430Y-109689811D01*
X110039495Y-109492115D01*
X110042865Y-109481023D01*
X110042865Y-109481021D01*
X110044370Y-109476069D01*
X110073529Y-109254590D01*
X110075156Y-109188000D01*
X110056852Y-108965361D01*
X110002431Y-108748702D01*
X109913354Y-108543840D01*
X109873906Y-108482862D01*
X109794822Y-108360617D01*
X109794820Y-108360614D01*
X109792014Y-108356277D01*
X109788538Y-108352457D01*
X109788533Y-108352450D01*
X109644435Y-108194088D01*
X109613383Y-108130242D01*
X109621779Y-108059744D01*
X109666956Y-108004976D01*
X109693400Y-107991307D01*
X109800052Y-107951325D01*
X109815649Y-107942786D01*
X109917724Y-107866285D01*
X109930285Y-107853724D01*
X110006786Y-107751649D01*
X110015324Y-107736054D01*
X110060478Y-107615606D01*
X110064105Y-107600351D01*
X110069631Y-107549486D01*
X110070000Y-107542672D01*
X110070000Y-106920115D01*
X110065525Y-106904876D01*
X110064135Y-106903671D01*
X110056452Y-106902000D01*
X108584000Y-106902000D01*
X108515879Y-106881998D01*
X108469386Y-106828342D01*
X108458000Y-106776000D01*
X108458000Y-106375885D01*
X108966000Y-106375885D01*
X108970475Y-106391124D01*
X108971865Y-106392329D01*
X108979548Y-106394000D01*
X110051884Y-106394000D01*
X110067123Y-106389525D01*
X110068328Y-106388135D01*
X110069999Y-106380452D01*
X110069999Y-105753331D01*
X110069629Y-105746510D01*
X110064105Y-105695648D01*
X110060479Y-105680396D01*
X110015324Y-105559946D01*
X110006786Y-105544351D01*
X109930285Y-105442276D01*
X109917724Y-105429715D01*
X109815649Y-105353214D01*
X109800054Y-105344676D01*
X109679606Y-105299522D01*
X109664351Y-105295895D01*
X109613486Y-105290369D01*
X109606672Y-105290000D01*
X108984115Y-105290000D01*
X108968876Y-105294475D01*
X108967671Y-105295865D01*
X108966000Y-105303548D01*
X108966000Y-106375885D01*
X108458000Y-106375885D01*
X108458000Y-105308116D01*
X108453525Y-105292877D01*
X108452135Y-105291672D01*
X108444452Y-105290001D01*
X107817331Y-105290001D01*
X107810510Y-105290371D01*
X107759648Y-105295895D01*
X107744396Y-105299521D01*
X107623946Y-105344676D01*
X107608351Y-105353214D01*
X107506276Y-105429715D01*
X107493715Y-105442276D01*
X107417214Y-105544351D01*
X107408676Y-105559946D01*
X107367297Y-105670322D01*
X107324655Y-105727087D01*
X107258093Y-105751786D01*
X107188744Y-105736578D01*
X107156121Y-105710891D01*
X107105151Y-105654876D01*
X107105145Y-105654870D01*
X107101670Y-105651051D01*
X107097619Y-105647852D01*
X107097615Y-105647848D01*
X106930414Y-105515800D01*
X106930410Y-105515798D01*
X106926359Y-105512598D01*
X106730789Y-105404638D01*
X106725920Y-105402914D01*
X106725916Y-105402912D01*
X106525087Y-105331795D01*
X106525083Y-105331794D01*
X106520212Y-105330069D01*
X106515119Y-105329162D01*
X106515116Y-105329161D01*
X106305373Y-105291800D01*
X106305367Y-105291799D01*
X106300284Y-105290894D01*
X106226452Y-105289992D01*
X106082081Y-105288228D01*
X106082079Y-105288228D01*
X106076911Y-105288165D01*
X105856091Y-105321955D01*
X105643756Y-105391357D01*
X105613443Y-105407137D01*
X105460664Y-105486669D01*
X105445607Y-105494507D01*
X105441474Y-105497610D01*
X105441471Y-105497612D01*
X105374627Y-105547800D01*
X105266965Y-105628635D01*
X105112629Y-105790138D01*
X105005201Y-105947621D01*
X104950293Y-105992621D01*
X104879768Y-106000792D01*
X104816021Y-105969538D01*
X104795324Y-105945054D01*
X104714822Y-105820617D01*
X104714820Y-105820614D01*
X104712014Y-105816277D01*
X104561670Y-105651051D01*
X104557619Y-105647852D01*
X104557615Y-105647848D01*
X104390414Y-105515800D01*
X104390410Y-105515798D01*
X104386359Y-105512598D01*
X104190789Y-105404638D01*
X104185920Y-105402914D01*
X104185916Y-105402912D01*
X103985087Y-105331795D01*
X103985083Y-105331794D01*
X103980212Y-105330069D01*
X103975119Y-105329162D01*
X103975116Y-105329161D01*
X103765373Y-105291800D01*
X103765367Y-105291799D01*
X103760284Y-105290894D01*
X103686452Y-105289992D01*
X103542081Y-105288228D01*
X103542079Y-105288228D01*
X103536911Y-105288165D01*
X103316091Y-105321955D01*
X103103756Y-105391357D01*
X103073443Y-105407137D01*
X102920664Y-105486669D01*
X102905607Y-105494507D01*
X102901474Y-105497610D01*
X102901471Y-105497612D01*
X102834627Y-105547800D01*
X102726965Y-105628635D01*
X102572629Y-105790138D01*
X102465201Y-105947621D01*
X102410293Y-105992621D01*
X102339768Y-106000792D01*
X102276021Y-105969538D01*
X102255324Y-105945054D01*
X102174822Y-105820617D01*
X102174820Y-105820614D01*
X102172014Y-105816277D01*
X102021670Y-105651051D01*
X102017619Y-105647852D01*
X102017615Y-105647848D01*
X101850414Y-105515800D01*
X101850410Y-105515798D01*
X101846359Y-105512598D01*
X101650789Y-105404638D01*
X101645920Y-105402914D01*
X101645916Y-105402912D01*
X101445087Y-105331795D01*
X101445083Y-105331794D01*
X101440212Y-105330069D01*
X101435119Y-105329162D01*
X101435116Y-105329161D01*
X101225373Y-105291800D01*
X101225367Y-105291799D01*
X101220284Y-105290894D01*
X101146452Y-105289992D01*
X101002081Y-105288228D01*
X101002079Y-105288228D01*
X100996911Y-105288165D01*
X100776091Y-105321955D01*
X100563756Y-105391357D01*
X100533443Y-105407137D01*
X100380664Y-105486669D01*
X100365607Y-105494507D01*
X100361474Y-105497610D01*
X100361471Y-105497612D01*
X100294627Y-105547800D01*
X100186965Y-105628635D01*
X100032629Y-105790138D01*
X99925201Y-105947621D01*
X99870293Y-105992621D01*
X99799768Y-106000792D01*
X99736021Y-105969538D01*
X99715324Y-105945054D01*
X99634822Y-105820617D01*
X99634820Y-105820614D01*
X99632014Y-105816277D01*
X99481670Y-105651051D01*
X99477619Y-105647852D01*
X99477615Y-105647848D01*
X99310414Y-105515800D01*
X99310410Y-105515798D01*
X99306359Y-105512598D01*
X99110789Y-105404638D01*
X99105920Y-105402914D01*
X99105916Y-105402912D01*
X98905087Y-105331795D01*
X98905083Y-105331794D01*
X98900212Y-105330069D01*
X98895119Y-105329162D01*
X98895116Y-105329161D01*
X98685373Y-105291800D01*
X98685367Y-105291799D01*
X98680284Y-105290894D01*
X98606452Y-105289992D01*
X98462081Y-105288228D01*
X98462079Y-105288228D01*
X98456911Y-105288165D01*
X98236091Y-105321955D01*
X98023756Y-105391357D01*
X97993443Y-105407137D01*
X97840664Y-105486669D01*
X97825607Y-105494507D01*
X97821474Y-105497610D01*
X97821471Y-105497612D01*
X97754627Y-105547800D01*
X97646965Y-105628635D01*
X97492629Y-105790138D01*
X97385201Y-105947621D01*
X97330293Y-105992621D01*
X97259768Y-106000792D01*
X97196021Y-105969538D01*
X97175324Y-105945054D01*
X97094822Y-105820617D01*
X97094820Y-105820614D01*
X97092014Y-105816277D01*
X96941670Y-105651051D01*
X96937619Y-105647852D01*
X96937615Y-105647848D01*
X96770414Y-105515800D01*
X96770410Y-105515798D01*
X96766359Y-105512598D01*
X96570789Y-105404638D01*
X96565920Y-105402914D01*
X96565916Y-105402912D01*
X96365087Y-105331795D01*
X96365083Y-105331794D01*
X96360212Y-105330069D01*
X96355119Y-105329162D01*
X96355116Y-105329161D01*
X96145373Y-105291800D01*
X96145367Y-105291799D01*
X96140284Y-105290894D01*
X96066452Y-105289992D01*
X95922081Y-105288228D01*
X95922079Y-105288228D01*
X95916911Y-105288165D01*
X95696091Y-105321955D01*
X95483756Y-105391357D01*
X95453443Y-105407137D01*
X95300664Y-105486669D01*
X95285607Y-105494507D01*
X95281474Y-105497610D01*
X95281471Y-105497612D01*
X95214627Y-105547800D01*
X95106965Y-105628635D01*
X94952629Y-105790138D01*
X94845201Y-105947621D01*
X94790293Y-105992621D01*
X94719768Y-106000792D01*
X94656021Y-105969538D01*
X94635324Y-105945054D01*
X94554822Y-105820617D01*
X94554820Y-105820614D01*
X94552014Y-105816277D01*
X94401670Y-105651051D01*
X94397619Y-105647852D01*
X94397615Y-105647848D01*
X94230414Y-105515800D01*
X94230410Y-105515798D01*
X94226359Y-105512598D01*
X94030789Y-105404638D01*
X94025920Y-105402914D01*
X94025916Y-105402912D01*
X93825087Y-105331795D01*
X93825083Y-105331794D01*
X93820212Y-105330069D01*
X93815119Y-105329162D01*
X93815116Y-105329161D01*
X93605373Y-105291800D01*
X93605367Y-105291799D01*
X93600284Y-105290894D01*
X93557476Y-105290371D01*
X93459439Y-105289173D01*
X93391567Y-105268340D01*
X93345733Y-105214120D01*
X93336489Y-105143728D01*
X93341144Y-105124251D01*
X93368542Y-105039928D01*
X93369887Y-105027137D01*
X93387814Y-104856565D01*
X93388504Y-104850000D01*
X93368542Y-104660072D01*
X93309527Y-104478444D01*
X93214040Y-104313056D01*
X93086253Y-104171134D01*
X92931752Y-104058882D01*
X92925724Y-104056198D01*
X92925722Y-104056197D01*
X92763319Y-103983891D01*
X92763318Y-103983891D01*
X92757288Y-103981206D01*
X92663887Y-103961353D01*
X92576944Y-103942872D01*
X92576939Y-103942872D01*
X92570487Y-103941500D01*
X92379513Y-103941500D01*
X92373061Y-103942872D01*
X92373056Y-103942872D01*
X92286113Y-103961353D01*
X92192712Y-103981206D01*
X92186682Y-103983891D01*
X92186681Y-103983891D01*
X92024278Y-104056197D01*
X92024276Y-104056198D01*
X92018248Y-104058882D01*
X91863747Y-104171134D01*
X91735960Y-104313056D01*
X91640473Y-104478444D01*
X91581458Y-104660072D01*
X91561496Y-104850000D01*
X91562186Y-104856565D01*
X91580114Y-105027137D01*
X91581458Y-105039928D01*
X91640473Y-105221556D01*
X91643777Y-105227279D01*
X91646461Y-105233307D01*
X91643923Y-105234437D01*
X91657778Y-105291512D01*
X91634568Y-105358608D01*
X91578767Y-105402503D01*
X91508093Y-105409263D01*
X91489860Y-105404309D01*
X91285087Y-105331795D01*
X91285083Y-105331794D01*
X91280212Y-105330069D01*
X91275119Y-105329162D01*
X91275116Y-105329161D01*
X91065373Y-105291800D01*
X91065367Y-105291799D01*
X91060284Y-105290894D01*
X90986452Y-105289992D01*
X90842081Y-105288228D01*
X90842079Y-105288228D01*
X90836911Y-105288165D01*
X90616091Y-105321955D01*
X90403756Y-105391357D01*
X90373443Y-105407137D01*
X90220664Y-105486669D01*
X90205607Y-105494507D01*
X90201474Y-105497610D01*
X90201471Y-105497612D01*
X90134627Y-105547800D01*
X90026965Y-105628635D01*
X89872629Y-105790138D01*
X89765201Y-105947621D01*
X89710293Y-105992621D01*
X89639768Y-106000792D01*
X89576021Y-105969538D01*
X89555324Y-105945054D01*
X89474822Y-105820617D01*
X89474820Y-105820614D01*
X89472014Y-105816277D01*
X89321670Y-105651051D01*
X89317619Y-105647852D01*
X89317615Y-105647848D01*
X89150414Y-105515800D01*
X89150410Y-105515798D01*
X89146359Y-105512598D01*
X88950789Y-105404638D01*
X88945920Y-105402914D01*
X88945916Y-105402912D01*
X88745087Y-105331795D01*
X88745083Y-105331794D01*
X88740212Y-105330069D01*
X88735119Y-105329162D01*
X88735116Y-105329161D01*
X88525373Y-105291800D01*
X88525367Y-105291799D01*
X88520284Y-105290894D01*
X88446452Y-105289992D01*
X88302081Y-105288228D01*
X88302079Y-105288228D01*
X88296911Y-105288165D01*
X88076091Y-105321955D01*
X87863756Y-105391357D01*
X87833443Y-105407137D01*
X87680664Y-105486669D01*
X87665607Y-105494507D01*
X87661474Y-105497610D01*
X87661471Y-105497612D01*
X87594627Y-105547800D01*
X87486965Y-105628635D01*
X87332629Y-105790138D01*
X87225201Y-105947621D01*
X87170293Y-105992621D01*
X87099768Y-106000792D01*
X87036021Y-105969538D01*
X87015324Y-105945054D01*
X86934822Y-105820617D01*
X86934820Y-105820614D01*
X86932014Y-105816277D01*
X86781670Y-105651051D01*
X86777619Y-105647852D01*
X86777615Y-105647848D01*
X86610414Y-105515800D01*
X86610410Y-105515798D01*
X86606359Y-105512598D01*
X86410789Y-105404638D01*
X86405920Y-105402914D01*
X86405916Y-105402912D01*
X86205087Y-105331795D01*
X86205083Y-105331794D01*
X86200212Y-105330069D01*
X86195119Y-105329162D01*
X86195116Y-105329161D01*
X85985373Y-105291800D01*
X85985367Y-105291799D01*
X85980284Y-105290894D01*
X85906452Y-105289992D01*
X85762081Y-105288228D01*
X85762079Y-105288228D01*
X85756911Y-105288165D01*
X85536091Y-105321955D01*
X85323756Y-105391357D01*
X85293443Y-105407137D01*
X85140664Y-105486669D01*
X85125607Y-105494507D01*
X85121474Y-105497610D01*
X85121471Y-105497612D01*
X85054627Y-105547800D01*
X84946965Y-105628635D01*
X84792629Y-105790138D01*
X84666743Y-105974680D01*
X84572688Y-106177305D01*
X84512989Y-106392570D01*
X84489251Y-106614695D01*
X84502110Y-106837715D01*
X84503247Y-106842761D01*
X84503248Y-106842767D01*
X84520680Y-106920115D01*
X84551222Y-107055639D01*
X84635266Y-107262616D01*
X84675103Y-107327625D01*
X84749291Y-107448688D01*
X84751987Y-107453088D01*
X84898250Y-107621938D01*
X85070126Y-107764632D01*
X85116004Y-107791441D01*
X85143445Y-107807476D01*
X85192169Y-107859114D01*
X85205240Y-107928897D01*
X85178509Y-107994669D01*
X85138055Y-108028027D01*
X85125607Y-108034507D01*
X85121474Y-108037610D01*
X85121471Y-108037612D01*
X84995830Y-108131946D01*
X84946965Y-108168635D01*
X84943393Y-108172373D01*
X84798196Y-108324313D01*
X84792629Y-108330138D01*
X84666743Y-108514680D01*
X84572688Y-108717305D01*
X84512989Y-108932570D01*
X84489251Y-109154695D01*
X76508000Y-109154695D01*
X76508000Y-106646695D01*
X77377251Y-106646695D01*
X77377548Y-106651848D01*
X77377548Y-106651851D01*
X77387724Y-106828342D01*
X77390110Y-106869715D01*
X77391247Y-106874761D01*
X77391248Y-106874767D01*
X77397762Y-106903671D01*
X77439222Y-107087639D01*
X77477461Y-107181811D01*
X77512061Y-107267020D01*
X77523266Y-107294616D01*
X77574019Y-107377438D01*
X77637291Y-107480688D01*
X77639987Y-107485088D01*
X77786250Y-107653938D01*
X77958126Y-107796632D01*
X78016759Y-107830894D01*
X78031955Y-107839774D01*
X78080679Y-107891412D01*
X78093750Y-107961195D01*
X78067019Y-108026967D01*
X78026562Y-108060327D01*
X78018457Y-108064546D01*
X78009738Y-108070036D01*
X77839433Y-108197905D01*
X77831726Y-108204748D01*
X77684590Y-108358717D01*
X77678104Y-108366727D01*
X77558098Y-108542649D01*
X77553000Y-108551623D01*
X77463338Y-108744783D01*
X77459775Y-108754470D01*
X77404389Y-108954183D01*
X77405912Y-108962607D01*
X77418292Y-108966000D01*
X82619884Y-108966000D01*
X82635123Y-108961525D01*
X82636328Y-108960135D01*
X82637999Y-108952452D01*
X82637999Y-108325331D01*
X82637629Y-108318510D01*
X82632105Y-108267648D01*
X82628479Y-108252396D01*
X82583324Y-108131946D01*
X82574786Y-108116351D01*
X82498285Y-108014276D01*
X82485724Y-108001715D01*
X82383649Y-107925214D01*
X82368054Y-107916676D01*
X82257813Y-107875348D01*
X82201049Y-107832706D01*
X82176349Y-107766145D01*
X82191557Y-107696796D01*
X82213104Y-107668115D01*
X82314430Y-107567144D01*
X82314440Y-107567132D01*
X82318096Y-107563489D01*
X82333055Y-107542672D01*
X82445435Y-107386277D01*
X82448453Y-107382077D01*
X82463799Y-107351028D01*
X82545136Y-107186453D01*
X82545137Y-107186451D01*
X82547430Y-107181811D01*
X82612370Y-106968069D01*
X82641529Y-106746590D01*
X82643156Y-106680000D01*
X82624852Y-106457361D01*
X82570431Y-106240702D01*
X82481354Y-106035840D01*
X82360014Y-105848277D01*
X82209670Y-105683051D01*
X82205619Y-105679852D01*
X82205615Y-105679848D01*
X82038414Y-105547800D01*
X82038410Y-105547798D01*
X82034359Y-105544598D01*
X81993053Y-105521796D01*
X81943084Y-105471364D01*
X81928312Y-105401921D01*
X81953428Y-105335516D01*
X81980780Y-105308909D01*
X82037656Y-105268340D01*
X82159860Y-105181173D01*
X82318096Y-105023489D01*
X82377594Y-104940689D01*
X82445435Y-104846277D01*
X82448453Y-104842077D01*
X82469320Y-104799857D01*
X82545136Y-104646453D01*
X82545137Y-104646451D01*
X82547430Y-104641811D01*
X82612370Y-104428069D01*
X82641529Y-104206590D01*
X82643156Y-104140000D01*
X82624852Y-103917361D01*
X82570431Y-103700702D01*
X82481354Y-103495840D01*
X82360014Y-103308277D01*
X82209670Y-103143051D01*
X82205619Y-103139852D01*
X82205615Y-103139848D01*
X82038414Y-103007800D01*
X82038410Y-103007798D01*
X82034359Y-103004598D01*
X81993053Y-102981796D01*
X81943084Y-102931364D01*
X81928312Y-102861921D01*
X81953428Y-102795516D01*
X81980780Y-102768909D01*
X82024603Y-102737650D01*
X82159860Y-102641173D01*
X82318096Y-102483489D01*
X82377594Y-102400689D01*
X82445435Y-102306277D01*
X82448453Y-102302077D01*
X82469320Y-102259857D01*
X82545136Y-102106453D01*
X82545137Y-102106451D01*
X82547430Y-102101811D01*
X82612370Y-101888069D01*
X82641529Y-101666590D01*
X82641611Y-101663240D01*
X82643074Y-101603365D01*
X82643074Y-101603361D01*
X82643156Y-101600000D01*
X82624852Y-101377361D01*
X82570431Y-101160702D01*
X82481354Y-100955840D01*
X82422927Y-100865525D01*
X82362822Y-100772617D01*
X82362820Y-100772614D01*
X82360014Y-100768277D01*
X82209670Y-100603051D01*
X82205619Y-100599852D01*
X82205615Y-100599848D01*
X82038414Y-100467800D01*
X82038410Y-100467798D01*
X82034359Y-100464598D01*
X81993053Y-100441796D01*
X81943084Y-100391364D01*
X81928312Y-100321921D01*
X81953428Y-100255516D01*
X81980780Y-100228909D01*
X82024603Y-100197650D01*
X82159860Y-100101173D01*
X82318096Y-99943489D01*
X82330609Y-99926076D01*
X82445435Y-99766277D01*
X82448453Y-99762077D01*
X82460410Y-99737885D01*
X82545136Y-99566453D01*
X82545137Y-99566451D01*
X82547430Y-99561811D01*
X82612370Y-99348069D01*
X82618005Y-99305268D01*
X82646728Y-99240341D01*
X82705993Y-99201250D01*
X82742927Y-99195715D01*
X82929585Y-99195715D01*
X82936037Y-99194343D01*
X82936042Y-99194343D01*
X83032879Y-99173759D01*
X83116386Y-99156009D01*
X83194717Y-99121134D01*
X83284820Y-99081018D01*
X83284822Y-99081017D01*
X83290850Y-99078333D01*
X83445351Y-98966081D01*
X83512034Y-98892022D01*
X83568719Y-98829067D01*
X83568720Y-98829066D01*
X83573138Y-98824159D01*
X83668625Y-98658771D01*
X83727640Y-98477143D01*
X83730204Y-98452754D01*
X83746912Y-98293780D01*
X83747602Y-98287215D01*
X83741864Y-98232617D01*
X83728330Y-98103850D01*
X83728330Y-98103848D01*
X83727640Y-98097287D01*
X83668625Y-97915659D01*
X83573138Y-97750271D01*
X83541845Y-97715516D01*
X83449773Y-97613260D01*
X83449772Y-97613259D01*
X83445351Y-97608349D01*
X83290850Y-97496097D01*
X83284822Y-97493413D01*
X83284820Y-97493412D01*
X83122417Y-97421106D01*
X83122416Y-97421106D01*
X83116386Y-97418421D01*
X83022985Y-97398568D01*
X82936042Y-97380087D01*
X82936037Y-97380087D01*
X82929585Y-97378715D01*
X82738611Y-97378715D01*
X82732158Y-97380087D01*
X82732145Y-97380088D01*
X82580953Y-97412226D01*
X82510163Y-97406825D01*
X82453530Y-97364008D01*
X82429036Y-97297371D01*
X82446618Y-97224631D01*
X82448453Y-97222077D01*
X82547430Y-97021811D01*
X82612370Y-96808069D01*
X82641529Y-96586590D01*
X82643156Y-96520000D01*
X82624852Y-96297361D01*
X82570431Y-96080702D01*
X82481354Y-95875840D01*
X82404650Y-95757274D01*
X82362822Y-95692617D01*
X82362820Y-95692614D01*
X82360014Y-95688277D01*
X82209670Y-95523051D01*
X82205619Y-95519852D01*
X82205615Y-95519848D01*
X82038414Y-95387800D01*
X82038410Y-95387798D01*
X82034359Y-95384598D01*
X81838789Y-95276638D01*
X81833920Y-95274914D01*
X81833916Y-95274912D01*
X81633087Y-95203795D01*
X81633083Y-95203794D01*
X81628212Y-95202069D01*
X81623119Y-95201162D01*
X81623116Y-95201161D01*
X81413373Y-95163800D01*
X81413367Y-95163799D01*
X81408284Y-95162894D01*
X81334452Y-95161992D01*
X81190081Y-95160228D01*
X81190079Y-95160228D01*
X81184911Y-95160165D01*
X80964091Y-95193955D01*
X80751756Y-95263357D01*
X80553607Y-95366507D01*
X80549474Y-95369610D01*
X80549471Y-95369612D01*
X80379100Y-95497530D01*
X80374965Y-95500635D01*
X80220629Y-95662138D01*
X80113201Y-95819621D01*
X80058293Y-95864621D01*
X79987768Y-95872792D01*
X79924021Y-95841538D01*
X79903324Y-95817054D01*
X79822822Y-95692617D01*
X79822820Y-95692614D01*
X79820014Y-95688277D01*
X79669670Y-95523051D01*
X79665619Y-95519852D01*
X79665615Y-95519848D01*
X79498414Y-95387800D01*
X79498410Y-95387798D01*
X79494359Y-95384598D01*
X79298789Y-95276638D01*
X79293920Y-95274914D01*
X79293916Y-95274912D01*
X79093087Y-95203795D01*
X79093083Y-95203794D01*
X79088212Y-95202069D01*
X79083119Y-95201162D01*
X79083116Y-95201161D01*
X78873373Y-95163800D01*
X78873367Y-95163799D01*
X78868284Y-95162894D01*
X78794452Y-95161992D01*
X78650081Y-95160228D01*
X78650079Y-95160228D01*
X78644911Y-95160165D01*
X78424091Y-95193955D01*
X78211756Y-95263357D01*
X78013607Y-95366507D01*
X78009474Y-95369610D01*
X78009471Y-95369612D01*
X77839100Y-95497530D01*
X77834965Y-95500635D01*
X77680629Y-95662138D01*
X77677720Y-95666403D01*
X77677714Y-95666411D01*
X77640539Y-95720908D01*
X77554743Y-95846680D01*
X77460688Y-96049305D01*
X77400989Y-96264570D01*
X77377251Y-96486695D01*
X77377548Y-96491848D01*
X77377548Y-96491851D01*
X77383011Y-96586590D01*
X77390110Y-96709715D01*
X77391247Y-96714761D01*
X77391248Y-96714767D01*
X77411119Y-96802939D01*
X77439222Y-96927639D01*
X77523266Y-97134616D01*
X77568326Y-97208148D01*
X77637291Y-97320688D01*
X77639987Y-97325088D01*
X77786250Y-97493938D01*
X77958126Y-97636632D01*
X77983135Y-97651246D01*
X78031445Y-97679476D01*
X78080169Y-97731114D01*
X78093240Y-97800897D01*
X78066509Y-97866669D01*
X78026055Y-97900027D01*
X78019038Y-97903680D01*
X78013607Y-97906507D01*
X78009474Y-97909610D01*
X78009471Y-97909612D01*
X77871545Y-98013170D01*
X77834965Y-98040635D01*
X77680629Y-98202138D01*
X77677720Y-98206403D01*
X77677714Y-98206411D01*
X77627072Y-98280650D01*
X77554743Y-98386680D01*
X77537441Y-98423955D01*
X77483056Y-98541118D01*
X77460688Y-98589305D01*
X77400989Y-98804570D01*
X77377251Y-99026695D01*
X77377548Y-99031848D01*
X77377548Y-99031851D01*
X77389587Y-99240647D01*
X77390110Y-99249715D01*
X77391247Y-99254761D01*
X77391248Y-99254767D01*
X77406446Y-99322204D01*
X77439222Y-99467639D01*
X77523266Y-99674616D01*
X77562037Y-99737885D01*
X77637291Y-99860688D01*
X77639987Y-99865088D01*
X77786250Y-100033938D01*
X77958126Y-100176632D01*
X78028595Y-100217811D01*
X78031445Y-100219476D01*
X78080169Y-100271114D01*
X78093240Y-100340897D01*
X78066509Y-100406669D01*
X78026055Y-100440027D01*
X78013607Y-100446507D01*
X78009474Y-100449610D01*
X78009471Y-100449612D01*
X77839100Y-100577530D01*
X77834965Y-100580635D01*
X77680629Y-100742138D01*
X77554743Y-100926680D01*
X77460688Y-101129305D01*
X77400989Y-101344570D01*
X77377251Y-101566695D01*
X77377548Y-101571848D01*
X77377548Y-101571851D01*
X77382836Y-101663564D01*
X77390110Y-101789715D01*
X77391247Y-101794761D01*
X77391248Y-101794767D01*
X77396253Y-101816974D01*
X77439222Y-102007639D01*
X77477461Y-102101811D01*
X77513496Y-102190554D01*
X77523266Y-102214616D01*
X77574019Y-102297438D01*
X77637291Y-102400688D01*
X77639987Y-102405088D01*
X77786250Y-102573938D01*
X77958126Y-102716632D01*
X78028595Y-102757811D01*
X78031445Y-102759476D01*
X78080169Y-102811114D01*
X78093240Y-102880897D01*
X78066509Y-102946669D01*
X78026055Y-102980027D01*
X78013607Y-102986507D01*
X78009474Y-102989610D01*
X78009471Y-102989612D01*
X77985247Y-103007800D01*
X77834965Y-103120635D01*
X77680629Y-103282138D01*
X77554743Y-103466680D01*
X77460688Y-103669305D01*
X77400989Y-103884570D01*
X77377251Y-104106695D01*
X77377548Y-104111848D01*
X77377548Y-104111851D01*
X77383011Y-104206590D01*
X77390110Y-104329715D01*
X77391247Y-104334761D01*
X77391248Y-104334767D01*
X77411119Y-104422939D01*
X77439222Y-104547639D01*
X77523266Y-104754616D01*
X77574019Y-104837438D01*
X77637291Y-104940688D01*
X77639987Y-104945088D01*
X77786250Y-105113938D01*
X77958126Y-105256632D01*
X78015860Y-105290369D01*
X78031445Y-105299476D01*
X78080169Y-105351114D01*
X78093240Y-105420897D01*
X78066509Y-105486669D01*
X78026055Y-105520027D01*
X78013607Y-105526507D01*
X78009474Y-105529610D01*
X78009471Y-105529612D01*
X77842643Y-105654870D01*
X77834965Y-105660635D01*
X77831393Y-105664373D01*
X77707126Y-105794411D01*
X77680629Y-105822138D01*
X77554743Y-106006680D01*
X77539003Y-106040590D01*
X77473225Y-106182297D01*
X77460688Y-106209305D01*
X77400989Y-106424570D01*
X77377251Y-106646695D01*
X76508000Y-106646695D01*
X76508000Y-86627966D01*
X77408257Y-86627966D01*
X77438565Y-86762446D01*
X77441645Y-86772275D01*
X77521770Y-86969603D01*
X77526413Y-86978794D01*
X77637694Y-87160388D01*
X77643777Y-87168699D01*
X77783213Y-87329667D01*
X77790580Y-87336883D01*
X77954434Y-87472916D01*
X77962881Y-87478831D01*
X78146756Y-87586279D01*
X78156042Y-87590729D01*
X78355001Y-87666703D01*
X78364899Y-87669579D01*
X78468250Y-87690606D01*
X78482299Y-87689410D01*
X78486000Y-87679065D01*
X78486000Y-87678517D01*
X78994000Y-87678517D01*
X78998064Y-87692359D01*
X79011478Y-87694393D01*
X79018184Y-87693534D01*
X79028262Y-87691392D01*
X79232255Y-87630191D01*
X79241842Y-87626433D01*
X79433095Y-87532739D01*
X79441945Y-87527464D01*
X79615328Y-87403792D01*
X79623200Y-87397139D01*
X79728286Y-87292418D01*
X79790657Y-87258501D01*
X79861464Y-87263689D01*
X79918226Y-87306335D01*
X79935208Y-87337439D01*
X79976675Y-87448052D01*
X79985214Y-87463649D01*
X80061715Y-87565724D01*
X80074276Y-87578285D01*
X80176351Y-87654786D01*
X80191946Y-87663324D01*
X80312394Y-87708478D01*
X80327649Y-87712105D01*
X80378514Y-87717631D01*
X80385328Y-87718000D01*
X81007885Y-87718000D01*
X81023124Y-87713525D01*
X81024329Y-87712135D01*
X81026000Y-87704452D01*
X81026000Y-86632115D01*
X81021525Y-86616876D01*
X81020135Y-86615671D01*
X81012452Y-86614000D01*
X79012115Y-86614000D01*
X78996876Y-86618475D01*
X78995671Y-86619865D01*
X78994000Y-86627548D01*
X78994000Y-87678517D01*
X78486000Y-87678517D01*
X78486000Y-86632115D01*
X78481525Y-86616876D01*
X78480135Y-86615671D01*
X78472452Y-86614000D01*
X77423225Y-86614000D01*
X77409694Y-86617973D01*
X77408257Y-86627966D01*
X76508000Y-86627966D01*
X76508000Y-72134000D01*
X76528002Y-72065879D01*
X76581658Y-72019386D01*
X76634000Y-72008000D01*
X87755441Y-72008000D01*
X87823562Y-72028002D01*
G37*
G04 #@! TD.AperFunction*
M02*
