G04 #@! TF.GenerationSoftware,KiCad,Pcbnew,9.0.6*
G04 #@! TF.CreationDate,2026-01-10T17:13:08+00:00*
G04 #@! TF.ProjectId,CurrentSource,43757272-656e-4745-936f-757263652e6b,rev?*
G04 #@! TF.SameCoordinates,Original*
G04 #@! TF.FileFunction,Copper,L1,Top*
G04 #@! TF.FilePolarity,Positive*
%FSLAX46Y46*%
G04 Gerber Fmt 4.6, Leading zero omitted, Abs format (unit mm)*
G04 Created by KiCad (PCBNEW 9.0.6) date 2026-01-10 17:13:08*
%MOMM*%
%LPD*%
G01*
G04 APERTURE LIST*
G04 Aperture macros list*
%AMRoundRect*
0 Rectangle with rounded corners*
0 $1 Rounding radius*
0 $2 $3 $4 $5 $6 $7 $8 $9 X,Y pos of 4 corners*
0 Add a 4 corners polygon primitive as box body*
4,1,4,$2,$3,$4,$5,$6,$7,$8,$9,$2,$3,0*
0 Add four circle primitives for the rounded corners*
1,1,$1+$1,$2,$3*
1,1,$1+$1,$4,$5*
1,1,$1+$1,$6,$7*
1,1,$1+$1,$8,$9*
0 Add four rect primitives between the rounded corners*
20,1,$1+$1,$2,$3,$4,$5,0*
20,1,$1+$1,$4,$5,$6,$7,0*
20,1,$1+$1,$6,$7,$8,$9,0*
20,1,$1+$1,$8,$9,$2,$3,0*%
G04 Aperture macros list end*
G04 #@! TA.AperFunction,ComponentPad*
%ADD10C,1.700000*%
G04 #@! TD*
G04 #@! TA.AperFunction,ComponentPad*
%ADD11R,1.700000X1.700000*%
G04 #@! TD*
G04 #@! TA.AperFunction,SMDPad,CuDef*
%ADD12RoundRect,0.135000X0.135000X0.185000X-0.135000X0.185000X-0.135000X-0.185000X0.135000X-0.185000X0*%
G04 #@! TD*
G04 #@! TA.AperFunction,SMDPad,CuDef*
%ADD13RoundRect,0.150000X0.512500X0.150000X-0.512500X0.150000X-0.512500X-0.150000X0.512500X-0.150000X0*%
G04 #@! TD*
G04 #@! TA.AperFunction,HeatsinkPad*
%ADD14R,0.800000X0.800000*%
G04 #@! TD*
G04 #@! TA.AperFunction,HeatsinkPad*
%ADD15C,0.500000*%
G04 #@! TD*
G04 #@! TA.AperFunction,SMDPad,CuDef*
%ADD16RoundRect,0.062500X-0.062500X-0.375000X0.062500X-0.375000X0.062500X0.375000X-0.062500X0.375000X0*%
G04 #@! TD*
G04 #@! TA.AperFunction,SMDPad,CuDef*
%ADD17RoundRect,0.062500X-0.375000X-0.062500X0.375000X-0.062500X0.375000X0.062500X-0.375000X0.062500X0*%
G04 #@! TD*
G04 #@! TA.AperFunction,SMDPad,CuDef*
%ADD18R,1.500000X5.080000*%
G04 #@! TD*
G04 #@! TA.AperFunction,SMDPad,CuDef*
%ADD19R,1.528000X0.650000*%
G04 #@! TD*
G04 #@! TA.AperFunction,SMDPad,CuDef*
%ADD20RoundRect,0.200000X0.275000X-0.200000X0.275000X0.200000X-0.275000X0.200000X-0.275000X-0.200000X0*%
G04 #@! TD*
G04 #@! TA.AperFunction,SMDPad,CuDef*
%ADD21RoundRect,0.200000X-0.275000X0.200000X-0.275000X-0.200000X0.275000X-0.200000X0.275000X0.200000X0*%
G04 #@! TD*
G04 #@! TA.AperFunction,SMDPad,CuDef*
%ADD22RoundRect,0.225000X-0.225000X-0.250000X0.225000X-0.250000X0.225000X0.250000X-0.225000X0.250000X0*%
G04 #@! TD*
G04 #@! TA.AperFunction,ComponentPad*
%ADD23C,1.500000*%
G04 #@! TD*
G04 #@! TA.AperFunction,SMDPad,CuDef*
%ADD24RoundRect,0.225000X0.250000X-0.225000X0.250000X0.225000X-0.250000X0.225000X-0.250000X-0.225000X0*%
G04 #@! TD*
G04 #@! TA.AperFunction,SMDPad,CuDef*
%ADD25RoundRect,0.150000X-0.150000X0.512500X-0.150000X-0.512500X0.150000X-0.512500X0.150000X0.512500X0*%
G04 #@! TD*
G04 #@! TA.AperFunction,SMDPad,CuDef*
%ADD26RoundRect,0.225000X-0.250000X0.225000X-0.250000X-0.225000X0.250000X-0.225000X0.250000X0.225000X0*%
G04 #@! TD*
G04 #@! TA.AperFunction,SMDPad,CuDef*
%ADD27RoundRect,0.100000X0.225000X0.100000X-0.225000X0.100000X-0.225000X-0.100000X0.225000X-0.100000X0*%
G04 #@! TD*
G04 #@! TA.AperFunction,ComponentPad*
%ADD28C,1.440000*%
G04 #@! TD*
G04 #@! TA.AperFunction,SMDPad,CuDef*
%ADD29RoundRect,0.225000X0.225000X0.250000X-0.225000X0.250000X-0.225000X-0.250000X0.225000X-0.250000X0*%
G04 #@! TD*
G04 #@! TA.AperFunction,SMDPad,CuDef*
%ADD30RoundRect,0.218750X0.218750X0.256250X-0.218750X0.256250X-0.218750X-0.256250X0.218750X-0.256250X0*%
G04 #@! TD*
G04 #@! TA.AperFunction,SMDPad,CuDef*
%ADD31RoundRect,0.200000X0.200000X0.275000X-0.200000X0.275000X-0.200000X-0.275000X0.200000X-0.275000X0*%
G04 #@! TD*
G04 #@! TA.AperFunction,ViaPad*
%ADD32C,0.600000*%
G04 #@! TD*
G04 #@! TA.AperFunction,Conductor*
%ADD33C,0.200000*%
G04 #@! TD*
G04 #@! TA.AperFunction,Conductor*
%ADD34C,0.250000*%
G04 #@! TD*
G04 #@! TA.AperFunction,Conductor*
%ADD35C,0.400000*%
G04 #@! TD*
G04 #@! TA.AperFunction,Conductor*
%ADD36C,0.500000*%
G04 #@! TD*
G04 #@! TA.AperFunction,Conductor*
%ADD37C,0.750000*%
G04 #@! TD*
G04 #@! TA.AperFunction,Conductor*
%ADD38C,1.000000*%
G04 #@! TD*
G04 #@! TA.AperFunction,Conductor*
%ADD39C,0.150000*%
G04 #@! TD*
G04 #@! TA.AperFunction,Conductor*
%ADD40C,0.600000*%
G04 #@! TD*
G04 #@! TA.AperFunction,Conductor*
%ADD41C,0.700000*%
G04 #@! TD*
G04 APERTURE END LIST*
D10*
X129040000Y-108400000D03*
X126500000Y-108400000D03*
D11*
X123960000Y-108400000D03*
D12*
X130110000Y-106075000D03*
X129090000Y-106075000D03*
D13*
X125212500Y-94522500D03*
X125212500Y-92622500D03*
X127487500Y-92622500D03*
X127487500Y-93572500D03*
X127487500Y-94522500D03*
D14*
X134350000Y-103272500D03*
D15*
X134350000Y-103272500D03*
D16*
X133600000Y-101835000D03*
X134100000Y-101835000D03*
X134600000Y-101835000D03*
X135100000Y-101835000D03*
D17*
X135787500Y-102522500D03*
X135787500Y-103022500D03*
X135787500Y-103522500D03*
X135787500Y-104022500D03*
D16*
X135100000Y-104710000D03*
X134600000Y-104710000D03*
X134100000Y-104710000D03*
X133600000Y-104710000D03*
D17*
X132912500Y-104022500D03*
X132912500Y-103522500D03*
X132912500Y-103022500D03*
X132912500Y-102522500D03*
D18*
X131725000Y-69325000D03*
X127475000Y-69325000D03*
X135975000Y-69325000D03*
D11*
X123320000Y-86485000D03*
D10*
X123320000Y-89025000D03*
X123320000Y-91565000D03*
X123320000Y-94105000D03*
X123320000Y-96645000D03*
D11*
X136020000Y-86485000D03*
D10*
X136020000Y-89025000D03*
X136020000Y-91565000D03*
X136020000Y-94105000D03*
X136020000Y-96645000D03*
D11*
X123320000Y-111250000D03*
D10*
X125860000Y-111250000D03*
X128400000Y-111250000D03*
X130940000Y-111250000D03*
X133480000Y-111250000D03*
X136020000Y-111250000D03*
D19*
X127481774Y-85822954D03*
X127481774Y-87092954D03*
X127481774Y-88362954D03*
X127481774Y-89632954D03*
X132903774Y-89632954D03*
X132903774Y-88362954D03*
X132903774Y-87092954D03*
X132903774Y-85822954D03*
D20*
X133250000Y-95325000D03*
X133250000Y-93675000D03*
D21*
X132377802Y-82351755D03*
X132377802Y-84001755D03*
D22*
X129010000Y-101380000D03*
X130560000Y-101380000D03*
D23*
X123881597Y-68118654D03*
D24*
X136290000Y-100660000D03*
X136290000Y-99110000D03*
D20*
X124090000Y-100160000D03*
X124090000Y-98510000D03*
D24*
X125175007Y-90541678D03*
X125175007Y-88991678D03*
D25*
X127540000Y-97495000D03*
X126590000Y-97495000D03*
X125640000Y-97495000D03*
X125640000Y-99770000D03*
X127540000Y-99770000D03*
D20*
X133530000Y-100200000D03*
X133530000Y-98550000D03*
D11*
X125250000Y-82975000D03*
D10*
X127790000Y-82975000D03*
D22*
X129725000Y-93750000D03*
X131275000Y-93750000D03*
D25*
X134903847Y-78212500D03*
X133953847Y-78212500D03*
X133003847Y-78212500D03*
X133003847Y-80487500D03*
X133953847Y-80487500D03*
X134903847Y-80487500D03*
D26*
X136442953Y-82725000D03*
X136442953Y-84275000D03*
D22*
X133325000Y-76275000D03*
X134875000Y-76275000D03*
D11*
X135300000Y-108400000D03*
D10*
X132760000Y-108400000D03*
D27*
X131340000Y-104490000D03*
X131340000Y-103840000D03*
X131340000Y-103190000D03*
X129440000Y-103190000D03*
X129440000Y-103840000D03*
X129440000Y-104490000D03*
D21*
X130787802Y-82351755D03*
X130787802Y-84001755D03*
D28*
X124613399Y-77991232D03*
X127153399Y-77991232D03*
X129693399Y-77991232D03*
D29*
X127375000Y-104750000D03*
X125825000Y-104750000D03*
D30*
X131287500Y-95500000D03*
X129712500Y-95500000D03*
D22*
X129075000Y-99580000D03*
X130625000Y-99580000D03*
D31*
X127395000Y-101540000D03*
X125745000Y-101540000D03*
D23*
X123896879Y-70311183D03*
D31*
X127400000Y-103130000D03*
X125750000Y-103130000D03*
D22*
X129235000Y-97870000D03*
X130785000Y-97870000D03*
X129725000Y-92000000D03*
X131275000Y-92000000D03*
D32*
X133250000Y-91250000D03*
X124275000Y-106625000D03*
X127575861Y-96055861D03*
X125325000Y-106650000D03*
X128511250Y-93583750D03*
X133250000Y-92750000D03*
X136910000Y-103530000D03*
X136856526Y-108286783D03*
X136263860Y-75975621D03*
X136846340Y-106830116D03*
X133953847Y-77196153D03*
X134400000Y-106000000D03*
X123500000Y-76500000D03*
X135194232Y-84295465D03*
X126500000Y-91351729D03*
X136825967Y-109661958D03*
X125000000Y-93490000D03*
X132272214Y-98627786D03*
X125831000Y-76410000D03*
X124700000Y-97975000D03*
X128325000Y-98950000D03*
X135000000Y-81500000D03*
X132425000Y-94500000D03*
X134000000Y-82500000D03*
X128475000Y-95500000D03*
X134425707Y-99674293D03*
X132000000Y-80500000D03*
X131675000Y-91000000D03*
X128645246Y-92622500D03*
X135100000Y-100350000D03*
X136520000Y-105010000D03*
X132962500Y-71037500D03*
X128275070Y-103780470D03*
X129402093Y-87092954D03*
X128684975Y-102834975D03*
X126122735Y-98750000D03*
X126500000Y-99356999D03*
X135275000Y-105475000D03*
X129423231Y-88358744D03*
X129756643Y-90916085D03*
D33*
X129810000Y-106375000D02*
X130110000Y-106075000D01*
X129810000Y-107590000D02*
X129810000Y-106375000D01*
X129000000Y-108400000D02*
X129810000Y-107590000D01*
D34*
X133600000Y-102290000D02*
X134100000Y-102790000D01*
D35*
X136020000Y-98840000D02*
X136290000Y-99110000D01*
D36*
X136250000Y-74600000D02*
X136250000Y-72875000D01*
X123492399Y-76492399D02*
X123492399Y-75561601D01*
X125325000Y-106650000D02*
X126350000Y-106650000D01*
D34*
X134100000Y-102790000D02*
X134100000Y-102840000D01*
D35*
X136020000Y-96645000D02*
X136020000Y-98840000D01*
D37*
X122534000Y-106964000D02*
X124748000Y-104750000D01*
D36*
X128500000Y-93572500D02*
X127487500Y-93572500D01*
D35*
X132930000Y-106080000D02*
X131340000Y-104490000D01*
D36*
X134916000Y-97749000D02*
X136020000Y-96645000D01*
D34*
X134100000Y-103522500D02*
X134100000Y-104710000D01*
D36*
X127450000Y-69300000D02*
X127475000Y-69325000D01*
D35*
X127575861Y-96055861D02*
X127570000Y-96050000D01*
D34*
X132912500Y-103522500D02*
X134100000Y-103522500D01*
X134100000Y-102840000D02*
X134100000Y-103022500D01*
D37*
X122534000Y-110464000D02*
X122534000Y-106964000D01*
D36*
X136442953Y-84275000D02*
X135214697Y-84275000D01*
X126590000Y-96501112D02*
X126590000Y-97495000D01*
D34*
X134100000Y-101835000D02*
X134100000Y-102840000D01*
D35*
X133953847Y-78212500D02*
X133953847Y-77196153D01*
D34*
X131549516Y-103840000D02*
X131340000Y-103840000D01*
D37*
X124748000Y-104750000D02*
X125825000Y-104750000D01*
D35*
X134875000Y-76275000D02*
X134875000Y-75975000D01*
X134400000Y-106000000D02*
X134320000Y-106080000D01*
D36*
X125745000Y-101540000D02*
X124748000Y-102537000D01*
X135975000Y-71615000D02*
X135975000Y-69325000D01*
D35*
X134875000Y-75975000D02*
X136250000Y-74600000D01*
D34*
X132912500Y-103022500D02*
X134100000Y-103022500D01*
D36*
X135214697Y-84275000D02*
X135194232Y-84295465D01*
D34*
X133600000Y-101835000D02*
X133600000Y-102290000D01*
D37*
X131275000Y-93750000D02*
X131350000Y-93675000D01*
D35*
X133953847Y-78212500D02*
X133978847Y-78237500D01*
D36*
X136250000Y-74600000D02*
X136250000Y-75961761D01*
X130785000Y-97870000D02*
X130906000Y-97749000D01*
X123492399Y-75561601D02*
X127475000Y-71579000D01*
D37*
X131350000Y-93675000D02*
X133250000Y-93675000D01*
D36*
X136250000Y-71890000D02*
X135975000Y-71615000D01*
D34*
X134100000Y-103022500D02*
X134350000Y-103272500D01*
X128965000Y-105950000D02*
X127050000Y-105950000D01*
D36*
X124748000Y-102537000D02*
X124748000Y-104750000D01*
D37*
X131275000Y-92000000D02*
X131275000Y-93750000D01*
D36*
X123500000Y-76500000D02*
X123492399Y-76492399D01*
X128511250Y-93583750D02*
X128500000Y-93572500D01*
D35*
X131340000Y-103840000D02*
X131340000Y-104490000D01*
D36*
X136250000Y-72875000D02*
X136250000Y-71890000D01*
X130785000Y-99420000D02*
X130625000Y-99580000D01*
X136442953Y-84275000D02*
X136424344Y-84293609D01*
X130625000Y-99580000D02*
X130625000Y-101315000D01*
D37*
X133250000Y-93675000D02*
X133250000Y-92750000D01*
D36*
X130906000Y-97749000D02*
X134916000Y-97749000D01*
D35*
X133953847Y-77196153D02*
X134875000Y-76275000D01*
D36*
X126520388Y-96431500D02*
X126590000Y-96501112D01*
D34*
X134100000Y-103522500D02*
X134350000Y-103272500D01*
X129090000Y-106075000D02*
X128965000Y-105950000D01*
X127050000Y-105950000D02*
X126350000Y-106650000D01*
D36*
X123320000Y-96645000D02*
X123533500Y-96431500D01*
D37*
X123320000Y-111250000D02*
X122534000Y-110464000D01*
D35*
X127041112Y-96050000D02*
X126590000Y-96501112D01*
X134320000Y-106080000D02*
X132930000Y-106080000D01*
D36*
X123533500Y-96431500D02*
X126520388Y-96431500D01*
X130785000Y-97870000D02*
X130785000Y-99420000D01*
D35*
X127570000Y-96050000D02*
X127041112Y-96050000D01*
D36*
X130625000Y-101315000D02*
X130560000Y-101380000D01*
D35*
X127475000Y-71579000D02*
X127475000Y-69325000D01*
D36*
X136125000Y-111145000D02*
X136020000Y-111250000D01*
D35*
X131380000Y-104490000D02*
X131340000Y-104490000D01*
D36*
X125831000Y-76410000D02*
X131620000Y-76410000D01*
D35*
X125000000Y-93490000D02*
X125000000Y-92835000D01*
D36*
X133330000Y-76390000D02*
X133325000Y-76385000D01*
X133325000Y-76385000D02*
X133325000Y-76275000D01*
D35*
X124625000Y-97975000D02*
X124090000Y-98510000D01*
D34*
X135787500Y-103022500D02*
X136205444Y-103022500D01*
D35*
X125000000Y-92835000D02*
X125212500Y-92622500D01*
X124700000Y-97975000D02*
X124625000Y-97975000D01*
X136290000Y-100619346D02*
X136290000Y-100660000D01*
D36*
X133003847Y-76596153D02*
X133325000Y-76275000D01*
D35*
X132272214Y-98627786D02*
X132350000Y-98550000D01*
D34*
X136501000Y-100871000D02*
X136290000Y-100660000D01*
D36*
X131620000Y-76410000D02*
X133190000Y-76410000D01*
D34*
X136205444Y-103022500D02*
X136501000Y-102726944D01*
D36*
X133190000Y-76410000D02*
X133325000Y-76275000D01*
D34*
X136501000Y-102726944D02*
X136501000Y-100871000D01*
D36*
X133215000Y-76275000D02*
X133325000Y-76275000D01*
X133003847Y-78212500D02*
X133003847Y-76596153D01*
X123320000Y-89025000D02*
X124836678Y-90541678D01*
D35*
X132350000Y-98550000D02*
X133530000Y-98550000D01*
X133530000Y-98550000D02*
X134220654Y-98550000D01*
D36*
X124836678Y-90541678D02*
X125008312Y-90541678D01*
D35*
X134220654Y-98550000D02*
X136290000Y-100619346D01*
D37*
X135770000Y-86235000D02*
X136020000Y-86485000D01*
D36*
X129235000Y-97870000D02*
X130111000Y-96994000D01*
X134500000Y-96000000D02*
X134500000Y-88005000D01*
X128860000Y-97495000D02*
X129235000Y-97870000D01*
X133506000Y-96994000D02*
X134500000Y-96000000D01*
X134500000Y-88005000D02*
X136020000Y-86485000D01*
X130111000Y-96994000D02*
X133506000Y-96994000D01*
X127540000Y-97495000D02*
X128860000Y-97495000D01*
X127400000Y-103130000D02*
X127400000Y-104725000D01*
D34*
X134323999Y-105423500D02*
X133348884Y-105423500D01*
X134600000Y-105147499D02*
X134323999Y-105423500D01*
X134600000Y-104710000D02*
X134600000Y-105147499D01*
D35*
X130820000Y-103190000D02*
X129010000Y-101380000D01*
D36*
X129010000Y-101380000D02*
X129030000Y-101380000D01*
D34*
X135787500Y-103522500D02*
X135369556Y-103522500D01*
X133348884Y-105423500D02*
X131950516Y-104025132D01*
D36*
X128325000Y-98950000D02*
X128445000Y-98950000D01*
X135000000Y-81500000D02*
X134903847Y-81403847D01*
X129010000Y-101380000D02*
X129010000Y-101520000D01*
X129075000Y-101315000D02*
X129010000Y-101380000D01*
X135217953Y-81500000D02*
X135000000Y-81500000D01*
X128240000Y-99770000D02*
X128885000Y-99770000D01*
X129075000Y-99580000D02*
X129075000Y-101315000D01*
D34*
X131950516Y-103475517D02*
X131664999Y-103190000D01*
D36*
X127540000Y-99770000D02*
X128240000Y-99770000D01*
X136442953Y-82725000D02*
X135217953Y-81500000D01*
X129010000Y-101520000D02*
X127400000Y-103130000D01*
D35*
X131340000Y-103190000D02*
X130820000Y-103190000D01*
D34*
X131664999Y-103190000D02*
X131340000Y-103190000D01*
D36*
X134903847Y-81403847D02*
X134903847Y-80487500D01*
D34*
X131950516Y-104025132D02*
X131950516Y-103475517D01*
X135369556Y-103522500D02*
X134600000Y-104292056D01*
X134600000Y-104292056D02*
X134600000Y-104710000D01*
D36*
X128445000Y-98950000D02*
X129075000Y-99580000D01*
X128885000Y-99770000D02*
X129075000Y-99580000D01*
X123320000Y-94520000D02*
X123320000Y-94105000D01*
D33*
X124288500Y-95073500D02*
X123320000Y-94105000D01*
X127487500Y-94522500D02*
X127487500Y-95073500D01*
D34*
X134000000Y-80637500D02*
X134125000Y-80512500D01*
X134600000Y-100910000D02*
X134600000Y-101835000D01*
X134425707Y-100735707D02*
X134600000Y-100910000D01*
D33*
X128475000Y-95500000D02*
X127914000Y-95500000D01*
D34*
X134000000Y-82500000D02*
X134000000Y-80637500D01*
D33*
X127487500Y-95073500D02*
X124288500Y-95073500D01*
X127914000Y-95500000D02*
X127487500Y-95073500D01*
D34*
X134425707Y-99674293D02*
X134425707Y-100735707D01*
D38*
X125860000Y-110290000D02*
X123910000Y-108340000D01*
X125860000Y-111250000D02*
X128400000Y-111250000D01*
X125860000Y-111250000D02*
X125860000Y-110290000D01*
D33*
X132991347Y-80500000D02*
X133003847Y-80487500D01*
X128645246Y-92622500D02*
X127487500Y-92622500D01*
X132000000Y-80500000D02*
X132991347Y-80500000D01*
D34*
X133003847Y-80683653D02*
X133175000Y-80512500D01*
D33*
X125506521Y-91558855D02*
X125500376Y-91565000D01*
X127487500Y-92622500D02*
X126570166Y-92622500D01*
X126570166Y-92622500D02*
X125506521Y-91558855D01*
X125500376Y-91565000D02*
X123320000Y-91565000D01*
D34*
X135100000Y-101835000D02*
X135100000Y-100350000D01*
D37*
X131287500Y-95500000D02*
X133075000Y-95500000D01*
X133075000Y-95500000D02*
X133250000Y-95325000D01*
D39*
X131725000Y-69800000D02*
X131725000Y-69325000D01*
X136650000Y-105400000D02*
X136650000Y-105140000D01*
X131725000Y-70800000D02*
X131725000Y-69325000D01*
X136302500Y-104022500D02*
X136300000Y-104025000D01*
X136650000Y-105140000D02*
X136520000Y-105010000D01*
X131600000Y-106650000D02*
X135400000Y-106650000D01*
X132962500Y-71037500D02*
X131725000Y-69800000D01*
X135787500Y-104022500D02*
X136302500Y-104022500D01*
X136520000Y-104245000D02*
X136520000Y-105010000D01*
X136300000Y-104025000D02*
X136520000Y-104245000D01*
X129440000Y-104490000D02*
X131600000Y-106650000D01*
X135400000Y-106650000D02*
X136650000Y-105400000D01*
D34*
X133530000Y-100200000D02*
X132912500Y-100817500D01*
X132912500Y-100817500D02*
X132912500Y-102522500D01*
D36*
X127340000Y-101540000D02*
X125750000Y-103130000D01*
X125640000Y-99770000D02*
X125640000Y-99785000D01*
X127395000Y-101540000D02*
X127395000Y-101525000D01*
X127395000Y-101525000D02*
X125640000Y-99770000D01*
X127395000Y-101540000D02*
X127340000Y-101540000D01*
D34*
X125640000Y-98157499D02*
X125640000Y-97495000D01*
X124090000Y-100160000D02*
X124090000Y-99707499D01*
X124090000Y-99707499D02*
X125640000Y-98157499D01*
D39*
X129440000Y-103840000D02*
X128334600Y-103840000D01*
D35*
X128275070Y-103780470D02*
X128345600Y-103851000D01*
D39*
X128334600Y-103840000D02*
X128275070Y-103780470D01*
D40*
X132903774Y-88362954D02*
X127481774Y-88362954D01*
X130787802Y-84001755D02*
X130787802Y-86055152D01*
X130787802Y-86055152D02*
X129750000Y-87092954D01*
D41*
X130787802Y-84001755D02*
X132377802Y-84001755D01*
D33*
X135100000Y-104710000D02*
X135100000Y-105300000D01*
D40*
X127481774Y-87092954D02*
X127481774Y-88362954D01*
X132903774Y-87092954D02*
X132903774Y-88362954D01*
D39*
X129440000Y-103190000D02*
X129040000Y-103190000D01*
D40*
X132903774Y-87092954D02*
X127481774Y-87092954D01*
D37*
X123896879Y-70311183D02*
X123896879Y-70353121D01*
D33*
X135100000Y-105300000D02*
X135275000Y-105475000D01*
D37*
X123896879Y-70353121D02*
X123750000Y-70500000D01*
D39*
X129040000Y-103190000D02*
X128684975Y-102834975D01*
D35*
X129693399Y-79443399D02*
X132377802Y-82127802D01*
X132377802Y-82127802D02*
X132377802Y-82351755D01*
X129693399Y-77991232D02*
X129693399Y-79443399D01*
D36*
X127481774Y-85822954D02*
X129041000Y-84263728D01*
X130787802Y-82351755D02*
X129142755Y-82351755D01*
X129041000Y-84263728D02*
X129041000Y-82250000D01*
X129041000Y-79878833D02*
X127153399Y-77991232D01*
X129041000Y-82250000D02*
X129041000Y-79878833D01*
X129142755Y-82351755D02*
X129041000Y-82250000D01*
X129725000Y-92000000D02*
X129725000Y-95487500D01*
X129756643Y-90916085D02*
X129756643Y-90756643D01*
X128632954Y-89632954D02*
X127481774Y-89632954D01*
X129725000Y-93000000D02*
X129725000Y-92000000D01*
X129725000Y-93750000D02*
X129725000Y-93000000D01*
X129756643Y-90916085D02*
X129750000Y-90922728D01*
X129725000Y-95487500D02*
X129712500Y-95500000D01*
X129750000Y-91975000D02*
X129725000Y-92000000D01*
X129725000Y-93000000D02*
X129725000Y-95487500D01*
X129756643Y-90756643D02*
X128632954Y-89632954D01*
X129750000Y-90922728D02*
X129750000Y-91975000D01*
G04 #@! TA.AperFunction,Conductor*
G36*
X131762347Y-86478943D02*
G01*
X131782228Y-86505500D01*
X131854462Y-86559574D01*
X131896332Y-86615507D01*
X131901768Y-86683030D01*
X131889774Y-86743330D01*
X131889774Y-86892954D01*
X132779774Y-86892954D01*
X132846813Y-86912639D01*
X132892568Y-86965443D01*
X132903774Y-87016954D01*
X132903774Y-87092954D01*
X132979774Y-87092954D01*
X133046813Y-87112639D01*
X133092568Y-87165443D01*
X133103774Y-87216954D01*
X133103774Y-87690966D01*
X133109578Y-87701596D01*
X133107998Y-87723682D01*
X133111150Y-87745601D01*
X133105554Y-87757852D01*
X133104594Y-87771288D01*
X133103774Y-87772383D01*
X133103774Y-88238954D01*
X133084089Y-88305993D01*
X133031285Y-88351748D01*
X132979774Y-88362954D01*
X132903774Y-88362954D01*
X132903774Y-88438954D01*
X132884089Y-88505993D01*
X132831285Y-88551748D01*
X132779774Y-88562954D01*
X131889774Y-88562954D01*
X131889774Y-88712582D01*
X131901767Y-88772876D01*
X131900491Y-88787127D01*
X131904088Y-88800975D01*
X131897440Y-88821230D01*
X131895540Y-88842468D01*
X131886346Y-88855035D01*
X131882301Y-88867361D01*
X131861469Y-88889040D01*
X131858359Y-88893292D01*
X131856421Y-88894866D01*
X131782228Y-88950408D01*
X131773125Y-88962567D01*
X131761243Y-88972225D01*
X131742576Y-88980048D01*
X131726372Y-88992180D01*
X131704000Y-88996216D01*
X131696804Y-88999233D01*
X131691986Y-88998384D01*
X131683034Y-89000000D01*
X129074150Y-89000000D01*
X129007111Y-88980315D01*
X129005257Y-88979101D01*
X128988451Y-88967871D01*
X128988442Y-88967866D01*
X128851871Y-88911297D01*
X128851861Y-88911294D01*
X128706874Y-88882454D01*
X128706872Y-88882454D01*
X128613078Y-88882454D01*
X128546039Y-88862769D01*
X128500284Y-88809965D01*
X128490340Y-88740807D01*
X128491461Y-88734262D01*
X128495774Y-88712580D01*
X128495774Y-88562954D01*
X127605774Y-88562954D01*
X127538735Y-88543269D01*
X127492980Y-88490465D01*
X127481774Y-88438954D01*
X127481774Y-88362954D01*
X127405774Y-88362954D01*
X127338735Y-88343269D01*
X127292980Y-88290465D01*
X127281774Y-88238954D01*
X127281774Y-87764941D01*
X127275970Y-87754312D01*
X127277549Y-87732225D01*
X127274398Y-87710307D01*
X127279993Y-87698055D01*
X127280500Y-87690966D01*
X127681774Y-87690966D01*
X127687578Y-87701596D01*
X127685998Y-87723682D01*
X127689150Y-87745601D01*
X127683554Y-87757852D01*
X127682594Y-87771288D01*
X127681774Y-87772563D01*
X127681774Y-88162954D01*
X128495774Y-88162954D01*
X128495774Y-88013327D01*
X128495773Y-88013325D01*
X128481270Y-87940413D01*
X128481268Y-87940409D01*
X128426014Y-87857715D01*
X128386117Y-87831057D01*
X128341312Y-87777445D01*
X128332603Y-87708120D01*
X128362758Y-87645092D01*
X128386117Y-87624851D01*
X128426014Y-87598192D01*
X128481268Y-87515498D01*
X128481270Y-87515494D01*
X128495773Y-87442582D01*
X131889774Y-87442582D01*
X131904277Y-87515494D01*
X131904279Y-87515498D01*
X131959534Y-87598193D01*
X131999431Y-87624852D01*
X132044236Y-87678464D01*
X132052943Y-87747789D01*
X132022789Y-87810816D01*
X131999431Y-87831056D01*
X131959534Y-87857714D01*
X131904279Y-87940409D01*
X131904277Y-87940413D01*
X131889774Y-88013325D01*
X131889774Y-88162954D01*
X132703774Y-88162954D01*
X132703774Y-87764941D01*
X132697970Y-87754312D01*
X132699549Y-87732225D01*
X132696398Y-87710307D01*
X132701993Y-87698055D01*
X132702954Y-87684620D01*
X132703774Y-87683344D01*
X132703774Y-87292954D01*
X131889774Y-87292954D01*
X131889774Y-87442582D01*
X128495773Y-87442582D01*
X128495774Y-87442580D01*
X128495774Y-87292954D01*
X127681774Y-87292954D01*
X127681774Y-87690966D01*
X127280500Y-87690966D01*
X127280954Y-87684620D01*
X127281774Y-87683524D01*
X127281774Y-87216954D01*
X127301459Y-87149915D01*
X127354263Y-87104160D01*
X127405774Y-87092954D01*
X127481774Y-87092954D01*
X127481774Y-87016954D01*
X127501459Y-86949915D01*
X127554263Y-86904160D01*
X127605774Y-86892954D01*
X128495774Y-86892954D01*
X128495774Y-86743327D01*
X128483780Y-86683032D01*
X128485272Y-86666356D01*
X128481713Y-86649995D01*
X128488321Y-86632276D01*
X128490007Y-86613440D01*
X128500458Y-86599734D01*
X128506129Y-86584531D01*
X128531080Y-86559578D01*
X128603320Y-86505500D01*
X128603322Y-86505496D01*
X128606175Y-86503361D01*
X128671640Y-86478943D01*
X128680242Y-86478628D01*
X131758581Y-86473912D01*
X131762347Y-86478943D01*
G37*
G04 #@! TD.AperFunction*
G04 #@! TA.AperFunction,Conductor*
G36*
X133444622Y-83080841D02*
G01*
X133465634Y-83097713D01*
X133489707Y-83121786D01*
X133489711Y-83121789D01*
X133620814Y-83209390D01*
X133620827Y-83209397D01*
X133724297Y-83252255D01*
X133746660Y-83261518D01*
X133766501Y-83269736D01*
X133766503Y-83269737D01*
X133811378Y-83278663D01*
X133873287Y-83311047D01*
X133907861Y-83371763D01*
X133911185Y-83400280D01*
X133911185Y-84880431D01*
X133891500Y-84947470D01*
X133838696Y-84993225D01*
X133773932Y-85003720D01*
X133715647Y-84997454D01*
X133715638Y-84997454D01*
X132091903Y-84997454D01*
X132091897Y-84997455D01*
X132032290Y-85003862D01*
X131897445Y-85054156D01*
X131897438Y-85054160D01*
X131782229Y-85140406D01*
X131782226Y-85140409D01*
X131695980Y-85255618D01*
X131695976Y-85255625D01*
X131645684Y-85390467D01*
X131645683Y-85390471D01*
X131639274Y-85450081D01*
X131639274Y-85450088D01*
X131639274Y-85450089D01*
X131639274Y-86195824D01*
X131639275Y-86195830D01*
X131645682Y-86255437D01*
X131695976Y-86390282D01*
X131695980Y-86390289D01*
X131765132Y-86482663D01*
X131782228Y-86505500D01*
X131846298Y-86553463D01*
X129859897Y-86558526D01*
X129856617Y-84418970D01*
X129876199Y-84351904D01*
X129928933Y-84306068D01*
X129998076Y-84296018D01*
X130061676Y-84324946D01*
X130097659Y-84377829D01*
X130110455Y-84414400D01*
X130191009Y-84523547D01*
X130300156Y-84604101D01*
X130428199Y-84648904D01*
X130458580Y-84651753D01*
X130458608Y-84651754D01*
X130587801Y-84651754D01*
X130987802Y-84651754D01*
X131116998Y-84651754D01*
X131147408Y-84648903D01*
X131275447Y-84604101D01*
X131384594Y-84523547D01*
X131465148Y-84414400D01*
X131465760Y-84412652D01*
X131466947Y-84410996D01*
X131469492Y-84406182D01*
X131470150Y-84406530D01*
X131506481Y-84355876D01*
X131571434Y-84330128D01*
X131639995Y-84343584D01*
X131690399Y-84391970D01*
X131699844Y-84412652D01*
X131700455Y-84414400D01*
X131781009Y-84523547D01*
X131890156Y-84604101D01*
X132018199Y-84648904D01*
X132048580Y-84651753D01*
X132048608Y-84651754D01*
X132177801Y-84651754D01*
X132577802Y-84651754D01*
X132706998Y-84651754D01*
X132737408Y-84648903D01*
X132865447Y-84604101D01*
X132974594Y-84523547D01*
X133055148Y-84414400D01*
X133099951Y-84286359D01*
X133099951Y-84286355D01*
X133102802Y-84255961D01*
X133102802Y-84201755D01*
X132577802Y-84201755D01*
X132577802Y-84651754D01*
X132177801Y-84651754D01*
X132177802Y-84651753D01*
X132177802Y-84201755D01*
X131642891Y-84201755D01*
X131634314Y-84209187D01*
X131620980Y-84211104D01*
X131609157Y-84217560D01*
X131587071Y-84215979D01*
X131565156Y-84219131D01*
X131552903Y-84213535D01*
X131539465Y-84212574D01*
X131525013Y-84201755D01*
X130987802Y-84201755D01*
X130987802Y-84651754D01*
X130587801Y-84651754D01*
X130587802Y-84651753D01*
X130587802Y-84125755D01*
X130607487Y-84058716D01*
X130660291Y-84012961D01*
X130711802Y-84001755D01*
X130787802Y-84001755D01*
X130787802Y-83925755D01*
X130807487Y-83858716D01*
X130860291Y-83812961D01*
X130911802Y-83801755D01*
X131522711Y-83801755D01*
X131531289Y-83794322D01*
X131544618Y-83792405D01*
X131556440Y-83785950D01*
X131578529Y-83787529D01*
X131600447Y-83784378D01*
X131612697Y-83789972D01*
X131626131Y-83790933D01*
X131642971Y-83801755D01*
X133102801Y-83801755D01*
X133102801Y-83747558D01*
X133099950Y-83717148D01*
X133055148Y-83589109D01*
X132974594Y-83479962D01*
X132890704Y-83418049D01*
X132848454Y-83362402D01*
X132842995Y-83292745D01*
X132876063Y-83231196D01*
X132927449Y-83199894D01*
X132942408Y-83195233D01*
X133087987Y-83107227D01*
X133096812Y-83098401D01*
X133123556Y-83083796D01*
X133149137Y-83067229D01*
X133155656Y-83066268D01*
X133158132Y-83064916D01*
X133184045Y-83062082D01*
X133377516Y-83061395D01*
X133444622Y-83080841D01*
G37*
G04 #@! TD.AperFunction*
G04 #@! TA.AperFunction,Conductor*
G36*
X131584240Y-83078597D02*
G01*
X131612099Y-83077285D01*
X131622106Y-83081297D01*
X131626111Y-83081583D01*
X131631576Y-83085094D01*
X131644858Y-83090420D01*
X131658964Y-83098574D01*
X131667617Y-83107227D01*
X131813196Y-83195233D01*
X131841355Y-83204007D01*
X131853322Y-83210925D01*
X131901511Y-83261518D01*
X131914697Y-83330132D01*
X131888695Y-83394983D01*
X131864899Y-83418049D01*
X131781009Y-83479962D01*
X131700455Y-83589109D01*
X131700451Y-83589118D01*
X131699838Y-83590870D01*
X131698650Y-83592525D01*
X131696112Y-83597328D01*
X131695454Y-83596980D01*
X131659111Y-83647642D01*
X131594155Y-83673382D01*
X131525595Y-83659919D01*
X131475197Y-83611526D01*
X131465757Y-83590850D01*
X131465147Y-83589109D01*
X131465148Y-83589109D01*
X131384594Y-83479962D01*
X131300704Y-83418049D01*
X131258454Y-83362402D01*
X131252995Y-83292745D01*
X131286063Y-83231196D01*
X131337449Y-83199894D01*
X131352408Y-83195233D01*
X131497987Y-83107227D01*
X131497996Y-83107217D01*
X131503891Y-83102601D01*
X131505376Y-83104497D01*
X131519575Y-83096740D01*
X131542307Y-83080572D01*
X131549818Y-83080218D01*
X131556418Y-83076613D01*
X131584240Y-83078597D01*
G37*
G04 #@! TD.AperFunction*
G04 #@! TA.AperFunction,Conductor*
G36*
X135554075Y-111442993D02*
G01*
X135619901Y-111557007D01*
X135712993Y-111650099D01*
X135827007Y-111715925D01*
X135834822Y-111718019D01*
X135396307Y-112156534D01*
X135443478Y-112190805D01*
X135597749Y-112269411D01*
X135601431Y-112270936D01*
X135655837Y-112314773D01*
X135677907Y-112381066D01*
X135660632Y-112448766D01*
X135609498Y-112496380D01*
X135553986Y-112509500D01*
X134425689Y-112509500D01*
X134358650Y-112489815D01*
X134312895Y-112437011D01*
X134302951Y-112367853D01*
X134331976Y-112304297D01*
X134352804Y-112285181D01*
X134359792Y-112280104D01*
X134510104Y-112129792D01*
X134510106Y-112129788D01*
X134510109Y-112129786D01*
X134635048Y-111957820D01*
X134635047Y-111957820D01*
X134635051Y-111957816D01*
X134731557Y-111768412D01*
X134763765Y-111669284D01*
X134803201Y-111611611D01*
X134867559Y-111584412D01*
X134936406Y-111596326D01*
X134987882Y-111643570D01*
X134999625Y-111669282D01*
X135000591Y-111672256D01*
X135079195Y-111826523D01*
X135079196Y-111826525D01*
X135113463Y-111873691D01*
X135113464Y-111873691D01*
X135551980Y-111435176D01*
X135554075Y-111442993D01*
G37*
G04 #@! TD.AperFunction*
G04 #@! TA.AperFunction,Conductor*
G36*
X136926533Y-111873692D02*
G01*
X136926534Y-111873691D01*
X136960803Y-111826525D01*
X137039410Y-111672252D01*
X137040934Y-111668573D01*
X137084769Y-111614165D01*
X137151060Y-111592093D01*
X137218762Y-111609364D01*
X137266378Y-111660496D01*
X137279500Y-111716013D01*
X137279500Y-112385500D01*
X137259815Y-112452539D01*
X137207011Y-112498294D01*
X137155500Y-112509500D01*
X136486014Y-112509500D01*
X136418975Y-112489815D01*
X136373220Y-112437011D01*
X136363276Y-112367853D01*
X136392301Y-112304297D01*
X136438569Y-112270936D01*
X136442250Y-112269411D01*
X136596525Y-112190803D01*
X136643691Y-112156534D01*
X136643692Y-112156533D01*
X136205178Y-111718019D01*
X136212993Y-111715925D01*
X136327007Y-111650099D01*
X136420099Y-111557007D01*
X136485925Y-111442993D01*
X136488019Y-111435177D01*
X136926533Y-111873692D01*
G37*
G04 #@! TD.AperFunction*
G04 #@! TA.AperFunction,Conductor*
G36*
X137198834Y-105767559D02*
G01*
X137254767Y-105809431D01*
X137279184Y-105874895D01*
X137279500Y-105883741D01*
X137279500Y-110783986D01*
X137259815Y-110851025D01*
X137207011Y-110896780D01*
X137137853Y-110906724D01*
X137074297Y-110877699D01*
X137040936Y-110831431D01*
X137039411Y-110827749D01*
X136960805Y-110673478D01*
X136926534Y-110626307D01*
X136488019Y-111064822D01*
X136485925Y-111057007D01*
X136420099Y-110942993D01*
X136327007Y-110849901D01*
X136212993Y-110784075D01*
X136205176Y-110781980D01*
X136643691Y-110343464D01*
X136643691Y-110343463D01*
X136596525Y-110309196D01*
X136596523Y-110309195D01*
X136442257Y-110230591D01*
X136277584Y-110177085D01*
X136106571Y-110150000D01*
X135933429Y-110150000D01*
X135762415Y-110177085D01*
X135597740Y-110230592D01*
X135443475Y-110309196D01*
X135396307Y-110343463D01*
X135396307Y-110343464D01*
X135834823Y-110781980D01*
X135827007Y-110784075D01*
X135712993Y-110849901D01*
X135619901Y-110942993D01*
X135554075Y-111057007D01*
X135551980Y-111064823D01*
X135113464Y-110626307D01*
X135113463Y-110626307D01*
X135079196Y-110673475D01*
X135000590Y-110827743D01*
X135000590Y-110827744D01*
X134999623Y-110830722D01*
X134998950Y-110831705D01*
X134998729Y-110832240D01*
X134998616Y-110832193D01*
X134960182Y-110888394D01*
X134895821Y-110915588D01*
X134826976Y-110903668D01*
X134775503Y-110856421D01*
X134763766Y-110830719D01*
X134731557Y-110731588D01*
X134635051Y-110542184D01*
X134510104Y-110370208D01*
X134359792Y-110219896D01*
X134359786Y-110219890D01*
X134187820Y-110094951D01*
X133998414Y-109998444D01*
X133998413Y-109998443D01*
X133998412Y-109998443D01*
X133796243Y-109932754D01*
X133796241Y-109932753D01*
X133796240Y-109932753D01*
X133634957Y-109907208D01*
X133586287Y-109899500D01*
X133373713Y-109899500D01*
X133318100Y-109908308D01*
X133260622Y-109917411D01*
X133260611Y-109917413D01*
X133163757Y-109932754D01*
X133038652Y-109973403D01*
X133038645Y-109973405D01*
X132961585Y-109998444D01*
X132772179Y-110094951D01*
X132600213Y-110219890D01*
X132449890Y-110370213D01*
X132324949Y-110542182D01*
X132320484Y-110550946D01*
X132272509Y-110601742D01*
X132204688Y-110618536D01*
X132138553Y-110595998D01*
X132099516Y-110550946D01*
X132095050Y-110542182D01*
X131970109Y-110370213D01*
X131819786Y-110219890D01*
X131647820Y-110094951D01*
X131458414Y-109998444D01*
X131458413Y-109998443D01*
X131458412Y-109998443D01*
X131256243Y-109932754D01*
X131256241Y-109932753D01*
X131256240Y-109932753D01*
X131094957Y-109907208D01*
X131046287Y-109899500D01*
X130833713Y-109899500D01*
X130785042Y-109907208D01*
X130623760Y-109932753D01*
X130421585Y-109998444D01*
X130232179Y-110094951D01*
X130060213Y-110219890D01*
X129909890Y-110370213D01*
X129784949Y-110542182D01*
X129780484Y-110550946D01*
X129732509Y-110601742D01*
X129664688Y-110618536D01*
X129598553Y-110595998D01*
X129559516Y-110550946D01*
X129555050Y-110542182D01*
X129430109Y-110370213D01*
X129279786Y-110219890D01*
X129107820Y-110094951D01*
X128918414Y-109998444D01*
X128918413Y-109998443D01*
X128918412Y-109998443D01*
X128899907Y-109992430D01*
X128842232Y-109952994D01*
X128815034Y-109888635D01*
X128826949Y-109819789D01*
X128874193Y-109768313D01*
X128938226Y-109750500D01*
X129146286Y-109750500D01*
X129146287Y-109750500D01*
X129356243Y-109717246D01*
X129558412Y-109651557D01*
X129747816Y-109555051D01*
X129834138Y-109492335D01*
X129919786Y-109430109D01*
X129919788Y-109430106D01*
X129919792Y-109430104D01*
X130070104Y-109279792D01*
X130070106Y-109279788D01*
X130070109Y-109279786D01*
X130195048Y-109107820D01*
X130195047Y-109107820D01*
X130195051Y-109107816D01*
X130291557Y-108918412D01*
X130357246Y-108716243D01*
X130390500Y-108506287D01*
X130390500Y-108293713D01*
X130357246Y-108083757D01*
X130324278Y-107982295D01*
X130323314Y-107948529D01*
X130321702Y-107914756D01*
X130322306Y-107913245D01*
X130322284Y-107912455D01*
X130334814Y-107881992D01*
X130340639Y-107871904D01*
X130369577Y-107821785D01*
X130410501Y-107669057D01*
X130410501Y-107510943D01*
X130410501Y-107503348D01*
X130410500Y-107503330D01*
X130410500Y-106966796D01*
X130430185Y-106899757D01*
X130482989Y-106854002D01*
X130498711Y-106848163D01*
X130499385Y-106847871D01*
X130499393Y-106847869D01*
X130637598Y-106766135D01*
X130682245Y-106721487D01*
X130743565Y-106688002D01*
X130813257Y-106692985D01*
X130857607Y-106721487D01*
X131139485Y-107003365D01*
X131246635Y-107110515D01*
X131312328Y-107148443D01*
X131377865Y-107186281D01*
X131524233Y-107225500D01*
X131524234Y-107225500D01*
X131725242Y-107225500D01*
X131792281Y-107245185D01*
X131838036Y-107297989D01*
X131847980Y-107367147D01*
X131818955Y-107430703D01*
X131812923Y-107437181D01*
X131729894Y-107520209D01*
X131729890Y-107520213D01*
X131604951Y-107692179D01*
X131508444Y-107881585D01*
X131442753Y-108083760D01*
X131409500Y-108293713D01*
X131409500Y-108506286D01*
X131442753Y-108716239D01*
X131508444Y-108918414D01*
X131604951Y-109107820D01*
X131729890Y-109279786D01*
X131880213Y-109430109D01*
X132052179Y-109555048D01*
X132052181Y-109555049D01*
X132052184Y-109555051D01*
X132241588Y-109651557D01*
X132443757Y-109717246D01*
X132653713Y-109750500D01*
X132653714Y-109750500D01*
X132866286Y-109750500D01*
X132866287Y-109750500D01*
X133076243Y-109717246D01*
X133278412Y-109651557D01*
X133467816Y-109555051D01*
X133639792Y-109430104D01*
X133753329Y-109316566D01*
X133814648Y-109283084D01*
X133884340Y-109288068D01*
X133940274Y-109329939D01*
X133957189Y-109360917D01*
X134006202Y-109492328D01*
X134006206Y-109492335D01*
X134092452Y-109607544D01*
X134092455Y-109607547D01*
X134207664Y-109693793D01*
X134207671Y-109693797D01*
X134342517Y-109744091D01*
X134342516Y-109744091D01*
X134349444Y-109744835D01*
X134402127Y-109750500D01*
X136197872Y-109750499D01*
X136257483Y-109744091D01*
X136392331Y-109693796D01*
X136507546Y-109607546D01*
X136593796Y-109492331D01*
X136644091Y-109357483D01*
X136650500Y-109297873D01*
X136650499Y-107502128D01*
X136644091Y-107442517D01*
X136593796Y-107307669D01*
X136593795Y-107307668D01*
X136593793Y-107307664D01*
X136507547Y-107192455D01*
X136507544Y-107192452D01*
X136392335Y-107106206D01*
X136392328Y-107106202D01*
X136257482Y-107055908D01*
X136257483Y-107055908D01*
X136197883Y-107049501D01*
X136197881Y-107049500D01*
X136197873Y-107049500D01*
X136197865Y-107049500D01*
X136113741Y-107049500D01*
X136046702Y-107029815D01*
X136000947Y-106977011D01*
X135991003Y-106907853D01*
X136020028Y-106844297D01*
X136026060Y-106837819D01*
X136409822Y-106454057D01*
X137067821Y-105796058D01*
X137129142Y-105762575D01*
X137198834Y-105767559D01*
G37*
G04 #@! TD.AperFunction*
G04 #@! TA.AperFunction,Conductor*
G36*
X122854075Y-96837993D02*
G01*
X122919901Y-96952007D01*
X123012993Y-97045099D01*
X123127007Y-97110925D01*
X123134821Y-97113019D01*
X122696307Y-97551534D01*
X122743478Y-97585805D01*
X122897742Y-97664408D01*
X123062409Y-97717912D01*
X123146764Y-97731272D01*
X123209899Y-97761201D01*
X123246831Y-97820513D01*
X123245833Y-97890375D01*
X123233484Y-97917895D01*
X123171523Y-98020391D01*
X123120913Y-98182807D01*
X123114500Y-98253386D01*
X123114500Y-98766613D01*
X123120913Y-98837192D01*
X123120913Y-98837194D01*
X123120914Y-98837196D01*
X123171522Y-98999606D01*
X123232223Y-99100018D01*
X123259530Y-99145188D01*
X123361661Y-99247319D01*
X123395146Y-99308642D01*
X123390162Y-99378334D01*
X123361661Y-99422681D01*
X123259531Y-99524810D01*
X123259530Y-99524811D01*
X123171522Y-99670393D01*
X123120913Y-99832807D01*
X123116775Y-99878345D01*
X123114500Y-99903384D01*
X123114500Y-100416616D01*
X123116423Y-100437778D01*
X123120913Y-100487192D01*
X123120913Y-100487194D01*
X123120914Y-100487196D01*
X123171522Y-100649606D01*
X123254336Y-100786597D01*
X123259530Y-100795188D01*
X123379811Y-100915469D01*
X123379813Y-100915470D01*
X123379815Y-100915472D01*
X123525394Y-101003478D01*
X123687804Y-101054086D01*
X123758384Y-101060500D01*
X123758387Y-101060500D01*
X124421613Y-101060500D01*
X124421616Y-101060500D01*
X124492196Y-101054086D01*
X124654606Y-101003478D01*
X124800185Y-100915472D01*
X124913925Y-100801731D01*
X124975246Y-100768248D01*
X125044938Y-100773232D01*
X125068986Y-100785319D01*
X125080006Y-100792452D01*
X125088135Y-100800581D01*
X125139420Y-100830910D01*
X125141523Y-100832272D01*
X125162752Y-100856934D01*
X125184946Y-100880704D01*
X125185410Y-100883257D01*
X125187104Y-100885225D01*
X125191627Y-100917437D01*
X125197450Y-100949445D01*
X125196475Y-100951953D01*
X125196821Y-100954416D01*
X125188475Y-100972533D01*
X125173912Y-101010000D01*
X125142655Y-101052351D01*
X125142653Y-101052354D01*
X125097850Y-101180395D01*
X125097850Y-101180399D01*
X125095000Y-101210793D01*
X125095000Y-101340000D01*
X125621000Y-101340000D01*
X125629685Y-101342550D01*
X125638647Y-101341262D01*
X125662687Y-101352240D01*
X125688039Y-101359685D01*
X125693966Y-101366525D01*
X125702203Y-101370287D01*
X125716492Y-101392521D01*
X125733794Y-101412489D01*
X125736081Y-101423003D01*
X125739977Y-101429065D01*
X125745000Y-101464000D01*
X125745000Y-101616000D01*
X125725315Y-101683039D01*
X125672511Y-101728794D01*
X125621000Y-101740000D01*
X125095001Y-101740000D01*
X125095001Y-101869196D01*
X125097851Y-101899606D01*
X125142653Y-102027645D01*
X125192073Y-102094606D01*
X125216044Y-102160235D01*
X125200729Y-102228406D01*
X125156454Y-102274356D01*
X125114814Y-102299528D01*
X125114810Y-102299531D01*
X124994530Y-102419811D01*
X124906522Y-102565393D01*
X124855913Y-102727807D01*
X124849500Y-102798386D01*
X124849500Y-103461613D01*
X124855913Y-103532192D01*
X124855913Y-103532194D01*
X124855914Y-103532196D01*
X124886820Y-103631379D01*
X124906522Y-103694606D01*
X124994530Y-103840188D01*
X125114811Y-103960469D01*
X125114813Y-103960470D01*
X125114815Y-103960472D01*
X125201242Y-104012719D01*
X125248429Y-104064246D01*
X125260267Y-104133105D01*
X125236359Y-104193145D01*
X125178814Y-104270016D01*
X125131083Y-104397989D01*
X125125000Y-104454571D01*
X125125000Y-104550000D01*
X125701000Y-104550000D01*
X125768039Y-104569685D01*
X125813794Y-104622489D01*
X125825000Y-104674000D01*
X125825000Y-104750000D01*
X125901000Y-104750000D01*
X125968039Y-104769685D01*
X126013794Y-104822489D01*
X126025000Y-104874000D01*
X126025000Y-105474999D01*
X126095433Y-105474999D01*
X126095439Y-105474998D01*
X126152007Y-105468918D01*
X126279981Y-105421186D01*
X126279988Y-105421182D01*
X126361136Y-105360435D01*
X126426600Y-105336017D01*
X126494873Y-105350868D01*
X126540985Y-105394604D01*
X126577029Y-105453040D01*
X126577032Y-105453044D01*
X126696955Y-105572967D01*
X126696959Y-105572970D01*
X126841294Y-105661998D01*
X126841297Y-105661999D01*
X126841303Y-105662003D01*
X127002292Y-105715349D01*
X127101655Y-105725500D01*
X127648344Y-105725499D01*
X127648351Y-105725498D01*
X127648356Y-105725498D01*
X127716760Y-105718510D01*
X127747708Y-105715349D01*
X127908697Y-105662003D01*
X128053044Y-105572968D01*
X128172968Y-105453044D01*
X128262003Y-105308697D01*
X128315349Y-105147708D01*
X128325500Y-105048345D01*
X128325499Y-104688384D01*
X128334444Y-104657920D01*
X128341745Y-104627024D01*
X128344215Y-104624639D01*
X128345183Y-104621346D01*
X128369176Y-104600555D01*
X128392025Y-104578509D01*
X128396401Y-104576965D01*
X128397987Y-104575591D01*
X128425299Y-104566770D01*
X128471796Y-104557521D01*
X128541385Y-104563750D01*
X128596562Y-104606613D01*
X128618923Y-104662955D01*
X128629954Y-104746754D01*
X128629956Y-104746762D01*
X128681600Y-104871443D01*
X128690464Y-104892841D01*
X128786718Y-105018282D01*
X128912159Y-105114536D01*
X129058238Y-105175044D01*
X129175639Y-105190500D01*
X129275257Y-105190499D01*
X129304699Y-105199144D01*
X129334684Y-105205667D01*
X129339697Y-105209420D01*
X129342295Y-105210183D01*
X129362938Y-105226818D01*
X129441586Y-105305466D01*
X129475071Y-105366789D01*
X129470087Y-105436481D01*
X129428215Y-105492414D01*
X129362751Y-105516831D01*
X129336027Y-105515851D01*
X129290001Y-105509144D01*
X129290000Y-105509146D01*
X129290000Y-106041440D01*
X129273387Y-106103440D01*
X129250423Y-106143215D01*
X129209499Y-106295943D01*
X129209499Y-106295945D01*
X129209499Y-106464046D01*
X129209500Y-106464059D01*
X129209500Y-106925500D01*
X129189815Y-106992539D01*
X129137011Y-107038294D01*
X129085500Y-107049500D01*
X128933713Y-107049500D01*
X128885042Y-107057208D01*
X128723760Y-107082753D01*
X128521585Y-107148444D01*
X128332179Y-107244951D01*
X128160213Y-107369890D01*
X128009890Y-107520213D01*
X127884949Y-107692182D01*
X127880484Y-107700946D01*
X127832509Y-107751742D01*
X127764688Y-107768536D01*
X127698553Y-107745998D01*
X127659516Y-107700946D01*
X127655050Y-107692182D01*
X127530109Y-107520213D01*
X127379786Y-107369890D01*
X127207820Y-107244951D01*
X127018414Y-107148444D01*
X127018413Y-107148443D01*
X127018412Y-107148443D01*
X126816243Y-107082754D01*
X126816241Y-107082753D01*
X126816240Y-107082753D01*
X126654957Y-107057208D01*
X126606287Y-107049500D01*
X126393713Y-107049500D01*
X126345042Y-107057208D01*
X126183760Y-107082753D01*
X125981585Y-107148444D01*
X125792179Y-107244951D01*
X125620215Y-107369889D01*
X125506673Y-107483431D01*
X125445350Y-107516915D01*
X125375658Y-107511931D01*
X125319725Y-107470059D01*
X125302810Y-107439082D01*
X125253797Y-107307671D01*
X125253793Y-107307664D01*
X125167547Y-107192455D01*
X125167544Y-107192452D01*
X125052335Y-107106206D01*
X125052328Y-107106202D01*
X124917482Y-107055908D01*
X124917483Y-107055908D01*
X124857883Y-107049501D01*
X124857881Y-107049500D01*
X124857873Y-107049500D01*
X124857864Y-107049500D01*
X123062129Y-107049500D01*
X123062123Y-107049501D01*
X123002516Y-107055908D01*
X122867671Y-107106202D01*
X122867664Y-107106206D01*
X122752455Y-107192452D01*
X122752452Y-107192455D01*
X122666206Y-107307664D01*
X122666202Y-107307671D01*
X122615908Y-107442517D01*
X122611510Y-107483431D01*
X122609501Y-107502123D01*
X122609500Y-107502135D01*
X122609500Y-109297870D01*
X122609501Y-109297876D01*
X122615908Y-109357483D01*
X122666202Y-109492328D01*
X122666206Y-109492335D01*
X122752452Y-109607544D01*
X122752455Y-109607547D01*
X122867664Y-109693793D01*
X122867671Y-109693797D01*
X123002517Y-109744091D01*
X123002516Y-109744091D01*
X123009444Y-109744835D01*
X123062127Y-109750500D01*
X123854217Y-109750499D01*
X123883663Y-109759145D01*
X123913644Y-109765667D01*
X123918657Y-109769419D01*
X123921256Y-109770183D01*
X123941898Y-109786818D01*
X124093399Y-109938319D01*
X124126884Y-109999642D01*
X124121900Y-110069334D01*
X124080028Y-110125267D01*
X124014564Y-110149684D01*
X124005718Y-110150000D01*
X123520000Y-110150000D01*
X123520000Y-110788120D01*
X123512993Y-110784075D01*
X123385826Y-110750000D01*
X123254174Y-110750000D01*
X123127007Y-110784075D01*
X123120000Y-110788120D01*
X123120000Y-110150000D01*
X122445373Y-110150000D01*
X122372459Y-110164503D01*
X122372455Y-110164505D01*
X122289760Y-110219760D01*
X122287602Y-110222990D01*
X122233989Y-110267795D01*
X122164664Y-110276502D01*
X122101637Y-110246347D01*
X122064918Y-110186904D01*
X122060500Y-110154099D01*
X122060500Y-106296539D01*
X128570001Y-106296539D01*
X128580903Y-106371374D01*
X128637336Y-106486810D01*
X128728189Y-106577663D01*
X128843625Y-106634096D01*
X128890000Y-106640852D01*
X128890000Y-106275000D01*
X128570001Y-106275000D01*
X128570001Y-106296539D01*
X122060500Y-106296539D01*
X122060500Y-105853464D01*
X128570000Y-105853464D01*
X128570000Y-105875000D01*
X128890000Y-105875000D01*
X128890000Y-105509147D01*
X128843625Y-105515903D01*
X128728189Y-105572336D01*
X128637336Y-105663189D01*
X128580903Y-105778625D01*
X128570000Y-105853464D01*
X122060500Y-105853464D01*
X122060500Y-105045439D01*
X125125001Y-105045439D01*
X125131081Y-105102007D01*
X125178813Y-105229981D01*
X125178815Y-105229984D01*
X125260670Y-105339329D01*
X125370015Y-105421184D01*
X125370016Y-105421185D01*
X125497991Y-105468917D01*
X125497994Y-105468918D01*
X125554555Y-105474999D01*
X125624999Y-105474998D01*
X125625000Y-105474998D01*
X125625000Y-104950000D01*
X125125001Y-104950000D01*
X125125001Y-105045439D01*
X122060500Y-105045439D01*
X122060500Y-97111013D01*
X122080185Y-97043974D01*
X122132989Y-96998219D01*
X122202147Y-96988275D01*
X122265703Y-97017300D01*
X122299066Y-97063573D01*
X122300589Y-97067252D01*
X122379195Y-97221523D01*
X122379196Y-97221525D01*
X122413463Y-97268691D01*
X122413464Y-97268691D01*
X122851980Y-96830176D01*
X122854075Y-96837993D01*
G37*
G04 #@! TD.AperFunction*
G04 #@! TA.AperFunction,Conductor*
G36*
X130458389Y-103790863D02*
G01*
X130488189Y-103810775D01*
X130488190Y-103810775D01*
X130488191Y-103810776D01*
X130566521Y-103843221D01*
X130615672Y-103863580D01*
X130615676Y-103863580D01*
X130615677Y-103863581D01*
X130667119Y-103873814D01*
X130729030Y-103906199D01*
X130760988Y-103957515D01*
X130815446Y-104127083D01*
X130816108Y-104153432D01*
X130820544Y-104179412D01*
X130817060Y-104191275D01*
X130817203Y-104196930D01*
X130813715Y-104202669D01*
X130808786Y-104219458D01*
X130774911Y-104288751D01*
X130774729Y-104289999D01*
X130774730Y-104290000D01*
X131140000Y-104290000D01*
X131155079Y-104274920D01*
X131159685Y-104259236D01*
X131163155Y-104256228D01*
X131164763Y-104251924D01*
X131189324Y-104233552D01*
X131212489Y-104213481D01*
X131217034Y-104212827D01*
X131220713Y-104210076D01*
X131251300Y-104207900D01*
X131281647Y-104203537D01*
X131285824Y-104205444D01*
X131290407Y-104205119D01*
X131317314Y-104219825D01*
X131345203Y-104232562D01*
X131348810Y-104237040D01*
X131351717Y-104238629D01*
X131359611Y-104250450D01*
X131372856Y-104266892D01*
X131376026Y-104272703D01*
X131396204Y-104321418D01*
X131427951Y-104368929D01*
X131431042Y-104373555D01*
X131464659Y-104423867D01*
X131464660Y-104423868D01*
X131503680Y-104462887D01*
X131537166Y-104524210D01*
X131540000Y-104550569D01*
X131540000Y-104939999D01*
X131598218Y-104939999D01*
X131666249Y-104930087D01*
X131771186Y-104878786D01*
X131772283Y-104878004D01*
X131774030Y-104877396D01*
X131780420Y-104874273D01*
X131780797Y-104875044D01*
X131838279Y-104855063D01*
X131906201Y-104871443D01*
X131932027Y-104891233D01*
X132863023Y-105822229D01*
X132863026Y-105822233D01*
X132881757Y-105840964D01*
X132903613Y-105862821D01*
X132923276Y-105898833D01*
X132937096Y-105924142D01*
X132937095Y-105924143D01*
X132937097Y-105924145D01*
X132935012Y-105953287D01*
X132932112Y-105993834D01*
X132890240Y-106049767D01*
X132890239Y-106049767D01*
X132890238Y-106049769D01*
X132855642Y-106062671D01*
X132824776Y-106074184D01*
X132815930Y-106074500D01*
X131889742Y-106074500D01*
X131822703Y-106054815D01*
X131802061Y-106038181D01*
X130903698Y-105139818D01*
X130870213Y-105078495D01*
X130875197Y-105008803D01*
X130917069Y-104952870D01*
X130982533Y-104928453D01*
X131009257Y-104929433D01*
X131081780Y-104939999D01*
X131139999Y-104939998D01*
X131140000Y-104939998D01*
X131140000Y-104690000D01*
X130774730Y-104690000D01*
X130774728Y-104690001D01*
X130775565Y-104695741D01*
X130765752Y-104764918D01*
X130720097Y-104817808D01*
X130653094Y-104837619D01*
X130586018Y-104818060D01*
X130565180Y-104801300D01*
X130301818Y-104537938D01*
X130268333Y-104476615D01*
X130265499Y-104450257D01*
X130265499Y-104350638D01*
X130257516Y-104289999D01*
X130250044Y-104233238D01*
X130241434Y-104212454D01*
X130233965Y-104142986D01*
X130241435Y-104117545D01*
X130246424Y-104105500D01*
X130250044Y-104096762D01*
X130265500Y-103979361D01*
X130265499Y-103893964D01*
X130285183Y-103826928D01*
X130337986Y-103781172D01*
X130407145Y-103771228D01*
X130458389Y-103790863D01*
G37*
G04 #@! TD.AperFunction*
G04 #@! TA.AperFunction,Conductor*
G36*
X137238363Y-103004232D02*
G01*
X137275082Y-103063675D01*
X137279500Y-103096481D01*
X137279500Y-103946716D01*
X137259815Y-104013755D01*
X137207011Y-104059510D01*
X137137853Y-104069454D01*
X137074297Y-104040429D01*
X137048113Y-104008717D01*
X137018551Y-103957515D01*
X136980515Y-103891635D01*
X136873365Y-103784485D01*
X136781391Y-103692511D01*
X136772079Y-103682085D01*
X136766311Y-103674843D01*
X136763015Y-103669134D01*
X136756865Y-103662984D01*
X136752506Y-103657511D01*
X136741855Y-103631379D01*
X136728333Y-103606614D01*
X136727103Y-103595183D01*
X136726136Y-103592808D01*
X136726587Y-103590382D01*
X136725499Y-103580263D01*
X136725499Y-103438394D01*
X136745184Y-103371356D01*
X136761813Y-103350719D01*
X136899729Y-103212804D01*
X136899733Y-103212802D01*
X136986858Y-103125677D01*
X137023919Y-103070211D01*
X137052398Y-103027590D01*
X137106010Y-102982785D01*
X137175335Y-102974078D01*
X137238363Y-103004232D01*
G37*
G04 #@! TD.AperFunction*
G04 #@! TA.AperFunction,Conductor*
G36*
X134024219Y-102525571D02*
G01*
X134088117Y-102553836D01*
X134106411Y-102573022D01*
X134135964Y-102611536D01*
X134137050Y-102612369D01*
X134137734Y-102613306D01*
X134141711Y-102617283D01*
X134141090Y-102617903D01*
X134178253Y-102668797D01*
X134182408Y-102738543D01*
X134181339Y-102742838D01*
X134164822Y-102804479D01*
X134403740Y-103043397D01*
X134408078Y-103051342D01*
X134415326Y-103056768D01*
X134424560Y-103081527D01*
X134437225Y-103104720D01*
X134436579Y-103113749D01*
X134439743Y-103122232D01*
X134434126Y-103148052D01*
X134432241Y-103174412D01*
X134426422Y-103183465D01*
X134424891Y-103190505D01*
X134418270Y-103199349D01*
X134406645Y-103187724D01*
X134369891Y-103172500D01*
X134330109Y-103172500D01*
X134293355Y-103187724D01*
X134265224Y-103215855D01*
X134250000Y-103252609D01*
X134250000Y-103292391D01*
X134265224Y-103329145D01*
X134274306Y-103338227D01*
X134234936Y-103359725D01*
X134165244Y-103354741D01*
X134120897Y-103326240D01*
X133878209Y-103083552D01*
X133871042Y-103083382D01*
X133875373Y-103102208D01*
X133871368Y-103126924D01*
X133850000Y-103206672D01*
X133850000Y-103338324D01*
X133871369Y-103418074D01*
X133870655Y-103448043D01*
X133872438Y-103477965D01*
X133869832Y-103482604D01*
X133869706Y-103487924D01*
X133852904Y-103512749D01*
X133838227Y-103538885D01*
X133833527Y-103541379D01*
X133830544Y-103545787D01*
X133802986Y-103557587D01*
X133776510Y-103571639D01*
X133771206Y-103571196D01*
X133766315Y-103573291D01*
X133736749Y-103568319D01*
X133706882Y-103565826D01*
X133700454Y-103562216D01*
X133697413Y-103561705D01*
X133676109Y-103548545D01*
X133663520Y-103538885D01*
X133650524Y-103528913D01*
X133609322Y-103472487D01*
X133603071Y-103446721D01*
X133594008Y-103377870D01*
X133569310Y-103324907D01*
X133558817Y-103255829D01*
X133569310Y-103220093D01*
X133594008Y-103167129D01*
X133603071Y-103098279D01*
X133615486Y-103070211D01*
X133625868Y-103041335D01*
X133630242Y-103036855D01*
X133631337Y-103034381D01*
X133650516Y-103016092D01*
X133676110Y-102996453D01*
X133740613Y-102971519D01*
X133750961Y-102909985D01*
X133764117Y-102888687D01*
X133779279Y-102868929D01*
X133836009Y-102731972D01*
X133849740Y-102627671D01*
X133878006Y-102563775D01*
X133936331Y-102525304D01*
X133988860Y-102520917D01*
X134024219Y-102525571D01*
G37*
G04 #@! TD.AperFunction*
G04 #@! TA.AperFunction,Conductor*
G36*
X131769865Y-97751945D02*
G01*
X131796029Y-97755709D01*
X131802868Y-97761636D01*
X131811548Y-97764185D01*
X131828852Y-97784155D01*
X131848829Y-97801468D01*
X131851377Y-97810151D01*
X131857303Y-97816989D01*
X131861064Y-97843148D01*
X131868509Y-97868509D01*
X131865959Y-97877190D01*
X131867247Y-97886147D01*
X131856268Y-97910187D01*
X131848820Y-97935547D01*
X131840082Y-97945629D01*
X131838222Y-97949703D01*
X131831127Y-97955962D01*
X131825705Y-97962219D01*
X131819844Y-97967296D01*
X131761925Y-98005997D01*
X131676016Y-98091905D01*
X131672656Y-98094817D01*
X131644744Y-98107561D01*
X131617817Y-98122264D01*
X131613257Y-98121937D01*
X131609098Y-98123837D01*
X131578729Y-98119468D01*
X131548126Y-98117280D01*
X131544465Y-98114540D01*
X131539940Y-98113889D01*
X131503779Y-98088779D01*
X131485000Y-98070000D01*
X130985000Y-98070000D01*
X130985000Y-98594999D01*
X131055433Y-98594999D01*
X131055439Y-98594998D01*
X131112007Y-98588918D01*
X131239981Y-98541186D01*
X131239984Y-98541184D01*
X131273402Y-98516168D01*
X131338866Y-98491750D01*
X131407139Y-98506601D01*
X131456545Y-98556006D01*
X131471714Y-98615434D01*
X131471714Y-98706632D01*
X131502475Y-98861275D01*
X131502478Y-98861287D01*
X131562816Y-99006958D01*
X131562823Y-99006971D01*
X131650424Y-99138074D01*
X131650427Y-99138078D01*
X131761921Y-99249572D01*
X131761925Y-99249575D01*
X131893028Y-99337176D01*
X131893041Y-99337183D01*
X132038712Y-99397521D01*
X132038717Y-99397523D01*
X132165194Y-99422681D01*
X132193367Y-99428285D01*
X132193370Y-99428286D01*
X132193372Y-99428286D01*
X132351058Y-99428286D01*
X132351059Y-99428285D01*
X132505711Y-99397523D01*
X132550350Y-99379032D01*
X132619818Y-99371564D01*
X132682298Y-99402839D01*
X132717950Y-99462928D01*
X132715457Y-99532753D01*
X132702115Y-99557613D01*
X132703409Y-99558396D01*
X132699529Y-99564813D01*
X132699528Y-99564815D01*
X132659204Y-99631517D01*
X132611522Y-99710393D01*
X132560913Y-99872807D01*
X132554500Y-99943386D01*
X132554500Y-100239546D01*
X132545857Y-100268977D01*
X132539339Y-100298961D01*
X132535578Y-100303984D01*
X132534815Y-100306585D01*
X132518191Y-100327217D01*
X132514897Y-100330512D01*
X132513770Y-100331639D01*
X132513767Y-100331642D01*
X132470204Y-100375205D01*
X132426641Y-100418767D01*
X132409760Y-100444030D01*
X132409761Y-100444031D01*
X132358189Y-100521212D01*
X132358185Y-100521219D01*
X132340259Y-100564499D01*
X132340259Y-100564500D01*
X132311038Y-100635045D01*
X132311035Y-100635055D01*
X132287000Y-100755889D01*
X132287000Y-101881420D01*
X132267315Y-101948459D01*
X132238489Y-101979793D01*
X132135964Y-102058464D01*
X132057352Y-102160914D01*
X132045719Y-102176074D01*
X131988991Y-102313027D01*
X131988990Y-102313029D01*
X131974500Y-102423098D01*
X131974500Y-102424064D01*
X131974417Y-102424343D01*
X131974234Y-102427150D01*
X131973605Y-102427108D01*
X131954815Y-102491103D01*
X131902011Y-102536858D01*
X131832853Y-102546802D01*
X131803048Y-102538625D01*
X131721765Y-102504957D01*
X131721760Y-102504955D01*
X131604370Y-102489501D01*
X131604367Y-102489500D01*
X131604361Y-102489500D01*
X131604354Y-102489500D01*
X131161519Y-102489500D01*
X131132078Y-102480855D01*
X131102092Y-102474332D01*
X131097076Y-102470577D01*
X131094480Y-102469815D01*
X131073838Y-102453181D01*
X130901493Y-102280836D01*
X130868008Y-102219513D01*
X130872992Y-102149821D01*
X130914864Y-102093888D01*
X130945842Y-102076973D01*
X131014979Y-102051187D01*
X131014984Y-102051184D01*
X131124329Y-101969329D01*
X131206184Y-101859984D01*
X131206185Y-101859983D01*
X131253916Y-101732010D01*
X131259999Y-101675428D01*
X131260000Y-101675427D01*
X131260000Y-101580000D01*
X130684000Y-101580000D01*
X130616961Y-101560315D01*
X130571206Y-101507511D01*
X130560000Y-101456000D01*
X130560000Y-101380000D01*
X130484000Y-101380000D01*
X130416961Y-101360315D01*
X130371206Y-101307511D01*
X130360000Y-101256000D01*
X130360000Y-101180000D01*
X130760000Y-101180000D01*
X131259999Y-101180000D01*
X131259999Y-101084566D01*
X131259998Y-101084560D01*
X131253918Y-101027992D01*
X131206186Y-100900018D01*
X131206184Y-100900015D01*
X131124329Y-100790670D01*
X131014984Y-100708815D01*
X131014983Y-100708814D01*
X130887010Y-100661083D01*
X130830428Y-100655000D01*
X130760000Y-100655000D01*
X130760000Y-101180000D01*
X130360000Y-101180000D01*
X130360000Y-100655000D01*
X130359999Y-100654999D01*
X130289567Y-100655000D01*
X130289558Y-100655001D01*
X130232992Y-100661081D01*
X130105018Y-100708813D01*
X130105012Y-100708816D01*
X130023861Y-100769565D01*
X130010271Y-100774633D01*
X129999151Y-100783945D01*
X129978192Y-100786597D01*
X129958397Y-100793981D01*
X129944223Y-100790897D01*
X129929834Y-100792719D01*
X129910769Y-100783620D01*
X129890124Y-100779129D01*
X129878707Y-100768318D01*
X129866778Y-100762625D01*
X129844119Y-100735565D01*
X129844067Y-100735481D01*
X129825500Y-100670213D01*
X129825500Y-100381874D01*
X129845185Y-100314835D01*
X129861819Y-100294193D01*
X129865102Y-100290910D01*
X129872968Y-100283044D01*
X129909015Y-100224603D01*
X129960960Y-100177880D01*
X130029923Y-100166657D01*
X130088863Y-100190434D01*
X130170015Y-100251184D01*
X130170016Y-100251185D01*
X130297991Y-100298917D01*
X130297994Y-100298918D01*
X130354555Y-100304999D01*
X130825000Y-100304999D01*
X130895433Y-100304999D01*
X130895439Y-100304998D01*
X130952007Y-100298918D01*
X131079981Y-100251186D01*
X131079984Y-100251184D01*
X131189329Y-100169329D01*
X131271184Y-100059984D01*
X131271185Y-100059983D01*
X131318916Y-99932010D01*
X131324999Y-99875428D01*
X131325000Y-99875427D01*
X131325000Y-99780000D01*
X130825000Y-99780000D01*
X130825000Y-100304999D01*
X130354555Y-100304999D01*
X130424999Y-100304998D01*
X130425000Y-100304998D01*
X130425000Y-99380000D01*
X130825000Y-99380000D01*
X131324999Y-99380000D01*
X131324999Y-99284566D01*
X131324998Y-99284560D01*
X131318918Y-99227992D01*
X131271186Y-99100018D01*
X131271184Y-99100015D01*
X131189329Y-98990670D01*
X131079984Y-98908815D01*
X131079983Y-98908814D01*
X130952010Y-98861083D01*
X130895428Y-98855000D01*
X130825000Y-98855000D01*
X130825000Y-99380000D01*
X130425000Y-99380000D01*
X130425000Y-98855000D01*
X130424999Y-98854999D01*
X130354567Y-98855000D01*
X130354558Y-98855001D01*
X130297992Y-98861081D01*
X130170018Y-98908813D01*
X130170012Y-98908816D01*
X130088861Y-98969565D01*
X130075542Y-98974532D01*
X130064685Y-98983711D01*
X130043455Y-98986499D01*
X130023397Y-98993981D01*
X130009506Y-98990959D01*
X129995410Y-98992811D01*
X129976044Y-98983680D01*
X129955124Y-98979129D01*
X129943842Y-98968496D01*
X129932213Y-98963013D01*
X129910125Y-98936718D01*
X129909427Y-98936060D01*
X129909217Y-98935725D01*
X129872968Y-98876956D01*
X129871592Y-98875580D01*
X129866883Y-98868052D01*
X129859219Y-98840724D01*
X129848602Y-98814412D01*
X129849909Y-98807526D01*
X129848017Y-98800778D01*
X129856343Y-98773647D01*
X129861638Y-98745769D01*
X129866523Y-98740479D01*
X129868517Y-98733983D01*
X129886795Y-98718530D01*
X129906911Y-98696750D01*
X129913044Y-98692968D01*
X130032968Y-98573044D01*
X130069015Y-98514603D01*
X130120960Y-98467880D01*
X130189923Y-98456657D01*
X130248863Y-98480434D01*
X130330015Y-98541184D01*
X130330016Y-98541185D01*
X130457991Y-98588917D01*
X130457994Y-98588918D01*
X130514555Y-98594999D01*
X130584999Y-98594998D01*
X130585000Y-98594998D01*
X130585000Y-97994000D01*
X130604685Y-97926961D01*
X130657489Y-97881206D01*
X130709000Y-97870000D01*
X130785000Y-97870000D01*
X130785000Y-97868500D01*
X130804685Y-97801461D01*
X130857489Y-97755706D01*
X130909000Y-97744500D01*
X131744509Y-97744500D01*
X131769865Y-97751945D01*
G37*
G04 #@! TD.AperFunction*
G04 #@! TA.AperFunction,Conductor*
G36*
X134866596Y-96797283D02*
G01*
X134922530Y-96839154D01*
X134945735Y-96894059D01*
X134947085Y-96902584D01*
X135000591Y-97067257D01*
X135079195Y-97221523D01*
X135079196Y-97221525D01*
X135113463Y-97268691D01*
X135113464Y-97268691D01*
X135551980Y-96830176D01*
X135554075Y-96837993D01*
X135619901Y-96952007D01*
X135712993Y-97045099D01*
X135827007Y-97110925D01*
X135834822Y-97113019D01*
X135396307Y-97551534D01*
X135443478Y-97585805D01*
X135597742Y-97664408D01*
X135762415Y-97717914D01*
X135933429Y-97745000D01*
X136106571Y-97745000D01*
X136277584Y-97717914D01*
X136442257Y-97664408D01*
X136596525Y-97585803D01*
X136643691Y-97551534D01*
X136643692Y-97551533D01*
X136205178Y-97113019D01*
X136212993Y-97110925D01*
X136327007Y-97045099D01*
X136420099Y-96952007D01*
X136485925Y-96837993D01*
X136488019Y-96830177D01*
X136926533Y-97268692D01*
X136926534Y-97268691D01*
X136960803Y-97221525D01*
X137039410Y-97067252D01*
X137040934Y-97063573D01*
X137084769Y-97009165D01*
X137151060Y-96987093D01*
X137218762Y-97004364D01*
X137266378Y-97055496D01*
X137279500Y-97111013D01*
X137279500Y-99849126D01*
X137259815Y-99916165D01*
X137207011Y-99961920D01*
X137137853Y-99971864D01*
X137074297Y-99942839D01*
X137067819Y-99936807D01*
X136993044Y-99862032D01*
X136993040Y-99862029D01*
X136934604Y-99825985D01*
X136887879Y-99774037D01*
X136876658Y-99705075D01*
X136900435Y-99646136D01*
X136961182Y-99564988D01*
X136961185Y-99564983D01*
X137008916Y-99437010D01*
X137014999Y-99380428D01*
X137015000Y-99380427D01*
X137015000Y-99310000D01*
X136414000Y-99310000D01*
X136346961Y-99290315D01*
X136301206Y-99237511D01*
X136290000Y-99186000D01*
X136290000Y-99110000D01*
X136214000Y-99110000D01*
X136146961Y-99090315D01*
X136101206Y-99037511D01*
X136090000Y-98986000D01*
X136090000Y-98910000D01*
X136490000Y-98910000D01*
X137014999Y-98910000D01*
X137014999Y-98839566D01*
X137014998Y-98839560D01*
X137008918Y-98782992D01*
X136961186Y-98655018D01*
X136961184Y-98655015D01*
X136879329Y-98545670D01*
X136769984Y-98463815D01*
X136769983Y-98463814D01*
X136642010Y-98416083D01*
X136585428Y-98410000D01*
X136490000Y-98410000D01*
X136490000Y-98910000D01*
X136090000Y-98910000D01*
X136090000Y-98409999D01*
X135994566Y-98410000D01*
X135994559Y-98410001D01*
X135937992Y-98416081D01*
X135810018Y-98463813D01*
X135810015Y-98463815D01*
X135700670Y-98545670D01*
X135618815Y-98655015D01*
X135618813Y-98655019D01*
X135604068Y-98694550D01*
X135562195Y-98750483D01*
X135496730Y-98774898D01*
X135428458Y-98760045D01*
X135400206Y-98738895D01*
X134667200Y-98005888D01*
X134667199Y-98005887D01*
X134552461Y-97929222D01*
X134424984Y-97876420D01*
X134424976Y-97876418D01*
X134333415Y-97858205D01*
X134271504Y-97825820D01*
X134269925Y-97824268D01*
X134240188Y-97794530D01*
X134223026Y-97784155D01*
X134094606Y-97706522D01*
X134094603Y-97706521D01*
X134093075Y-97705833D01*
X134092139Y-97705031D01*
X134088187Y-97702642D01*
X134088584Y-97701984D01*
X134069526Y-97685652D01*
X134044703Y-97667069D01*
X134043228Y-97663114D01*
X134040022Y-97660367D01*
X134031122Y-97630658D01*
X134020286Y-97601605D01*
X134021183Y-97597479D01*
X134019972Y-97593436D01*
X134028546Y-97563632D01*
X134035138Y-97533332D01*
X134038591Y-97528719D01*
X134039290Y-97526290D01*
X134056285Y-97505082D01*
X134735584Y-96825782D01*
X134796905Y-96792299D01*
X134866596Y-96797283D01*
G37*
G04 #@! TD.AperFunction*
G04 #@! TA.AperFunction,Conductor*
G36*
X124102257Y-95645280D02*
G01*
X124209443Y-95674001D01*
X124209446Y-95674001D01*
X124375153Y-95674001D01*
X124375169Y-95674000D01*
X127187403Y-95674000D01*
X127216843Y-95682644D01*
X127246830Y-95689168D01*
X127251845Y-95692922D01*
X127254442Y-95693685D01*
X127275084Y-95710319D01*
X127429139Y-95864374D01*
X127429149Y-95864385D01*
X127433479Y-95868715D01*
X127433480Y-95868716D01*
X127545284Y-95980520D01*
X127621798Y-96024695D01*
X127682215Y-96059577D01*
X127795468Y-96089922D01*
X127801582Y-96092276D01*
X127824334Y-96109681D01*
X127848794Y-96124590D01*
X127851733Y-96130640D01*
X127857076Y-96134728D01*
X127866807Y-96161672D01*
X127879323Y-96187437D01*
X127878524Y-96194114D01*
X127880810Y-96200443D01*
X127874428Y-96228374D01*
X127871028Y-96256812D01*
X127866745Y-96261998D01*
X127865247Y-96268558D01*
X127844776Y-96288606D01*
X127826543Y-96310690D01*
X127820137Y-96312737D01*
X127815330Y-96317446D01*
X127787272Y-96323243D01*
X127759991Y-96331965D01*
X127757040Y-96332000D01*
X127324298Y-96332000D01*
X127287432Y-96334901D01*
X127287426Y-96334902D01*
X127129606Y-96380754D01*
X127129603Y-96380755D01*
X126988137Y-96464417D01*
X126988133Y-96464420D01*
X126901251Y-96551302D01*
X126839927Y-96584786D01*
X126794173Y-96586094D01*
X126790000Y-96585433D01*
X126790000Y-96698450D01*
X126787449Y-96707135D01*
X126788738Y-96716097D01*
X126785076Y-96733045D01*
X126742402Y-96879926D01*
X126742401Y-96879932D01*
X126739500Y-96916798D01*
X126739500Y-97371000D01*
X126736949Y-97379685D01*
X126738238Y-97388647D01*
X126727259Y-97412687D01*
X126719815Y-97438039D01*
X126712974Y-97443966D01*
X126709213Y-97452203D01*
X126686978Y-97466492D01*
X126667011Y-97483794D01*
X126656496Y-97486081D01*
X126650435Y-97489977D01*
X126615500Y-97495000D01*
X126564500Y-97495000D01*
X126497461Y-97475315D01*
X126451706Y-97422511D01*
X126440500Y-97371000D01*
X126440500Y-96916813D01*
X126440499Y-96916798D01*
X126439380Y-96902584D01*
X126437598Y-96879931D01*
X126437597Y-96879926D01*
X126394924Y-96733045D01*
X126390000Y-96698450D01*
X126390000Y-96585432D01*
X126385826Y-96586094D01*
X126316532Y-96577138D01*
X126278748Y-96551301D01*
X126191870Y-96464423D01*
X126191862Y-96464417D01*
X126050396Y-96380755D01*
X126050393Y-96380754D01*
X125892573Y-96334902D01*
X125892567Y-96334901D01*
X125855701Y-96332000D01*
X125855694Y-96332000D01*
X125424306Y-96332000D01*
X125424298Y-96332000D01*
X125387432Y-96334901D01*
X125387426Y-96334902D01*
X125229606Y-96380754D01*
X125229603Y-96380755D01*
X125088137Y-96464417D01*
X125088129Y-96464423D01*
X124971923Y-96580629D01*
X124971917Y-96580637D01*
X124888255Y-96722103D01*
X124888254Y-96722106D01*
X124842402Y-96879926D01*
X124842401Y-96879932D01*
X124839500Y-96916798D01*
X124839500Y-97050500D01*
X124819815Y-97117539D01*
X124767011Y-97163294D01*
X124715500Y-97174500D01*
X124621153Y-97174500D01*
X124490186Y-97200551D01*
X124420594Y-97194324D01*
X124365417Y-97151461D01*
X124342173Y-97085571D01*
X124348064Y-97040615D01*
X124392914Y-96902584D01*
X124420000Y-96731571D01*
X124420000Y-96558428D01*
X124392914Y-96387415D01*
X124339408Y-96222742D01*
X124260805Y-96068478D01*
X124226534Y-96021307D01*
X123788019Y-96459821D01*
X123785925Y-96452007D01*
X123720099Y-96337993D01*
X123627007Y-96244901D01*
X123512993Y-96179075D01*
X123505176Y-96176980D01*
X123956968Y-95725187D01*
X123960913Y-95706410D01*
X124009963Y-95656652D01*
X124078128Y-95641312D01*
X124102257Y-95645280D01*
G37*
G04 #@! TD.AperFunction*
G04 #@! TA.AperFunction,Conductor*
G36*
X122265703Y-94956976D02*
G01*
X122284819Y-94977804D01*
X122289896Y-94984792D01*
X122440213Y-95135109D01*
X122612179Y-95260048D01*
X122612181Y-95260049D01*
X122612184Y-95260051D01*
X122801588Y-95356557D01*
X122900715Y-95388765D01*
X122958388Y-95428201D01*
X122985587Y-95492560D01*
X122973673Y-95561406D01*
X122926429Y-95612882D01*
X122900722Y-95624623D01*
X122897744Y-95625590D01*
X122897743Y-95625590D01*
X122743475Y-95704196D01*
X122696307Y-95738463D01*
X122696307Y-95738464D01*
X123134823Y-96176980D01*
X123127007Y-96179075D01*
X123012993Y-96244901D01*
X122919901Y-96337993D01*
X122854075Y-96452007D01*
X122851980Y-96459823D01*
X122413464Y-96021307D01*
X122413463Y-96021307D01*
X122379196Y-96068475D01*
X122300590Y-96222744D01*
X122299064Y-96226431D01*
X122255227Y-96280837D01*
X122188934Y-96302907D01*
X122121234Y-96285632D01*
X122073620Y-96234498D01*
X122060500Y-96178986D01*
X122060500Y-95050689D01*
X122080185Y-94983650D01*
X122132989Y-94937895D01*
X122202147Y-94927951D01*
X122265703Y-94956976D01*
G37*
G04 #@! TD.AperFunction*
G04 #@! TA.AperFunction,Conductor*
G36*
X137241920Y-94961764D02*
G01*
X137276277Y-95022603D01*
X137279500Y-95050689D01*
X137279500Y-96178986D01*
X137259815Y-96246025D01*
X137207011Y-96291780D01*
X137137853Y-96301724D01*
X137074297Y-96272699D01*
X137040936Y-96226431D01*
X137039411Y-96222749D01*
X136960805Y-96068478D01*
X136926534Y-96021307D01*
X136488019Y-96459822D01*
X136485925Y-96452007D01*
X136420099Y-96337993D01*
X136327007Y-96244901D01*
X136212993Y-96179075D01*
X136205176Y-96176980D01*
X136643691Y-95738464D01*
X136643691Y-95738463D01*
X136596525Y-95704196D01*
X136596523Y-95704195D01*
X136442256Y-95625591D01*
X136439282Y-95624625D01*
X136438296Y-95623951D01*
X136437760Y-95623729D01*
X136437806Y-95623616D01*
X136381608Y-95585185D01*
X136354412Y-95520826D01*
X136366328Y-95451980D01*
X136413574Y-95400506D01*
X136439280Y-95388766D01*
X136538412Y-95356557D01*
X136727816Y-95260051D01*
X136749789Y-95244086D01*
X136899786Y-95135109D01*
X136899788Y-95135106D01*
X136899792Y-95135104D01*
X137050104Y-94984792D01*
X137055181Y-94977803D01*
X137110511Y-94935138D01*
X137180124Y-94929159D01*
X137241920Y-94961764D01*
G37*
G04 #@! TD.AperFunction*
G04 #@! TA.AperFunction,Conductor*
G36*
X126330139Y-93181431D02*
G01*
X126330530Y-93179973D01*
X126338379Y-93182076D01*
X126338381Y-93182077D01*
X126478747Y-93219687D01*
X126492632Y-93227703D01*
X126506074Y-93230627D01*
X126534330Y-93251776D01*
X126543798Y-93261244D01*
X126577285Y-93322564D01*
X126578594Y-93368324D01*
X126577932Y-93372499D01*
X126577933Y-93372500D01*
X126690950Y-93372500D01*
X126699635Y-93375050D01*
X126708597Y-93373762D01*
X126725545Y-93377424D01*
X126872426Y-93420097D01*
X126872429Y-93420097D01*
X126872431Y-93420098D01*
X126909306Y-93423000D01*
X126909314Y-93423000D01*
X128065686Y-93423000D01*
X128065694Y-93423000D01*
X128102569Y-93420098D01*
X128102571Y-93420097D01*
X128102573Y-93420097D01*
X128249455Y-93377424D01*
X128284050Y-93372500D01*
X128339435Y-93372500D01*
X128386882Y-93381937D01*
X128411749Y-93392237D01*
X128411756Y-93392238D01*
X128411757Y-93392239D01*
X128566399Y-93422999D01*
X128566402Y-93423000D01*
X128650500Y-93423000D01*
X128717539Y-93442685D01*
X128763294Y-93495489D01*
X128774500Y-93547000D01*
X128774500Y-93950949D01*
X128754815Y-94017988D01*
X128702011Y-94063743D01*
X128632853Y-94073687D01*
X128569297Y-94044662D01*
X128556012Y-94031248D01*
X128549156Y-94023181D01*
X128518081Y-93970635D01*
X128427650Y-93880204D01*
X128424391Y-93876369D01*
X128412143Y-93848855D01*
X128397713Y-93822428D01*
X128397530Y-93816027D01*
X128395977Y-93812538D01*
X128397202Y-93804558D01*
X128396406Y-93776670D01*
X128397066Y-93772500D01*
X128284050Y-93772500D01*
X128249455Y-93767576D01*
X128102573Y-93724902D01*
X128102567Y-93724901D01*
X128065701Y-93722000D01*
X128065694Y-93722000D01*
X126909306Y-93722000D01*
X126909298Y-93722000D01*
X126872432Y-93724901D01*
X126872426Y-93724902D01*
X126725545Y-93767576D01*
X126690950Y-93772500D01*
X126577934Y-93772500D01*
X126578595Y-93776674D01*
X126578103Y-93780472D01*
X126579535Y-93784026D01*
X126573660Y-93814849D01*
X126569638Y-93845967D01*
X126566962Y-93849989D01*
X126566454Y-93852660D01*
X126551937Y-93872584D01*
X126546041Y-93881452D01*
X126544893Y-93882660D01*
X126456919Y-93970635D01*
X126449589Y-93983028D01*
X126439920Y-93993212D01*
X126421349Y-94003985D01*
X126405657Y-94018636D01*
X126391729Y-94021168D01*
X126379484Y-94028273D01*
X126358037Y-94027295D01*
X126336915Y-94031137D01*
X126323827Y-94025737D01*
X126309687Y-94025093D01*
X126292174Y-94012677D01*
X126272327Y-94004488D01*
X126259111Y-93989236D01*
X126252689Y-93984683D01*
X126250537Y-93979341D01*
X126248143Y-93976578D01*
X126247861Y-93976798D01*
X126243823Y-93971592D01*
X126243271Y-93970955D01*
X126243085Y-93970640D01*
X126243076Y-93970629D01*
X126126870Y-93854423D01*
X126126862Y-93854417D01*
X125988347Y-93772500D01*
X125985398Y-93770756D01*
X125985397Y-93770755D01*
X125985396Y-93770755D01*
X125985393Y-93770754D01*
X125881841Y-93740669D01*
X125855403Y-93723785D01*
X125828000Y-93708513D01*
X125826189Y-93705128D01*
X125822955Y-93703063D01*
X125809843Y-93674568D01*
X125795046Y-93646903D01*
X125795025Y-93642363D01*
X125793749Y-93639590D01*
X125792833Y-93611678D01*
X125793409Y-93604486D01*
X125800500Y-93568842D01*
X125800500Y-93516097D01*
X125800897Y-93511148D01*
X125811686Y-93482967D01*
X125820185Y-93454024D01*
X125824049Y-93450675D01*
X125825879Y-93445897D01*
X125850195Y-93428020D01*
X125872989Y-93408269D01*
X125881216Y-93405213D01*
X125882172Y-93404511D01*
X125883297Y-93404440D01*
X125889890Y-93401991D01*
X125985398Y-93374244D01*
X126126865Y-93290581D01*
X126206955Y-93210490D01*
X126268276Y-93177007D01*
X126330139Y-93181431D01*
G37*
G04 #@! TD.AperFunction*
G04 #@! TA.AperFunction,Conductor*
G36*
X133692539Y-90478138D02*
G01*
X133738294Y-90530942D01*
X133749500Y-90582453D01*
X133749500Y-92904797D01*
X133729815Y-92971836D01*
X133677011Y-93017591D01*
X133613924Y-93028256D01*
X133579198Y-93025000D01*
X133450000Y-93025000D01*
X133450000Y-93551000D01*
X133430315Y-93618039D01*
X133377511Y-93663794D01*
X133326000Y-93675000D01*
X133250000Y-93675000D01*
X133250000Y-93751000D01*
X133247449Y-93759685D01*
X133248738Y-93768647D01*
X133237759Y-93792687D01*
X133230315Y-93818039D01*
X133223474Y-93823966D01*
X133219713Y-93832203D01*
X133197478Y-93846492D01*
X133177511Y-93863794D01*
X133166996Y-93866081D01*
X133160935Y-93869977D01*
X133126000Y-93875000D01*
X132968098Y-93875000D01*
X132901059Y-93855315D01*
X132899207Y-93854102D01*
X132891354Y-93848855D01*
X132825060Y-93804558D01*
X132804184Y-93790609D01*
X132804172Y-93790602D01*
X132658501Y-93730264D01*
X132658489Y-93730261D01*
X132614237Y-93721458D01*
X132614221Y-93721456D01*
X132503842Y-93699500D01*
X132346158Y-93699500D01*
X132346155Y-93699500D01*
X132191510Y-93730261D01*
X132191498Y-93730264D01*
X132090116Y-93772257D01*
X132090117Y-93772258D01*
X132050758Y-93788561D01*
X132050757Y-93788561D01*
X132050756Y-93788562D01*
X132045821Y-93790605D01*
X132045814Y-93790609D01*
X131914711Y-93878210D01*
X131914707Y-93878213D01*
X131879242Y-93913680D01*
X131817920Y-93947166D01*
X131791560Y-93950000D01*
X131399000Y-93950000D01*
X131331961Y-93930315D01*
X131286206Y-93877511D01*
X131275000Y-93826000D01*
X131275000Y-93750000D01*
X131199000Y-93750000D01*
X131131961Y-93730315D01*
X131086206Y-93677511D01*
X131075000Y-93626000D01*
X131075000Y-93550000D01*
X131475000Y-93550000D01*
X131974998Y-93550000D01*
X131974999Y-93549999D01*
X131974999Y-93454566D01*
X131974998Y-93454560D01*
X131971369Y-93420793D01*
X132525000Y-93420793D01*
X132525000Y-93460051D01*
X132642084Y-93475000D01*
X133050000Y-93475000D01*
X133050000Y-93025000D01*
X132920804Y-93025000D01*
X132890393Y-93027851D01*
X132762354Y-93072653D01*
X132653207Y-93153207D01*
X132572653Y-93262354D01*
X132527850Y-93390395D01*
X132527850Y-93390399D01*
X132525000Y-93420793D01*
X131971369Y-93420793D01*
X131968918Y-93397992D01*
X131921186Y-93270018D01*
X131921184Y-93270015D01*
X131839329Y-93160670D01*
X131729984Y-93078815D01*
X131729983Y-93078814D01*
X131602010Y-93031083D01*
X131545428Y-93025000D01*
X131475000Y-93025000D01*
X131475000Y-93550000D01*
X131075000Y-93550000D01*
X131075000Y-93025000D01*
X131074999Y-93024999D01*
X131004567Y-93025000D01*
X131004558Y-93025001D01*
X130947992Y-93031081D01*
X130820018Y-93078813D01*
X130820012Y-93078816D01*
X130738861Y-93139565D01*
X130728750Y-93143335D01*
X130720908Y-93150751D01*
X130696584Y-93155332D01*
X130673397Y-93163981D01*
X130662852Y-93161687D01*
X130652246Y-93163685D01*
X130629309Y-93154390D01*
X130605124Y-93149129D01*
X130595785Y-93140805D01*
X130587491Y-93137444D01*
X130570264Y-93118056D01*
X130563243Y-93111798D01*
X130561024Y-93108654D01*
X130522968Y-93046956D01*
X130504312Y-93028300D01*
X130498191Y-93019627D01*
X130490194Y-92996205D01*
X130478334Y-92974484D01*
X130476290Y-92955477D01*
X130475617Y-92953505D01*
X130475938Y-92952203D01*
X130475500Y-92948126D01*
X130475500Y-92801874D01*
X130495185Y-92734835D01*
X130511819Y-92714193D01*
X130522968Y-92703044D01*
X130559015Y-92644603D01*
X130610960Y-92597880D01*
X130679923Y-92586657D01*
X130738863Y-92610434D01*
X130820015Y-92671184D01*
X130820016Y-92671185D01*
X130947991Y-92718917D01*
X130947994Y-92718918D01*
X131004555Y-92724999D01*
X131475000Y-92724999D01*
X131545433Y-92724999D01*
X131545439Y-92724998D01*
X131602007Y-92718918D01*
X131729981Y-92671186D01*
X131729984Y-92671184D01*
X131839329Y-92589329D01*
X131921184Y-92479984D01*
X131921185Y-92479983D01*
X131968916Y-92352010D01*
X131974999Y-92295428D01*
X131975000Y-92295427D01*
X131975000Y-92200000D01*
X131475000Y-92200000D01*
X131475000Y-92724999D01*
X131004555Y-92724999D01*
X131074999Y-92724998D01*
X131075000Y-92724998D01*
X131075000Y-92124000D01*
X131094685Y-92056961D01*
X131147489Y-92011206D01*
X131199000Y-92000000D01*
X131275000Y-92000000D01*
X131275000Y-91924000D01*
X131277550Y-91915314D01*
X131276262Y-91906353D01*
X131287240Y-91882312D01*
X131294685Y-91856961D01*
X131301525Y-91851033D01*
X131305287Y-91842797D01*
X131327521Y-91828507D01*
X131347489Y-91811206D01*
X131358003Y-91808918D01*
X131364065Y-91805023D01*
X131399000Y-91800000D01*
X131584990Y-91800000D01*
X131595168Y-91800500D01*
X131596158Y-91800500D01*
X131754832Y-91800500D01*
X131765010Y-91800000D01*
X131974999Y-91800000D01*
X131985410Y-91789588D01*
X131994684Y-91758006D01*
X132047488Y-91712251D01*
X132051525Y-91710493D01*
X132054179Y-91709394D01*
X132185289Y-91621789D01*
X132296789Y-91510289D01*
X132384394Y-91379179D01*
X132444737Y-91233497D01*
X132475500Y-91078842D01*
X132475500Y-90921158D01*
X132475500Y-90921155D01*
X132475499Y-90921153D01*
X132458808Y-90837243D01*
X132444737Y-90766503D01*
X132444735Y-90766498D01*
X132388157Y-90629905D01*
X132380688Y-90560436D01*
X132411963Y-90497957D01*
X132472052Y-90462305D01*
X132502718Y-90458453D01*
X133625500Y-90458453D01*
X133692539Y-90478138D01*
G37*
G04 #@! TD.AperFunction*
G04 #@! TA.AperFunction,Conductor*
G36*
X126353093Y-90310232D02*
G01*
X126353129Y-90310186D01*
X126353343Y-90310346D01*
X126355709Y-90311427D01*
X126359491Y-90314948D01*
X126475438Y-90401747D01*
X126475445Y-90401751D01*
X126610291Y-90452045D01*
X126610290Y-90452045D01*
X126617218Y-90452789D01*
X126669901Y-90458454D01*
X128293646Y-90458453D01*
X128293648Y-90458452D01*
X128293661Y-90458452D01*
X128328057Y-90454754D01*
X128396817Y-90467159D01*
X128428994Y-90490362D01*
X128935152Y-90996519D01*
X128944159Y-91013015D01*
X128957237Y-91026517D01*
X128967740Y-91056200D01*
X128968637Y-91057842D01*
X128969042Y-91059778D01*
X128986906Y-91149582D01*
X128987247Y-91150407D01*
X128988606Y-91157168D01*
X128986056Y-91186285D01*
X128986306Y-91215507D01*
X128983005Y-91221124D01*
X128982511Y-91226772D01*
X128970780Y-91241931D01*
X128954718Y-91269270D01*
X128927029Y-91296959D01*
X128838001Y-91441294D01*
X128837996Y-91441305D01*
X128784651Y-91602290D01*
X128774498Y-91701663D01*
X128774364Y-91704312D01*
X128751292Y-91770263D01*
X128696228Y-91813270D01*
X128650525Y-91822000D01*
X128566401Y-91822000D01*
X128411751Y-91852761D01*
X128411743Y-91852764D01*
X128361680Y-91873500D01*
X128292210Y-91880967D01*
X128264988Y-91872741D01*
X128260401Y-91870756D01*
X128102573Y-91824902D01*
X128102567Y-91824901D01*
X128065701Y-91822000D01*
X128065694Y-91822000D01*
X126909306Y-91822000D01*
X126909298Y-91822000D01*
X126872434Y-91824901D01*
X126748646Y-91860865D01*
X126678776Y-91860665D01*
X126626370Y-91829469D01*
X126074418Y-91277517D01*
X126040933Y-91216194D01*
X126045917Y-91146502D01*
X126056556Y-91124747D01*
X126087010Y-91075375D01*
X126140356Y-90914386D01*
X126150507Y-90815023D01*
X126150506Y-90405139D01*
X126170190Y-90338101D01*
X126222994Y-90292346D01*
X126292153Y-90282402D01*
X126353093Y-90310232D01*
G37*
G04 #@! TD.AperFunction*
G04 #@! TA.AperFunction,Conductor*
G36*
X123392268Y-66755185D02*
G01*
X123438023Y-66807989D01*
X123447967Y-66877147D01*
X123418942Y-66940703D01*
X123381524Y-66969985D01*
X123226191Y-67049130D01*
X123135338Y-67115139D01*
X123066951Y-67164826D01*
X123066949Y-67164828D01*
X123066948Y-67164828D01*
X122927771Y-67304005D01*
X122927771Y-67304006D01*
X122927769Y-67304008D01*
X122878082Y-67372395D01*
X122812073Y-67463248D01*
X122722714Y-67638624D01*
X122661887Y-67825827D01*
X122631097Y-68020231D01*
X122631097Y-68217076D01*
X122661887Y-68411480D01*
X122722714Y-68598683D01*
X122812073Y-68774059D01*
X122927769Y-68933300D01*
X123066951Y-69072482D01*
X123117278Y-69109047D01*
X123132563Y-69120152D01*
X123175228Y-69175483D01*
X123181207Y-69245096D01*
X123148601Y-69306891D01*
X123132563Y-69320787D01*
X123082239Y-69357350D01*
X123082230Y-69357357D01*
X122943053Y-69496534D01*
X122943053Y-69496535D01*
X122943051Y-69496537D01*
X122906735Y-69546522D01*
X122827355Y-69655777D01*
X122737996Y-69831153D01*
X122677169Y-70018356D01*
X122646379Y-70212760D01*
X122646379Y-70409605D01*
X122677169Y-70604009D01*
X122737996Y-70791212D01*
X122823312Y-70958653D01*
X122827355Y-70966588D01*
X122943051Y-71125829D01*
X123082233Y-71265011D01*
X123241474Y-71380707D01*
X123312085Y-71416685D01*
X123416849Y-71470065D01*
X123416851Y-71470065D01*
X123416854Y-71470067D01*
X123517196Y-71502670D01*
X123604052Y-71530892D01*
X123798457Y-71561683D01*
X123798462Y-71561683D01*
X123995301Y-71561683D01*
X124189705Y-71530892D01*
X124376904Y-71470067D01*
X124552284Y-71380707D01*
X124711525Y-71265011D01*
X124850707Y-71125829D01*
X124966403Y-70966588D01*
X125055763Y-70791208D01*
X125116588Y-70604009D01*
X125147379Y-70409605D01*
X125147379Y-70212760D01*
X125116588Y-70018356D01*
X125055761Y-69831153D01*
X124966402Y-69655777D01*
X124850707Y-69496537D01*
X124711525Y-69357355D01*
X124706773Y-69353902D01*
X124645912Y-69309683D01*
X124603246Y-69254353D01*
X124597268Y-69184740D01*
X124629875Y-69122945D01*
X124645904Y-69109055D01*
X124696243Y-69072482D01*
X124835425Y-68933300D01*
X124951121Y-68774059D01*
X125040481Y-68598679D01*
X125101306Y-68411480D01*
X125132097Y-68217076D01*
X125132097Y-68020231D01*
X125101306Y-67825827D01*
X125040479Y-67638624D01*
X124951120Y-67463248D01*
X124835425Y-67304008D01*
X124696243Y-67164826D01*
X124537002Y-67049130D01*
X124381669Y-66969984D01*
X124330874Y-66922011D01*
X124314079Y-66854190D01*
X124336616Y-66788055D01*
X124391331Y-66744603D01*
X124437965Y-66735500D01*
X126351000Y-66735500D01*
X126418039Y-66755185D01*
X126463794Y-66807989D01*
X126475000Y-66859500D01*
X126475000Y-69125000D01*
X128475000Y-69125000D01*
X128475000Y-66859500D01*
X128494685Y-66792461D01*
X128547489Y-66746706D01*
X128599000Y-66735500D01*
X130350500Y-66735500D01*
X130417539Y-66755185D01*
X130463294Y-66807989D01*
X130474500Y-66859500D01*
X130474500Y-71912870D01*
X130474501Y-71912876D01*
X130480908Y-71972483D01*
X130531202Y-72107328D01*
X130531206Y-72107335D01*
X130617452Y-72222544D01*
X130617455Y-72222547D01*
X130732664Y-72308793D01*
X130732671Y-72308797D01*
X130867517Y-72359091D01*
X130867516Y-72359091D01*
X130874444Y-72359835D01*
X130927127Y-72365500D01*
X132522872Y-72365499D01*
X132582483Y-72359091D01*
X132717331Y-72308796D01*
X132832546Y-72222546D01*
X132918796Y-72107331D01*
X132969091Y-71972483D01*
X132972547Y-71940331D01*
X132993549Y-71889628D01*
X134975000Y-71889628D01*
X134989503Y-71962540D01*
X134989505Y-71962544D01*
X135044760Y-72045239D01*
X135127455Y-72100494D01*
X135127459Y-72100496D01*
X135200371Y-72114999D01*
X135200374Y-72115000D01*
X135775000Y-72115000D01*
X136175000Y-72115000D01*
X136749626Y-72115000D01*
X136749628Y-72114999D01*
X136822540Y-72100496D01*
X136822544Y-72100494D01*
X136905239Y-72045239D01*
X136960494Y-71962544D01*
X136960496Y-71962540D01*
X136974999Y-71889628D01*
X136975000Y-71889626D01*
X136975000Y-69525000D01*
X136175000Y-69525000D01*
X136175000Y-72115000D01*
X135775000Y-72115000D01*
X135775000Y-69525000D01*
X134975000Y-69525000D01*
X134975000Y-71889628D01*
X132993549Y-71889628D01*
X132999283Y-71875784D01*
X133056675Y-71835935D01*
X133071640Y-71831973D01*
X133195997Y-71807237D01*
X133341679Y-71746894D01*
X133472789Y-71659289D01*
X133584289Y-71547789D01*
X133671894Y-71416679D01*
X133732237Y-71270997D01*
X133763000Y-71116342D01*
X133763000Y-70958658D01*
X133763000Y-70958655D01*
X133762999Y-70958653D01*
X133732238Y-70804010D01*
X133732237Y-70804003D01*
X133726937Y-70791208D01*
X133671897Y-70658327D01*
X133671890Y-70658314D01*
X133584289Y-70527211D01*
X133584286Y-70527207D01*
X133472792Y-70415713D01*
X133472788Y-70415710D01*
X133341685Y-70328109D01*
X133341672Y-70328102D01*
X133196001Y-70267764D01*
X133195991Y-70267761D01*
X133075307Y-70243755D01*
X133013396Y-70211370D01*
X132978822Y-70150654D01*
X132975499Y-70122138D01*
X132975499Y-66859500D01*
X132995184Y-66792461D01*
X133047988Y-66746706D01*
X133099499Y-66735500D01*
X134851000Y-66735500D01*
X134918039Y-66755185D01*
X134963794Y-66807989D01*
X134975000Y-66859500D01*
X134975000Y-69125000D01*
X136975000Y-69125000D01*
X136975000Y-66859500D01*
X136977550Y-66850814D01*
X136976262Y-66841853D01*
X136987240Y-66817812D01*
X136994685Y-66792461D01*
X137001525Y-66786533D01*
X137005287Y-66778297D01*
X137027521Y-66764007D01*
X137047489Y-66746706D01*
X137058003Y-66744418D01*
X137064065Y-66740523D01*
X137099000Y-66735500D01*
X137165425Y-66735500D01*
X137232464Y-66755185D01*
X137278219Y-66807989D01*
X137289424Y-66859566D01*
X137286341Y-72365498D01*
X137281063Y-81788235D01*
X137261341Y-81855264D01*
X137208511Y-81900989D01*
X137139347Y-81910894D01*
X137091966Y-81893705D01*
X137001652Y-81837998D01*
X137001647Y-81837996D01*
X136840662Y-81784651D01*
X136741305Y-81774500D01*
X136741298Y-81774500D01*
X136605182Y-81774500D01*
X136538143Y-81754815D01*
X136517501Y-81738181D01*
X135740666Y-80961345D01*
X135707181Y-80900022D01*
X135704347Y-80873664D01*
X135704347Y-79909313D01*
X135704346Y-79909298D01*
X135701445Y-79872432D01*
X135701444Y-79872426D01*
X135667683Y-79756224D01*
X135655591Y-79714602D01*
X135571928Y-79573135D01*
X135571926Y-79573133D01*
X135571923Y-79573129D01*
X135455717Y-79456923D01*
X135455714Y-79456921D01*
X135455712Y-79456919D01*
X135455396Y-79456732D01*
X135455200Y-79456522D01*
X135449549Y-79452139D01*
X135450256Y-79451227D01*
X135407713Y-79405664D01*
X135395209Y-79336923D01*
X135421853Y-79272333D01*
X135449768Y-79248144D01*
X135449549Y-79247861D01*
X135454758Y-79243820D01*
X135455397Y-79243267D01*
X135455712Y-79243081D01*
X135571928Y-79126865D01*
X135655591Y-78985398D01*
X135701445Y-78827569D01*
X135704347Y-78790694D01*
X135704347Y-77634306D01*
X135701445Y-77597431D01*
X135698505Y-77587313D01*
X135655592Y-77439606D01*
X135655591Y-77439603D01*
X135655591Y-77439602D01*
X135571928Y-77298135D01*
X135571926Y-77298133D01*
X135571923Y-77298129D01*
X135455717Y-77181923D01*
X135455708Y-77181916D01*
X135369534Y-77130953D01*
X135321850Y-77079884D01*
X135309347Y-77011142D01*
X135335993Y-76946553D01*
X135358345Y-76924954D01*
X135439328Y-76864331D01*
X135521184Y-76754984D01*
X135521185Y-76754983D01*
X135568916Y-76627010D01*
X135574999Y-76570428D01*
X135575000Y-76570427D01*
X135575000Y-76475000D01*
X134999000Y-76475000D01*
X134931961Y-76455315D01*
X134886206Y-76402511D01*
X134875000Y-76351000D01*
X134875000Y-76275000D01*
X134799000Y-76275000D01*
X134731961Y-76255315D01*
X134686206Y-76202511D01*
X134675000Y-76151000D01*
X134675000Y-76075000D01*
X135075000Y-76075000D01*
X135574999Y-76075000D01*
X135574999Y-75979566D01*
X135574998Y-75979560D01*
X135568918Y-75922992D01*
X135521186Y-75795018D01*
X135521184Y-75795015D01*
X135439329Y-75685670D01*
X135329984Y-75603815D01*
X135329983Y-75603814D01*
X135202010Y-75556083D01*
X135145428Y-75550000D01*
X135075000Y-75550000D01*
X135075000Y-76075000D01*
X134675000Y-76075000D01*
X134675000Y-75550000D01*
X134674999Y-75549999D01*
X134604567Y-75550000D01*
X134604558Y-75550001D01*
X134547992Y-75556081D01*
X134420018Y-75603813D01*
X134420012Y-75603816D01*
X134338861Y-75664565D01*
X134273397Y-75688981D01*
X134205124Y-75674129D01*
X134159014Y-75630395D01*
X134122968Y-75571956D01*
X134003044Y-75452032D01*
X134003040Y-75452029D01*
X133858705Y-75363001D01*
X133858699Y-75362998D01*
X133858697Y-75362997D01*
X133858694Y-75362996D01*
X133697709Y-75309651D01*
X133598346Y-75299500D01*
X133051662Y-75299500D01*
X133051644Y-75299501D01*
X132952292Y-75309650D01*
X132952289Y-75309651D01*
X132791305Y-75362996D01*
X132791294Y-75363001D01*
X132646959Y-75452029D01*
X132646955Y-75452032D01*
X132527031Y-75571956D01*
X132509367Y-75600596D01*
X132457420Y-75647321D01*
X132403828Y-75659500D01*
X126135604Y-75659500D01*
X126088155Y-75650062D01*
X126064497Y-75640263D01*
X126064493Y-75640262D01*
X126064488Y-75640260D01*
X125909845Y-75609500D01*
X125909842Y-75609500D01*
X125752158Y-75609500D01*
X125752155Y-75609500D01*
X125597510Y-75640261D01*
X125597498Y-75640264D01*
X125451827Y-75700602D01*
X125451814Y-75700609D01*
X125320711Y-75788210D01*
X125320707Y-75788213D01*
X125209213Y-75899707D01*
X125209210Y-75899711D01*
X125121609Y-76030814D01*
X125121602Y-76030827D01*
X125061264Y-76176498D01*
X125061261Y-76176510D01*
X125030500Y-76331153D01*
X125030500Y-76488846D01*
X125061261Y-76643493D01*
X125062950Y-76649059D01*
X125063573Y-76718926D01*
X125026324Y-76778038D01*
X124963030Y-76807629D01*
X124905978Y-76802986D01*
X124899204Y-76800785D01*
X124747403Y-76776742D01*
X124709454Y-76770732D01*
X124517344Y-76770732D01*
X124471216Y-76778038D01*
X124327596Y-76800785D01*
X124144892Y-76860148D01*
X123973717Y-76947367D01*
X123885939Y-77011142D01*
X123818297Y-77060287D01*
X123818295Y-77060289D01*
X123818294Y-77060289D01*
X123682456Y-77196127D01*
X123682456Y-77196128D01*
X123682454Y-77196130D01*
X123649380Y-77241653D01*
X123569534Y-77351550D01*
X123482315Y-77522725D01*
X123422952Y-77705429D01*
X123392899Y-77895177D01*
X123392899Y-78087286D01*
X123422952Y-78277034D01*
X123482315Y-78459738D01*
X123482317Y-78459741D01*
X123569534Y-78630913D01*
X123682454Y-78786334D01*
X123818297Y-78922177D01*
X123973718Y-79035097D01*
X124144890Y-79122314D01*
X124144892Y-79122315D01*
X124236244Y-79151996D01*
X124327598Y-79181679D01*
X124517344Y-79211732D01*
X124517345Y-79211732D01*
X124709453Y-79211732D01*
X124709454Y-79211732D01*
X124899200Y-79181679D01*
X125081908Y-79122314D01*
X125253080Y-79035097D01*
X125408501Y-78922177D01*
X125544344Y-78786334D01*
X125657264Y-78630913D01*
X125744481Y-78459741D01*
X125744483Y-78459736D01*
X125765468Y-78395151D01*
X125804905Y-78337475D01*
X125869263Y-78310276D01*
X125938110Y-78322190D01*
X125989586Y-78369434D01*
X126001330Y-78395151D01*
X126022314Y-78459736D01*
X126022317Y-78459741D01*
X126109534Y-78630913D01*
X126222454Y-78786334D01*
X126358297Y-78922177D01*
X126513718Y-79035097D01*
X126684890Y-79122314D01*
X126684892Y-79122315D01*
X126776244Y-79151996D01*
X126867598Y-79181679D01*
X127057344Y-79211732D01*
X127057345Y-79211732D01*
X127249441Y-79211732D01*
X127249454Y-79211732D01*
X127249466Y-79211729D01*
X127250925Y-79211615D01*
X127251482Y-79211732D01*
X127254326Y-79211732D01*
X127254326Y-79212329D01*
X127319304Y-79225971D01*
X127348350Y-79247551D01*
X128254181Y-80153382D01*
X128287666Y-80214705D01*
X128290500Y-80241063D01*
X128290500Y-81546951D01*
X128270815Y-81613990D01*
X128218011Y-81659745D01*
X128148853Y-81669689D01*
X128128185Y-81664883D01*
X128106240Y-81657753D01*
X127944957Y-81632208D01*
X127896287Y-81624500D01*
X127683713Y-81624500D01*
X127635042Y-81632208D01*
X127473760Y-81657753D01*
X127271585Y-81723444D01*
X127082179Y-81819951D01*
X126910215Y-81944889D01*
X126796673Y-82058431D01*
X126735350Y-82091915D01*
X126665658Y-82086931D01*
X126609725Y-82045059D01*
X126592810Y-82014082D01*
X126543797Y-81882671D01*
X126543793Y-81882664D01*
X126457547Y-81767455D01*
X126457544Y-81767452D01*
X126342335Y-81681206D01*
X126342328Y-81681202D01*
X126207482Y-81630908D01*
X126207483Y-81630908D01*
X126147883Y-81624501D01*
X126147881Y-81624500D01*
X126147873Y-81624500D01*
X126147864Y-81624500D01*
X124352129Y-81624500D01*
X124352123Y-81624501D01*
X124292516Y-81630908D01*
X124157671Y-81681202D01*
X124157664Y-81681206D01*
X124042455Y-81767452D01*
X124042452Y-81767455D01*
X123956206Y-81882664D01*
X123956202Y-81882671D01*
X123905908Y-82017517D01*
X123899501Y-82077116D01*
X123899500Y-82077135D01*
X123899500Y-83872870D01*
X123899501Y-83872876D01*
X123905908Y-83932483D01*
X123956202Y-84067328D01*
X123956206Y-84067335D01*
X124042452Y-84182544D01*
X124042455Y-84182547D01*
X124157664Y-84268793D01*
X124157671Y-84268797D01*
X124292517Y-84319091D01*
X124292516Y-84319091D01*
X124295800Y-84319444D01*
X124352127Y-84325500D01*
X126147872Y-84325499D01*
X126207483Y-84319091D01*
X126342331Y-84268796D01*
X126457546Y-84182546D01*
X126543796Y-84067331D01*
X126592810Y-83935916D01*
X126634681Y-83879984D01*
X126700145Y-83855566D01*
X126768418Y-83870417D01*
X126796673Y-83891569D01*
X126910213Y-84005109D01*
X127082179Y-84130048D01*
X127082181Y-84130049D01*
X127082184Y-84130051D01*
X127271588Y-84226557D01*
X127473757Y-84292246D01*
X127645478Y-84319444D01*
X127708613Y-84349373D01*
X127745544Y-84408685D01*
X127744546Y-84478547D01*
X127713761Y-84529598D01*
X127282223Y-84961135D01*
X127220900Y-84994620D01*
X127194542Y-84997454D01*
X126669903Y-84997454D01*
X126669897Y-84997455D01*
X126610290Y-85003862D01*
X126475445Y-85054156D01*
X126475438Y-85054160D01*
X126360229Y-85140406D01*
X126360226Y-85140409D01*
X126273980Y-85255618D01*
X126273976Y-85255625D01*
X126228139Y-85378523D01*
X126223683Y-85390471D01*
X126217274Y-85450081D01*
X126217274Y-85450088D01*
X126217274Y-85450089D01*
X126217274Y-86195824D01*
X126217275Y-86195830D01*
X126223682Y-86255437D01*
X126273976Y-86390282D01*
X126278228Y-86398068D01*
X126275054Y-86399800D01*
X126293433Y-86449256D01*
X126278499Y-86517511D01*
X126277891Y-86518456D01*
X126273976Y-86525625D01*
X126223684Y-86660467D01*
X126223683Y-86660471D01*
X126217274Y-86720081D01*
X126217274Y-86720088D01*
X126217274Y-86720089D01*
X126217274Y-87465824D01*
X126217275Y-87465830D01*
X126223682Y-87525437D01*
X126273976Y-87660282D01*
X126278228Y-87668068D01*
X126275054Y-87669800D01*
X126293433Y-87719256D01*
X126278499Y-87787511D01*
X126277891Y-87788456D01*
X126273976Y-87795625D01*
X126223684Y-87930467D01*
X126223683Y-87930471D01*
X126217274Y-87990081D01*
X126217274Y-87990088D01*
X126217274Y-87990089D01*
X126217274Y-88735824D01*
X126217275Y-88735830D01*
X126223682Y-88795437D01*
X126273976Y-88930282D01*
X126278228Y-88938068D01*
X126275054Y-88939800D01*
X126293433Y-88989256D01*
X126278499Y-89057511D01*
X126277891Y-89058456D01*
X126273976Y-89065625D01*
X126223684Y-89200467D01*
X126223683Y-89200471D01*
X126217274Y-89260081D01*
X126217274Y-89260088D01*
X126217274Y-89260089D01*
X126217274Y-89784236D01*
X126197589Y-89851275D01*
X126144785Y-89897030D01*
X126075627Y-89906974D01*
X126012071Y-89877949D01*
X126003177Y-89868645D01*
X126003082Y-89868741D01*
X125878051Y-89743710D01*
X125878047Y-89743707D01*
X125819611Y-89707663D01*
X125772886Y-89655715D01*
X125761665Y-89586753D01*
X125785442Y-89527814D01*
X125846189Y-89446666D01*
X125846192Y-89446661D01*
X125893923Y-89318688D01*
X125900006Y-89262106D01*
X125900007Y-89262105D01*
X125900007Y-89191678D01*
X125299007Y-89191678D01*
X125231968Y-89171993D01*
X125186213Y-89119189D01*
X125175007Y-89067678D01*
X125175007Y-88991678D01*
X125099007Y-88991678D01*
X125031968Y-88971993D01*
X124986213Y-88919189D01*
X124975007Y-88867678D01*
X124975007Y-88791678D01*
X125375007Y-88791678D01*
X125900006Y-88791678D01*
X125900006Y-88721244D01*
X125900005Y-88721238D01*
X125893925Y-88664670D01*
X125846193Y-88536696D01*
X125846191Y-88536693D01*
X125764336Y-88427348D01*
X125654991Y-88345493D01*
X125654990Y-88345492D01*
X125527017Y-88297761D01*
X125470435Y-88291678D01*
X125375007Y-88291678D01*
X125375007Y-88791678D01*
X124975007Y-88791678D01*
X124975007Y-88291677D01*
X124879573Y-88291678D01*
X124879566Y-88291679D01*
X124822999Y-88297759D01*
X124695025Y-88345491D01*
X124695020Y-88345494D01*
X124664147Y-88368605D01*
X124598682Y-88393020D01*
X124530410Y-88378167D01*
X124481006Y-88328761D01*
X124479376Y-88325674D01*
X124475051Y-88317184D01*
X124475048Y-88317178D01*
X124350109Y-88145213D01*
X124236569Y-88031673D01*
X124203084Y-87970350D01*
X124208068Y-87900658D01*
X124249940Y-87844725D01*
X124280915Y-87827810D01*
X124412331Y-87778796D01*
X124527546Y-87692546D01*
X124613796Y-87577331D01*
X124664091Y-87442483D01*
X124670500Y-87382873D01*
X124670499Y-85587128D01*
X124664091Y-85527517D01*
X124635212Y-85450089D01*
X124613797Y-85392671D01*
X124613793Y-85392664D01*
X124527547Y-85277455D01*
X124527544Y-85277452D01*
X124412335Y-85191206D01*
X124412328Y-85191202D01*
X124277482Y-85140908D01*
X124277483Y-85140908D01*
X124217883Y-85134501D01*
X124217881Y-85134500D01*
X124217873Y-85134500D01*
X124217864Y-85134500D01*
X122422129Y-85134500D01*
X122422123Y-85134501D01*
X122362516Y-85140908D01*
X122227833Y-85191142D01*
X122158141Y-85196126D01*
X122096818Y-85162641D01*
X122063334Y-85101317D01*
X122060500Y-85074960D01*
X122060500Y-71889628D01*
X126475000Y-71889628D01*
X126489503Y-71962540D01*
X126489505Y-71962544D01*
X126544760Y-72045239D01*
X126627455Y-72100494D01*
X126627459Y-72100496D01*
X126700371Y-72114999D01*
X126700374Y-72115000D01*
X127275000Y-72115000D01*
X127675000Y-72115000D01*
X128249626Y-72115000D01*
X128249628Y-72114999D01*
X128322540Y-72100496D01*
X128322544Y-72100494D01*
X128405239Y-72045239D01*
X128460494Y-71962544D01*
X128460496Y-71962540D01*
X128474999Y-71889628D01*
X128475000Y-71889626D01*
X128475000Y-69525000D01*
X127675000Y-69525000D01*
X127675000Y-72115000D01*
X127275000Y-72115000D01*
X127275000Y-69525000D01*
X126475000Y-69525000D01*
X126475000Y-71889628D01*
X122060500Y-71889628D01*
X122060500Y-66859500D01*
X122080185Y-66792461D01*
X122132989Y-66746706D01*
X122184500Y-66735500D01*
X123325229Y-66735500D01*
X123392268Y-66755185D01*
G37*
G04 #@! TD.AperFunction*
G04 #@! TA.AperFunction,Conductor*
G36*
X135005703Y-82349564D02*
G01*
X135012181Y-82355596D01*
X135431134Y-82774549D01*
X135464619Y-82835872D01*
X135467453Y-82862229D01*
X135467453Y-82998336D01*
X135467454Y-82998355D01*
X135477603Y-83097707D01*
X135477604Y-83097710D01*
X135530949Y-83258694D01*
X135530954Y-83258705D01*
X135619982Y-83403040D01*
X135619985Y-83403044D01*
X135739909Y-83522968D01*
X135798348Y-83559014D01*
X135845072Y-83610962D01*
X135856293Y-83679925D01*
X135832518Y-83738861D01*
X135771769Y-83820012D01*
X135771767Y-83820016D01*
X135724036Y-83947989D01*
X135717953Y-84004571D01*
X135717953Y-84075000D01*
X136318953Y-84075000D01*
X136327638Y-84077550D01*
X136336600Y-84076262D01*
X136360640Y-84087240D01*
X136385992Y-84094685D01*
X136391919Y-84101525D01*
X136400156Y-84105287D01*
X136414445Y-84127521D01*
X136431747Y-84147489D01*
X136434034Y-84158003D01*
X136437930Y-84164065D01*
X136442953Y-84199000D01*
X136442953Y-84351000D01*
X136423268Y-84418039D01*
X136370464Y-84463794D01*
X136318953Y-84475000D01*
X135717954Y-84475000D01*
X135717954Y-84545439D01*
X135724034Y-84602007D01*
X135771766Y-84729981D01*
X135771768Y-84729984D01*
X135853623Y-84839329D01*
X135949675Y-84911233D01*
X135991546Y-84967167D01*
X135996530Y-85036858D01*
X135963045Y-85098181D01*
X135901722Y-85131666D01*
X135875364Y-85134500D01*
X135122129Y-85134500D01*
X135122123Y-85134501D01*
X135062516Y-85140908D01*
X134927671Y-85191202D01*
X134927664Y-85191206D01*
X134812455Y-85277452D01*
X134812452Y-85277455D01*
X134726206Y-85392664D01*
X134726202Y-85392671D01*
X134675908Y-85527517D01*
X134669501Y-85587116D01*
X134669501Y-85587123D01*
X134669500Y-85587135D01*
X134669500Y-86722769D01*
X134649815Y-86789808D01*
X134633181Y-86810450D01*
X134379954Y-87063677D01*
X134318631Y-87097162D01*
X134248939Y-87092178D01*
X134193006Y-87050306D01*
X134168589Y-86984842D01*
X134168273Y-86975996D01*
X134168273Y-86720083D01*
X134168272Y-86720077D01*
X134161865Y-86660470D01*
X134111571Y-86525624D01*
X134107321Y-86517842D01*
X134110531Y-86516088D01*
X134092135Y-86466955D01*
X134106901Y-86398663D01*
X134107526Y-86397690D01*
X134111571Y-86390283D01*
X134122826Y-86360104D01*
X134161865Y-86255437D01*
X134168274Y-86195827D01*
X134168273Y-85450082D01*
X134167972Y-85447282D01*
X134180374Y-85378523D01*
X134210062Y-85340306D01*
X134222532Y-85329501D01*
X134316752Y-85220767D01*
X134376523Y-85089890D01*
X134396208Y-85022851D01*
X134396209Y-85022847D01*
X134416685Y-84880431D01*
X134416685Y-83400280D01*
X134416685Y-83400269D01*
X134416684Y-83400267D01*
X134413287Y-83341768D01*
X134413285Y-83341749D01*
X134409965Y-83313265D01*
X134409962Y-83313237D01*
X134404391Y-83281551D01*
X134412168Y-83212116D01*
X134456251Y-83157908D01*
X134457458Y-83157089D01*
X134510289Y-83121789D01*
X134621789Y-83010289D01*
X134709394Y-82879179D01*
X134769737Y-82733497D01*
X134800500Y-82578842D01*
X134800500Y-82443277D01*
X134820185Y-82376238D01*
X134872989Y-82330483D01*
X134942147Y-82320539D01*
X135005703Y-82349564D01*
G37*
G04 #@! TD.AperFunction*
M02*
