G04 #@! TF.GenerationSoftware,KiCad,Pcbnew,9.0.6*
G04 #@! TF.CreationDate,2026-01-10T17:13:08+00:00*
G04 #@! TF.ProjectId,CurrentSource,43757272-656e-4745-936f-757263652e6b,rev?*
G04 #@! TF.SameCoordinates,Original*
G04 #@! TF.FileFunction,Paste,Top*
G04 #@! TF.FilePolarity,Positive*
%FSLAX46Y46*%
G04 Gerber Fmt 4.6, Leading zero omitted, Abs format (unit mm)*
G04 Created by KiCad (PCBNEW 9.0.6) date 2026-01-10 17:13:08*
%MOMM*%
%LPD*%
G01*
G04 APERTURE LIST*
G04 Aperture macros list*
%AMRoundRect*
0 Rectangle with rounded corners*
0 $1 Rounding radius*
0 $2 $3 $4 $5 $6 $7 $8 $9 X,Y pos of 4 corners*
0 Add a 4 corners polygon primitive as box body*
4,1,4,$2,$3,$4,$5,$6,$7,$8,$9,$2,$3,0*
0 Add four circle primitives for the rounded corners*
1,1,$1+$1,$2,$3*
1,1,$1+$1,$4,$5*
1,1,$1+$1,$6,$7*
1,1,$1+$1,$8,$9*
0 Add four rect primitives between the rounded corners*
20,1,$1+$1,$2,$3,$4,$5,0*
20,1,$1+$1,$4,$5,$6,$7,0*
20,1,$1+$1,$6,$7,$8,$9,0*
20,1,$1+$1,$8,$9,$2,$3,0*%
G04 Aperture macros list end*
%ADD10RoundRect,0.135000X0.135000X0.185000X-0.135000X0.185000X-0.135000X-0.185000X0.135000X-0.185000X0*%
%ADD11RoundRect,0.150000X0.512500X0.150000X-0.512500X0.150000X-0.512500X-0.150000X0.512500X-0.150000X0*%
%ADD12RoundRect,0.062500X-0.062500X-0.375000X0.062500X-0.375000X0.062500X0.375000X-0.062500X0.375000X0*%
%ADD13RoundRect,0.062500X-0.375000X-0.062500X0.375000X-0.062500X0.375000X0.062500X-0.375000X0.062500X0*%
%ADD14RoundRect,0.190000X-0.190000X-0.190000X0.190000X-0.190000X0.190000X0.190000X-0.190000X0.190000X0*%
%ADD15R,1.500000X5.080000*%
%ADD16R,1.528000X0.650000*%
%ADD17RoundRect,0.200000X0.275000X-0.200000X0.275000X0.200000X-0.275000X0.200000X-0.275000X-0.200000X0*%
%ADD18RoundRect,0.200000X-0.275000X0.200000X-0.275000X-0.200000X0.275000X-0.200000X0.275000X0.200000X0*%
%ADD19RoundRect,0.225000X-0.225000X-0.250000X0.225000X-0.250000X0.225000X0.250000X-0.225000X0.250000X0*%
%ADD20RoundRect,0.225000X0.250000X-0.225000X0.250000X0.225000X-0.250000X0.225000X-0.250000X-0.225000X0*%
%ADD21RoundRect,0.150000X-0.150000X0.512500X-0.150000X-0.512500X0.150000X-0.512500X0.150000X0.512500X0*%
%ADD22RoundRect,0.225000X-0.250000X0.225000X-0.250000X-0.225000X0.250000X-0.225000X0.250000X0.225000X0*%
%ADD23RoundRect,0.100000X0.225000X0.100000X-0.225000X0.100000X-0.225000X-0.100000X0.225000X-0.100000X0*%
%ADD24RoundRect,0.225000X0.225000X0.250000X-0.225000X0.250000X-0.225000X-0.250000X0.225000X-0.250000X0*%
%ADD25RoundRect,0.218750X0.218750X0.256250X-0.218750X0.256250X-0.218750X-0.256250X0.218750X-0.256250X0*%
%ADD26RoundRect,0.200000X0.200000X0.275000X-0.200000X0.275000X-0.200000X-0.275000X0.200000X-0.275000X0*%
G04 APERTURE END LIST*
D10*
X130110000Y-106075000D03*
X129090000Y-106075000D03*
D11*
X125212500Y-94522500D03*
X125212500Y-92622500D03*
X127487500Y-92622500D03*
X127487500Y-93572500D03*
X127487500Y-94522500D03*
D12*
X133600000Y-101835000D03*
X134100000Y-101835000D03*
X134600000Y-101835000D03*
X135100000Y-101835000D03*
D13*
X135787500Y-102522500D03*
X135787500Y-103022500D03*
X135787500Y-103522500D03*
X135787500Y-104022500D03*
D12*
X135100000Y-104710000D03*
X134600000Y-104710000D03*
X134100000Y-104710000D03*
X133600000Y-104710000D03*
D13*
X132912500Y-104022500D03*
X132912500Y-103522500D03*
X132912500Y-103022500D03*
X132912500Y-102522500D03*
D14*
X134350000Y-103272500D03*
D15*
X131725000Y-69325000D03*
X127475000Y-69325000D03*
X135975000Y-69325000D03*
D16*
X127481774Y-85822954D03*
X127481774Y-87092954D03*
X127481774Y-88362954D03*
X127481774Y-89632954D03*
X132903774Y-89632954D03*
X132903774Y-88362954D03*
X132903774Y-87092954D03*
X132903774Y-85822954D03*
D17*
X133250000Y-95325000D03*
X133250000Y-93675000D03*
D18*
X132377802Y-82351755D03*
X132377802Y-84001755D03*
D19*
X129010000Y-101380000D03*
X130560000Y-101380000D03*
D20*
X136290000Y-100660000D03*
X136290000Y-99110000D03*
D17*
X124090000Y-100160000D03*
X124090000Y-98510000D03*
D20*
X125175007Y-90541678D03*
X125175007Y-88991678D03*
D21*
X127540000Y-97495000D03*
X126590000Y-97495000D03*
X125640000Y-97495000D03*
X125640000Y-99770000D03*
X127540000Y-99770000D03*
D17*
X133530000Y-100200000D03*
X133530000Y-98550000D03*
D19*
X129725000Y-93750000D03*
X131275000Y-93750000D03*
D21*
X134903847Y-78212500D03*
X133953847Y-78212500D03*
X133003847Y-78212500D03*
X133003847Y-80487500D03*
X133953847Y-80487500D03*
X134903847Y-80487500D03*
D22*
X136442953Y-82725000D03*
X136442953Y-84275000D03*
D19*
X133325000Y-76275000D03*
X134875000Y-76275000D03*
D23*
X131340000Y-104490000D03*
X131340000Y-103840000D03*
X131340000Y-103190000D03*
X129440000Y-103190000D03*
X129440000Y-103840000D03*
X129440000Y-104490000D03*
D18*
X130787802Y-82351755D03*
X130787802Y-84001755D03*
D24*
X127375000Y-104750000D03*
X125825000Y-104750000D03*
D25*
X131287500Y-95500000D03*
X129712500Y-95500000D03*
D19*
X129075000Y-99580000D03*
X130625000Y-99580000D03*
D26*
X127395000Y-101540000D03*
X125745000Y-101540000D03*
X127400000Y-103130000D03*
X125750000Y-103130000D03*
D19*
X129235000Y-97870000D03*
X130785000Y-97870000D03*
X129725000Y-92000000D03*
X131275000Y-92000000D03*
M02*
