G04 #@! TF.GenerationSoftware,KiCad,Pcbnew,9.0.6*
G04 #@! TF.CreationDate,2026-01-10T17:13:08+00:00*
G04 #@! TF.ProjectId,CurrentSource,43757272-656e-4745-936f-757263652e6b,rev?*
G04 #@! TF.SameCoordinates,Original*
G04 #@! TF.FileFunction,Copper,L4,Bot*
G04 #@! TF.FilePolarity,Positive*
%FSLAX46Y46*%
G04 Gerber Fmt 4.6, Leading zero omitted, Abs format (unit mm)*
G04 Created by KiCad (PCBNEW 9.0.6) date 2026-01-10 17:13:08*
%MOMM*%
%LPD*%
G01*
G04 APERTURE LIST*
G04 Aperture macros list*
%AMRoundRect*
0 Rectangle with rounded corners*
0 $1 Rounding radius*
0 $2 $3 $4 $5 $6 $7 $8 $9 X,Y pos of 4 corners*
0 Add a 4 corners polygon primitive as box body*
4,1,4,$2,$3,$4,$5,$6,$7,$8,$9,$2,$3,0*
0 Add four circle primitives for the rounded corners*
1,1,$1+$1,$2,$3*
1,1,$1+$1,$4,$5*
1,1,$1+$1,$6,$7*
1,1,$1+$1,$8,$9*
0 Add four rect primitives between the rounded corners*
20,1,$1+$1,$2,$3,$4,$5,0*
20,1,$1+$1,$4,$5,$6,$7,0*
20,1,$1+$1,$6,$7,$8,$9,0*
20,1,$1+$1,$8,$9,$2,$3,0*%
G04 Aperture macros list end*
G04 #@! TA.AperFunction,SMDPad,CuDef*
%ADD10RoundRect,0.249999X1.425001X-0.450001X1.425001X0.450001X-1.425001X0.450001X-1.425001X-0.450001X0*%
G04 #@! TD*
G04 #@! TA.AperFunction,ComponentPad*
%ADD11C,1.700000*%
G04 #@! TD*
G04 #@! TA.AperFunction,ComponentPad*
%ADD12R,1.700000X1.700000*%
G04 #@! TD*
G04 #@! TA.AperFunction,HeatsinkPad*
%ADD13R,0.500000X0.500000*%
G04 #@! TD*
G04 #@! TA.AperFunction,HeatsinkPad*
%ADD14C,0.500000*%
G04 #@! TD*
G04 #@! TA.AperFunction,SMDPad,CuDef*
%ADD15R,1.500000X5.080000*%
G04 #@! TD*
G04 #@! TA.AperFunction,ComponentPad*
%ADD16C,1.500000*%
G04 #@! TD*
G04 #@! TA.AperFunction,ComponentPad*
%ADD17C,1.440000*%
G04 #@! TD*
G04 #@! TA.AperFunction,SMDPad,CuDef*
%ADD18RoundRect,0.250000X0.450000X-0.350000X0.450000X0.350000X-0.450000X0.350000X-0.450000X-0.350000X0*%
G04 #@! TD*
G04 #@! TA.AperFunction,SMDPad,CuDef*
%ADD19RoundRect,0.249999X1.075001X-0.450001X1.075001X0.450001X-1.075001X0.450001X-1.075001X-0.450001X0*%
G04 #@! TD*
G04 #@! TA.AperFunction,SMDPad,CuDef*
%ADD20RoundRect,0.250000X0.625000X-0.400000X0.625000X0.400000X-0.625000X0.400000X-0.625000X-0.400000X0*%
G04 #@! TD*
G04 #@! TA.AperFunction,ViaPad*
%ADD21C,0.600000*%
G04 #@! TD*
G04 #@! TA.AperFunction,Conductor*
%ADD22C,0.200000*%
G04 #@! TD*
G04 #@! TA.AperFunction,Conductor*
%ADD23C,0.500000*%
G04 #@! TD*
G04 #@! TA.AperFunction,Conductor*
%ADD24C,0.400000*%
G04 #@! TD*
G04 #@! TA.AperFunction,Conductor*
%ADD25C,0.750000*%
G04 #@! TD*
G04 #@! TA.AperFunction,Conductor*
%ADD26C,1.000000*%
G04 #@! TD*
G04 #@! TA.AperFunction,Conductor*
%ADD27C,0.150000*%
G04 #@! TD*
G04 APERTURE END LIST*
D10*
X124025000Y-99125000D03*
X124025000Y-105225000D03*
D11*
X129040000Y-108400000D03*
X126500000Y-108400000D03*
D12*
X123960000Y-108400000D03*
D13*
X134350000Y-103272500D03*
D14*
X134350000Y-103272500D03*
D15*
X127475000Y-69325000D03*
X135975000Y-69325000D03*
D12*
X123320000Y-86485000D03*
D11*
X123320000Y-89025000D03*
X123320000Y-91565000D03*
X123320000Y-94105000D03*
X123320000Y-96645000D03*
D12*
X136020000Y-86485000D03*
D11*
X136020000Y-89025000D03*
X136020000Y-91565000D03*
X136020000Y-94105000D03*
X136020000Y-96645000D03*
D12*
X123320000Y-111250000D03*
D11*
X125860000Y-111250000D03*
X128400000Y-111250000D03*
X130940000Y-111250000D03*
X133480000Y-111250000D03*
X136020000Y-111250000D03*
D16*
X123881597Y-68118654D03*
D12*
X125250000Y-82975000D03*
D11*
X127790000Y-82975000D03*
D12*
X135300000Y-108400000D03*
D11*
X132760000Y-108400000D03*
D17*
X124613399Y-77991232D03*
X127153399Y-77991232D03*
X129693399Y-77991232D03*
D16*
X123896879Y-70311183D03*
D18*
X127100000Y-103825000D03*
X127100000Y-101825000D03*
D19*
X127625000Y-105225000D03*
X127625000Y-100425000D03*
D20*
X124800000Y-103725000D03*
X124800000Y-100625000D03*
D21*
X133250000Y-91250000D03*
X124275000Y-106625000D03*
X127575861Y-96055861D03*
X125325000Y-106650000D03*
X128511250Y-93583750D03*
X133250000Y-92750000D03*
X136910000Y-103530000D03*
X136856526Y-108286783D03*
X136263860Y-75975621D03*
X136846340Y-106830116D03*
X133953847Y-77196153D03*
X134400000Y-106000000D03*
X123500000Y-76500000D03*
X135194232Y-84295465D03*
X126500000Y-91351729D03*
X136825967Y-109661958D03*
X125000000Y-93490000D03*
X132272214Y-98627786D03*
X125831000Y-76410000D03*
X124700000Y-97975000D03*
X128325000Y-98950000D03*
X135000000Y-81500000D03*
X132425000Y-94500000D03*
X134000000Y-82500000D03*
X128475000Y-95500000D03*
X134425707Y-99674293D03*
X132000000Y-80500000D03*
X131675000Y-91000000D03*
X128645246Y-92622500D03*
X135100000Y-100350000D03*
X136520000Y-105010000D03*
X132962500Y-71037500D03*
X128275070Y-103780470D03*
X129402093Y-87092954D03*
X128684975Y-102834975D03*
X126122735Y-98750000D03*
X126500000Y-99356999D03*
X135275000Y-105475000D03*
X129423231Y-88358744D03*
X129756643Y-90916085D03*
D22*
X128900000Y-108400000D02*
X129000000Y-108400000D01*
D23*
X128010000Y-96490000D02*
X127575861Y-96055861D01*
D24*
X127575861Y-96055861D02*
X127564139Y-96055861D01*
D25*
X122544000Y-110474000D02*
X122544000Y-107024000D01*
X122544000Y-107024000D02*
X122943000Y-106625000D01*
D23*
X135875000Y-96500000D02*
X128020000Y-96500000D01*
X127575861Y-94519139D02*
X128511250Y-93583750D01*
D24*
X126975000Y-96645000D02*
X123320000Y-96645000D01*
D23*
X136020000Y-96645000D02*
X135875000Y-96500000D01*
X127575861Y-96055861D02*
X127575861Y-94519139D01*
D25*
X124275000Y-106625000D02*
X125300000Y-106625000D01*
X125300000Y-106625000D02*
X125325000Y-106650000D01*
D24*
X127564139Y-96055861D02*
X126975000Y-96645000D01*
D25*
X122943000Y-106625000D02*
X124275000Y-106625000D01*
D23*
X128020000Y-96500000D02*
X128010000Y-96490000D01*
D25*
X123320000Y-111250000D02*
X122544000Y-110474000D01*
D24*
X132272214Y-98627786D02*
X131619428Y-97975000D01*
X131619428Y-97975000D02*
X124700000Y-97975000D01*
D23*
X124805000Y-85000000D02*
X123320000Y-86485000D01*
X134535000Y-85000000D02*
X124805000Y-85000000D01*
X136020000Y-86485000D02*
X134535000Y-85000000D01*
D26*
X123920000Y-108400000D02*
X123920000Y-108420000D01*
X123920000Y-108420000D02*
X125860000Y-110360000D01*
X128400000Y-111250000D02*
X125860000Y-111250000D01*
X125860000Y-110360000D02*
X125860000Y-111250000D01*
X127100000Y-104700000D02*
X127100000Y-103825000D01*
D27*
X127100000Y-103850000D02*
X127100000Y-103825000D01*
D26*
X126460000Y-108400000D02*
X127625000Y-107235000D01*
X131223240Y-108231701D02*
X132531421Y-108231701D01*
X127625000Y-105225000D02*
X127100000Y-104700000D01*
D27*
X124850000Y-103650000D02*
X124800000Y-103700000D01*
X126000000Y-103350000D02*
X125700000Y-103650000D01*
D26*
X124800000Y-104025000D02*
X126000000Y-105225000D01*
D27*
X127950000Y-103000000D02*
X126350000Y-103000000D01*
D26*
X124800000Y-103725000D02*
X124800000Y-104025000D01*
D27*
X126350000Y-103900000D02*
X127050000Y-103900000D01*
X126350000Y-103000000D02*
X126000000Y-103350000D01*
X127050000Y-103900000D02*
X127100000Y-103850000D01*
D26*
X132531421Y-108231701D02*
X132733041Y-108433321D01*
D27*
X126000000Y-103350000D02*
X126000000Y-103550000D01*
X126000000Y-103550000D02*
X126350000Y-103900000D01*
X125700000Y-103650000D02*
X124850000Y-103650000D01*
D26*
X127625000Y-107235000D02*
X127625000Y-105225000D01*
X127625000Y-105225000D02*
X128216539Y-105225000D01*
D27*
X128275070Y-103780470D02*
X128275070Y-103325070D01*
D26*
X124025000Y-105225000D02*
X126000000Y-105225000D01*
D27*
X128275070Y-103325070D02*
X127950000Y-103000000D01*
D26*
X128216539Y-105225000D02*
X131223240Y-108231701D01*
D27*
X124800000Y-103700000D02*
X124800000Y-103725000D01*
D26*
X126000000Y-105225000D02*
X127625000Y-105225000D01*
D22*
X124800000Y-103650000D02*
X124800000Y-103725000D01*
D27*
X124900000Y-100650000D02*
X124825000Y-100650000D01*
X125850000Y-102100000D02*
X126050000Y-101900000D01*
D22*
X128684975Y-102834975D02*
X128600000Y-102750000D01*
D27*
X124825000Y-100650000D02*
X124800000Y-100625000D01*
X125850000Y-102350000D02*
X125850000Y-101600000D01*
D26*
X124025000Y-99775000D02*
X124800000Y-100550000D01*
D24*
X124925000Y-100425000D02*
X124800000Y-100550000D01*
D27*
X126050000Y-101900000D02*
X127050000Y-101900000D01*
X125850000Y-101600000D02*
X124900000Y-100650000D01*
D26*
X126725000Y-99525000D02*
X127625000Y-100425000D01*
D24*
X124800000Y-100550000D02*
X124800000Y-100625000D01*
D26*
X124025000Y-99125000D02*
X126325000Y-99125000D01*
D24*
X127625000Y-100425000D02*
X124925000Y-100425000D01*
D26*
X124025000Y-99125000D02*
X124025000Y-99775000D01*
D27*
X125850000Y-102350000D02*
X125850000Y-102100000D01*
X127050000Y-101900000D02*
X127100000Y-101850000D01*
D26*
X127100000Y-100950000D02*
X127100000Y-101825000D01*
D27*
X128074678Y-102699000D02*
X126199000Y-102699000D01*
X126199000Y-102699000D02*
X125850000Y-102350000D01*
D26*
X126325000Y-99125000D02*
X126725000Y-99525000D01*
D27*
X128210653Y-102834975D02*
X128074678Y-102699000D01*
X127100000Y-101850000D02*
X127100000Y-101825000D01*
X128684975Y-102834975D02*
X128210653Y-102834975D01*
D26*
X127625000Y-100425000D02*
X127100000Y-100950000D01*
G04 #@! TA.AperFunction,Conductor*
G36*
X135554075Y-111442993D02*
G01*
X135619901Y-111557007D01*
X135712993Y-111650099D01*
X135827007Y-111715925D01*
X135834822Y-111718019D01*
X135396307Y-112156534D01*
X135443478Y-112190805D01*
X135597749Y-112269411D01*
X135601431Y-112270936D01*
X135655837Y-112314773D01*
X135677907Y-112381066D01*
X135660632Y-112448766D01*
X135609498Y-112496380D01*
X135553986Y-112509500D01*
X134425689Y-112509500D01*
X134358650Y-112489815D01*
X134312895Y-112437011D01*
X134302951Y-112367853D01*
X134331976Y-112304297D01*
X134352804Y-112285181D01*
X134359792Y-112280104D01*
X134510104Y-112129792D01*
X134510106Y-112129788D01*
X134510109Y-112129786D01*
X134635048Y-111957820D01*
X134635047Y-111957820D01*
X134635051Y-111957816D01*
X134731557Y-111768412D01*
X134763765Y-111669284D01*
X134803201Y-111611611D01*
X134867559Y-111584412D01*
X134936406Y-111596326D01*
X134987882Y-111643570D01*
X134999625Y-111669282D01*
X135000591Y-111672256D01*
X135079195Y-111826523D01*
X135079196Y-111826525D01*
X135113463Y-111873691D01*
X135113464Y-111873691D01*
X135551980Y-111435176D01*
X135554075Y-111442993D01*
G37*
G04 #@! TD.AperFunction*
G04 #@! TA.AperFunction,Conductor*
G36*
X136926533Y-111873692D02*
G01*
X136926534Y-111873691D01*
X136960803Y-111826525D01*
X137039410Y-111672252D01*
X137040934Y-111668573D01*
X137084769Y-111614165D01*
X137151060Y-111592093D01*
X137218762Y-111609364D01*
X137266378Y-111660496D01*
X137279500Y-111716013D01*
X137279500Y-112385500D01*
X137259815Y-112452539D01*
X137207011Y-112498294D01*
X137155500Y-112509500D01*
X136486014Y-112509500D01*
X136418975Y-112489815D01*
X136373220Y-112437011D01*
X136363276Y-112367853D01*
X136392301Y-112304297D01*
X136438569Y-112270936D01*
X136442250Y-112269411D01*
X136596525Y-112190803D01*
X136643691Y-112156534D01*
X136643692Y-112156533D01*
X136205178Y-111718019D01*
X136212993Y-111715925D01*
X136327007Y-111650099D01*
X136420099Y-111557007D01*
X136485925Y-111442993D01*
X136488019Y-111435177D01*
X136926533Y-111873692D01*
G37*
G04 #@! TD.AperFunction*
G04 #@! TA.AperFunction,Conductor*
G36*
X134239809Y-85770185D02*
G01*
X134260451Y-85786819D01*
X134633181Y-86159548D01*
X134666666Y-86220871D01*
X134669500Y-86247229D01*
X134669500Y-87382870D01*
X134669501Y-87382876D01*
X134675908Y-87442483D01*
X134726202Y-87577328D01*
X134726206Y-87577335D01*
X134812452Y-87692544D01*
X134812455Y-87692547D01*
X134927664Y-87778793D01*
X134927671Y-87778797D01*
X135059082Y-87827810D01*
X135115016Y-87869681D01*
X135139433Y-87935145D01*
X135124582Y-88003418D01*
X135103431Y-88031673D01*
X134989889Y-88145215D01*
X134864951Y-88317179D01*
X134768444Y-88506585D01*
X134702753Y-88708760D01*
X134669500Y-88918713D01*
X134669500Y-89131286D01*
X134702753Y-89341239D01*
X134768444Y-89543414D01*
X134864951Y-89732820D01*
X134989890Y-89904786D01*
X135140213Y-90055109D01*
X135312182Y-90180050D01*
X135320946Y-90184516D01*
X135371742Y-90232491D01*
X135388536Y-90300312D01*
X135365998Y-90366447D01*
X135320946Y-90405484D01*
X135312182Y-90409949D01*
X135140213Y-90534890D01*
X134989890Y-90685213D01*
X134864951Y-90857179D01*
X134768444Y-91046585D01*
X134702753Y-91248760D01*
X134669500Y-91458713D01*
X134669500Y-91671287D01*
X134702754Y-91881243D01*
X134741572Y-92000713D01*
X134768444Y-92083414D01*
X134864951Y-92272820D01*
X134989890Y-92444786D01*
X135140213Y-92595109D01*
X135312182Y-92720050D01*
X135320946Y-92724516D01*
X135371742Y-92772491D01*
X135388536Y-92840312D01*
X135365998Y-92906447D01*
X135320946Y-92945484D01*
X135312182Y-92949949D01*
X135140213Y-93074890D01*
X134989890Y-93225213D01*
X134864951Y-93397179D01*
X134768444Y-93586585D01*
X134702753Y-93788760D01*
X134688585Y-93878213D01*
X134669500Y-93998713D01*
X134669500Y-94211287D01*
X134677174Y-94259737D01*
X134702740Y-94421158D01*
X134702754Y-94421243D01*
X134767045Y-94619110D01*
X134768444Y-94623414D01*
X134864951Y-94812820D01*
X134989890Y-94984786D01*
X135140213Y-95135109D01*
X135312179Y-95260048D01*
X135312181Y-95260049D01*
X135312184Y-95260051D01*
X135501588Y-95356557D01*
X135600715Y-95388765D01*
X135658388Y-95428201D01*
X135685587Y-95492560D01*
X135673673Y-95561406D01*
X135626429Y-95612882D01*
X135600722Y-95624623D01*
X135597744Y-95625590D01*
X135597743Y-95625590D01*
X135443475Y-95704196D01*
X135396307Y-95738463D01*
X135396307Y-95738464D01*
X135834823Y-96176980D01*
X135827007Y-96179075D01*
X135712993Y-96244901D01*
X135619901Y-96337993D01*
X135554075Y-96452007D01*
X135551980Y-96459823D01*
X135113464Y-96021307D01*
X135113463Y-96021307D01*
X135079196Y-96068475D01*
X135000592Y-96222740D01*
X134947085Y-96387415D01*
X134920000Y-96558428D01*
X134920000Y-96731571D01*
X134947085Y-96902584D01*
X135000591Y-97067257D01*
X135079195Y-97221523D01*
X135079196Y-97221525D01*
X135113463Y-97268691D01*
X135113464Y-97268691D01*
X135551980Y-96830176D01*
X135554075Y-96837993D01*
X135619901Y-96952007D01*
X135712993Y-97045099D01*
X135827007Y-97110925D01*
X135834822Y-97113019D01*
X135396307Y-97551534D01*
X135443478Y-97585805D01*
X135597742Y-97664408D01*
X135762415Y-97717914D01*
X135933429Y-97745000D01*
X136106571Y-97745000D01*
X136277584Y-97717914D01*
X136442257Y-97664408D01*
X136596525Y-97585803D01*
X136643691Y-97551534D01*
X136643692Y-97551533D01*
X136205178Y-97113019D01*
X136212993Y-97110925D01*
X136327007Y-97045099D01*
X136420099Y-96952007D01*
X136485925Y-96837993D01*
X136488019Y-96830177D01*
X136926533Y-97268692D01*
X136926534Y-97268691D01*
X136960803Y-97221525D01*
X137039410Y-97067252D01*
X137040934Y-97063573D01*
X137084769Y-97009165D01*
X137151060Y-96987093D01*
X137218762Y-97004364D01*
X137266378Y-97055496D01*
X137279500Y-97111013D01*
X137279500Y-104338059D01*
X137259815Y-104405098D01*
X137207011Y-104450853D01*
X137137853Y-104460797D01*
X137074297Y-104431772D01*
X137067819Y-104425740D01*
X137030292Y-104388213D01*
X137030288Y-104388210D01*
X136899185Y-104300609D01*
X136899172Y-104300602D01*
X136753501Y-104240264D01*
X136753489Y-104240261D01*
X136598845Y-104209500D01*
X136598842Y-104209500D01*
X136441158Y-104209500D01*
X136441155Y-104209500D01*
X136286510Y-104240261D01*
X136286498Y-104240264D01*
X136140827Y-104300602D01*
X136140814Y-104300609D01*
X136009711Y-104388210D01*
X136009707Y-104388213D01*
X135898213Y-104499707D01*
X135898210Y-104499711D01*
X135810609Y-104630814D01*
X135810606Y-104630821D01*
X135787496Y-104686612D01*
X135743654Y-104741015D01*
X135677359Y-104763079D01*
X135625483Y-104753719D01*
X135508501Y-104705264D01*
X135508489Y-104705261D01*
X135353845Y-104674500D01*
X135353842Y-104674500D01*
X135196158Y-104674500D01*
X135196155Y-104674500D01*
X135041510Y-104705261D01*
X135041498Y-104705264D01*
X134895827Y-104765602D01*
X134895814Y-104765609D01*
X134764711Y-104853210D01*
X134764707Y-104853213D01*
X134653213Y-104964707D01*
X134653210Y-104964711D01*
X134565609Y-105095814D01*
X134565602Y-105095827D01*
X134505264Y-105241498D01*
X134505261Y-105241510D01*
X134474500Y-105396153D01*
X134474500Y-105553846D01*
X134505261Y-105708489D01*
X134505264Y-105708501D01*
X134565602Y-105854172D01*
X134565609Y-105854185D01*
X134653210Y-105985288D01*
X134653213Y-105985292D01*
X134764707Y-106096786D01*
X134764711Y-106096789D01*
X134895814Y-106184390D01*
X134895827Y-106184397D01*
X135041498Y-106244735D01*
X135041503Y-106244737D01*
X135196153Y-106275499D01*
X135196156Y-106275500D01*
X135196158Y-106275500D01*
X135353844Y-106275500D01*
X135353845Y-106275499D01*
X135508497Y-106244737D01*
X135654179Y-106184394D01*
X135785289Y-106096789D01*
X135896789Y-105985289D01*
X135984394Y-105854179D01*
X136007502Y-105798388D01*
X136051341Y-105743986D01*
X136117634Y-105721920D01*
X136169515Y-105731280D01*
X136286498Y-105779735D01*
X136286503Y-105779737D01*
X136441153Y-105810499D01*
X136441156Y-105810500D01*
X136441158Y-105810500D01*
X136598844Y-105810500D01*
X136598845Y-105810499D01*
X136753497Y-105779737D01*
X136899179Y-105719394D01*
X137030289Y-105631789D01*
X137030292Y-105631786D01*
X137067819Y-105594260D01*
X137129142Y-105560775D01*
X137198834Y-105565759D01*
X137254767Y-105607631D01*
X137279184Y-105673095D01*
X137279500Y-105681941D01*
X137279500Y-110783986D01*
X137259815Y-110851025D01*
X137207011Y-110896780D01*
X137137853Y-110906724D01*
X137074297Y-110877699D01*
X137040936Y-110831431D01*
X137039411Y-110827749D01*
X136960805Y-110673478D01*
X136926534Y-110626307D01*
X136488019Y-111064822D01*
X136485925Y-111057007D01*
X136420099Y-110942993D01*
X136327007Y-110849901D01*
X136212993Y-110784075D01*
X136205176Y-110781980D01*
X136643691Y-110343464D01*
X136643691Y-110343463D01*
X136596525Y-110309196D01*
X136596523Y-110309195D01*
X136442257Y-110230591D01*
X136277584Y-110177085D01*
X136106571Y-110150000D01*
X135933429Y-110150000D01*
X135762415Y-110177085D01*
X135597740Y-110230592D01*
X135443475Y-110309196D01*
X135396307Y-110343463D01*
X135396307Y-110343464D01*
X135834823Y-110781980D01*
X135827007Y-110784075D01*
X135712993Y-110849901D01*
X135619901Y-110942993D01*
X135554075Y-111057007D01*
X135551980Y-111064823D01*
X135113464Y-110626307D01*
X135113463Y-110626307D01*
X135079196Y-110673475D01*
X135000590Y-110827743D01*
X135000590Y-110827744D01*
X134999623Y-110830722D01*
X134998950Y-110831705D01*
X134998729Y-110832240D01*
X134998616Y-110832193D01*
X134960182Y-110888394D01*
X134895821Y-110915588D01*
X134826976Y-110903668D01*
X134775503Y-110856421D01*
X134763766Y-110830719D01*
X134731557Y-110731588D01*
X134635051Y-110542184D01*
X134510104Y-110370208D01*
X134359792Y-110219896D01*
X134359786Y-110219890D01*
X134187820Y-110094951D01*
X133998414Y-109998444D01*
X133998413Y-109998443D01*
X133998412Y-109998443D01*
X133796243Y-109932754D01*
X133796241Y-109932753D01*
X133796240Y-109932753D01*
X133634957Y-109907208D01*
X133586287Y-109899500D01*
X133373713Y-109899500D01*
X133318100Y-109908308D01*
X133260622Y-109917411D01*
X133260611Y-109917413D01*
X133163757Y-109932754D01*
X133038652Y-109973403D01*
X133038645Y-109973405D01*
X132961585Y-109998444D01*
X132772179Y-110094951D01*
X132600213Y-110219890D01*
X132449890Y-110370213D01*
X132324949Y-110542182D01*
X132320484Y-110550946D01*
X132272509Y-110601742D01*
X132204688Y-110618536D01*
X132138553Y-110595998D01*
X132099516Y-110550946D01*
X132095050Y-110542182D01*
X131970109Y-110370213D01*
X131819786Y-110219890D01*
X131647820Y-110094951D01*
X131458414Y-109998444D01*
X131458413Y-109998443D01*
X131458412Y-109998443D01*
X131256243Y-109932754D01*
X131256241Y-109932753D01*
X131256240Y-109932753D01*
X131094957Y-109907208D01*
X131046287Y-109899500D01*
X130833713Y-109899500D01*
X130785042Y-109907208D01*
X130623760Y-109932753D01*
X130421585Y-109998444D01*
X130232179Y-110094951D01*
X130060213Y-110219890D01*
X129909890Y-110370213D01*
X129784949Y-110542182D01*
X129780484Y-110550946D01*
X129732509Y-110601742D01*
X129664688Y-110618536D01*
X129598553Y-110595998D01*
X129559516Y-110550946D01*
X129555050Y-110542182D01*
X129430109Y-110370213D01*
X129279786Y-110219890D01*
X129107820Y-110094951D01*
X128918414Y-109998444D01*
X128918413Y-109998443D01*
X128918412Y-109998443D01*
X128899907Y-109992430D01*
X128842232Y-109952994D01*
X128815034Y-109888635D01*
X128826949Y-109819789D01*
X128874193Y-109768313D01*
X128938226Y-109750500D01*
X129146286Y-109750500D01*
X129146287Y-109750500D01*
X129356243Y-109717246D01*
X129558412Y-109651557D01*
X129747816Y-109555051D01*
X129834138Y-109492335D01*
X129919786Y-109430109D01*
X129919788Y-109430106D01*
X129919792Y-109430104D01*
X130070104Y-109279792D01*
X130070106Y-109279788D01*
X130070109Y-109279786D01*
X130195048Y-109107820D01*
X130195047Y-109107820D01*
X130195051Y-109107816D01*
X130282754Y-108935686D01*
X130302072Y-108915233D01*
X130318929Y-108892716D01*
X130325736Y-108890176D01*
X130330728Y-108884892D01*
X130358039Y-108878128D01*
X130384394Y-108868299D01*
X130391495Y-108869843D01*
X130398549Y-108868097D01*
X130425176Y-108877170D01*
X130452666Y-108883151D01*
X130460972Y-108889369D01*
X130464684Y-108890634D01*
X130480914Y-108904296D01*
X130585458Y-109008840D01*
X130585459Y-109008841D01*
X130653043Y-109053999D01*
X130749326Y-109118333D01*
X130855985Y-109162512D01*
X130931404Y-109193752D01*
X131124694Y-109232200D01*
X131124697Y-109232201D01*
X131124699Y-109232201D01*
X131321780Y-109232201D01*
X131632138Y-109232201D01*
X131699177Y-109251886D01*
X131725725Y-109276947D01*
X131726732Y-109276087D01*
X131729898Y-109279794D01*
X131880213Y-109430109D01*
X132052179Y-109555048D01*
X132052181Y-109555049D01*
X132052184Y-109555051D01*
X132241588Y-109651557D01*
X132443757Y-109717246D01*
X132653713Y-109750500D01*
X132653714Y-109750500D01*
X132866286Y-109750500D01*
X132866287Y-109750500D01*
X133076243Y-109717246D01*
X133278412Y-109651557D01*
X133467816Y-109555051D01*
X133639792Y-109430104D01*
X133753329Y-109316566D01*
X133814648Y-109283084D01*
X133884340Y-109288068D01*
X133940274Y-109329939D01*
X133957189Y-109360917D01*
X134006202Y-109492328D01*
X134006206Y-109492335D01*
X134092452Y-109607544D01*
X134092455Y-109607547D01*
X134207664Y-109693793D01*
X134207671Y-109693797D01*
X134342517Y-109744091D01*
X134342516Y-109744091D01*
X134349444Y-109744835D01*
X134402127Y-109750500D01*
X136197872Y-109750499D01*
X136257483Y-109744091D01*
X136392331Y-109693796D01*
X136507546Y-109607546D01*
X136593796Y-109492331D01*
X136644091Y-109357483D01*
X136650500Y-109297873D01*
X136650499Y-107502128D01*
X136644091Y-107442517D01*
X136642810Y-107439083D01*
X136593797Y-107307671D01*
X136593793Y-107307664D01*
X136507547Y-107192455D01*
X136507544Y-107192452D01*
X136392335Y-107106206D01*
X136392328Y-107106202D01*
X136257482Y-107055908D01*
X136257483Y-107055908D01*
X136197883Y-107049501D01*
X136197881Y-107049500D01*
X136197873Y-107049500D01*
X136197864Y-107049500D01*
X134402129Y-107049500D01*
X134402123Y-107049501D01*
X134342516Y-107055908D01*
X134207671Y-107106202D01*
X134207664Y-107106206D01*
X134092455Y-107192452D01*
X134092452Y-107192455D01*
X134006206Y-107307664D01*
X134006203Y-107307669D01*
X133957189Y-107439083D01*
X133915317Y-107495016D01*
X133849853Y-107519433D01*
X133781580Y-107504581D01*
X133753326Y-107483430D01*
X133639786Y-107369890D01*
X133467820Y-107244951D01*
X133278414Y-107148444D01*
X133278413Y-107148443D01*
X133278412Y-107148443D01*
X133076243Y-107082754D01*
X133076241Y-107082753D01*
X133076240Y-107082753D01*
X132914957Y-107057208D01*
X132866287Y-107049500D01*
X132653713Y-107049500D01*
X132605042Y-107057208D01*
X132443760Y-107082753D01*
X132241585Y-107148444D01*
X132105691Y-107217686D01*
X132049396Y-107231201D01*
X131689023Y-107231201D01*
X131621984Y-107211516D01*
X131601342Y-107194882D01*
X129486819Y-105080359D01*
X129453334Y-105019036D01*
X129450500Y-104992678D01*
X129450500Y-104724995D01*
X129450499Y-104724982D01*
X129448484Y-104705263D01*
X129439999Y-104622202D01*
X129384814Y-104455665D01*
X129292712Y-104306344D01*
X129168656Y-104182288D01*
X129168652Y-104182285D01*
X129101847Y-104141079D01*
X129055122Y-104089131D01*
X129043901Y-104020169D01*
X129045323Y-104011369D01*
X129075570Y-103859312D01*
X129075570Y-103740518D01*
X134164822Y-103740518D01*
X134284176Y-103772500D01*
X134415824Y-103772500D01*
X134535175Y-103740518D01*
X134350000Y-103555342D01*
X134164822Y-103740518D01*
X129075570Y-103740518D01*
X129075570Y-103701628D01*
X129062413Y-103635488D01*
X129062113Y-103633697D01*
X129066054Y-103600779D01*
X129069009Y-103567757D01*
X129070191Y-103566235D01*
X129070420Y-103564323D01*
X129091541Y-103538750D01*
X129111872Y-103512579D01*
X129114887Y-103510484D01*
X129114914Y-103510453D01*
X129114950Y-103510441D01*
X129115459Y-103510088D01*
X129195264Y-103456764D01*
X129306764Y-103345264D01*
X129394369Y-103214154D01*
X129397467Y-103206674D01*
X133850000Y-103206674D01*
X133850000Y-103338323D01*
X133881980Y-103457674D01*
X134067156Y-103272499D01*
X134047266Y-103252609D01*
X134250000Y-103252609D01*
X134250000Y-103292391D01*
X134265224Y-103329145D01*
X134293355Y-103357276D01*
X134330109Y-103372500D01*
X134369891Y-103372500D01*
X134406645Y-103357276D01*
X134434776Y-103329145D01*
X134450000Y-103292391D01*
X134450000Y-103272499D01*
X134632842Y-103272499D01*
X134818018Y-103457675D01*
X134850000Y-103338324D01*
X134850000Y-103206675D01*
X134818018Y-103087322D01*
X134632842Y-103272499D01*
X134450000Y-103272499D01*
X134450000Y-103252609D01*
X134434776Y-103215855D01*
X134406645Y-103187724D01*
X134369891Y-103172500D01*
X134330109Y-103172500D01*
X134293355Y-103187724D01*
X134265224Y-103215855D01*
X134250000Y-103252609D01*
X134047266Y-103252609D01*
X133881979Y-103087322D01*
X133850000Y-103206674D01*
X129397467Y-103206674D01*
X129454712Y-103068472D01*
X129485475Y-102913817D01*
X129485475Y-102804479D01*
X134164822Y-102804479D01*
X134349999Y-102989656D01*
X134535174Y-102804480D01*
X134415823Y-102772500D01*
X134284174Y-102772500D01*
X134164822Y-102804479D01*
X129485475Y-102804479D01*
X129485475Y-102756133D01*
X129485475Y-102756130D01*
X129485474Y-102756128D01*
X129480732Y-102732288D01*
X129454712Y-102601478D01*
X129443538Y-102574501D01*
X129394372Y-102455802D01*
X129394365Y-102455789D01*
X129306764Y-102324686D01*
X129306761Y-102324682D01*
X129195267Y-102213188D01*
X129195263Y-102213185D01*
X129064160Y-102125584D01*
X129064147Y-102125577D01*
X128918476Y-102065239D01*
X128918464Y-102065236D01*
X128763820Y-102034475D01*
X128763817Y-102034475D01*
X128606133Y-102034475D01*
X128606130Y-102034475D01*
X128448690Y-102065792D01*
X128427706Y-102063914D01*
X128406852Y-102066913D01*
X128393604Y-102060862D01*
X128379099Y-102059565D01*
X128362460Y-102046640D01*
X128343296Y-102037888D01*
X128335422Y-102025636D01*
X128323921Y-102016702D01*
X128316911Y-101996833D01*
X128305522Y-101979110D01*
X128301987Y-101954526D01*
X128300677Y-101950812D01*
X128300499Y-101944175D01*
X128300499Y-101749500D01*
X128320184Y-101682461D01*
X128372988Y-101636706D01*
X128424499Y-101625500D01*
X128750005Y-101625500D01*
X128750010Y-101625500D01*
X128852798Y-101614999D01*
X129019335Y-101559814D01*
X129168656Y-101467712D01*
X129292712Y-101343656D01*
X129384814Y-101194335D01*
X129439999Y-101027798D01*
X129450500Y-100925010D01*
X129450500Y-100890746D01*
X129470185Y-100823707D01*
X129486819Y-100803065D01*
X130694439Y-99595446D01*
X133625207Y-99595446D01*
X133625207Y-99753139D01*
X133655968Y-99907782D01*
X133655971Y-99907794D01*
X133716309Y-100053465D01*
X133716316Y-100053478D01*
X133803917Y-100184581D01*
X133803920Y-100184585D01*
X133915414Y-100296079D01*
X133915418Y-100296082D01*
X134046521Y-100383683D01*
X134046534Y-100383690D01*
X134116765Y-100412780D01*
X134192210Y-100444030D01*
X134225804Y-100450712D01*
X134287713Y-100483096D01*
X134322288Y-100543811D01*
X134323229Y-100548137D01*
X134330261Y-100583491D01*
X134330264Y-100583501D01*
X134390602Y-100729172D01*
X134390609Y-100729185D01*
X134478210Y-100860288D01*
X134478213Y-100860292D01*
X134589707Y-100971786D01*
X134589711Y-100971789D01*
X134720814Y-101059390D01*
X134720827Y-101059397D01*
X134866498Y-101119735D01*
X134866503Y-101119737D01*
X135021153Y-101150499D01*
X135021156Y-101150500D01*
X135021158Y-101150500D01*
X135178844Y-101150500D01*
X135178845Y-101150499D01*
X135333497Y-101119737D01*
X135479179Y-101059394D01*
X135610289Y-100971789D01*
X135721789Y-100860289D01*
X135809394Y-100729179D01*
X135869737Y-100583497D01*
X135900500Y-100428842D01*
X135900500Y-100271158D01*
X135900500Y-100271155D01*
X135900499Y-100271153D01*
X135899620Y-100266734D01*
X135869737Y-100116503D01*
X135852906Y-100075868D01*
X135809397Y-99970827D01*
X135809390Y-99970814D01*
X135721789Y-99839711D01*
X135721786Y-99839707D01*
X135610292Y-99728213D01*
X135610288Y-99728210D01*
X135479185Y-99640609D01*
X135479172Y-99640602D01*
X135333501Y-99580264D01*
X135333491Y-99580261D01*
X135299902Y-99573580D01*
X135237991Y-99541195D01*
X135203417Y-99480479D01*
X135202484Y-99476189D01*
X135195444Y-99440796D01*
X135177519Y-99397521D01*
X135135104Y-99295120D01*
X135135097Y-99295107D01*
X135047496Y-99164004D01*
X135047493Y-99164000D01*
X134935999Y-99052506D01*
X134935995Y-99052503D01*
X134804892Y-98964902D01*
X134804879Y-98964895D01*
X134659208Y-98904557D01*
X134659196Y-98904554D01*
X134504552Y-98873793D01*
X134504549Y-98873793D01*
X134346865Y-98873793D01*
X134346862Y-98873793D01*
X134192217Y-98904554D01*
X134192205Y-98904557D01*
X134046534Y-98964895D01*
X134046521Y-98964902D01*
X133915418Y-99052503D01*
X133915414Y-99052506D01*
X133803920Y-99164000D01*
X133803917Y-99164004D01*
X133716316Y-99295107D01*
X133716309Y-99295120D01*
X133655971Y-99440791D01*
X133655968Y-99440803D01*
X133625207Y-99595446D01*
X130694439Y-99595446D01*
X130788207Y-99501678D01*
X131045238Y-99244646D01*
X131045261Y-99244623D01*
X131057770Y-99231661D01*
X131063802Y-99225183D01*
X131075883Y-99211735D01*
X131153670Y-99090695D01*
X131182441Y-99027693D01*
X131182660Y-99027259D01*
X131182695Y-99027138D01*
X131182697Y-99027136D01*
X131223231Y-98889083D01*
X131223230Y-98868822D01*
X131242912Y-98801785D01*
X131295715Y-98756028D01*
X131364873Y-98746083D01*
X131428430Y-98775105D01*
X131434911Y-98781140D01*
X131476142Y-98822371D01*
X131503022Y-98862600D01*
X131562816Y-99006958D01*
X131562823Y-99006971D01*
X131650424Y-99138074D01*
X131650427Y-99138078D01*
X131761921Y-99249572D01*
X131761925Y-99249575D01*
X131893028Y-99337176D01*
X131893041Y-99337183D01*
X132038712Y-99397521D01*
X132038717Y-99397523D01*
X132193367Y-99428285D01*
X132193370Y-99428286D01*
X132193372Y-99428286D01*
X132351058Y-99428286D01*
X132351059Y-99428285D01*
X132505711Y-99397523D01*
X132651393Y-99337180D01*
X132782503Y-99249575D01*
X132894003Y-99138075D01*
X132981608Y-99006965D01*
X133041951Y-98861283D01*
X133072714Y-98706628D01*
X133072714Y-98548944D01*
X133072714Y-98548941D01*
X133072713Y-98548939D01*
X133041952Y-98394296D01*
X133041951Y-98394289D01*
X133025953Y-98355665D01*
X132981611Y-98248613D01*
X132981604Y-98248600D01*
X132894003Y-98117497D01*
X132894000Y-98117493D01*
X132782506Y-98005999D01*
X132782502Y-98005996D01*
X132651399Y-97918395D01*
X132651386Y-97918388D01*
X132507028Y-97858594D01*
X132466799Y-97831714D01*
X132227043Y-97591957D01*
X132065973Y-97430887D01*
X131951235Y-97354222D01*
X131823760Y-97301421D01*
X131823750Y-97301418D01*
X131688424Y-97274500D01*
X131688422Y-97274500D01*
X131688421Y-97274500D01*
X125125316Y-97274500D01*
X125077864Y-97265061D01*
X124933501Y-97205264D01*
X124933489Y-97205261D01*
X124778845Y-97174500D01*
X124778842Y-97174500D01*
X124621158Y-97174500D01*
X124621153Y-97174500D01*
X124490186Y-97200551D01*
X124420594Y-97194324D01*
X124365417Y-97151461D01*
X124342173Y-97085571D01*
X124348064Y-97040615D01*
X124392914Y-96902584D01*
X124420000Y-96731571D01*
X124420000Y-96558428D01*
X124392914Y-96387415D01*
X124339408Y-96222742D01*
X124260805Y-96068478D01*
X124226534Y-96021307D01*
X123788019Y-96459821D01*
X123785925Y-96452007D01*
X123720099Y-96337993D01*
X123627007Y-96244901D01*
X123512993Y-96179075D01*
X123505176Y-96176980D01*
X123943691Y-95738464D01*
X123943691Y-95738463D01*
X123896525Y-95704196D01*
X123896523Y-95704195D01*
X123742256Y-95625591D01*
X123739282Y-95624625D01*
X123738296Y-95623951D01*
X123737760Y-95623729D01*
X123737806Y-95623616D01*
X123717285Y-95609582D01*
X123693416Y-95597735D01*
X123688889Y-95590164D01*
X123681608Y-95585185D01*
X123671235Y-95560639D01*
X123657560Y-95537767D01*
X123657845Y-95528950D01*
X123654412Y-95520826D01*
X123658956Y-95494567D01*
X123659818Y-95467934D01*
X123664823Y-95460672D01*
X123666328Y-95451980D01*
X123684348Y-95432346D01*
X123692064Y-95421153D01*
X127674500Y-95421153D01*
X127674500Y-95578846D01*
X127705261Y-95733489D01*
X127705264Y-95733501D01*
X127765602Y-95879172D01*
X127765609Y-95879185D01*
X127853210Y-96010288D01*
X127853213Y-96010292D01*
X127964707Y-96121786D01*
X127964711Y-96121789D01*
X128095814Y-96209390D01*
X128095827Y-96209397D01*
X128202047Y-96253394D01*
X128241503Y-96269737D01*
X128352320Y-96291780D01*
X128396153Y-96300499D01*
X128396156Y-96300500D01*
X128396158Y-96300500D01*
X128553844Y-96300500D01*
X128553845Y-96300499D01*
X128708497Y-96269737D01*
X128854179Y-96209394D01*
X128925418Y-96161793D01*
X128992094Y-96140916D01*
X129045821Y-96152102D01*
X129052312Y-96155066D01*
X129052313Y-96155067D01*
X129183190Y-96214838D01*
X129250229Y-96234523D01*
X129250233Y-96234524D01*
X129392649Y-96255000D01*
X129392652Y-96255000D01*
X130325157Y-96255000D01*
X130343139Y-96254679D01*
X130343149Y-96254678D01*
X130343184Y-96254678D01*
X130352030Y-96254362D01*
X130370047Y-96253396D01*
X130510639Y-96222812D01*
X130576103Y-96198395D01*
X130702378Y-96129444D01*
X130804118Y-96027707D01*
X130845990Y-95971774D01*
X130845996Y-95971766D01*
X130914949Y-95845485D01*
X130945532Y-95704893D01*
X130950516Y-95635201D01*
X130949759Y-95624623D01*
X130943547Y-95537767D01*
X130940252Y-95491690D01*
X130889970Y-95356881D01*
X130856485Y-95295558D01*
X130770261Y-95180377D01*
X130770256Y-95180372D01*
X130770251Y-95180366D01*
X130318776Y-94728892D01*
X130318761Y-94728877D01*
X130318737Y-94728855D01*
X130278519Y-94692728D01*
X130278507Y-94692718D01*
X130257856Y-94676076D01*
X130213974Y-94644433D01*
X130083100Y-94584663D01*
X130016055Y-94564976D01*
X129968582Y-94558150D01*
X129873638Y-94544500D01*
X129340638Y-94544500D01*
X129340621Y-94544500D01*
X129277626Y-94548442D01*
X129246982Y-94552292D01*
X129246976Y-94552293D01*
X129246969Y-94552294D01*
X129202922Y-94560647D01*
X129184967Y-94564052D01*
X129052035Y-94619111D01*
X128991948Y-94654761D01*
X128988012Y-94657819D01*
X128986773Y-94658933D01*
X128891115Y-94736015D01*
X128826563Y-94762751D01*
X128765860Y-94754023D01*
X128759807Y-94751515D01*
X128708497Y-94730263D01*
X128708493Y-94730262D01*
X128708488Y-94730260D01*
X128553845Y-94699500D01*
X128553842Y-94699500D01*
X128396158Y-94699500D01*
X128396155Y-94699500D01*
X128241510Y-94730261D01*
X128241498Y-94730264D01*
X128095827Y-94790602D01*
X128095814Y-94790609D01*
X127964711Y-94878210D01*
X127964707Y-94878213D01*
X127853213Y-94989707D01*
X127853210Y-94989711D01*
X127765609Y-95120814D01*
X127765602Y-95120827D01*
X127705264Y-95266498D01*
X127705261Y-95266510D01*
X127674500Y-95421153D01*
X123692064Y-95421153D01*
X123699472Y-95410407D01*
X123709479Y-95404967D01*
X123713574Y-95400506D01*
X123729764Y-95392295D01*
X123734438Y-95390340D01*
X123838412Y-95356557D01*
X124027816Y-95260051D01*
X124137494Y-95180366D01*
X124199786Y-95135109D01*
X124199788Y-95135106D01*
X124199792Y-95135104D01*
X124350104Y-94984792D01*
X124350106Y-94984788D01*
X124350109Y-94984786D01*
X124475048Y-94812820D01*
X124475047Y-94812820D01*
X124475051Y-94812816D01*
X124571557Y-94623412D01*
X124637246Y-94421243D01*
X124637260Y-94421153D01*
X131624500Y-94421153D01*
X131624500Y-94578846D01*
X131655261Y-94733489D01*
X131655264Y-94733501D01*
X131715602Y-94879172D01*
X131715609Y-94879185D01*
X131803210Y-95010288D01*
X131803213Y-95010292D01*
X131914707Y-95121786D01*
X131914711Y-95121789D01*
X132045814Y-95209390D01*
X132045827Y-95209397D01*
X132183683Y-95266498D01*
X132191503Y-95269737D01*
X132321313Y-95295558D01*
X132346153Y-95300499D01*
X132346156Y-95300500D01*
X132346158Y-95300500D01*
X132503844Y-95300500D01*
X132503845Y-95300499D01*
X132658497Y-95269737D01*
X132804179Y-95209394D01*
X132935289Y-95121789D01*
X133046789Y-95010289D01*
X133134394Y-94879179D01*
X133194737Y-94733497D01*
X133225500Y-94578842D01*
X133225500Y-94421158D01*
X133225500Y-94421155D01*
X133225499Y-94421153D01*
X133194738Y-94266510D01*
X133194737Y-94266503D01*
X133191935Y-94259738D01*
X133134397Y-94120827D01*
X133134390Y-94120814D01*
X133046789Y-93989711D01*
X133046786Y-93989707D01*
X132935292Y-93878213D01*
X132935288Y-93878210D01*
X132804185Y-93790609D01*
X132804172Y-93790602D01*
X132658501Y-93730264D01*
X132658489Y-93730261D01*
X132503845Y-93699500D01*
X132503842Y-93699500D01*
X132346158Y-93699500D01*
X132346155Y-93699500D01*
X132191510Y-93730261D01*
X132191498Y-93730264D01*
X132045827Y-93790602D01*
X132045814Y-93790609D01*
X131914711Y-93878210D01*
X131914707Y-93878213D01*
X131803213Y-93989707D01*
X131803210Y-93989711D01*
X131715609Y-94120814D01*
X131715602Y-94120827D01*
X131655264Y-94266498D01*
X131655261Y-94266510D01*
X131624500Y-94421153D01*
X124637260Y-94421153D01*
X124645817Y-94367122D01*
X124675746Y-94303989D01*
X124735058Y-94267058D01*
X124792481Y-94264905D01*
X124921153Y-94290499D01*
X124921156Y-94290500D01*
X124921158Y-94290500D01*
X125078844Y-94290500D01*
X125078845Y-94290499D01*
X125233497Y-94259737D01*
X125379179Y-94199394D01*
X125510289Y-94111789D01*
X125621789Y-94000289D01*
X125709394Y-93869179D01*
X125769737Y-93723497D01*
X125800500Y-93568842D01*
X125800500Y-93411158D01*
X125800500Y-93411155D01*
X125800499Y-93411153D01*
X125797719Y-93397179D01*
X125769737Y-93256503D01*
X125756778Y-93225216D01*
X125709397Y-93110827D01*
X125709390Y-93110814D01*
X125621789Y-92979711D01*
X125621786Y-92979707D01*
X125510292Y-92868213D01*
X125510288Y-92868210D01*
X125379185Y-92780609D01*
X125379172Y-92780602D01*
X125233501Y-92720264D01*
X125233489Y-92720261D01*
X125078845Y-92689500D01*
X125078842Y-92689500D01*
X124921158Y-92689500D01*
X124921155Y-92689500D01*
X124766510Y-92720261D01*
X124766498Y-92720264D01*
X124620827Y-92780602D01*
X124620814Y-92780609D01*
X124489711Y-92868210D01*
X124489707Y-92868213D01*
X124378213Y-92979707D01*
X124378210Y-92979711D01*
X124348737Y-93023821D01*
X124340620Y-93030604D01*
X124335822Y-93040032D01*
X124314271Y-93052623D01*
X124295124Y-93068626D01*
X124284629Y-93069944D01*
X124275496Y-93075281D01*
X124250560Y-93074222D01*
X124225799Y-93077333D01*
X124214408Y-93072688D01*
X124205689Y-93072319D01*
X124176883Y-93057390D01*
X124174234Y-93056310D01*
X124173462Y-93055766D01*
X124027816Y-92949949D01*
X124011175Y-92941470D01*
X124003948Y-92936380D01*
X123987490Y-92915674D01*
X123968259Y-92897512D01*
X123966088Y-92888749D01*
X123960473Y-92881684D01*
X123957821Y-92855366D01*
X123951463Y-92829692D01*
X123954373Y-92821149D01*
X123953469Y-92812167D01*
X123965467Y-92788592D01*
X123973999Y-92763556D01*
X123981533Y-92757027D01*
X123985162Y-92749898D01*
X123999284Y-92741646D01*
X124019054Y-92724515D01*
X124027816Y-92720051D01*
X124069866Y-92689500D01*
X124199786Y-92595109D01*
X124199788Y-92595106D01*
X124199792Y-92595104D01*
X124251243Y-92543653D01*
X127844746Y-92543653D01*
X127844746Y-92701346D01*
X127875507Y-92855989D01*
X127875510Y-92856001D01*
X127935848Y-93001672D01*
X127935855Y-93001685D01*
X128023456Y-93132788D01*
X128023459Y-93132792D01*
X128134953Y-93244286D01*
X128134957Y-93244289D01*
X128266060Y-93331890D01*
X128266073Y-93331897D01*
X128411744Y-93392235D01*
X128411749Y-93392237D01*
X128506846Y-93411153D01*
X128566399Y-93422999D01*
X128566402Y-93423000D01*
X128566404Y-93423000D01*
X128724090Y-93423000D01*
X128724091Y-93422999D01*
X128878743Y-93392237D01*
X129024425Y-93331894D01*
X129155535Y-93244289D01*
X129267035Y-93132789D01*
X129354640Y-93001679D01*
X129414983Y-92855997D01*
X129445746Y-92701342D01*
X129445746Y-92543658D01*
X129445746Y-92543655D01*
X129445745Y-92543653D01*
X129424690Y-92437804D01*
X129414983Y-92389003D01*
X129366859Y-92272820D01*
X129354643Y-92243327D01*
X129354636Y-92243314D01*
X129267035Y-92112211D01*
X129267032Y-92112207D01*
X129155538Y-92000713D01*
X129155534Y-92000710D01*
X129024431Y-91913109D01*
X129024418Y-91913102D01*
X128878747Y-91852764D01*
X128878735Y-91852761D01*
X128724091Y-91822000D01*
X128724088Y-91822000D01*
X128566404Y-91822000D01*
X128566401Y-91822000D01*
X128411756Y-91852761D01*
X128411744Y-91852764D01*
X128266073Y-91913102D01*
X128266060Y-91913109D01*
X128134957Y-92000710D01*
X128134953Y-92000713D01*
X128023459Y-92112207D01*
X128023456Y-92112211D01*
X127935855Y-92243314D01*
X127935848Y-92243327D01*
X127875510Y-92388998D01*
X127875507Y-92389010D01*
X127844746Y-92543653D01*
X124251243Y-92543653D01*
X124350104Y-92444792D01*
X124350106Y-92444788D01*
X124350109Y-92444786D01*
X124475048Y-92272820D01*
X124475047Y-92272820D01*
X124475051Y-92272816D01*
X124571557Y-92083412D01*
X124637246Y-91881243D01*
X124670500Y-91671287D01*
X124670500Y-91458713D01*
X124637246Y-91248757D01*
X124571557Y-91046588D01*
X124475051Y-90857184D01*
X124475049Y-90857181D01*
X124475048Y-90857179D01*
X124460560Y-90837238D01*
X128956143Y-90837238D01*
X128956143Y-90994931D01*
X128986904Y-91149574D01*
X128986907Y-91149586D01*
X129047245Y-91295257D01*
X129047252Y-91295270D01*
X129134853Y-91426373D01*
X129134856Y-91426377D01*
X129246350Y-91537871D01*
X129246354Y-91537874D01*
X129377457Y-91625475D01*
X129377470Y-91625482D01*
X129488055Y-91671287D01*
X129523146Y-91685822D01*
X129641630Y-91709390D01*
X129677796Y-91716584D01*
X129677799Y-91716585D01*
X129677801Y-91716585D01*
X129835487Y-91716585D01*
X129835488Y-91716584D01*
X129990140Y-91685822D01*
X130135822Y-91625479D01*
X130266932Y-91537874D01*
X130378432Y-91426374D01*
X130466037Y-91295264D01*
X130526380Y-91149582D01*
X130557143Y-90994927D01*
X130557143Y-90921153D01*
X130874500Y-90921153D01*
X130874500Y-91078846D01*
X130905261Y-91233489D01*
X130905264Y-91233501D01*
X130965602Y-91379172D01*
X130965609Y-91379185D01*
X131053210Y-91510288D01*
X131053213Y-91510292D01*
X131164707Y-91621786D01*
X131164711Y-91621789D01*
X131295814Y-91709390D01*
X131295827Y-91709397D01*
X131441498Y-91769735D01*
X131441503Y-91769737D01*
X131596153Y-91800499D01*
X131596156Y-91800500D01*
X131596158Y-91800500D01*
X131753844Y-91800500D01*
X131753845Y-91800499D01*
X131908497Y-91769737D01*
X132054179Y-91709394D01*
X132185289Y-91621789D01*
X132296789Y-91510289D01*
X132384394Y-91379179D01*
X132444737Y-91233497D01*
X132475500Y-91078842D01*
X132475500Y-90921158D01*
X132475500Y-90921155D01*
X132475499Y-90921153D01*
X132458808Y-90837243D01*
X132444737Y-90766503D01*
X132444735Y-90766498D01*
X132384397Y-90620827D01*
X132384390Y-90620814D01*
X132296789Y-90489711D01*
X132296786Y-90489707D01*
X132185292Y-90378213D01*
X132185288Y-90378210D01*
X132054185Y-90290609D01*
X132054172Y-90290602D01*
X131908501Y-90230264D01*
X131908489Y-90230261D01*
X131753845Y-90199500D01*
X131753842Y-90199500D01*
X131596158Y-90199500D01*
X131596155Y-90199500D01*
X131441510Y-90230261D01*
X131441498Y-90230264D01*
X131295827Y-90290602D01*
X131295814Y-90290609D01*
X131164711Y-90378210D01*
X131164707Y-90378213D01*
X131053213Y-90489707D01*
X131053210Y-90489711D01*
X130965609Y-90620814D01*
X130965602Y-90620827D01*
X130905264Y-90766498D01*
X130905261Y-90766510D01*
X130874500Y-90921153D01*
X130557143Y-90921153D01*
X130557143Y-90837243D01*
X130557143Y-90837240D01*
X130557142Y-90837238D01*
X130532434Y-90713023D01*
X130526380Y-90682588D01*
X130500798Y-90620827D01*
X130466040Y-90536912D01*
X130466033Y-90536899D01*
X130378432Y-90405796D01*
X130378429Y-90405792D01*
X130266935Y-90294298D01*
X130266931Y-90294295D01*
X130135828Y-90206694D01*
X130135815Y-90206687D01*
X129990144Y-90146349D01*
X129990132Y-90146346D01*
X129835488Y-90115585D01*
X129835485Y-90115585D01*
X129677801Y-90115585D01*
X129677798Y-90115585D01*
X129523153Y-90146346D01*
X129523141Y-90146349D01*
X129377470Y-90206687D01*
X129377457Y-90206694D01*
X129246354Y-90294295D01*
X129246350Y-90294298D01*
X129134856Y-90405792D01*
X129134853Y-90405796D01*
X129047252Y-90536899D01*
X129047245Y-90536912D01*
X128986907Y-90682583D01*
X128986904Y-90682595D01*
X128956143Y-90837238D01*
X124460560Y-90837238D01*
X124350109Y-90685213D01*
X124199786Y-90534890D01*
X124027820Y-90409951D01*
X124027115Y-90409591D01*
X124019054Y-90405485D01*
X123968259Y-90357512D01*
X123951463Y-90289692D01*
X123973999Y-90223556D01*
X124019054Y-90184515D01*
X124027816Y-90180051D01*
X124074207Y-90146346D01*
X124199786Y-90055109D01*
X124199788Y-90055106D01*
X124199792Y-90055104D01*
X124350104Y-89904792D01*
X124350106Y-89904788D01*
X124350109Y-89904786D01*
X124475048Y-89732820D01*
X124475047Y-89732820D01*
X124475051Y-89732816D01*
X124571557Y-89543412D01*
X124637246Y-89341243D01*
X124670500Y-89131287D01*
X124670500Y-88918713D01*
X124637246Y-88708757D01*
X124571557Y-88506588D01*
X124475051Y-88317184D01*
X124475049Y-88317181D01*
X124475048Y-88317179D01*
X124350109Y-88145213D01*
X124236569Y-88031673D01*
X124203084Y-87970350D01*
X124208068Y-87900658D01*
X124249940Y-87844725D01*
X124280915Y-87827810D01*
X124412331Y-87778796D01*
X124527546Y-87692546D01*
X124613796Y-87577331D01*
X124664091Y-87442483D01*
X124670500Y-87382873D01*
X124670499Y-87014107D01*
X128601593Y-87014107D01*
X128601593Y-87171800D01*
X128632354Y-87326443D01*
X128632357Y-87326455D01*
X128692695Y-87472126D01*
X128692702Y-87472139D01*
X128780303Y-87603242D01*
X128780306Y-87603246D01*
X128825796Y-87648735D01*
X128859282Y-87710058D01*
X128854298Y-87779749D01*
X128825799Y-87824097D01*
X128801441Y-87848455D01*
X128713840Y-87979558D01*
X128713833Y-87979571D01*
X128653495Y-88125242D01*
X128653492Y-88125254D01*
X128622731Y-88279897D01*
X128622731Y-88437590D01*
X128653492Y-88592233D01*
X128653495Y-88592245D01*
X128713833Y-88737916D01*
X128713840Y-88737929D01*
X128801441Y-88869032D01*
X128801444Y-88869036D01*
X128912938Y-88980530D01*
X128912942Y-88980533D01*
X129044045Y-89068134D01*
X129044058Y-89068141D01*
X129189729Y-89128479D01*
X129189734Y-89128481D01*
X129344384Y-89159243D01*
X129344387Y-89159244D01*
X129344389Y-89159244D01*
X129502075Y-89159244D01*
X129502076Y-89159243D01*
X129656728Y-89128481D01*
X129802410Y-89068138D01*
X129933520Y-88980533D01*
X130045020Y-88869033D01*
X130132625Y-88737923D01*
X130192968Y-88592241D01*
X130223731Y-88437586D01*
X130223731Y-88279902D01*
X130223731Y-88279899D01*
X130223730Y-88279897D01*
X130196940Y-88145215D01*
X130192968Y-88125247D01*
X130154209Y-88031673D01*
X130132628Y-87979571D01*
X130132621Y-87979558D01*
X130045020Y-87848455D01*
X130045017Y-87848451D01*
X129999527Y-87802962D01*
X129966041Y-87741639D01*
X129971025Y-87671948D01*
X129999525Y-87627599D01*
X130023882Y-87603243D01*
X130111487Y-87472133D01*
X130171830Y-87326451D01*
X130202593Y-87171796D01*
X130202593Y-87014112D01*
X130202593Y-87014109D01*
X130202592Y-87014107D01*
X130171831Y-86859464D01*
X130171830Y-86859457D01*
X130171828Y-86859452D01*
X130111490Y-86713781D01*
X130111483Y-86713768D01*
X130023882Y-86582665D01*
X130023879Y-86582661D01*
X129912385Y-86471167D01*
X129912381Y-86471164D01*
X129781278Y-86383563D01*
X129781265Y-86383556D01*
X129635594Y-86323218D01*
X129635582Y-86323215D01*
X129480938Y-86292454D01*
X129480935Y-86292454D01*
X129323251Y-86292454D01*
X129323248Y-86292454D01*
X129168603Y-86323215D01*
X129168591Y-86323218D01*
X129022920Y-86383556D01*
X129022907Y-86383563D01*
X128891804Y-86471164D01*
X128891800Y-86471167D01*
X128780306Y-86582661D01*
X128780303Y-86582665D01*
X128692702Y-86713768D01*
X128692695Y-86713781D01*
X128632357Y-86859452D01*
X128632354Y-86859464D01*
X128601593Y-87014107D01*
X124670499Y-87014107D01*
X124670499Y-86713781D01*
X124670499Y-86247229D01*
X124690183Y-86180190D01*
X124706813Y-86159553D01*
X125079548Y-85786819D01*
X125140871Y-85753334D01*
X125167229Y-85750500D01*
X134172770Y-85750500D01*
X134239809Y-85770185D01*
G37*
G04 #@! TD.AperFunction*
G04 #@! TA.AperFunction,Conductor*
G36*
X126056522Y-106251103D02*
G01*
X126076915Y-106264209D01*
X126081339Y-106267707D01*
X126081344Y-106267712D01*
X126230665Y-106359814D01*
X126397202Y-106414999D01*
X126499990Y-106425500D01*
X126500500Y-106425500D01*
X126500605Y-106425531D01*
X126503138Y-106425660D01*
X126503129Y-106425820D01*
X126503131Y-106425821D01*
X126503128Y-106425844D01*
X126503107Y-106426265D01*
X126509185Y-106428050D01*
X126518147Y-106426762D01*
X126542187Y-106437740D01*
X126567539Y-106445185D01*
X126573466Y-106452025D01*
X126581703Y-106455787D01*
X126595992Y-106478021D01*
X126613294Y-106497989D01*
X126615581Y-106508503D01*
X126619477Y-106514565D01*
X126624500Y-106549500D01*
X126624500Y-106769218D01*
X126604815Y-106836257D01*
X126588185Y-106856894D01*
X126424420Y-107020660D01*
X126363097Y-107054144D01*
X126356137Y-107055451D01*
X126183760Y-107082753D01*
X125981585Y-107148444D01*
X125792179Y-107244951D01*
X125620215Y-107369889D01*
X125506673Y-107483431D01*
X125445350Y-107516915D01*
X125375658Y-107511931D01*
X125319725Y-107470059D01*
X125302810Y-107439082D01*
X125253797Y-107307671D01*
X125253793Y-107307664D01*
X125167547Y-107192455D01*
X125167544Y-107192452D01*
X125052335Y-107106206D01*
X125052328Y-107106202D01*
X124917482Y-107055908D01*
X124917483Y-107055908D01*
X124857883Y-107049501D01*
X124857881Y-107049500D01*
X124857873Y-107049500D01*
X124857864Y-107049500D01*
X123062129Y-107049500D01*
X123062123Y-107049501D01*
X123002516Y-107055908D01*
X122867671Y-107106202D01*
X122867664Y-107106206D01*
X122752455Y-107192452D01*
X122752452Y-107192455D01*
X122666206Y-107307664D01*
X122666202Y-107307671D01*
X122615908Y-107442517D01*
X122609501Y-107502116D01*
X122609501Y-107502123D01*
X122609500Y-107502135D01*
X122609500Y-109297870D01*
X122609501Y-109297876D01*
X122615908Y-109357483D01*
X122666202Y-109492328D01*
X122666206Y-109492335D01*
X122752452Y-109607544D01*
X122752455Y-109607547D01*
X122867664Y-109693793D01*
X122867671Y-109693797D01*
X122876275Y-109697006D01*
X123002517Y-109744091D01*
X123062127Y-109750500D01*
X123784216Y-109750499D01*
X123813662Y-109759145D01*
X123843643Y-109765667D01*
X123848656Y-109769420D01*
X123851255Y-109770183D01*
X123871896Y-109786816D01*
X124023400Y-109938320D01*
X124056884Y-109999642D01*
X124051900Y-110069333D01*
X124010029Y-110125267D01*
X123944564Y-110149684D01*
X123935718Y-110150000D01*
X123520000Y-110150000D01*
X123520000Y-110788120D01*
X123512993Y-110784075D01*
X123385826Y-110750000D01*
X123254174Y-110750000D01*
X123127007Y-110784075D01*
X123120000Y-110788120D01*
X123120000Y-110150000D01*
X122445373Y-110150000D01*
X122372459Y-110164503D01*
X122372455Y-110164505D01*
X122289760Y-110219760D01*
X122287602Y-110222990D01*
X122233989Y-110267795D01*
X122164664Y-110276502D01*
X122101637Y-110246347D01*
X122064918Y-110186904D01*
X122060500Y-110154099D01*
X122060500Y-106446189D01*
X122080185Y-106379150D01*
X122132989Y-106333395D01*
X122202147Y-106323451D01*
X122249595Y-106340649D01*
X122280665Y-106359814D01*
X122447202Y-106414999D01*
X122549990Y-106425500D01*
X122549995Y-106425500D01*
X125500005Y-106425500D01*
X125500010Y-106425500D01*
X125602798Y-106414999D01*
X125769335Y-106359814D01*
X125918656Y-106267712D01*
X125918664Y-106267703D01*
X125923085Y-106264209D01*
X125987879Y-106238066D01*
X126056522Y-106251103D01*
G37*
G04 #@! TD.AperFunction*
G04 #@! TA.AperFunction,Conductor*
G36*
X122854075Y-96837993D02*
G01*
X122919901Y-96952007D01*
X123012993Y-97045099D01*
X123127007Y-97110925D01*
X123134821Y-97113019D01*
X122696307Y-97551534D01*
X122743478Y-97585805D01*
X122897744Y-97664408D01*
X122953635Y-97682569D01*
X123011311Y-97722007D01*
X123038509Y-97786365D01*
X123026594Y-97855212D01*
X122979350Y-97906687D01*
X122915317Y-97924500D01*
X122549982Y-97924500D01*
X122447203Y-97935000D01*
X122447202Y-97935001D01*
X122392209Y-97953224D01*
X122280667Y-97990185D01*
X122280658Y-97990189D01*
X122249596Y-98009349D01*
X122182203Y-98027789D01*
X122115540Y-98006866D01*
X122070771Y-97953224D01*
X122060500Y-97903810D01*
X122060500Y-97111013D01*
X122080185Y-97043974D01*
X122132989Y-96998219D01*
X122202147Y-96988275D01*
X122265703Y-97017300D01*
X122299066Y-97063573D01*
X122300589Y-97067252D01*
X122379195Y-97221523D01*
X122379196Y-97221525D01*
X122413463Y-97268691D01*
X122413464Y-97268691D01*
X122851980Y-96830176D01*
X122854075Y-96837993D01*
G37*
G04 #@! TD.AperFunction*
G04 #@! TA.AperFunction,Conductor*
G36*
X122265703Y-94956976D02*
G01*
X122284819Y-94977804D01*
X122289896Y-94984792D01*
X122440213Y-95135109D01*
X122612179Y-95260048D01*
X122612181Y-95260049D01*
X122612184Y-95260051D01*
X122801588Y-95356557D01*
X122900715Y-95388765D01*
X122958388Y-95428201D01*
X122985587Y-95492560D01*
X122973673Y-95561406D01*
X122926429Y-95612882D01*
X122900722Y-95624623D01*
X122897744Y-95625590D01*
X122897743Y-95625590D01*
X122743475Y-95704196D01*
X122696307Y-95738463D01*
X122696307Y-95738464D01*
X123134823Y-96176980D01*
X123127007Y-96179075D01*
X123012993Y-96244901D01*
X122919901Y-96337993D01*
X122854075Y-96452007D01*
X122851980Y-96459823D01*
X122413464Y-96021307D01*
X122413463Y-96021307D01*
X122379196Y-96068475D01*
X122300590Y-96222744D01*
X122299064Y-96226431D01*
X122255227Y-96280837D01*
X122188934Y-96302907D01*
X122121234Y-96285632D01*
X122073620Y-96234498D01*
X122060500Y-96178986D01*
X122060500Y-95050689D01*
X122080185Y-94983650D01*
X122132989Y-94937895D01*
X122202147Y-94927951D01*
X122265703Y-94956976D01*
G37*
G04 #@! TD.AperFunction*
G04 #@! TA.AperFunction,Conductor*
G36*
X137241920Y-94961764D02*
G01*
X137276277Y-95022603D01*
X137279500Y-95050689D01*
X137279500Y-96178986D01*
X137259815Y-96246025D01*
X137207011Y-96291780D01*
X137137853Y-96301724D01*
X137074297Y-96272699D01*
X137040936Y-96226431D01*
X137039411Y-96222749D01*
X136960805Y-96068478D01*
X136926534Y-96021307D01*
X136488019Y-96459822D01*
X136485925Y-96452007D01*
X136420099Y-96337993D01*
X136327007Y-96244901D01*
X136212993Y-96179075D01*
X136205176Y-96176980D01*
X136643691Y-95738464D01*
X136643691Y-95738463D01*
X136596525Y-95704196D01*
X136596523Y-95704195D01*
X136442256Y-95625591D01*
X136439282Y-95624625D01*
X136438296Y-95623951D01*
X136437760Y-95623729D01*
X136437806Y-95623616D01*
X136381608Y-95585185D01*
X136354412Y-95520826D01*
X136366328Y-95451980D01*
X136413574Y-95400506D01*
X136439280Y-95388766D01*
X136538412Y-95356557D01*
X136727816Y-95260051D01*
X136797540Y-95209394D01*
X136899786Y-95135109D01*
X136899788Y-95135106D01*
X136899792Y-95135104D01*
X137050104Y-94984792D01*
X137055181Y-94977803D01*
X137110511Y-94935138D01*
X137180124Y-94929159D01*
X137241920Y-94961764D01*
G37*
G04 #@! TD.AperFunction*
G04 #@! TA.AperFunction,Conductor*
G36*
X123392268Y-66755185D02*
G01*
X123438023Y-66807989D01*
X123447967Y-66877147D01*
X123418942Y-66940703D01*
X123381524Y-66969985D01*
X123226191Y-67049130D01*
X123135338Y-67115139D01*
X123066951Y-67164826D01*
X123066949Y-67164828D01*
X123066948Y-67164828D01*
X122927771Y-67304005D01*
X122927771Y-67304006D01*
X122927769Y-67304008D01*
X122878082Y-67372395D01*
X122812073Y-67463248D01*
X122722714Y-67638624D01*
X122661887Y-67825827D01*
X122631097Y-68020231D01*
X122631097Y-68217076D01*
X122661887Y-68411480D01*
X122722714Y-68598683D01*
X122812073Y-68774059D01*
X122927769Y-68933300D01*
X123066951Y-69072482D01*
X123117278Y-69109047D01*
X123132563Y-69120152D01*
X123175228Y-69175483D01*
X123181207Y-69245096D01*
X123148601Y-69306891D01*
X123132563Y-69320787D01*
X123082239Y-69357350D01*
X123082230Y-69357357D01*
X122943053Y-69496534D01*
X122943053Y-69496535D01*
X122943051Y-69496537D01*
X122906735Y-69546522D01*
X122827355Y-69655777D01*
X122737996Y-69831153D01*
X122677169Y-70018356D01*
X122646379Y-70212760D01*
X122646379Y-70409605D01*
X122677169Y-70604009D01*
X122737996Y-70791212D01*
X122823312Y-70958653D01*
X122827355Y-70966588D01*
X122943051Y-71125829D01*
X123082233Y-71265011D01*
X123241474Y-71380707D01*
X123312085Y-71416685D01*
X123416849Y-71470065D01*
X123416851Y-71470065D01*
X123416854Y-71470067D01*
X123517196Y-71502670D01*
X123604052Y-71530892D01*
X123798457Y-71561683D01*
X123798462Y-71561683D01*
X123995301Y-71561683D01*
X124189705Y-71530892D01*
X124376904Y-71470067D01*
X124552284Y-71380707D01*
X124711525Y-71265011D01*
X124850707Y-71125829D01*
X124966403Y-70966588D01*
X125055763Y-70791208D01*
X125116588Y-70604009D01*
X125147379Y-70409605D01*
X125147379Y-70212760D01*
X125116588Y-70018356D01*
X125055761Y-69831153D01*
X124966402Y-69655777D01*
X124850707Y-69496537D01*
X124711525Y-69357355D01*
X124706773Y-69353902D01*
X124645912Y-69309683D01*
X124603246Y-69254353D01*
X124597268Y-69184740D01*
X124629875Y-69122945D01*
X124645904Y-69109055D01*
X124696243Y-69072482D01*
X124835425Y-68933300D01*
X124951121Y-68774059D01*
X125040481Y-68598679D01*
X125101306Y-68411480D01*
X125132097Y-68217076D01*
X125132097Y-68020231D01*
X125101306Y-67825827D01*
X125040479Y-67638624D01*
X124951120Y-67463248D01*
X124835425Y-67304008D01*
X124696243Y-67164826D01*
X124537002Y-67049130D01*
X124381669Y-66969984D01*
X124330874Y-66922011D01*
X124314079Y-66854190D01*
X124336616Y-66788055D01*
X124391331Y-66744603D01*
X124437965Y-66735500D01*
X126351000Y-66735500D01*
X126418039Y-66755185D01*
X126463794Y-66807989D01*
X126475000Y-66859500D01*
X126475000Y-69125000D01*
X128475000Y-69125000D01*
X128475000Y-66859500D01*
X128494685Y-66792461D01*
X128547489Y-66746706D01*
X128599000Y-66735500D01*
X134851000Y-66735500D01*
X134918039Y-66755185D01*
X134963794Y-66807989D01*
X134975000Y-66859500D01*
X134975000Y-69125000D01*
X136975000Y-69125000D01*
X136975000Y-66859500D01*
X136977550Y-66850814D01*
X136976262Y-66841853D01*
X136987240Y-66817812D01*
X136994685Y-66792461D01*
X137001525Y-66786533D01*
X137005287Y-66778297D01*
X137027521Y-66764007D01*
X137047489Y-66746706D01*
X137058003Y-66744418D01*
X137064065Y-66740523D01*
X137099000Y-66735500D01*
X137165425Y-66735500D01*
X137232464Y-66755185D01*
X137278219Y-66807989D01*
X137289424Y-66859566D01*
X137283727Y-77031789D01*
X137279512Y-84557318D01*
X137279500Y-84557401D01*
X137279500Y-84580841D01*
X137279484Y-84608916D01*
X137279500Y-84608995D01*
X137279500Y-85074960D01*
X137259815Y-85141999D01*
X137207011Y-85187754D01*
X137137853Y-85197698D01*
X137112167Y-85191142D01*
X136977482Y-85140908D01*
X136977483Y-85140908D01*
X136917883Y-85134501D01*
X136917881Y-85134500D01*
X136917873Y-85134500D01*
X136917865Y-85134500D01*
X135782230Y-85134500D01*
X135715191Y-85114815D01*
X135694549Y-85098181D01*
X135013421Y-84417052D01*
X135013414Y-84417046D01*
X134939729Y-84367812D01*
X134939729Y-84367813D01*
X134890491Y-84334913D01*
X134753917Y-84278343D01*
X134753907Y-84278340D01*
X134608920Y-84249500D01*
X134608918Y-84249500D01*
X128715043Y-84249500D01*
X128648004Y-84229815D01*
X128602249Y-84177011D01*
X128592305Y-84107853D01*
X128621330Y-84044297D01*
X128642158Y-84025181D01*
X128669792Y-84005104D01*
X128820104Y-83854792D01*
X128820106Y-83854788D01*
X128820109Y-83854786D01*
X128945048Y-83682820D01*
X128945047Y-83682820D01*
X128945051Y-83682816D01*
X129041557Y-83493412D01*
X129107246Y-83291243D01*
X129140500Y-83081287D01*
X129140500Y-82868713D01*
X129107246Y-82658757D01*
X129041557Y-82456588D01*
X129023502Y-82421153D01*
X133199500Y-82421153D01*
X133199500Y-82578846D01*
X133230261Y-82733489D01*
X133230264Y-82733501D01*
X133290602Y-82879172D01*
X133290609Y-82879185D01*
X133378210Y-83010288D01*
X133378213Y-83010292D01*
X133489707Y-83121786D01*
X133489711Y-83121789D01*
X133620814Y-83209390D01*
X133620827Y-83209397D01*
X133766498Y-83269735D01*
X133766503Y-83269737D01*
X133921153Y-83300499D01*
X133921156Y-83300500D01*
X133921158Y-83300500D01*
X134078844Y-83300500D01*
X134078845Y-83300499D01*
X134233497Y-83269737D01*
X134379179Y-83209394D01*
X134510289Y-83121789D01*
X134621789Y-83010289D01*
X134709394Y-82879179D01*
X134769737Y-82733497D01*
X134800500Y-82578842D01*
X134800500Y-82424500D01*
X134820185Y-82357461D01*
X134872989Y-82311706D01*
X134924500Y-82300500D01*
X135078844Y-82300500D01*
X135078845Y-82300499D01*
X135233497Y-82269737D01*
X135379179Y-82209394D01*
X135510289Y-82121789D01*
X135621789Y-82010289D01*
X135709394Y-81879179D01*
X135769737Y-81733497D01*
X135800500Y-81578842D01*
X135800500Y-81421158D01*
X135800500Y-81421155D01*
X135800499Y-81421153D01*
X135769738Y-81266510D01*
X135769737Y-81266503D01*
X135709794Y-81121786D01*
X135709397Y-81120827D01*
X135709390Y-81120814D01*
X135621789Y-80989711D01*
X135621786Y-80989707D01*
X135510292Y-80878213D01*
X135510288Y-80878210D01*
X135379185Y-80790609D01*
X135379172Y-80790602D01*
X135233501Y-80730264D01*
X135233489Y-80730261D01*
X135078845Y-80699500D01*
X135078842Y-80699500D01*
X134921158Y-80699500D01*
X134921155Y-80699500D01*
X134766510Y-80730261D01*
X134766498Y-80730264D01*
X134620827Y-80790602D01*
X134620814Y-80790609D01*
X134489711Y-80878210D01*
X134489707Y-80878213D01*
X134378213Y-80989707D01*
X134378210Y-80989711D01*
X134290609Y-81120814D01*
X134290602Y-81120827D01*
X134230264Y-81266498D01*
X134230261Y-81266510D01*
X134199500Y-81421153D01*
X134199500Y-81575500D01*
X134179815Y-81642539D01*
X134127011Y-81688294D01*
X134075500Y-81699500D01*
X133921155Y-81699500D01*
X133766510Y-81730261D01*
X133766498Y-81730264D01*
X133620827Y-81790602D01*
X133620814Y-81790609D01*
X133489711Y-81878210D01*
X133489707Y-81878213D01*
X133378213Y-81989707D01*
X133378210Y-81989711D01*
X133290609Y-82120814D01*
X133290602Y-82120827D01*
X133230264Y-82266498D01*
X133230261Y-82266510D01*
X133199500Y-82421153D01*
X129023502Y-82421153D01*
X128945051Y-82267184D01*
X128945049Y-82267181D01*
X128945048Y-82267179D01*
X128820109Y-82095213D01*
X128669786Y-81944890D01*
X128497820Y-81819951D01*
X128308414Y-81723444D01*
X128308413Y-81723443D01*
X128308412Y-81723443D01*
X128106243Y-81657754D01*
X128106241Y-81657753D01*
X128106240Y-81657753D01*
X127944957Y-81632208D01*
X127896287Y-81624500D01*
X127683713Y-81624500D01*
X127635042Y-81632208D01*
X127473760Y-81657753D01*
X127271585Y-81723444D01*
X127082179Y-81819951D01*
X126910215Y-81944889D01*
X126796673Y-82058431D01*
X126735350Y-82091915D01*
X126665658Y-82086931D01*
X126609725Y-82045059D01*
X126592810Y-82014082D01*
X126543797Y-81882671D01*
X126543793Y-81882664D01*
X126457547Y-81767455D01*
X126457544Y-81767452D01*
X126342335Y-81681206D01*
X126342328Y-81681202D01*
X126207482Y-81630908D01*
X126207483Y-81630908D01*
X126147883Y-81624501D01*
X126147881Y-81624500D01*
X126147873Y-81624500D01*
X126147864Y-81624500D01*
X124352129Y-81624500D01*
X124352123Y-81624501D01*
X124292516Y-81630908D01*
X124157671Y-81681202D01*
X124157664Y-81681206D01*
X124042455Y-81767452D01*
X124042452Y-81767455D01*
X123956206Y-81882664D01*
X123956202Y-81882671D01*
X123905908Y-82017517D01*
X123899501Y-82077116D01*
X123899500Y-82077135D01*
X123899500Y-83872870D01*
X123899501Y-83872876D01*
X123905908Y-83932483D01*
X123956202Y-84067328D01*
X123956206Y-84067335D01*
X124042452Y-84182544D01*
X124042455Y-84182547D01*
X124157664Y-84268793D01*
X124157673Y-84268798D01*
X124207892Y-84287528D01*
X124263826Y-84329398D01*
X124288244Y-84394862D01*
X124273393Y-84463135D01*
X124252241Y-84491391D01*
X123645451Y-85098181D01*
X123584128Y-85131666D01*
X123557770Y-85134500D01*
X122422129Y-85134500D01*
X122422123Y-85134501D01*
X122362516Y-85140908D01*
X122227833Y-85191142D01*
X122158141Y-85196126D01*
X122096818Y-85162641D01*
X122063334Y-85101317D01*
X122060500Y-85074960D01*
X122060500Y-80421153D01*
X131199500Y-80421153D01*
X131199500Y-80578846D01*
X131230261Y-80733489D01*
X131230264Y-80733501D01*
X131290602Y-80879172D01*
X131290609Y-80879185D01*
X131378210Y-81010288D01*
X131378213Y-81010292D01*
X131489707Y-81121786D01*
X131489711Y-81121789D01*
X131620814Y-81209390D01*
X131620827Y-81209397D01*
X131758683Y-81266498D01*
X131766503Y-81269737D01*
X131921153Y-81300499D01*
X131921156Y-81300500D01*
X131921158Y-81300500D01*
X132078844Y-81300500D01*
X132078845Y-81300499D01*
X132233497Y-81269737D01*
X132379179Y-81209394D01*
X132510289Y-81121789D01*
X132621789Y-81010289D01*
X132709394Y-80879179D01*
X132769737Y-80733497D01*
X132800500Y-80578842D01*
X132800500Y-80421158D01*
X132800500Y-80421155D01*
X132800499Y-80421153D01*
X132769738Y-80266510D01*
X132769737Y-80266503D01*
X132769735Y-80266498D01*
X132709397Y-80120827D01*
X132709390Y-80120814D01*
X132621789Y-79989711D01*
X132621786Y-79989707D01*
X132510292Y-79878213D01*
X132510288Y-79878210D01*
X132379185Y-79790609D01*
X132379172Y-79790602D01*
X132233501Y-79730264D01*
X132233489Y-79730261D01*
X132078845Y-79699500D01*
X132078842Y-79699500D01*
X131921158Y-79699500D01*
X131921155Y-79699500D01*
X131766510Y-79730261D01*
X131766498Y-79730264D01*
X131620827Y-79790602D01*
X131620814Y-79790609D01*
X131489711Y-79878210D01*
X131489707Y-79878213D01*
X131378213Y-79989707D01*
X131378210Y-79989711D01*
X131290609Y-80120814D01*
X131290602Y-80120827D01*
X131230264Y-80266498D01*
X131230261Y-80266510D01*
X131199500Y-80421153D01*
X122060500Y-80421153D01*
X122060500Y-77895177D01*
X123392899Y-77895177D01*
X123392899Y-78087286D01*
X123422952Y-78277034D01*
X123482315Y-78459738D01*
X123482317Y-78459741D01*
X123569534Y-78630913D01*
X123682454Y-78786334D01*
X123818297Y-78922177D01*
X123973718Y-79035097D01*
X124144890Y-79122314D01*
X124144892Y-79122315D01*
X124236244Y-79151996D01*
X124327598Y-79181679D01*
X124517344Y-79211732D01*
X124517345Y-79211732D01*
X124709453Y-79211732D01*
X124709454Y-79211732D01*
X124899200Y-79181679D01*
X125081908Y-79122314D01*
X125253080Y-79035097D01*
X125408501Y-78922177D01*
X125544344Y-78786334D01*
X125657264Y-78630913D01*
X125744481Y-78459741D01*
X125744483Y-78459736D01*
X125765468Y-78395151D01*
X125804905Y-78337475D01*
X125869263Y-78310276D01*
X125938110Y-78322190D01*
X125989586Y-78369434D01*
X126001330Y-78395151D01*
X126022314Y-78459736D01*
X126022317Y-78459741D01*
X126109534Y-78630913D01*
X126222454Y-78786334D01*
X126358297Y-78922177D01*
X126513718Y-79035097D01*
X126684890Y-79122314D01*
X126684892Y-79122315D01*
X126776244Y-79151996D01*
X126867598Y-79181679D01*
X127057344Y-79211732D01*
X127057345Y-79211732D01*
X127249453Y-79211732D01*
X127249454Y-79211732D01*
X127439200Y-79181679D01*
X127621908Y-79122314D01*
X127793080Y-79035097D01*
X127948501Y-78922177D01*
X128084344Y-78786334D01*
X128197264Y-78630913D01*
X128284481Y-78459741D01*
X128284483Y-78459736D01*
X128305468Y-78395151D01*
X128344905Y-78337475D01*
X128409263Y-78310276D01*
X128478110Y-78322190D01*
X128529586Y-78369434D01*
X128541330Y-78395151D01*
X128562314Y-78459736D01*
X128562317Y-78459741D01*
X128649534Y-78630913D01*
X128762454Y-78786334D01*
X128898297Y-78922177D01*
X129053718Y-79035097D01*
X129224890Y-79122314D01*
X129224892Y-79122315D01*
X129316244Y-79151996D01*
X129407598Y-79181679D01*
X129597344Y-79211732D01*
X129597345Y-79211732D01*
X129789453Y-79211732D01*
X129789454Y-79211732D01*
X129979200Y-79181679D01*
X130161908Y-79122314D01*
X130333080Y-79035097D01*
X130488501Y-78922177D01*
X130624344Y-78786334D01*
X130737264Y-78630913D01*
X130824481Y-78459741D01*
X130883846Y-78277033D01*
X130913899Y-78087287D01*
X130913899Y-77895177D01*
X130883846Y-77705431D01*
X130853823Y-77613029D01*
X130824482Y-77522725D01*
X130737263Y-77351550D01*
X130624344Y-77196130D01*
X130488501Y-77060287D01*
X130333080Y-76947367D01*
X130161905Y-76860148D01*
X129979201Y-76800785D01*
X129884327Y-76785758D01*
X129789454Y-76770732D01*
X129597344Y-76770732D01*
X129551216Y-76778038D01*
X129407596Y-76800785D01*
X129224892Y-76860148D01*
X129053717Y-76947367D01*
X128965044Y-77011792D01*
X128898297Y-77060287D01*
X128898295Y-77060289D01*
X128898294Y-77060289D01*
X128762456Y-77196127D01*
X128762456Y-77196128D01*
X128762454Y-77196130D01*
X128752014Y-77210500D01*
X128649534Y-77351550D01*
X128562315Y-77522725D01*
X128541330Y-77587313D01*
X128501893Y-77644988D01*
X128437534Y-77672187D01*
X128368688Y-77660273D01*
X128317212Y-77613029D01*
X128305468Y-77587313D01*
X128284482Y-77522725D01*
X128197263Y-77351550D01*
X128084344Y-77196130D01*
X127948501Y-77060287D01*
X127793080Y-76947367D01*
X127621905Y-76860148D01*
X127439201Y-76800785D01*
X127344327Y-76785758D01*
X127249454Y-76770732D01*
X127057344Y-76770732D01*
X127019394Y-76776742D01*
X126867594Y-76800785D01*
X126739764Y-76842319D01*
X126669923Y-76844314D01*
X126610090Y-76808233D01*
X126579263Y-76745532D01*
X126586885Y-76676937D01*
X126600737Y-76643497D01*
X126631500Y-76488842D01*
X126631500Y-76331158D01*
X126631500Y-76331155D01*
X126631499Y-76331153D01*
X126600738Y-76176510D01*
X126600737Y-76176503D01*
X126600735Y-76176498D01*
X126540397Y-76030827D01*
X126540390Y-76030814D01*
X126452789Y-75899711D01*
X126452786Y-75899707D01*
X126341292Y-75788213D01*
X126341288Y-75788210D01*
X126210185Y-75700609D01*
X126210172Y-75700602D01*
X126064501Y-75640264D01*
X126064489Y-75640261D01*
X125909845Y-75609500D01*
X125909842Y-75609500D01*
X125752158Y-75609500D01*
X125752155Y-75609500D01*
X125597510Y-75640261D01*
X125597498Y-75640264D01*
X125451827Y-75700602D01*
X125451814Y-75700609D01*
X125320711Y-75788210D01*
X125320707Y-75788213D01*
X125209213Y-75899707D01*
X125209210Y-75899711D01*
X125121609Y-76030814D01*
X125121602Y-76030827D01*
X125061264Y-76176498D01*
X125061261Y-76176510D01*
X125030500Y-76331153D01*
X125030500Y-76488846D01*
X125061261Y-76643493D01*
X125062950Y-76649059D01*
X125063573Y-76718926D01*
X125026324Y-76778038D01*
X124963030Y-76807629D01*
X124905978Y-76802986D01*
X124899204Y-76800785D01*
X124747403Y-76776742D01*
X124709454Y-76770732D01*
X124517344Y-76770732D01*
X124471216Y-76778038D01*
X124327596Y-76800785D01*
X124144892Y-76860148D01*
X123973717Y-76947367D01*
X123885044Y-77011792D01*
X123818297Y-77060287D01*
X123818295Y-77060289D01*
X123818294Y-77060289D01*
X123682456Y-77196127D01*
X123682456Y-77196128D01*
X123682454Y-77196130D01*
X123672014Y-77210500D01*
X123569534Y-77351550D01*
X123482315Y-77522725D01*
X123422952Y-77705429D01*
X123392899Y-77895177D01*
X122060500Y-77895177D01*
X122060500Y-71889628D01*
X126475000Y-71889628D01*
X126489503Y-71962540D01*
X126489505Y-71962544D01*
X126544760Y-72045239D01*
X126627455Y-72100494D01*
X126627459Y-72100496D01*
X126700371Y-72114999D01*
X126700374Y-72115000D01*
X127275000Y-72115000D01*
X127675000Y-72115000D01*
X128249626Y-72115000D01*
X128249628Y-72114999D01*
X128322540Y-72100496D01*
X128322544Y-72100494D01*
X128405239Y-72045239D01*
X128460494Y-71962544D01*
X128460496Y-71962540D01*
X128474999Y-71889628D01*
X134975000Y-71889628D01*
X134989503Y-71962540D01*
X134989505Y-71962544D01*
X135044760Y-72045239D01*
X135127455Y-72100494D01*
X135127459Y-72100496D01*
X135200371Y-72114999D01*
X135200374Y-72115000D01*
X135775000Y-72115000D01*
X136175000Y-72115000D01*
X136749626Y-72115000D01*
X136749628Y-72114999D01*
X136822540Y-72100496D01*
X136822544Y-72100494D01*
X136905239Y-72045239D01*
X136960494Y-71962544D01*
X136960496Y-71962540D01*
X136974999Y-71889628D01*
X136975000Y-71889626D01*
X136975000Y-69525000D01*
X136175000Y-69525000D01*
X136175000Y-72115000D01*
X135775000Y-72115000D01*
X135775000Y-69525000D01*
X134975000Y-69525000D01*
X134975000Y-71889628D01*
X128474999Y-71889628D01*
X128475000Y-71889626D01*
X128475000Y-70958653D01*
X132162000Y-70958653D01*
X132162000Y-71116346D01*
X132192761Y-71270989D01*
X132192764Y-71271001D01*
X132253102Y-71416672D01*
X132253109Y-71416685D01*
X132340710Y-71547788D01*
X132340713Y-71547792D01*
X132452207Y-71659286D01*
X132452211Y-71659289D01*
X132583314Y-71746890D01*
X132583327Y-71746897D01*
X132728998Y-71807235D01*
X132729003Y-71807237D01*
X132883653Y-71837999D01*
X132883656Y-71838000D01*
X132883658Y-71838000D01*
X133041344Y-71838000D01*
X133041345Y-71837999D01*
X133195997Y-71807237D01*
X133341679Y-71746894D01*
X133472789Y-71659289D01*
X133584289Y-71547789D01*
X133671894Y-71416679D01*
X133732237Y-71270997D01*
X133763000Y-71116342D01*
X133763000Y-70958658D01*
X133763000Y-70958655D01*
X133762999Y-70958653D01*
X133732238Y-70804010D01*
X133732237Y-70804003D01*
X133726937Y-70791208D01*
X133671897Y-70658327D01*
X133671890Y-70658314D01*
X133584289Y-70527211D01*
X133584286Y-70527207D01*
X133472792Y-70415713D01*
X133472788Y-70415710D01*
X133341685Y-70328109D01*
X133341672Y-70328102D01*
X133196001Y-70267764D01*
X133195989Y-70267761D01*
X133041345Y-70237000D01*
X133041342Y-70237000D01*
X132883658Y-70237000D01*
X132883655Y-70237000D01*
X132729010Y-70267761D01*
X132728998Y-70267764D01*
X132583327Y-70328102D01*
X132583314Y-70328109D01*
X132452211Y-70415710D01*
X132452207Y-70415713D01*
X132340713Y-70527207D01*
X132340710Y-70527211D01*
X132253109Y-70658314D01*
X132253102Y-70658327D01*
X132192764Y-70803998D01*
X132192761Y-70804010D01*
X132162000Y-70958653D01*
X128475000Y-70958653D01*
X128475000Y-69525000D01*
X127675000Y-69525000D01*
X127675000Y-72115000D01*
X127275000Y-72115000D01*
X127275000Y-69525000D01*
X126475000Y-69525000D01*
X126475000Y-71889628D01*
X122060500Y-71889628D01*
X122060500Y-66859500D01*
X122080185Y-66792461D01*
X122132989Y-66746706D01*
X122184500Y-66735500D01*
X123325229Y-66735500D01*
X123392268Y-66755185D01*
G37*
G04 #@! TD.AperFunction*
G04 #@! TA.AperFunction,Conductor*
G36*
X124267892Y-98649028D02*
G01*
X124320812Y-98684389D01*
X124320827Y-98684397D01*
X124466498Y-98744735D01*
X124466503Y-98744737D01*
X124621153Y-98775499D01*
X124621156Y-98775500D01*
X124621158Y-98775500D01*
X124778844Y-98775500D01*
X124778845Y-98775499D01*
X124933497Y-98744737D01*
X125044105Y-98698922D01*
X125077864Y-98684939D01*
X125125316Y-98675500D01*
X127412324Y-98675500D01*
X127479363Y-98695185D01*
X127525118Y-98747989D01*
X127535062Y-98817147D01*
X127533941Y-98823691D01*
X127524500Y-98871153D01*
X127524500Y-99028846D01*
X127555261Y-99183489D01*
X127555264Y-99183501D01*
X127615602Y-99329172D01*
X127615609Y-99329185D01*
X127703210Y-99460288D01*
X127703213Y-99460292D01*
X127814707Y-99571786D01*
X127814711Y-99571789D01*
X127945814Y-99659390D01*
X127945827Y-99659397D01*
X128091498Y-99719735D01*
X128091503Y-99719737D01*
X128246153Y-99750499D01*
X128246156Y-99750500D01*
X128246158Y-99750500D01*
X128403844Y-99750500D01*
X128403845Y-99750499D01*
X128558497Y-99719737D01*
X128704179Y-99659394D01*
X128835289Y-99571789D01*
X128946789Y-99460289D01*
X129034394Y-99329179D01*
X129094737Y-99183497D01*
X129125500Y-99028842D01*
X129125500Y-98871158D01*
X129125500Y-98871155D01*
X129125499Y-98871153D01*
X129116059Y-98823691D01*
X129122286Y-98754099D01*
X129165149Y-98698922D01*
X129231039Y-98675678D01*
X129237676Y-98675500D01*
X130600138Y-98675500D01*
X130667177Y-98695185D01*
X130712932Y-98747989D01*
X130722876Y-98817147D01*
X130693851Y-98880703D01*
X130687819Y-98887181D01*
X128986319Y-100588681D01*
X128924996Y-100622166D01*
X128898638Y-100625000D01*
X124945112Y-100625000D01*
X124878073Y-100605315D01*
X124857431Y-100588681D01*
X124111319Y-99842569D01*
X124077834Y-99781246D01*
X124075000Y-99754888D01*
X124075000Y-98752129D01*
X124094685Y-98685090D01*
X124147489Y-98639335D01*
X124216647Y-98629391D01*
X124267892Y-98649028D01*
G37*
G04 #@! TD.AperFunction*
M02*
