G04 #@! TF.GenerationSoftware,KiCad,Pcbnew,9.0.6*
G04 #@! TF.CreationDate,2026-01-10T17:13:08+00:00*
G04 #@! TF.ProjectId,CurrentSource,43757272-656e-4745-936f-757263652e6b,rev?*
G04 #@! TF.SameCoordinates,Original*
G04 #@! TF.FileFunction,Copper,L2,Inr*
G04 #@! TF.FilePolarity,Positive*
%FSLAX46Y46*%
G04 Gerber Fmt 4.6, Leading zero omitted, Abs format (unit mm)*
G04 Created by KiCad (PCBNEW 9.0.6) date 2026-01-10 17:13:08*
%MOMM*%
%LPD*%
G01*
G04 APERTURE LIST*
G04 #@! TA.AperFunction,ComponentPad*
%ADD10C,1.700000*%
G04 #@! TD*
G04 #@! TA.AperFunction,ComponentPad*
%ADD11R,1.700000X1.700000*%
G04 #@! TD*
G04 #@! TA.AperFunction,HeatsinkPad*
%ADD12C,0.500000*%
G04 #@! TD*
G04 #@! TA.AperFunction,ComponentPad*
%ADD13C,1.500000*%
G04 #@! TD*
G04 #@! TA.AperFunction,ComponentPad*
%ADD14C,1.440000*%
G04 #@! TD*
G04 #@! TA.AperFunction,ViaPad*
%ADD15C,0.600000*%
G04 #@! TD*
G04 #@! TA.AperFunction,Conductor*
%ADD16C,0.750000*%
G04 #@! TD*
G04 #@! TA.AperFunction,Conductor*
%ADD17C,0.400000*%
G04 #@! TD*
G04 #@! TA.AperFunction,Conductor*
%ADD18C,0.500000*%
G04 #@! TD*
G04 #@! TA.AperFunction,Conductor*
%ADD19C,0.250000*%
G04 #@! TD*
G04 #@! TA.AperFunction,Conductor*
%ADD20C,1.000000*%
G04 #@! TD*
G04 APERTURE END LIST*
D10*
X129040000Y-108400000D03*
X126500000Y-108400000D03*
D11*
X123960000Y-108400000D03*
D12*
X134350000Y-103272500D03*
D11*
X123320000Y-86485000D03*
D10*
X123320000Y-89025000D03*
X123320000Y-91565000D03*
X123320000Y-94105000D03*
X123320000Y-96645000D03*
D11*
X136020000Y-86485000D03*
D10*
X136020000Y-89025000D03*
X136020000Y-91565000D03*
X136020000Y-94105000D03*
X136020000Y-96645000D03*
D11*
X123320000Y-111250000D03*
D10*
X125860000Y-111250000D03*
X128400000Y-111250000D03*
X130940000Y-111250000D03*
X133480000Y-111250000D03*
X136020000Y-111250000D03*
D13*
X123881597Y-68118654D03*
D11*
X125250000Y-82975000D03*
D10*
X127790000Y-82975000D03*
D11*
X135300000Y-108400000D03*
D10*
X132760000Y-108400000D03*
D14*
X124613399Y-77991232D03*
X127153399Y-77991232D03*
X129693399Y-77991232D03*
D13*
X123896879Y-70311183D03*
D15*
X133250000Y-91250000D03*
X124275000Y-106625000D03*
X127575861Y-96055861D03*
X125325000Y-106650000D03*
X128511250Y-93583750D03*
X133250000Y-92750000D03*
X136910000Y-103530000D03*
X136856526Y-108286783D03*
X136263860Y-75975621D03*
X136846340Y-106830116D03*
X133953847Y-77196153D03*
X134400000Y-106000000D03*
X123500000Y-76500000D03*
X135194232Y-84295465D03*
X126500000Y-91351729D03*
X136825967Y-109661958D03*
X125000000Y-93490000D03*
X132272214Y-98627786D03*
X125831000Y-76410000D03*
X124700000Y-97975000D03*
X128325000Y-98950000D03*
X135000000Y-81500000D03*
X132425000Y-94500000D03*
X134000000Y-82500000D03*
X128475000Y-95500000D03*
X134425707Y-99674293D03*
X132000000Y-80500000D03*
X131675000Y-91000000D03*
X128645246Y-92622500D03*
X135100000Y-100350000D03*
X136520000Y-105010000D03*
X132962500Y-71037500D03*
X128275070Y-103780470D03*
X129402093Y-87092954D03*
X128684975Y-102834975D03*
X126122735Y-98750000D03*
X126500000Y-99356999D03*
X135275000Y-105475000D03*
X129423231Y-88358744D03*
X129756643Y-90916085D03*
D16*
X123320000Y-111250000D02*
X122544000Y-110474000D01*
X122544000Y-107024000D02*
X122918000Y-106650000D01*
X122918000Y-106650000D02*
X126350000Y-106650000D01*
X122544000Y-110474000D02*
X122544000Y-107024000D01*
D17*
X125000000Y-93490000D02*
X125000000Y-90705000D01*
X124670000Y-97945000D02*
X124670000Y-93820000D01*
X124670000Y-93820000D02*
X125000000Y-93490000D01*
D18*
X125201150Y-82056301D02*
X125201150Y-87143850D01*
X125201150Y-87143850D02*
X123320000Y-89025000D01*
D17*
X125000000Y-90705000D02*
X123320000Y-89025000D01*
D18*
X125851000Y-81406451D02*
X125201150Y-82056301D01*
X125831000Y-76410000D02*
X125851000Y-76430000D01*
X125851000Y-76430000D02*
X125851000Y-81406451D01*
D17*
X124700000Y-97975000D02*
X124670000Y-97945000D01*
D18*
X130951000Y-84500000D02*
X130951000Y-96324000D01*
X130951000Y-83699000D02*
X130951000Y-85306105D01*
X135075000Y-81500000D02*
X133150000Y-81500000D01*
X130951000Y-96324000D02*
X128325000Y-98950000D01*
X133150000Y-81500000D02*
X130951000Y-83699000D01*
D19*
X132425000Y-94500000D02*
X132425000Y-86742500D01*
D17*
X134425707Y-99674293D02*
X134450000Y-99650000D01*
D19*
X134000000Y-82500000D02*
X134000000Y-85129340D01*
X134425707Y-99401005D02*
X134425707Y-99674293D01*
X132425000Y-97400298D02*
X134425707Y-99401005D01*
X132425000Y-94500000D02*
X132425000Y-97400298D01*
X134000000Y-85139225D02*
X132444080Y-86695145D01*
D20*
X125860000Y-111250000D02*
X125859114Y-111249114D01*
X123972168Y-108400000D02*
X123920000Y-108400000D01*
X128400000Y-111250000D02*
X125860000Y-111250000D01*
X125859114Y-111249114D02*
X125859114Y-110286946D01*
X125859114Y-110286946D02*
X123972168Y-108400000D01*
D19*
X131683998Y-91008998D02*
X131683998Y-97226396D01*
D18*
X135075000Y-100325000D02*
X135100000Y-100350000D01*
D19*
X134200000Y-100350000D02*
X135100000Y-100350000D01*
X131675000Y-91000000D02*
X131683998Y-91008998D01*
X133778801Y-99928801D02*
X134200000Y-100350000D01*
X133778801Y-99321199D02*
X133778801Y-99928801D01*
X131683998Y-97226396D02*
X133778801Y-99321199D01*
D18*
X129756643Y-90916085D02*
X129756643Y-90756643D01*
X129756643Y-90756643D02*
X127500000Y-88500000D01*
X127500000Y-88500000D02*
X127500000Y-84044989D01*
X127500000Y-84044989D02*
X127790000Y-83754989D01*
X127790000Y-83754989D02*
X127790000Y-82975000D01*
G04 #@! TA.AperFunction,Conductor*
G36*
X135554075Y-111442993D02*
G01*
X135619901Y-111557007D01*
X135712993Y-111650099D01*
X135827007Y-111715925D01*
X135834822Y-111718019D01*
X135396307Y-112156534D01*
X135443478Y-112190805D01*
X135597749Y-112269411D01*
X135601431Y-112270936D01*
X135655837Y-112314773D01*
X135677907Y-112381066D01*
X135660632Y-112448766D01*
X135609498Y-112496380D01*
X135553986Y-112509500D01*
X134425689Y-112509500D01*
X134358650Y-112489815D01*
X134312895Y-112437011D01*
X134302951Y-112367853D01*
X134331976Y-112304297D01*
X134352804Y-112285181D01*
X134359792Y-112280104D01*
X134510104Y-112129792D01*
X134510106Y-112129788D01*
X134510109Y-112129786D01*
X134635048Y-111957820D01*
X134635047Y-111957820D01*
X134635051Y-111957816D01*
X134731557Y-111768412D01*
X134763765Y-111669284D01*
X134803201Y-111611611D01*
X134867559Y-111584412D01*
X134936406Y-111596326D01*
X134987882Y-111643570D01*
X134999625Y-111669282D01*
X135000591Y-111672256D01*
X135079195Y-111826523D01*
X135079196Y-111826525D01*
X135113463Y-111873691D01*
X135113464Y-111873691D01*
X135551980Y-111435176D01*
X135554075Y-111442993D01*
G37*
G04 #@! TD.AperFunction*
G04 #@! TA.AperFunction,Conductor*
G36*
X136926533Y-111873692D02*
G01*
X136926534Y-111873691D01*
X136960803Y-111826525D01*
X137039410Y-111672252D01*
X137040934Y-111668573D01*
X137084769Y-111614165D01*
X137151060Y-111592093D01*
X137218762Y-111609364D01*
X137266378Y-111660496D01*
X137279500Y-111716013D01*
X137279500Y-112385500D01*
X137259815Y-112452539D01*
X137207011Y-112498294D01*
X137155500Y-112509500D01*
X136486014Y-112509500D01*
X136418975Y-112489815D01*
X136373220Y-112437011D01*
X136363276Y-112367853D01*
X136392301Y-112304297D01*
X136438569Y-112270936D01*
X136442250Y-112269411D01*
X136596525Y-112190803D01*
X136643691Y-112156534D01*
X136643692Y-112156533D01*
X136205178Y-111718019D01*
X136212993Y-111715925D01*
X136327007Y-111650099D01*
X136420099Y-111557007D01*
X136485925Y-111442993D01*
X136488019Y-111435177D01*
X136926533Y-111873692D01*
G37*
G04 #@! TD.AperFunction*
G04 #@! TA.AperFunction,Conductor*
G36*
X126713182Y-84077421D02*
G01*
X126746666Y-84138745D01*
X126749500Y-84165102D01*
X126749500Y-88573918D01*
X126749500Y-88573920D01*
X126749499Y-88573920D01*
X126778340Y-88718907D01*
X126778343Y-88718917D01*
X126834913Y-88855490D01*
X126834915Y-88855493D01*
X126843964Y-88869037D01*
X126843963Y-88869037D01*
X126917046Y-88978414D01*
X126917052Y-88978421D01*
X128935152Y-90996519D01*
X128968637Y-91057842D01*
X128969088Y-91060008D01*
X128986904Y-91149576D01*
X128986907Y-91149586D01*
X129047245Y-91295257D01*
X129047252Y-91295270D01*
X129134853Y-91426373D01*
X129134856Y-91426377D01*
X129246350Y-91537871D01*
X129246354Y-91537874D01*
X129377457Y-91625475D01*
X129377470Y-91625482D01*
X129488055Y-91671287D01*
X129523146Y-91685822D01*
X129677796Y-91716584D01*
X129677799Y-91716585D01*
X129677801Y-91716585D01*
X129835487Y-91716585D01*
X129835488Y-91716584D01*
X129990140Y-91685822D01*
X130029048Y-91669705D01*
X130098517Y-91662237D01*
X130160996Y-91693512D01*
X130196648Y-91753601D01*
X130200500Y-91784267D01*
X130200500Y-95961769D01*
X130180815Y-96028808D01*
X130164181Y-96049450D01*
X128009703Y-98203927D01*
X127969480Y-98230805D01*
X127945819Y-98240606D01*
X127945818Y-98240607D01*
X127814715Y-98328207D01*
X127814707Y-98328213D01*
X127703213Y-98439707D01*
X127703210Y-98439711D01*
X127615609Y-98570814D01*
X127615602Y-98570827D01*
X127555264Y-98716498D01*
X127555261Y-98716510D01*
X127524500Y-98871153D01*
X127524500Y-99028846D01*
X127555261Y-99183489D01*
X127555264Y-99183501D01*
X127615602Y-99329172D01*
X127615609Y-99329185D01*
X127703210Y-99460288D01*
X127703213Y-99460292D01*
X127814707Y-99571786D01*
X127814711Y-99571789D01*
X127945814Y-99659390D01*
X127945827Y-99659397D01*
X128091498Y-99719735D01*
X128091503Y-99719737D01*
X128246153Y-99750499D01*
X128246156Y-99750500D01*
X128246158Y-99750500D01*
X128403844Y-99750500D01*
X128403845Y-99750499D01*
X128558497Y-99719737D01*
X128704179Y-99659394D01*
X128835289Y-99571789D01*
X128946789Y-99460289D01*
X129034394Y-99329179D01*
X129044191Y-99305524D01*
X129071069Y-99265297D01*
X130905909Y-97430458D01*
X130929371Y-97417647D01*
X130950862Y-97401734D01*
X130959571Y-97401156D01*
X130967230Y-97396975D01*
X130993897Y-97398882D01*
X131020579Y-97397114D01*
X131028216Y-97401336D01*
X131036922Y-97401959D01*
X131058326Y-97417982D01*
X131081726Y-97430919D01*
X131087781Y-97440033D01*
X131092855Y-97443831D01*
X131102729Y-97459284D01*
X131105735Y-97464858D01*
X131129686Y-97522682D01*
X131163913Y-97573905D01*
X131167168Y-97578776D01*
X131167170Y-97578780D01*
X131198139Y-97625129D01*
X131289584Y-97716574D01*
X131289606Y-97716594D01*
X131594521Y-98021509D01*
X131628006Y-98082832D01*
X131623022Y-98152524D01*
X131609943Y-98178079D01*
X131562825Y-98248597D01*
X131562816Y-98248613D01*
X131502478Y-98394284D01*
X131502475Y-98394296D01*
X131471714Y-98548939D01*
X131471714Y-98706632D01*
X131502475Y-98861275D01*
X131502478Y-98861287D01*
X131562816Y-99006958D01*
X131562823Y-99006971D01*
X131650424Y-99138074D01*
X131650427Y-99138078D01*
X131761921Y-99249572D01*
X131761925Y-99249575D01*
X131893028Y-99337176D01*
X131893041Y-99337183D01*
X131976579Y-99371785D01*
X132038717Y-99397523D01*
X132193367Y-99428285D01*
X132193370Y-99428286D01*
X132193372Y-99428286D01*
X132351058Y-99428286D01*
X132351059Y-99428285D01*
X132505711Y-99397523D01*
X132651393Y-99337180D01*
X132698765Y-99305527D01*
X132721918Y-99290057D01*
X132788595Y-99269179D01*
X132855975Y-99287663D01*
X132878490Y-99305478D01*
X133116982Y-99543970D01*
X133150467Y-99605293D01*
X133153301Y-99631651D01*
X133153301Y-99990407D01*
X133168416Y-100066396D01*
X133177339Y-100111256D01*
X133177339Y-100111257D01*
X133184264Y-100127975D01*
X133184270Y-100127988D01*
X133185554Y-100131087D01*
X133224489Y-100225087D01*
X133241860Y-100251083D01*
X133246770Y-100258432D01*
X133246773Y-100258437D01*
X133292939Y-100327529D01*
X133292940Y-100327530D01*
X133292943Y-100327534D01*
X133380068Y-100414659D01*
X133380070Y-100414660D01*
X133387136Y-100421726D01*
X133387135Y-100421726D01*
X133387138Y-100421728D01*
X133714141Y-100748732D01*
X133714142Y-100748733D01*
X133801267Y-100835858D01*
X133801268Y-100835859D01*
X133903707Y-100904307D01*
X133903713Y-100904310D01*
X133903714Y-100904311D01*
X134017548Y-100951463D01*
X134077971Y-100963481D01*
X134138393Y-100975500D01*
X134138394Y-100975500D01*
X134557650Y-100975500D01*
X134624689Y-100995185D01*
X134626541Y-100996398D01*
X134720821Y-101059394D01*
X134720823Y-101059395D01*
X134720827Y-101059397D01*
X134866498Y-101119735D01*
X134866503Y-101119737D01*
X135021153Y-101150499D01*
X135021156Y-101150500D01*
X135021158Y-101150500D01*
X135178844Y-101150500D01*
X135178845Y-101150499D01*
X135333497Y-101119737D01*
X135479179Y-101059394D01*
X135610289Y-100971789D01*
X135721789Y-100860289D01*
X135809394Y-100729179D01*
X135869737Y-100583497D01*
X135900500Y-100428842D01*
X135900500Y-100271158D01*
X135900500Y-100271155D01*
X135900499Y-100271153D01*
X135891336Y-100225087D01*
X135869737Y-100116503D01*
X135817507Y-99990407D01*
X135809397Y-99970827D01*
X135809390Y-99970814D01*
X135721789Y-99839711D01*
X135721786Y-99839707D01*
X135610292Y-99728213D01*
X135610288Y-99728210D01*
X135479185Y-99640609D01*
X135479172Y-99640602D01*
X135333501Y-99580264D01*
X135333491Y-99580261D01*
X135299902Y-99573580D01*
X135237991Y-99541195D01*
X135203417Y-99480479D01*
X135202484Y-99476189D01*
X135195444Y-99440796D01*
X135166859Y-99371785D01*
X135135104Y-99295120D01*
X135135097Y-99295107D01*
X135047497Y-99164005D01*
X135012664Y-99129172D01*
X134972154Y-99088662D01*
X134956741Y-99069881D01*
X134945131Y-99052507D01*
X134945130Y-99052505D01*
X134945129Y-99052504D01*
X134911565Y-99002272D01*
X134911563Y-99002269D01*
X134821344Y-98912050D01*
X134821313Y-98912021D01*
X133086819Y-97177527D01*
X133053334Y-97116204D01*
X133050500Y-97089846D01*
X133050500Y-95042350D01*
X133070185Y-94975311D01*
X133071398Y-94973459D01*
X133079212Y-94961764D01*
X133134394Y-94879179D01*
X133194737Y-94733497D01*
X133225500Y-94578842D01*
X133225500Y-94421158D01*
X133225500Y-94421155D01*
X133225499Y-94421153D01*
X133194738Y-94266510D01*
X133194737Y-94266503D01*
X133169027Y-94204433D01*
X133134397Y-94120828D01*
X133134396Y-94120827D01*
X133134394Y-94120821D01*
X133071397Y-94026539D01*
X133050520Y-93959863D01*
X133050500Y-93957650D01*
X133050500Y-87024677D01*
X133070185Y-86957638D01*
X133086819Y-86936996D01*
X134457819Y-85565996D01*
X134519142Y-85532511D01*
X134588834Y-85537495D01*
X134644767Y-85579367D01*
X134669184Y-85644831D01*
X134669500Y-85653677D01*
X134669500Y-87382870D01*
X134669501Y-87382876D01*
X134675908Y-87442483D01*
X134726202Y-87577328D01*
X134726206Y-87577335D01*
X134812452Y-87692544D01*
X134812455Y-87692547D01*
X134927664Y-87778793D01*
X134927671Y-87778797D01*
X135059082Y-87827810D01*
X135115016Y-87869681D01*
X135139433Y-87935145D01*
X135124582Y-88003418D01*
X135103431Y-88031673D01*
X134989889Y-88145215D01*
X134864951Y-88317179D01*
X134768444Y-88506585D01*
X134702753Y-88708760D01*
X134672981Y-88896734D01*
X134669500Y-88918713D01*
X134669500Y-89131287D01*
X134702754Y-89341243D01*
X134712054Y-89369866D01*
X134768444Y-89543414D01*
X134864951Y-89732820D01*
X134989890Y-89904786D01*
X135140213Y-90055109D01*
X135312182Y-90180050D01*
X135320946Y-90184516D01*
X135371742Y-90232491D01*
X135388536Y-90300312D01*
X135365998Y-90366447D01*
X135320946Y-90405484D01*
X135312182Y-90409949D01*
X135140213Y-90534890D01*
X134989890Y-90685213D01*
X134864951Y-90857179D01*
X134768444Y-91046585D01*
X134702753Y-91248760D01*
X134669500Y-91458713D01*
X134669500Y-91671287D01*
X134702754Y-91881243D01*
X134741572Y-92000713D01*
X134768444Y-92083414D01*
X134864951Y-92272820D01*
X134989890Y-92444786D01*
X135140213Y-92595109D01*
X135312182Y-92720050D01*
X135320946Y-92724516D01*
X135371742Y-92772491D01*
X135388536Y-92840312D01*
X135365998Y-92906447D01*
X135320946Y-92945484D01*
X135312182Y-92949949D01*
X135140213Y-93074890D01*
X134989890Y-93225213D01*
X134864951Y-93397179D01*
X134768444Y-93586585D01*
X134702753Y-93788760D01*
X134669500Y-93998713D01*
X134669500Y-94211286D01*
X134702740Y-94421158D01*
X134702754Y-94421243D01*
X134753961Y-94578842D01*
X134768444Y-94623414D01*
X134864951Y-94812820D01*
X134989890Y-94984786D01*
X135140213Y-95135109D01*
X135312179Y-95260048D01*
X135312181Y-95260049D01*
X135312184Y-95260051D01*
X135501588Y-95356557D01*
X135600715Y-95388765D01*
X135658388Y-95428201D01*
X135685587Y-95492560D01*
X135673673Y-95561406D01*
X135626429Y-95612882D01*
X135600722Y-95624623D01*
X135597744Y-95625590D01*
X135597743Y-95625590D01*
X135443475Y-95704196D01*
X135396307Y-95738463D01*
X135396307Y-95738464D01*
X135834823Y-96176980D01*
X135827007Y-96179075D01*
X135712993Y-96244901D01*
X135619901Y-96337993D01*
X135554075Y-96452007D01*
X135551980Y-96459823D01*
X135113464Y-96021307D01*
X135113463Y-96021307D01*
X135079196Y-96068475D01*
X135000592Y-96222740D01*
X134947085Y-96387415D01*
X134920000Y-96558428D01*
X134920000Y-96731571D01*
X134947085Y-96902584D01*
X135000591Y-97067257D01*
X135079195Y-97221523D01*
X135079196Y-97221525D01*
X135113463Y-97268691D01*
X135113464Y-97268691D01*
X135551980Y-96830176D01*
X135554075Y-96837993D01*
X135619901Y-96952007D01*
X135712993Y-97045099D01*
X135827007Y-97110925D01*
X135834822Y-97113019D01*
X135396307Y-97551534D01*
X135443478Y-97585805D01*
X135597742Y-97664408D01*
X135762415Y-97717914D01*
X135933429Y-97745000D01*
X136106571Y-97745000D01*
X136277584Y-97717914D01*
X136442257Y-97664408D01*
X136596525Y-97585803D01*
X136643691Y-97551534D01*
X136643692Y-97551533D01*
X136205178Y-97113019D01*
X136212993Y-97110925D01*
X136327007Y-97045099D01*
X136420099Y-96952007D01*
X136485925Y-96837993D01*
X136488019Y-96830177D01*
X136926533Y-97268692D01*
X136926534Y-97268691D01*
X136960803Y-97221525D01*
X137039410Y-97067252D01*
X137040934Y-97063573D01*
X137084769Y-97009165D01*
X137151060Y-96987093D01*
X137218762Y-97004364D01*
X137266378Y-97055496D01*
X137279500Y-97111013D01*
X137279500Y-104338059D01*
X137259815Y-104405098D01*
X137207011Y-104450853D01*
X137137853Y-104460797D01*
X137074297Y-104431772D01*
X137067819Y-104425740D01*
X137030292Y-104388213D01*
X137030288Y-104388210D01*
X136899185Y-104300609D01*
X136899172Y-104300602D01*
X136753501Y-104240264D01*
X136753489Y-104240261D01*
X136598845Y-104209500D01*
X136598842Y-104209500D01*
X136441158Y-104209500D01*
X136441155Y-104209500D01*
X136286510Y-104240261D01*
X136286498Y-104240264D01*
X136140827Y-104300602D01*
X136140814Y-104300609D01*
X136009711Y-104388210D01*
X136009707Y-104388213D01*
X135898213Y-104499707D01*
X135898210Y-104499711D01*
X135810609Y-104630814D01*
X135810606Y-104630821D01*
X135787496Y-104686612D01*
X135743654Y-104741015D01*
X135677359Y-104763079D01*
X135625483Y-104753719D01*
X135508501Y-104705264D01*
X135508489Y-104705261D01*
X135353845Y-104674500D01*
X135353842Y-104674500D01*
X135196158Y-104674500D01*
X135196155Y-104674500D01*
X135041510Y-104705261D01*
X135041498Y-104705264D01*
X134895827Y-104765602D01*
X134895814Y-104765609D01*
X134764711Y-104853210D01*
X134764707Y-104853213D01*
X134653213Y-104964707D01*
X134653210Y-104964711D01*
X134565609Y-105095814D01*
X134565602Y-105095827D01*
X134505264Y-105241498D01*
X134505261Y-105241510D01*
X134474500Y-105396153D01*
X134474500Y-105553846D01*
X134505261Y-105708489D01*
X134505264Y-105708501D01*
X134565602Y-105854172D01*
X134565609Y-105854185D01*
X134653210Y-105985288D01*
X134653213Y-105985292D01*
X134764707Y-106096786D01*
X134764711Y-106096789D01*
X134895814Y-106184390D01*
X134895827Y-106184397D01*
X135041498Y-106244735D01*
X135041503Y-106244737D01*
X135196153Y-106275499D01*
X135196156Y-106275500D01*
X135196158Y-106275500D01*
X135353844Y-106275500D01*
X135353845Y-106275499D01*
X135508497Y-106244737D01*
X135654179Y-106184394D01*
X135785289Y-106096789D01*
X135896789Y-105985289D01*
X135984394Y-105854179D01*
X136007502Y-105798388D01*
X136051341Y-105743986D01*
X136117634Y-105721920D01*
X136169515Y-105731280D01*
X136286498Y-105779735D01*
X136286503Y-105779737D01*
X136441153Y-105810499D01*
X136441156Y-105810500D01*
X136441158Y-105810500D01*
X136598844Y-105810500D01*
X136598845Y-105810499D01*
X136753497Y-105779737D01*
X136899179Y-105719394D01*
X137030289Y-105631789D01*
X137030292Y-105631786D01*
X137067819Y-105594260D01*
X137129142Y-105560775D01*
X137198834Y-105565759D01*
X137254767Y-105607631D01*
X137279184Y-105673095D01*
X137279500Y-105681941D01*
X137279500Y-110783986D01*
X137259815Y-110851025D01*
X137207011Y-110896780D01*
X137137853Y-110906724D01*
X137074297Y-110877699D01*
X137040936Y-110831431D01*
X137039411Y-110827749D01*
X136960805Y-110673478D01*
X136926534Y-110626307D01*
X136488019Y-111064822D01*
X136485925Y-111057007D01*
X136420099Y-110942993D01*
X136327007Y-110849901D01*
X136212993Y-110784075D01*
X136205176Y-110781980D01*
X136643691Y-110343464D01*
X136643691Y-110343463D01*
X136596525Y-110309196D01*
X136596523Y-110309195D01*
X136442257Y-110230591D01*
X136277584Y-110177085D01*
X136106571Y-110150000D01*
X135933429Y-110150000D01*
X135762415Y-110177085D01*
X135597740Y-110230592D01*
X135443475Y-110309196D01*
X135396307Y-110343463D01*
X135396307Y-110343464D01*
X135834823Y-110781980D01*
X135827007Y-110784075D01*
X135712993Y-110849901D01*
X135619901Y-110942993D01*
X135554075Y-111057007D01*
X135551980Y-111064823D01*
X135113464Y-110626307D01*
X135113463Y-110626307D01*
X135079196Y-110673475D01*
X135000590Y-110827743D01*
X135000590Y-110827744D01*
X134999623Y-110830722D01*
X134998950Y-110831705D01*
X134998729Y-110832240D01*
X134998616Y-110832193D01*
X134960182Y-110888394D01*
X134895821Y-110915588D01*
X134826976Y-110903668D01*
X134775503Y-110856421D01*
X134763766Y-110830719D01*
X134731557Y-110731588D01*
X134635051Y-110542184D01*
X134510104Y-110370208D01*
X134359792Y-110219896D01*
X134359786Y-110219890D01*
X134187820Y-110094951D01*
X133998414Y-109998444D01*
X133998413Y-109998443D01*
X133998412Y-109998443D01*
X133796243Y-109932754D01*
X133796241Y-109932753D01*
X133796240Y-109932753D01*
X133634957Y-109907208D01*
X133586287Y-109899500D01*
X133373713Y-109899500D01*
X133318100Y-109908308D01*
X133260622Y-109917411D01*
X133260611Y-109917413D01*
X133163757Y-109932754D01*
X133038652Y-109973403D01*
X133038645Y-109973405D01*
X132961585Y-109998444D01*
X132772179Y-110094951D01*
X132600213Y-110219890D01*
X132449890Y-110370213D01*
X132324949Y-110542182D01*
X132320484Y-110550946D01*
X132272509Y-110601742D01*
X132204688Y-110618536D01*
X132138553Y-110595998D01*
X132099516Y-110550946D01*
X132095050Y-110542182D01*
X131970109Y-110370213D01*
X131819786Y-110219890D01*
X131647820Y-110094951D01*
X131458414Y-109998444D01*
X131458413Y-109998443D01*
X131458412Y-109998443D01*
X131256243Y-109932754D01*
X131256241Y-109932753D01*
X131256240Y-109932753D01*
X131094957Y-109907208D01*
X131046287Y-109899500D01*
X130833713Y-109899500D01*
X130785042Y-109907208D01*
X130623760Y-109932753D01*
X130421585Y-109998444D01*
X130232179Y-110094951D01*
X130060213Y-110219890D01*
X129909890Y-110370213D01*
X129784949Y-110542182D01*
X129780484Y-110550946D01*
X129732509Y-110601742D01*
X129664688Y-110618536D01*
X129598553Y-110595998D01*
X129559516Y-110550946D01*
X129555050Y-110542182D01*
X129430109Y-110370213D01*
X129279786Y-110219890D01*
X129107820Y-110094951D01*
X128918414Y-109998444D01*
X128918413Y-109998443D01*
X128918412Y-109998443D01*
X128899907Y-109992430D01*
X128842232Y-109952994D01*
X128815034Y-109888635D01*
X128826949Y-109819789D01*
X128874193Y-109768313D01*
X128938226Y-109750500D01*
X129146286Y-109750500D01*
X129146287Y-109750500D01*
X129356243Y-109717246D01*
X129558412Y-109651557D01*
X129747816Y-109555051D01*
X129834138Y-109492335D01*
X129919786Y-109430109D01*
X129919788Y-109430106D01*
X129919792Y-109430104D01*
X130070104Y-109279792D01*
X130070106Y-109279788D01*
X130070109Y-109279786D01*
X130195048Y-109107820D01*
X130195047Y-109107820D01*
X130195051Y-109107816D01*
X130291557Y-108918412D01*
X130357246Y-108716243D01*
X130390500Y-108506287D01*
X130390500Y-108293713D01*
X131409500Y-108293713D01*
X131409500Y-108506286D01*
X131442753Y-108716239D01*
X131508444Y-108918414D01*
X131604951Y-109107820D01*
X131729890Y-109279786D01*
X131880213Y-109430109D01*
X132052179Y-109555048D01*
X132052181Y-109555049D01*
X132052184Y-109555051D01*
X132241588Y-109651557D01*
X132443757Y-109717246D01*
X132653713Y-109750500D01*
X132653714Y-109750500D01*
X132866286Y-109750500D01*
X132866287Y-109750500D01*
X133076243Y-109717246D01*
X133278412Y-109651557D01*
X133467816Y-109555051D01*
X133639792Y-109430104D01*
X133753329Y-109316566D01*
X133814648Y-109283084D01*
X133884340Y-109288068D01*
X133940274Y-109329939D01*
X133957189Y-109360917D01*
X134006202Y-109492328D01*
X134006206Y-109492335D01*
X134092452Y-109607544D01*
X134092455Y-109607547D01*
X134207664Y-109693793D01*
X134207671Y-109693797D01*
X134342517Y-109744091D01*
X134342516Y-109744091D01*
X134349444Y-109744835D01*
X134402127Y-109750500D01*
X136197872Y-109750499D01*
X136257483Y-109744091D01*
X136392331Y-109693796D01*
X136507546Y-109607546D01*
X136593796Y-109492331D01*
X136644091Y-109357483D01*
X136650500Y-109297873D01*
X136650499Y-107502128D01*
X136644091Y-107442517D01*
X136642810Y-107439083D01*
X136593797Y-107307671D01*
X136593793Y-107307664D01*
X136507547Y-107192455D01*
X136507544Y-107192452D01*
X136392335Y-107106206D01*
X136392328Y-107106202D01*
X136257482Y-107055908D01*
X136257483Y-107055908D01*
X136197883Y-107049501D01*
X136197881Y-107049500D01*
X136197873Y-107049500D01*
X136197864Y-107049500D01*
X134402129Y-107049500D01*
X134402123Y-107049501D01*
X134342516Y-107055908D01*
X134207671Y-107106202D01*
X134207664Y-107106206D01*
X134092455Y-107192452D01*
X134092452Y-107192455D01*
X134006206Y-107307664D01*
X134006203Y-107307669D01*
X133957189Y-107439083D01*
X133915317Y-107495016D01*
X133849853Y-107519433D01*
X133781580Y-107504581D01*
X133753326Y-107483430D01*
X133639786Y-107369890D01*
X133467820Y-107244951D01*
X133278414Y-107148444D01*
X133278413Y-107148443D01*
X133278412Y-107148443D01*
X133076243Y-107082754D01*
X133076241Y-107082753D01*
X133076240Y-107082753D01*
X132914957Y-107057208D01*
X132866287Y-107049500D01*
X132653713Y-107049500D01*
X132605042Y-107057208D01*
X132443760Y-107082753D01*
X132241585Y-107148444D01*
X132052179Y-107244951D01*
X131880213Y-107369890D01*
X131729890Y-107520213D01*
X131604951Y-107692179D01*
X131508444Y-107881585D01*
X131442753Y-108083760D01*
X131409500Y-108293713D01*
X130390500Y-108293713D01*
X130357246Y-108083757D01*
X130291557Y-107881588D01*
X130195051Y-107692184D01*
X130195049Y-107692181D01*
X130195048Y-107692179D01*
X130070109Y-107520213D01*
X129919786Y-107369890D01*
X129747820Y-107244951D01*
X129558414Y-107148444D01*
X129558413Y-107148443D01*
X129558412Y-107148443D01*
X129356243Y-107082754D01*
X129356241Y-107082753D01*
X129356240Y-107082753D01*
X129194957Y-107057208D01*
X129146287Y-107049500D01*
X128933713Y-107049500D01*
X128885042Y-107057208D01*
X128723760Y-107082753D01*
X128521585Y-107148444D01*
X128332179Y-107244951D01*
X128160213Y-107369890D01*
X128009890Y-107520213D01*
X127884949Y-107692182D01*
X127880484Y-107700946D01*
X127832509Y-107751742D01*
X127764688Y-107768536D01*
X127698553Y-107745998D01*
X127659516Y-107700946D01*
X127655050Y-107692182D01*
X127530109Y-107520213D01*
X127379786Y-107369890D01*
X127207820Y-107244951D01*
X127018414Y-107148444D01*
X127018413Y-107148443D01*
X127018412Y-107148443D01*
X126816243Y-107082754D01*
X126816241Y-107082753D01*
X126816240Y-107082753D01*
X126654957Y-107057208D01*
X126606287Y-107049500D01*
X126393713Y-107049500D01*
X126345042Y-107057208D01*
X126183760Y-107082753D01*
X125981585Y-107148444D01*
X125792179Y-107244951D01*
X125620215Y-107369889D01*
X125506673Y-107483431D01*
X125445350Y-107516915D01*
X125375658Y-107511931D01*
X125319725Y-107470059D01*
X125302810Y-107439082D01*
X125253797Y-107307671D01*
X125253793Y-107307664D01*
X125167547Y-107192455D01*
X125167544Y-107192452D01*
X125052335Y-107106206D01*
X125052328Y-107106202D01*
X124917482Y-107055908D01*
X124917483Y-107055908D01*
X124857883Y-107049501D01*
X124857881Y-107049500D01*
X124857873Y-107049500D01*
X124857864Y-107049500D01*
X123062129Y-107049500D01*
X123062123Y-107049501D01*
X123002516Y-107055908D01*
X122867671Y-107106202D01*
X122867664Y-107106206D01*
X122752455Y-107192452D01*
X122752452Y-107192455D01*
X122666206Y-107307664D01*
X122666202Y-107307671D01*
X122615908Y-107442517D01*
X122609501Y-107502116D01*
X122609501Y-107502123D01*
X122609500Y-107502135D01*
X122609500Y-109297870D01*
X122609501Y-109297876D01*
X122615908Y-109357483D01*
X122666202Y-109492328D01*
X122666206Y-109492335D01*
X122752452Y-109607544D01*
X122752455Y-109607547D01*
X122867664Y-109693793D01*
X122867671Y-109693797D01*
X123002517Y-109744091D01*
X123002516Y-109744091D01*
X123009444Y-109744835D01*
X123062127Y-109750500D01*
X123856385Y-109750499D01*
X123885831Y-109759145D01*
X123915812Y-109765667D01*
X123920825Y-109769419D01*
X123923424Y-109770183D01*
X123944066Y-109786818D01*
X124095567Y-109938319D01*
X124129052Y-109999642D01*
X124124068Y-110069334D01*
X124082196Y-110125267D01*
X124016732Y-110149684D01*
X124007886Y-110150000D01*
X123520000Y-110150000D01*
X123520000Y-110788120D01*
X123512993Y-110784075D01*
X123385826Y-110750000D01*
X123254174Y-110750000D01*
X123127007Y-110784075D01*
X123120000Y-110788120D01*
X123120000Y-110150000D01*
X122445373Y-110150000D01*
X122372459Y-110164503D01*
X122372455Y-110164505D01*
X122289760Y-110219760D01*
X122287602Y-110222990D01*
X122233989Y-110267795D01*
X122164664Y-110276502D01*
X122101637Y-110246347D01*
X122064918Y-110186904D01*
X122060500Y-110154099D01*
X122060500Y-103701623D01*
X127474570Y-103701623D01*
X127474570Y-103859316D01*
X127505331Y-104013959D01*
X127505334Y-104013971D01*
X127565672Y-104159642D01*
X127565679Y-104159655D01*
X127653280Y-104290758D01*
X127653283Y-104290762D01*
X127764777Y-104402256D01*
X127764781Y-104402259D01*
X127895884Y-104489860D01*
X127895897Y-104489867D01*
X128041568Y-104550205D01*
X128041573Y-104550207D01*
X128196223Y-104580969D01*
X128196226Y-104580970D01*
X128196228Y-104580970D01*
X128353914Y-104580970D01*
X128353915Y-104580969D01*
X128508567Y-104550207D01*
X128654249Y-104489864D01*
X128785359Y-104402259D01*
X128896859Y-104290759D01*
X128984464Y-104159649D01*
X129044807Y-104013967D01*
X129075570Y-103859312D01*
X129075570Y-103740518D01*
X134164822Y-103740518D01*
X134284176Y-103772500D01*
X134415824Y-103772500D01*
X134535175Y-103740518D01*
X134350000Y-103555342D01*
X134164822Y-103740518D01*
X129075570Y-103740518D01*
X129075570Y-103701628D01*
X129062413Y-103635488D01*
X129062113Y-103633697D01*
X129066054Y-103600779D01*
X129069009Y-103567757D01*
X129070191Y-103566235D01*
X129070420Y-103564323D01*
X129091541Y-103538750D01*
X129111872Y-103512579D01*
X129114887Y-103510484D01*
X129114914Y-103510453D01*
X129114950Y-103510441D01*
X129115459Y-103510088D01*
X129195264Y-103456764D01*
X129306764Y-103345264D01*
X129394369Y-103214154D01*
X129397467Y-103206674D01*
X133850000Y-103206674D01*
X133850000Y-103338323D01*
X133881980Y-103457674D01*
X134067156Y-103272499D01*
X134047266Y-103252609D01*
X134250000Y-103252609D01*
X134250000Y-103292391D01*
X134265224Y-103329145D01*
X134293355Y-103357276D01*
X134330109Y-103372500D01*
X134369891Y-103372500D01*
X134406645Y-103357276D01*
X134434776Y-103329145D01*
X134450000Y-103292391D01*
X134450000Y-103272499D01*
X134632842Y-103272499D01*
X134818018Y-103457675D01*
X134850000Y-103338324D01*
X134850000Y-103206675D01*
X134818018Y-103087322D01*
X134632842Y-103272499D01*
X134450000Y-103272499D01*
X134450000Y-103252609D01*
X134434776Y-103215855D01*
X134406645Y-103187724D01*
X134369891Y-103172500D01*
X134330109Y-103172500D01*
X134293355Y-103187724D01*
X134265224Y-103215855D01*
X134250000Y-103252609D01*
X134047266Y-103252609D01*
X133881979Y-103087322D01*
X133850000Y-103206674D01*
X129397467Y-103206674D01*
X129417346Y-103158683D01*
X129420489Y-103151095D01*
X129454710Y-103068476D01*
X129454712Y-103068472D01*
X129485475Y-102913817D01*
X129485475Y-102804479D01*
X134164822Y-102804479D01*
X134349999Y-102989656D01*
X134535174Y-102804480D01*
X134415823Y-102772500D01*
X134284174Y-102772500D01*
X134164822Y-102804479D01*
X129485475Y-102804479D01*
X129485475Y-102756133D01*
X129485475Y-102756130D01*
X129485474Y-102756128D01*
X129454713Y-102601485D01*
X129454712Y-102601478D01*
X129454710Y-102601473D01*
X129394372Y-102455802D01*
X129394365Y-102455789D01*
X129306764Y-102324686D01*
X129306761Y-102324682D01*
X129195267Y-102213188D01*
X129195263Y-102213185D01*
X129064160Y-102125584D01*
X129064147Y-102125577D01*
X128918476Y-102065239D01*
X128918464Y-102065236D01*
X128763820Y-102034475D01*
X128763817Y-102034475D01*
X128606133Y-102034475D01*
X128606130Y-102034475D01*
X128451485Y-102065236D01*
X128451473Y-102065239D01*
X128305802Y-102125577D01*
X128305789Y-102125584D01*
X128174686Y-102213185D01*
X128174682Y-102213188D01*
X128063188Y-102324682D01*
X128063185Y-102324686D01*
X127975584Y-102455789D01*
X127975577Y-102455802D01*
X127915239Y-102601473D01*
X127915236Y-102601485D01*
X127884475Y-102756128D01*
X127884475Y-102756133D01*
X127884475Y-102913817D01*
X127884476Y-102913821D01*
X127897261Y-102978099D01*
X127891032Y-103047691D01*
X127848169Y-103102867D01*
X127844534Y-103105391D01*
X127764781Y-103158680D01*
X127764777Y-103158683D01*
X127653283Y-103270177D01*
X127653280Y-103270181D01*
X127565679Y-103401284D01*
X127565672Y-103401297D01*
X127505334Y-103546968D01*
X127505331Y-103546980D01*
X127474570Y-103701623D01*
X122060500Y-103701623D01*
X122060500Y-97111013D01*
X122080185Y-97043974D01*
X122132989Y-96998219D01*
X122202147Y-96988275D01*
X122265703Y-97017300D01*
X122299066Y-97063573D01*
X122300589Y-97067252D01*
X122379195Y-97221523D01*
X122379196Y-97221525D01*
X122413463Y-97268691D01*
X122413464Y-97268691D01*
X122851980Y-96830176D01*
X122854075Y-96837993D01*
X122919901Y-96952007D01*
X123012993Y-97045099D01*
X123127007Y-97110925D01*
X123134822Y-97113019D01*
X122696307Y-97551534D01*
X122743478Y-97585805D01*
X122897742Y-97664408D01*
X123062415Y-97717914D01*
X123233429Y-97745000D01*
X123406571Y-97745000D01*
X123577584Y-97717914D01*
X123742263Y-97664405D01*
X123746762Y-97662543D01*
X123747342Y-97663944D01*
X123809394Y-97652281D01*
X123874138Y-97678548D01*
X123914404Y-97735648D01*
X123918655Y-97799855D01*
X123899500Y-97896153D01*
X123899500Y-98053846D01*
X123930261Y-98208489D01*
X123930264Y-98208501D01*
X123990602Y-98354172D01*
X123990609Y-98354185D01*
X124078210Y-98485288D01*
X124078213Y-98485292D01*
X124189707Y-98596786D01*
X124189711Y-98596789D01*
X124320814Y-98684390D01*
X124320827Y-98684397D01*
X124443507Y-98735212D01*
X124466503Y-98744737D01*
X124621153Y-98775499D01*
X124621156Y-98775500D01*
X124621158Y-98775500D01*
X124778844Y-98775500D01*
X124778845Y-98775499D01*
X124933497Y-98744737D01*
X125079179Y-98684394D01*
X125129344Y-98650875D01*
X125196021Y-98629997D01*
X125263401Y-98648481D01*
X125310092Y-98700460D01*
X125322235Y-98753977D01*
X125322235Y-98828846D01*
X125352996Y-98983489D01*
X125352999Y-98983501D01*
X125413337Y-99129172D01*
X125413344Y-99129185D01*
X125500945Y-99260288D01*
X125500948Y-99260292D01*
X125612441Y-99371785D01*
X125612444Y-99371787D01*
X125612446Y-99371789D01*
X125655443Y-99400518D01*
X125700248Y-99454129D01*
X125708169Y-99479428D01*
X125730261Y-99590490D01*
X125730264Y-99590500D01*
X125790602Y-99736171D01*
X125790609Y-99736184D01*
X125878210Y-99867287D01*
X125878213Y-99867291D01*
X125989707Y-99978785D01*
X125989711Y-99978788D01*
X126120814Y-100066389D01*
X126120827Y-100066396D01*
X126229133Y-100111257D01*
X126266503Y-100126736D01*
X126421153Y-100157498D01*
X126421156Y-100157499D01*
X126421158Y-100157499D01*
X126578844Y-100157499D01*
X126578845Y-100157498D01*
X126733497Y-100126736D01*
X126879179Y-100066393D01*
X127010289Y-99978788D01*
X127121789Y-99867288D01*
X127209394Y-99736178D01*
X127212695Y-99728210D01*
X127241200Y-99659390D01*
X127269737Y-99590496D01*
X127300500Y-99435841D01*
X127300500Y-99278157D01*
X127300500Y-99278154D01*
X127300499Y-99278152D01*
X127290828Y-99229533D01*
X127269737Y-99123502D01*
X127269735Y-99123497D01*
X127209397Y-98977826D01*
X127209390Y-98977813D01*
X127121789Y-98846710D01*
X127121786Y-98846706D01*
X127010292Y-98735212D01*
X127010288Y-98735209D01*
X126967291Y-98706479D01*
X126922486Y-98652866D01*
X126914565Y-98627568D01*
X126892473Y-98516510D01*
X126892472Y-98516503D01*
X126879543Y-98485289D01*
X126832132Y-98370827D01*
X126832125Y-98370814D01*
X126744524Y-98239711D01*
X126744521Y-98239707D01*
X126633027Y-98128213D01*
X126633023Y-98128210D01*
X126501920Y-98040609D01*
X126501907Y-98040602D01*
X126356236Y-97980264D01*
X126356224Y-97980261D01*
X126201580Y-97949500D01*
X126201577Y-97949500D01*
X126043893Y-97949500D01*
X126043890Y-97949500D01*
X125889245Y-97980261D01*
X125889233Y-97980264D01*
X125743562Y-98040602D01*
X125743551Y-98040608D01*
X125693390Y-98074125D01*
X125626712Y-98095002D01*
X125559332Y-98076517D01*
X125512643Y-98024538D01*
X125500500Y-97971022D01*
X125500500Y-97896155D01*
X125500499Y-97896153D01*
X125481344Y-97799855D01*
X125469737Y-97741503D01*
X125459966Y-97717914D01*
X125409397Y-97595827D01*
X125409390Y-97595814D01*
X125391398Y-97568887D01*
X125370520Y-97502209D01*
X125370500Y-97499996D01*
X125370500Y-95421153D01*
X127674500Y-95421153D01*
X127674500Y-95578846D01*
X127705261Y-95733489D01*
X127705264Y-95733501D01*
X127765602Y-95879172D01*
X127765609Y-95879185D01*
X127853210Y-96010288D01*
X127853213Y-96010292D01*
X127964707Y-96121786D01*
X127964711Y-96121789D01*
X128095814Y-96209390D01*
X128095827Y-96209397D01*
X128241498Y-96269735D01*
X128241503Y-96269737D01*
X128352320Y-96291780D01*
X128396153Y-96300499D01*
X128396156Y-96300500D01*
X128396158Y-96300500D01*
X128553844Y-96300500D01*
X128553845Y-96300499D01*
X128708497Y-96269737D01*
X128854179Y-96209394D01*
X128985289Y-96121789D01*
X129096789Y-96010289D01*
X129184394Y-95879179D01*
X129244737Y-95733497D01*
X129275500Y-95578842D01*
X129275500Y-95421158D01*
X129275500Y-95421155D01*
X129275499Y-95421153D01*
X129262650Y-95356556D01*
X129244737Y-95266503D01*
X129242063Y-95260048D01*
X129184397Y-95120827D01*
X129184390Y-95120814D01*
X129096789Y-94989711D01*
X129096786Y-94989707D01*
X128985292Y-94878213D01*
X128985288Y-94878210D01*
X128854185Y-94790609D01*
X128854172Y-94790602D01*
X128708501Y-94730264D01*
X128708489Y-94730261D01*
X128553845Y-94699500D01*
X128553842Y-94699500D01*
X128396158Y-94699500D01*
X128396155Y-94699500D01*
X128241510Y-94730261D01*
X128241498Y-94730264D01*
X128095827Y-94790602D01*
X128095814Y-94790609D01*
X127964711Y-94878210D01*
X127964707Y-94878213D01*
X127853213Y-94989707D01*
X127853210Y-94989711D01*
X127765609Y-95120814D01*
X127765602Y-95120827D01*
X127705264Y-95266498D01*
X127705261Y-95266510D01*
X127674500Y-95421153D01*
X125370500Y-95421153D01*
X125370500Y-94271472D01*
X125390185Y-94204433D01*
X125425607Y-94168371D01*
X125510289Y-94111789D01*
X125621789Y-94000289D01*
X125709394Y-93869179D01*
X125769737Y-93723497D01*
X125800500Y-93568842D01*
X125800500Y-93411158D01*
X125800500Y-93411155D01*
X125800499Y-93411153D01*
X125797719Y-93397179D01*
X125769737Y-93256503D01*
X125729479Y-93159310D01*
X125709939Y-93112136D01*
X125700500Y-93064684D01*
X125700500Y-92543653D01*
X127844746Y-92543653D01*
X127844746Y-92701346D01*
X127875507Y-92855989D01*
X127875510Y-92856001D01*
X127935848Y-93001672D01*
X127935855Y-93001685D01*
X128023456Y-93132788D01*
X128023459Y-93132792D01*
X128134953Y-93244286D01*
X128134957Y-93244289D01*
X128266060Y-93331890D01*
X128266073Y-93331897D01*
X128411744Y-93392235D01*
X128411749Y-93392237D01*
X128506846Y-93411153D01*
X128566399Y-93422999D01*
X128566402Y-93423000D01*
X128566404Y-93423000D01*
X128724090Y-93423000D01*
X128724091Y-93422999D01*
X128878743Y-93392237D01*
X129024425Y-93331894D01*
X129155535Y-93244289D01*
X129267035Y-93132789D01*
X129354640Y-93001679D01*
X129414983Y-92855997D01*
X129445746Y-92701342D01*
X129445746Y-92543658D01*
X129445746Y-92543655D01*
X129445745Y-92543653D01*
X129421746Y-92423005D01*
X129414983Y-92389003D01*
X129366859Y-92272820D01*
X129354643Y-92243327D01*
X129354636Y-92243314D01*
X129267035Y-92112211D01*
X129267032Y-92112207D01*
X129155538Y-92000713D01*
X129155534Y-92000710D01*
X129024431Y-91913109D01*
X129024418Y-91913102D01*
X128878747Y-91852764D01*
X128878735Y-91852761D01*
X128724091Y-91822000D01*
X128724088Y-91822000D01*
X128566404Y-91822000D01*
X128566401Y-91822000D01*
X128411756Y-91852761D01*
X128411744Y-91852764D01*
X128266073Y-91913102D01*
X128266060Y-91913109D01*
X128134957Y-92000710D01*
X128134953Y-92000713D01*
X128023459Y-92112207D01*
X128023456Y-92112211D01*
X127935855Y-92243314D01*
X127935848Y-92243327D01*
X127875510Y-92388998D01*
X127875507Y-92389010D01*
X127844746Y-92543653D01*
X125700500Y-92543653D01*
X125700500Y-90636004D01*
X125673581Y-90500677D01*
X125673580Y-90500676D01*
X125673580Y-90500672D01*
X125673578Y-90500667D01*
X125620778Y-90373195D01*
X125620770Y-90373181D01*
X125605589Y-90350461D01*
X125605589Y-90350460D01*
X125605587Y-90350458D01*
X125544114Y-90258457D01*
X125544111Y-90258453D01*
X124680507Y-89394850D01*
X124647022Y-89333527D01*
X124645715Y-89287771D01*
X124670500Y-89131286D01*
X124670500Y-88918715D01*
X124670500Y-88918713D01*
X124655382Y-88823268D01*
X124664336Y-88753979D01*
X124690171Y-88716195D01*
X125784102Y-87622266D01*
X125814128Y-87577328D01*
X125850048Y-87523570D01*
X125850050Y-87523565D01*
X125850054Y-87523560D01*
X125866234Y-87499345D01*
X125922808Y-87362763D01*
X125951650Y-87217768D01*
X125951650Y-84449499D01*
X125971335Y-84382460D01*
X126024139Y-84336705D01*
X126075650Y-84325499D01*
X126147871Y-84325499D01*
X126147872Y-84325499D01*
X126207483Y-84319091D01*
X126342331Y-84268796D01*
X126457546Y-84182546D01*
X126526234Y-84090789D01*
X126582167Y-84048920D01*
X126651859Y-84043936D01*
X126713182Y-84077421D01*
G37*
G04 #@! TD.AperFunction*
G04 #@! TA.AperFunction,Conductor*
G36*
X122265703Y-94956976D02*
G01*
X122284819Y-94977804D01*
X122289896Y-94984792D01*
X122440213Y-95135109D01*
X122612179Y-95260048D01*
X122612181Y-95260049D01*
X122612184Y-95260051D01*
X122801588Y-95356557D01*
X122900715Y-95388765D01*
X122958388Y-95428201D01*
X122985587Y-95492560D01*
X122973673Y-95561406D01*
X122926429Y-95612882D01*
X122900722Y-95624623D01*
X122897744Y-95625590D01*
X122897743Y-95625590D01*
X122743475Y-95704196D01*
X122696307Y-95738463D01*
X122696307Y-95738464D01*
X123134823Y-96176980D01*
X123127007Y-96179075D01*
X123012993Y-96244901D01*
X122919901Y-96337993D01*
X122854075Y-96452007D01*
X122851980Y-96459823D01*
X122413464Y-96021307D01*
X122413463Y-96021307D01*
X122379196Y-96068475D01*
X122300590Y-96222744D01*
X122299064Y-96226431D01*
X122255227Y-96280837D01*
X122188934Y-96302907D01*
X122121234Y-96285632D01*
X122073620Y-96234498D01*
X122060500Y-96178986D01*
X122060500Y-95050689D01*
X122080185Y-94983650D01*
X122132989Y-94937895D01*
X122202147Y-94927951D01*
X122265703Y-94956976D01*
G37*
G04 #@! TD.AperFunction*
G04 #@! TA.AperFunction,Conductor*
G36*
X137241920Y-94961764D02*
G01*
X137276277Y-95022603D01*
X137279500Y-95050689D01*
X137279500Y-96178986D01*
X137259815Y-96246025D01*
X137207011Y-96291780D01*
X137137853Y-96301724D01*
X137074297Y-96272699D01*
X137040936Y-96226431D01*
X137039411Y-96222749D01*
X136960805Y-96068478D01*
X136926534Y-96021307D01*
X136488019Y-96459822D01*
X136485925Y-96452007D01*
X136420099Y-96337993D01*
X136327007Y-96244901D01*
X136212993Y-96179075D01*
X136205176Y-96176980D01*
X136643691Y-95738464D01*
X136643691Y-95738463D01*
X136596525Y-95704196D01*
X136596523Y-95704195D01*
X136442256Y-95625591D01*
X136439282Y-95624625D01*
X136438296Y-95623951D01*
X136437760Y-95623729D01*
X136437806Y-95623616D01*
X136381608Y-95585185D01*
X136354412Y-95520826D01*
X136366328Y-95451980D01*
X136413574Y-95400506D01*
X136439280Y-95388766D01*
X136538412Y-95356557D01*
X136727816Y-95260051D01*
X136749789Y-95244086D01*
X136899786Y-95135109D01*
X136899788Y-95135106D01*
X136899792Y-95135104D01*
X137050104Y-94984792D01*
X137055181Y-94977803D01*
X137110511Y-94935138D01*
X137180124Y-94929159D01*
X137241920Y-94961764D01*
G37*
G04 #@! TD.AperFunction*
G04 #@! TA.AperFunction,Conductor*
G36*
X123392268Y-66755185D02*
G01*
X123438023Y-66807989D01*
X123447967Y-66877147D01*
X123418942Y-66940703D01*
X123381524Y-66969985D01*
X123226191Y-67049130D01*
X123135338Y-67115139D01*
X123066951Y-67164826D01*
X123066949Y-67164828D01*
X123066948Y-67164828D01*
X122927771Y-67304005D01*
X122927771Y-67304006D01*
X122927769Y-67304008D01*
X122878082Y-67372395D01*
X122812073Y-67463248D01*
X122722714Y-67638624D01*
X122661887Y-67825827D01*
X122631097Y-68020231D01*
X122631097Y-68217076D01*
X122661887Y-68411480D01*
X122722714Y-68598683D01*
X122812073Y-68774059D01*
X122927769Y-68933300D01*
X123066951Y-69072482D01*
X123117278Y-69109047D01*
X123132563Y-69120152D01*
X123175228Y-69175483D01*
X123181207Y-69245096D01*
X123148601Y-69306891D01*
X123132563Y-69320787D01*
X123082239Y-69357350D01*
X123082230Y-69357357D01*
X122943053Y-69496534D01*
X122943053Y-69496535D01*
X122943051Y-69496537D01*
X122893364Y-69564924D01*
X122827355Y-69655777D01*
X122737996Y-69831153D01*
X122677169Y-70018356D01*
X122646379Y-70212760D01*
X122646379Y-70409605D01*
X122677169Y-70604009D01*
X122737996Y-70791212D01*
X122791527Y-70896271D01*
X122827355Y-70966588D01*
X122943051Y-71125829D01*
X123082233Y-71265011D01*
X123241474Y-71380707D01*
X123312085Y-71416685D01*
X123416849Y-71470065D01*
X123416851Y-71470065D01*
X123416854Y-71470067D01*
X123517196Y-71502670D01*
X123604052Y-71530892D01*
X123798457Y-71561683D01*
X123798462Y-71561683D01*
X123995301Y-71561683D01*
X124189705Y-71530892D01*
X124376904Y-71470067D01*
X124552284Y-71380707D01*
X124711525Y-71265011D01*
X124850707Y-71125829D01*
X124966403Y-70966588D01*
X124970446Y-70958653D01*
X132162000Y-70958653D01*
X132162000Y-71116346D01*
X132192761Y-71270989D01*
X132192764Y-71271001D01*
X132253102Y-71416672D01*
X132253109Y-71416685D01*
X132340710Y-71547788D01*
X132340713Y-71547792D01*
X132452207Y-71659286D01*
X132452211Y-71659289D01*
X132583314Y-71746890D01*
X132583327Y-71746897D01*
X132728998Y-71807235D01*
X132729003Y-71807237D01*
X132883653Y-71837999D01*
X132883656Y-71838000D01*
X132883658Y-71838000D01*
X133041344Y-71838000D01*
X133041345Y-71837999D01*
X133195997Y-71807237D01*
X133341679Y-71746894D01*
X133472789Y-71659289D01*
X133584289Y-71547789D01*
X133671894Y-71416679D01*
X133732237Y-71270997D01*
X133763000Y-71116342D01*
X133763000Y-70958658D01*
X133763000Y-70958655D01*
X133762999Y-70958653D01*
X133732238Y-70804010D01*
X133732237Y-70804003D01*
X133726937Y-70791208D01*
X133671897Y-70658327D01*
X133671890Y-70658314D01*
X133584289Y-70527211D01*
X133584286Y-70527207D01*
X133472792Y-70415713D01*
X133472788Y-70415710D01*
X133341685Y-70328109D01*
X133341672Y-70328102D01*
X133196001Y-70267764D01*
X133195989Y-70267761D01*
X133041345Y-70237000D01*
X133041342Y-70237000D01*
X132883658Y-70237000D01*
X132883655Y-70237000D01*
X132729010Y-70267761D01*
X132728998Y-70267764D01*
X132583327Y-70328102D01*
X132583314Y-70328109D01*
X132452211Y-70415710D01*
X132452207Y-70415713D01*
X132340713Y-70527207D01*
X132340710Y-70527211D01*
X132253109Y-70658314D01*
X132253102Y-70658327D01*
X132192764Y-70803998D01*
X132192761Y-70804010D01*
X132162000Y-70958653D01*
X124970446Y-70958653D01*
X125055763Y-70791208D01*
X125116588Y-70604009D01*
X125147379Y-70409605D01*
X125147379Y-70212760D01*
X125116588Y-70018356D01*
X125055761Y-69831153D01*
X124966402Y-69655777D01*
X124850707Y-69496537D01*
X124711525Y-69357355D01*
X124706773Y-69353902D01*
X124645912Y-69309683D01*
X124603246Y-69254353D01*
X124597268Y-69184740D01*
X124629875Y-69122945D01*
X124645904Y-69109055D01*
X124696243Y-69072482D01*
X124835425Y-68933300D01*
X124951121Y-68774059D01*
X125040481Y-68598679D01*
X125101306Y-68411480D01*
X125132097Y-68217076D01*
X125132097Y-68020231D01*
X125101306Y-67825827D01*
X125040479Y-67638624D01*
X124951120Y-67463248D01*
X124835425Y-67304008D01*
X124696243Y-67164826D01*
X124537002Y-67049130D01*
X124381669Y-66969984D01*
X124330874Y-66922011D01*
X124314079Y-66854190D01*
X124336616Y-66788055D01*
X124391331Y-66744603D01*
X124437965Y-66735500D01*
X137165425Y-66735500D01*
X137232464Y-66755185D01*
X137278219Y-66807989D01*
X137289424Y-66859566D01*
X137283711Y-77060287D01*
X137279573Y-84449499D01*
X137279502Y-84575648D01*
X137279500Y-84575651D01*
X137279500Y-84580708D01*
X137279500Y-84580841D01*
X137279484Y-84608916D01*
X137279500Y-84608995D01*
X137279500Y-85074960D01*
X137259815Y-85141999D01*
X137207011Y-85187754D01*
X137137853Y-85197698D01*
X137112167Y-85191142D01*
X136977482Y-85140908D01*
X136977483Y-85140908D01*
X136917883Y-85134501D01*
X136917881Y-85134500D01*
X136917873Y-85134500D01*
X136917864Y-85134500D01*
X135122129Y-85134500D01*
X135122123Y-85134501D01*
X135062516Y-85140908D01*
X134927671Y-85191202D01*
X134927669Y-85191204D01*
X134823811Y-85268952D01*
X134758347Y-85293369D01*
X134690074Y-85278517D01*
X134640668Y-85229112D01*
X134625500Y-85169685D01*
X134625500Y-83042350D01*
X134645185Y-82975311D01*
X134646398Y-82973459D01*
X134646809Y-82972843D01*
X134709394Y-82879179D01*
X134769737Y-82733497D01*
X134800500Y-82578842D01*
X134800500Y-82424500D01*
X134820185Y-82357461D01*
X134872989Y-82311706D01*
X134924500Y-82300500D01*
X135078844Y-82300500D01*
X135078845Y-82300499D01*
X135233497Y-82269737D01*
X135379179Y-82209394D01*
X135510289Y-82121789D01*
X135531857Y-82100220D01*
X135550656Y-82084794D01*
X135553416Y-82082951D01*
X135657951Y-81978416D01*
X135740084Y-81855495D01*
X135796658Y-81718913D01*
X135815438Y-81624501D01*
X135825500Y-81573920D01*
X135825500Y-81426079D01*
X135796659Y-81281092D01*
X135796658Y-81281091D01*
X135796658Y-81281087D01*
X135766912Y-81209273D01*
X135740087Y-81144511D01*
X135740080Y-81144498D01*
X135657951Y-81021584D01*
X135657948Y-81021580D01*
X135553423Y-80917055D01*
X135553411Y-80917045D01*
X135550635Y-80915190D01*
X135531855Y-80899776D01*
X135510292Y-80878213D01*
X135510288Y-80878210D01*
X135379185Y-80790609D01*
X135379172Y-80790602D01*
X135233501Y-80730264D01*
X135233489Y-80730261D01*
X135078845Y-80699500D01*
X135078842Y-80699500D01*
X134921158Y-80699500D01*
X134921155Y-80699500D01*
X134766511Y-80730260D01*
X134766506Y-80730262D01*
X134766504Y-80730262D01*
X134766503Y-80730263D01*
X134742844Y-80740062D01*
X134695396Y-80749500D01*
X133076076Y-80749500D01*
X133047237Y-80755236D01*
X132935815Y-80777399D01*
X132866223Y-80771172D01*
X132811046Y-80728309D01*
X132787802Y-80662419D01*
X132790006Y-80631596D01*
X132800500Y-80578842D01*
X132800500Y-80421158D01*
X132800500Y-80421155D01*
X132800499Y-80421153D01*
X132769738Y-80266510D01*
X132769737Y-80266503D01*
X132769735Y-80266498D01*
X132709397Y-80120827D01*
X132709390Y-80120814D01*
X132621789Y-79989711D01*
X132621786Y-79989707D01*
X132510292Y-79878213D01*
X132510288Y-79878210D01*
X132379185Y-79790609D01*
X132379172Y-79790602D01*
X132233501Y-79730264D01*
X132233489Y-79730261D01*
X132078845Y-79699500D01*
X132078842Y-79699500D01*
X131921158Y-79699500D01*
X131921155Y-79699500D01*
X131766510Y-79730261D01*
X131766498Y-79730264D01*
X131620827Y-79790602D01*
X131620814Y-79790609D01*
X131489711Y-79878210D01*
X131489707Y-79878213D01*
X131378213Y-79989707D01*
X131378210Y-79989711D01*
X131290609Y-80120814D01*
X131290602Y-80120827D01*
X131230264Y-80266498D01*
X131230261Y-80266510D01*
X131199500Y-80421153D01*
X131199500Y-80578846D01*
X131230261Y-80733489D01*
X131230264Y-80733501D01*
X131290602Y-80879172D01*
X131290609Y-80879185D01*
X131378210Y-81010288D01*
X131378213Y-81010292D01*
X131489707Y-81121786D01*
X131489711Y-81121789D01*
X131620814Y-81209390D01*
X131620827Y-81209397D01*
X131766498Y-81269735D01*
X131766503Y-81269737D01*
X131921153Y-81300499D01*
X131921156Y-81300500D01*
X131988770Y-81300500D01*
X132055809Y-81320185D01*
X132101564Y-81372989D01*
X132111508Y-81442147D01*
X132082483Y-81505703D01*
X132076451Y-81512181D01*
X130368047Y-83220584D01*
X130368045Y-83220586D01*
X130345958Y-83253644D01*
X130337145Y-83266835D01*
X130320839Y-83291239D01*
X130285914Y-83343507D01*
X130229343Y-83480082D01*
X130229340Y-83480092D01*
X130200500Y-83625079D01*
X130200500Y-86459920D01*
X130180815Y-86526959D01*
X130128011Y-86572714D01*
X130058853Y-86582658D01*
X129995297Y-86553633D01*
X129988819Y-86547601D01*
X129912385Y-86471167D01*
X129912381Y-86471164D01*
X129781278Y-86383563D01*
X129781265Y-86383556D01*
X129635594Y-86323218D01*
X129635582Y-86323215D01*
X129480938Y-86292454D01*
X129480935Y-86292454D01*
X129323251Y-86292454D01*
X129323248Y-86292454D01*
X129168603Y-86323215D01*
X129168591Y-86323218D01*
X129022920Y-86383556D01*
X129022907Y-86383563D01*
X128891804Y-86471164D01*
X128891800Y-86471167D01*
X128780306Y-86582661D01*
X128780303Y-86582665D01*
X128692702Y-86713768D01*
X128692695Y-86713781D01*
X128632357Y-86859452D01*
X128632354Y-86859464D01*
X128601593Y-87014107D01*
X128601593Y-87171800D01*
X128632354Y-87326443D01*
X128632357Y-87326455D01*
X128692695Y-87472126D01*
X128692702Y-87472139D01*
X128780303Y-87603242D01*
X128780306Y-87603246D01*
X128825796Y-87648735D01*
X128859282Y-87710058D01*
X128854298Y-87779749D01*
X128825799Y-87824097D01*
X128801441Y-87848455D01*
X128713840Y-87979558D01*
X128713833Y-87979571D01*
X128653495Y-88125242D01*
X128653492Y-88125254D01*
X128621542Y-88285876D01*
X128619095Y-88285389D01*
X128617124Y-88290263D01*
X128615971Y-88306393D01*
X128604296Y-88321988D01*
X128596994Y-88340047D01*
X128583789Y-88349381D01*
X128574099Y-88362326D01*
X128555848Y-88369133D01*
X128539940Y-88380379D01*
X128523784Y-88381092D01*
X128508635Y-88386743D01*
X128489600Y-88382602D01*
X128470138Y-88383462D01*
X128455431Y-88375169D01*
X128440362Y-88371891D01*
X128412108Y-88350740D01*
X128286819Y-88225451D01*
X128253334Y-88164128D01*
X128250500Y-88137770D01*
X128250500Y-84407219D01*
X128270185Y-84340180D01*
X128286819Y-84319538D01*
X128287268Y-84319089D01*
X128372952Y-84233405D01*
X128395226Y-84200067D01*
X128442033Y-84158473D01*
X128497816Y-84130051D01*
X128669792Y-84005104D01*
X128820104Y-83854792D01*
X128820106Y-83854788D01*
X128820109Y-83854786D01*
X128945048Y-83682820D01*
X128945047Y-83682820D01*
X128945051Y-83682816D01*
X129041557Y-83493412D01*
X129107246Y-83291243D01*
X129140500Y-83081287D01*
X129140500Y-82868713D01*
X129107246Y-82658757D01*
X129041557Y-82456588D01*
X128945051Y-82267184D01*
X128945049Y-82267181D01*
X128945048Y-82267179D01*
X128820109Y-82095213D01*
X128669786Y-81944890D01*
X128497820Y-81819951D01*
X128308414Y-81723444D01*
X128308413Y-81723443D01*
X128308412Y-81723443D01*
X128106243Y-81657754D01*
X128106241Y-81657753D01*
X128106240Y-81657753D01*
X127944957Y-81632208D01*
X127896287Y-81624500D01*
X127683713Y-81624500D01*
X127635042Y-81632208D01*
X127473760Y-81657753D01*
X127271585Y-81723444D01*
X127082179Y-81819951D01*
X126910215Y-81944889D01*
X126796673Y-82058431D01*
X126768413Y-82073861D01*
X126740905Y-82090572D01*
X126737946Y-82090497D01*
X126735350Y-82091915D01*
X126703239Y-82089618D01*
X126671057Y-82088804D01*
X126668609Y-82087142D01*
X126665658Y-82086931D01*
X126639887Y-82067639D01*
X126613254Y-82049554D01*
X126611375Y-82046294D01*
X126609725Y-82045059D01*
X126594930Y-82019389D01*
X126593807Y-82016755D01*
X126543796Y-81882669D01*
X126527138Y-81860417D01*
X126521284Y-81846689D01*
X126518867Y-81826212D01*
X126511662Y-81806894D01*
X126514511Y-81789309D01*
X126513094Y-81777301D01*
X126518131Y-81766971D01*
X126520784Y-81750598D01*
X126542971Y-81697036D01*
X126572659Y-81625363D01*
X126601500Y-81480368D01*
X126601500Y-81332533D01*
X126601500Y-79265890D01*
X126621185Y-79198851D01*
X126673989Y-79153096D01*
X126743147Y-79143152D01*
X126763817Y-79147958D01*
X126867598Y-79181679D01*
X127057344Y-79211732D01*
X127057345Y-79211732D01*
X127249453Y-79211732D01*
X127249454Y-79211732D01*
X127439200Y-79181679D01*
X127621908Y-79122314D01*
X127793080Y-79035097D01*
X127948501Y-78922177D01*
X128084344Y-78786334D01*
X128197264Y-78630913D01*
X128284481Y-78459741D01*
X128284483Y-78459736D01*
X128305468Y-78395151D01*
X128344905Y-78337475D01*
X128409263Y-78310276D01*
X128478110Y-78322190D01*
X128529586Y-78369434D01*
X128541330Y-78395151D01*
X128562314Y-78459736D01*
X128562317Y-78459741D01*
X128649534Y-78630913D01*
X128762454Y-78786334D01*
X128898297Y-78922177D01*
X129053718Y-79035097D01*
X129206296Y-79112840D01*
X129224892Y-79122315D01*
X129289023Y-79143152D01*
X129407598Y-79181679D01*
X129597344Y-79211732D01*
X129597345Y-79211732D01*
X129789453Y-79211732D01*
X129789454Y-79211732D01*
X129979200Y-79181679D01*
X130161908Y-79122314D01*
X130333080Y-79035097D01*
X130488501Y-78922177D01*
X130624344Y-78786334D01*
X130737264Y-78630913D01*
X130824481Y-78459741D01*
X130883846Y-78277033D01*
X130913899Y-78087287D01*
X130913899Y-77895177D01*
X130883846Y-77705431D01*
X130853823Y-77613029D01*
X130824482Y-77522725D01*
X130737263Y-77351550D01*
X130624344Y-77196130D01*
X130488501Y-77060287D01*
X130333080Y-76947367D01*
X130245297Y-76902639D01*
X130161905Y-76860148D01*
X129979201Y-76800785D01*
X129884327Y-76785758D01*
X129789454Y-76770732D01*
X129597344Y-76770732D01*
X129551216Y-76778038D01*
X129407596Y-76800785D01*
X129224892Y-76860148D01*
X129053717Y-76947367D01*
X128965044Y-77011792D01*
X128898297Y-77060287D01*
X128898295Y-77060289D01*
X128898294Y-77060289D01*
X128762456Y-77196127D01*
X128762456Y-77196128D01*
X128762454Y-77196130D01*
X128713959Y-77262877D01*
X128649534Y-77351550D01*
X128562315Y-77522725D01*
X128541330Y-77587313D01*
X128501893Y-77644988D01*
X128437534Y-77672187D01*
X128368688Y-77660273D01*
X128317212Y-77613029D01*
X128305468Y-77587313D01*
X128284482Y-77522725D01*
X128197263Y-77351550D01*
X128084344Y-77196130D01*
X127948501Y-77060287D01*
X127793080Y-76947367D01*
X127705297Y-76902639D01*
X127621905Y-76860148D01*
X127439201Y-76800785D01*
X127344327Y-76785758D01*
X127249454Y-76770732D01*
X127057344Y-76770732D01*
X127029292Y-76775175D01*
X126867594Y-76800785D01*
X126763817Y-76834504D01*
X126735698Y-76835307D01*
X126707853Y-76839311D01*
X126701241Y-76836291D01*
X126693976Y-76836499D01*
X126669887Y-76821972D01*
X126644297Y-76810286D01*
X126640366Y-76804170D01*
X126634144Y-76800418D01*
X126621733Y-76775175D01*
X126606523Y-76751508D01*
X126605046Y-76741235D01*
X126603316Y-76737717D01*
X126601500Y-76716573D01*
X126601500Y-76651872D01*
X126603883Y-76627680D01*
X126631500Y-76488844D01*
X126631500Y-76331155D01*
X126631499Y-76331153D01*
X126600738Y-76176510D01*
X126600737Y-76176503D01*
X126600735Y-76176498D01*
X126540397Y-76030827D01*
X126540390Y-76030814D01*
X126452789Y-75899711D01*
X126452786Y-75899707D01*
X126341292Y-75788213D01*
X126341288Y-75788210D01*
X126210185Y-75700609D01*
X126210172Y-75700602D01*
X126064501Y-75640264D01*
X126064489Y-75640261D01*
X125909845Y-75609500D01*
X125909842Y-75609500D01*
X125752158Y-75609500D01*
X125752155Y-75609500D01*
X125597510Y-75640261D01*
X125597498Y-75640264D01*
X125451827Y-75700602D01*
X125451814Y-75700609D01*
X125320711Y-75788210D01*
X125320707Y-75788213D01*
X125209213Y-75899707D01*
X125209210Y-75899711D01*
X125121609Y-76030814D01*
X125121602Y-76030827D01*
X125061264Y-76176498D01*
X125061261Y-76176510D01*
X125030500Y-76331153D01*
X125030500Y-76488846D01*
X125061261Y-76643493D01*
X125062950Y-76649059D01*
X125063573Y-76718926D01*
X125026324Y-76778038D01*
X124963030Y-76807629D01*
X124905978Y-76802986D01*
X124899204Y-76800785D01*
X124737506Y-76775175D01*
X124709454Y-76770732D01*
X124517344Y-76770732D01*
X124471216Y-76778038D01*
X124327596Y-76800785D01*
X124144892Y-76860148D01*
X123973717Y-76947367D01*
X123885044Y-77011792D01*
X123818297Y-77060287D01*
X123818295Y-77060289D01*
X123818294Y-77060289D01*
X123682456Y-77196127D01*
X123682456Y-77196128D01*
X123682454Y-77196130D01*
X123633959Y-77262877D01*
X123569534Y-77351550D01*
X123482315Y-77522725D01*
X123422952Y-77705429D01*
X123392899Y-77895177D01*
X123392899Y-78087286D01*
X123422952Y-78277034D01*
X123482315Y-78459738D01*
X123482317Y-78459741D01*
X123569534Y-78630913D01*
X123682454Y-78786334D01*
X123818297Y-78922177D01*
X123973718Y-79035097D01*
X124126296Y-79112840D01*
X124144892Y-79122315D01*
X124209023Y-79143152D01*
X124327598Y-79181679D01*
X124517344Y-79211732D01*
X124517345Y-79211732D01*
X124709453Y-79211732D01*
X124709454Y-79211732D01*
X124899200Y-79181679D01*
X124938182Y-79169012D01*
X125008022Y-79167018D01*
X125067855Y-79203098D01*
X125098684Y-79265798D01*
X125100500Y-79286944D01*
X125100500Y-81044221D01*
X125080815Y-81111260D01*
X125064181Y-81131902D01*
X124618198Y-81577884D01*
X124617140Y-81579174D01*
X124616415Y-81579667D01*
X124613891Y-81582192D01*
X124613411Y-81581712D01*
X124559390Y-81618503D01*
X124521295Y-81624500D01*
X124352130Y-81624500D01*
X124352123Y-81624501D01*
X124292516Y-81630908D01*
X124157671Y-81681202D01*
X124157664Y-81681206D01*
X124042455Y-81767452D01*
X124042452Y-81767455D01*
X123956206Y-81882664D01*
X123956202Y-81882671D01*
X123905908Y-82017517D01*
X123899501Y-82077116D01*
X123899500Y-82077135D01*
X123899500Y-83872870D01*
X123899501Y-83872876D01*
X123905908Y-83932483D01*
X123956202Y-84067328D01*
X123956206Y-84067335D01*
X124042452Y-84182544D01*
X124042455Y-84182547D01*
X124157664Y-84268793D01*
X124157671Y-84268797D01*
X124202618Y-84285561D01*
X124292517Y-84319091D01*
X124339908Y-84324186D01*
X124404456Y-84350923D01*
X124444304Y-84408316D01*
X124450650Y-84447475D01*
X124450650Y-85026902D01*
X124430965Y-85093941D01*
X124378161Y-85139696D01*
X124309003Y-85149640D01*
X124283323Y-85143086D01*
X124277486Y-85140909D01*
X124277483Y-85140908D01*
X124217883Y-85134501D01*
X124217881Y-85134500D01*
X124217873Y-85134500D01*
X124217864Y-85134500D01*
X122422129Y-85134500D01*
X122422123Y-85134501D01*
X122362516Y-85140908D01*
X122227833Y-85191142D01*
X122158141Y-85196126D01*
X122096818Y-85162641D01*
X122063334Y-85101317D01*
X122060500Y-85074960D01*
X122060500Y-66859500D01*
X122080185Y-66792461D01*
X122132989Y-66746706D01*
X122184500Y-66735500D01*
X123325229Y-66735500D01*
X123392268Y-66755185D01*
G37*
G04 #@! TD.AperFunction*
M02*
