G04 #@! TF.GenerationSoftware,KiCad,Pcbnew,9.0.6*
G04 #@! TF.CreationDate,2026-01-10T17:13:08+00:00*
G04 #@! TF.ProjectId,CurrentSource,43757272-656e-4745-936f-757263652e6b,rev?*
G04 #@! TF.SameCoordinates,Original*
G04 #@! TF.FileFunction,Legend,Top*
G04 #@! TF.FilePolarity,Positive*
%FSLAX46Y46*%
G04 Gerber Fmt 4.6, Leading zero omitted, Abs format (unit mm)*
G04 Created by KiCad (PCBNEW 9.0.6) date 2026-01-10 17:13:08*
%MOMM*%
%LPD*%
G01*
G04 APERTURE LIST*
G04 Aperture macros list*
%AMRoundRect*
0 Rectangle with rounded corners*
0 $1 Rounding radius*
0 $2 $3 $4 $5 $6 $7 $8 $9 X,Y pos of 4 corners*
0 Add a 4 corners polygon primitive as box body*
4,1,4,$2,$3,$4,$5,$6,$7,$8,$9,$2,$3,0*
0 Add four circle primitives for the rounded corners*
1,1,$1+$1,$2,$3*
1,1,$1+$1,$4,$5*
1,1,$1+$1,$6,$7*
1,1,$1+$1,$8,$9*
0 Add four rect primitives between the rounded corners*
20,1,$1+$1,$2,$3,$4,$5,0*
20,1,$1+$1,$4,$5,$6,$7,0*
20,1,$1+$1,$6,$7,$8,$9,0*
20,1,$1+$1,$8,$9,$2,$3,0*%
G04 Aperture macros list end*
%ADD10C,0.150000*%
%ADD11C,0.100000*%
%ADD12C,0.125000*%
%ADD13C,0.120000*%
%ADD14C,0.200000*%
%ADD15C,1.700000*%
%ADD16R,1.700000X1.700000*%
%ADD17RoundRect,0.135000X0.135000X0.185000X-0.135000X0.185000X-0.135000X-0.185000X0.135000X-0.185000X0*%
%ADD18RoundRect,0.150000X0.512500X0.150000X-0.512500X0.150000X-0.512500X-0.150000X0.512500X-0.150000X0*%
%ADD19R,0.800000X0.800000*%
%ADD20RoundRect,0.062500X-0.062500X-0.375000X0.062500X-0.375000X0.062500X0.375000X-0.062500X0.375000X0*%
%ADD21RoundRect,0.062500X-0.375000X-0.062500X0.375000X-0.062500X0.375000X0.062500X-0.375000X0.062500X0*%
%ADD22R,1.500000X5.080000*%
%ADD23R,1.528000X0.650000*%
%ADD24RoundRect,0.200000X0.275000X-0.200000X0.275000X0.200000X-0.275000X0.200000X-0.275000X-0.200000X0*%
%ADD25RoundRect,0.200000X-0.275000X0.200000X-0.275000X-0.200000X0.275000X-0.200000X0.275000X0.200000X0*%
%ADD26RoundRect,0.225000X-0.225000X-0.250000X0.225000X-0.250000X0.225000X0.250000X-0.225000X0.250000X0*%
%ADD27C,1.500000*%
%ADD28RoundRect,0.225000X0.250000X-0.225000X0.250000X0.225000X-0.250000X0.225000X-0.250000X-0.225000X0*%
%ADD29RoundRect,0.150000X-0.150000X0.512500X-0.150000X-0.512500X0.150000X-0.512500X0.150000X0.512500X0*%
%ADD30RoundRect,0.225000X-0.250000X0.225000X-0.250000X-0.225000X0.250000X-0.225000X0.250000X0.225000X0*%
%ADD31RoundRect,0.100000X0.225000X0.100000X-0.225000X0.100000X-0.225000X-0.100000X0.225000X-0.100000X0*%
%ADD32C,1.440000*%
%ADD33RoundRect,0.225000X0.225000X0.250000X-0.225000X0.250000X-0.225000X-0.250000X0.225000X-0.250000X0*%
%ADD34RoundRect,0.218750X0.218750X0.256250X-0.218750X0.256250X-0.218750X-0.256250X0.218750X-0.256250X0*%
%ADD35RoundRect,0.200000X0.200000X0.275000X-0.200000X0.275000X-0.200000X-0.275000X0.200000X-0.275000X0*%
G04 APERTURE END LIST*
D10*
X126835630Y-107000000D02*
X126835630Y-106500000D01*
X122500000Y-106500000D02*
X126500000Y-106500000D01*
X126500000Y-106500000D02*
X126500000Y-107000000D01*
X130000000Y-106500000D02*
X126835630Y-106500000D01*
X130000000Y-107000000D02*
X130000000Y-106500000D01*
X122183644Y-71965209D02*
X137165394Y-71965209D01*
X137165394Y-75722522D01*
X122183644Y-75722522D01*
X122183644Y-71965209D01*
G36*
X122183644Y-71965209D02*
G01*
X137165394Y-71965209D01*
X137165394Y-75722522D01*
X122183644Y-75722522D01*
X122183644Y-71965209D01*
G37*
X122500000Y-107020000D02*
X122500000Y-106500000D01*
G36*
X123693207Y-105670027D02*
G01*
X123738103Y-105678819D01*
X123780255Y-105693258D01*
X123820073Y-105713404D01*
X123856788Y-105738900D01*
X123888619Y-105768731D01*
X123915931Y-105803166D01*
X123938897Y-105842658D01*
X123961268Y-105899220D01*
X123975043Y-105961547D01*
X123979802Y-106030682D01*
X123974808Y-106100670D01*
X123960331Y-106163869D01*
X123936760Y-106221356D01*
X123912640Y-106261376D01*
X123884418Y-106295609D01*
X123851942Y-106324602D01*
X123814858Y-106348686D01*
X123760885Y-106372713D01*
X123704401Y-106387090D01*
X123644615Y-106391942D01*
X123595527Y-106388838D01*
X123550010Y-106379759D01*
X123507537Y-106364881D01*
X123467661Y-106344155D01*
X123430926Y-106317972D01*
X123399217Y-106287694D01*
X123372159Y-106253077D01*
X123349563Y-106213705D01*
X123327244Y-106157462D01*
X123313909Y-106099376D01*
X123309520Y-106040043D01*
X123405043Y-106040043D01*
X123409787Y-106103331D01*
X123423155Y-106156708D01*
X123444331Y-106201889D01*
X123473175Y-106240206D01*
X123509624Y-106272324D01*
X123549692Y-106294889D01*
X123594156Y-106308580D01*
X123644145Y-106313295D01*
X123695119Y-106308500D01*
X123740102Y-106294625D01*
X123780295Y-106271834D01*
X123816525Y-106239479D01*
X123844840Y-106200923D01*
X123865900Y-106154307D01*
X123879362Y-106098003D01*
X123884187Y-106029955D01*
X123880740Y-105973341D01*
X123870912Y-105923752D01*
X123855250Y-105880186D01*
X123832639Y-105840204D01*
X123804540Y-105807393D01*
X123770620Y-105780938D01*
X123732194Y-105761434D01*
X123690772Y-105749682D01*
X123645555Y-105745675D01*
X123597592Y-105749996D01*
X123553908Y-105762644D01*
X123513607Y-105783613D01*
X123476038Y-105813507D01*
X123452509Y-105841265D01*
X123433185Y-105876225D01*
X123418316Y-105919791D01*
X123408581Y-105973717D01*
X123405043Y-106040043D01*
X123309520Y-106040043D01*
X123309428Y-106038803D01*
X123313665Y-105968045D01*
X123325699Y-105906580D01*
X123344790Y-105853079D01*
X123370582Y-105806418D01*
X123403120Y-105765721D01*
X123442614Y-105730327D01*
X123485908Y-105703031D01*
X123533541Y-105683349D01*
X123586282Y-105671224D01*
X123645085Y-105667029D01*
X123693207Y-105670027D01*
G37*
G36*
X124559475Y-105677971D02*
G01*
X124652227Y-105677971D01*
X124652227Y-106083554D01*
X124649113Y-106154288D01*
X124640738Y-106209382D01*
X124628333Y-106251661D01*
X124608438Y-106290106D01*
X124580034Y-106323684D01*
X124542036Y-106352918D01*
X124498713Y-106373681D01*
X124444926Y-106387085D01*
X124378247Y-106391942D01*
X124313198Y-106387713D01*
X124260177Y-106376021D01*
X124217065Y-106357961D01*
X124179037Y-106331673D01*
X124149511Y-106299114D01*
X124127648Y-106259525D01*
X124113772Y-106215663D01*
X124104389Y-106158059D01*
X124100891Y-106083554D01*
X124100891Y-105677971D01*
X124193685Y-105677971D01*
X124193685Y-106084623D01*
X124196048Y-106146423D01*
X124202135Y-106190147D01*
X124210654Y-106219946D01*
X124224693Y-106246764D01*
X124243944Y-106268942D01*
X124268955Y-106287009D01*
X124297447Y-106299713D01*
X124330842Y-106307724D01*
X124370126Y-106310560D01*
X124422213Y-106306995D01*
X124462334Y-106297369D01*
X124492939Y-106282847D01*
X124515963Y-106263928D01*
X124532687Y-106239851D01*
X124546330Y-106204477D01*
X124555834Y-106154187D01*
X124559475Y-106084623D01*
X124559475Y-105677971D01*
G37*
G36*
X124984977Y-106381000D02*
G01*
X124984977Y-105759353D01*
X124753996Y-105759353D01*
X124753996Y-105677971D01*
X125309649Y-105677971D01*
X125309649Y-105759353D01*
X125077728Y-105759353D01*
X125077728Y-106381000D01*
X124984977Y-106381000D01*
G37*
D11*
G36*
X122707500Y-70931476D02*
G01*
X122205336Y-70931476D01*
X122205336Y-70865225D01*
X122707500Y-70865225D01*
X122707500Y-70931476D01*
G37*
G36*
X122707500Y-70389349D02*
G01*
X122601987Y-70455630D01*
X122532133Y-70503441D01*
X122510326Y-70522451D01*
X122498214Y-70537085D01*
X122489907Y-70552288D01*
X122484719Y-70567310D01*
X122482308Y-70604191D01*
X122482308Y-70681036D01*
X122707500Y-70681036D01*
X122707500Y-70747317D01*
X122205336Y-70747317D01*
X122205336Y-70525300D01*
X122205447Y-70522553D01*
X122261512Y-70522553D01*
X122261512Y-70681036D01*
X122426132Y-70681036D01*
X122426132Y-70538612D01*
X122423478Y-70495752D01*
X122416820Y-70467567D01*
X122409155Y-70451544D01*
X122399224Y-70438717D01*
X122386931Y-70428641D01*
X122365454Y-70418644D01*
X122342295Y-70415330D01*
X122319928Y-70418261D01*
X122300856Y-70426770D01*
X122284257Y-70441128D01*
X122272450Y-70459734D01*
X122264519Y-70486031D01*
X122261512Y-70522553D01*
X122205447Y-70522553D01*
X122207156Y-70480363D01*
X122211929Y-70447256D01*
X122218770Y-70423512D01*
X122229915Y-70401989D01*
X122245556Y-70383548D01*
X122266214Y-70367855D01*
X122289604Y-70356293D01*
X122314493Y-70349356D01*
X122341318Y-70347003D01*
X122367275Y-70349245D01*
X122390511Y-70355752D01*
X122411540Y-70366431D01*
X122430742Y-70381502D01*
X122446287Y-70399674D01*
X122459333Y-70422808D01*
X122469704Y-70451869D01*
X122476965Y-70488053D01*
X122490432Y-70463724D01*
X122502183Y-70448120D01*
X122531677Y-70420535D01*
X122569594Y-70393104D01*
X122707500Y-70306031D01*
X122707500Y-70389349D01*
G37*
G36*
X122707500Y-70241887D02*
G01*
X122205336Y-70241887D01*
X122205336Y-69879827D01*
X122263466Y-69879827D01*
X122263466Y-70175606D01*
X122418316Y-70175606D01*
X122418316Y-69898604D01*
X122476446Y-69898604D01*
X122476446Y-70175606D01*
X122649370Y-70175606D01*
X122649370Y-69868195D01*
X122707500Y-69868195D01*
X122707500Y-70241887D01*
G37*
G36*
X122707500Y-69773307D02*
G01*
X122205336Y-69773307D01*
X122205336Y-69435519D01*
X122263466Y-69435519D01*
X122263466Y-69707056D01*
X122420270Y-69707056D01*
X122420270Y-69472064D01*
X122478400Y-69472064D01*
X122478400Y-69707056D01*
X122707500Y-69707056D01*
X122707500Y-69773307D01*
G37*
D10*
G36*
X126637496Y-106381000D02*
G01*
X126551413Y-106381000D01*
X126551413Y-105831075D01*
X126517159Y-105859574D01*
X126469903Y-105890529D01*
X126420172Y-105917438D01*
X126379289Y-105935110D01*
X126379289Y-105853044D01*
X126426107Y-105828138D01*
X126468053Y-105800435D01*
X126505508Y-105769953D01*
X126539870Y-105735708D01*
X126564862Y-105704270D01*
X126582017Y-105675235D01*
X126637496Y-105675235D01*
X126637496Y-106381000D01*
G37*
G36*
X127161904Y-106381000D02*
G01*
X127161904Y-105677971D01*
X127301501Y-105677971D01*
X127467428Y-106175964D01*
X127500895Y-106280084D01*
X127538209Y-106167330D01*
X127706059Y-105677971D01*
X127830867Y-105677971D01*
X127830867Y-106381000D01*
X127741450Y-106381000D01*
X127741450Y-105792264D01*
X127537739Y-106381000D01*
X127454049Y-106381000D01*
X127251321Y-105782220D01*
X127251321Y-106381000D01*
X127161904Y-106381000D01*
G37*
G36*
X127951444Y-106299618D02*
G01*
X128104462Y-106299618D01*
X128058655Y-106255983D01*
X128022374Y-106210447D01*
X127994704Y-106162765D01*
X127975045Y-106112528D01*
X127963143Y-106059179D01*
X127959095Y-106002045D01*
X127963529Y-105939280D01*
X127976393Y-105882476D01*
X127997349Y-105830690D01*
X128026602Y-105783361D01*
X128062462Y-105743700D01*
X128105402Y-105710968D01*
X128141030Y-105692199D01*
X128180470Y-105678495D01*
X128224312Y-105669984D01*
X128273252Y-105667029D01*
X128336892Y-105671908D01*
X128390237Y-105685628D01*
X128435118Y-105707335D01*
X128475088Y-105737485D01*
X128510569Y-105775700D01*
X128541760Y-105822996D01*
X128564473Y-105874771D01*
X128578640Y-105933971D01*
X128583605Y-106002045D01*
X128579557Y-106059179D01*
X128567654Y-106112528D01*
X128547996Y-106162765D01*
X128520325Y-106210447D01*
X128484045Y-106255983D01*
X128438238Y-106299618D01*
X128591256Y-106299618D01*
X128591256Y-106381000D01*
X128318687Y-106381000D01*
X128318687Y-106304405D01*
X128364263Y-106278705D01*
X128401824Y-106248519D01*
X128432308Y-106213734D01*
X128456288Y-106173912D01*
X128473940Y-106128320D01*
X128485031Y-106075973D01*
X128488931Y-106015679D01*
X128484842Y-105957060D01*
X128473173Y-105905963D01*
X128454496Y-105861208D01*
X128428920Y-105821842D01*
X128396148Y-105788099D01*
X128359790Y-105764673D01*
X128319081Y-105750544D01*
X128272782Y-105745675D01*
X128224987Y-105750634D01*
X128183492Y-105764944D01*
X128146944Y-105788523D01*
X128114506Y-105822312D01*
X128089027Y-105861960D01*
X128070590Y-105906045D01*
X128059184Y-105955350D01*
X128055222Y-106010849D01*
X128059118Y-106072137D01*
X128070194Y-106125362D01*
X128087811Y-106171719D01*
X128111713Y-106212202D01*
X128142044Y-106247557D01*
X128179336Y-106278244D01*
X128224483Y-106304405D01*
X128224483Y-106381000D01*
X127951444Y-106381000D01*
X127951444Y-106299618D01*
G37*
D11*
G36*
X134817163Y-69811732D02*
G01*
X134759033Y-69811732D01*
X134758697Y-69599607D01*
X134944658Y-69599607D01*
X134968885Y-69633188D01*
X134988276Y-69666734D01*
X135003184Y-69700388D01*
X135014122Y-69735422D01*
X135020640Y-69770857D01*
X135022815Y-69806939D01*
X135019196Y-69855342D01*
X135008615Y-69899810D01*
X134991216Y-69941028D01*
X134973501Y-69969531D01*
X134952508Y-69993986D01*
X134928074Y-70014757D01*
X134899870Y-70032039D01*
X134859029Y-70048937D01*
X134814736Y-70059247D01*
X134766299Y-70062783D01*
X134718280Y-70059332D01*
X134672978Y-70049140D01*
X134629859Y-70032222D01*
X134599652Y-70014866D01*
X134574202Y-69994507D01*
X134553010Y-69971059D01*
X134535765Y-69944264D01*
X134518969Y-69904939D01*
X134508611Y-69861159D01*
X134505020Y-69812068D01*
X134507060Y-69776192D01*
X134512965Y-69743605D01*
X134522514Y-69713882D01*
X134536157Y-69685963D01*
X134552412Y-69663257D01*
X134571271Y-69645067D01*
X134593135Y-69630366D01*
X134620014Y-69617643D01*
X134652757Y-69607117D01*
X134669152Y-69666896D01*
X134633655Y-69680220D01*
X134609221Y-69694923D01*
X134596058Y-69707214D01*
X134584419Y-69722961D01*
X134574324Y-69742733D01*
X134564573Y-69775027D01*
X134561196Y-69811732D01*
X134562867Y-69841793D01*
X134567596Y-69867788D01*
X134575057Y-69890286D01*
X134591481Y-69920769D01*
X134611510Y-69943745D01*
X134635294Y-69961864D01*
X134661092Y-69975344D01*
X134692632Y-69985866D01*
X134726163Y-69992273D01*
X134762025Y-69994456D01*
X134806297Y-69991632D01*
X134843321Y-69983739D01*
X134874285Y-69971406D01*
X134902021Y-69953530D01*
X134924177Y-69931304D01*
X134941330Y-69904300D01*
X134953500Y-69874277D01*
X134960774Y-69843195D01*
X134963220Y-69810694D01*
X134961396Y-69782327D01*
X134955920Y-69754402D01*
X134946703Y-69726705D01*
X134928583Y-69688832D01*
X134911441Y-69664515D01*
X134817163Y-69664515D01*
X134817163Y-69811732D01*
G37*
G36*
X135015000Y-69502551D02*
G01*
X134512836Y-69502551D01*
X134512836Y-69434560D01*
X134907105Y-69171571D01*
X134512836Y-69171571D01*
X134512836Y-69108038D01*
X135015000Y-69108038D01*
X135015000Y-69175998D01*
X134620395Y-69439017D01*
X135015000Y-69439017D01*
X135015000Y-69502551D01*
G37*
G36*
X134799191Y-68584389D02*
G01*
X134832834Y-68588938D01*
X134862592Y-68596135D01*
X134904174Y-68611903D01*
X134935712Y-68630299D01*
X134962082Y-68652618D01*
X134981263Y-68675881D01*
X134995561Y-68702489D01*
X135006451Y-68735659D01*
X135012731Y-68772038D01*
X135015000Y-68816076D01*
X135015000Y-68996755D01*
X134512836Y-68996755D01*
X134512836Y-68825296D01*
X134570966Y-68825296D01*
X134570966Y-68930504D01*
X134956870Y-68930504D01*
X134956870Y-68823586D01*
X134954224Y-68776794D01*
X134947588Y-68745887D01*
X134936014Y-68719940D01*
X134921393Y-68700976D01*
X134904443Y-68686924D01*
X134883364Y-68674652D01*
X134857463Y-68664279D01*
X134830385Y-68657276D01*
X134798208Y-68652744D01*
X134760132Y-68651120D01*
X134719413Y-68653062D01*
X134686335Y-68658390D01*
X134659671Y-68666487D01*
X134638346Y-68676919D01*
X134612151Y-68696177D01*
X134593535Y-68716986D01*
X134581316Y-68739567D01*
X134576159Y-68757871D01*
X134572428Y-68785468D01*
X134570966Y-68825296D01*
X134512836Y-68825296D01*
X134512836Y-68824289D01*
X134514932Y-68769336D01*
X134520041Y-68735140D01*
X134528635Y-68707373D01*
X134540630Y-68683036D01*
X134556006Y-68661684D01*
X134580197Y-68637714D01*
X134608611Y-68618011D01*
X134641796Y-68602455D01*
X134677144Y-68591794D01*
X134716733Y-68585121D01*
X134761170Y-68582793D01*
X134799191Y-68584389D01*
G37*
G36*
X122707500Y-68540661D02*
G01*
X122555092Y-68599066D01*
X122555092Y-68808443D01*
X122707500Y-68863428D01*
X122707500Y-68933801D01*
X122205336Y-68741490D01*
X122205336Y-68707326D01*
X122257940Y-68707326D01*
X122305747Y-68718803D01*
X122353561Y-68734315D01*
X122500382Y-68789300D01*
X122500382Y-68619552D01*
X122361743Y-68671820D01*
X122301245Y-68693659D01*
X122257940Y-68707326D01*
X122205336Y-68707326D01*
X122205336Y-68670110D01*
X122707500Y-68465160D01*
X122707500Y-68540661D01*
G37*
G36*
X122491691Y-67999916D02*
G01*
X122525334Y-68004464D01*
X122555092Y-68011662D01*
X122596674Y-68027429D01*
X122628212Y-68045825D01*
X122654582Y-68068145D01*
X122673763Y-68091407D01*
X122688061Y-68118016D01*
X122698951Y-68151185D01*
X122705231Y-68187564D01*
X122707500Y-68231602D01*
X122707500Y-68412281D01*
X122205336Y-68412281D01*
X122205336Y-68240823D01*
X122263466Y-68240823D01*
X122263466Y-68346030D01*
X122649370Y-68346030D01*
X122649370Y-68239113D01*
X122646724Y-68192321D01*
X122640088Y-68161413D01*
X122628514Y-68135466D01*
X122613893Y-68116503D01*
X122596943Y-68102450D01*
X122575864Y-68090178D01*
X122549963Y-68079805D01*
X122522885Y-68072802D01*
X122490708Y-68068271D01*
X122452632Y-68066647D01*
X122411913Y-68068588D01*
X122378835Y-68073917D01*
X122352171Y-68082013D01*
X122330846Y-68092445D01*
X122304651Y-68111703D01*
X122286035Y-68132513D01*
X122273816Y-68155093D01*
X122268659Y-68173397D01*
X122264928Y-68200994D01*
X122263466Y-68240823D01*
X122205336Y-68240823D01*
X122205336Y-68239815D01*
X122207432Y-68184862D01*
X122212541Y-68150666D01*
X122221135Y-68122899D01*
X122233130Y-68098563D01*
X122248506Y-68077210D01*
X122272697Y-68053241D01*
X122301111Y-68033538D01*
X122334296Y-68017981D01*
X122369644Y-68007320D01*
X122409233Y-68000648D01*
X122453670Y-67998320D01*
X122491691Y-67999916D01*
G37*
G36*
X122531645Y-67549921D02*
G01*
X122548375Y-67483670D01*
X122588256Y-67496814D01*
X122621693Y-67513775D01*
X122649576Y-67534364D01*
X122672573Y-67558652D01*
X122691002Y-67586717D01*
X122704286Y-67617750D01*
X122712477Y-67652287D01*
X122715315Y-67691001D01*
X122712995Y-67731831D01*
X122706450Y-67766848D01*
X122696154Y-67796892D01*
X122682373Y-67822679D01*
X122664366Y-67846159D01*
X122642707Y-67866771D01*
X122617051Y-67884669D01*
X122586905Y-67899859D01*
X122544524Y-67914477D01*
X122499924Y-67923327D01*
X122452663Y-67926329D01*
X122401220Y-67922793D01*
X122356064Y-67912675D01*
X122316222Y-67896440D01*
X122288518Y-67879682D01*
X122264757Y-67860019D01*
X122244572Y-67837338D01*
X122227745Y-67811383D01*
X122211037Y-67773616D01*
X122200951Y-67733348D01*
X122197520Y-67689963D01*
X122200077Y-67652598D01*
X122207422Y-67619495D01*
X122219253Y-67590004D01*
X122235531Y-67563598D01*
X122256093Y-67540266D01*
X122280435Y-67520670D01*
X122308986Y-67504638D01*
X122342356Y-67492218D01*
X122357744Y-67557431D01*
X122323009Y-67571700D01*
X122297159Y-67588620D01*
X122278517Y-67607989D01*
X122265049Y-67631226D01*
X122256660Y-67658669D01*
X122253696Y-67691337D01*
X122257006Y-67728949D01*
X122266387Y-67760750D01*
X122281448Y-67787844D01*
X122301993Y-67811069D01*
X122326613Y-67829124D01*
X122355912Y-67842310D01*
X122387390Y-67851027D01*
X122419458Y-67856252D01*
X122452296Y-67858002D01*
X122494717Y-67855772D01*
X122531758Y-67849435D01*
X122564129Y-67839409D01*
X122593885Y-67824311D01*
X122617388Y-67805084D01*
X122635509Y-67781524D01*
X122648668Y-67754528D01*
X122656502Y-67726325D01*
X122659139Y-67696466D01*
X122657021Y-67668994D01*
X122650897Y-67644433D01*
X122640927Y-67622292D01*
X122627021Y-67602189D01*
X122609832Y-67585126D01*
X122588650Y-67570685D01*
X122562856Y-67558876D01*
X122531645Y-67549921D01*
G37*
G36*
X122518518Y-67102850D02*
G01*
X122565314Y-67109180D01*
X122601956Y-67118618D01*
X122636488Y-67133280D01*
X122664061Y-67151352D01*
X122685731Y-67172749D01*
X122701854Y-67198206D01*
X122711811Y-67228158D01*
X122715315Y-67263760D01*
X122711868Y-67298992D01*
X122702018Y-67329058D01*
X122685989Y-67355005D01*
X122663322Y-67377516D01*
X122638614Y-67393547D01*
X122607311Y-67407021D01*
X122568091Y-67417549D01*
X122519409Y-67424501D01*
X122459532Y-67427036D01*
X122400046Y-67424674D01*
X122353041Y-67418285D01*
X122316406Y-67408779D01*
X122281876Y-67394002D01*
X122254369Y-67375868D01*
X122232814Y-67354465D01*
X122216764Y-67329005D01*
X122206863Y-67299146D01*
X122203451Y-67264462D01*
X122254673Y-67264462D01*
X122256947Y-67284717D01*
X122263543Y-67302384D01*
X122274528Y-67318060D01*
X122290485Y-67332086D01*
X122313326Y-67344114D01*
X122346799Y-67354123D01*
X122394198Y-67361146D01*
X122459349Y-67363838D01*
X122525104Y-67361305D01*
X122571459Y-67354788D01*
X122602902Y-67345679D01*
X122623266Y-67334987D01*
X122641820Y-67318947D01*
X122654281Y-67301965D01*
X122661568Y-67283750D01*
X122664024Y-67263760D01*
X122661561Y-67243796D01*
X122654247Y-67225595D01*
X122641733Y-67208614D01*
X122623083Y-67192563D01*
X122602632Y-67181846D01*
X122571158Y-67172728D01*
X122524875Y-67166212D01*
X122459349Y-67163681D01*
X122393386Y-67166222D01*
X122346971Y-67172752D01*
X122315560Y-67181871D01*
X122295279Y-67192563D01*
X122276851Y-67208588D01*
X122264430Y-67225671D01*
X122257138Y-67244111D01*
X122254673Y-67264462D01*
X122203451Y-67264462D01*
X122203382Y-67263760D01*
X122205291Y-67237297D01*
X122210774Y-67213901D01*
X122219624Y-67193082D01*
X122231953Y-67174111D01*
X122247473Y-67157426D01*
X122266489Y-67142859D01*
X122299378Y-67125621D01*
X122341044Y-67111779D01*
X122388810Y-67103709D01*
X122459532Y-67100514D01*
X122518518Y-67102850D01*
G37*
D10*
G36*
X130890189Y-106202375D02*
G01*
X130977725Y-106194682D01*
X130984072Y-106229821D01*
X130993831Y-106258833D01*
X131006619Y-106282689D01*
X131023791Y-106303391D01*
X131046930Y-106321930D01*
X131077144Y-106338297D01*
X131109655Y-106349881D01*
X131145356Y-106357029D01*
X131184770Y-106359497D01*
X131235903Y-106355343D01*
X131278461Y-106343682D01*
X131304271Y-106331228D01*
X131324107Y-106316748D01*
X131338942Y-106300299D01*
X131353901Y-106271277D01*
X131358817Y-106240074D01*
X131353960Y-106208886D01*
X131339669Y-106182329D01*
X131316028Y-106160727D01*
X131276581Y-106140826D01*
X131239769Y-106129109D01*
X131151773Y-106106547D01*
X131062854Y-106081702D01*
X131016450Y-106062650D01*
X130984782Y-106042897D01*
X130960161Y-106021100D01*
X130941608Y-105997211D01*
X130927985Y-105970267D01*
X130919783Y-105941286D01*
X130916988Y-105909718D01*
X130920313Y-105875088D01*
X130930243Y-105842111D01*
X130947079Y-105810213D01*
X130969786Y-105782292D01*
X130998797Y-105758921D01*
X131035086Y-105739944D01*
X131074330Y-105726823D01*
X131117035Y-105718746D01*
X131163741Y-105715966D01*
X131215215Y-105718945D01*
X131260768Y-105727471D01*
X131301200Y-105741098D01*
X131338513Y-105760901D01*
X131368732Y-105785452D01*
X131392755Y-105814957D01*
X131410732Y-105848646D01*
X131422215Y-105885223D01*
X131427205Y-105925361D01*
X131338258Y-105932072D01*
X131329112Y-105889622D01*
X131312820Y-105856731D01*
X131289703Y-105831413D01*
X131260197Y-105813529D01*
X131220488Y-105801738D01*
X131167545Y-105797348D01*
X131111987Y-105801493D01*
X131072423Y-105812331D01*
X131044874Y-105828208D01*
X131023002Y-105850883D01*
X131010559Y-105875371D01*
X131006405Y-105902622D01*
X131009510Y-105926596D01*
X131018512Y-105947034D01*
X131033675Y-105964813D01*
X131054203Y-105977973D01*
X131096834Y-105994520D01*
X131173529Y-106014821D01*
X131277387Y-106041300D01*
X131328684Y-106059530D01*
X131367482Y-106081070D01*
X131397121Y-106104928D01*
X131419041Y-106131081D01*
X131435133Y-106161099D01*
X131444885Y-106194101D01*
X131448235Y-106230842D01*
X131444713Y-106267250D01*
X131434153Y-106302228D01*
X131416178Y-106336373D01*
X131392162Y-106366482D01*
X131361784Y-106392096D01*
X131324153Y-106413395D01*
X131283318Y-106428424D01*
X131238506Y-106437683D01*
X131189044Y-106440879D01*
X131125964Y-106437435D01*
X131073347Y-106427851D01*
X131029572Y-106413010D01*
X130989396Y-106391014D01*
X130956027Y-106363171D01*
X130928700Y-106329107D01*
X130908266Y-106290379D01*
X130895430Y-106248397D01*
X130890189Y-106202375D01*
G37*
G36*
X131577744Y-106429937D02*
G01*
X131577744Y-105726908D01*
X131670496Y-105726908D01*
X131670496Y-106016873D01*
X132034875Y-106016873D01*
X132034875Y-105726908D01*
X132127627Y-105726908D01*
X132127627Y-106429937D01*
X132034875Y-106429937D01*
X132034875Y-106098255D01*
X131670496Y-106098255D01*
X131670496Y-106429937D01*
X131577744Y-106429937D01*
G37*
G36*
X132742007Y-105726908D02*
G01*
X132834758Y-105726908D01*
X132834758Y-106132491D01*
X132831645Y-106203225D01*
X132823270Y-106258319D01*
X132810865Y-106300598D01*
X132790970Y-106339043D01*
X132762566Y-106372621D01*
X132724568Y-106401855D01*
X132681245Y-106422618D01*
X132627458Y-106436022D01*
X132560779Y-106440879D01*
X132495730Y-106436650D01*
X132442709Y-106424958D01*
X132399597Y-106406898D01*
X132361569Y-106380610D01*
X132332043Y-106348051D01*
X132310180Y-106308462D01*
X132296304Y-106264600D01*
X132286921Y-106206996D01*
X132283423Y-106132491D01*
X132283423Y-105726908D01*
X132376217Y-105726908D01*
X132376217Y-106133560D01*
X132378580Y-106195360D01*
X132384667Y-106239084D01*
X132393186Y-106268883D01*
X132407225Y-106295701D01*
X132426476Y-106317879D01*
X132451487Y-106335946D01*
X132479979Y-106348650D01*
X132513374Y-106356661D01*
X132552658Y-106359497D01*
X132604745Y-106355932D01*
X132644866Y-106346306D01*
X132675471Y-106331784D01*
X132698495Y-106312865D01*
X132715219Y-106288788D01*
X132728861Y-106253414D01*
X132738366Y-106203124D01*
X132742007Y-106133560D01*
X132742007Y-105726908D01*
G37*
G36*
X132988161Y-106429937D02*
G01*
X132988161Y-105726908D01*
X133083349Y-105726908D01*
X133451533Y-106278885D01*
X133451533Y-105726908D01*
X133540480Y-105726908D01*
X133540480Y-106429937D01*
X133445335Y-106429937D01*
X133077108Y-105877490D01*
X133077108Y-106429937D01*
X132988161Y-106429937D01*
G37*
G36*
X133874641Y-106429937D02*
G01*
X133874641Y-105808290D01*
X133643660Y-105808290D01*
X133643660Y-105726908D01*
X134199313Y-105726908D01*
X134199313Y-105808290D01*
X133967392Y-105808290D01*
X133967392Y-106429937D01*
X133874641Y-106429937D01*
G37*
G36*
X134551938Y-106429937D02*
G01*
X134551938Y-105726908D01*
X134644690Y-105726908D01*
X134644690Y-106016873D01*
X135009069Y-106016873D01*
X135009069Y-105726908D01*
X135101821Y-105726908D01*
X135101821Y-106429937D01*
X135009069Y-106429937D01*
X135009069Y-106098255D01*
X134644690Y-106098255D01*
X134644690Y-106429937D01*
X134551938Y-106429937D01*
G37*
G36*
X135258087Y-106429937D02*
G01*
X135258087Y-105726908D01*
X135764970Y-105726908D01*
X135764970Y-105808290D01*
X135350881Y-105808290D01*
X135350881Y-106025080D01*
X135738684Y-106025080D01*
X135738684Y-106106461D01*
X135350881Y-106106461D01*
X135350881Y-106348555D01*
X135781255Y-106348555D01*
X135781255Y-106429937D01*
X135258087Y-106429937D01*
G37*
G36*
X136284458Y-105729456D02*
G01*
X136330808Y-105736137D01*
X136364049Y-105745715D01*
X136394182Y-105761319D01*
X136419999Y-105783216D01*
X136441969Y-105812136D01*
X136458157Y-105844882D01*
X136467867Y-105879728D01*
X136471162Y-105917283D01*
X136468023Y-105953623D01*
X136458913Y-105986152D01*
X136443963Y-106015594D01*
X136422863Y-106042476D01*
X136397422Y-106064239D01*
X136365035Y-106082503D01*
X136324350Y-106097023D01*
X136273692Y-106107188D01*
X136307753Y-106126042D01*
X136329599Y-106142493D01*
X136368218Y-106183785D01*
X136406621Y-106236869D01*
X136528522Y-106429937D01*
X136411878Y-106429937D01*
X136319084Y-106282218D01*
X136252149Y-106184424D01*
X136225535Y-106153893D01*
X136205047Y-106136937D01*
X136183763Y-106125306D01*
X136162732Y-106118044D01*
X136111099Y-106114668D01*
X136003516Y-106114668D01*
X136003516Y-106429937D01*
X135910722Y-106429937D01*
X135910722Y-106036022D01*
X136003516Y-106036022D01*
X136202910Y-106036022D01*
X136262913Y-106032306D01*
X136302372Y-106022985D01*
X136324805Y-106012254D01*
X136342762Y-105998351D01*
X136356869Y-105981140D01*
X136370864Y-105951072D01*
X136375504Y-105918651D01*
X136371400Y-105887336D01*
X136359489Y-105860635D01*
X136339387Y-105837397D01*
X136313339Y-105820867D01*
X136276522Y-105809764D01*
X136225393Y-105805554D01*
X136003516Y-105805554D01*
X136003516Y-106036022D01*
X135910722Y-106036022D01*
X135910722Y-105726908D01*
X136221546Y-105726908D01*
X136284458Y-105729456D01*
G37*
G36*
X136618324Y-106429937D02*
G01*
X136618324Y-105726908D01*
X137125208Y-105726908D01*
X137125208Y-105808290D01*
X136711118Y-105808290D01*
X136711118Y-106025080D01*
X137098921Y-106025080D01*
X137098921Y-106106461D01*
X136711118Y-106106461D01*
X136711118Y-106348555D01*
X137141493Y-106348555D01*
X137141493Y-106429937D01*
X136618324Y-106429937D01*
G37*
D11*
G36*
X122101742Y-110233183D02*
G01*
X122161520Y-110224970D01*
X122165690Y-110263227D01*
X122173250Y-110288272D01*
X122183013Y-110303860D01*
X122197045Y-110315450D01*
X122214372Y-110322576D01*
X122235984Y-110325109D01*
X122259599Y-110322130D01*
X122279001Y-110313630D01*
X122294331Y-110300037D01*
X122303944Y-110282428D01*
X122308735Y-110259751D01*
X122310783Y-110219505D01*
X122310783Y-109873260D01*
X122377034Y-109873260D01*
X122377034Y-110214956D01*
X122375019Y-110257012D01*
X122369664Y-110288825D01*
X122361830Y-110312439D01*
X122349676Y-110333721D01*
X122333751Y-110351137D01*
X122313683Y-110365104D01*
X122291049Y-110374975D01*
X122265453Y-110381102D01*
X122236319Y-110383239D01*
X122203574Y-110380591D01*
X122176495Y-110373174D01*
X122154028Y-110361462D01*
X122135386Y-110345473D01*
X122120981Y-110325770D01*
X122110311Y-110301245D01*
X122103664Y-110270829D01*
X122101742Y-110233183D01*
G37*
G36*
X122718943Y-110199569D02*
G01*
X122786568Y-110199569D01*
X122786568Y-110255745D01*
X122718943Y-110255745D01*
X122718943Y-110375424D01*
X122657455Y-110375424D01*
X122657455Y-110255745D01*
X122440232Y-110255745D01*
X122440232Y-110199569D01*
X122500682Y-110199569D01*
X122657455Y-110199569D01*
X122657455Y-109973888D01*
X122500682Y-110199569D01*
X122440232Y-110199569D01*
X122668721Y-109875214D01*
X122718943Y-109875214D01*
X122718943Y-110199569D01*
G37*
G36*
X129455658Y-105120598D02*
G01*
X129488765Y-105125371D01*
X129512509Y-105132212D01*
X129534032Y-105143357D01*
X129552473Y-105158998D01*
X129568165Y-105179656D01*
X129579728Y-105203046D01*
X129586664Y-105227935D01*
X129589018Y-105254760D01*
X129586776Y-105280717D01*
X129580269Y-105303953D01*
X129569590Y-105324982D01*
X129554518Y-105344184D01*
X129536346Y-105359729D01*
X129513213Y-105372775D01*
X129484152Y-105383146D01*
X129447967Y-105390407D01*
X129472297Y-105403874D01*
X129487901Y-105415625D01*
X129515486Y-105445119D01*
X129542917Y-105483036D01*
X129629989Y-105620942D01*
X129546672Y-105620942D01*
X129480391Y-105515429D01*
X129432580Y-105445575D01*
X129413570Y-105423768D01*
X129398936Y-105411656D01*
X129383733Y-105403349D01*
X129368711Y-105398161D01*
X129331830Y-105395750D01*
X129254985Y-105395750D01*
X129254985Y-105620942D01*
X129188704Y-105620942D01*
X129188704Y-105339574D01*
X129254985Y-105339574D01*
X129397409Y-105339574D01*
X129440268Y-105336920D01*
X129468453Y-105330262D01*
X129484477Y-105322597D01*
X129497303Y-105312666D01*
X129507380Y-105300373D01*
X129517376Y-105278896D01*
X129520691Y-105255737D01*
X129517759Y-105233370D01*
X129509251Y-105214298D01*
X129494893Y-105197699D01*
X129476287Y-105185892D01*
X129449989Y-105177961D01*
X129413468Y-105174954D01*
X129254985Y-105174954D01*
X129254985Y-105339574D01*
X129188704Y-105339574D01*
X129188704Y-105118778D01*
X129410720Y-105118778D01*
X129455658Y-105120598D01*
G37*
G36*
X129667847Y-105488073D02*
G01*
X129732388Y-105482608D01*
X129739794Y-105512992D01*
X129751016Y-105536202D01*
X129765697Y-105553683D01*
X129784269Y-105566872D01*
X129805045Y-105574758D01*
X129828712Y-105577466D01*
X129850192Y-105575341D01*
X129869588Y-105569123D01*
X129887367Y-105558771D01*
X129903847Y-105543883D01*
X129916956Y-105526295D01*
X129926506Y-105505957D01*
X129932485Y-105482348D01*
X129934591Y-105454795D01*
X129932548Y-105428596D01*
X129926779Y-105406432D01*
X129917604Y-105387593D01*
X129905037Y-105371539D01*
X129883668Y-105354792D01*
X129858283Y-105344611D01*
X129827704Y-105341039D01*
X129799175Y-105344538D01*
X129774062Y-105354778D01*
X129752569Y-105370676D01*
X129736510Y-105390376D01*
X129678777Y-105382866D01*
X129727290Y-105124640D01*
X129976265Y-105124640D01*
X129976265Y-105182770D01*
X129776474Y-105182770D01*
X129749485Y-105318996D01*
X129780732Y-105300802D01*
X129812065Y-105290285D01*
X129844099Y-105286817D01*
X129876034Y-105289749D01*
X129904710Y-105298287D01*
X129930789Y-105312380D01*
X129954741Y-105332430D01*
X129974269Y-105356557D01*
X129988234Y-105383718D01*
X129996838Y-105414506D01*
X129999834Y-105449727D01*
X129997255Y-105483351D01*
X129989748Y-105513884D01*
X129977448Y-105541859D01*
X129960206Y-105567697D01*
X129939492Y-105589720D01*
X129916396Y-105606575D01*
X129890600Y-105618688D01*
X129861593Y-105626160D01*
X129828712Y-105628757D01*
X129794892Y-105626153D01*
X129765501Y-105618712D01*
X129739791Y-105606747D01*
X129717184Y-105590228D01*
X129698074Y-105569624D01*
X129683565Y-105546074D01*
X129673447Y-105519111D01*
X129667847Y-105488073D01*
G37*
G36*
X124726839Y-91459998D02*
G01*
X124793090Y-91459998D01*
X124793090Y-91749701D01*
X124790866Y-91800225D01*
X124784884Y-91839578D01*
X124776023Y-91869777D01*
X124761812Y-91897238D01*
X124741524Y-91921222D01*
X124714382Y-91942103D01*
X124683437Y-91956934D01*
X124645018Y-91966509D01*
X124597390Y-91969977D01*
X124550926Y-91966957D01*
X124513054Y-91958606D01*
X124482260Y-91945706D01*
X124455097Y-91926928D01*
X124434007Y-91903672D01*
X124418391Y-91875394D01*
X124408479Y-91844064D01*
X124401777Y-91802918D01*
X124399279Y-91749701D01*
X124399279Y-91459998D01*
X124465560Y-91459998D01*
X124465560Y-91750464D01*
X124467248Y-91794607D01*
X124471596Y-91825838D01*
X124477681Y-91847123D01*
X124487708Y-91866279D01*
X124501460Y-91882120D01*
X124519324Y-91895025D01*
X124539676Y-91904099D01*
X124563529Y-91909822D01*
X124591589Y-91911847D01*
X124628794Y-91909301D01*
X124657452Y-91902426D01*
X124679313Y-91892053D01*
X124695759Y-91878539D01*
X124707705Y-91861341D01*
X124717449Y-91836074D01*
X124724238Y-91800152D01*
X124726839Y-91750464D01*
X124726839Y-91459998D01*
G37*
G36*
X125109995Y-91962162D02*
G01*
X125048507Y-91962162D01*
X125048507Y-91569358D01*
X125024039Y-91589715D01*
X124990285Y-91611826D01*
X124954763Y-91631046D01*
X124925561Y-91643669D01*
X124925561Y-91585051D01*
X124959002Y-91567260D01*
X124988964Y-91547472D01*
X125015717Y-91525700D01*
X125040262Y-91501239D01*
X125058113Y-91478783D01*
X125070366Y-91458044D01*
X125109995Y-91458044D01*
X125109995Y-91962162D01*
G37*
G36*
X136505336Y-102364418D02*
G01*
X136505336Y-102298167D01*
X136795039Y-102298167D01*
X136845563Y-102300391D01*
X136884916Y-102306373D01*
X136915115Y-102315234D01*
X136942576Y-102329445D01*
X136966560Y-102349733D01*
X136987441Y-102376875D01*
X137002272Y-102407820D01*
X137011847Y-102446239D01*
X137015315Y-102493867D01*
X137012295Y-102540331D01*
X137003944Y-102578203D01*
X136991044Y-102608997D01*
X136972266Y-102636160D01*
X136949010Y-102657250D01*
X136920732Y-102672866D01*
X136889402Y-102682778D01*
X136848256Y-102689480D01*
X136795039Y-102691978D01*
X136505336Y-102691978D01*
X136505336Y-102625697D01*
X136795802Y-102625697D01*
X136839945Y-102624009D01*
X136871176Y-102619661D01*
X136892461Y-102613576D01*
X136911617Y-102603549D01*
X136927458Y-102589797D01*
X136940363Y-102571933D01*
X136949437Y-102551581D01*
X136955160Y-102527728D01*
X136957185Y-102499668D01*
X136954639Y-102462463D01*
X136947764Y-102433805D01*
X136937391Y-102411944D01*
X136923877Y-102395498D01*
X136906679Y-102383552D01*
X136881412Y-102373808D01*
X136845490Y-102367019D01*
X136795802Y-102364418D01*
X136505336Y-102364418D01*
G37*
G36*
X136949370Y-101889732D02*
G01*
X137007500Y-101889732D01*
X137007500Y-102220681D01*
X136985732Y-102219234D01*
X136964879Y-102213507D01*
X136932130Y-102197519D01*
X136898415Y-102173054D01*
X136865350Y-102141369D01*
X136822730Y-102092606D01*
X136775991Y-102038579D01*
X136741319Y-102003381D01*
X136716179Y-101982300D01*
X136688905Y-101965592D01*
X136664371Y-101956460D01*
X136641837Y-101953602D01*
X136618477Y-101956551D01*
X136598091Y-101965168D01*
X136579922Y-101979736D01*
X136566115Y-101998498D01*
X136557653Y-102020863D01*
X136554673Y-102047849D01*
X136557859Y-102076350D01*
X136566863Y-102099656D01*
X136581509Y-102118924D01*
X136600917Y-102133344D01*
X136625215Y-102142456D01*
X136655790Y-102145882D01*
X136649256Y-102209080D01*
X136614038Y-102203155D01*
X136584842Y-102192854D01*
X136560656Y-102178547D01*
X136540721Y-102160231D01*
X136524906Y-102138157D01*
X136513293Y-102112348D01*
X136505973Y-102082096D01*
X136503382Y-102046506D01*
X136506156Y-102010703D01*
X136513997Y-101980351D01*
X136526473Y-101954498D01*
X136543560Y-101932414D01*
X136564973Y-101913939D01*
X136588376Y-101900965D01*
X136614206Y-101893106D01*
X136643089Y-101890404D01*
X136672859Y-101893444D01*
X136702471Y-101902708D01*
X136731192Y-101918249D01*
X136763928Y-101943527D01*
X136798411Y-101977461D01*
X136852466Y-102038293D01*
X136895903Y-102088431D01*
X136915878Y-102109368D01*
X136932888Y-102123939D01*
X136949370Y-102135288D01*
X136949370Y-101889732D01*
G37*
G36*
X128634464Y-67383667D02*
G01*
X128694242Y-67375454D01*
X128698412Y-67413711D01*
X128705972Y-67438756D01*
X128715735Y-67454344D01*
X128729767Y-67465934D01*
X128747094Y-67473060D01*
X128768706Y-67475593D01*
X128792321Y-67472614D01*
X128811723Y-67464114D01*
X128827053Y-67450521D01*
X128836666Y-67432912D01*
X128841457Y-67410235D01*
X128843505Y-67369989D01*
X128843505Y-67023744D01*
X128909756Y-67023744D01*
X128909756Y-67365440D01*
X128907741Y-67407496D01*
X128902386Y-67439309D01*
X128894552Y-67462923D01*
X128882398Y-67484205D01*
X128866473Y-67501621D01*
X128846405Y-67515588D01*
X128823771Y-67525459D01*
X128798175Y-67531586D01*
X128769041Y-67533723D01*
X128736296Y-67531075D01*
X128709217Y-67523658D01*
X128686750Y-67511946D01*
X128668108Y-67495957D01*
X128653703Y-67476254D01*
X128643033Y-67451729D01*
X128636386Y-67421313D01*
X128634464Y-67383667D01*
G37*
G36*
X129224676Y-67525908D02*
G01*
X129163188Y-67525908D01*
X129163188Y-67133104D01*
X129138721Y-67153461D01*
X129104967Y-67175572D01*
X129069444Y-67194792D01*
X129040242Y-67207415D01*
X129040242Y-67148797D01*
X129073684Y-67131006D01*
X129103645Y-67111218D01*
X129130399Y-67089446D01*
X129154943Y-67064985D01*
X129172794Y-67042529D01*
X129185048Y-67021790D01*
X129224676Y-67021790D01*
X129224676Y-67525908D01*
G37*
G36*
X128717163Y-69831732D02*
G01*
X128659033Y-69831732D01*
X128658697Y-69619607D01*
X128844658Y-69619607D01*
X128868885Y-69653188D01*
X128888276Y-69686734D01*
X128903184Y-69720388D01*
X128914122Y-69755422D01*
X128920640Y-69790857D01*
X128922815Y-69826939D01*
X128919196Y-69875342D01*
X128908615Y-69919810D01*
X128891216Y-69961028D01*
X128873501Y-69989531D01*
X128852508Y-70013986D01*
X128828074Y-70034757D01*
X128799870Y-70052039D01*
X128759029Y-70068937D01*
X128714736Y-70079247D01*
X128666299Y-70082783D01*
X128618280Y-70079332D01*
X128572978Y-70069140D01*
X128529859Y-70052222D01*
X128499652Y-70034866D01*
X128474202Y-70014507D01*
X128453010Y-69991059D01*
X128435765Y-69964264D01*
X128418969Y-69924939D01*
X128408611Y-69881159D01*
X128405020Y-69832068D01*
X128407060Y-69796192D01*
X128412965Y-69763605D01*
X128422514Y-69733882D01*
X128436157Y-69705963D01*
X128452412Y-69683257D01*
X128471271Y-69665067D01*
X128493135Y-69650366D01*
X128520014Y-69637643D01*
X128552757Y-69627117D01*
X128569152Y-69686896D01*
X128533655Y-69700220D01*
X128509221Y-69714923D01*
X128496058Y-69727214D01*
X128484419Y-69742961D01*
X128474324Y-69762733D01*
X128464573Y-69795027D01*
X128461196Y-69831732D01*
X128462867Y-69861793D01*
X128467596Y-69887788D01*
X128475057Y-69910286D01*
X128491481Y-69940769D01*
X128511510Y-69963745D01*
X128535294Y-69981864D01*
X128561092Y-69995344D01*
X128592632Y-70005866D01*
X128626163Y-70012273D01*
X128662025Y-70014456D01*
X128706297Y-70011632D01*
X128743321Y-70003739D01*
X128774285Y-69991406D01*
X128802021Y-69973530D01*
X128824177Y-69951304D01*
X128841330Y-69924300D01*
X128853500Y-69894277D01*
X128860774Y-69863195D01*
X128863220Y-69830694D01*
X128861396Y-69802327D01*
X128855920Y-69774402D01*
X128846703Y-69746705D01*
X128828583Y-69708832D01*
X128811441Y-69684515D01*
X128717163Y-69684515D01*
X128717163Y-69831732D01*
G37*
G36*
X128915000Y-69522551D02*
G01*
X128412836Y-69522551D01*
X128412836Y-69454560D01*
X128807105Y-69191571D01*
X128412836Y-69191571D01*
X128412836Y-69128038D01*
X128915000Y-69128038D01*
X128915000Y-69195998D01*
X128520395Y-69459017D01*
X128915000Y-69459017D01*
X128915000Y-69522551D01*
G37*
G36*
X128699191Y-68604389D02*
G01*
X128732834Y-68608938D01*
X128762592Y-68616135D01*
X128804174Y-68631903D01*
X128835712Y-68650299D01*
X128862082Y-68672618D01*
X128881263Y-68695881D01*
X128895561Y-68722489D01*
X128906451Y-68755659D01*
X128912731Y-68792038D01*
X128915000Y-68836076D01*
X128915000Y-69016755D01*
X128412836Y-69016755D01*
X128412836Y-68845296D01*
X128470966Y-68845296D01*
X128470966Y-68950504D01*
X128856870Y-68950504D01*
X128856870Y-68843586D01*
X128854224Y-68796794D01*
X128847588Y-68765887D01*
X128836014Y-68739940D01*
X128821393Y-68720976D01*
X128804443Y-68706924D01*
X128783364Y-68694652D01*
X128757463Y-68684279D01*
X128730385Y-68677276D01*
X128698208Y-68672744D01*
X128660132Y-68671120D01*
X128619413Y-68673062D01*
X128586335Y-68678390D01*
X128559671Y-68686487D01*
X128538346Y-68696919D01*
X128512151Y-68716177D01*
X128493535Y-68736986D01*
X128481316Y-68759567D01*
X128476159Y-68777871D01*
X128472428Y-68805468D01*
X128470966Y-68845296D01*
X128412836Y-68845296D01*
X128412836Y-68844289D01*
X128414932Y-68789336D01*
X128420041Y-68755140D01*
X128428635Y-68727373D01*
X128440630Y-68703036D01*
X128456006Y-68681684D01*
X128480197Y-68657714D01*
X128508611Y-68638011D01*
X128541796Y-68622455D01*
X128577144Y-68611794D01*
X128616733Y-68605121D01*
X128661170Y-68602793D01*
X128699191Y-68604389D01*
G37*
D12*
G36*
X126771070Y-90957500D02*
G01*
X126771070Y-90455336D01*
X126837321Y-90455336D01*
X126837321Y-90957500D01*
X126771070Y-90957500D01*
G37*
G36*
X127311488Y-90781645D02*
G01*
X127377739Y-90798375D01*
X127364594Y-90838256D01*
X127347634Y-90871693D01*
X127327045Y-90899576D01*
X127302756Y-90922573D01*
X127274692Y-90941002D01*
X127243658Y-90954286D01*
X127209121Y-90962477D01*
X127170407Y-90965315D01*
X127129577Y-90962995D01*
X127094560Y-90956450D01*
X127064516Y-90946154D01*
X127038730Y-90932373D01*
X127015249Y-90914366D01*
X126994637Y-90892707D01*
X126976739Y-90867051D01*
X126961549Y-90836905D01*
X126946931Y-90794524D01*
X126938081Y-90749924D01*
X126935079Y-90702663D01*
X126938615Y-90651220D01*
X126948733Y-90606064D01*
X126964968Y-90566222D01*
X126981726Y-90538518D01*
X127001389Y-90514757D01*
X127024071Y-90494572D01*
X127050026Y-90477745D01*
X127087792Y-90461037D01*
X127128061Y-90450951D01*
X127171445Y-90447520D01*
X127208810Y-90450077D01*
X127241913Y-90457422D01*
X127271404Y-90469253D01*
X127297810Y-90485531D01*
X127321142Y-90506093D01*
X127340738Y-90530435D01*
X127356770Y-90558986D01*
X127369190Y-90592356D01*
X127303977Y-90607744D01*
X127289708Y-90573009D01*
X127272788Y-90547159D01*
X127253419Y-90528517D01*
X127230182Y-90515049D01*
X127202739Y-90506660D01*
X127170071Y-90503696D01*
X127132459Y-90507006D01*
X127100658Y-90516387D01*
X127073565Y-90531448D01*
X127050339Y-90551993D01*
X127032284Y-90576613D01*
X127019098Y-90605912D01*
X127010381Y-90637390D01*
X127005157Y-90669458D01*
X127003406Y-90702296D01*
X127005637Y-90744717D01*
X127011973Y-90781758D01*
X127021999Y-90814129D01*
X127037097Y-90843885D01*
X127056324Y-90867388D01*
X127079884Y-90885509D01*
X127106880Y-90898668D01*
X127135083Y-90906502D01*
X127164942Y-90909139D01*
X127192415Y-90907021D01*
X127216975Y-90900897D01*
X127239116Y-90890927D01*
X127259220Y-90877021D01*
X127276282Y-90859832D01*
X127290723Y-90838650D01*
X127302532Y-90812856D01*
X127311488Y-90781645D01*
G37*
G36*
X127757475Y-90899370D02*
G01*
X127757475Y-90957500D01*
X127426526Y-90957500D01*
X127427974Y-90935732D01*
X127433701Y-90914879D01*
X127449688Y-90882130D01*
X127474153Y-90848415D01*
X127505838Y-90815350D01*
X127554601Y-90772730D01*
X127608628Y-90725991D01*
X127643826Y-90691319D01*
X127664907Y-90666179D01*
X127681616Y-90638905D01*
X127690747Y-90614371D01*
X127693606Y-90591837D01*
X127690656Y-90568477D01*
X127682040Y-90548091D01*
X127667472Y-90529922D01*
X127648709Y-90516115D01*
X127626344Y-90507653D01*
X127599358Y-90504673D01*
X127570857Y-90507859D01*
X127547552Y-90516863D01*
X127528284Y-90531509D01*
X127513863Y-90550917D01*
X127504751Y-90575215D01*
X127501325Y-90605790D01*
X127438128Y-90599256D01*
X127444053Y-90564038D01*
X127454353Y-90534842D01*
X127468661Y-90510656D01*
X127486976Y-90490721D01*
X127509050Y-90474906D01*
X127534860Y-90463293D01*
X127565111Y-90455973D01*
X127600702Y-90453382D01*
X127636504Y-90456156D01*
X127666856Y-90463997D01*
X127692709Y-90476473D01*
X127714794Y-90493560D01*
X127733269Y-90514973D01*
X127746242Y-90538376D01*
X127754101Y-90564206D01*
X127756803Y-90593089D01*
X127753763Y-90622859D01*
X127744500Y-90652471D01*
X127728959Y-90681192D01*
X127703681Y-90713928D01*
X127669747Y-90748411D01*
X127608914Y-90802466D01*
X127558776Y-90845903D01*
X127537840Y-90865878D01*
X127523268Y-90882888D01*
X127511919Y-90899370D01*
X127757475Y-90899370D01*
G37*
D11*
G36*
X133209000Y-96089067D02*
G01*
X133242107Y-96093840D01*
X133265851Y-96100681D01*
X133287374Y-96111826D01*
X133305815Y-96127467D01*
X133321507Y-96148125D01*
X133333070Y-96171515D01*
X133340006Y-96196404D01*
X133342360Y-96223229D01*
X133340118Y-96249186D01*
X133333611Y-96272422D01*
X133322932Y-96293451D01*
X133307860Y-96312653D01*
X133289688Y-96328198D01*
X133266555Y-96341244D01*
X133237494Y-96351615D01*
X133201309Y-96358876D01*
X133225639Y-96372343D01*
X133241243Y-96384094D01*
X133268828Y-96413588D01*
X133296259Y-96451505D01*
X133383331Y-96589411D01*
X133300014Y-96589411D01*
X133233733Y-96483898D01*
X133185922Y-96414044D01*
X133166912Y-96392237D01*
X133152278Y-96380125D01*
X133137075Y-96371818D01*
X133122053Y-96366630D01*
X133085172Y-96364219D01*
X133008327Y-96364219D01*
X133008327Y-96589411D01*
X132942046Y-96589411D01*
X132942046Y-96308043D01*
X133008327Y-96308043D01*
X133150751Y-96308043D01*
X133193610Y-96305389D01*
X133221795Y-96298731D01*
X133237819Y-96291066D01*
X133250645Y-96281135D01*
X133260722Y-96268842D01*
X133270718Y-96247365D01*
X133274033Y-96224206D01*
X133271101Y-96201839D01*
X133262593Y-96182767D01*
X133248235Y-96166168D01*
X133229629Y-96154361D01*
X133203331Y-96146430D01*
X133166810Y-96143423D01*
X133008327Y-96143423D01*
X133008327Y-96308043D01*
X132942046Y-96308043D01*
X132942046Y-96087247D01*
X133164062Y-96087247D01*
X133209000Y-96089067D01*
G37*
G36*
X133679751Y-96413556D02*
G01*
X133747375Y-96413556D01*
X133747375Y-96469732D01*
X133679751Y-96469732D01*
X133679751Y-96589411D01*
X133618263Y-96589411D01*
X133618263Y-96469732D01*
X133401039Y-96469732D01*
X133401039Y-96413556D01*
X133461489Y-96413556D01*
X133618263Y-96413556D01*
X133618263Y-96187875D01*
X133461489Y-96413556D01*
X133401039Y-96413556D01*
X133629528Y-96089201D01*
X133679751Y-96089201D01*
X133679751Y-96413556D01*
G37*
G36*
X131870614Y-81118843D02*
G01*
X131903721Y-81123616D01*
X131927465Y-81130457D01*
X131948988Y-81141602D01*
X131967429Y-81157243D01*
X131983121Y-81177901D01*
X131994684Y-81201291D01*
X132001620Y-81226180D01*
X132003974Y-81253005D01*
X132001732Y-81278962D01*
X131995225Y-81302198D01*
X131984546Y-81323227D01*
X131969474Y-81342429D01*
X131951302Y-81357974D01*
X131928169Y-81371020D01*
X131899108Y-81381391D01*
X131862923Y-81388652D01*
X131887253Y-81402119D01*
X131902857Y-81413870D01*
X131930442Y-81443364D01*
X131957873Y-81481281D01*
X132044945Y-81619187D01*
X131961628Y-81619187D01*
X131895347Y-81513674D01*
X131847536Y-81443820D01*
X131828526Y-81422013D01*
X131813892Y-81409901D01*
X131798689Y-81401594D01*
X131783667Y-81396406D01*
X131746786Y-81393995D01*
X131669941Y-81393995D01*
X131669941Y-81619187D01*
X131603660Y-81619187D01*
X131603660Y-81337819D01*
X131669941Y-81337819D01*
X131812365Y-81337819D01*
X131855224Y-81335165D01*
X131883409Y-81328507D01*
X131899433Y-81320842D01*
X131912259Y-81310911D01*
X131922336Y-81298618D01*
X131932332Y-81277141D01*
X131935647Y-81253982D01*
X131932715Y-81231615D01*
X131924207Y-81212543D01*
X131909849Y-81195944D01*
X131891243Y-81184137D01*
X131864945Y-81176206D01*
X131828424Y-81173199D01*
X131669941Y-81173199D01*
X131669941Y-81337819D01*
X131603660Y-81337819D01*
X131603660Y-81117023D01*
X131825676Y-81117023D01*
X131870614Y-81118843D01*
G37*
G36*
X132405906Y-81561057D02*
G01*
X132405906Y-81619187D01*
X132074957Y-81619187D01*
X132076404Y-81597419D01*
X132082131Y-81576566D01*
X132098119Y-81543817D01*
X132122584Y-81510102D01*
X132154269Y-81477037D01*
X132203032Y-81434417D01*
X132257059Y-81387678D01*
X132292257Y-81353006D01*
X132313338Y-81327866D01*
X132330046Y-81300592D01*
X132339178Y-81276058D01*
X132342036Y-81253524D01*
X132339087Y-81230164D01*
X132330470Y-81209778D01*
X132315902Y-81191609D01*
X132297140Y-81177802D01*
X132274775Y-81169340D01*
X132247789Y-81166360D01*
X132219288Y-81169546D01*
X132195982Y-81178550D01*
X132176714Y-81193196D01*
X132162294Y-81212604D01*
X132153182Y-81236902D01*
X132149756Y-81267477D01*
X132086558Y-81260943D01*
X132092483Y-81225725D01*
X132102784Y-81196529D01*
X132117091Y-81172343D01*
X132135407Y-81152408D01*
X132157481Y-81136593D01*
X132183290Y-81124980D01*
X132213542Y-81117660D01*
X132249132Y-81115069D01*
X132284935Y-81117843D01*
X132315287Y-81125684D01*
X132341140Y-81138160D01*
X132363224Y-81155247D01*
X132381699Y-81176660D01*
X132394673Y-81200063D01*
X132402532Y-81225893D01*
X132405234Y-81254776D01*
X132402194Y-81284546D01*
X132392930Y-81314158D01*
X132377389Y-81342879D01*
X132352111Y-81375615D01*
X132318177Y-81410098D01*
X132257345Y-81464153D01*
X132207207Y-81507590D01*
X132186270Y-81527565D01*
X132171699Y-81544575D01*
X132160350Y-81561057D01*
X132405906Y-81561057D01*
G37*
G36*
X131717378Y-101460339D02*
G01*
X131783629Y-101477069D01*
X131770485Y-101516950D01*
X131753524Y-101550387D01*
X131732935Y-101578270D01*
X131708647Y-101601267D01*
X131680582Y-101619696D01*
X131649549Y-101632980D01*
X131615012Y-101641171D01*
X131576298Y-101644009D01*
X131535468Y-101641689D01*
X131500451Y-101635144D01*
X131470407Y-101624848D01*
X131444620Y-101611067D01*
X131421140Y-101593060D01*
X131400528Y-101571401D01*
X131382630Y-101545745D01*
X131367439Y-101515599D01*
X131352822Y-101473218D01*
X131343972Y-101428618D01*
X131340970Y-101381357D01*
X131344506Y-101329914D01*
X131354624Y-101284758D01*
X131370859Y-101244916D01*
X131387617Y-101217212D01*
X131407280Y-101193451D01*
X131429961Y-101173266D01*
X131455916Y-101156439D01*
X131493683Y-101139731D01*
X131533951Y-101129645D01*
X131577336Y-101126214D01*
X131614701Y-101128771D01*
X131647804Y-101136116D01*
X131677295Y-101147947D01*
X131703701Y-101164225D01*
X131727033Y-101184787D01*
X131746629Y-101209129D01*
X131762661Y-101237680D01*
X131775081Y-101271050D01*
X131709868Y-101286438D01*
X131695599Y-101251703D01*
X131678679Y-101225853D01*
X131659310Y-101207211D01*
X131636073Y-101193743D01*
X131608630Y-101185354D01*
X131575962Y-101182390D01*
X131538350Y-101185700D01*
X131506549Y-101195081D01*
X131479455Y-101210142D01*
X131456230Y-101230687D01*
X131438175Y-101255307D01*
X131424989Y-101284606D01*
X131416272Y-101316084D01*
X131411047Y-101348152D01*
X131409297Y-101380990D01*
X131411527Y-101423411D01*
X131417864Y-101460452D01*
X131427890Y-101492823D01*
X131442988Y-101522579D01*
X131462215Y-101546082D01*
X131485775Y-101564203D01*
X131512771Y-101577362D01*
X131540974Y-101585196D01*
X131570833Y-101587833D01*
X131598305Y-101585715D01*
X131622866Y-101579591D01*
X131645007Y-101569621D01*
X131665110Y-101555715D01*
X131682173Y-101538526D01*
X131696613Y-101517344D01*
X131708423Y-101491550D01*
X131717378Y-101460339D01*
G37*
G36*
X131840263Y-101503325D02*
G01*
X131904804Y-101497860D01*
X131912210Y-101528244D01*
X131923432Y-101551454D01*
X131938113Y-101568935D01*
X131956685Y-101582124D01*
X131977461Y-101590010D01*
X132001128Y-101592718D01*
X132022608Y-101590593D01*
X132042004Y-101584375D01*
X132059783Y-101574023D01*
X132076263Y-101559135D01*
X132089372Y-101541547D01*
X132098922Y-101521209D01*
X132104901Y-101497600D01*
X132107007Y-101470047D01*
X132104964Y-101443848D01*
X132099195Y-101421684D01*
X132090020Y-101402845D01*
X132077453Y-101386791D01*
X132056084Y-101370044D01*
X132030699Y-101359863D01*
X132000120Y-101356291D01*
X131971591Y-101359790D01*
X131946478Y-101370030D01*
X131924985Y-101385928D01*
X131908926Y-101405628D01*
X131851193Y-101398118D01*
X131899706Y-101139892D01*
X132148681Y-101139892D01*
X132148681Y-101198022D01*
X131948890Y-101198022D01*
X131921901Y-101334248D01*
X131953148Y-101316054D01*
X131984481Y-101305537D01*
X132016515Y-101302069D01*
X132048450Y-101305001D01*
X132077126Y-101313539D01*
X132103205Y-101327632D01*
X132127157Y-101347682D01*
X132146685Y-101371809D01*
X132160650Y-101398970D01*
X132169254Y-101429758D01*
X132172250Y-101464979D01*
X132169671Y-101498603D01*
X132162164Y-101529136D01*
X132149864Y-101557111D01*
X132132622Y-101582949D01*
X132111908Y-101604972D01*
X132088812Y-101621827D01*
X132063016Y-101633940D01*
X132034009Y-101641412D01*
X132001128Y-101644009D01*
X131967308Y-101641405D01*
X131937917Y-101633964D01*
X131912207Y-101621999D01*
X131889600Y-101605480D01*
X131870490Y-101584876D01*
X131855981Y-101561326D01*
X131845863Y-101534363D01*
X131840263Y-101503325D01*
G37*
G36*
X136250362Y-98108987D02*
G01*
X136316613Y-98125717D01*
X136303469Y-98165598D01*
X136286508Y-98199035D01*
X136265919Y-98226918D01*
X136241631Y-98249915D01*
X136213566Y-98268344D01*
X136182533Y-98281628D01*
X136147996Y-98289819D01*
X136109282Y-98292657D01*
X136068452Y-98290337D01*
X136033435Y-98283792D01*
X136003391Y-98273496D01*
X135977604Y-98259715D01*
X135954124Y-98241708D01*
X135933512Y-98220049D01*
X135915614Y-98194393D01*
X135900423Y-98164247D01*
X135885806Y-98121866D01*
X135876956Y-98077266D01*
X135873954Y-98030005D01*
X135877490Y-97978562D01*
X135887608Y-97933406D01*
X135903843Y-97893564D01*
X135920601Y-97865860D01*
X135940264Y-97842099D01*
X135962945Y-97821914D01*
X135988900Y-97805087D01*
X136026667Y-97788379D01*
X136066935Y-97778293D01*
X136110320Y-97774862D01*
X136147685Y-97777419D01*
X136180788Y-97784764D01*
X136210279Y-97796595D01*
X136236685Y-97812873D01*
X136260017Y-97833435D01*
X136279613Y-97857777D01*
X136295645Y-97886328D01*
X136308065Y-97919698D01*
X136242852Y-97935086D01*
X136228583Y-97900351D01*
X136211663Y-97874501D01*
X136192294Y-97855859D01*
X136169057Y-97842391D01*
X136141614Y-97834002D01*
X136108946Y-97831038D01*
X136071334Y-97834348D01*
X136039533Y-97843729D01*
X136012439Y-97858790D01*
X135989214Y-97879335D01*
X135971159Y-97903955D01*
X135957973Y-97933254D01*
X135949256Y-97964732D01*
X135944031Y-97996800D01*
X135942281Y-98029638D01*
X135944511Y-98072059D01*
X135950848Y-98109100D01*
X135960874Y-98141471D01*
X135975972Y-98171227D01*
X135995199Y-98194730D01*
X136018759Y-98212851D01*
X136045755Y-98226010D01*
X136073958Y-98233844D01*
X136103817Y-98236481D01*
X136131289Y-98234363D01*
X136155850Y-98228239D01*
X136177991Y-98218269D01*
X136198094Y-98204363D01*
X136215157Y-98187174D01*
X136229597Y-98165992D01*
X136241407Y-98140198D01*
X136250362Y-98108987D01*
G37*
G36*
X136579453Y-97782954D02*
G01*
X136604956Y-97789328D01*
X136627312Y-97799579D01*
X136647013Y-97813728D01*
X136663661Y-97831375D01*
X136676732Y-97852109D01*
X136686322Y-97876407D01*
X136692259Y-97904922D01*
X136631137Y-97909684D01*
X136620434Y-97877208D01*
X136607903Y-97857905D01*
X136589924Y-97843485D01*
X136569682Y-97834943D01*
X136546415Y-97832015D01*
X136527373Y-97833879D01*
X136510328Y-97839312D01*
X136494849Y-97848318D01*
X136477368Y-97863973D01*
X136462099Y-97884229D01*
X136449054Y-97909868D01*
X136440408Y-97937438D01*
X136434287Y-97975001D01*
X136431652Y-98025059D01*
X136447913Y-98004082D01*
X136465960Y-97987527D01*
X136485935Y-97974928D01*
X136507820Y-97965777D01*
X136530173Y-97960348D01*
X136553254Y-97958533D01*
X136583046Y-97961407D01*
X136610044Y-97969820D01*
X136634867Y-97983816D01*
X136657943Y-98003901D01*
X136676560Y-98027778D01*
X136689955Y-98054836D01*
X136698247Y-98085685D01*
X136701143Y-98121138D01*
X136698845Y-98152158D01*
X136692064Y-98181314D01*
X136680810Y-98208974D01*
X136665290Y-98234289D01*
X136646735Y-98254820D01*
X136624970Y-98271103D01*
X136600513Y-98282973D01*
X136573821Y-98290184D01*
X136544370Y-98292657D01*
X136507101Y-98288993D01*
X136474358Y-98278394D01*
X136445202Y-98260942D01*
X136419012Y-98236054D01*
X136403238Y-98213508D01*
X136390042Y-98184912D01*
X136379757Y-98149044D01*
X136375502Y-98121077D01*
X136441208Y-98121077D01*
X136444574Y-98152149D01*
X136454702Y-98181924D01*
X136465140Y-98200096D01*
X136477687Y-98214696D01*
X136492438Y-98226162D01*
X136517528Y-98237634D01*
X136543332Y-98241366D01*
X136567927Y-98237922D01*
X136589978Y-98227683D01*
X136610285Y-98209951D01*
X136625362Y-98187462D01*
X136634864Y-98159478D01*
X136638281Y-98124496D01*
X136634910Y-98090922D01*
X136625532Y-98064141D01*
X136610621Y-98042675D01*
X136590562Y-98026038D01*
X136567651Y-98016157D01*
X136540950Y-98012755D01*
X136514425Y-98016119D01*
X136491137Y-98025972D01*
X136470242Y-98042675D01*
X136454379Y-98064176D01*
X136444642Y-98089911D01*
X136441208Y-98121077D01*
X136375502Y-98121077D01*
X136372973Y-98104457D01*
X136370499Y-98049514D01*
X136373209Y-97988196D01*
X136380668Y-97938006D01*
X136392019Y-97897243D01*
X136406633Y-97864397D01*
X136424141Y-97838182D01*
X136444204Y-97817459D01*
X136466459Y-97801590D01*
X136491204Y-97790188D01*
X136518906Y-97783162D01*
X136550170Y-97780724D01*
X136579453Y-97782954D01*
G37*
G36*
X123207500Y-99369010D02*
G01*
X123101987Y-99435291D01*
X123032133Y-99483102D01*
X123010326Y-99502112D01*
X122998214Y-99516746D01*
X122989907Y-99531949D01*
X122984719Y-99546971D01*
X122982308Y-99583852D01*
X122982308Y-99660697D01*
X123207500Y-99660697D01*
X123207500Y-99726978D01*
X122705336Y-99726978D01*
X122705336Y-99504962D01*
X122705447Y-99502214D01*
X122761512Y-99502214D01*
X122761512Y-99660697D01*
X122926132Y-99660697D01*
X122926132Y-99518273D01*
X122923478Y-99475414D01*
X122916820Y-99447229D01*
X122909155Y-99431205D01*
X122899224Y-99418379D01*
X122886931Y-99408302D01*
X122865454Y-99398306D01*
X122842295Y-99394991D01*
X122819928Y-99397923D01*
X122800856Y-99406431D01*
X122784257Y-99420789D01*
X122772450Y-99439395D01*
X122764519Y-99465693D01*
X122761512Y-99502214D01*
X122705447Y-99502214D01*
X122707156Y-99460024D01*
X122711929Y-99426917D01*
X122718770Y-99403173D01*
X122729915Y-99381650D01*
X122745556Y-99363209D01*
X122766214Y-99347517D01*
X122789604Y-99335954D01*
X122814493Y-99329018D01*
X122841318Y-99326664D01*
X122867275Y-99328906D01*
X122890511Y-99335413D01*
X122911540Y-99346092D01*
X122930742Y-99361164D01*
X122946287Y-99379336D01*
X122959333Y-99402469D01*
X122969704Y-99431530D01*
X122976965Y-99467715D01*
X122990432Y-99443385D01*
X123002183Y-99427781D01*
X123031677Y-99400196D01*
X123069594Y-99372765D01*
X123207500Y-99285693D01*
X123207500Y-99369010D01*
G37*
G36*
X123010103Y-98921281D02*
G01*
X123060275Y-98928590D01*
X123098872Y-98939417D01*
X123134866Y-98956169D01*
X123163398Y-98976825D01*
X123185579Y-99001394D01*
X123201955Y-99030077D01*
X123211891Y-99061969D01*
X123215315Y-99097900D01*
X123213091Y-99127002D01*
X123206737Y-99152298D01*
X123196525Y-99174428D01*
X123182434Y-99193888D01*
X123164867Y-99210218D01*
X123143978Y-99223127D01*
X123119237Y-99232665D01*
X123089927Y-99238615D01*
X123084401Y-99179539D01*
X123111459Y-99172383D01*
X123131175Y-99162687D01*
X123145157Y-99150840D01*
X123155457Y-99135749D01*
X123161794Y-99117893D01*
X123164024Y-99096526D01*
X123160669Y-99069527D01*
X123151018Y-99046823D01*
X123135862Y-99027461D01*
X123116244Y-99011835D01*
X123092193Y-98999873D01*
X123057473Y-98988938D01*
X123020129Y-98982025D01*
X122982063Y-98979717D01*
X122969729Y-98980053D01*
X122987927Y-98993730D01*
X123003748Y-99010420D01*
X123017326Y-99030428D01*
X123027454Y-99052315D01*
X123033509Y-99075262D01*
X123035553Y-99099610D01*
X123032686Y-99129781D01*
X123024314Y-99156982D01*
X123010434Y-99181847D01*
X122990581Y-99204818D01*
X122966908Y-99223264D01*
X122939740Y-99236609D01*
X122908409Y-99244918D01*
X122872032Y-99247835D01*
X122834489Y-99244793D01*
X122802167Y-99236126D01*
X122774144Y-99222198D01*
X122749727Y-99202925D01*
X122729433Y-99179023D01*
X122715109Y-99152676D01*
X122706391Y-99123374D01*
X122703382Y-99090390D01*
X122704083Y-99082849D01*
X122754673Y-99082849D01*
X122758300Y-99108756D01*
X122769138Y-99132289D01*
X122787982Y-99154259D01*
X122811776Y-99170829D01*
X122840131Y-99181036D01*
X122874291Y-99184637D01*
X122904832Y-99181241D01*
X122930220Y-99171580D01*
X122951594Y-99155786D01*
X122968142Y-99135002D01*
X122977961Y-99111555D01*
X122981331Y-99084559D01*
X122977923Y-99057405D01*
X122968078Y-99034348D01*
X122951594Y-99014400D01*
X122930219Y-98999614D01*
X122903274Y-98990267D01*
X122869193Y-98986892D01*
X122835144Y-98990310D01*
X122807758Y-98999852D01*
X122785601Y-99015071D01*
X122768199Y-99035469D01*
X122758089Y-99057792D01*
X122754673Y-99082849D01*
X122704083Y-99082849D01*
X122706338Y-99058604D01*
X122715079Y-99029010D01*
X122729730Y-99001058D01*
X122749483Y-98976518D01*
X122774262Y-98956084D01*
X122804774Y-98939570D01*
X122838083Y-98928822D01*
X122884006Y-98921388D01*
X122945854Y-98918565D01*
X123010103Y-98921281D01*
G37*
G36*
X124160782Y-90589251D02*
G01*
X124177512Y-90523000D01*
X124217393Y-90536144D01*
X124250830Y-90553105D01*
X124278713Y-90573694D01*
X124301710Y-90597982D01*
X124320139Y-90626047D01*
X124333423Y-90657080D01*
X124341614Y-90691617D01*
X124344452Y-90730331D01*
X124342132Y-90771161D01*
X124335587Y-90806178D01*
X124325291Y-90836222D01*
X124311510Y-90862009D01*
X124293503Y-90885489D01*
X124271844Y-90906101D01*
X124246188Y-90923999D01*
X124216042Y-90939190D01*
X124173661Y-90953807D01*
X124129061Y-90962657D01*
X124081800Y-90965659D01*
X124030357Y-90962123D01*
X123985201Y-90952005D01*
X123945359Y-90935770D01*
X123917655Y-90919012D01*
X123893894Y-90899349D01*
X123873709Y-90876668D01*
X123856882Y-90850713D01*
X123840174Y-90812946D01*
X123830088Y-90772678D01*
X123826657Y-90729293D01*
X123829214Y-90691928D01*
X123836559Y-90658825D01*
X123848390Y-90629334D01*
X123864668Y-90602928D01*
X123885230Y-90579596D01*
X123909572Y-90560000D01*
X123938123Y-90543968D01*
X123971493Y-90531548D01*
X123986881Y-90596761D01*
X123952146Y-90611030D01*
X123926296Y-90627950D01*
X123907654Y-90647319D01*
X123894186Y-90670556D01*
X123885797Y-90697999D01*
X123882833Y-90730667D01*
X123886143Y-90768279D01*
X123895524Y-90800080D01*
X123910585Y-90827174D01*
X123931130Y-90850399D01*
X123955750Y-90868454D01*
X123985049Y-90881640D01*
X124016527Y-90890357D01*
X124048595Y-90895582D01*
X124081433Y-90897332D01*
X124123854Y-90895102D01*
X124160895Y-90888765D01*
X124193266Y-90878739D01*
X124223022Y-90863641D01*
X124246525Y-90844414D01*
X124264646Y-90820854D01*
X124277805Y-90793858D01*
X124285639Y-90765655D01*
X124288276Y-90735796D01*
X124286158Y-90708324D01*
X124280034Y-90683763D01*
X124270064Y-90661622D01*
X124256158Y-90641519D01*
X124238969Y-90624456D01*
X124217787Y-90610016D01*
X124191993Y-90598206D01*
X124160782Y-90589251D01*
G37*
G36*
X124336637Y-90234793D02*
G01*
X124336637Y-90296281D01*
X123943833Y-90296281D01*
X123964190Y-90320749D01*
X123986301Y-90354503D01*
X124005521Y-90390025D01*
X124018144Y-90419227D01*
X123959526Y-90419227D01*
X123941735Y-90385786D01*
X123921947Y-90355824D01*
X123900175Y-90329071D01*
X123875714Y-90304526D01*
X123853258Y-90286675D01*
X123832519Y-90274422D01*
X123832519Y-90234793D01*
X124336637Y-90234793D01*
G37*
G36*
X124147655Y-89753346D02*
G01*
X124194451Y-89759675D01*
X124231093Y-89769114D01*
X124265625Y-89783776D01*
X124293198Y-89801848D01*
X124314868Y-89823244D01*
X124330991Y-89848701D01*
X124340948Y-89878653D01*
X124344452Y-89914255D01*
X124341005Y-89949488D01*
X124331155Y-89979553D01*
X124315126Y-90005500D01*
X124292459Y-90028011D01*
X124267751Y-90044042D01*
X124236448Y-90057516D01*
X124197228Y-90068045D01*
X124148546Y-90074997D01*
X124088669Y-90077531D01*
X124029183Y-90075169D01*
X123982178Y-90068780D01*
X123945543Y-90059274D01*
X123911013Y-90044497D01*
X123883506Y-90026364D01*
X123861951Y-90004961D01*
X123845901Y-89979501D01*
X123836000Y-89949642D01*
X123832588Y-89914957D01*
X123883810Y-89914957D01*
X123886084Y-89935212D01*
X123892680Y-89952879D01*
X123903665Y-89968556D01*
X123919622Y-89982582D01*
X123942463Y-89994610D01*
X123975936Y-90004619D01*
X124023335Y-90011642D01*
X124088486Y-90014333D01*
X124154241Y-90011800D01*
X124200596Y-90005283D01*
X124232039Y-89996174D01*
X124252403Y-89985482D01*
X124270957Y-89969442D01*
X124283418Y-89952460D01*
X124290705Y-89934245D01*
X124293161Y-89914255D01*
X124290698Y-89894291D01*
X124283384Y-89876091D01*
X124270870Y-89859110D01*
X124252220Y-89843058D01*
X124231769Y-89832341D01*
X124200295Y-89823223D01*
X124154012Y-89816707D01*
X124088486Y-89814176D01*
X124022523Y-89816717D01*
X123976108Y-89823248D01*
X123944697Y-89832366D01*
X123924416Y-89843058D01*
X123905988Y-89859083D01*
X123893567Y-89876166D01*
X123886275Y-89894606D01*
X123883810Y-89914957D01*
X123832588Y-89914957D01*
X123832519Y-89914255D01*
X123834428Y-89887793D01*
X123839911Y-89864396D01*
X123848761Y-89843577D01*
X123861090Y-89824606D01*
X123876610Y-89807921D01*
X123895626Y-89793355D01*
X123928515Y-89776116D01*
X123970181Y-89762275D01*
X124017947Y-89754204D01*
X124088669Y-89751009D01*
X124147655Y-89753346D01*
G37*
G36*
X125445581Y-95685336D02*
G01*
X125511832Y-95685336D01*
X125511832Y-95975039D01*
X125509608Y-96025563D01*
X125503626Y-96064916D01*
X125494765Y-96095115D01*
X125480554Y-96122576D01*
X125460266Y-96146560D01*
X125433124Y-96167441D01*
X125402179Y-96182272D01*
X125363760Y-96191847D01*
X125316132Y-96195315D01*
X125269668Y-96192295D01*
X125231796Y-96183944D01*
X125201002Y-96171044D01*
X125173839Y-96152266D01*
X125152749Y-96129010D01*
X125137133Y-96100732D01*
X125127221Y-96069402D01*
X125120519Y-96028256D01*
X125118021Y-95975039D01*
X125118021Y-95685336D01*
X125184302Y-95685336D01*
X125184302Y-95975802D01*
X125185990Y-96019945D01*
X125190338Y-96051176D01*
X125196423Y-96072461D01*
X125206450Y-96091617D01*
X125220202Y-96107458D01*
X125238066Y-96120363D01*
X125258418Y-96129437D01*
X125282271Y-96135160D01*
X125310331Y-96137185D01*
X125347536Y-96134639D01*
X125376194Y-96127764D01*
X125398055Y-96117391D01*
X125414501Y-96103877D01*
X125426447Y-96086679D01*
X125436191Y-96061412D01*
X125442980Y-96025490D01*
X125445581Y-95975802D01*
X125445581Y-95685336D01*
G37*
G36*
X125597500Y-96054998D02*
G01*
X125658988Y-96046816D01*
X125668542Y-96080259D01*
X125680703Y-96104386D01*
X125695014Y-96121249D01*
X125713093Y-96133836D01*
X125733531Y-96141410D01*
X125757021Y-96144024D01*
X125784703Y-96140629D01*
X125808823Y-96130732D01*
X125830263Y-96114074D01*
X125846843Y-96092544D01*
X125856742Y-96068102D01*
X125860153Y-96039824D01*
X125856957Y-96012831D01*
X125847760Y-95989933D01*
X125832492Y-95970184D01*
X125812601Y-95955076D01*
X125789473Y-95945946D01*
X125762150Y-95942768D01*
X125743817Y-95944289D01*
X125718766Y-95949607D01*
X125725575Y-95895660D01*
X125735497Y-95896362D01*
X125761061Y-95894040D01*
X125784464Y-95887229D01*
X125806175Y-95875907D01*
X125819820Y-95864405D01*
X125829486Y-95850431D01*
X125835489Y-95833498D01*
X125837621Y-95812800D01*
X125834994Y-95791240D01*
X125827403Y-95772836D01*
X125814723Y-95756838D01*
X125798296Y-95744688D01*
X125778887Y-95737274D01*
X125755647Y-95734673D01*
X125732617Y-95737261D01*
X125712942Y-95744710D01*
X125695869Y-95757021D01*
X125682462Y-95773382D01*
X125672091Y-95795262D01*
X125665125Y-95824066D01*
X125603667Y-95813136D01*
X125611482Y-95782834D01*
X125622702Y-95757196D01*
X125637152Y-95735540D01*
X125654897Y-95717363D01*
X125675738Y-95702700D01*
X125698935Y-95692149D01*
X125724926Y-95685642D01*
X125754273Y-95683382D01*
X125781176Y-95685387D01*
X125806229Y-95691282D01*
X125829775Y-95701029D01*
X125851303Y-95714452D01*
X125868736Y-95730430D01*
X125882531Y-95749114D01*
X125892763Y-95770031D01*
X125898801Y-95791487D01*
X125900819Y-95813808D01*
X125898858Y-95834966D01*
X125893070Y-95854585D01*
X125883386Y-95873037D01*
X125870303Y-95889228D01*
X125853318Y-95903358D01*
X125831820Y-95915474D01*
X125859819Y-95925026D01*
X125882517Y-95939161D01*
X125900788Y-95957972D01*
X125914171Y-95980612D01*
X125922472Y-96007188D01*
X125925396Y-96038664D01*
X125922355Y-96070441D01*
X125913469Y-96099139D01*
X125898715Y-96125426D01*
X125877585Y-96149764D01*
X125852381Y-96169515D01*
X125824244Y-96183628D01*
X125792603Y-96192303D01*
X125756685Y-96195315D01*
X125724171Y-96192718D01*
X125695503Y-96185243D01*
X125670016Y-96173121D01*
X125647203Y-96156236D01*
X125627838Y-96135343D01*
X125613218Y-96111811D01*
X125603083Y-96085228D01*
X125597500Y-96054998D01*
G37*
G36*
X133431082Y-97244614D02*
G01*
X133464189Y-97249387D01*
X133487933Y-97256228D01*
X133509456Y-97267373D01*
X133527897Y-97283014D01*
X133543589Y-97303672D01*
X133555152Y-97327062D01*
X133562088Y-97351951D01*
X133564442Y-97378776D01*
X133562200Y-97404733D01*
X133555693Y-97427969D01*
X133545014Y-97448998D01*
X133529942Y-97468200D01*
X133511770Y-97483745D01*
X133488637Y-97496791D01*
X133459576Y-97507162D01*
X133423391Y-97514423D01*
X133447721Y-97527890D01*
X133463325Y-97539641D01*
X133490910Y-97569135D01*
X133518341Y-97607052D01*
X133605413Y-97744958D01*
X133522096Y-97744958D01*
X133455815Y-97639445D01*
X133408004Y-97569591D01*
X133388994Y-97547784D01*
X133374360Y-97535672D01*
X133359157Y-97527365D01*
X133344135Y-97522177D01*
X133307254Y-97519766D01*
X133230409Y-97519766D01*
X133230409Y-97744958D01*
X133164128Y-97744958D01*
X133164128Y-97463590D01*
X133230409Y-97463590D01*
X133372833Y-97463590D01*
X133415692Y-97460936D01*
X133443877Y-97454278D01*
X133459901Y-97446613D01*
X133472727Y-97436682D01*
X133482804Y-97424389D01*
X133492800Y-97402912D01*
X133496115Y-97379753D01*
X133493183Y-97357386D01*
X133484675Y-97338314D01*
X133470317Y-97321715D01*
X133451711Y-97309908D01*
X133425413Y-97301977D01*
X133388892Y-97298970D01*
X133230409Y-97298970D01*
X133230409Y-97463590D01*
X133164128Y-97463590D01*
X133164128Y-97242794D01*
X133386144Y-97242794D01*
X133431082Y-97244614D01*
G37*
G36*
X133647362Y-97306786D02*
G01*
X133647362Y-97248656D01*
X133971503Y-97248656D01*
X133971503Y-97296467D01*
X133941520Y-97331946D01*
X133909950Y-97376758D01*
X133876706Y-97432357D01*
X133847593Y-97489782D01*
X133823455Y-97547835D01*
X133804136Y-97606655D01*
X133793530Y-97649099D01*
X133785613Y-97695096D01*
X133780566Y-97744958D01*
X133717399Y-97744958D01*
X133720077Y-97705535D01*
X133727486Y-97658038D01*
X133740602Y-97601190D01*
X133757519Y-97545798D01*
X133778727Y-97491675D01*
X133804319Y-97438677D01*
X133833683Y-97387447D01*
X133863127Y-97343739D01*
X133892612Y-97306786D01*
X133647362Y-97306786D01*
G37*
D12*
G36*
X122680750Y-83084317D02*
G01*
X122740528Y-83076104D01*
X122744698Y-83114361D01*
X122752258Y-83139406D01*
X122762021Y-83154994D01*
X122776053Y-83166584D01*
X122793380Y-83173710D01*
X122814992Y-83176243D01*
X122838607Y-83173264D01*
X122858009Y-83164764D01*
X122873339Y-83151171D01*
X122882952Y-83133562D01*
X122887743Y-83110885D01*
X122889791Y-83070639D01*
X122889791Y-82724394D01*
X122956042Y-82724394D01*
X122956042Y-83066090D01*
X122954027Y-83108146D01*
X122948672Y-83139959D01*
X122940838Y-83163573D01*
X122928684Y-83184855D01*
X122912759Y-83202271D01*
X122892691Y-83216238D01*
X122870057Y-83226109D01*
X122844461Y-83232236D01*
X122815327Y-83234373D01*
X122782582Y-83231725D01*
X122755503Y-83224308D01*
X122733036Y-83212596D01*
X122714394Y-83196607D01*
X122699989Y-83176904D01*
X122689319Y-83152379D01*
X122682672Y-83121963D01*
X122680750Y-83084317D01*
G37*
G36*
X123362492Y-83168428D02*
G01*
X123362492Y-83226558D01*
X123031543Y-83226558D01*
X123032991Y-83204790D01*
X123038718Y-83183937D01*
X123054706Y-83151188D01*
X123079171Y-83117473D01*
X123110855Y-83084408D01*
X123159618Y-83041788D01*
X123213645Y-82995049D01*
X123248843Y-82960377D01*
X123269924Y-82935237D01*
X123286633Y-82907963D01*
X123295764Y-82883429D01*
X123298623Y-82860895D01*
X123295674Y-82837535D01*
X123287057Y-82817149D01*
X123272489Y-82798980D01*
X123253727Y-82785173D01*
X123231362Y-82776711D01*
X123204376Y-82773731D01*
X123175874Y-82776917D01*
X123152569Y-82785921D01*
X123133301Y-82800567D01*
X123118881Y-82819975D01*
X123109768Y-82844273D01*
X123106343Y-82874848D01*
X123043145Y-82868314D01*
X123049070Y-82833096D01*
X123059371Y-82803900D01*
X123073678Y-82779714D01*
X123091993Y-82759779D01*
X123114067Y-82743964D01*
X123139877Y-82732351D01*
X123170129Y-82725031D01*
X123205719Y-82722440D01*
X123241522Y-82725214D01*
X123271873Y-82733055D01*
X123297726Y-82745531D01*
X123319811Y-82762618D01*
X123338286Y-82784031D01*
X123351259Y-82807434D01*
X123359119Y-82833264D01*
X123361821Y-82862147D01*
X123358780Y-82891917D01*
X123349517Y-82921529D01*
X123333976Y-82950250D01*
X123308698Y-82982986D01*
X123274764Y-83017469D01*
X123213932Y-83071524D01*
X123163793Y-83114961D01*
X123142857Y-83134936D01*
X123128285Y-83151946D01*
X123116937Y-83168428D01*
X123362492Y-83168428D01*
G37*
D11*
G36*
X128760638Y-94264045D02*
G01*
X128777368Y-94197794D01*
X128817249Y-94210938D01*
X128850686Y-94227899D01*
X128878569Y-94248488D01*
X128901566Y-94272776D01*
X128919995Y-94300841D01*
X128933279Y-94331874D01*
X128941470Y-94366411D01*
X128944308Y-94405125D01*
X128941988Y-94445955D01*
X128935443Y-94480972D01*
X128925147Y-94511016D01*
X128911366Y-94536803D01*
X128893359Y-94560283D01*
X128871700Y-94580895D01*
X128846044Y-94598793D01*
X128815898Y-94613984D01*
X128773517Y-94628601D01*
X128728917Y-94637451D01*
X128681656Y-94640453D01*
X128630213Y-94636917D01*
X128585057Y-94626799D01*
X128545215Y-94610564D01*
X128517511Y-94593806D01*
X128493750Y-94574143D01*
X128473565Y-94551462D01*
X128456738Y-94525507D01*
X128440030Y-94487740D01*
X128429944Y-94447472D01*
X128426513Y-94404087D01*
X128429070Y-94366722D01*
X128436415Y-94333619D01*
X128448246Y-94304128D01*
X128464524Y-94277722D01*
X128485086Y-94254390D01*
X128509428Y-94234794D01*
X128537979Y-94218762D01*
X128571349Y-94206342D01*
X128586737Y-94271555D01*
X128552002Y-94285824D01*
X128526152Y-94302744D01*
X128507510Y-94322113D01*
X128494042Y-94345350D01*
X128485653Y-94372793D01*
X128482689Y-94405461D01*
X128485999Y-94443073D01*
X128495380Y-94474874D01*
X128510441Y-94501968D01*
X128530986Y-94525193D01*
X128555606Y-94543248D01*
X128584905Y-94556434D01*
X128616383Y-94565151D01*
X128648451Y-94570376D01*
X128681289Y-94572126D01*
X128723710Y-94569896D01*
X128760751Y-94563559D01*
X128793122Y-94553533D01*
X128822878Y-94538435D01*
X128846381Y-94519208D01*
X128864502Y-94495648D01*
X128877661Y-94468652D01*
X128885495Y-94440449D01*
X128888132Y-94410590D01*
X128886014Y-94383118D01*
X128879890Y-94358557D01*
X128869920Y-94336416D01*
X128856014Y-94316313D01*
X128838825Y-94299250D01*
X128817643Y-94284810D01*
X128791849Y-94273000D01*
X128760638Y-94264045D01*
G37*
G36*
X128803991Y-94140824D02*
G01*
X128795809Y-94079336D01*
X128829252Y-94069782D01*
X128853379Y-94057621D01*
X128870242Y-94043310D01*
X128882829Y-94025231D01*
X128890403Y-94004793D01*
X128893017Y-93981303D01*
X128889622Y-93953621D01*
X128879725Y-93929501D01*
X128863067Y-93908061D01*
X128841537Y-93891481D01*
X128817095Y-93881582D01*
X128788817Y-93878171D01*
X128761824Y-93881367D01*
X128738926Y-93890564D01*
X128719177Y-93905832D01*
X128704069Y-93925723D01*
X128694939Y-93948851D01*
X128691761Y-93976174D01*
X128693282Y-93994507D01*
X128698600Y-94019558D01*
X128644653Y-94012749D01*
X128645355Y-94002827D01*
X128643033Y-93977263D01*
X128636222Y-93953860D01*
X128624900Y-93932149D01*
X128613398Y-93918504D01*
X128599424Y-93908838D01*
X128582491Y-93902835D01*
X128561793Y-93900703D01*
X128540233Y-93903330D01*
X128521829Y-93910921D01*
X128505831Y-93923601D01*
X128493681Y-93940028D01*
X128486267Y-93959437D01*
X128483666Y-93982677D01*
X128486254Y-94005707D01*
X128493703Y-94025382D01*
X128506014Y-94042455D01*
X128522375Y-94055862D01*
X128544255Y-94066233D01*
X128573059Y-94073199D01*
X128562129Y-94134657D01*
X128531827Y-94126842D01*
X128506189Y-94115622D01*
X128484533Y-94101172D01*
X128466356Y-94083427D01*
X128451693Y-94062586D01*
X128441142Y-94039389D01*
X128434635Y-94013398D01*
X128432375Y-93984051D01*
X128434380Y-93957148D01*
X128440275Y-93932095D01*
X128450022Y-93908549D01*
X128463445Y-93887021D01*
X128479423Y-93869588D01*
X128498107Y-93855793D01*
X128519024Y-93845561D01*
X128540480Y-93839523D01*
X128562801Y-93837505D01*
X128583959Y-93839466D01*
X128603578Y-93845254D01*
X128622030Y-93854938D01*
X128638221Y-93868021D01*
X128652351Y-93885006D01*
X128664467Y-93906504D01*
X128674019Y-93878505D01*
X128688154Y-93855807D01*
X128706965Y-93837536D01*
X128729605Y-93824153D01*
X128756181Y-93815852D01*
X128787657Y-93812928D01*
X128819434Y-93815969D01*
X128848132Y-93824855D01*
X128874419Y-93839609D01*
X128898757Y-93860739D01*
X128918508Y-93885943D01*
X128932621Y-93914080D01*
X128941296Y-93945721D01*
X128944308Y-93981639D01*
X128941711Y-94014153D01*
X128934236Y-94042821D01*
X128922114Y-94068308D01*
X128905229Y-94091121D01*
X128884336Y-94110486D01*
X128860804Y-94125106D01*
X128834221Y-94135241D01*
X128803991Y-94140824D01*
G37*
G36*
X132504407Y-76827790D02*
G01*
X132570658Y-76827790D01*
X132570658Y-77117493D01*
X132568434Y-77168017D01*
X132562452Y-77207370D01*
X132553591Y-77237569D01*
X132539380Y-77265030D01*
X132519092Y-77289014D01*
X132491950Y-77309895D01*
X132461005Y-77324726D01*
X132422586Y-77334301D01*
X132374958Y-77337769D01*
X132328494Y-77334749D01*
X132290622Y-77326398D01*
X132259828Y-77313498D01*
X132232665Y-77294720D01*
X132211575Y-77271464D01*
X132195959Y-77243186D01*
X132186047Y-77211856D01*
X132179345Y-77170710D01*
X132176847Y-77117493D01*
X132176847Y-76827790D01*
X132243128Y-76827790D01*
X132243128Y-77118256D01*
X132244816Y-77162399D01*
X132249164Y-77193630D01*
X132255249Y-77214915D01*
X132265276Y-77234071D01*
X132279028Y-77249912D01*
X132296892Y-77262817D01*
X132317244Y-77271891D01*
X132341097Y-77277614D01*
X132369157Y-77279639D01*
X132406362Y-77277093D01*
X132435020Y-77270218D01*
X132456881Y-77259845D01*
X132473327Y-77246331D01*
X132485273Y-77229133D01*
X132495017Y-77203866D01*
X132501806Y-77167944D01*
X132504407Y-77118256D01*
X132504407Y-76827790D01*
G37*
G36*
X132914552Y-77154099D02*
G01*
X132982176Y-77154099D01*
X132982176Y-77210275D01*
X132914552Y-77210275D01*
X132914552Y-77329954D01*
X132853064Y-77329954D01*
X132853064Y-77210275D01*
X132635840Y-77210275D01*
X132635840Y-77154099D01*
X132696290Y-77154099D01*
X132853064Y-77154099D01*
X132853064Y-76928418D01*
X132696290Y-77154099D01*
X132635840Y-77154099D01*
X132864329Y-76829744D01*
X132914552Y-76829744D01*
X132914552Y-77154099D01*
G37*
G36*
X136464279Y-85343801D02*
G01*
X136530530Y-85360531D01*
X136517386Y-85400412D01*
X136500425Y-85433849D01*
X136479836Y-85461732D01*
X136455548Y-85484729D01*
X136427483Y-85503158D01*
X136396450Y-85516442D01*
X136361913Y-85524633D01*
X136323199Y-85527471D01*
X136282369Y-85525151D01*
X136247352Y-85518606D01*
X136217308Y-85508310D01*
X136191521Y-85494529D01*
X136168041Y-85476522D01*
X136147429Y-85454863D01*
X136129531Y-85429207D01*
X136114340Y-85399061D01*
X136099723Y-85356680D01*
X136090873Y-85312080D01*
X136087871Y-85264819D01*
X136091407Y-85213376D01*
X136101525Y-85168220D01*
X136117760Y-85128378D01*
X136134518Y-85100674D01*
X136154181Y-85076913D01*
X136176862Y-85056728D01*
X136202817Y-85039901D01*
X136240584Y-85023193D01*
X136280852Y-85013107D01*
X136324237Y-85009676D01*
X136361602Y-85012233D01*
X136394705Y-85019578D01*
X136424196Y-85031409D01*
X136450602Y-85047687D01*
X136473934Y-85068249D01*
X136493530Y-85092591D01*
X136509562Y-85121142D01*
X136521982Y-85154512D01*
X136456769Y-85169900D01*
X136442500Y-85135165D01*
X136425580Y-85109315D01*
X136406211Y-85090673D01*
X136382974Y-85077205D01*
X136355531Y-85068816D01*
X136322863Y-85065852D01*
X136285251Y-85069162D01*
X136253450Y-85078543D01*
X136226356Y-85093604D01*
X136203131Y-85114149D01*
X136185076Y-85138769D01*
X136171890Y-85168068D01*
X136163173Y-85199546D01*
X136157948Y-85231614D01*
X136156198Y-85264452D01*
X136158428Y-85306873D01*
X136164765Y-85343914D01*
X136174791Y-85376285D01*
X136189889Y-85406041D01*
X136209116Y-85429544D01*
X136232676Y-85447665D01*
X136259672Y-85460824D01*
X136287875Y-85468658D01*
X136317734Y-85471295D01*
X136345206Y-85469177D01*
X136369767Y-85463053D01*
X136391908Y-85453083D01*
X136412011Y-85439177D01*
X136429074Y-85421988D01*
X136443514Y-85400806D01*
X136455324Y-85375012D01*
X136464279Y-85343801D01*
G37*
G36*
X136818737Y-85519656D02*
G01*
X136757249Y-85519656D01*
X136757249Y-85126852D01*
X136732781Y-85147209D01*
X136699027Y-85169320D01*
X136663505Y-85188540D01*
X136634303Y-85201163D01*
X136634303Y-85142545D01*
X136667744Y-85124754D01*
X136697706Y-85104966D01*
X136724459Y-85083194D01*
X136749004Y-85058733D01*
X136766855Y-85036277D01*
X136779108Y-85015538D01*
X136818737Y-85015538D01*
X136818737Y-85519656D01*
G37*
G36*
X132451069Y-76282137D02*
G01*
X132467799Y-76215886D01*
X132507680Y-76229030D01*
X132541117Y-76245991D01*
X132569000Y-76266580D01*
X132591997Y-76290868D01*
X132610426Y-76318933D01*
X132623710Y-76349966D01*
X132631901Y-76384503D01*
X132634739Y-76423217D01*
X132632419Y-76464047D01*
X132625874Y-76499064D01*
X132615578Y-76529108D01*
X132601797Y-76554895D01*
X132583790Y-76578375D01*
X132562131Y-76598987D01*
X132536475Y-76616885D01*
X132506329Y-76632076D01*
X132463948Y-76646693D01*
X132419348Y-76655543D01*
X132372087Y-76658545D01*
X132320644Y-76655009D01*
X132275488Y-76644891D01*
X132235646Y-76628656D01*
X132207942Y-76611898D01*
X132184181Y-76592235D01*
X132163996Y-76569554D01*
X132147169Y-76543599D01*
X132130461Y-76505832D01*
X132120375Y-76465564D01*
X132116944Y-76422179D01*
X132119501Y-76384814D01*
X132126846Y-76351711D01*
X132138677Y-76322220D01*
X132154955Y-76295814D01*
X132175517Y-76272482D01*
X132199859Y-76252886D01*
X132228410Y-76236854D01*
X132261780Y-76224434D01*
X132277168Y-76289647D01*
X132242433Y-76303916D01*
X132216583Y-76320836D01*
X132197941Y-76340205D01*
X132184473Y-76363442D01*
X132176084Y-76390885D01*
X132173120Y-76423553D01*
X132176430Y-76461165D01*
X132185811Y-76492966D01*
X132200872Y-76520060D01*
X132221417Y-76543285D01*
X132246037Y-76561340D01*
X132275336Y-76574526D01*
X132306814Y-76583243D01*
X132338882Y-76588468D01*
X132371720Y-76590218D01*
X132414141Y-76587988D01*
X132451182Y-76581651D01*
X132483553Y-76571625D01*
X132513309Y-76556527D01*
X132536812Y-76537300D01*
X132554933Y-76513740D01*
X132568092Y-76486744D01*
X132575926Y-76458541D01*
X132578563Y-76428682D01*
X132576445Y-76401210D01*
X132570321Y-76376649D01*
X132560351Y-76354508D01*
X132546445Y-76334405D01*
X132529256Y-76317342D01*
X132508074Y-76302902D01*
X132482280Y-76291092D01*
X132451069Y-76282137D01*
G37*
G36*
X132568794Y-75836149D02*
G01*
X132626924Y-75836149D01*
X132626924Y-76167098D01*
X132605156Y-76165651D01*
X132584303Y-76159924D01*
X132551554Y-76143936D01*
X132517839Y-76119471D01*
X132484774Y-76087786D01*
X132442154Y-76039023D01*
X132395415Y-75984996D01*
X132360743Y-75949798D01*
X132335603Y-75928717D01*
X132308329Y-75912009D01*
X132283795Y-75902877D01*
X132261261Y-75900019D01*
X132237901Y-75902968D01*
X132217515Y-75911585D01*
X132199346Y-75926153D01*
X132185539Y-75944915D01*
X132177077Y-75967280D01*
X132174097Y-75994266D01*
X132177283Y-76022767D01*
X132186287Y-76046073D01*
X132200933Y-76065341D01*
X132220341Y-76079761D01*
X132244639Y-76088873D01*
X132275214Y-76092299D01*
X132268680Y-76155497D01*
X132233462Y-76149572D01*
X132204266Y-76139271D01*
X132180080Y-76124964D01*
X132160145Y-76106648D01*
X132144330Y-76084574D01*
X132132717Y-76058765D01*
X132125397Y-76028513D01*
X132122806Y-75992923D01*
X132125580Y-75957120D01*
X132133421Y-75926768D01*
X132145897Y-75900915D01*
X132162984Y-75878831D01*
X132184397Y-75860356D01*
X132207800Y-75847382D01*
X132233630Y-75839523D01*
X132262513Y-75836821D01*
X132292283Y-75839861D01*
X132321895Y-75849125D01*
X132350616Y-75864666D01*
X132383352Y-75889944D01*
X132417835Y-75923878D01*
X132471890Y-75984710D01*
X132515327Y-76034848D01*
X132535302Y-76055785D01*
X132552312Y-76070356D01*
X132568794Y-76081705D01*
X132568794Y-75836149D01*
G37*
G36*
X133972359Y-110194840D02*
G01*
X134032137Y-110186627D01*
X134036307Y-110224884D01*
X134043867Y-110249929D01*
X134053630Y-110265517D01*
X134067662Y-110277107D01*
X134084989Y-110284233D01*
X134106601Y-110286766D01*
X134130216Y-110283787D01*
X134149618Y-110275287D01*
X134164948Y-110261694D01*
X134174561Y-110244085D01*
X134179352Y-110221408D01*
X134181400Y-110181162D01*
X134181400Y-109834917D01*
X134247651Y-109834917D01*
X134247651Y-110176613D01*
X134245636Y-110218669D01*
X134240281Y-110250482D01*
X134232447Y-110274096D01*
X134220293Y-110295378D01*
X134204368Y-110312794D01*
X134184300Y-110326761D01*
X134161666Y-110336632D01*
X134136070Y-110342759D01*
X134106936Y-110344896D01*
X134074191Y-110342248D01*
X134047112Y-110334831D01*
X134024645Y-110323119D01*
X134006003Y-110307130D01*
X133991598Y-110287427D01*
X133980928Y-110262902D01*
X133974281Y-110232486D01*
X133972359Y-110194840D01*
G37*
G36*
X134331334Y-110204579D02*
G01*
X134392823Y-110196397D01*
X134402376Y-110229840D01*
X134414537Y-110253967D01*
X134428848Y-110270830D01*
X134446928Y-110283417D01*
X134467365Y-110290991D01*
X134490856Y-110293605D01*
X134518538Y-110290210D01*
X134542657Y-110280313D01*
X134564098Y-110263655D01*
X134580677Y-110242125D01*
X134590577Y-110217683D01*
X134593987Y-110189405D01*
X134590791Y-110162412D01*
X134581594Y-110139514D01*
X134566327Y-110119765D01*
X134546436Y-110104657D01*
X134523307Y-110095527D01*
X134495985Y-110092349D01*
X134477651Y-110093870D01*
X134452601Y-110099188D01*
X134459409Y-110045241D01*
X134469332Y-110045943D01*
X134494895Y-110043621D01*
X134518299Y-110036810D01*
X134540009Y-110025488D01*
X134553654Y-110013986D01*
X134563320Y-110000012D01*
X134569323Y-109983079D01*
X134571456Y-109962381D01*
X134568829Y-109940821D01*
X134561237Y-109922417D01*
X134548558Y-109906419D01*
X134532131Y-109894269D01*
X134512722Y-109886855D01*
X134489482Y-109884254D01*
X134466451Y-109886842D01*
X134446776Y-109894291D01*
X134429703Y-109906602D01*
X134416296Y-109922963D01*
X134405926Y-109944843D01*
X134398959Y-109973647D01*
X134337502Y-109962717D01*
X134345317Y-109932415D01*
X134356536Y-109906777D01*
X134370986Y-109885121D01*
X134388732Y-109866944D01*
X134409573Y-109852281D01*
X134432770Y-109841730D01*
X134458760Y-109835223D01*
X134488108Y-109832963D01*
X134515011Y-109834968D01*
X134540063Y-109840863D01*
X134563609Y-109850610D01*
X134585137Y-109864033D01*
X134602571Y-109880011D01*
X134616366Y-109898695D01*
X134626597Y-109919612D01*
X134632636Y-109941068D01*
X134634654Y-109963389D01*
X134632693Y-109984547D01*
X134626905Y-110004166D01*
X134617221Y-110022618D01*
X134604138Y-110038809D01*
X134587153Y-110052939D01*
X134565655Y-110065055D01*
X134593653Y-110074607D01*
X134616352Y-110088742D01*
X134634623Y-110107553D01*
X134648006Y-110130193D01*
X134656307Y-110156769D01*
X134659230Y-110188245D01*
X134656190Y-110220022D01*
X134647303Y-110248720D01*
X134632550Y-110275007D01*
X134611420Y-110299345D01*
X134586215Y-110319096D01*
X134558078Y-110333209D01*
X134526437Y-110341884D01*
X134490520Y-110344896D01*
X134458005Y-110342299D01*
X134429338Y-110334824D01*
X134403851Y-110322702D01*
X134381038Y-110305817D01*
X134361673Y-110284924D01*
X134347053Y-110261392D01*
X134336918Y-110234809D01*
X134331334Y-110204579D01*
G37*
G36*
X128742371Y-105063870D02*
G01*
X128240207Y-105063870D01*
X128240207Y-104997619D01*
X128742371Y-104997619D01*
X128742371Y-105063870D01*
G37*
G36*
X128566516Y-104523452D02*
G01*
X128583246Y-104457201D01*
X128623127Y-104470346D01*
X128656564Y-104487306D01*
X128684447Y-104507895D01*
X128707444Y-104532184D01*
X128725873Y-104560248D01*
X128739157Y-104591282D01*
X128747348Y-104625819D01*
X128750186Y-104664533D01*
X128747866Y-104705363D01*
X128741321Y-104740380D01*
X128731025Y-104770424D01*
X128717244Y-104796210D01*
X128699237Y-104819691D01*
X128677578Y-104840303D01*
X128651922Y-104858201D01*
X128621776Y-104873391D01*
X128579395Y-104888009D01*
X128534795Y-104896859D01*
X128487534Y-104899861D01*
X128436091Y-104896325D01*
X128390935Y-104886207D01*
X128351093Y-104869972D01*
X128323389Y-104853214D01*
X128299628Y-104833551D01*
X128279443Y-104810869D01*
X128262616Y-104784914D01*
X128245908Y-104747148D01*
X128235822Y-104706879D01*
X128232391Y-104663495D01*
X128234948Y-104626130D01*
X128242293Y-104593027D01*
X128254124Y-104563536D01*
X128270402Y-104537130D01*
X128290964Y-104513798D01*
X128315306Y-104494202D01*
X128343857Y-104478170D01*
X128377227Y-104465750D01*
X128392615Y-104530963D01*
X128357880Y-104545232D01*
X128332030Y-104562152D01*
X128313388Y-104581521D01*
X128299920Y-104604758D01*
X128291531Y-104632201D01*
X128288567Y-104664869D01*
X128291877Y-104702481D01*
X128301258Y-104734282D01*
X128316319Y-104761375D01*
X128336864Y-104784601D01*
X128361484Y-104802656D01*
X128390783Y-104815842D01*
X128422261Y-104824559D01*
X128454329Y-104829783D01*
X128487167Y-104831534D01*
X128529588Y-104829303D01*
X128566629Y-104822967D01*
X128599000Y-104812941D01*
X128628756Y-104797843D01*
X128652259Y-104778616D01*
X128670380Y-104755056D01*
X128683539Y-104728060D01*
X128691373Y-104699857D01*
X128694010Y-104669998D01*
X128691892Y-104642525D01*
X128685768Y-104617965D01*
X128675798Y-104595824D01*
X128661892Y-104575720D01*
X128644703Y-104558658D01*
X128623521Y-104544217D01*
X128597727Y-104532408D01*
X128566516Y-104523452D01*
G37*
G36*
X128742371Y-104168995D02*
G01*
X128742371Y-104230483D01*
X128349567Y-104230483D01*
X128369924Y-104254950D01*
X128392035Y-104288704D01*
X128411255Y-104324227D01*
X128423878Y-104353429D01*
X128365260Y-104353429D01*
X128347469Y-104319987D01*
X128327681Y-104290026D01*
X128305909Y-104263273D01*
X128281448Y-104238728D01*
X128258992Y-104220877D01*
X128238253Y-104208623D01*
X128238253Y-104168995D01*
X128742371Y-104168995D01*
G37*
G36*
X130624975Y-81118843D02*
G01*
X130658082Y-81123616D01*
X130681826Y-81130457D01*
X130703349Y-81141602D01*
X130721790Y-81157243D01*
X130737482Y-81177901D01*
X130749045Y-81201291D01*
X130755981Y-81226180D01*
X130758335Y-81253005D01*
X130756093Y-81278962D01*
X130749586Y-81302198D01*
X130738907Y-81323227D01*
X130723835Y-81342429D01*
X130705663Y-81357974D01*
X130682530Y-81371020D01*
X130653469Y-81381391D01*
X130617284Y-81388652D01*
X130641614Y-81402119D01*
X130657218Y-81413870D01*
X130684803Y-81443364D01*
X130712234Y-81481281D01*
X130799306Y-81619187D01*
X130715989Y-81619187D01*
X130649708Y-81513674D01*
X130601897Y-81443820D01*
X130582887Y-81422013D01*
X130568253Y-81409901D01*
X130553050Y-81401594D01*
X130538028Y-81396406D01*
X130501147Y-81393995D01*
X130424302Y-81393995D01*
X130424302Y-81619187D01*
X130358021Y-81619187D01*
X130358021Y-81337819D01*
X130424302Y-81337819D01*
X130566726Y-81337819D01*
X130609585Y-81335165D01*
X130637770Y-81328507D01*
X130653794Y-81320842D01*
X130666620Y-81310911D01*
X130676697Y-81298618D01*
X130686693Y-81277141D01*
X130690008Y-81253982D01*
X130687076Y-81231615D01*
X130678568Y-81212543D01*
X130664210Y-81195944D01*
X130645604Y-81184137D01*
X130619306Y-81176206D01*
X130582785Y-81173199D01*
X130424302Y-81173199D01*
X130424302Y-81337819D01*
X130358021Y-81337819D01*
X130358021Y-81117023D01*
X130580037Y-81117023D01*
X130624975Y-81118843D01*
G37*
G36*
X130837500Y-81486685D02*
G01*
X130898988Y-81478503D01*
X130908542Y-81511946D01*
X130920703Y-81536073D01*
X130935014Y-81552936D01*
X130953093Y-81565523D01*
X130973531Y-81573097D01*
X130997021Y-81575711D01*
X131024703Y-81572316D01*
X131048823Y-81562419D01*
X131070263Y-81545761D01*
X131086843Y-81524231D01*
X131096742Y-81499789D01*
X131100153Y-81471511D01*
X131096957Y-81444518D01*
X131087760Y-81421620D01*
X131072492Y-81401871D01*
X131052601Y-81386763D01*
X131029473Y-81377633D01*
X131002150Y-81374455D01*
X130983817Y-81375976D01*
X130958766Y-81381294D01*
X130965575Y-81327347D01*
X130975497Y-81328049D01*
X131001061Y-81325727D01*
X131024464Y-81318916D01*
X131046175Y-81307594D01*
X131059820Y-81296092D01*
X131069486Y-81282118D01*
X131075489Y-81265185D01*
X131077621Y-81244487D01*
X131074994Y-81222927D01*
X131067403Y-81204523D01*
X131054723Y-81188525D01*
X131038296Y-81176375D01*
X131018887Y-81168961D01*
X130995647Y-81166360D01*
X130972617Y-81168948D01*
X130952942Y-81176397D01*
X130935869Y-81188708D01*
X130922462Y-81205069D01*
X130912091Y-81226949D01*
X130905125Y-81255753D01*
X130843667Y-81244823D01*
X130851482Y-81214521D01*
X130862702Y-81188883D01*
X130877152Y-81167227D01*
X130894897Y-81149050D01*
X130915738Y-81134387D01*
X130938935Y-81123836D01*
X130964926Y-81117329D01*
X130994273Y-81115069D01*
X131021176Y-81117074D01*
X131046229Y-81122969D01*
X131069775Y-81132716D01*
X131091303Y-81146139D01*
X131108736Y-81162117D01*
X131122531Y-81180801D01*
X131132763Y-81201718D01*
X131138801Y-81223174D01*
X131140819Y-81245495D01*
X131138858Y-81266653D01*
X131133070Y-81286272D01*
X131123386Y-81304724D01*
X131110303Y-81320915D01*
X131093318Y-81335045D01*
X131071820Y-81347161D01*
X131099819Y-81356713D01*
X131122517Y-81370848D01*
X131140788Y-81389659D01*
X131154171Y-81412299D01*
X131162472Y-81438875D01*
X131165396Y-81470351D01*
X131162355Y-81502128D01*
X131153469Y-81530826D01*
X131138715Y-81557113D01*
X131117585Y-81581451D01*
X131092381Y-81601202D01*
X131064244Y-81615315D01*
X131032603Y-81623990D01*
X130996685Y-81627002D01*
X130964171Y-81624405D01*
X130935503Y-81616930D01*
X130910016Y-81604808D01*
X130887203Y-81587923D01*
X130867838Y-81567030D01*
X130853218Y-81543498D01*
X130843083Y-81516915D01*
X130837500Y-81486685D01*
G37*
G36*
X122452723Y-80605291D02*
G01*
X122485830Y-80610064D01*
X122509574Y-80616905D01*
X122531097Y-80628050D01*
X122549538Y-80643691D01*
X122565230Y-80664349D01*
X122576793Y-80687739D01*
X122583729Y-80712628D01*
X122586083Y-80739453D01*
X122583841Y-80765410D01*
X122577334Y-80788646D01*
X122566655Y-80809675D01*
X122551583Y-80828877D01*
X122533411Y-80844422D01*
X122510278Y-80857468D01*
X122481217Y-80867839D01*
X122445032Y-80875100D01*
X122469362Y-80888567D01*
X122484966Y-80900318D01*
X122512551Y-80929812D01*
X122539982Y-80967729D01*
X122627054Y-81105635D01*
X122543737Y-81105635D01*
X122477456Y-81000122D01*
X122429645Y-80930268D01*
X122410635Y-80908461D01*
X122396001Y-80896349D01*
X122380798Y-80888042D01*
X122365776Y-80882854D01*
X122328895Y-80880443D01*
X122252050Y-80880443D01*
X122252050Y-81105635D01*
X122185769Y-81105635D01*
X122185769Y-80824267D01*
X122252050Y-80824267D01*
X122394474Y-80824267D01*
X122437333Y-80821613D01*
X122465518Y-80814955D01*
X122481542Y-80807290D01*
X122494368Y-80797359D01*
X122504445Y-80785066D01*
X122514441Y-80763589D01*
X122517756Y-80740430D01*
X122514824Y-80718063D01*
X122506316Y-80698991D01*
X122491958Y-80682392D01*
X122473352Y-80670585D01*
X122447054Y-80662654D01*
X122410533Y-80659647D01*
X122252050Y-80659647D01*
X122252050Y-80824267D01*
X122185769Y-80824267D01*
X122185769Y-80603471D01*
X122407785Y-80603471D01*
X122452723Y-80605291D01*
G37*
G36*
X122820739Y-81105635D02*
G01*
X122626749Y-80603471D01*
X122698465Y-80603471D01*
X122828616Y-80968401D01*
X122854902Y-81050649D01*
X122881891Y-80968401D01*
X123017141Y-80603471D01*
X123084766Y-80603471D01*
X122888730Y-81105635D01*
X122820739Y-81105635D01*
G37*
G36*
X123350777Y-81105635D02*
G01*
X123289288Y-81105635D01*
X123289288Y-80712831D01*
X123264821Y-80733188D01*
X123231067Y-80755299D01*
X123195545Y-80774519D01*
X123166343Y-80787142D01*
X123166343Y-80728524D01*
X123199784Y-80710733D01*
X123229745Y-80690945D01*
X123256499Y-80669173D01*
X123281043Y-80644712D01*
X123298895Y-80622256D01*
X123311148Y-80601517D01*
X123350777Y-80601517D01*
X123350777Y-81105635D01*
G37*
G36*
X124489208Y-104801505D02*
G01*
X124555459Y-104818235D01*
X124542315Y-104858116D01*
X124525354Y-104891553D01*
X124504765Y-104919436D01*
X124480477Y-104942433D01*
X124452412Y-104960862D01*
X124421379Y-104974146D01*
X124386842Y-104982337D01*
X124348128Y-104985175D01*
X124307298Y-104982855D01*
X124272281Y-104976310D01*
X124242237Y-104966014D01*
X124216450Y-104952233D01*
X124192970Y-104934226D01*
X124172358Y-104912567D01*
X124154460Y-104886911D01*
X124139269Y-104856765D01*
X124124652Y-104814384D01*
X124115802Y-104769784D01*
X124112800Y-104722523D01*
X124116336Y-104671080D01*
X124126454Y-104625924D01*
X124142689Y-104586082D01*
X124159447Y-104558378D01*
X124179110Y-104534617D01*
X124201791Y-104514432D01*
X124227746Y-104497605D01*
X124265513Y-104480897D01*
X124305781Y-104470811D01*
X124349166Y-104467380D01*
X124386531Y-104469937D01*
X124419634Y-104477282D01*
X124449125Y-104489113D01*
X124475531Y-104505391D01*
X124498863Y-104525953D01*
X124518459Y-104550295D01*
X124534491Y-104578846D01*
X124546911Y-104612216D01*
X124481698Y-104627604D01*
X124467429Y-104592869D01*
X124450509Y-104567019D01*
X124431140Y-104548377D01*
X124407903Y-104534909D01*
X124380460Y-104526520D01*
X124347792Y-104523556D01*
X124310180Y-104526866D01*
X124278379Y-104536247D01*
X124251285Y-104551308D01*
X124228060Y-104571853D01*
X124210005Y-104596473D01*
X124196819Y-104625772D01*
X124188102Y-104657250D01*
X124182877Y-104689318D01*
X124181127Y-104722156D01*
X124183357Y-104764577D01*
X124189694Y-104801618D01*
X124199720Y-104833989D01*
X124214818Y-104863745D01*
X124234045Y-104887248D01*
X124257605Y-104905369D01*
X124284601Y-104918528D01*
X124312804Y-104926362D01*
X124342663Y-104928999D01*
X124370135Y-104926881D01*
X124394696Y-104920757D01*
X124416837Y-104910787D01*
X124436940Y-104896881D01*
X124454003Y-104879692D01*
X124468443Y-104858510D01*
X124480253Y-104832716D01*
X124489208Y-104801505D01*
G37*
G36*
X124807809Y-104475830D02*
G01*
X124835711Y-104483198D01*
X124859869Y-104495020D01*
X124880882Y-104511344D01*
X124898551Y-104531675D01*
X124910883Y-104553616D01*
X124918307Y-104577550D01*
X124920847Y-104604034D01*
X124918734Y-104626670D01*
X124912615Y-104646708D01*
X124902559Y-104664668D01*
X124888865Y-104680017D01*
X124870661Y-104693290D01*
X124847085Y-104704449D01*
X124876167Y-104716976D01*
X124899257Y-104733167D01*
X124917275Y-104753053D01*
X124930480Y-104776451D01*
X124938558Y-104802906D01*
X124941363Y-104833165D01*
X124938444Y-104864471D01*
X124929949Y-104892528D01*
X124915919Y-104918004D01*
X124895934Y-104941364D01*
X124871996Y-104960174D01*
X124844572Y-104973762D01*
X124812995Y-104982212D01*
X124776377Y-104985175D01*
X124739770Y-104982201D01*
X124708197Y-104973720D01*
X124680770Y-104960076D01*
X124656820Y-104941181D01*
X124636914Y-104917762D01*
X124622886Y-104892029D01*
X124614360Y-104863493D01*
X124611449Y-104831760D01*
X124674589Y-104831760D01*
X124677666Y-104857385D01*
X124687045Y-104882471D01*
X124696715Y-104897590D01*
X124708981Y-104910175D01*
X124724109Y-104920451D01*
X124749618Y-104930516D01*
X124777079Y-104933884D01*
X124805289Y-104930612D01*
X124829203Y-104921209D01*
X124849802Y-104905644D01*
X124865647Y-104885265D01*
X124875187Y-104861636D01*
X124878501Y-104833775D01*
X124875102Y-104805527D01*
X124865292Y-104781461D01*
X124848948Y-104760594D01*
X124827764Y-104744601D01*
X124803433Y-104734983D01*
X124775003Y-104731651D01*
X124747290Y-104734944D01*
X124723640Y-104744445D01*
X124703104Y-104760258D01*
X124687323Y-104780797D01*
X124677861Y-104804324D01*
X124674589Y-104831760D01*
X124611449Y-104831760D01*
X124611421Y-104831455D01*
X124614355Y-104799648D01*
X124622702Y-104772636D01*
X124636182Y-104749481D01*
X124654627Y-104730108D01*
X124677832Y-104715116D01*
X124706707Y-104704449D01*
X124682450Y-104693232D01*
X124663866Y-104679892D01*
X124650012Y-104664484D01*
X124639916Y-104646397D01*
X124633725Y-104625872D01*
X124631571Y-104602325D01*
X124631753Y-104600401D01*
X124694403Y-104600401D01*
X124697060Y-104622925D01*
X124704675Y-104641854D01*
X124717270Y-104658012D01*
X124733737Y-104670256D01*
X124753260Y-104677734D01*
X124776713Y-104680360D01*
X124799498Y-104677770D01*
X124818643Y-104670360D01*
X124834965Y-104658165D01*
X124847621Y-104642196D01*
X124855114Y-104624291D01*
X124857679Y-104603790D01*
X124855025Y-104582425D01*
X124847291Y-104563861D01*
X124834262Y-104547400D01*
X124817494Y-104534749D01*
X124798331Y-104527158D01*
X124776041Y-104524533D01*
X124753499Y-104527122D01*
X124734283Y-104534572D01*
X124717637Y-104546912D01*
X124704605Y-104562990D01*
X124696985Y-104580616D01*
X124694403Y-104600401D01*
X124631753Y-104600401D01*
X124634086Y-104575796D01*
X124641411Y-104551999D01*
X124653531Y-104530362D01*
X124670833Y-104510489D01*
X124691488Y-104494571D01*
X124715354Y-104483010D01*
X124743046Y-104475785D01*
X124775369Y-104473242D01*
X124807809Y-104475830D01*
G37*
G36*
X128450858Y-95820035D02*
G01*
X128485054Y-95825144D01*
X128512821Y-95833738D01*
X128537158Y-95845733D01*
X128558510Y-95861109D01*
X128582480Y-95885300D01*
X128602183Y-95913714D01*
X128617739Y-95946899D01*
X128628400Y-95982247D01*
X128635072Y-96021836D01*
X128637400Y-96066273D01*
X128635804Y-96104294D01*
X128631256Y-96137937D01*
X128624058Y-96167695D01*
X128608291Y-96209277D01*
X128589895Y-96240815D01*
X128567575Y-96267185D01*
X128544313Y-96286366D01*
X128517705Y-96300664D01*
X128484535Y-96311554D01*
X128448156Y-96317834D01*
X128404118Y-96320103D01*
X128223439Y-96320103D01*
X128223439Y-96261973D01*
X128289690Y-96261973D01*
X128396607Y-96261973D01*
X128443399Y-96259327D01*
X128474307Y-96252691D01*
X128500254Y-96241117D01*
X128519217Y-96226496D01*
X128533270Y-96209546D01*
X128545542Y-96188467D01*
X128555915Y-96162566D01*
X128562918Y-96135488D01*
X128567449Y-96103311D01*
X128569073Y-96065235D01*
X128567132Y-96024516D01*
X128561803Y-95991438D01*
X128553707Y-95964774D01*
X128543275Y-95943449D01*
X128524017Y-95917254D01*
X128503207Y-95898638D01*
X128480627Y-95886419D01*
X128462323Y-95881262D01*
X128434726Y-95877531D01*
X128394898Y-95876069D01*
X128289690Y-95876069D01*
X128289690Y-96261973D01*
X128223439Y-96261973D01*
X128223439Y-95817939D01*
X128395905Y-95817939D01*
X128450858Y-95820035D01*
G37*
G36*
X128935163Y-96320103D02*
G01*
X128873675Y-96320103D01*
X128873675Y-95927299D01*
X128849207Y-95947656D01*
X128815453Y-95969767D01*
X128779931Y-95988987D01*
X128750729Y-96001610D01*
X128750729Y-95942992D01*
X128784170Y-95925201D01*
X128814132Y-95905413D01*
X128840885Y-95883641D01*
X128865430Y-95859180D01*
X128883281Y-95836724D01*
X128895534Y-95815985D01*
X128935163Y-95815985D01*
X128935163Y-96320103D01*
G37*
G36*
X131758124Y-99687891D02*
G01*
X131824375Y-99704621D01*
X131811231Y-99744502D01*
X131794270Y-99777939D01*
X131773681Y-99805822D01*
X131749393Y-99828819D01*
X131721328Y-99847248D01*
X131690295Y-99860532D01*
X131655758Y-99868723D01*
X131617044Y-99871561D01*
X131576214Y-99869241D01*
X131541197Y-99862696D01*
X131511153Y-99852400D01*
X131485366Y-99838619D01*
X131461886Y-99820612D01*
X131441274Y-99798953D01*
X131423376Y-99773297D01*
X131408185Y-99743151D01*
X131393568Y-99700770D01*
X131384718Y-99656170D01*
X131381716Y-99608909D01*
X131385252Y-99557466D01*
X131395370Y-99512310D01*
X131411605Y-99472468D01*
X131428363Y-99444764D01*
X131448026Y-99421003D01*
X131470707Y-99400818D01*
X131496662Y-99383991D01*
X131534429Y-99367283D01*
X131574697Y-99357197D01*
X131618082Y-99353766D01*
X131655447Y-99356323D01*
X131688550Y-99363668D01*
X131718041Y-99375499D01*
X131744447Y-99391777D01*
X131767779Y-99412339D01*
X131787375Y-99436681D01*
X131803407Y-99465232D01*
X131815827Y-99498602D01*
X131750614Y-99513990D01*
X131736345Y-99479255D01*
X131719425Y-99453405D01*
X131700056Y-99434763D01*
X131676819Y-99421295D01*
X131649376Y-99412906D01*
X131616708Y-99409942D01*
X131579096Y-99413252D01*
X131547295Y-99422633D01*
X131520201Y-99437694D01*
X131496976Y-99458239D01*
X131478921Y-99482859D01*
X131465735Y-99512158D01*
X131457018Y-99543636D01*
X131451793Y-99575704D01*
X131450043Y-99608542D01*
X131452273Y-99650963D01*
X131458610Y-99688004D01*
X131468636Y-99720375D01*
X131483734Y-99750131D01*
X131502961Y-99773634D01*
X131526521Y-99791755D01*
X131553517Y-99804914D01*
X131581720Y-99812748D01*
X131611579Y-99815385D01*
X131639051Y-99813267D01*
X131663612Y-99807143D01*
X131685753Y-99797173D01*
X131705856Y-99783267D01*
X131722919Y-99766078D01*
X131737359Y-99744896D01*
X131749169Y-99719102D01*
X131758124Y-99687891D01*
G37*
G36*
X131885100Y-99425574D02*
G01*
X131885100Y-99367444D01*
X132209241Y-99367444D01*
X132209241Y-99415255D01*
X132179258Y-99450734D01*
X132147688Y-99495546D01*
X132114444Y-99551145D01*
X132085331Y-99608570D01*
X132061193Y-99666623D01*
X132041874Y-99725443D01*
X132031268Y-99767887D01*
X132023351Y-99813884D01*
X132018304Y-99863746D01*
X131955137Y-99863746D01*
X131957815Y-99824323D01*
X131965224Y-99776826D01*
X131978340Y-99719978D01*
X131995257Y-99664586D01*
X132016465Y-99610463D01*
X132042057Y-99557465D01*
X132071421Y-99506235D01*
X132100865Y-99462527D01*
X132130350Y-99425574D01*
X131885100Y-99425574D01*
G37*
G36*
X124442912Y-101355722D02*
G01*
X124476019Y-101360495D01*
X124499763Y-101367336D01*
X124521286Y-101378481D01*
X124539727Y-101394122D01*
X124555419Y-101414780D01*
X124566982Y-101438170D01*
X124573918Y-101463059D01*
X124576272Y-101489884D01*
X124574030Y-101515841D01*
X124567523Y-101539077D01*
X124556844Y-101560106D01*
X124541772Y-101579308D01*
X124523600Y-101594853D01*
X124500467Y-101607899D01*
X124471406Y-101618270D01*
X124435221Y-101625531D01*
X124459551Y-101638998D01*
X124475155Y-101650749D01*
X124502740Y-101680243D01*
X124530171Y-101718160D01*
X124617243Y-101856066D01*
X124533926Y-101856066D01*
X124467645Y-101750553D01*
X124419834Y-101680699D01*
X124400824Y-101658892D01*
X124386190Y-101646780D01*
X124370987Y-101638473D01*
X124355965Y-101633285D01*
X124319084Y-101630874D01*
X124242239Y-101630874D01*
X124242239Y-101856066D01*
X124175958Y-101856066D01*
X124175958Y-101574698D01*
X124242239Y-101574698D01*
X124384663Y-101574698D01*
X124427522Y-101572044D01*
X124455707Y-101565386D01*
X124471731Y-101557721D01*
X124484557Y-101547790D01*
X124494634Y-101535497D01*
X124504630Y-101514020D01*
X124507945Y-101490861D01*
X124505013Y-101468494D01*
X124496505Y-101449422D01*
X124482147Y-101432823D01*
X124463541Y-101421016D01*
X124437243Y-101413085D01*
X124400722Y-101410078D01*
X124242239Y-101410078D01*
X124242239Y-101574698D01*
X124175958Y-101574698D01*
X124175958Y-101353902D01*
X124397974Y-101353902D01*
X124442912Y-101355722D01*
G37*
G36*
X124850817Y-101354536D02*
G01*
X124878719Y-101361904D01*
X124902877Y-101373726D01*
X124923890Y-101390050D01*
X124941559Y-101410381D01*
X124953891Y-101432322D01*
X124961315Y-101456256D01*
X124963855Y-101482740D01*
X124961742Y-101505376D01*
X124955623Y-101525414D01*
X124945567Y-101543374D01*
X124931873Y-101558723D01*
X124913669Y-101571996D01*
X124890093Y-101583155D01*
X124919175Y-101595682D01*
X124942265Y-101611873D01*
X124960283Y-101631759D01*
X124973488Y-101655157D01*
X124981566Y-101681612D01*
X124984371Y-101711871D01*
X124981452Y-101743177D01*
X124972957Y-101771234D01*
X124958927Y-101796710D01*
X124938942Y-101820070D01*
X124915004Y-101838880D01*
X124887580Y-101852468D01*
X124856003Y-101860918D01*
X124819385Y-101863881D01*
X124782778Y-101860907D01*
X124751205Y-101852426D01*
X124723778Y-101838782D01*
X124699828Y-101819887D01*
X124679922Y-101796468D01*
X124665894Y-101770735D01*
X124657368Y-101742199D01*
X124654457Y-101710466D01*
X124717597Y-101710466D01*
X124720674Y-101736091D01*
X124730053Y-101761177D01*
X124739723Y-101776296D01*
X124751989Y-101788881D01*
X124767117Y-101799157D01*
X124792626Y-101809222D01*
X124820087Y-101812590D01*
X124848297Y-101809318D01*
X124872211Y-101799915D01*
X124892810Y-101784350D01*
X124908655Y-101763971D01*
X124918195Y-101740342D01*
X124921509Y-101712481D01*
X124918110Y-101684233D01*
X124908300Y-101660167D01*
X124891956Y-101639300D01*
X124870772Y-101623307D01*
X124846441Y-101613689D01*
X124818011Y-101610357D01*
X124790298Y-101613650D01*
X124766648Y-101623151D01*
X124746112Y-101638964D01*
X124730331Y-101659503D01*
X124720869Y-101683030D01*
X124717597Y-101710466D01*
X124654457Y-101710466D01*
X124654429Y-101710161D01*
X124657363Y-101678354D01*
X124665710Y-101651342D01*
X124679190Y-101628187D01*
X124697635Y-101608814D01*
X124720840Y-101593822D01*
X124749715Y-101583155D01*
X124725458Y-101571938D01*
X124706874Y-101558598D01*
X124693020Y-101543190D01*
X124682924Y-101525103D01*
X124676733Y-101504578D01*
X124674579Y-101481031D01*
X124674761Y-101479107D01*
X124737411Y-101479107D01*
X124740068Y-101501631D01*
X124747683Y-101520560D01*
X124760278Y-101536718D01*
X124776745Y-101548962D01*
X124796268Y-101556440D01*
X124819721Y-101559066D01*
X124842506Y-101556476D01*
X124861651Y-101549066D01*
X124877973Y-101536871D01*
X124890629Y-101520902D01*
X124898122Y-101502997D01*
X124900687Y-101482496D01*
X124898033Y-101461131D01*
X124890299Y-101442567D01*
X124877270Y-101426106D01*
X124860502Y-101413455D01*
X124841339Y-101405864D01*
X124819049Y-101403239D01*
X124796507Y-101405828D01*
X124777291Y-101413278D01*
X124760645Y-101425618D01*
X124747613Y-101441696D01*
X124739993Y-101459322D01*
X124737411Y-101479107D01*
X124674761Y-101479107D01*
X124677094Y-101454502D01*
X124684419Y-101430705D01*
X124696539Y-101409068D01*
X124713841Y-101389195D01*
X124734496Y-101373277D01*
X124758362Y-101361716D01*
X124786054Y-101354491D01*
X124818377Y-101351948D01*
X124850817Y-101354536D01*
G37*
G36*
X124004019Y-102944813D02*
G01*
X124037126Y-102949586D01*
X124060870Y-102956427D01*
X124082393Y-102967572D01*
X124100834Y-102983213D01*
X124116526Y-103003871D01*
X124128089Y-103027261D01*
X124135025Y-103052150D01*
X124137379Y-103078975D01*
X124135137Y-103104932D01*
X124128630Y-103128168D01*
X124117951Y-103149197D01*
X124102879Y-103168399D01*
X124084707Y-103183944D01*
X124061574Y-103196990D01*
X124032513Y-103207361D01*
X123996328Y-103214622D01*
X124020658Y-103228089D01*
X124036262Y-103239840D01*
X124063847Y-103269334D01*
X124091278Y-103307251D01*
X124178350Y-103445157D01*
X124095033Y-103445157D01*
X124028752Y-103339644D01*
X123980941Y-103269790D01*
X123961931Y-103247983D01*
X123947297Y-103235871D01*
X123932094Y-103227564D01*
X123917072Y-103222376D01*
X123880191Y-103219965D01*
X123803346Y-103219965D01*
X123803346Y-103445157D01*
X123737065Y-103445157D01*
X123737065Y-103163789D01*
X123803346Y-103163789D01*
X123945770Y-103163789D01*
X123988629Y-103161135D01*
X124016814Y-103154477D01*
X124032838Y-103146812D01*
X124045664Y-103136881D01*
X124055741Y-103124588D01*
X124065737Y-103103111D01*
X124069052Y-103079952D01*
X124066120Y-103057585D01*
X124057612Y-103038513D01*
X124043254Y-103021914D01*
X124024648Y-103010107D01*
X123998350Y-103002176D01*
X123961829Y-102999169D01*
X123803346Y-102999169D01*
X123803346Y-103163789D01*
X123737065Y-103163789D01*
X123737065Y-102942993D01*
X123959081Y-102942993D01*
X124004019Y-102944813D01*
G37*
G36*
X124447781Y-103445157D02*
G01*
X124386293Y-103445157D01*
X124386293Y-103052353D01*
X124361825Y-103072710D01*
X124328071Y-103094821D01*
X124292549Y-103114041D01*
X124263347Y-103126664D01*
X124263347Y-103068046D01*
X124296788Y-103050255D01*
X124326750Y-103030467D01*
X124353503Y-103008695D01*
X124378048Y-102984234D01*
X124395899Y-102961778D01*
X124408152Y-102941039D01*
X124447781Y-102941039D01*
X124447781Y-103445157D01*
G37*
G36*
X124794781Y-102942948D02*
G01*
X124818178Y-102948431D01*
X124838997Y-102957281D01*
X124857968Y-102969610D01*
X124874653Y-102985130D01*
X124889219Y-103004146D01*
X124906458Y-103037035D01*
X124920299Y-103078701D01*
X124928370Y-103126467D01*
X124931565Y-103197189D01*
X124929228Y-103256175D01*
X124922899Y-103302971D01*
X124913460Y-103339613D01*
X124898798Y-103374145D01*
X124880726Y-103401718D01*
X124859330Y-103423388D01*
X124833873Y-103439511D01*
X124803921Y-103449468D01*
X124768319Y-103452972D01*
X124733086Y-103449525D01*
X124703021Y-103439675D01*
X124677074Y-103423646D01*
X124654563Y-103400979D01*
X124638532Y-103376271D01*
X124625058Y-103344968D01*
X124614529Y-103305748D01*
X124607577Y-103257066D01*
X124605043Y-103197189D01*
X124605050Y-103197006D01*
X124668241Y-103197006D01*
X124670774Y-103262761D01*
X124677291Y-103309116D01*
X124686400Y-103340559D01*
X124697092Y-103360923D01*
X124713132Y-103379477D01*
X124730114Y-103391938D01*
X124748329Y-103399225D01*
X124768319Y-103401681D01*
X124788283Y-103399218D01*
X124806483Y-103391904D01*
X124823464Y-103379390D01*
X124839516Y-103360740D01*
X124850233Y-103340289D01*
X124859351Y-103308815D01*
X124865867Y-103262532D01*
X124868398Y-103197006D01*
X124865857Y-103131043D01*
X124859326Y-103084628D01*
X124850208Y-103053217D01*
X124839516Y-103032936D01*
X124823491Y-103014508D01*
X124806408Y-103002087D01*
X124787968Y-102994795D01*
X124767617Y-102992330D01*
X124747362Y-102994604D01*
X124729695Y-103001200D01*
X124714018Y-103012185D01*
X124699992Y-103028142D01*
X124687964Y-103050983D01*
X124677955Y-103084456D01*
X124670932Y-103131855D01*
X124668241Y-103197006D01*
X124605050Y-103197006D01*
X124607405Y-103137703D01*
X124613794Y-103090698D01*
X124623300Y-103054063D01*
X124638077Y-103019533D01*
X124656210Y-102992026D01*
X124677613Y-102970471D01*
X124703073Y-102954421D01*
X124732932Y-102944520D01*
X124768319Y-102941039D01*
X124794781Y-102942948D01*
G37*
G36*
X131900735Y-97915444D02*
G01*
X131966986Y-97932174D01*
X131953842Y-97972055D01*
X131936881Y-98005492D01*
X131916292Y-98033375D01*
X131892004Y-98056372D01*
X131863939Y-98074801D01*
X131832906Y-98088085D01*
X131798369Y-98096276D01*
X131759655Y-98099114D01*
X131718825Y-98096794D01*
X131683808Y-98090249D01*
X131653764Y-98079953D01*
X131627977Y-98066172D01*
X131604497Y-98048165D01*
X131583885Y-98026506D01*
X131565987Y-98000850D01*
X131550796Y-97970704D01*
X131536179Y-97928323D01*
X131527329Y-97883723D01*
X131524327Y-97836462D01*
X131527863Y-97785019D01*
X131537981Y-97739863D01*
X131554216Y-97700021D01*
X131570974Y-97672317D01*
X131590637Y-97648556D01*
X131613318Y-97628371D01*
X131639273Y-97611544D01*
X131677040Y-97594836D01*
X131717308Y-97584750D01*
X131760693Y-97581319D01*
X131798058Y-97583876D01*
X131831161Y-97591221D01*
X131860652Y-97603052D01*
X131887058Y-97619330D01*
X131910390Y-97639892D01*
X131929986Y-97664234D01*
X131946018Y-97692785D01*
X131958438Y-97726155D01*
X131893225Y-97741543D01*
X131878956Y-97706808D01*
X131862036Y-97680958D01*
X131842667Y-97662316D01*
X131819430Y-97648848D01*
X131791987Y-97640459D01*
X131759319Y-97637495D01*
X131721707Y-97640805D01*
X131689906Y-97650186D01*
X131662812Y-97665247D01*
X131639587Y-97685792D01*
X131621532Y-97710412D01*
X131608346Y-97739711D01*
X131599629Y-97771189D01*
X131594404Y-97803257D01*
X131592654Y-97836095D01*
X131594884Y-97878516D01*
X131601221Y-97915557D01*
X131611247Y-97947928D01*
X131626345Y-97977684D01*
X131645572Y-98001187D01*
X131669132Y-98019308D01*
X131696128Y-98032467D01*
X131724331Y-98040301D01*
X131754190Y-98042938D01*
X131781662Y-98040820D01*
X131806223Y-98034696D01*
X131828364Y-98024726D01*
X131848467Y-98010820D01*
X131865530Y-97993631D01*
X131879970Y-97972449D01*
X131891780Y-97946655D01*
X131900735Y-97915444D01*
G37*
G36*
X132212851Y-97590137D02*
G01*
X132242445Y-97598878D01*
X132270397Y-97613529D01*
X132294937Y-97633282D01*
X132315371Y-97658061D01*
X132331885Y-97688573D01*
X132342633Y-97721882D01*
X132350067Y-97767805D01*
X132352890Y-97829653D01*
X132350174Y-97893902D01*
X132342865Y-97944074D01*
X132332038Y-97982671D01*
X132315286Y-98018665D01*
X132294630Y-98047197D01*
X132270061Y-98069378D01*
X132241378Y-98085754D01*
X132209486Y-98095690D01*
X132173555Y-98099114D01*
X132144453Y-98096890D01*
X132119157Y-98090536D01*
X132097027Y-98080324D01*
X132077567Y-98066233D01*
X132061237Y-98048666D01*
X132048328Y-98027777D01*
X132038790Y-98003036D01*
X132032840Y-97973726D01*
X132091916Y-97968200D01*
X132099072Y-97995258D01*
X132108768Y-98014974D01*
X132120615Y-98028956D01*
X132135706Y-98039256D01*
X132153562Y-98045593D01*
X132174929Y-98047823D01*
X132201928Y-98044468D01*
X132224632Y-98034817D01*
X132243994Y-98019661D01*
X132259620Y-98000043D01*
X132271582Y-97975992D01*
X132282517Y-97941272D01*
X132289430Y-97903928D01*
X132291738Y-97865862D01*
X132291402Y-97853528D01*
X132277725Y-97871726D01*
X132261035Y-97887547D01*
X132241027Y-97901125D01*
X132219140Y-97911253D01*
X132196193Y-97917308D01*
X132171845Y-97919352D01*
X132141674Y-97916485D01*
X132114473Y-97908113D01*
X132089608Y-97894233D01*
X132066637Y-97874380D01*
X132048191Y-97850707D01*
X132034846Y-97823539D01*
X132026537Y-97792208D01*
X132023801Y-97758090D01*
X132086818Y-97758090D01*
X132090214Y-97788631D01*
X132099875Y-97814019D01*
X132115669Y-97835393D01*
X132136453Y-97851941D01*
X132159900Y-97861760D01*
X132186896Y-97865130D01*
X132214050Y-97861722D01*
X132237107Y-97851877D01*
X132257055Y-97835393D01*
X132271841Y-97814018D01*
X132281188Y-97787073D01*
X132284563Y-97752992D01*
X132281145Y-97718943D01*
X132271603Y-97691557D01*
X132256384Y-97669400D01*
X132235986Y-97651998D01*
X132213663Y-97641888D01*
X132188606Y-97638472D01*
X132162699Y-97642099D01*
X132139166Y-97652937D01*
X132117196Y-97671781D01*
X132100626Y-97695575D01*
X132090419Y-97723930D01*
X132086818Y-97758090D01*
X132023801Y-97758090D01*
X132023620Y-97755831D01*
X132026662Y-97718288D01*
X132035329Y-97685966D01*
X132049257Y-97657943D01*
X132068530Y-97633526D01*
X132092432Y-97613232D01*
X132118779Y-97598908D01*
X132148081Y-97590190D01*
X132181065Y-97587181D01*
X132212851Y-97590137D01*
G37*
G36*
X128781645Y-91785720D02*
G01*
X128798375Y-91719469D01*
X128838256Y-91732613D01*
X128871693Y-91749574D01*
X128899576Y-91770163D01*
X128922573Y-91794451D01*
X128941002Y-91822516D01*
X128954286Y-91853549D01*
X128962477Y-91888086D01*
X128965315Y-91926800D01*
X128962995Y-91967630D01*
X128956450Y-92002647D01*
X128946154Y-92032691D01*
X128932373Y-92058478D01*
X128914366Y-92081958D01*
X128892707Y-92102570D01*
X128867051Y-92120468D01*
X128836905Y-92135659D01*
X128794524Y-92150276D01*
X128749924Y-92159126D01*
X128702663Y-92162128D01*
X128651220Y-92158592D01*
X128606064Y-92148474D01*
X128566222Y-92132239D01*
X128538518Y-92115481D01*
X128514757Y-92095818D01*
X128494572Y-92073137D01*
X128477745Y-92047182D01*
X128461037Y-92009415D01*
X128450951Y-91969147D01*
X128447520Y-91925762D01*
X128450077Y-91888397D01*
X128457422Y-91855294D01*
X128469253Y-91825803D01*
X128485531Y-91799397D01*
X128506093Y-91776065D01*
X128530435Y-91756469D01*
X128558986Y-91740437D01*
X128592356Y-91728017D01*
X128607744Y-91793230D01*
X128573009Y-91807499D01*
X128547159Y-91824419D01*
X128528517Y-91843788D01*
X128515049Y-91867025D01*
X128506660Y-91894468D01*
X128503696Y-91927136D01*
X128507006Y-91964748D01*
X128516387Y-91996549D01*
X128531448Y-92023643D01*
X128551993Y-92046868D01*
X128576613Y-92064923D01*
X128605912Y-92078109D01*
X128637390Y-92086826D01*
X128669458Y-92092051D01*
X128702296Y-92093801D01*
X128744717Y-92091571D01*
X128781758Y-92085234D01*
X128814129Y-92075208D01*
X128843885Y-92060110D01*
X128867388Y-92040883D01*
X128885509Y-92017323D01*
X128898668Y-91990327D01*
X128906502Y-91962124D01*
X128909139Y-91932265D01*
X128907021Y-91904793D01*
X128900897Y-91880232D01*
X128890927Y-91858091D01*
X128877021Y-91837988D01*
X128859832Y-91820925D01*
X128838650Y-91806485D01*
X128812856Y-91794675D01*
X128781645Y-91785720D01*
G37*
G36*
X128837821Y-91404273D02*
G01*
X128957500Y-91404273D01*
X128957500Y-91465761D01*
X128837821Y-91465761D01*
X128837821Y-91682985D01*
X128781645Y-91682985D01*
X128473281Y-91465761D01*
X128555964Y-91465761D01*
X128781645Y-91622535D01*
X128781645Y-91465761D01*
X128555964Y-91465761D01*
X128473281Y-91465761D01*
X128457290Y-91454496D01*
X128457290Y-91404273D01*
X128781645Y-91404273D01*
X128781645Y-91336649D01*
X128837821Y-91336649D01*
X128837821Y-91404273D01*
G37*
D13*
X130420000Y-109780000D02*
X130420000Y-107020000D01*
X125230000Y-109780000D02*
X130420000Y-109780000D01*
X125230000Y-109780000D02*
X125230000Y-107020000D01*
X125230000Y-107020000D02*
X130420000Y-107020000D01*
X123960000Y-109780000D02*
X122580000Y-109780000D01*
X122580000Y-109780000D02*
X122580000Y-108400000D01*
X129753641Y-105695000D02*
X129446359Y-105695000D01*
X129753641Y-106455000D02*
X129446359Y-106455000D01*
X127890000Y-95412500D02*
X127410000Y-95412500D01*
X127650000Y-95082500D01*
X127890000Y-95412500D01*
G36*
X127890000Y-95412500D02*
G01*
X127410000Y-95412500D01*
X127650000Y-95082500D01*
X127890000Y-95412500D01*
G37*
X126350000Y-95132500D02*
X127150000Y-95132500D01*
X126350000Y-95132500D02*
X125550000Y-95132500D01*
X126350000Y-92012500D02*
X127150000Y-92012500D01*
X126350000Y-92012500D02*
X125550000Y-92012500D01*
X132740000Y-101662500D02*
X132500000Y-101332500D01*
X132980000Y-101332500D01*
X132740000Y-101662500D01*
G36*
X132740000Y-101662500D02*
G01*
X132500000Y-101332500D01*
X132980000Y-101332500D01*
X132740000Y-101662500D01*
G37*
X135960000Y-104882500D02*
X135960000Y-104407500D01*
X135960000Y-101662500D02*
X135960000Y-102137500D01*
X135485000Y-104882500D02*
X135960000Y-104882500D01*
X135485000Y-101662500D02*
X135960000Y-101662500D01*
X133215000Y-104882500D02*
X132740000Y-104882500D01*
X133215000Y-101662500D02*
X133040000Y-101662500D01*
X132740000Y-104882500D02*
X132740000Y-104407500D01*
X132740000Y-102137500D02*
X132740000Y-101902500D01*
X131475000Y-73035000D02*
X131975000Y-73035000D01*
X131725000Y-72535000D02*
X131475000Y-73035000D01*
X131975000Y-73035000D02*
X131725000Y-72535000D01*
D14*
X126717774Y-85147954D02*
X128244774Y-85147954D01*
X128594774Y-85275954D02*
X131790774Y-85275954D01*
X128594774Y-90179954D02*
X128594774Y-85275954D01*
X131790774Y-85275954D02*
X131790774Y-90179954D01*
X131790774Y-90179954D02*
X128594774Y-90179954D01*
D13*
X132727500Y-94737258D02*
X132727500Y-94262742D01*
X133772500Y-94737258D02*
X133772500Y-94262742D01*
X131855302Y-82939497D02*
X131855302Y-83414013D01*
X132900302Y-82939497D02*
X132900302Y-83414013D01*
X129644420Y-100870000D02*
X129925580Y-100870000D01*
X129644420Y-101890000D02*
X129925580Y-101890000D01*
X124681597Y-68118654D02*
G75*
G02*
X123081597Y-68118654I-800000J0D01*
G01*
X123081597Y-68118654D02*
G75*
G02*
X124681597Y-68118654I800000J0D01*
G01*
X135780000Y-100025580D02*
X135780000Y-99744420D01*
X136800000Y-100025580D02*
X136800000Y-99744420D01*
X123567500Y-99572258D02*
X123567500Y-99097742D01*
X124612500Y-99572258D02*
X124612500Y-99097742D01*
X124665007Y-89907258D02*
X124665007Y-89626098D01*
X125685007Y-89907258D02*
X125685007Y-89626098D01*
X125030000Y-98632500D02*
X125030000Y-97832500D01*
X125030000Y-98632500D02*
X125030000Y-99432500D01*
X128150000Y-98632500D02*
X128150000Y-97832500D01*
X128150000Y-98632500D02*
X128150000Y-99432500D01*
X128430000Y-97572500D02*
X128100000Y-97332500D01*
X128430000Y-97092500D01*
X128430000Y-97572500D01*
G36*
X128430000Y-97572500D02*
G01*
X128100000Y-97332500D01*
X128430000Y-97092500D01*
X128430000Y-97572500D01*
G37*
X133007500Y-99612258D02*
X133007500Y-99137742D01*
X134052500Y-99612258D02*
X134052500Y-99137742D01*
X123870000Y-84355000D02*
X123870000Y-82975000D01*
X125250000Y-84355000D02*
X123870000Y-84355000D01*
X126520000Y-81595000D02*
X129170000Y-81595000D01*
X126520000Y-84355000D02*
X126520000Y-81595000D01*
X126520000Y-84355000D02*
X129170000Y-84355000D01*
X129170000Y-84355000D02*
X129170000Y-81595000D01*
X130359420Y-93240000D02*
X130640580Y-93240000D01*
X130359420Y-94260000D02*
X130640580Y-94260000D01*
X132393847Y-79350000D02*
X132393847Y-78550000D01*
X132393847Y-79350000D02*
X132393847Y-80150000D01*
X135513847Y-79350000D02*
X135513847Y-78550000D01*
X135513847Y-79350000D02*
X135513847Y-80150000D01*
X134908906Y-77400935D02*
X134668906Y-77070935D01*
X135148906Y-77070935D01*
X134908906Y-77400935D01*
G36*
X134908906Y-77400935D02*
G01*
X134668906Y-77070935D01*
X135148906Y-77070935D01*
X134908906Y-77400935D01*
G37*
X135932953Y-83359420D02*
X135932953Y-83640580D01*
X136952953Y-83359420D02*
X136952953Y-83640580D01*
X133959420Y-75765000D02*
X134240580Y-75765000D01*
X133959420Y-76785000D02*
X134240580Y-76785000D01*
X131430000Y-107070000D02*
X131430000Y-109730000D01*
X134030000Y-107070000D02*
X131430000Y-107070000D01*
X134030000Y-107070000D02*
X134030000Y-109730000D01*
X134030000Y-109730000D02*
X131430000Y-109730000D01*
X136630000Y-108400000D02*
X136630000Y-109730000D01*
X136630000Y-109730000D02*
X135300000Y-109730000D01*
X131090000Y-102680000D02*
X129690000Y-102680000D01*
X131100000Y-105000000D02*
X129690000Y-105000000D01*
X131710000Y-105280000D02*
X131230000Y-105280000D01*
X131470000Y-104950000D01*
X131710000Y-105280000D01*
G36*
X131710000Y-105280000D02*
G01*
X131230000Y-105280000D01*
X131470000Y-104950000D01*
X131710000Y-105280000D01*
G37*
X130265302Y-82939497D02*
X130265302Y-83414013D01*
X131310302Y-82939497D02*
X131310302Y-83414013D01*
X122278399Y-75461232D02*
X132028399Y-75461232D01*
X122278399Y-80511232D02*
X122278399Y-75461232D01*
X132028399Y-75461232D02*
X132028399Y-80511232D01*
X132028399Y-80511232D02*
X122278399Y-80511232D01*
X126740580Y-104240000D02*
X126459420Y-104240000D01*
X126740580Y-105260000D02*
X126459420Y-105260000D01*
X129700000Y-96235000D02*
X131985000Y-96235000D01*
X131985000Y-94765000D02*
X129700000Y-94765000D01*
X131985000Y-96235000D02*
X131985000Y-94765000D01*
X129709420Y-99070000D02*
X129990580Y-99070000D01*
X129709420Y-100090000D02*
X129990580Y-100090000D01*
X126807258Y-101017500D02*
X126332742Y-101017500D01*
X126807258Y-102062500D02*
X126332742Y-102062500D01*
X124696879Y-70311183D02*
G75*
G02*
X123096879Y-70311183I-800000J0D01*
G01*
X123096879Y-70311183D02*
G75*
G02*
X124696879Y-70311183I800000J0D01*
G01*
X126812258Y-102607500D02*
X126337742Y-102607500D01*
X126812258Y-103652500D02*
X126337742Y-103652500D01*
X129869420Y-97360000D02*
X130150580Y-97360000D01*
X129869420Y-98380000D02*
X130150580Y-98380000D01*
X130359420Y-91490000D02*
X130640580Y-91490000D01*
X130359420Y-92510000D02*
X130640580Y-92510000D01*
%LPC*%
D15*
X129040000Y-108400000D03*
X126500000Y-108400000D03*
D16*
X123960000Y-108400000D03*
D17*
X130110000Y-106075000D03*
X129090000Y-106075000D03*
D18*
X125212500Y-94522500D03*
X125212500Y-92622500D03*
X127487500Y-92622500D03*
X127487500Y-93572500D03*
X127487500Y-94522500D03*
D19*
X134350000Y-103272500D03*
D20*
X133600000Y-101835000D03*
X134100000Y-101835000D03*
X134600000Y-101835000D03*
X135100000Y-101835000D03*
D21*
X135787500Y-102522500D03*
X135787500Y-103022500D03*
X135787500Y-103522500D03*
X135787500Y-104022500D03*
D20*
X135100000Y-104710000D03*
X134600000Y-104710000D03*
X134100000Y-104710000D03*
X133600000Y-104710000D03*
D21*
X132912500Y-104022500D03*
X132912500Y-103522500D03*
X132912500Y-103022500D03*
X132912500Y-102522500D03*
D22*
X131725000Y-69325000D03*
X127475000Y-69325000D03*
X135975000Y-69325000D03*
D16*
X123320000Y-86485000D03*
D15*
X123320000Y-89025000D03*
X123320000Y-91565000D03*
X123320000Y-94105000D03*
X123320000Y-96645000D03*
D16*
X136020000Y-86485000D03*
D15*
X136020000Y-89025000D03*
X136020000Y-91565000D03*
X136020000Y-94105000D03*
X136020000Y-96645000D03*
D16*
X123320000Y-111250000D03*
D15*
X125860000Y-111250000D03*
X128400000Y-111250000D03*
X130940000Y-111250000D03*
X133480000Y-111250000D03*
X136020000Y-111250000D03*
D23*
X127481774Y-85822954D03*
X127481774Y-87092954D03*
X127481774Y-88362954D03*
X127481774Y-89632954D03*
X132903774Y-89632954D03*
X132903774Y-88362954D03*
X132903774Y-87092954D03*
X132903774Y-85822954D03*
D24*
X133250000Y-95325000D03*
X133250000Y-93675000D03*
D25*
X132377802Y-82351755D03*
X132377802Y-84001755D03*
D26*
X129010000Y-101380000D03*
X130560000Y-101380000D03*
D27*
X123881597Y-68118654D03*
D28*
X136290000Y-100660000D03*
X136290000Y-99110000D03*
D24*
X124090000Y-100160000D03*
X124090000Y-98510000D03*
D28*
X125175007Y-90541678D03*
X125175007Y-88991678D03*
D29*
X127540000Y-97495000D03*
X126590000Y-97495000D03*
X125640000Y-97495000D03*
X125640000Y-99770000D03*
X127540000Y-99770000D03*
D24*
X133530000Y-100200000D03*
X133530000Y-98550000D03*
D16*
X125250000Y-82975000D03*
D15*
X127790000Y-82975000D03*
D26*
X129725000Y-93750000D03*
X131275000Y-93750000D03*
D29*
X134903847Y-78212500D03*
X133953847Y-78212500D03*
X133003847Y-78212500D03*
X133003847Y-80487500D03*
X133953847Y-80487500D03*
X134903847Y-80487500D03*
D30*
X136442953Y-82725000D03*
X136442953Y-84275000D03*
D26*
X133325000Y-76275000D03*
X134875000Y-76275000D03*
D16*
X135300000Y-108400000D03*
D15*
X132760000Y-108400000D03*
D31*
X131340000Y-104490000D03*
X131340000Y-103840000D03*
X131340000Y-103190000D03*
X129440000Y-103190000D03*
X129440000Y-103840000D03*
X129440000Y-104490000D03*
D25*
X130787802Y-82351755D03*
X130787802Y-84001755D03*
D32*
X124613399Y-77991232D03*
X127153399Y-77991232D03*
X129693399Y-77991232D03*
D33*
X127375000Y-104750000D03*
X125825000Y-104750000D03*
D34*
X131287500Y-95500000D03*
X129712500Y-95500000D03*
D26*
X129075000Y-99580000D03*
X130625000Y-99580000D03*
D35*
X127395000Y-101540000D03*
X125745000Y-101540000D03*
D27*
X123896879Y-70311183D03*
D35*
X127400000Y-103130000D03*
X125750000Y-103130000D03*
D26*
X129235000Y-97870000D03*
X130785000Y-97870000D03*
X129725000Y-92000000D03*
X131275000Y-92000000D03*
%LPD*%
M02*
