%TF.GenerationSoftware,KiCad,Pcbnew,9.0.6*%
%TF.CreationDate,2026-01-10T17:13:57+00:00*%
%TF.ProjectId,CurrentSource,43757272-656e-4745-936f-757263652e6b,rev?*%
%TF.SameCoordinates,Original*%
%TF.FileFunction,Drillmap*%
%TF.FilePolarity,Positive*%
%FSLAX45Y45*%
G04 Gerber Fmt 4.5, Leading zero omitted, Abs format (unit mm)*
G04 Created by KiCad (PCBNEW 9.0.6) date 2026-01-10 17:13:57*
%MOMM*%
%LPD*%
G01*
G04 APERTURE LIST*
%ADD10C,0.100000*%
%ADD11C,0.200000*%
G04 APERTURE END LIST*
D10*
X13729000Y-8458000D02*
X13730000Y-6672500D01*
X13730000Y-6672500D02*
X12205000Y-6672500D01*
X12205000Y-8458000D02*
X12205000Y-6672500D01*
X12205000Y-8458000D02*
X12205000Y-11252000D01*
X12205000Y-11252000D02*
X13729000Y-11252000D01*
X13729000Y-11252000D02*
X13729000Y-8458000D01*
D11*
D10*
X13425000Y-10317250D02*
X13445000Y-10337250D01*
X13445000Y-10317250D02*
X13425000Y-10337250D01*
X12367500Y-7650000D02*
G75*
G02*
X12332500Y-7650000I-17500J0D01*
G01*
X12332500Y-7650000D02*
G75*
G02*
X12367500Y-7650000I17500J0D01*
G01*
X12445000Y-10662500D02*
G75*
G02*
X12410000Y-10662500I-17500J0D01*
G01*
X12410000Y-10662500D02*
G75*
G02*
X12445000Y-10662500I17500J0D01*
G01*
X12487500Y-9797500D02*
G75*
G02*
X12452500Y-9797500I-17500J0D01*
G01*
X12452500Y-9797500D02*
G75*
G02*
X12487500Y-9797500I17500J0D01*
G01*
X12517500Y-9349000D02*
G75*
G02*
X12482500Y-9349000I-17500J0D01*
G01*
X12482500Y-9349000D02*
G75*
G02*
X12517500Y-9349000I17500J0D01*
G01*
X12550000Y-10665000D02*
G75*
G02*
X12515000Y-10665000I-17500J0D01*
G01*
X12515000Y-10665000D02*
G75*
G02*
X12550000Y-10665000I17500J0D01*
G01*
X12600600Y-7641000D02*
G75*
G02*
X12565600Y-7641000I-17500J0D01*
G01*
X12565600Y-7641000D02*
G75*
G02*
X12600600Y-7641000I17500J0D01*
G01*
X12629773Y-9875000D02*
G75*
G02*
X12594773Y-9875000I-17500J0D01*
G01*
X12594773Y-9875000D02*
G75*
G02*
X12629773Y-9875000I17500J0D01*
G01*
X12667500Y-9135173D02*
G75*
G02*
X12632500Y-9135173I-17500J0D01*
G01*
X12632500Y-9135173D02*
G75*
G02*
X12667500Y-9135173I17500J0D01*
G01*
X12667500Y-9935700D02*
G75*
G02*
X12632500Y-9935700I-17500J0D01*
G01*
X12632500Y-9935700D02*
G75*
G02*
X12667500Y-9935700I17500J0D01*
G01*
X12775086Y-9605586D02*
G75*
G02*
X12740086Y-9605586I-17500J0D01*
G01*
X12740086Y-9605586D02*
G75*
G02*
X12775086Y-9605586I17500J0D01*
G01*
X12845007Y-10378047D02*
G75*
G02*
X12810007Y-10378047I-17500J0D01*
G01*
X12810007Y-10378047D02*
G75*
G02*
X12845007Y-10378047I17500J0D01*
G01*
X12850000Y-9895000D02*
G75*
G02*
X12815000Y-9895000I-17500J0D01*
G01*
X12815000Y-9895000D02*
G75*
G02*
X12850000Y-9895000I17500J0D01*
G01*
X12865000Y-9550000D02*
G75*
G02*
X12830000Y-9550000I-17500J0D01*
G01*
X12830000Y-9550000D02*
G75*
G02*
X12865000Y-9550000I17500J0D01*
G01*
X12868625Y-9358375D02*
G75*
G02*
X12833625Y-9358375I-17500J0D01*
G01*
X12833625Y-9358375D02*
G75*
G02*
X12868625Y-9358375I17500J0D01*
G01*
X12882025Y-9262250D02*
G75*
G02*
X12847025Y-9262250I-17500J0D01*
G01*
X12847025Y-9262250D02*
G75*
G02*
X12882025Y-9262250I17500J0D01*
G01*
X12885997Y-10283498D02*
G75*
G02*
X12850997Y-10283498I-17500J0D01*
G01*
X12850997Y-10283498D02*
G75*
G02*
X12885997Y-10283498I17500J0D01*
G01*
X12957709Y-8709295D02*
G75*
G02*
X12922709Y-8709295I-17500J0D01*
G01*
X12922709Y-8709295D02*
G75*
G02*
X12957709Y-8709295I17500J0D01*
G01*
X12959823Y-8835874D02*
G75*
G02*
X12924823Y-8835874I-17500J0D01*
G01*
X12924823Y-8835874D02*
G75*
G02*
X12959823Y-8835874I17500J0D01*
G01*
X12993164Y-9091609D02*
G75*
G02*
X12958164Y-9091609I-17500J0D01*
G01*
X12958164Y-9091609D02*
G75*
G02*
X12993164Y-9091609I17500J0D01*
G01*
X13185000Y-9100000D02*
G75*
G02*
X13150000Y-9100000I-17500J0D01*
G01*
X13150000Y-9100000D02*
G75*
G02*
X13185000Y-9100000I17500J0D01*
G01*
X13217500Y-8050000D02*
G75*
G02*
X13182500Y-8050000I-17500J0D01*
G01*
X13182500Y-8050000D02*
G75*
G02*
X13217500Y-8050000I17500J0D01*
G01*
X13244721Y-9862779D02*
G75*
G02*
X13209721Y-9862779I-17500J0D01*
G01*
X13209721Y-9862779D02*
G75*
G02*
X13244721Y-9862779I17500J0D01*
G01*
X13260000Y-9450000D02*
G75*
G02*
X13225000Y-9450000I-17500J0D01*
G01*
X13225000Y-9450000D02*
G75*
G02*
X13260000Y-9450000I17500J0D01*
G01*
X13313750Y-7103750D02*
G75*
G02*
X13278750Y-7103750I-17500J0D01*
G01*
X13278750Y-7103750D02*
G75*
G02*
X13313750Y-7103750I17500J0D01*
G01*
X13342500Y-9125000D02*
G75*
G02*
X13307500Y-9125000I-17500J0D01*
G01*
X13307500Y-9125000D02*
G75*
G02*
X13342500Y-9125000I17500J0D01*
G01*
X13342500Y-9275000D02*
G75*
G02*
X13307500Y-9275000I-17500J0D01*
G01*
X13307500Y-9275000D02*
G75*
G02*
X13342500Y-9275000I17500J0D01*
G01*
X13412885Y-7719615D02*
G75*
G02*
X13377885Y-7719615I-17500J0D01*
G01*
X13377885Y-7719615D02*
G75*
G02*
X13412885Y-7719615I17500J0D01*
G01*
X13417500Y-8250000D02*
G75*
G02*
X13382500Y-8250000I-17500J0D01*
G01*
X13382500Y-8250000D02*
G75*
G02*
X13417500Y-8250000I17500J0D01*
G01*
X13457500Y-10600000D02*
G75*
G02*
X13422500Y-10600000I-17500J0D01*
G01*
X13422500Y-10600000D02*
G75*
G02*
X13457500Y-10600000I17500J0D01*
G01*
X13460071Y-9967429D02*
G75*
G02*
X13425071Y-9967429I-17500J0D01*
G01*
X13425071Y-9967429D02*
G75*
G02*
X13460071Y-9967429I17500J0D01*
G01*
X13517500Y-8150000D02*
G75*
G02*
X13482500Y-8150000I-17500J0D01*
G01*
X13482500Y-8150000D02*
G75*
G02*
X13517500Y-8150000I17500J0D01*
G01*
X13527500Y-10035000D02*
G75*
G02*
X13492500Y-10035000I-17500J0D01*
G01*
X13492500Y-10035000D02*
G75*
G02*
X13527500Y-10035000I17500J0D01*
G01*
X13536923Y-8429547D02*
G75*
G02*
X13501923Y-8429547I-17500J0D01*
G01*
X13501923Y-8429547D02*
G75*
G02*
X13536923Y-8429547I17500J0D01*
G01*
X13545000Y-10547500D02*
G75*
G02*
X13510000Y-10547500I-17500J0D01*
G01*
X13510000Y-10547500D02*
G75*
G02*
X13545000Y-10547500I17500J0D01*
G01*
X13643886Y-7597562D02*
G75*
G02*
X13608886Y-7597562I-17500J0D01*
G01*
X13608886Y-7597562D02*
G75*
G02*
X13643886Y-7597562I17500J0D01*
G01*
X13669500Y-10501000D02*
G75*
G02*
X13634500Y-10501000I-17500J0D01*
G01*
X13634500Y-10501000D02*
G75*
G02*
X13669500Y-10501000I17500J0D01*
G01*
X13700097Y-10966196D02*
G75*
G02*
X13665097Y-10966196I-17500J0D01*
G01*
X13665097Y-10966196D02*
G75*
G02*
X13700097Y-10966196I17500J0D01*
G01*
X13702134Y-10683012D02*
G75*
G02*
X13667134Y-10683012I-17500J0D01*
G01*
X13667134Y-10683012D02*
G75*
G02*
X13702134Y-10683012I17500J0D01*
G01*
X13703153Y-10828678D02*
G75*
G02*
X13668153Y-10828678I-17500J0D01*
G01*
X13668153Y-10828678D02*
G75*
G02*
X13703153Y-10828678I17500J0D01*
G01*
X13708500Y-10353000D02*
G75*
G02*
X13673500Y-10353000I-17500J0D01*
G01*
X13673500Y-10353000D02*
G75*
G02*
X13708500Y-10353000I17500J0D01*
G01*
X12461340Y-7759123D02*
X12461340Y-7839123D01*
X12421340Y-7799123D02*
X12501340Y-7799123D01*
X12715340Y-7759123D02*
X12715340Y-7839123D01*
X12675340Y-7799123D02*
X12755340Y-7799123D01*
X12969340Y-7759123D02*
X12969340Y-7839123D01*
X12929340Y-7799123D02*
X13009340Y-7799123D01*
X12367356Y-8683856D02*
X12367356Y-8613144D01*
X12296644Y-8613144D01*
X12296644Y-8683856D01*
X12367356Y-8683856D01*
X12367356Y-8937856D02*
X12367356Y-8867144D01*
X12296644Y-8867144D01*
X12296644Y-8937856D01*
X12367356Y-8937856D01*
X12367356Y-9191856D02*
X12367356Y-9121144D01*
X12296644Y-9121144D01*
X12296644Y-9191856D01*
X12367356Y-9191856D01*
X12367356Y-9445856D02*
X12367356Y-9375144D01*
X12296644Y-9375144D01*
X12296644Y-9445856D01*
X12367356Y-9445856D01*
X12367356Y-9699856D02*
X12367356Y-9629144D01*
X12296644Y-9629144D01*
X12296644Y-9699856D01*
X12367356Y-9699856D01*
X12367356Y-11160356D02*
X12367356Y-11089644D01*
X12296644Y-11089644D01*
X12296644Y-11160356D01*
X12367356Y-11160356D01*
X12423515Y-6847221D02*
X12423515Y-6776510D01*
X12352804Y-6776510D01*
X12352804Y-6847221D01*
X12423515Y-6847221D01*
X12425044Y-7066474D02*
X12425044Y-6995763D01*
X12354332Y-6995763D01*
X12354332Y-7066474D01*
X12425044Y-7066474D01*
X12431356Y-10875356D02*
X12431356Y-10804644D01*
X12360644Y-10804644D01*
X12360644Y-10875356D01*
X12431356Y-10875356D01*
X12560356Y-8332856D02*
X12560356Y-8262144D01*
X12489644Y-8262144D01*
X12489644Y-8332856D01*
X12560356Y-8332856D01*
X12621356Y-11160356D02*
X12621356Y-11089644D01*
X12550644Y-11089644D01*
X12550644Y-11160356D01*
X12621356Y-11160356D01*
X12685356Y-10875356D02*
X12685356Y-10804644D01*
X12614644Y-10804644D01*
X12614644Y-10875356D01*
X12685356Y-10875356D01*
X12814356Y-8332856D02*
X12814356Y-8262144D01*
X12743644Y-8262144D01*
X12743644Y-8332856D01*
X12814356Y-8332856D01*
X12875356Y-11160356D02*
X12875356Y-11089644D01*
X12804644Y-11089644D01*
X12804644Y-11160356D01*
X12875356Y-11160356D01*
X12939356Y-10875356D02*
X12939356Y-10804644D01*
X12868644Y-10804644D01*
X12868644Y-10875356D01*
X12939356Y-10875356D01*
X13129356Y-11160356D02*
X13129356Y-11089644D01*
X13058644Y-11089644D01*
X13058644Y-11160356D01*
X13129356Y-11160356D01*
X13311356Y-10875356D02*
X13311356Y-10804644D01*
X13240644Y-10804644D01*
X13240644Y-10875356D01*
X13311356Y-10875356D01*
X13383356Y-11160356D02*
X13383356Y-11089644D01*
X13312644Y-11089644D01*
X13312644Y-11160356D01*
X13383356Y-11160356D01*
X13565356Y-10875356D02*
X13565356Y-10804644D01*
X13494644Y-10804644D01*
X13494644Y-10875356D01*
X13565356Y-10875356D01*
X13637356Y-8683856D02*
X13637356Y-8613144D01*
X13566644Y-8613144D01*
X13566644Y-8683856D01*
X13637356Y-8683856D01*
X13637356Y-8937856D02*
X13637356Y-8867144D01*
X13566644Y-8867144D01*
X13566644Y-8937856D01*
X13637356Y-8937856D01*
X13637356Y-9191856D02*
X13637356Y-9121144D01*
X13566644Y-9121144D01*
X13566644Y-9191856D01*
X13637356Y-9191856D01*
X13637356Y-9445856D02*
X13637356Y-9375144D01*
X13566644Y-9375144D01*
X13566644Y-9445856D01*
X13637356Y-9445856D01*
X13637356Y-9699856D02*
X13637356Y-9629144D01*
X13566644Y-9629144D01*
X13566644Y-9699856D01*
X13637356Y-9699856D01*
X13637356Y-11160356D02*
X13637356Y-11089644D01*
X13566644Y-11089644D01*
X13566644Y-11160356D01*
X13637356Y-11160356D01*
D11*
X12460777Y-11568484D02*
X12460777Y-11368484D01*
X12460777Y-11368484D02*
X12508396Y-11368484D01*
X12508396Y-11368484D02*
X12536967Y-11378008D01*
X12536967Y-11378008D02*
X12556015Y-11397055D01*
X12556015Y-11397055D02*
X12565539Y-11416103D01*
X12565539Y-11416103D02*
X12575062Y-11454198D01*
X12575062Y-11454198D02*
X12575062Y-11482769D01*
X12575062Y-11482769D02*
X12565539Y-11520865D01*
X12565539Y-11520865D02*
X12556015Y-11539912D01*
X12556015Y-11539912D02*
X12536967Y-11558960D01*
X12536967Y-11558960D02*
X12508396Y-11568484D01*
X12508396Y-11568484D02*
X12460777Y-11568484D01*
X12660777Y-11568484D02*
X12660777Y-11435150D01*
X12660777Y-11473246D02*
X12670301Y-11454198D01*
X12670301Y-11454198D02*
X12679824Y-11444674D01*
X12679824Y-11444674D02*
X12698872Y-11435150D01*
X12698872Y-11435150D02*
X12717920Y-11435150D01*
X12784586Y-11568484D02*
X12784586Y-11435150D01*
X12784586Y-11368484D02*
X12775062Y-11378008D01*
X12775062Y-11378008D02*
X12784586Y-11387531D01*
X12784586Y-11387531D02*
X12794110Y-11378008D01*
X12794110Y-11378008D02*
X12784586Y-11368484D01*
X12784586Y-11368484D02*
X12784586Y-11387531D01*
X12908396Y-11568484D02*
X12889348Y-11558960D01*
X12889348Y-11558960D02*
X12879824Y-11539912D01*
X12879824Y-11539912D02*
X12879824Y-11368484D01*
X13013158Y-11568484D02*
X12994110Y-11558960D01*
X12994110Y-11558960D02*
X12984586Y-11539912D01*
X12984586Y-11539912D02*
X12984586Y-11368484D01*
X13241729Y-11568484D02*
X13241729Y-11368484D01*
X13241729Y-11368484D02*
X13308396Y-11511341D01*
X13308396Y-11511341D02*
X13375062Y-11368484D01*
X13375062Y-11368484D02*
X13375062Y-11568484D01*
X13556015Y-11568484D02*
X13556015Y-11463722D01*
X13556015Y-11463722D02*
X13546491Y-11444674D01*
X13546491Y-11444674D02*
X13527443Y-11435150D01*
X13527443Y-11435150D02*
X13489348Y-11435150D01*
X13489348Y-11435150D02*
X13470301Y-11444674D01*
X13556015Y-11558960D02*
X13536967Y-11568484D01*
X13536967Y-11568484D02*
X13489348Y-11568484D01*
X13489348Y-11568484D02*
X13470301Y-11558960D01*
X13470301Y-11558960D02*
X13460777Y-11539912D01*
X13460777Y-11539912D02*
X13460777Y-11520865D01*
X13460777Y-11520865D02*
X13470301Y-11501817D01*
X13470301Y-11501817D02*
X13489348Y-11492293D01*
X13489348Y-11492293D02*
X13536967Y-11492293D01*
X13536967Y-11492293D02*
X13556015Y-11482769D01*
X13651253Y-11435150D02*
X13651253Y-11635150D01*
X13651253Y-11444674D02*
X13670301Y-11435150D01*
X13670301Y-11435150D02*
X13708396Y-11435150D01*
X13708396Y-11435150D02*
X13727443Y-11444674D01*
X13727443Y-11444674D02*
X13736967Y-11454198D01*
X13736967Y-11454198D02*
X13746491Y-11473246D01*
X13746491Y-11473246D02*
X13746491Y-11530388D01*
X13746491Y-11530388D02*
X13736967Y-11549436D01*
X13736967Y-11549436D02*
X13727443Y-11558960D01*
X13727443Y-11558960D02*
X13708396Y-11568484D01*
X13708396Y-11568484D02*
X13670301Y-11568484D01*
X13670301Y-11568484D02*
X13651253Y-11558960D01*
X13832205Y-11549436D02*
X13841729Y-11558960D01*
X13841729Y-11558960D02*
X13832205Y-11568484D01*
X13832205Y-11568484D02*
X13822682Y-11558960D01*
X13822682Y-11558960D02*
X13832205Y-11549436D01*
X13832205Y-11549436D02*
X13832205Y-11568484D01*
X13832205Y-11444674D02*
X13841729Y-11454198D01*
X13841729Y-11454198D02*
X13832205Y-11463722D01*
X13832205Y-11463722D02*
X13822682Y-11454198D01*
X13822682Y-11454198D02*
X13832205Y-11444674D01*
X13832205Y-11444674D02*
X13832205Y-11463722D01*
D10*
X12180000Y-11887000D02*
X12200000Y-11907000D01*
X12200000Y-11887000D02*
X12180000Y-11907000D01*
D11*
X12498872Y-11788484D02*
X12517920Y-11788484D01*
X12517920Y-11788484D02*
X12536967Y-11798008D01*
X12536967Y-11798008D02*
X12546491Y-11807531D01*
X12546491Y-11807531D02*
X12556015Y-11826579D01*
X12556015Y-11826579D02*
X12565539Y-11864674D01*
X12565539Y-11864674D02*
X12565539Y-11912293D01*
X12565539Y-11912293D02*
X12556015Y-11950388D01*
X12556015Y-11950388D02*
X12546491Y-11969436D01*
X12546491Y-11969436D02*
X12536967Y-11978960D01*
X12536967Y-11978960D02*
X12517920Y-11988484D01*
X12517920Y-11988484D02*
X12498872Y-11988484D01*
X12498872Y-11988484D02*
X12479824Y-11978960D01*
X12479824Y-11978960D02*
X12470301Y-11969436D01*
X12470301Y-11969436D02*
X12460777Y-11950388D01*
X12460777Y-11950388D02*
X12451253Y-11912293D01*
X12451253Y-11912293D02*
X12451253Y-11864674D01*
X12451253Y-11864674D02*
X12460777Y-11826579D01*
X12460777Y-11826579D02*
X12470301Y-11807531D01*
X12470301Y-11807531D02*
X12479824Y-11798008D01*
X12479824Y-11798008D02*
X12498872Y-11788484D01*
X12651253Y-11969436D02*
X12660777Y-11978960D01*
X12660777Y-11978960D02*
X12651253Y-11988484D01*
X12651253Y-11988484D02*
X12641729Y-11978960D01*
X12641729Y-11978960D02*
X12651253Y-11969436D01*
X12651253Y-11969436D02*
X12651253Y-11988484D01*
X12736967Y-11807531D02*
X12746491Y-11798008D01*
X12746491Y-11798008D02*
X12765539Y-11788484D01*
X12765539Y-11788484D02*
X12813158Y-11788484D01*
X12813158Y-11788484D02*
X12832205Y-11798008D01*
X12832205Y-11798008D02*
X12841729Y-11807531D01*
X12841729Y-11807531D02*
X12851253Y-11826579D01*
X12851253Y-11826579D02*
X12851253Y-11845627D01*
X12851253Y-11845627D02*
X12841729Y-11874198D01*
X12841729Y-11874198D02*
X12727443Y-11988484D01*
X12727443Y-11988484D02*
X12851253Y-11988484D01*
X12975062Y-11788484D02*
X12994110Y-11788484D01*
X12994110Y-11788484D02*
X13013158Y-11798008D01*
X13013158Y-11798008D02*
X13022682Y-11807531D01*
X13022682Y-11807531D02*
X13032205Y-11826579D01*
X13032205Y-11826579D02*
X13041729Y-11864674D01*
X13041729Y-11864674D02*
X13041729Y-11912293D01*
X13041729Y-11912293D02*
X13032205Y-11950388D01*
X13032205Y-11950388D02*
X13022682Y-11969436D01*
X13022682Y-11969436D02*
X13013158Y-11978960D01*
X13013158Y-11978960D02*
X12994110Y-11988484D01*
X12994110Y-11988484D02*
X12975062Y-11988484D01*
X12975062Y-11988484D02*
X12956015Y-11978960D01*
X12956015Y-11978960D02*
X12946491Y-11969436D01*
X12946491Y-11969436D02*
X12936967Y-11950388D01*
X12936967Y-11950388D02*
X12927443Y-11912293D01*
X12927443Y-11912293D02*
X12927443Y-11864674D01*
X12927443Y-11864674D02*
X12936967Y-11826579D01*
X12936967Y-11826579D02*
X12946491Y-11807531D01*
X12946491Y-11807531D02*
X12956015Y-11798008D01*
X12956015Y-11798008D02*
X12975062Y-11788484D01*
X13165539Y-11788484D02*
X13184586Y-11788484D01*
X13184586Y-11788484D02*
X13203634Y-11798008D01*
X13203634Y-11798008D02*
X13213158Y-11807531D01*
X13213158Y-11807531D02*
X13222682Y-11826579D01*
X13222682Y-11826579D02*
X13232205Y-11864674D01*
X13232205Y-11864674D02*
X13232205Y-11912293D01*
X13232205Y-11912293D02*
X13222682Y-11950388D01*
X13222682Y-11950388D02*
X13213158Y-11969436D01*
X13213158Y-11969436D02*
X13203634Y-11978960D01*
X13203634Y-11978960D02*
X13184586Y-11988484D01*
X13184586Y-11988484D02*
X13165539Y-11988484D01*
X13165539Y-11988484D02*
X13146491Y-11978960D01*
X13146491Y-11978960D02*
X13136967Y-11969436D01*
X13136967Y-11969436D02*
X13127443Y-11950388D01*
X13127443Y-11950388D02*
X13117920Y-11912293D01*
X13117920Y-11912293D02*
X13117920Y-11864674D01*
X13117920Y-11864674D02*
X13127443Y-11826579D01*
X13127443Y-11826579D02*
X13136967Y-11807531D01*
X13136967Y-11807531D02*
X13146491Y-11798008D01*
X13146491Y-11798008D02*
X13165539Y-11788484D01*
X13317920Y-11988484D02*
X13317920Y-11855150D01*
X13317920Y-11874198D02*
X13327443Y-11864674D01*
X13327443Y-11864674D02*
X13346491Y-11855150D01*
X13346491Y-11855150D02*
X13375063Y-11855150D01*
X13375063Y-11855150D02*
X13394110Y-11864674D01*
X13394110Y-11864674D02*
X13403634Y-11883722D01*
X13403634Y-11883722D02*
X13403634Y-11988484D01*
X13403634Y-11883722D02*
X13413158Y-11864674D01*
X13413158Y-11864674D02*
X13432205Y-11855150D01*
X13432205Y-11855150D02*
X13460777Y-11855150D01*
X13460777Y-11855150D02*
X13479824Y-11864674D01*
X13479824Y-11864674D02*
X13489348Y-11883722D01*
X13489348Y-11883722D02*
X13489348Y-11988484D01*
X13584586Y-11988484D02*
X13584586Y-11855150D01*
X13584586Y-11874198D02*
X13594110Y-11864674D01*
X13594110Y-11864674D02*
X13613158Y-11855150D01*
X13613158Y-11855150D02*
X13641729Y-11855150D01*
X13641729Y-11855150D02*
X13660777Y-11864674D01*
X13660777Y-11864674D02*
X13670301Y-11883722D01*
X13670301Y-11883722D02*
X13670301Y-11988484D01*
X13670301Y-11883722D02*
X13679824Y-11864674D01*
X13679824Y-11864674D02*
X13698872Y-11855150D01*
X13698872Y-11855150D02*
X13727443Y-11855150D01*
X13727443Y-11855150D02*
X13746491Y-11864674D01*
X13746491Y-11864674D02*
X13756015Y-11883722D01*
X13756015Y-11883722D02*
X13756015Y-11988484D01*
X14146491Y-11778960D02*
X13975063Y-12036103D01*
X14403634Y-11788484D02*
X14422682Y-11788484D01*
X14422682Y-11788484D02*
X14441729Y-11798008D01*
X14441729Y-11798008D02*
X14451253Y-11807531D01*
X14451253Y-11807531D02*
X14460777Y-11826579D01*
X14460777Y-11826579D02*
X14470301Y-11864674D01*
X14470301Y-11864674D02*
X14470301Y-11912293D01*
X14470301Y-11912293D02*
X14460777Y-11950388D01*
X14460777Y-11950388D02*
X14451253Y-11969436D01*
X14451253Y-11969436D02*
X14441729Y-11978960D01*
X14441729Y-11978960D02*
X14422682Y-11988484D01*
X14422682Y-11988484D02*
X14403634Y-11988484D01*
X14403634Y-11988484D02*
X14384586Y-11978960D01*
X14384586Y-11978960D02*
X14375063Y-11969436D01*
X14375063Y-11969436D02*
X14365539Y-11950388D01*
X14365539Y-11950388D02*
X14356015Y-11912293D01*
X14356015Y-11912293D02*
X14356015Y-11864674D01*
X14356015Y-11864674D02*
X14365539Y-11826579D01*
X14365539Y-11826579D02*
X14375063Y-11807531D01*
X14375063Y-11807531D02*
X14384586Y-11798008D01*
X14384586Y-11798008D02*
X14403634Y-11788484D01*
X14556015Y-11969436D02*
X14565539Y-11978960D01*
X14565539Y-11978960D02*
X14556015Y-11988484D01*
X14556015Y-11988484D02*
X14546491Y-11978960D01*
X14546491Y-11978960D02*
X14556015Y-11969436D01*
X14556015Y-11969436D02*
X14556015Y-11988484D01*
X14689348Y-11788484D02*
X14708396Y-11788484D01*
X14708396Y-11788484D02*
X14727444Y-11798008D01*
X14727444Y-11798008D02*
X14736967Y-11807531D01*
X14736967Y-11807531D02*
X14746491Y-11826579D01*
X14746491Y-11826579D02*
X14756015Y-11864674D01*
X14756015Y-11864674D02*
X14756015Y-11912293D01*
X14756015Y-11912293D02*
X14746491Y-11950388D01*
X14746491Y-11950388D02*
X14736967Y-11969436D01*
X14736967Y-11969436D02*
X14727444Y-11978960D01*
X14727444Y-11978960D02*
X14708396Y-11988484D01*
X14708396Y-11988484D02*
X14689348Y-11988484D01*
X14689348Y-11988484D02*
X14670301Y-11978960D01*
X14670301Y-11978960D02*
X14660777Y-11969436D01*
X14660777Y-11969436D02*
X14651253Y-11950388D01*
X14651253Y-11950388D02*
X14641729Y-11912293D01*
X14641729Y-11912293D02*
X14641729Y-11864674D01*
X14641729Y-11864674D02*
X14651253Y-11826579D01*
X14651253Y-11826579D02*
X14660777Y-11807531D01*
X14660777Y-11807531D02*
X14670301Y-11798008D01*
X14670301Y-11798008D02*
X14689348Y-11788484D01*
X14879825Y-11788484D02*
X14898872Y-11788484D01*
X14898872Y-11788484D02*
X14917920Y-11798008D01*
X14917920Y-11798008D02*
X14927444Y-11807531D01*
X14927444Y-11807531D02*
X14936967Y-11826579D01*
X14936967Y-11826579D02*
X14946491Y-11864674D01*
X14946491Y-11864674D02*
X14946491Y-11912293D01*
X14946491Y-11912293D02*
X14936967Y-11950388D01*
X14936967Y-11950388D02*
X14927444Y-11969436D01*
X14927444Y-11969436D02*
X14917920Y-11978960D01*
X14917920Y-11978960D02*
X14898872Y-11988484D01*
X14898872Y-11988484D02*
X14879825Y-11988484D01*
X14879825Y-11988484D02*
X14860777Y-11978960D01*
X14860777Y-11978960D02*
X14851253Y-11969436D01*
X14851253Y-11969436D02*
X14841729Y-11950388D01*
X14841729Y-11950388D02*
X14832206Y-11912293D01*
X14832206Y-11912293D02*
X14832206Y-11864674D01*
X14832206Y-11864674D02*
X14841729Y-11826579D01*
X14841729Y-11826579D02*
X14851253Y-11807531D01*
X14851253Y-11807531D02*
X14860777Y-11798008D01*
X14860777Y-11798008D02*
X14879825Y-11788484D01*
X15013158Y-11788484D02*
X15146491Y-11788484D01*
X15146491Y-11788484D02*
X15060777Y-11988484D01*
X15232206Y-11988484D02*
X15270301Y-11988484D01*
X15270301Y-11988484D02*
X15289348Y-11978960D01*
X15289348Y-11978960D02*
X15298872Y-11969436D01*
X15298872Y-11969436D02*
X15317920Y-11940865D01*
X15317920Y-11940865D02*
X15327444Y-11902769D01*
X15327444Y-11902769D02*
X15327444Y-11826579D01*
X15327444Y-11826579D02*
X15317920Y-11807531D01*
X15317920Y-11807531D02*
X15308396Y-11798008D01*
X15308396Y-11798008D02*
X15289348Y-11788484D01*
X15289348Y-11788484D02*
X15251253Y-11788484D01*
X15251253Y-11788484D02*
X15232206Y-11798008D01*
X15232206Y-11798008D02*
X15222682Y-11807531D01*
X15222682Y-11807531D02*
X15213158Y-11826579D01*
X15213158Y-11826579D02*
X15213158Y-11874198D01*
X15213158Y-11874198D02*
X15222682Y-11893246D01*
X15222682Y-11893246D02*
X15232206Y-11902769D01*
X15232206Y-11902769D02*
X15251253Y-11912293D01*
X15251253Y-11912293D02*
X15289348Y-11912293D01*
X15289348Y-11912293D02*
X15308396Y-11902769D01*
X15308396Y-11902769D02*
X15317920Y-11893246D01*
X15317920Y-11893246D02*
X15327444Y-11874198D01*
X15403634Y-11788484D02*
X15403634Y-11826579D01*
X15479825Y-11788484D02*
X15479825Y-11826579D01*
X15775063Y-12064674D02*
X15765539Y-12055150D01*
X15765539Y-12055150D02*
X15746491Y-12026579D01*
X15746491Y-12026579D02*
X15736968Y-12007531D01*
X15736968Y-12007531D02*
X15727444Y-11978960D01*
X15727444Y-11978960D02*
X15717920Y-11931341D01*
X15717920Y-11931341D02*
X15717920Y-11893246D01*
X15717920Y-11893246D02*
X15727444Y-11845627D01*
X15727444Y-11845627D02*
X15736968Y-11817055D01*
X15736968Y-11817055D02*
X15746491Y-11798008D01*
X15746491Y-11798008D02*
X15765539Y-11769436D01*
X15765539Y-11769436D02*
X15775063Y-11759912D01*
X15956015Y-11988484D02*
X15841729Y-11988484D01*
X15898872Y-11988484D02*
X15898872Y-11788484D01*
X15898872Y-11788484D02*
X15879825Y-11817055D01*
X15879825Y-11817055D02*
X15860777Y-11836103D01*
X15860777Y-11836103D02*
X15841729Y-11845627D01*
X16194110Y-11988484D02*
X16194110Y-11788484D01*
X16279825Y-11988484D02*
X16279825Y-11883722D01*
X16279825Y-11883722D02*
X16270301Y-11864674D01*
X16270301Y-11864674D02*
X16251253Y-11855150D01*
X16251253Y-11855150D02*
X16222682Y-11855150D01*
X16222682Y-11855150D02*
X16203634Y-11864674D01*
X16203634Y-11864674D02*
X16194110Y-11874198D01*
X16403634Y-11988484D02*
X16384587Y-11978960D01*
X16384587Y-11978960D02*
X16375063Y-11969436D01*
X16375063Y-11969436D02*
X16365539Y-11950388D01*
X16365539Y-11950388D02*
X16365539Y-11893246D01*
X16365539Y-11893246D02*
X16375063Y-11874198D01*
X16375063Y-11874198D02*
X16384587Y-11864674D01*
X16384587Y-11864674D02*
X16403634Y-11855150D01*
X16403634Y-11855150D02*
X16432206Y-11855150D01*
X16432206Y-11855150D02*
X16451253Y-11864674D01*
X16451253Y-11864674D02*
X16460777Y-11874198D01*
X16460777Y-11874198D02*
X16470301Y-11893246D01*
X16470301Y-11893246D02*
X16470301Y-11950388D01*
X16470301Y-11950388D02*
X16460777Y-11969436D01*
X16460777Y-11969436D02*
X16451253Y-11978960D01*
X16451253Y-11978960D02*
X16432206Y-11988484D01*
X16432206Y-11988484D02*
X16403634Y-11988484D01*
X16584587Y-11988484D02*
X16565539Y-11978960D01*
X16565539Y-11978960D02*
X16556015Y-11959912D01*
X16556015Y-11959912D02*
X16556015Y-11788484D01*
X16736968Y-11978960D02*
X16717920Y-11988484D01*
X16717920Y-11988484D02*
X16679825Y-11988484D01*
X16679825Y-11988484D02*
X16660777Y-11978960D01*
X16660777Y-11978960D02*
X16651253Y-11959912D01*
X16651253Y-11959912D02*
X16651253Y-11883722D01*
X16651253Y-11883722D02*
X16660777Y-11864674D01*
X16660777Y-11864674D02*
X16679825Y-11855150D01*
X16679825Y-11855150D02*
X16717920Y-11855150D01*
X16717920Y-11855150D02*
X16736968Y-11864674D01*
X16736968Y-11864674D02*
X16746491Y-11883722D01*
X16746491Y-11883722D02*
X16746491Y-11902769D01*
X16746491Y-11902769D02*
X16651253Y-11921817D01*
X16813158Y-12064674D02*
X16822682Y-12055150D01*
X16822682Y-12055150D02*
X16841730Y-12026579D01*
X16841730Y-12026579D02*
X16851253Y-12007531D01*
X16851253Y-12007531D02*
X16860777Y-11978960D01*
X16860777Y-11978960D02*
X16870301Y-11931341D01*
X16870301Y-11931341D02*
X16870301Y-11893246D01*
X16870301Y-11893246D02*
X16860777Y-11845627D01*
X16860777Y-11845627D02*
X16851253Y-11817055D01*
X16851253Y-11817055D02*
X16841730Y-11798008D01*
X16841730Y-11798008D02*
X16822682Y-11769436D01*
X16822682Y-11769436D02*
X16813158Y-11759912D01*
D10*
X12200000Y-12161000D02*
G75*
G02*
X12165000Y-12161000I-17500J0D01*
G01*
X12165000Y-12161000D02*
G75*
G02*
X12200000Y-12161000I17500J0D01*
G01*
D11*
X12498872Y-12052484D02*
X12517920Y-12052484D01*
X12517920Y-12052484D02*
X12536967Y-12062008D01*
X12536967Y-12062008D02*
X12546491Y-12071531D01*
X12546491Y-12071531D02*
X12556015Y-12090579D01*
X12556015Y-12090579D02*
X12565539Y-12128674D01*
X12565539Y-12128674D02*
X12565539Y-12176293D01*
X12565539Y-12176293D02*
X12556015Y-12214388D01*
X12556015Y-12214388D02*
X12546491Y-12233436D01*
X12546491Y-12233436D02*
X12536967Y-12242960D01*
X12536967Y-12242960D02*
X12517920Y-12252484D01*
X12517920Y-12252484D02*
X12498872Y-12252484D01*
X12498872Y-12252484D02*
X12479824Y-12242960D01*
X12479824Y-12242960D02*
X12470301Y-12233436D01*
X12470301Y-12233436D02*
X12460777Y-12214388D01*
X12460777Y-12214388D02*
X12451253Y-12176293D01*
X12451253Y-12176293D02*
X12451253Y-12128674D01*
X12451253Y-12128674D02*
X12460777Y-12090579D01*
X12460777Y-12090579D02*
X12470301Y-12071531D01*
X12470301Y-12071531D02*
X12479824Y-12062008D01*
X12479824Y-12062008D02*
X12498872Y-12052484D01*
X12651253Y-12233436D02*
X12660777Y-12242960D01*
X12660777Y-12242960D02*
X12651253Y-12252484D01*
X12651253Y-12252484D02*
X12641729Y-12242960D01*
X12641729Y-12242960D02*
X12651253Y-12233436D01*
X12651253Y-12233436D02*
X12651253Y-12252484D01*
X12727443Y-12052484D02*
X12851253Y-12052484D01*
X12851253Y-12052484D02*
X12784586Y-12128674D01*
X12784586Y-12128674D02*
X12813158Y-12128674D01*
X12813158Y-12128674D02*
X12832205Y-12138198D01*
X12832205Y-12138198D02*
X12841729Y-12147722D01*
X12841729Y-12147722D02*
X12851253Y-12166769D01*
X12851253Y-12166769D02*
X12851253Y-12214388D01*
X12851253Y-12214388D02*
X12841729Y-12233436D01*
X12841729Y-12233436D02*
X12832205Y-12242960D01*
X12832205Y-12242960D02*
X12813158Y-12252484D01*
X12813158Y-12252484D02*
X12756015Y-12252484D01*
X12756015Y-12252484D02*
X12736967Y-12242960D01*
X12736967Y-12242960D02*
X12727443Y-12233436D01*
X13032205Y-12052484D02*
X12936967Y-12052484D01*
X12936967Y-12052484D02*
X12927443Y-12147722D01*
X12927443Y-12147722D02*
X12936967Y-12138198D01*
X12936967Y-12138198D02*
X12956015Y-12128674D01*
X12956015Y-12128674D02*
X13003634Y-12128674D01*
X13003634Y-12128674D02*
X13022682Y-12138198D01*
X13022682Y-12138198D02*
X13032205Y-12147722D01*
X13032205Y-12147722D02*
X13041729Y-12166769D01*
X13041729Y-12166769D02*
X13041729Y-12214388D01*
X13041729Y-12214388D02*
X13032205Y-12233436D01*
X13032205Y-12233436D02*
X13022682Y-12242960D01*
X13022682Y-12242960D02*
X13003634Y-12252484D01*
X13003634Y-12252484D02*
X12956015Y-12252484D01*
X12956015Y-12252484D02*
X12936967Y-12242960D01*
X12936967Y-12242960D02*
X12927443Y-12233436D01*
X13165539Y-12052484D02*
X13184586Y-12052484D01*
X13184586Y-12052484D02*
X13203634Y-12062008D01*
X13203634Y-12062008D02*
X13213158Y-12071531D01*
X13213158Y-12071531D02*
X13222682Y-12090579D01*
X13222682Y-12090579D02*
X13232205Y-12128674D01*
X13232205Y-12128674D02*
X13232205Y-12176293D01*
X13232205Y-12176293D02*
X13222682Y-12214388D01*
X13222682Y-12214388D02*
X13213158Y-12233436D01*
X13213158Y-12233436D02*
X13203634Y-12242960D01*
X13203634Y-12242960D02*
X13184586Y-12252484D01*
X13184586Y-12252484D02*
X13165539Y-12252484D01*
X13165539Y-12252484D02*
X13146491Y-12242960D01*
X13146491Y-12242960D02*
X13136967Y-12233436D01*
X13136967Y-12233436D02*
X13127443Y-12214388D01*
X13127443Y-12214388D02*
X13117920Y-12176293D01*
X13117920Y-12176293D02*
X13117920Y-12128674D01*
X13117920Y-12128674D02*
X13127443Y-12090579D01*
X13127443Y-12090579D02*
X13136967Y-12071531D01*
X13136967Y-12071531D02*
X13146491Y-12062008D01*
X13146491Y-12062008D02*
X13165539Y-12052484D01*
X13317920Y-12252484D02*
X13317920Y-12119150D01*
X13317920Y-12138198D02*
X13327443Y-12128674D01*
X13327443Y-12128674D02*
X13346491Y-12119150D01*
X13346491Y-12119150D02*
X13375063Y-12119150D01*
X13375063Y-12119150D02*
X13394110Y-12128674D01*
X13394110Y-12128674D02*
X13403634Y-12147722D01*
X13403634Y-12147722D02*
X13403634Y-12252484D01*
X13403634Y-12147722D02*
X13413158Y-12128674D01*
X13413158Y-12128674D02*
X13432205Y-12119150D01*
X13432205Y-12119150D02*
X13460777Y-12119150D01*
X13460777Y-12119150D02*
X13479824Y-12128674D01*
X13479824Y-12128674D02*
X13489348Y-12147722D01*
X13489348Y-12147722D02*
X13489348Y-12252484D01*
X13584586Y-12252484D02*
X13584586Y-12119150D01*
X13584586Y-12138198D02*
X13594110Y-12128674D01*
X13594110Y-12128674D02*
X13613158Y-12119150D01*
X13613158Y-12119150D02*
X13641729Y-12119150D01*
X13641729Y-12119150D02*
X13660777Y-12128674D01*
X13660777Y-12128674D02*
X13670301Y-12147722D01*
X13670301Y-12147722D02*
X13670301Y-12252484D01*
X13670301Y-12147722D02*
X13679824Y-12128674D01*
X13679824Y-12128674D02*
X13698872Y-12119150D01*
X13698872Y-12119150D02*
X13727443Y-12119150D01*
X13727443Y-12119150D02*
X13746491Y-12128674D01*
X13746491Y-12128674D02*
X13756015Y-12147722D01*
X13756015Y-12147722D02*
X13756015Y-12252484D01*
X14146491Y-12042960D02*
X13975063Y-12300103D01*
X14403634Y-12052484D02*
X14422682Y-12052484D01*
X14422682Y-12052484D02*
X14441729Y-12062008D01*
X14441729Y-12062008D02*
X14451253Y-12071531D01*
X14451253Y-12071531D02*
X14460777Y-12090579D01*
X14460777Y-12090579D02*
X14470301Y-12128674D01*
X14470301Y-12128674D02*
X14470301Y-12176293D01*
X14470301Y-12176293D02*
X14460777Y-12214388D01*
X14460777Y-12214388D02*
X14451253Y-12233436D01*
X14451253Y-12233436D02*
X14441729Y-12242960D01*
X14441729Y-12242960D02*
X14422682Y-12252484D01*
X14422682Y-12252484D02*
X14403634Y-12252484D01*
X14403634Y-12252484D02*
X14384586Y-12242960D01*
X14384586Y-12242960D02*
X14375063Y-12233436D01*
X14375063Y-12233436D02*
X14365539Y-12214388D01*
X14365539Y-12214388D02*
X14356015Y-12176293D01*
X14356015Y-12176293D02*
X14356015Y-12128674D01*
X14356015Y-12128674D02*
X14365539Y-12090579D01*
X14365539Y-12090579D02*
X14375063Y-12071531D01*
X14375063Y-12071531D02*
X14384586Y-12062008D01*
X14384586Y-12062008D02*
X14403634Y-12052484D01*
X14556015Y-12233436D02*
X14565539Y-12242960D01*
X14565539Y-12242960D02*
X14556015Y-12252484D01*
X14556015Y-12252484D02*
X14546491Y-12242960D01*
X14546491Y-12242960D02*
X14556015Y-12233436D01*
X14556015Y-12233436D02*
X14556015Y-12252484D01*
X14689348Y-12052484D02*
X14708396Y-12052484D01*
X14708396Y-12052484D02*
X14727444Y-12062008D01*
X14727444Y-12062008D02*
X14736967Y-12071531D01*
X14736967Y-12071531D02*
X14746491Y-12090579D01*
X14746491Y-12090579D02*
X14756015Y-12128674D01*
X14756015Y-12128674D02*
X14756015Y-12176293D01*
X14756015Y-12176293D02*
X14746491Y-12214388D01*
X14746491Y-12214388D02*
X14736967Y-12233436D01*
X14736967Y-12233436D02*
X14727444Y-12242960D01*
X14727444Y-12242960D02*
X14708396Y-12252484D01*
X14708396Y-12252484D02*
X14689348Y-12252484D01*
X14689348Y-12252484D02*
X14670301Y-12242960D01*
X14670301Y-12242960D02*
X14660777Y-12233436D01*
X14660777Y-12233436D02*
X14651253Y-12214388D01*
X14651253Y-12214388D02*
X14641729Y-12176293D01*
X14641729Y-12176293D02*
X14641729Y-12128674D01*
X14641729Y-12128674D02*
X14651253Y-12090579D01*
X14651253Y-12090579D02*
X14660777Y-12071531D01*
X14660777Y-12071531D02*
X14670301Y-12062008D01*
X14670301Y-12062008D02*
X14689348Y-12052484D01*
X14946491Y-12252484D02*
X14832206Y-12252484D01*
X14889348Y-12252484D02*
X14889348Y-12052484D01*
X14889348Y-12052484D02*
X14870301Y-12081055D01*
X14870301Y-12081055D02*
X14851253Y-12100103D01*
X14851253Y-12100103D02*
X14832206Y-12109627D01*
X15013158Y-12052484D02*
X15136967Y-12052484D01*
X15136967Y-12052484D02*
X15070301Y-12128674D01*
X15070301Y-12128674D02*
X15098872Y-12128674D01*
X15098872Y-12128674D02*
X15117920Y-12138198D01*
X15117920Y-12138198D02*
X15127444Y-12147722D01*
X15127444Y-12147722D02*
X15136967Y-12166769D01*
X15136967Y-12166769D02*
X15136967Y-12214388D01*
X15136967Y-12214388D02*
X15127444Y-12233436D01*
X15127444Y-12233436D02*
X15117920Y-12242960D01*
X15117920Y-12242960D02*
X15098872Y-12252484D01*
X15098872Y-12252484D02*
X15041729Y-12252484D01*
X15041729Y-12252484D02*
X15022682Y-12242960D01*
X15022682Y-12242960D02*
X15013158Y-12233436D01*
X15251253Y-12138198D02*
X15232206Y-12128674D01*
X15232206Y-12128674D02*
X15222682Y-12119150D01*
X15222682Y-12119150D02*
X15213158Y-12100103D01*
X15213158Y-12100103D02*
X15213158Y-12090579D01*
X15213158Y-12090579D02*
X15222682Y-12071531D01*
X15222682Y-12071531D02*
X15232206Y-12062008D01*
X15232206Y-12062008D02*
X15251253Y-12052484D01*
X15251253Y-12052484D02*
X15289348Y-12052484D01*
X15289348Y-12052484D02*
X15308396Y-12062008D01*
X15308396Y-12062008D02*
X15317920Y-12071531D01*
X15317920Y-12071531D02*
X15327444Y-12090579D01*
X15327444Y-12090579D02*
X15327444Y-12100103D01*
X15327444Y-12100103D02*
X15317920Y-12119150D01*
X15317920Y-12119150D02*
X15308396Y-12128674D01*
X15308396Y-12128674D02*
X15289348Y-12138198D01*
X15289348Y-12138198D02*
X15251253Y-12138198D01*
X15251253Y-12138198D02*
X15232206Y-12147722D01*
X15232206Y-12147722D02*
X15222682Y-12157246D01*
X15222682Y-12157246D02*
X15213158Y-12176293D01*
X15213158Y-12176293D02*
X15213158Y-12214388D01*
X15213158Y-12214388D02*
X15222682Y-12233436D01*
X15222682Y-12233436D02*
X15232206Y-12242960D01*
X15232206Y-12242960D02*
X15251253Y-12252484D01*
X15251253Y-12252484D02*
X15289348Y-12252484D01*
X15289348Y-12252484D02*
X15308396Y-12242960D01*
X15308396Y-12242960D02*
X15317920Y-12233436D01*
X15317920Y-12233436D02*
X15327444Y-12214388D01*
X15327444Y-12214388D02*
X15327444Y-12176293D01*
X15327444Y-12176293D02*
X15317920Y-12157246D01*
X15317920Y-12157246D02*
X15308396Y-12147722D01*
X15308396Y-12147722D02*
X15289348Y-12138198D01*
X15403634Y-12052484D02*
X15403634Y-12090579D01*
X15479825Y-12052484D02*
X15479825Y-12090579D01*
X15775063Y-12328674D02*
X15765539Y-12319150D01*
X15765539Y-12319150D02*
X15746491Y-12290579D01*
X15746491Y-12290579D02*
X15736968Y-12271531D01*
X15736968Y-12271531D02*
X15727444Y-12242960D01*
X15727444Y-12242960D02*
X15717920Y-12195341D01*
X15717920Y-12195341D02*
X15717920Y-12157246D01*
X15717920Y-12157246D02*
X15727444Y-12109627D01*
X15727444Y-12109627D02*
X15736968Y-12081055D01*
X15736968Y-12081055D02*
X15746491Y-12062008D01*
X15746491Y-12062008D02*
X15765539Y-12033436D01*
X15765539Y-12033436D02*
X15775063Y-12023912D01*
X15936968Y-12119150D02*
X15936968Y-12252484D01*
X15889348Y-12042960D02*
X15841729Y-12185817D01*
X15841729Y-12185817D02*
X15965539Y-12185817D01*
X16079825Y-12052484D02*
X16098872Y-12052484D01*
X16098872Y-12052484D02*
X16117920Y-12062008D01*
X16117920Y-12062008D02*
X16127444Y-12071531D01*
X16127444Y-12071531D02*
X16136968Y-12090579D01*
X16136968Y-12090579D02*
X16146491Y-12128674D01*
X16146491Y-12128674D02*
X16146491Y-12176293D01*
X16146491Y-12176293D02*
X16136968Y-12214388D01*
X16136968Y-12214388D02*
X16127444Y-12233436D01*
X16127444Y-12233436D02*
X16117920Y-12242960D01*
X16117920Y-12242960D02*
X16098872Y-12252484D01*
X16098872Y-12252484D02*
X16079825Y-12252484D01*
X16079825Y-12252484D02*
X16060777Y-12242960D01*
X16060777Y-12242960D02*
X16051253Y-12233436D01*
X16051253Y-12233436D02*
X16041729Y-12214388D01*
X16041729Y-12214388D02*
X16032206Y-12176293D01*
X16032206Y-12176293D02*
X16032206Y-12128674D01*
X16032206Y-12128674D02*
X16041729Y-12090579D01*
X16041729Y-12090579D02*
X16051253Y-12071531D01*
X16051253Y-12071531D02*
X16060777Y-12062008D01*
X16060777Y-12062008D02*
X16079825Y-12052484D01*
X16384587Y-12252484D02*
X16384587Y-12052484D01*
X16470301Y-12252484D02*
X16470301Y-12147722D01*
X16470301Y-12147722D02*
X16460777Y-12128674D01*
X16460777Y-12128674D02*
X16441730Y-12119150D01*
X16441730Y-12119150D02*
X16413158Y-12119150D01*
X16413158Y-12119150D02*
X16394110Y-12128674D01*
X16394110Y-12128674D02*
X16384587Y-12138198D01*
X16594110Y-12252484D02*
X16575063Y-12242960D01*
X16575063Y-12242960D02*
X16565539Y-12233436D01*
X16565539Y-12233436D02*
X16556015Y-12214388D01*
X16556015Y-12214388D02*
X16556015Y-12157246D01*
X16556015Y-12157246D02*
X16565539Y-12138198D01*
X16565539Y-12138198D02*
X16575063Y-12128674D01*
X16575063Y-12128674D02*
X16594110Y-12119150D01*
X16594110Y-12119150D02*
X16622682Y-12119150D01*
X16622682Y-12119150D02*
X16641730Y-12128674D01*
X16641730Y-12128674D02*
X16651253Y-12138198D01*
X16651253Y-12138198D02*
X16660777Y-12157246D01*
X16660777Y-12157246D02*
X16660777Y-12214388D01*
X16660777Y-12214388D02*
X16651253Y-12233436D01*
X16651253Y-12233436D02*
X16641730Y-12242960D01*
X16641730Y-12242960D02*
X16622682Y-12252484D01*
X16622682Y-12252484D02*
X16594110Y-12252484D01*
X16775063Y-12252484D02*
X16756015Y-12242960D01*
X16756015Y-12242960D02*
X16746491Y-12223912D01*
X16746491Y-12223912D02*
X16746491Y-12052484D01*
X16927444Y-12242960D02*
X16908396Y-12252484D01*
X16908396Y-12252484D02*
X16870301Y-12252484D01*
X16870301Y-12252484D02*
X16851253Y-12242960D01*
X16851253Y-12242960D02*
X16841730Y-12223912D01*
X16841730Y-12223912D02*
X16841730Y-12147722D01*
X16841730Y-12147722D02*
X16851253Y-12128674D01*
X16851253Y-12128674D02*
X16870301Y-12119150D01*
X16870301Y-12119150D02*
X16908396Y-12119150D01*
X16908396Y-12119150D02*
X16927444Y-12128674D01*
X16927444Y-12128674D02*
X16936968Y-12147722D01*
X16936968Y-12147722D02*
X16936968Y-12166769D01*
X16936968Y-12166769D02*
X16841730Y-12185817D01*
X17013158Y-12242960D02*
X17032206Y-12252484D01*
X17032206Y-12252484D02*
X17070301Y-12252484D01*
X17070301Y-12252484D02*
X17089349Y-12242960D01*
X17089349Y-12242960D02*
X17098873Y-12223912D01*
X17098873Y-12223912D02*
X17098873Y-12214388D01*
X17098873Y-12214388D02*
X17089349Y-12195341D01*
X17089349Y-12195341D02*
X17070301Y-12185817D01*
X17070301Y-12185817D02*
X17041730Y-12185817D01*
X17041730Y-12185817D02*
X17022682Y-12176293D01*
X17022682Y-12176293D02*
X17013158Y-12157246D01*
X17013158Y-12157246D02*
X17013158Y-12147722D01*
X17013158Y-12147722D02*
X17022682Y-12128674D01*
X17022682Y-12128674D02*
X17041730Y-12119150D01*
X17041730Y-12119150D02*
X17070301Y-12119150D01*
X17070301Y-12119150D02*
X17089349Y-12128674D01*
X17165539Y-12328674D02*
X17175063Y-12319150D01*
X17175063Y-12319150D02*
X17194111Y-12290579D01*
X17194111Y-12290579D02*
X17203634Y-12271531D01*
X17203634Y-12271531D02*
X17213158Y-12242960D01*
X17213158Y-12242960D02*
X17222682Y-12195341D01*
X17222682Y-12195341D02*
X17222682Y-12157246D01*
X17222682Y-12157246D02*
X17213158Y-12109627D01*
X17213158Y-12109627D02*
X17203634Y-12081055D01*
X17203634Y-12081055D02*
X17194111Y-12062008D01*
X17194111Y-12062008D02*
X17175063Y-12033436D01*
X17175063Y-12033436D02*
X17165539Y-12023912D01*
D10*
X12160000Y-12385000D02*
X12160000Y-12465000D01*
X12120000Y-12425000D02*
X12200000Y-12425000D01*
D11*
X12498872Y-12316484D02*
X12517920Y-12316484D01*
X12517920Y-12316484D02*
X12536967Y-12326008D01*
X12536967Y-12326008D02*
X12546491Y-12335531D01*
X12546491Y-12335531D02*
X12556015Y-12354579D01*
X12556015Y-12354579D02*
X12565539Y-12392674D01*
X12565539Y-12392674D02*
X12565539Y-12440293D01*
X12565539Y-12440293D02*
X12556015Y-12478388D01*
X12556015Y-12478388D02*
X12546491Y-12497436D01*
X12546491Y-12497436D02*
X12536967Y-12506960D01*
X12536967Y-12506960D02*
X12517920Y-12516484D01*
X12517920Y-12516484D02*
X12498872Y-12516484D01*
X12498872Y-12516484D02*
X12479824Y-12506960D01*
X12479824Y-12506960D02*
X12470301Y-12497436D01*
X12470301Y-12497436D02*
X12460777Y-12478388D01*
X12460777Y-12478388D02*
X12451253Y-12440293D01*
X12451253Y-12440293D02*
X12451253Y-12392674D01*
X12451253Y-12392674D02*
X12460777Y-12354579D01*
X12460777Y-12354579D02*
X12470301Y-12335531D01*
X12470301Y-12335531D02*
X12479824Y-12326008D01*
X12479824Y-12326008D02*
X12498872Y-12316484D01*
X12651253Y-12497436D02*
X12660777Y-12506960D01*
X12660777Y-12506960D02*
X12651253Y-12516484D01*
X12651253Y-12516484D02*
X12641729Y-12506960D01*
X12641729Y-12506960D02*
X12651253Y-12497436D01*
X12651253Y-12497436D02*
X12651253Y-12516484D01*
X12775062Y-12402198D02*
X12756015Y-12392674D01*
X12756015Y-12392674D02*
X12746491Y-12383150D01*
X12746491Y-12383150D02*
X12736967Y-12364103D01*
X12736967Y-12364103D02*
X12736967Y-12354579D01*
X12736967Y-12354579D02*
X12746491Y-12335531D01*
X12746491Y-12335531D02*
X12756015Y-12326008D01*
X12756015Y-12326008D02*
X12775062Y-12316484D01*
X12775062Y-12316484D02*
X12813158Y-12316484D01*
X12813158Y-12316484D02*
X12832205Y-12326008D01*
X12832205Y-12326008D02*
X12841729Y-12335531D01*
X12841729Y-12335531D02*
X12851253Y-12354579D01*
X12851253Y-12354579D02*
X12851253Y-12364103D01*
X12851253Y-12364103D02*
X12841729Y-12383150D01*
X12841729Y-12383150D02*
X12832205Y-12392674D01*
X12832205Y-12392674D02*
X12813158Y-12402198D01*
X12813158Y-12402198D02*
X12775062Y-12402198D01*
X12775062Y-12402198D02*
X12756015Y-12411722D01*
X12756015Y-12411722D02*
X12746491Y-12421246D01*
X12746491Y-12421246D02*
X12736967Y-12440293D01*
X12736967Y-12440293D02*
X12736967Y-12478388D01*
X12736967Y-12478388D02*
X12746491Y-12497436D01*
X12746491Y-12497436D02*
X12756015Y-12506960D01*
X12756015Y-12506960D02*
X12775062Y-12516484D01*
X12775062Y-12516484D02*
X12813158Y-12516484D01*
X12813158Y-12516484D02*
X12832205Y-12506960D01*
X12832205Y-12506960D02*
X12841729Y-12497436D01*
X12841729Y-12497436D02*
X12851253Y-12478388D01*
X12851253Y-12478388D02*
X12851253Y-12440293D01*
X12851253Y-12440293D02*
X12841729Y-12421246D01*
X12841729Y-12421246D02*
X12832205Y-12411722D01*
X12832205Y-12411722D02*
X12813158Y-12402198D01*
X12975062Y-12316484D02*
X12994110Y-12316484D01*
X12994110Y-12316484D02*
X13013158Y-12326008D01*
X13013158Y-12326008D02*
X13022682Y-12335531D01*
X13022682Y-12335531D02*
X13032205Y-12354579D01*
X13032205Y-12354579D02*
X13041729Y-12392674D01*
X13041729Y-12392674D02*
X13041729Y-12440293D01*
X13041729Y-12440293D02*
X13032205Y-12478388D01*
X13032205Y-12478388D02*
X13022682Y-12497436D01*
X13022682Y-12497436D02*
X13013158Y-12506960D01*
X13013158Y-12506960D02*
X12994110Y-12516484D01*
X12994110Y-12516484D02*
X12975062Y-12516484D01*
X12975062Y-12516484D02*
X12956015Y-12506960D01*
X12956015Y-12506960D02*
X12946491Y-12497436D01*
X12946491Y-12497436D02*
X12936967Y-12478388D01*
X12936967Y-12478388D02*
X12927443Y-12440293D01*
X12927443Y-12440293D02*
X12927443Y-12392674D01*
X12927443Y-12392674D02*
X12936967Y-12354579D01*
X12936967Y-12354579D02*
X12946491Y-12335531D01*
X12946491Y-12335531D02*
X12956015Y-12326008D01*
X12956015Y-12326008D02*
X12975062Y-12316484D01*
X13165539Y-12316484D02*
X13184586Y-12316484D01*
X13184586Y-12316484D02*
X13203634Y-12326008D01*
X13203634Y-12326008D02*
X13213158Y-12335531D01*
X13213158Y-12335531D02*
X13222682Y-12354579D01*
X13222682Y-12354579D02*
X13232205Y-12392674D01*
X13232205Y-12392674D02*
X13232205Y-12440293D01*
X13232205Y-12440293D02*
X13222682Y-12478388D01*
X13222682Y-12478388D02*
X13213158Y-12497436D01*
X13213158Y-12497436D02*
X13203634Y-12506960D01*
X13203634Y-12506960D02*
X13184586Y-12516484D01*
X13184586Y-12516484D02*
X13165539Y-12516484D01*
X13165539Y-12516484D02*
X13146491Y-12506960D01*
X13146491Y-12506960D02*
X13136967Y-12497436D01*
X13136967Y-12497436D02*
X13127443Y-12478388D01*
X13127443Y-12478388D02*
X13117920Y-12440293D01*
X13117920Y-12440293D02*
X13117920Y-12392674D01*
X13117920Y-12392674D02*
X13127443Y-12354579D01*
X13127443Y-12354579D02*
X13136967Y-12335531D01*
X13136967Y-12335531D02*
X13146491Y-12326008D01*
X13146491Y-12326008D02*
X13165539Y-12316484D01*
X13317920Y-12516484D02*
X13317920Y-12383150D01*
X13317920Y-12402198D02*
X13327443Y-12392674D01*
X13327443Y-12392674D02*
X13346491Y-12383150D01*
X13346491Y-12383150D02*
X13375063Y-12383150D01*
X13375063Y-12383150D02*
X13394110Y-12392674D01*
X13394110Y-12392674D02*
X13403634Y-12411722D01*
X13403634Y-12411722D02*
X13403634Y-12516484D01*
X13403634Y-12411722D02*
X13413158Y-12392674D01*
X13413158Y-12392674D02*
X13432205Y-12383150D01*
X13432205Y-12383150D02*
X13460777Y-12383150D01*
X13460777Y-12383150D02*
X13479824Y-12392674D01*
X13479824Y-12392674D02*
X13489348Y-12411722D01*
X13489348Y-12411722D02*
X13489348Y-12516484D01*
X13584586Y-12516484D02*
X13584586Y-12383150D01*
X13584586Y-12402198D02*
X13594110Y-12392674D01*
X13594110Y-12392674D02*
X13613158Y-12383150D01*
X13613158Y-12383150D02*
X13641729Y-12383150D01*
X13641729Y-12383150D02*
X13660777Y-12392674D01*
X13660777Y-12392674D02*
X13670301Y-12411722D01*
X13670301Y-12411722D02*
X13670301Y-12516484D01*
X13670301Y-12411722D02*
X13679824Y-12392674D01*
X13679824Y-12392674D02*
X13698872Y-12383150D01*
X13698872Y-12383150D02*
X13727443Y-12383150D01*
X13727443Y-12383150D02*
X13746491Y-12392674D01*
X13746491Y-12392674D02*
X13756015Y-12411722D01*
X13756015Y-12411722D02*
X13756015Y-12516484D01*
X14146491Y-12306960D02*
X13975063Y-12564103D01*
X14403634Y-12316484D02*
X14422682Y-12316484D01*
X14422682Y-12316484D02*
X14441729Y-12326008D01*
X14441729Y-12326008D02*
X14451253Y-12335531D01*
X14451253Y-12335531D02*
X14460777Y-12354579D01*
X14460777Y-12354579D02*
X14470301Y-12392674D01*
X14470301Y-12392674D02*
X14470301Y-12440293D01*
X14470301Y-12440293D02*
X14460777Y-12478388D01*
X14460777Y-12478388D02*
X14451253Y-12497436D01*
X14451253Y-12497436D02*
X14441729Y-12506960D01*
X14441729Y-12506960D02*
X14422682Y-12516484D01*
X14422682Y-12516484D02*
X14403634Y-12516484D01*
X14403634Y-12516484D02*
X14384586Y-12506960D01*
X14384586Y-12506960D02*
X14375063Y-12497436D01*
X14375063Y-12497436D02*
X14365539Y-12478388D01*
X14365539Y-12478388D02*
X14356015Y-12440293D01*
X14356015Y-12440293D02*
X14356015Y-12392674D01*
X14356015Y-12392674D02*
X14365539Y-12354579D01*
X14365539Y-12354579D02*
X14375063Y-12335531D01*
X14375063Y-12335531D02*
X14384586Y-12326008D01*
X14384586Y-12326008D02*
X14403634Y-12316484D01*
X14556015Y-12497436D02*
X14565539Y-12506960D01*
X14565539Y-12506960D02*
X14556015Y-12516484D01*
X14556015Y-12516484D02*
X14546491Y-12506960D01*
X14546491Y-12506960D02*
X14556015Y-12497436D01*
X14556015Y-12497436D02*
X14556015Y-12516484D01*
X14689348Y-12316484D02*
X14708396Y-12316484D01*
X14708396Y-12316484D02*
X14727444Y-12326008D01*
X14727444Y-12326008D02*
X14736967Y-12335531D01*
X14736967Y-12335531D02*
X14746491Y-12354579D01*
X14746491Y-12354579D02*
X14756015Y-12392674D01*
X14756015Y-12392674D02*
X14756015Y-12440293D01*
X14756015Y-12440293D02*
X14746491Y-12478388D01*
X14746491Y-12478388D02*
X14736967Y-12497436D01*
X14736967Y-12497436D02*
X14727444Y-12506960D01*
X14727444Y-12506960D02*
X14708396Y-12516484D01*
X14708396Y-12516484D02*
X14689348Y-12516484D01*
X14689348Y-12516484D02*
X14670301Y-12506960D01*
X14670301Y-12506960D02*
X14660777Y-12497436D01*
X14660777Y-12497436D02*
X14651253Y-12478388D01*
X14651253Y-12478388D02*
X14641729Y-12440293D01*
X14641729Y-12440293D02*
X14641729Y-12392674D01*
X14641729Y-12392674D02*
X14651253Y-12354579D01*
X14651253Y-12354579D02*
X14660777Y-12335531D01*
X14660777Y-12335531D02*
X14670301Y-12326008D01*
X14670301Y-12326008D02*
X14689348Y-12316484D01*
X14822682Y-12316484D02*
X14946491Y-12316484D01*
X14946491Y-12316484D02*
X14879825Y-12392674D01*
X14879825Y-12392674D02*
X14908396Y-12392674D01*
X14908396Y-12392674D02*
X14927444Y-12402198D01*
X14927444Y-12402198D02*
X14936967Y-12411722D01*
X14936967Y-12411722D02*
X14946491Y-12430769D01*
X14946491Y-12430769D02*
X14946491Y-12478388D01*
X14946491Y-12478388D02*
X14936967Y-12497436D01*
X14936967Y-12497436D02*
X14927444Y-12506960D01*
X14927444Y-12506960D02*
X14908396Y-12516484D01*
X14908396Y-12516484D02*
X14851253Y-12516484D01*
X14851253Y-12516484D02*
X14832206Y-12506960D01*
X14832206Y-12506960D02*
X14822682Y-12497436D01*
X15136967Y-12516484D02*
X15022682Y-12516484D01*
X15079825Y-12516484D02*
X15079825Y-12316484D01*
X15079825Y-12316484D02*
X15060777Y-12345055D01*
X15060777Y-12345055D02*
X15041729Y-12364103D01*
X15041729Y-12364103D02*
X15022682Y-12373627D01*
X15317920Y-12316484D02*
X15222682Y-12316484D01*
X15222682Y-12316484D02*
X15213158Y-12411722D01*
X15213158Y-12411722D02*
X15222682Y-12402198D01*
X15222682Y-12402198D02*
X15241729Y-12392674D01*
X15241729Y-12392674D02*
X15289348Y-12392674D01*
X15289348Y-12392674D02*
X15308396Y-12402198D01*
X15308396Y-12402198D02*
X15317920Y-12411722D01*
X15317920Y-12411722D02*
X15327444Y-12430769D01*
X15327444Y-12430769D02*
X15327444Y-12478388D01*
X15327444Y-12478388D02*
X15317920Y-12497436D01*
X15317920Y-12497436D02*
X15308396Y-12506960D01*
X15308396Y-12506960D02*
X15289348Y-12516484D01*
X15289348Y-12516484D02*
X15241729Y-12516484D01*
X15241729Y-12516484D02*
X15222682Y-12506960D01*
X15222682Y-12506960D02*
X15213158Y-12497436D01*
X15403634Y-12316484D02*
X15403634Y-12354579D01*
X15479825Y-12316484D02*
X15479825Y-12354579D01*
X15775063Y-12592674D02*
X15765539Y-12583150D01*
X15765539Y-12583150D02*
X15746491Y-12554579D01*
X15746491Y-12554579D02*
X15736968Y-12535531D01*
X15736968Y-12535531D02*
X15727444Y-12506960D01*
X15727444Y-12506960D02*
X15717920Y-12459341D01*
X15717920Y-12459341D02*
X15717920Y-12421246D01*
X15717920Y-12421246D02*
X15727444Y-12373627D01*
X15727444Y-12373627D02*
X15736968Y-12345055D01*
X15736968Y-12345055D02*
X15746491Y-12326008D01*
X15746491Y-12326008D02*
X15765539Y-12297436D01*
X15765539Y-12297436D02*
X15775063Y-12287912D01*
X15832206Y-12316484D02*
X15956015Y-12316484D01*
X15956015Y-12316484D02*
X15889348Y-12392674D01*
X15889348Y-12392674D02*
X15917920Y-12392674D01*
X15917920Y-12392674D02*
X15936968Y-12402198D01*
X15936968Y-12402198D02*
X15946491Y-12411722D01*
X15946491Y-12411722D02*
X15956015Y-12430769D01*
X15956015Y-12430769D02*
X15956015Y-12478388D01*
X15956015Y-12478388D02*
X15946491Y-12497436D01*
X15946491Y-12497436D02*
X15936968Y-12506960D01*
X15936968Y-12506960D02*
X15917920Y-12516484D01*
X15917920Y-12516484D02*
X15860777Y-12516484D01*
X15860777Y-12516484D02*
X15841729Y-12506960D01*
X15841729Y-12506960D02*
X15832206Y-12497436D01*
X16194110Y-12516484D02*
X16194110Y-12316484D01*
X16279825Y-12516484D02*
X16279825Y-12411722D01*
X16279825Y-12411722D02*
X16270301Y-12392674D01*
X16270301Y-12392674D02*
X16251253Y-12383150D01*
X16251253Y-12383150D02*
X16222682Y-12383150D01*
X16222682Y-12383150D02*
X16203634Y-12392674D01*
X16203634Y-12392674D02*
X16194110Y-12402198D01*
X16403634Y-12516484D02*
X16384587Y-12506960D01*
X16384587Y-12506960D02*
X16375063Y-12497436D01*
X16375063Y-12497436D02*
X16365539Y-12478388D01*
X16365539Y-12478388D02*
X16365539Y-12421246D01*
X16365539Y-12421246D02*
X16375063Y-12402198D01*
X16375063Y-12402198D02*
X16384587Y-12392674D01*
X16384587Y-12392674D02*
X16403634Y-12383150D01*
X16403634Y-12383150D02*
X16432206Y-12383150D01*
X16432206Y-12383150D02*
X16451253Y-12392674D01*
X16451253Y-12392674D02*
X16460777Y-12402198D01*
X16460777Y-12402198D02*
X16470301Y-12421246D01*
X16470301Y-12421246D02*
X16470301Y-12478388D01*
X16470301Y-12478388D02*
X16460777Y-12497436D01*
X16460777Y-12497436D02*
X16451253Y-12506960D01*
X16451253Y-12506960D02*
X16432206Y-12516484D01*
X16432206Y-12516484D02*
X16403634Y-12516484D01*
X16584587Y-12516484D02*
X16565539Y-12506960D01*
X16565539Y-12506960D02*
X16556015Y-12487912D01*
X16556015Y-12487912D02*
X16556015Y-12316484D01*
X16736968Y-12506960D02*
X16717920Y-12516484D01*
X16717920Y-12516484D02*
X16679825Y-12516484D01*
X16679825Y-12516484D02*
X16660777Y-12506960D01*
X16660777Y-12506960D02*
X16651253Y-12487912D01*
X16651253Y-12487912D02*
X16651253Y-12411722D01*
X16651253Y-12411722D02*
X16660777Y-12392674D01*
X16660777Y-12392674D02*
X16679825Y-12383150D01*
X16679825Y-12383150D02*
X16717920Y-12383150D01*
X16717920Y-12383150D02*
X16736968Y-12392674D01*
X16736968Y-12392674D02*
X16746491Y-12411722D01*
X16746491Y-12411722D02*
X16746491Y-12430769D01*
X16746491Y-12430769D02*
X16651253Y-12449817D01*
X16822682Y-12506960D02*
X16841730Y-12516484D01*
X16841730Y-12516484D02*
X16879825Y-12516484D01*
X16879825Y-12516484D02*
X16898873Y-12506960D01*
X16898873Y-12506960D02*
X16908396Y-12487912D01*
X16908396Y-12487912D02*
X16908396Y-12478388D01*
X16908396Y-12478388D02*
X16898873Y-12459341D01*
X16898873Y-12459341D02*
X16879825Y-12449817D01*
X16879825Y-12449817D02*
X16851253Y-12449817D01*
X16851253Y-12449817D02*
X16832206Y-12440293D01*
X16832206Y-12440293D02*
X16822682Y-12421246D01*
X16822682Y-12421246D02*
X16822682Y-12411722D01*
X16822682Y-12411722D02*
X16832206Y-12392674D01*
X16832206Y-12392674D02*
X16851253Y-12383150D01*
X16851253Y-12383150D02*
X16879825Y-12383150D01*
X16879825Y-12383150D02*
X16898873Y-12392674D01*
X16975063Y-12592674D02*
X16984587Y-12583150D01*
X16984587Y-12583150D02*
X17003634Y-12554579D01*
X17003634Y-12554579D02*
X17013158Y-12535531D01*
X17013158Y-12535531D02*
X17022682Y-12506960D01*
X17022682Y-12506960D02*
X17032206Y-12459341D01*
X17032206Y-12459341D02*
X17032206Y-12421246D01*
X17032206Y-12421246D02*
X17022682Y-12373627D01*
X17022682Y-12373627D02*
X17013158Y-12345055D01*
X17013158Y-12345055D02*
X17003634Y-12326008D01*
X17003634Y-12326008D02*
X16984587Y-12297436D01*
X16984587Y-12297436D02*
X16975063Y-12287912D01*
D10*
X12185356Y-12724356D02*
X12185356Y-12653644D01*
X12114644Y-12653644D01*
X12114644Y-12724356D01*
X12185356Y-12724356D01*
D11*
X12565539Y-12780484D02*
X12451253Y-12780484D01*
X12508396Y-12780484D02*
X12508396Y-12580484D01*
X12508396Y-12580484D02*
X12489348Y-12609055D01*
X12489348Y-12609055D02*
X12470301Y-12628103D01*
X12470301Y-12628103D02*
X12451253Y-12637627D01*
X12651253Y-12761436D02*
X12660777Y-12770960D01*
X12660777Y-12770960D02*
X12651253Y-12780484D01*
X12651253Y-12780484D02*
X12641729Y-12770960D01*
X12641729Y-12770960D02*
X12651253Y-12761436D01*
X12651253Y-12761436D02*
X12651253Y-12780484D01*
X12784586Y-12580484D02*
X12803634Y-12580484D01*
X12803634Y-12580484D02*
X12822682Y-12590008D01*
X12822682Y-12590008D02*
X12832205Y-12599531D01*
X12832205Y-12599531D02*
X12841729Y-12618579D01*
X12841729Y-12618579D02*
X12851253Y-12656674D01*
X12851253Y-12656674D02*
X12851253Y-12704293D01*
X12851253Y-12704293D02*
X12841729Y-12742388D01*
X12841729Y-12742388D02*
X12832205Y-12761436D01*
X12832205Y-12761436D02*
X12822682Y-12770960D01*
X12822682Y-12770960D02*
X12803634Y-12780484D01*
X12803634Y-12780484D02*
X12784586Y-12780484D01*
X12784586Y-12780484D02*
X12765539Y-12770960D01*
X12765539Y-12770960D02*
X12756015Y-12761436D01*
X12756015Y-12761436D02*
X12746491Y-12742388D01*
X12746491Y-12742388D02*
X12736967Y-12704293D01*
X12736967Y-12704293D02*
X12736967Y-12656674D01*
X12736967Y-12656674D02*
X12746491Y-12618579D01*
X12746491Y-12618579D02*
X12756015Y-12599531D01*
X12756015Y-12599531D02*
X12765539Y-12590008D01*
X12765539Y-12590008D02*
X12784586Y-12580484D01*
X12975062Y-12580484D02*
X12994110Y-12580484D01*
X12994110Y-12580484D02*
X13013158Y-12590008D01*
X13013158Y-12590008D02*
X13022682Y-12599531D01*
X13022682Y-12599531D02*
X13032205Y-12618579D01*
X13032205Y-12618579D02*
X13041729Y-12656674D01*
X13041729Y-12656674D02*
X13041729Y-12704293D01*
X13041729Y-12704293D02*
X13032205Y-12742388D01*
X13032205Y-12742388D02*
X13022682Y-12761436D01*
X13022682Y-12761436D02*
X13013158Y-12770960D01*
X13013158Y-12770960D02*
X12994110Y-12780484D01*
X12994110Y-12780484D02*
X12975062Y-12780484D01*
X12975062Y-12780484D02*
X12956015Y-12770960D01*
X12956015Y-12770960D02*
X12946491Y-12761436D01*
X12946491Y-12761436D02*
X12936967Y-12742388D01*
X12936967Y-12742388D02*
X12927443Y-12704293D01*
X12927443Y-12704293D02*
X12927443Y-12656674D01*
X12927443Y-12656674D02*
X12936967Y-12618579D01*
X12936967Y-12618579D02*
X12946491Y-12599531D01*
X12946491Y-12599531D02*
X12956015Y-12590008D01*
X12956015Y-12590008D02*
X12975062Y-12580484D01*
X13165539Y-12580484D02*
X13184586Y-12580484D01*
X13184586Y-12580484D02*
X13203634Y-12590008D01*
X13203634Y-12590008D02*
X13213158Y-12599531D01*
X13213158Y-12599531D02*
X13222682Y-12618579D01*
X13222682Y-12618579D02*
X13232205Y-12656674D01*
X13232205Y-12656674D02*
X13232205Y-12704293D01*
X13232205Y-12704293D02*
X13222682Y-12742388D01*
X13222682Y-12742388D02*
X13213158Y-12761436D01*
X13213158Y-12761436D02*
X13203634Y-12770960D01*
X13203634Y-12770960D02*
X13184586Y-12780484D01*
X13184586Y-12780484D02*
X13165539Y-12780484D01*
X13165539Y-12780484D02*
X13146491Y-12770960D01*
X13146491Y-12770960D02*
X13136967Y-12761436D01*
X13136967Y-12761436D02*
X13127443Y-12742388D01*
X13127443Y-12742388D02*
X13117920Y-12704293D01*
X13117920Y-12704293D02*
X13117920Y-12656674D01*
X13117920Y-12656674D02*
X13127443Y-12618579D01*
X13127443Y-12618579D02*
X13136967Y-12599531D01*
X13136967Y-12599531D02*
X13146491Y-12590008D01*
X13146491Y-12590008D02*
X13165539Y-12580484D01*
X13317920Y-12780484D02*
X13317920Y-12647150D01*
X13317920Y-12666198D02*
X13327443Y-12656674D01*
X13327443Y-12656674D02*
X13346491Y-12647150D01*
X13346491Y-12647150D02*
X13375063Y-12647150D01*
X13375063Y-12647150D02*
X13394110Y-12656674D01*
X13394110Y-12656674D02*
X13403634Y-12675722D01*
X13403634Y-12675722D02*
X13403634Y-12780484D01*
X13403634Y-12675722D02*
X13413158Y-12656674D01*
X13413158Y-12656674D02*
X13432205Y-12647150D01*
X13432205Y-12647150D02*
X13460777Y-12647150D01*
X13460777Y-12647150D02*
X13479824Y-12656674D01*
X13479824Y-12656674D02*
X13489348Y-12675722D01*
X13489348Y-12675722D02*
X13489348Y-12780484D01*
X13584586Y-12780484D02*
X13584586Y-12647150D01*
X13584586Y-12666198D02*
X13594110Y-12656674D01*
X13594110Y-12656674D02*
X13613158Y-12647150D01*
X13613158Y-12647150D02*
X13641729Y-12647150D01*
X13641729Y-12647150D02*
X13660777Y-12656674D01*
X13660777Y-12656674D02*
X13670301Y-12675722D01*
X13670301Y-12675722D02*
X13670301Y-12780484D01*
X13670301Y-12675722D02*
X13679824Y-12656674D01*
X13679824Y-12656674D02*
X13698872Y-12647150D01*
X13698872Y-12647150D02*
X13727443Y-12647150D01*
X13727443Y-12647150D02*
X13746491Y-12656674D01*
X13746491Y-12656674D02*
X13756015Y-12675722D01*
X13756015Y-12675722D02*
X13756015Y-12780484D01*
X14146491Y-12570960D02*
X13975063Y-12828103D01*
X14403634Y-12580484D02*
X14422682Y-12580484D01*
X14422682Y-12580484D02*
X14441729Y-12590008D01*
X14441729Y-12590008D02*
X14451253Y-12599531D01*
X14451253Y-12599531D02*
X14460777Y-12618579D01*
X14460777Y-12618579D02*
X14470301Y-12656674D01*
X14470301Y-12656674D02*
X14470301Y-12704293D01*
X14470301Y-12704293D02*
X14460777Y-12742388D01*
X14460777Y-12742388D02*
X14451253Y-12761436D01*
X14451253Y-12761436D02*
X14441729Y-12770960D01*
X14441729Y-12770960D02*
X14422682Y-12780484D01*
X14422682Y-12780484D02*
X14403634Y-12780484D01*
X14403634Y-12780484D02*
X14384586Y-12770960D01*
X14384586Y-12770960D02*
X14375063Y-12761436D01*
X14375063Y-12761436D02*
X14365539Y-12742388D01*
X14365539Y-12742388D02*
X14356015Y-12704293D01*
X14356015Y-12704293D02*
X14356015Y-12656674D01*
X14356015Y-12656674D02*
X14365539Y-12618579D01*
X14365539Y-12618579D02*
X14375063Y-12599531D01*
X14375063Y-12599531D02*
X14384586Y-12590008D01*
X14384586Y-12590008D02*
X14403634Y-12580484D01*
X14556015Y-12761436D02*
X14565539Y-12770960D01*
X14565539Y-12770960D02*
X14556015Y-12780484D01*
X14556015Y-12780484D02*
X14546491Y-12770960D01*
X14546491Y-12770960D02*
X14556015Y-12761436D01*
X14556015Y-12761436D02*
X14556015Y-12780484D01*
X14689348Y-12580484D02*
X14708396Y-12580484D01*
X14708396Y-12580484D02*
X14727444Y-12590008D01*
X14727444Y-12590008D02*
X14736967Y-12599531D01*
X14736967Y-12599531D02*
X14746491Y-12618579D01*
X14746491Y-12618579D02*
X14756015Y-12656674D01*
X14756015Y-12656674D02*
X14756015Y-12704293D01*
X14756015Y-12704293D02*
X14746491Y-12742388D01*
X14746491Y-12742388D02*
X14736967Y-12761436D01*
X14736967Y-12761436D02*
X14727444Y-12770960D01*
X14727444Y-12770960D02*
X14708396Y-12780484D01*
X14708396Y-12780484D02*
X14689348Y-12780484D01*
X14689348Y-12780484D02*
X14670301Y-12770960D01*
X14670301Y-12770960D02*
X14660777Y-12761436D01*
X14660777Y-12761436D02*
X14651253Y-12742388D01*
X14651253Y-12742388D02*
X14641729Y-12704293D01*
X14641729Y-12704293D02*
X14641729Y-12656674D01*
X14641729Y-12656674D02*
X14651253Y-12618579D01*
X14651253Y-12618579D02*
X14660777Y-12599531D01*
X14660777Y-12599531D02*
X14670301Y-12590008D01*
X14670301Y-12590008D02*
X14689348Y-12580484D01*
X14822682Y-12580484D02*
X14946491Y-12580484D01*
X14946491Y-12580484D02*
X14879825Y-12656674D01*
X14879825Y-12656674D02*
X14908396Y-12656674D01*
X14908396Y-12656674D02*
X14927444Y-12666198D01*
X14927444Y-12666198D02*
X14936967Y-12675722D01*
X14936967Y-12675722D02*
X14946491Y-12694769D01*
X14946491Y-12694769D02*
X14946491Y-12742388D01*
X14946491Y-12742388D02*
X14936967Y-12761436D01*
X14936967Y-12761436D02*
X14927444Y-12770960D01*
X14927444Y-12770960D02*
X14908396Y-12780484D01*
X14908396Y-12780484D02*
X14851253Y-12780484D01*
X14851253Y-12780484D02*
X14832206Y-12770960D01*
X14832206Y-12770960D02*
X14822682Y-12761436D01*
X15041729Y-12780484D02*
X15079825Y-12780484D01*
X15079825Y-12780484D02*
X15098872Y-12770960D01*
X15098872Y-12770960D02*
X15108396Y-12761436D01*
X15108396Y-12761436D02*
X15127444Y-12732865D01*
X15127444Y-12732865D02*
X15136967Y-12694769D01*
X15136967Y-12694769D02*
X15136967Y-12618579D01*
X15136967Y-12618579D02*
X15127444Y-12599531D01*
X15127444Y-12599531D02*
X15117920Y-12590008D01*
X15117920Y-12590008D02*
X15098872Y-12580484D01*
X15098872Y-12580484D02*
X15060777Y-12580484D01*
X15060777Y-12580484D02*
X15041729Y-12590008D01*
X15041729Y-12590008D02*
X15032206Y-12599531D01*
X15032206Y-12599531D02*
X15022682Y-12618579D01*
X15022682Y-12618579D02*
X15022682Y-12666198D01*
X15022682Y-12666198D02*
X15032206Y-12685246D01*
X15032206Y-12685246D02*
X15041729Y-12694769D01*
X15041729Y-12694769D02*
X15060777Y-12704293D01*
X15060777Y-12704293D02*
X15098872Y-12704293D01*
X15098872Y-12704293D02*
X15117920Y-12694769D01*
X15117920Y-12694769D02*
X15127444Y-12685246D01*
X15127444Y-12685246D02*
X15136967Y-12666198D01*
X15308396Y-12647150D02*
X15308396Y-12780484D01*
X15260777Y-12570960D02*
X15213158Y-12713817D01*
X15213158Y-12713817D02*
X15336967Y-12713817D01*
X15403634Y-12580484D02*
X15403634Y-12618579D01*
X15479825Y-12580484D02*
X15479825Y-12618579D01*
X15775063Y-12856674D02*
X15765539Y-12847150D01*
X15765539Y-12847150D02*
X15746491Y-12818579D01*
X15746491Y-12818579D02*
X15736968Y-12799531D01*
X15736968Y-12799531D02*
X15727444Y-12770960D01*
X15727444Y-12770960D02*
X15717920Y-12723341D01*
X15717920Y-12723341D02*
X15717920Y-12685246D01*
X15717920Y-12685246D02*
X15727444Y-12637627D01*
X15727444Y-12637627D02*
X15736968Y-12609055D01*
X15736968Y-12609055D02*
X15746491Y-12590008D01*
X15746491Y-12590008D02*
X15765539Y-12561436D01*
X15765539Y-12561436D02*
X15775063Y-12551912D01*
X15841729Y-12599531D02*
X15851253Y-12590008D01*
X15851253Y-12590008D02*
X15870301Y-12580484D01*
X15870301Y-12580484D02*
X15917920Y-12580484D01*
X15917920Y-12580484D02*
X15936968Y-12590008D01*
X15936968Y-12590008D02*
X15946491Y-12599531D01*
X15946491Y-12599531D02*
X15956015Y-12618579D01*
X15956015Y-12618579D02*
X15956015Y-12637627D01*
X15956015Y-12637627D02*
X15946491Y-12666198D01*
X15946491Y-12666198D02*
X15832206Y-12780484D01*
X15832206Y-12780484D02*
X15956015Y-12780484D01*
X16136968Y-12580484D02*
X16041729Y-12580484D01*
X16041729Y-12580484D02*
X16032206Y-12675722D01*
X16032206Y-12675722D02*
X16041729Y-12666198D01*
X16041729Y-12666198D02*
X16060777Y-12656674D01*
X16060777Y-12656674D02*
X16108396Y-12656674D01*
X16108396Y-12656674D02*
X16127444Y-12666198D01*
X16127444Y-12666198D02*
X16136968Y-12675722D01*
X16136968Y-12675722D02*
X16146491Y-12694769D01*
X16146491Y-12694769D02*
X16146491Y-12742388D01*
X16146491Y-12742388D02*
X16136968Y-12761436D01*
X16136968Y-12761436D02*
X16127444Y-12770960D01*
X16127444Y-12770960D02*
X16108396Y-12780484D01*
X16108396Y-12780484D02*
X16060777Y-12780484D01*
X16060777Y-12780484D02*
X16041729Y-12770960D01*
X16041729Y-12770960D02*
X16032206Y-12761436D01*
X16384587Y-12780484D02*
X16384587Y-12580484D01*
X16470301Y-12780484D02*
X16470301Y-12675722D01*
X16470301Y-12675722D02*
X16460777Y-12656674D01*
X16460777Y-12656674D02*
X16441730Y-12647150D01*
X16441730Y-12647150D02*
X16413158Y-12647150D01*
X16413158Y-12647150D02*
X16394110Y-12656674D01*
X16394110Y-12656674D02*
X16384587Y-12666198D01*
X16594110Y-12780484D02*
X16575063Y-12770960D01*
X16575063Y-12770960D02*
X16565539Y-12761436D01*
X16565539Y-12761436D02*
X16556015Y-12742388D01*
X16556015Y-12742388D02*
X16556015Y-12685246D01*
X16556015Y-12685246D02*
X16565539Y-12666198D01*
X16565539Y-12666198D02*
X16575063Y-12656674D01*
X16575063Y-12656674D02*
X16594110Y-12647150D01*
X16594110Y-12647150D02*
X16622682Y-12647150D01*
X16622682Y-12647150D02*
X16641730Y-12656674D01*
X16641730Y-12656674D02*
X16651253Y-12666198D01*
X16651253Y-12666198D02*
X16660777Y-12685246D01*
X16660777Y-12685246D02*
X16660777Y-12742388D01*
X16660777Y-12742388D02*
X16651253Y-12761436D01*
X16651253Y-12761436D02*
X16641730Y-12770960D01*
X16641730Y-12770960D02*
X16622682Y-12780484D01*
X16622682Y-12780484D02*
X16594110Y-12780484D01*
X16775063Y-12780484D02*
X16756015Y-12770960D01*
X16756015Y-12770960D02*
X16746491Y-12751912D01*
X16746491Y-12751912D02*
X16746491Y-12580484D01*
X16927444Y-12770960D02*
X16908396Y-12780484D01*
X16908396Y-12780484D02*
X16870301Y-12780484D01*
X16870301Y-12780484D02*
X16851253Y-12770960D01*
X16851253Y-12770960D02*
X16841730Y-12751912D01*
X16841730Y-12751912D02*
X16841730Y-12675722D01*
X16841730Y-12675722D02*
X16851253Y-12656674D01*
X16851253Y-12656674D02*
X16870301Y-12647150D01*
X16870301Y-12647150D02*
X16908396Y-12647150D01*
X16908396Y-12647150D02*
X16927444Y-12656674D01*
X16927444Y-12656674D02*
X16936968Y-12675722D01*
X16936968Y-12675722D02*
X16936968Y-12694769D01*
X16936968Y-12694769D02*
X16841730Y-12713817D01*
X17013158Y-12770960D02*
X17032206Y-12780484D01*
X17032206Y-12780484D02*
X17070301Y-12780484D01*
X17070301Y-12780484D02*
X17089349Y-12770960D01*
X17089349Y-12770960D02*
X17098873Y-12751912D01*
X17098873Y-12751912D02*
X17098873Y-12742388D01*
X17098873Y-12742388D02*
X17089349Y-12723341D01*
X17089349Y-12723341D02*
X17070301Y-12713817D01*
X17070301Y-12713817D02*
X17041730Y-12713817D01*
X17041730Y-12713817D02*
X17022682Y-12704293D01*
X17022682Y-12704293D02*
X17013158Y-12685246D01*
X17013158Y-12685246D02*
X17013158Y-12675722D01*
X17013158Y-12675722D02*
X17022682Y-12656674D01*
X17022682Y-12656674D02*
X17041730Y-12647150D01*
X17041730Y-12647150D02*
X17070301Y-12647150D01*
X17070301Y-12647150D02*
X17089349Y-12656674D01*
X17165539Y-12856674D02*
X17175063Y-12847150D01*
X17175063Y-12847150D02*
X17194111Y-12818579D01*
X17194111Y-12818579D02*
X17203634Y-12799531D01*
X17203634Y-12799531D02*
X17213158Y-12770960D01*
X17213158Y-12770960D02*
X17222682Y-12723341D01*
X17222682Y-12723341D02*
X17222682Y-12685246D01*
X17222682Y-12685246D02*
X17213158Y-12637627D01*
X17213158Y-12637627D02*
X17203634Y-12609055D01*
X17203634Y-12609055D02*
X17194111Y-12590008D01*
X17194111Y-12590008D02*
X17175063Y-12561436D01*
X17175063Y-12561436D02*
X17165539Y-12551912D01*
M02*
